# 3ds Max Wavefront OBJ Exporter v0.97b - (c)2007 guruware
# File Created: 20.10.2015 10:41:30

mtllib langan001.mtl

#
# object DZYJY04
#

v  84.4292 20.7362 1.3614
v  84.4299 20.9862 1.2944
v  -81.2247 20.9862 -0.4284
v  -81.2254 20.7362 -0.3614
v  84.4318 21.1692 1.1114
v  -81.2228 21.1692 -0.6114
v  84.4344 21.2362 0.8614
v  -81.2202 21.2362 -0.8614
v  84.4370 21.1692 0.6114
v  -81.2176 21.1692 -1.1114
v  84.4389 20.9862 0.4284
v  -81.2157 20.9862 -1.2944
v  84.4396 20.7362 0.3614
v  -81.2150 20.7362 -1.3613
v  84.4389 20.4862 0.4284
v  -81.2157 20.4862 -1.2944
v  84.4370 20.3032 0.6114
v  -81.2176 20.3032 -1.1114
v  84.4344 20.2362 0.8614
v  -81.2202 20.2362 -0.8614
v  84.4318 20.3032 1.1114
v  -81.2228 20.3032 -0.6114
v  84.4299 20.4862 1.2944
v  -81.2247 20.4862 -0.4284
v  84.4292 0.4808 1.3614
v  84.4299 0.7308 1.2944
v  -81.2247 0.7308 -0.4284
v  -81.2254 0.4808 -0.3614
v  84.4318 0.9138 1.1114
v  -81.2228 0.9138 -0.6114
v  84.4344 0.9808 0.8614
v  -81.2202 0.9808 -0.8614
v  84.4370 0.9138 0.6114
v  -81.2176 0.9138 -1.1114
v  84.4389 0.7308 0.4284
v  -81.2157 0.7308 -1.2944
v  84.4396 0.4808 0.3614
v  -81.2150 0.4808 -1.3613
v  84.4389 0.2308 0.4284
v  -81.2157 0.2308 -1.2944
v  84.4370 0.0478 0.6114
v  -81.2176 0.0478 -1.1114
v  84.4344 -0.0192 0.8614
v  -81.2202 -0.0192 -0.8614
v  84.4318 0.0478 1.1114
v  -81.2228 0.0478 -0.6114
v  84.4299 0.2308 1.2944
v  -81.2247 0.2308 -0.4284
v  84.4292 -19.7818 1.3614
v  84.4299 -19.5318 1.2944
v  -81.2247 -19.5318 -0.4284
v  -81.2254 -19.7818 -0.3614
v  84.4318 -19.3488 1.1114
v  -81.2228 -19.3488 -0.6114
v  84.4344 -19.2818 0.8614
v  -81.2202 -19.2818 -0.8614
v  84.4370 -19.3488 0.6114
v  -81.2176 -19.3488 -1.1114
v  84.4389 -19.5318 0.4284
v  -81.2157 -19.5318 -1.2944
v  84.4396 -19.7818 0.3614
v  -81.2150 -19.7818 -1.3613
v  84.4389 -20.0318 0.4284
v  -81.2157 -20.0318 -1.2944
v  84.4370 -20.2148 0.6114
v  -81.2176 -20.2148 -1.1114
v  84.4344 -20.2818 0.8614
v  -81.2202 -20.2818 -0.8614
v  84.4318 -20.2148 1.1114
v  -81.2228 -20.2148 -0.6114
v  84.4299 -20.0318 1.2944
v  -81.2247 -20.0318 -0.4284
v  84.9344 -40.7500 0.8614
v  84.8674 -40.7500 0.6114
v  84.8674 39.2500 0.6114
v  84.9344 39.2500 0.8614
v  84.6844 -40.7500 0.4284
v  84.6844 39.2500 0.4284
v  84.4344 -40.7500 0.3614
v  84.4344 39.2500 0.3614
v  84.1844 -40.7500 0.4284
v  84.1844 39.2500 0.4284
v  84.0014 -40.7500 0.6114
v  84.0014 39.2500 0.6114
v  83.9344 -40.7500 0.8614
v  83.9344 39.2500 0.8614
v  84.0014 -40.7500 1.1114
v  84.0014 39.2500 1.1114
v  84.1844 -40.7500 1.2944
v  84.1844 39.2500 1.2944
v  84.4344 -40.7500 1.3614
v  84.4344 39.2500 1.3614
v  84.6844 -40.7500 1.2944
v  84.6844 39.2500 1.2944
v  84.8674 -40.7500 1.1114
v  84.8674 39.2500 1.1114
v  5.5142 -40.7500 0.0206
v  5.4472 -40.7500 -0.2294
v  5.4472 39.2500 -0.2294
v  5.5142 39.2500 0.0206
v  5.2642 -40.7500 -0.4124
v  5.2642 39.2500 -0.4124
v  5.0142 -40.7500 -0.4794
v  5.0142 39.2500 -0.4794
v  4.7642 -40.7500 -0.4124
v  4.7642 39.2500 -0.4124
v  4.5812 -40.7500 -0.2294
v  4.5812 39.2500 -0.2294
v  4.5142 -40.7500 0.0206
v  4.5142 39.2500 0.0206
v  4.5812 -40.7500 0.2706
v  4.5812 39.2500 0.2706
v  4.7642 -40.7500 0.4536
v  4.7642 39.2500 0.4536
v  5.0142 -40.7500 0.5206
v  5.0142 39.2500 0.5206
v  5.2642 -40.7500 0.4536
v  5.2642 39.2500 0.4536
v  5.4472 -40.7500 0.2706
v  5.4472 39.2500 0.2706
v  -80.7202 -40.7500 -0.8614
v  -80.7872 -40.7500 -1.1114
v  -80.7872 39.2500 -1.1114
v  -80.7202 39.2500 -0.8614
v  -80.9702 -40.7500 -1.2944
v  -80.9702 39.2500 -1.2944
v  -81.2202 -40.7500 -1.3614
v  -81.2202 39.2500 -1.3614
v  -81.4702 -40.7500 -1.2944
v  -81.4702 39.2500 -1.2944
v  -81.6533 -40.7500 -1.1114
v  -81.6533 39.2500 -1.1114
v  -81.7202 -40.7500 -0.8614
v  -81.7202 39.2500 -0.8614
v  -81.6533 -40.7500 -0.6114
v  -81.6533 39.2500 -0.6114
v  -81.4702 -40.7500 -0.4284
v  -81.4702 39.2500 -0.4284
v  -81.2202 -40.7500 -0.3614
v  -81.2202 39.2500 -0.3614
v  -80.9702 -40.7500 -0.4284
v  -80.9702 39.2500 -0.4284
v  -80.7872 -40.7500 -0.6114
v  -80.7872 39.2500 -0.6114
v  89.8461 39.2500 2.3613
v  89.8480 40.0000 2.1604
v  -89.8730 40.0000 0.4376
v  -89.8749 39.2500 0.6386
v  89.8533 40.5490 1.6114
v  -89.8677 40.5490 -0.1114
v  89.8605 40.7500 0.8614
v  -89.8605 40.7500 -0.8614
v  89.8677 40.5490 0.1115
v  -89.8533 40.5490 -1.6113
v  89.8729 40.0000 -0.4375
v  -89.8481 40.0000 -2.1604
v  89.8749 39.2500 -0.6385
v  -89.8462 39.2500 -2.3613
v  89.8729 38.5000 -0.4375
v  -89.8481 38.5000 -2.1604
v  89.8677 37.9510 0.1115
v  -89.8533 37.9510 -1.6113
v  89.8605 37.7500 0.8614
v  -89.8605 37.7500 -0.8614
v  89.8533 37.9510 1.6114
v  -89.8677 37.9510 -0.1114
v  89.8480 38.5000 2.1604
v  -89.8730 38.5000 0.4376
# 168 vertices

vn -0.0104 0.0000 0.9999
vn -0.0090 0.5000 0.8660
vn -0.0052 0.8660 0.5000
vn 0.0000 1.0000 -0.0000
vn 0.0052 0.8660 -0.5000
vn 0.0090 0.5000 -0.8660
vn 0.0104 0.0000 -0.9999
vn 0.0090 -0.5000 -0.8660
vn 0.0052 -0.8660 -0.5000
vn 0.0000 -1.0000 -0.0000
vn -0.0052 -0.8660 0.5000
vn -0.0090 -0.5000 0.8660
vn -0.9999 0.0000 -0.0104
vn 0.9999 0.0000 0.0104
vn 1.0000 0.0000 -0.0000
vn 0.8660 0.0000 -0.5000
vn 0.5000 0.0000 -0.8660
vn 0.0000 0.0000 -1.0000
vn -0.5000 0.0000 -0.8660
vn -0.8660 0.0000 -0.5000
vn -1.0000 0.0000 -0.0000
vn -0.8660 0.0000 0.5000
vn -0.5000 0.0000 0.8660
vn 0.0000 0.0000 1.0000
vn 0.5000 0.0000 0.8660
vn 0.8660 0.0000 0.5000
vn -0.0096 0.0000 1.0000
vn -0.0083 0.5000 0.8660
vn -0.0048 0.8660 0.5000
vn 0.0048 0.8660 -0.5000
vn 0.0083 0.5000 -0.8660
vn 0.0096 0.0000 -1.0000
vn 0.0083 -0.5000 -0.8660
vn 0.0048 -0.8660 -0.5000
vn -0.0048 -0.8660 0.5000
vn -0.0083 -0.5000 0.8660
vn -1.0000 0.0000 -0.0096
vn 1.0000 0.0000 0.0096
# 38 vertex normals

vt 0.9136 0.2016 0.0000
vt 0.9136 0.2029 0.0000
vt 0.0140 0.2029 0.0000
vt 0.0140 0.2016 0.0000
vt 0.9136 0.2039 0.0000
vt 0.0140 0.2039 0.0000
vt 0.8824 0.2311 0.0000
vt 0.8824 0.2323 0.0000
vt 0.0452 0.2411 0.0000
vt 0.0452 0.2398 0.0000
vt 0.8824 0.2336 0.0000
vt 0.0452 0.2423 0.0000
vt 0.0140 0.1916 0.0000
vt 0.0140 0.1906 0.0000
vt 0.9136 0.1906 0.0000
vt 0.9136 0.1916 0.0000
vt 0.0140 0.1892 0.0000
vt 0.9136 0.1892 0.0000
vt 0.0140 0.1879 0.0000
vt 0.9136 0.1879 0.0000
vt 0.0140 0.1869 0.0000
vt 0.9136 0.1869 0.0000
vt 0.8824 0.2205 0.0000
vt 0.8824 0.2217 0.0000
vt 0.0452 0.2130 0.0000
vt 0.0452 0.2118 0.0000
vt 0.8824 0.2230 0.0000
vt 0.0452 0.2143 0.0000
vt 0.9136 0.1992 0.0000
vt 0.9136 0.2002 0.0000
vt 0.0140 0.2002 0.0000
vt 0.0140 0.1992 0.0000
vt 0.9139 0.3040 0.0000
vt 0.9126 0.3040 0.0000
vt 0.9156 0.3023 0.0000
vt 0.9150 0.3034 0.0000
vt 0.9115 0.3034 0.0000
vt 0.9108 0.3022 0.0000
vt 0.9109 0.3010 0.0000
vt 0.9115 0.2998 0.0000
vt 0.9126 0.2992 0.0000
vt 0.9139 0.2992 0.0000
vt 0.9150 0.2999 0.0000
vt 0.9156 0.3010 0.0000
vt 0.9115 0.2787 0.0000
vt 0.9126 0.2780 0.0000
vt 0.9139 0.2780 0.0000
vt 0.9156 0.2798 0.0000
vt 0.9156 0.2811 0.0000
vt 0.9150 0.2822 0.0000
vt 0.9139 0.2828 0.0000
vt 0.9126 0.2828 0.0000
vt 0.9115 0.2822 0.0000
vt 0.9108 0.2810 0.0000
vt 0.9109 0.2798 0.0000
vt 0.9150 0.2787 0.0000
vt 0.9024 0.1665 0.0000
vt 0.9025 0.1678 0.0000
vt 0.0251 0.1678 0.0000
vt 0.0251 0.1665 0.0000
vt 0.9136 0.3116 0.0000
vt 0.9136 0.3126 0.0000
vt 0.0140 0.3220 0.0000
vt 0.0140 0.3210 0.0000
vt 0.9136 0.3140 0.0000
vt 0.0140 0.3233 0.0000
vt 0.9136 0.3153 0.0000
vt 0.0140 0.3247 0.0000
vt 0.9137 0.3163 0.0000
vt 0.0140 0.3257 0.0000
vt 0.0251 0.1792 0.0000
vt 0.0251 0.1779 0.0000
vt 0.9024 0.1779 0.0000
vt 0.9025 0.1792 0.0000
vt 0.0251 0.1766 0.0000
vt 0.9025 0.1766 0.0000
vt 0.0251 0.1756 0.0000
vt 0.9025 0.1756 0.0000
vt 0.8824 0.2591 0.0000
vt 0.8824 0.2604 0.0000
vt 0.0452 0.2516 0.0000
vt 0.0452 0.2504 0.0000
vt 0.8824 0.2616 0.0000
vt 0.0452 0.2529 0.0000
vt 0.9025 0.1642 0.0000
vt 0.9025 0.1652 0.0000
vt 0.0251 0.1652 0.0000
vt 0.0251 0.1642 0.0000
vt 0.0674 0.0168 0.0000
vt 0.0662 0.0168 0.0000
vt 0.0692 0.0150 0.0000
vt 0.0686 0.0161 0.0000
vt 0.0651 0.0161 0.0000
vt 0.0644 0.0150 0.0000
vt 0.0644 0.0137 0.0000
vt 0.0651 0.0126 0.0000
vt 0.0662 0.0120 0.0000
vt 0.0675 0.0120 0.0000
vt 0.0686 0.0126 0.0000
vt 0.0692 0.0137 0.0000
vt 0.9115 0.3210 0.0000
vt 0.9126 0.3204 0.0000
vt 0.9139 0.3204 0.0000
vt 0.9156 0.3222 0.0000
vt 0.9156 0.3235 0.0000
vt 0.9150 0.3246 0.0000
vt 0.9139 0.3252 0.0000
vt 0.9126 0.3252 0.0000
vt 0.9115 0.3245 0.0000
vt 0.9108 0.3234 0.0000
vt 0.9109 0.3221 0.0000
vt 0.9150 0.3211 0.0000
vt 0.8824 0.1447 0.0000
vt 0.8824 0.1459 0.0000
vt 0.0452 0.1459 0.0000
vt 0.0452 0.1447 0.0000
vt 0.9136 0.2692 0.0000
vt 0.9136 0.2702 0.0000
vt 0.0140 0.2796 0.0000
vt 0.0140 0.2786 0.0000
vt 0.9136 0.2716 0.0000
vt 0.0140 0.2809 0.0000
vt 0.9136 0.2729 0.0000
vt 0.0140 0.2823 0.0000
vt 0.9137 0.2739 0.0000
vt 0.0140 0.2833 0.0000
vt 0.0452 0.1564 0.0000
vt 0.0452 0.1551 0.0000
vt 0.8824 0.1551 0.0000
vt 0.8824 0.1564 0.0000
vt 0.0452 0.1538 0.0000
vt 0.8824 0.1538 0.0000
vt 0.9137 0.2998 0.0000
vt 0.9136 0.3008 0.0000
vt 0.0140 0.2914 0.0000
vt 0.0140 0.2904 0.0000
vt 0.9136 0.3021 0.0000
vt 0.0140 0.2928 0.0000
vt 0.9136 0.3035 0.0000
vt 0.0140 0.2941 0.0000
vt 0.9136 0.3045 0.0000
vt 0.0140 0.2951 0.0000
vt 0.8824 0.1434 0.0000
vt 0.0452 0.1434 0.0000
vt 0.0407 0.0168 0.0000
vt 0.0394 0.0168 0.0000
vt 0.0425 0.0150 0.0000
vt 0.0418 0.0161 0.0000
vt 0.0383 0.0161 0.0000
vt 0.0377 0.0150 0.0000
vt 0.0377 0.0137 0.0000
vt 0.0383 0.0126 0.0000
vt 0.0395 0.0120 0.0000
vt 0.0407 0.0120 0.0000
vt 0.0418 0.0126 0.0000
vt 0.0425 0.0137 0.0000
vt 0.0918 0.0393 0.0000
vt 0.0929 0.0387 0.0000
vt 0.0942 0.0387 0.0000
vt 0.0960 0.0405 0.0000
vt 0.0960 0.0418 0.0000
vt 0.0953 0.0429 0.0000
vt 0.0942 0.0435 0.0000
vt 0.0929 0.0435 0.0000
vt 0.0918 0.0428 0.0000
vt 0.0912 0.0417 0.0000
vt 0.0912 0.0404 0.0000
vt 0.0953 0.0394 0.0000
vt 0.4456 0.0854 0.0000
vt 0.4456 0.0867 0.0000
vt 0.0413 0.0867 0.0000
vt 0.0413 0.0854 0.0000
vt 0.4606 0.0984 0.0000
vt 0.4606 0.0994 0.0000
vt 0.0262 0.0994 0.0000
vt 0.0262 0.0984 0.0000
vt 0.4606 0.1008 0.0000
vt 0.0262 0.1008 0.0000
vt 0.4606 0.1021 0.0000
vt 0.0262 0.1021 0.0000
vt 0.4606 0.1031 0.0000
vt 0.0262 0.1031 0.0000
vt 0.8690 0.0842 0.0000
vt 0.8690 0.0854 0.0000
vt 0.4647 0.0854 0.0000
vt 0.4647 0.0842 0.0000
vt 0.8690 0.0867 0.0000
vt 0.4647 0.0867 0.0000
vt 0.8841 0.0984 0.0000
vt 0.8841 0.0994 0.0000
vt 0.4496 0.0994 0.0000
vt 0.4496 0.0984 0.0000
vt 0.8841 0.1008 0.0000
vt 0.4496 0.1008 0.0000
vt 0.8841 0.1021 0.0000
vt 0.4496 0.1021 0.0000
vt 0.8841 0.1031 0.0000
vt 0.4496 0.1031 0.0000
vt 0.4456 0.0842 0.0000
vt 0.0413 0.0842 0.0000
vt 0.9010 0.2230 0.0000
vt 0.8997 0.2230 0.0000
vt 0.9028 0.2213 0.0000
vt 0.9021 0.2224 0.0000
vt 0.8986 0.2224 0.0000
vt 0.8980 0.2212 0.0000
vt 0.8980 0.2200 0.0000
vt 0.8986 0.2189 0.0000
vt 0.8998 0.2182 0.0000
vt 0.9010 0.2182 0.0000
vt 0.9021 0.2189 0.0000
vt 0.9028 0.2200 0.0000
vt 0.9021 0.2417 0.0000
vt 0.9010 0.2423 0.0000
vt 0.8997 0.2423 0.0000
vt 0.8980 0.2406 0.0000
vt 0.8980 0.2393 0.0000
vt 0.8986 0.2382 0.0000
vt 0.8998 0.2375 0.0000
vt 0.9010 0.2375 0.0000
vt 0.9021 0.2382 0.0000
vt 0.9028 0.2393 0.0000
vt 0.9028 0.2406 0.0000
vt 0.8986 0.2417 0.0000
vt 0.4456 0.0567 0.0000
vt 0.4456 0.0579 0.0000
vt 0.0413 0.0579 0.0000
vt 0.0413 0.0567 0.0000
vt 0.4606 0.1147 0.0000
vt 0.4606 0.1157 0.0000
vt 0.0262 0.1157 0.0000
vt 0.0262 0.1147 0.0000
vt 0.4606 0.1170 0.0000
vt 0.0262 0.1170 0.0000
vt 0.4606 0.1184 0.0000
vt 0.0262 0.1184 0.0000
vt 0.4606 0.1194 0.0000
vt 0.0262 0.1194 0.0000
vt 0.8690 0.0698 0.0000
vt 0.8690 0.0711 0.0000
vt 0.4647 0.0711 0.0000
vt 0.4647 0.0698 0.0000
vt 0.8690 0.0723 0.0000
vt 0.4647 0.0723 0.0000
vt 0.8841 0.1147 0.0000
vt 0.8841 0.1157 0.0000
vt 0.4496 0.1157 0.0000
vt 0.4496 0.1147 0.0000
vt 0.8841 0.1170 0.0000
vt 0.4496 0.1170 0.0000
vt 0.8841 0.1184 0.0000
vt 0.4496 0.1184 0.0000
vt 0.8841 0.1194 0.0000
vt 0.4496 0.1194 0.0000
vt 0.4456 0.0554 0.0000
vt 0.0413 0.0554 0.0000
vt 0.9028 0.2798 0.0000
vt 0.9028 0.2811 0.0000
vt 0.9011 0.2780 0.0000
vt 0.9022 0.2787 0.0000
vt 0.9021 0.2822 0.0000
vt 0.9010 0.2828 0.0000
vt 0.8997 0.2828 0.0000
vt 0.8986 0.2822 0.0000
vt 0.8980 0.2810 0.0000
vt 0.8980 0.2798 0.0000
vt 0.8987 0.2787 0.0000
vt 0.8998 0.2780 0.0000
vt 0.9022 0.2999 0.0000
vt 0.9028 0.3010 0.0000
vt 0.9028 0.3023 0.0000
vt 0.9010 0.3040 0.0000
vt 0.8997 0.3040 0.0000
vt 0.8986 0.3034 0.0000
vt 0.8980 0.3022 0.0000
vt 0.8980 0.3010 0.0000
vt 0.8987 0.2998 0.0000
vt 0.8998 0.2992 0.0000
vt 0.9011 0.2992 0.0000
vt 0.9021 0.3034 0.0000
vt 0.8690 0.0567 0.0000
vt 0.8690 0.0579 0.0000
vt 0.4647 0.0579 0.0000
vt 0.4647 0.0567 0.0000
vt 0.8841 0.1309 0.0000
vt 0.8841 0.1319 0.0000
vt 0.4496 0.1319 0.0000
vt 0.4496 0.1309 0.0000
vt 0.8841 0.1333 0.0000
vt 0.4496 0.1333 0.0000
vt 0.8841 0.1346 0.0000
vt 0.4496 0.1346 0.0000
vt 0.8841 0.1356 0.0000
vt 0.4496 0.1356 0.0000
vt 0.4456 0.0698 0.0000
vt 0.4456 0.0711 0.0000
vt 0.0413 0.0711 0.0000
vt 0.0413 0.0698 0.0000
vt 0.4456 0.0723 0.0000
vt 0.0413 0.0723 0.0000
vt 0.4606 0.1309 0.0000
vt 0.4606 0.1319 0.0000
vt 0.0262 0.1319 0.0000
vt 0.0262 0.1309 0.0000
vt 0.4606 0.1333 0.0000
vt 0.0262 0.1333 0.0000
vt 0.4606 0.1346 0.0000
vt 0.0262 0.1346 0.0000
vt 0.4606 0.1356 0.0000
vt 0.0262 0.1356 0.0000
vt 0.8690 0.0554 0.0000
vt 0.4647 0.0554 0.0000
vt 0.9028 0.2586 0.0000
vt 0.9028 0.2599 0.0000
vt 0.9010 0.2568 0.0000
vt 0.9021 0.2575 0.0000
vt 0.9021 0.2610 0.0000
vt 0.9010 0.2616 0.0000
vt 0.8997 0.2616 0.0000
vt 0.8986 0.2610 0.0000
vt 0.8980 0.2599 0.0000
vt 0.8980 0.2586 0.0000
vt 0.8986 0.2575 0.0000
vt 0.8998 0.2568 0.0000
vt 0.9022 0.3211 0.0000
vt 0.9028 0.3222 0.0000
vt 0.9028 0.3235 0.0000
vt 0.9010 0.3252 0.0000
vt 0.8997 0.3252 0.0000
vt 0.8986 0.3245 0.0000
vt 0.8980 0.3234 0.0000
vt 0.8980 0.3221 0.0000
vt 0.8987 0.3210 0.0000
vt 0.8998 0.3204 0.0000
vt 0.9011 0.3204 0.0000
vt 0.9021 0.3246 0.0000
vt 0.9880 0.3611 0.0000
vt 0.9880 0.3652 0.0000
vt 0.0120 0.3652 0.0000
vt 0.0120 0.3611 0.0000
vt 0.9880 0.3681 0.0000
vt 0.0120 0.3681 0.0000
vt 0.9541 0.4002 0.0000
vt 0.9542 0.4040 0.0000
vt 0.0459 0.4127 0.0000
vt 0.0458 0.4089 0.0000
vt 0.9542 0.4078 0.0000
vt 0.0459 0.4165 0.0000
vt 0.0120 0.3469 0.0000
vt 0.0120 0.3439 0.0000
vt 0.9880 0.3439 0.0000
vt 0.9880 0.3469 0.0000
vt 0.0120 0.3398 0.0000
vt 0.9880 0.3398 0.0000
vt 0.0120 0.3358 0.0000
vt 0.9880 0.3358 0.0000
vt 0.0120 0.3328 0.0000
vt 0.9880 0.3328 0.0000
vt 0.9542 0.3845 0.0000
vt 0.9542 0.3883 0.0000
vt 0.0459 0.3796 0.0000
vt 0.0459 0.3758 0.0000
vt 0.9541 0.3921 0.0000
vt 0.0458 0.3834 0.0000
vt 0.9880 0.3540 0.0000
vt 0.9880 0.3570 0.0000
vt 0.0120 0.3570 0.0000
vt 0.0120 0.3540 0.0000
vt 0.0469 0.0433 0.0000
vt 0.0431 0.0433 0.0000
vt 0.0522 0.0381 0.0000
vt 0.0503 0.0414 0.0000
vt 0.0398 0.0414 0.0000
vt 0.0378 0.0380 0.0000
vt 0.0379 0.0341 0.0000
vt 0.0398 0.0308 0.0000
vt 0.0432 0.0289 0.0000
vt 0.0470 0.0289 0.0000
vt 0.0504 0.0309 0.0000
vt 0.0523 0.0342 0.0000
vt 0.0666 0.0308 0.0000
vt 0.0699 0.0289 0.0000
vt 0.0738 0.0289 0.0000
vt 0.0790 0.0342 0.0000
vt 0.0790 0.0381 0.0000
vt 0.0770 0.0414 0.0000
vt 0.0737 0.0433 0.0000
vt 0.0698 0.0433 0.0000
vt 0.0665 0.0414 0.0000
vt 0.0646 0.0380 0.0000
vt 0.0646 0.0341 0.0000
vt 0.0771 0.0309 0.0000
# 392 texture coords

g DZYJY04
usemtl bashou
s 1
f 1/1/1 2/2/2 3/3/2 4/4/1 
f 2/2/2 5/5/3 6/6/3 3/3/2 
f 5/7/3 7/8/4 8/9/4 6/10/3 
f 7/8/4 9/11/5 10/12/5 8/9/4 
f 9/13/5 11/14/6 12/15/6 10/16/5 
f 11/14/6 13/17/7 14/18/7 12/15/6 
f 13/17/7 15/19/8 16/20/8 14/18/7 
f 15/19/8 17/21/9 18/22/9 16/20/8 
f 17/23/9 19/24/10 20/25/10 18/26/9 
f 19/24/10 21/27/11 22/28/11 20/25/10 
f 21/29/11 23/30/12 24/31/12 22/32/11 
f 23/30/12 1/1/1 4/4/1 24/31/12 
s 2
f 24/33/13 4/34/13 20/35/13 22/36/13 
f 3/37/13 6/38/13 8/39/13 4/34/13 
f 8/39/13 10/40/13 12/41/13 4/34/13 
f 12/41/13 14/42/13 16/43/13 4/34/13 
f 16/43/13 18/44/13 20/35/13 4/34/13 
f 5/45/14 2/46/14 1/47/14 
f 21/48/14 19/49/14 17/50/14 1/47/14 
f 17/50/14 15/51/14 13/52/14 1/47/14 
f 13/52/14 11/53/14 9/54/14 1/47/14 
f 9/54/14 7/55/14 5/45/14 1/47/14 
f 23/56/14 21/48/14 1/47/14 
s 1
f 25/57/1 26/58/2 27/59/2 28/60/1 
f 26/61/2 29/62/3 30/63/3 27/64/2 
f 29/62/3 31/65/4 32/66/4 30/63/3 
f 31/65/4 33/67/5 34/68/5 32/66/4 
f 33/67/5 35/69/6 36/70/6 34/68/5 
f 35/71/6 37/72/7 38/73/7 36/74/6 
f 37/72/7 39/75/8 40/76/8 38/73/7 
f 39/75/8 41/77/9 42/78/9 40/76/8 
f 41/79/9 43/80/10 44/81/10 42/82/9 
f 43/80/10 45/83/11 46/84/11 44/81/10 
f 45/85/11 47/86/12 48/87/12 46/88/11 
f 47/86/12 25/57/1 28/60/1 48/87/12 
s 2
f 48/89/13 28/90/13 44/91/13 46/92/13 
f 27/93/13 30/94/13 32/95/13 28/90/13 
f 32/95/13 34/96/13 36/97/13 28/90/13 
f 36/97/13 38/98/13 40/99/13 28/90/13 
f 40/99/13 42/100/13 44/91/13 28/90/13 
f 29/101/14 26/102/14 25/103/14 
f 45/104/14 43/105/14 41/106/14 25/103/14 
f 41/106/14 39/107/14 37/108/14 25/103/14 
f 37/108/14 35/109/14 33/110/14 25/103/14 
f 33/110/14 31/111/14 29/101/14 25/103/14 
f 47/112/14 45/104/14 25/103/14 
s 1
f 49/113/1 50/114/2 51/115/2 52/116/1 
f 50/117/2 53/118/3 54/119/3 51/120/2 
f 53/118/3 55/121/4 56/122/4 54/119/3 
f 55/121/4 57/123/5 58/124/5 56/122/4 
f 57/123/5 59/125/6 60/126/6 58/124/5 
f 59/127/6 61/128/7 62/129/7 60/130/6 
f 61/128/7 63/131/8 64/132/8 62/129/7 
f 63/133/8 65/134/9 66/135/9 64/136/8 
f 65/134/9 67/137/10 68/138/10 66/135/9 
f 67/137/10 69/139/11 70/140/11 68/138/10 
f 69/139/11 71/141/12 72/142/12 70/140/11 
f 71/143/12 49/113/1 52/116/1 72/144/12 
s 2
f 72/145/13 52/146/13 68/147/13 70/148/13 
f 51/149/13 54/150/13 56/151/13 52/146/13 
f 56/151/13 58/152/13 60/153/13 52/146/13 
f 60/153/13 62/154/13 64/155/13 52/146/13 
f 64/155/13 66/156/13 68/147/13 52/146/13 
f 53/157/14 50/158/14 49/159/14 
f 69/160/14 67/161/14 65/162/14 49/159/14 
f 65/162/14 63/163/14 61/164/14 49/159/14 
f 61/164/14 59/165/14 57/166/14 49/159/14 
f 57/166/14 55/167/14 53/157/14 49/159/14 
f 71/168/14 69/160/14 49/159/14 
s 1
f 73/169/15 74/170/16 75/171/16 76/172/15 
f 74/173/16 77/174/17 78/175/17 75/176/16 
f 77/174/17 79/177/18 80/178/18 78/175/17 
f 79/177/18 81/179/19 82/180/19 80/178/18 
f 81/179/19 83/181/20 84/182/20 82/180/19 
f 83/183/20 85/184/21 86/185/21 84/186/20 
f 85/184/21 87/187/22 88/188/22 86/185/21 
f 87/189/22 89/190/23 90/191/23 88/192/22 
f 89/190/23 91/193/24 92/194/24 90/191/23 
f 91/193/24 93/195/25 94/196/25 92/194/24 
f 93/195/25 95/197/26 96/198/26 94/196/25 
f 95/199/26 73/169/15 76/172/15 96/200/26 
s 2
f 96/201/4 76/202/4 92/203/4 94/204/4 
f 75/205/4 78/206/4 80/207/4 76/202/4 
f 80/207/4 82/208/4 84/209/4 76/202/4 
f 84/209/4 86/210/4 88/211/4 76/202/4 
f 88/211/4 90/212/4 92/203/4 76/202/4 
f 77/213/10 74/214/10 73/215/10 
f 93/216/10 91/217/10 89/218/10 73/215/10 
f 89/218/10 87/219/10 85/220/10 73/215/10 
f 85/220/10 83/221/10 81/222/10 73/215/10 
f 81/222/10 79/223/10 77/213/10 73/215/10 
f 95/224/10 93/216/10 73/215/10 
s 1
f 97/225/15 98/226/16 99/227/16 100/228/15 
f 98/229/16 101/230/17 102/231/17 99/232/16 
f 101/230/17 103/233/18 104/234/18 102/231/17 
f 103/233/18 105/235/19 106/236/19 104/234/18 
f 105/235/19 107/237/20 108/238/20 106/236/19 
f 107/239/20 109/240/21 110/241/21 108/242/20 
f 109/240/21 111/243/22 112/244/22 110/241/21 
f 111/245/22 113/246/23 114/247/23 112/248/22 
f 113/246/23 115/249/24 116/250/24 114/247/23 
f 115/249/24 117/251/25 118/252/25 116/250/24 
f 117/251/25 119/253/26 120/254/26 118/252/25 
f 119/255/26 97/225/15 100/228/15 120/256/26 
s 2
f 120/257/4 100/258/4 116/259/4 118/260/4 
f 99/261/4 102/262/4 104/263/4 100/258/4 
f 104/263/4 106/264/4 108/265/4 100/258/4 
f 108/265/4 110/266/4 112/267/4 100/258/4 
f 112/267/4 114/268/4 116/259/4 100/258/4 
f 101/269/10 98/270/10 97/271/10 
f 117/272/10 115/273/10 113/274/10 97/271/10 
f 113/274/10 111/275/10 109/276/10 97/271/10 
f 109/276/10 107/277/10 105/278/10 97/271/10 
f 105/278/10 103/279/10 101/269/10 97/271/10 
f 119/280/10 117/272/10 97/271/10 
s 1
f 121/281/15 122/282/16 123/283/16 124/284/15 
f 122/285/16 125/286/17 126/287/17 123/288/16 
f 125/286/17 127/289/18 128/290/18 126/287/17 
f 127/289/18 129/291/19 130/292/19 128/290/18 
f 129/291/19 131/293/20 132/294/20 130/292/19 
f 131/295/20 133/296/21 134/297/21 132/298/20 
f 133/296/21 135/299/22 136/300/22 134/297/21 
f 135/301/22 137/302/23 138/303/23 136/304/22 
f 137/302/23 139/305/24 140/306/24 138/303/23 
f 139/305/24 141/307/25 142/308/25 140/306/24 
f 141/307/25 143/309/26 144/310/26 142/308/25 
f 143/311/26 121/281/15 124/284/15 144/312/26 
s 2
f 144/313/4 124/314/4 140/315/4 142/316/4 
f 123/317/4 126/318/4 128/319/4 124/314/4 
f 128/319/4 130/320/4 132/321/4 124/314/4 
f 132/321/4 134/322/4 136/323/4 124/314/4 
f 136/323/4 138/324/4 140/315/4 124/314/4 
f 125/325/10 122/326/10 121/327/10 
f 141/328/10 139/329/10 137/330/10 121/327/10 
f 137/330/10 135/331/10 133/332/10 121/327/10 
f 133/332/10 131/333/10 129/334/10 121/327/10 
f 129/334/10 127/335/10 125/325/10 121/327/10 
f 143/336/10 141/328/10 121/327/10 
s 1
f 145/337/27 146/338/28 147/339/28 148/340/27 
f 146/338/28 149/341/29 150/342/29 147/339/28 
f 149/343/29 151/344/4 152/345/4 150/346/29 
f 151/344/4 153/347/30 154/348/30 152/345/4 
f 153/349/30 155/350/31 156/351/31 154/352/30 
f 155/350/31 157/353/32 158/354/32 156/351/31 
f 157/353/32 159/355/33 160/356/33 158/354/32 
f 159/355/33 161/357/34 162/358/34 160/356/33 
f 161/359/34 163/360/10 164/361/10 162/362/34 
f 163/360/10 165/363/35 166/364/35 164/361/10 
f 165/365/35 167/366/36 168/367/36 166/368/35 
f 167/366/36 145/337/27 148/340/27 168/367/36 
s 2
f 168/369/37 148/370/37 164/371/37 166/372/37 
f 147/373/37 150/374/37 152/375/37 148/370/37 
f 152/375/37 154/376/37 156/377/37 148/370/37 
f 156/377/37 158/378/37 160/379/37 148/370/37 
f 160/379/37 162/380/37 164/371/37 148/370/37 
f 149/381/38 146/382/38 145/383/38 
f 165/384/38 163/385/38 161/386/38 145/383/38 
f 161/386/38 159/387/38 157/388/38 145/383/38 
f 157/388/38 155/389/38 153/390/38 145/383/38 
f 153/390/38 151/391/38 149/381/38 145/383/38 
f 167/392/38 165/384/38 145/383/38 
# 147 polygons - 14 triangles

