# 3ds Max Wavefront OBJ Exporter v0.97b - (c)2007 guruware
# File Created: 20.10.2015 11:45:33

mtllib yinxiang002.mtl

#
# object DZYJY39
#

v  6.0427 -0.3052 -10.3254
v  19.3209 -0.3052 -10.7261
v  19.3209 -17.1665 -10.7261
v  6.0427 -17.1665 -10.3254
v  6.4255 -0.3052 8.9879
v  5.8488 -0.3052 -10.1194
v  5.8488 -17.1665 -10.1194
v  6.4255 -17.1665 8.9879
v  19.9096 -0.3052 8.7810
v  6.6314 -0.3052 9.1818
v  6.6314 -17.1665 9.1818
v  19.9096 -17.1665 8.7810
v  19.5268 -0.3052 -10.5322
v  20.1035 -0.3052 8.5751
v  20.1035 -17.1665 8.5751
v  19.5268 -17.1665 -10.5322
v  6.6254 -17.3665 8.9818
v  6.0487 -17.3665 -10.1254
v  19.3270 -17.3665 -10.5262
v  19.9036 -17.3665 8.5811
v  19.3270 -0.1052 -10.5262
v  6.0487 -0.1052 -10.1254
v  6.6254 -0.1052 8.9818
v  19.9036 -0.1052 8.5811
# 24 vertices

vn -0.0302 0.0000 -0.9995
vn -0.9995 0.0000 0.0302
vn 0.0302 0.0000 0.9995
vn 0.9995 0.0000 -0.0302
vn 0.0000 -1.0000 -0.0000
vn 0.0000 1.0000 -0.0000
vn 0.5597 -0.5774 -0.5945
vn -0.5945 -0.5774 -0.5597
vn -0.5597 -0.5774 0.5945
vn 0.5945 -0.5773 0.5597
vn 0.5597 0.5774 -0.5945
vn -0.5945 0.5774 -0.5597
vn -0.5597 0.5774 0.5945
vn 0.5945 0.5774 0.5597
vn -0.0213 -0.7071 -0.7068
vn -0.7281 0.0000 -0.6855
vn -0.0213 0.7071 -0.7068
vn 0.6855 0.0000 -0.7281
vn -0.7068 -0.7071 0.0213
vn -0.6855 0.0000 0.7281
vn -0.7068 0.7071 0.0213
vn 0.0213 -0.7071 0.7068
vn 0.7281 0.0000 0.6855
vn 0.0213 0.7071 0.7068
vn 0.7068 -0.7071 -0.0213
vn 0.7068 0.7071 -0.0213
# 26 vertex normals

vt 0.0424 0.9880 0.0000
vt 0.0424 0.7633 0.0000
vt 0.3276 0.7633 0.0000
vt 0.3276 0.9880 0.0000
vt 0.0158 0.6944 0.0000
vt 0.0158 0.3704 0.0000
vt 0.3017 0.3704 0.0000
vt 0.3017 0.6944 0.0000
vt 0.5949 0.0501 0.0000
vt 0.8196 0.0501 0.0000
vt 0.8196 0.3353 0.0000
vt 0.5949 0.3353 0.0000
vt 0.3392 0.6979 0.0000
vt 0.3392 0.3738 0.0000
vt 0.6251 0.3738 0.0000
vt 0.6251 0.6979 0.0000
vt 0.5590 0.0155 0.0000
vt 0.5590 0.3373 0.0000
vt 0.3354 0.3373 0.0000
vt 0.3354 0.0155 0.0000
vt 0.0120 0.0120 0.0000
vt 0.2356 0.0120 0.0000
vt 0.2356 0.3338 0.0000
vt 0.0120 0.3338 0.0000
vt 0.3540 0.7483 0.0000
vt 0.3540 0.7443 0.0000
vt 0.3580 0.7443 0.0000
vt 0.3051 0.3704 0.0000
vt 0.3017 0.3670 0.0000
vt 0.3051 0.6944 0.0000
vt 0.3017 0.6978 0.0000
vt 0.6251 0.3705 0.0000
vt 0.6284 0.3738 0.0000
vt 0.0160 0.7483 0.0000
vt 0.0120 0.7443 0.0000
vt 0.0160 0.7443 0.0000
vt 0.0125 0.3704 0.0000
vt 0.0158 0.3670 0.0000
vt 0.0158 0.6978 0.0000
vt 0.0125 0.6944 0.0000
vt 0.3359 0.3738 0.0000
vt 0.3392 0.3705 0.0000
vt 0.3310 0.7633 0.0000
vt 0.3310 0.9880 0.0000
vt 0.3573 0.7300 0.0000
vt 0.3573 0.7340 0.0000
vt 0.0197 0.7340 0.0000
vt 0.0197 0.7300 0.0000
vt 0.0390 0.9880 0.0000
vt 0.0390 0.7633 0.0000
vt 0.8196 0.3387 0.0000
vt 0.5949 0.3387 0.0000
vt 0.5949 0.0467 0.0000
vt 0.8196 0.0467 0.0000
vt 0.6284 0.6979 0.0000
vt 0.3359 0.6979 0.0000
# 56 texture coords

g DZYJY39
usemtl 13___Default
s 1
f 1/1/1 2/2/1 3/3/1 4/4/1 
s 4
f 5/5/2 6/6/2 7/7/2 8/8/2 
s 2
f 9/9/3 10/10/3 11/11/3 12/12/3 
s 4
f 13/13/4 14/14/4 15/15/4 16/16/4 
s 16
f 17/17/5 18/18/5 19/19/5 20/20/5 
f 21/21/6 22/22/6 23/23/6 24/24/6 
s off
f 3/25/7 16/26/7 19/27/7 
f 18/28/8 7/7/8 4/29/8 
f 17/30/9 11/31/9 8/8/9 
f 15/15/10 12/32/10 20/33/10 
f 2/34/11 21/35/11 13/36/11 
f 6/6/12 22/37/12 1/38/12 
f 10/39/13 23/40/13 5/5/13 
f 14/14/14 24/41/14 9/42/14 
f 3/3/15 19/43/15 18/44/15 4/4/15 
f 4/45/16 7/46/16 6/47/16 1/48/16 
f 1/1/17 22/49/17 21/50/17 2/2/17 
f 2/34/18 13/36/18 16/26/18 3/25/18 
f 7/7/19 18/28/19 17/30/19 8/8/19 
f 8/8/20 11/31/20 10/39/20 5/5/20 
f 5/5/21 23/40/21 22/37/21 6/6/21 
f 11/11/22 17/51/22 20/52/22 12/12/22 
f 12/32/23 15/15/23 14/14/23 9/42/23 
f 9/9/24 24/53/24 23/54/24 10/10/24 
f 15/15/25 20/33/25 19/55/25 16/16/25 
f 13/13/26 21/56/26 24/41/26 14/14/26 
# 18 polygons - 8 triangles

#
# object DZYJY38
#

v  -19.9096 8.2062 -13.0561
v  5.2570 8.2062 -13.8157
v  5.2570 -17.1665 -13.8157
v  -19.9096 -17.1665 -13.0561
v  -19.3046 8.2062 13.6218
v  -20.1035 8.2062 -12.8502
v  -20.1035 -17.1665 -12.8502
v  -19.3046 -17.1665 13.6218
v  6.0680 8.2062 13.0562
v  -19.0986 8.2062 13.8157
v  -19.0986 -17.1665 13.8157
v  6.0680 -17.1665 13.0562
v  5.4629 8.2062 -13.6218
v  6.2619 8.2062 12.8503
v  6.2619 -17.1665 12.8503
v  5.4629 -17.1665 -13.6218
v  -19.1047 -17.3665 13.6158
v  -19.9036 -17.3665 -12.8562
v  5.2631 -17.3665 -13.6157
v  6.0620 -17.3665 12.8563
v  5.2631 8.4062 -13.6157
v  -19.9036 8.4062 -12.8562
v  -19.1047 8.4062 13.6158
v  6.0620 8.4062 12.8563
# 24 vertices

vn -0.0302 0.0000 -0.9995
vn -0.9995 0.0000 0.0302
vn 0.0302 0.0000 0.9995
vn 0.9995 0.0000 -0.0302
vn 0.0000 -1.0000 -0.0000
vn 0.0000 1.0000 -0.0000
vn 0.5597 -0.5774 -0.5945
vn -0.5945 -0.5773 -0.5597
vn -0.5597 -0.5773 0.5945
vn 0.5945 -0.5774 0.5597
vn 0.5597 0.5773 -0.5945
vn -0.5945 0.5773 -0.5597
vn -0.5597 0.5773 0.5945
vn 0.5945 0.5773 0.5597
vn -0.0213 -0.7071 -0.7068
vn -0.7281 0.0000 -0.6855
vn -0.0213 0.7071 -0.7068
vn 0.6855 0.0000 -0.7281
vn -0.7068 -0.7071 0.0213
vn -0.6855 0.0000 0.7281
vn -0.7068 0.7071 0.0213
vn 0.0213 -0.7071 0.7068
vn 0.7281 0.0000 0.6855
vn 0.0213 0.7071 0.7068
vn 0.7068 -0.7071 -0.0213
vn 0.7068 0.7071 -0.0213
# 26 vertex normals

vt 0.0410 0.9880 0.0000
vt 0.0410 0.7070 0.0000
vt 0.3242 0.7070 0.0000
vt 0.3242 0.9880 0.0000
vt 0.0142 0.6373 0.0000
vt 0.0142 0.3413 0.0000
vt 0.2978 0.3413 0.0000
vt 0.2978 0.6373 0.0000
vt 0.6509 0.3542 0.0000
vt 0.9319 0.3542 0.0000
vt 0.9319 0.6374 0.0000
vt 0.6509 0.6374 0.0000
vt 0.3336 0.6396 0.0000
vt 0.3336 0.3436 0.0000
vt 0.6173 0.3436 0.0000
vt 0.6173 0.6396 0.0000
vt 0.6121 0.0143 0.0000
vt 0.6121 0.3089 0.0000
vt 0.3319 0.3089 0.0000
vt 0.3319 0.0143 0.0000
vt 0.0125 0.0120 0.0000
vt 0.2926 0.0120 0.0000
vt 0.2926 0.3066 0.0000
vt 0.0125 0.3066 0.0000
vt 0.3506 0.6896 0.0000
vt 0.3506 0.6870 0.0000
vt 0.3532 0.6870 0.0000
vt 0.3000 0.3413 0.0000
vt 0.2978 0.3391 0.0000
vt 0.3000 0.6373 0.0000
vt 0.2978 0.6396 0.0000
vt 0.6173 0.3413 0.0000
vt 0.6195 0.3436 0.0000
vt 0.0146 0.6896 0.0000
vt 0.0120 0.6870 0.0000
vt 0.0146 0.6870 0.0000
vt 0.0120 0.3413 0.0000
vt 0.0142 0.3391 0.0000
vt 0.0142 0.6396 0.0000
vt 0.0120 0.6373 0.0000
vt 0.3314 0.3436 0.0000
vt 0.3336 0.3413 0.0000
vt 0.3264 0.7070 0.0000
vt 0.3264 0.9880 0.0000
vt 0.3528 0.6727 0.0000
vt 0.3528 0.6754 0.0000
vt 0.0171 0.6754 0.0000
vt 0.0171 0.6727 0.0000
vt 0.0388 0.9880 0.0000
vt 0.0388 0.7070 0.0000
vt 0.9319 0.6396 0.0000
vt 0.6509 0.6396 0.0000
vt 0.6509 0.3519 0.0000
vt 0.9319 0.3519 0.0000
vt 0.6195 0.6396 0.0000
vt 0.3314 0.6396 0.0000
# 56 texture coords

g DZYJY38
usemtl bashou
s 1
f 25/57/27 26/58/27 27/59/27 28/60/27 
s 4
f 29/61/28 30/62/28 31/63/28 32/64/28 
s 2
f 33/65/29 34/66/29 35/67/29 36/68/29 
s 4
f 37/69/30 38/70/30 39/71/30 40/72/30 
s 16
f 41/73/31 42/74/31 43/75/31 44/76/31 
f 45/77/32 46/78/32 47/79/32 48/80/32 
s off
f 27/81/33 40/82/33 43/83/33 
f 42/84/34 31/63/34 28/85/34 
f 41/86/35 35/87/35 32/64/35 
f 39/71/36 36/88/36 44/89/36 
f 26/90/37 45/91/37 37/92/37 
f 30/62/38 46/93/38 25/94/38 
f 34/95/39 47/96/39 29/61/39 
f 38/70/40 48/97/40 33/98/40 
f 27/59/41 43/99/41 42/100/41 28/60/41 
f 28/101/42 31/102/42 30/103/42 25/104/42 
f 25/57/43 46/105/43 45/106/43 26/58/43 
f 26/90/44 37/92/44 40/82/44 27/81/44 
f 31/63/45 42/84/45 41/86/45 32/64/45 
f 32/64/46 35/87/46 34/95/46 29/61/46 
f 29/61/47 47/96/47 46/93/47 30/62/47 
f 35/67/48 41/107/48 44/108/48 36/68/48 
f 36/88/49 39/71/49 38/70/49 33/98/49 
f 33/65/50 48/109/50 47/110/50 34/66/50 
f 39/71/51 44/89/51 43/111/51 40/72/51 
f 37/69/52 45/112/52 48/97/52 38/70/52 
# 18 polygons - 8 triangles

#
# object DZYJY40
#

v  6.0427 17.1665 -6.4679
v  19.3209 17.1665 -6.8686
v  19.3209 0.3053 -6.8686
v  6.0427 0.3053 -6.4679
v  6.4255 17.1665 12.8454
v  5.8488 17.1665 -6.2619
v  5.8488 0.3053 -6.2619
v  6.4255 0.3053 12.8454
v  19.9096 17.1665 12.6385
v  6.6314 17.1665 13.0392
v  6.6314 0.3053 13.0392
v  19.9096 0.3053 12.6385
v  19.5268 17.1665 -6.6747
v  20.1035 17.1665 12.4325
v  20.1035 0.3053 12.4325
v  19.5268 0.3053 -6.6747
v  6.6254 0.1053 12.8393
v  6.0487 0.1053 -6.2680
v  19.3270 0.1053 -6.6687
v  19.9036 0.1053 12.4386
v  19.3270 17.3665 -6.6687
v  6.0487 17.3665 -6.2680
v  6.6254 17.3665 12.8393
v  19.9036 17.3665 12.4386
# 24 vertices

vn -0.0302 0.0000 -0.9995
vn -0.9995 0.0000 0.0302
vn 0.0302 0.0000 0.9995
vn 0.9995 0.0000 -0.0302
vn 0.0000 -1.0000 -0.0000
vn 0.0000 1.0000 -0.0000
vn 0.5597 -0.5774 -0.5945
vn -0.5945 -0.5774 -0.5597
vn -0.5597 -0.5774 0.5945
vn 0.5945 -0.5773 0.5597
vn 0.5597 0.5774 -0.5945
vn -0.5945 0.5774 -0.5597
vn -0.5597 0.5774 0.5945
vn 0.5945 0.5774 0.5597
vn -0.0213 -0.7071 -0.7068
vn -0.7281 0.0000 -0.6855
vn -0.0213 0.7071 -0.7068
vn 0.6855 0.0000 -0.7281
vn -0.7068 -0.7071 0.0213
vn -0.6855 0.0000 0.7281
vn -0.7068 0.7071 0.0213
vn 0.0213 -0.7071 0.7068
vn 0.7281 0.0000 0.6855
vn 0.0213 0.7071 0.7068
vn 0.7068 -0.7071 -0.0213
vn 0.7068 0.7071 -0.0213
# 26 vertex normals

vt 0.0424 0.9880 0.0000
vt 0.0424 0.7633 0.0000
vt 0.3276 0.7633 0.0000
vt 0.3276 0.9880 0.0000
vt 0.0158 0.6944 0.0000
vt 0.0158 0.3704 0.0000
vt 0.3017 0.3704 0.0000
vt 0.3017 0.6944 0.0000
vt 0.5949 0.0501 0.0000
vt 0.8196 0.0501 0.0000
vt 0.8196 0.3353 0.0000
vt 0.5949 0.3353 0.0000
vt 0.3392 0.6979 0.0000
vt 0.3392 0.3738 0.0000
vt 0.6251 0.3738 0.0000
vt 0.6251 0.6979 0.0000
vt 0.5590 0.0155 0.0000
vt 0.5590 0.3373 0.0000
vt 0.3354 0.3373 0.0000
vt 0.3354 0.0155 0.0000
vt 0.0120 0.0120 0.0000
vt 0.2356 0.0120 0.0000
vt 0.2356 0.3338 0.0000
vt 0.0120 0.3338 0.0000
vt 0.3540 0.7483 0.0000
vt 0.3540 0.7443 0.0000
vt 0.3580 0.7443 0.0000
vt 0.3051 0.3704 0.0000
vt 0.3017 0.3670 0.0000
vt 0.3051 0.6944 0.0000
vt 0.3017 0.6978 0.0000
vt 0.6251 0.3705 0.0000
vt 0.6284 0.3738 0.0000
vt 0.0160 0.7483 0.0000
vt 0.0120 0.7443 0.0000
vt 0.0160 0.7443 0.0000
vt 0.0125 0.3704 0.0000
vt 0.0158 0.3670 0.0000
vt 0.0158 0.6978 0.0000
vt 0.0125 0.6944 0.0000
vt 0.3359 0.3738 0.0000
vt 0.3392 0.3705 0.0000
vt 0.3310 0.7633 0.0000
vt 0.3310 0.9880 0.0000
vt 0.3573 0.7300 0.0000
vt 0.3573 0.7340 0.0000
vt 0.0197 0.7340 0.0000
vt 0.0197 0.7300 0.0000
vt 0.0390 0.9880 0.0000
vt 0.0390 0.7633 0.0000
vt 0.8196 0.3387 0.0000
vt 0.5949 0.3387 0.0000
vt 0.5949 0.0467 0.0000
vt 0.8196 0.0467 0.0000
vt 0.6284 0.6979 0.0000
vt 0.3359 0.6979 0.0000
# 56 texture coords

g DZYJY40
usemtl 12___Default
s 1
f 49/113/53 50/114/53 51/115/53 52/116/53 
s 4
f 53/117/54 54/118/54 55/119/54 56/120/54 
s 2
f 57/121/55 58/122/55 59/123/55 60/124/55 
s 4
f 61/125/56 62/126/56 63/127/56 64/128/56 
s 16
f 65/129/57 66/130/57 67/131/57 68/132/57 
f 69/133/58 70/134/58 71/135/58 72/136/58 
s off
f 51/137/59 64/138/59 67/139/59 
f 66/140/60 55/119/60 52/141/60 
f 65/142/61 59/143/61 56/120/61 
f 63/127/62 60/144/62 68/145/62 
f 50/146/63 69/147/63 61/148/63 
f 54/118/64 70/149/64 49/150/64 
f 58/151/65 71/152/65 53/117/65 
f 62/126/66 72/153/66 57/154/66 
f 51/115/67 67/155/67 66/156/67 52/116/67 
f 52/157/68 55/158/68 54/159/68 49/160/68 
f 49/113/69 70/161/69 69/162/69 50/114/69 
f 50/146/70 61/148/70 64/138/70 51/137/70 
f 55/119/71 66/140/71 65/142/71 56/120/71 
f 56/120/72 59/143/72 58/151/72 53/117/72 
f 53/117/73 71/152/73 70/149/73 54/118/73 
f 59/123/74 65/163/74 68/164/74 60/124/74 
f 60/144/75 63/127/75 62/126/75 57/154/75 
f 57/121/76 72/165/76 71/166/76 58/122/76 
f 63/127/77 68/145/77 67/167/77 64/128/77 
f 61/125/78 69/168/78 72/153/78 62/126/78 
# 18 polygons - 8 triangles

