# 3ds Max Wavefront OBJ Exporter v0.97b - (c)2007 guruware
# File Created: 19.10.2015 17:45:21

mtllib touyingyi001.mtl

#
# object DZYJY44
#

v  -17.9302 -5.3250 -18.5380
v  -17.9302 5.3250 -18.5380
v  17.9301 5.3250 -18.5380
v  17.9301 -5.3250 -18.5380
v  -18.0301 -5.3250 18.4380
v  -18.0301 5.3250 18.4380
v  -18.0301 5.3250 -18.4380
v  -18.0301 -5.3250 -18.4380
v  17.9301 -5.3250 18.5380
v  17.9301 5.3250 18.5380
v  -17.9302 5.3250 18.5380
v  -17.9302 -5.3250 18.5380
v  18.0301 -5.3250 -18.4380
v  18.0301 5.3250 -18.4380
v  18.0301 5.3250 18.4380
v  18.0301 -5.3250 18.4380
v  17.9301 -5.4250 18.4380
v  -17.9302 -5.4250 18.4380
v  -17.9302 -5.4250 -18.4380
v  17.9301 -5.4250 -18.4380
v  17.9301 5.4250 18.4380
v  17.9301 5.4250 -18.4380
v  -17.9302 5.4250 -18.4380
v  -17.9302 5.4250 18.4380
# 24 vertices

vn 0.0000 0.0000 -1.0000
vn -1.0000 0.0000 -0.0000
vn 0.0000 0.0000 1.0000
vn 1.0000 0.0000 -0.0000
vn 0.0000 -1.0000 -0.0000
vn 0.0000 1.0000 -0.0000
vn 0.5774 -0.5773 -0.5773
vn -0.5774 -0.5773 -0.5773
vn -0.5774 -0.5773 0.5773
vn 0.5774 -0.5773 0.5773
vn 0.5774 0.5773 -0.5773
vn -0.5774 0.5773 -0.5773
vn -0.5774 0.5773 0.5773
vn 0.5774 0.5773 0.5773
vn 0.0000 -0.7071 -0.7071
vn -0.7071 0.0000 -0.7071
vn 0.0000 0.7071 -0.7071
vn 0.7071 0.0000 -0.7071
vn -0.7071 -0.7071 -0.0000
vn -0.7071 0.0000 0.7071
vn -0.7071 0.7071 -0.0000
vn 0.0000 -0.7071 0.7071
vn 0.7071 0.0000 0.7071
vn 0.0000 0.7071 0.7071
vn 0.7071 -0.7071 -0.0000
vn 0.7071 0.7071 -0.0000
# 26 vertex normals

vt 0.5587 0.9114 0.0000
vt 0.4455 0.9114 0.0000
vt 0.4455 0.5303 0.0000
vt 0.5587 0.5303 0.0000
vt 0.9870 0.4813 0.0000
vt 0.9870 0.5946 0.0000
vt 0.5948 0.5946 0.0000
vt 0.5948 0.4813 0.0000
vt 0.4177 0.9114 0.0000
vt 0.3045 0.9114 0.0000
vt 0.3045 0.5303 0.0000
vt 0.4177 0.5303 0.0000
vt 0.9842 0.6211 0.0000
vt 0.9842 0.7339 0.0000
vt 0.5937 0.7339 0.0000
vt 0.5937 0.6211 0.0000
vt 0.4559 0.0350 0.0000
vt 0.8356 0.0350 0.0000
vt 0.8356 0.4255 0.0000
vt 0.4559 0.4255 0.0000
vt 0.0120 0.4255 0.0000
vt 0.0120 0.0350 0.0000
vt 0.3917 0.0350 0.0000
vt 0.3917 0.4255 0.0000
vt 0.1474 0.9472 0.0000
vt 0.1474 0.9460 0.0000
vt 0.1486 0.9460 0.0000
vt 0.8810 0.0134 0.0000
vt 0.8797 0.0134 0.0000
vt 0.8797 0.0120 0.0000
vt 0.8810 0.4449 0.0000
vt 0.8797 0.4462 0.0000
vt 0.8797 0.4449 0.0000
vt 0.1474 0.4815 0.0000
vt 0.1474 0.4803 0.0000
vt 0.1486 0.4815 0.0000
vt 0.0132 0.9472 0.0000
vt 0.0120 0.9460 0.0000
vt 0.0132 0.9460 0.0000
vt 0.5948 0.5956 0.0000
vt 0.5937 0.5946 0.0000
vt 0.1590 0.9309 0.0000
vt 0.1576 0.9295 0.0000
vt 0.1590 0.9295 0.0000
vt 0.0132 0.4815 0.0000
vt 0.0120 0.4815 0.0000
vt 0.0132 0.4803 0.0000
vt 0.5597 0.5303 0.0000
vt 0.5597 0.9114 0.0000
vt 0.1542 0.4967 0.0000
vt 0.2883 0.4967 0.0000
vt 0.2883 0.4979 0.0000
vt 0.1542 0.4979 0.0000
vt 0.4444 0.9114 0.0000
vt 0.4444 0.5303 0.0000
vt 0.5948 0.4803 0.0000
vt 0.9870 0.4803 0.0000
vt 0.9880 0.4813 0.0000
vt 0.9880 0.5946 0.0000
vt 0.9870 0.5956 0.0000
vt 0.4187 0.5303 0.0000
vt 0.4187 0.9114 0.0000
vt 0.3034 0.9114 0.0000
vt 0.3034 0.5303 0.0000
# 64 texture coords

g DZYJY44
usemtl bashou
s 1
f 1/1/1 2/2/1 3/3/1 4/4/1 
s 4
f 5/5/2 6/6/2 7/7/2 8/8/2 
s 2
f 9/9/3 10/10/3 11/11/3 12/12/3 
s 4
f 13/13/4 14/14/4 15/15/4 16/16/4 
s 16
f 17/17/5 18/18/5 19/19/5 20/20/5 
f 21/21/6 22/22/6 23/23/6 24/24/6 
s off
f 4/25/7 13/26/7 20/27/7 
f 19/28/8 8/29/8 1/30/8 
f 18/31/9 12/32/9 5/33/9 
f 16/34/10 9/35/10 17/36/10 
f 3/37/11 22/38/11 14/39/11 
f 7/7/12 23/40/12 2/41/12 
f 11/42/13 24/43/13 6/44/13 
f 15/45/14 21/46/14 10/47/14 
f 1/1/15 4/4/15 20/48/15 19/49/15 
f 2/50/16 1/51/16 8/52/16 7/53/16 
f 3/3/17 2/2/17 23/54/17 22/55/17 
f 4/25/18 3/37/18 14/39/18 13/26/18 
f 5/5/19 8/8/19 19/56/19 18/57/19 
f 6/6/20 5/5/20 12/58/20 11/59/20 
f 7/7/21 6/6/21 24/60/21 23/40/21 
f 9/9/22 12/12/22 18/61/22 17/62/22 
f 10/47/23 9/35/23 16/34/23 15/45/23 
f 11/11/24 10/10/24 21/63/24 24/64/24 
f 13/26/25 16/34/25 17/36/25 20/27/25 
f 15/45/26 14/39/26 22/38/26 21/46/26 
# 18 polygons - 8 triangles

