# 3ds Max Wavefront OBJ Exporter v0.94b - (c)2007 guruware
# 创建的文件:10.08.2016 15:27:51

mtllib pingmu.mtl

#
# object Ellipse03
#

v  -41.9770 113.6324 954.5637
v  -96.2398 113.6324 1023.8259
v  -96.2398 -113.6324 1023.8259
v  -41.9770 -113.6324 954.5637
v  7.6893 113.6324 859.7842
v  7.6893 -113.6324 859.7842
v  51.3917 113.6324 739.3427
v  51.3917 -113.6324 739.3427
v  87.7628 113.6324 593.0939
v  87.7628 -113.6324 593.0939
v  115.4352 113.6324 420.8923
v  115.4352 -113.6324 420.8923
v  133.0414 113.6324 222.5929
v  133.0414 -113.6324 222.5929
v  139.2140 113.6324 -1.9495
v  139.2140 -113.6324 -1.9495
v  133.1323 113.6324 -225.1410
v  133.1323 -113.6324 -225.1410
v  115.7856 113.6324 -420.0017
v  115.7856 -113.6324 -420.0017
v  88.5215 113.6324 -588.0883
v  88.5215 -113.6324 -588.0883
v  52.6875 113.6324 -730.9573
v  52.6875 -113.6324 -730.9573
v  9.6309 113.6324 -850.1656
v  9.6309 -113.6324 -850.1656
v  -39.3006 113.6324 -947.2699
v  -39.3006 -113.6324 -947.2699
v  -92.7594 113.6324 -1023.8267
v  -92.7594 -113.6324 -1023.8267
v  -139.2139 113.6324 -985.8533
v  -139.2139 -113.6324 -985.8533
v  -89.1647 110.3603 -913.9768
v  -133.4995 110.3603 -977.6467
v  -133.4995 -111.6056 -977.6467
v  -89.1647 -111.6056 -913.9768
v  -43.2025 110.3603 -822.0608
v  -43.2025 -111.6056 -822.0608
v  -2.6442 110.3603 -708.3927
v  -2.6442 -111.6056 -708.3927
v  31.1935 110.3603 -571.2601
v  31.1935 -111.6056 -571.2601
v  56.9936 110.3603 -408.9503
v  56.9936 -111.6056 -408.9503
v  73.4393 110.3603 -219.7509
v  73.4393 -111.6056 -219.7509
v  79.2139 110.3603 -1.9495
v  79.2139 -111.6056 -1.9495
v  73.4393 110.3603 217.1207
v  73.4393 -111.6056 217.1207
v  56.9936 110.3603 409.2808
v  56.9936 -111.6056 409.2808
v  31.1935 110.3603 574.9741
v  31.1935 -111.6056 574.9741
v  -2.6442 110.3603 714.6445
v  -2.6442 -111.6056 714.6445
v  -43.2025 110.3603 828.7357
v  -43.2025 -111.6056 828.7357
v  -89.1647 110.3603 917.6910
v  -89.1647 -111.6056 917.6910
v  -133.0694 110.3603 974.0647
v  -133.0694 -111.6056 974.0647
v  -139.2139 113.6324 981.9543
v  -139.2139 -113.6324 981.9543
v  -89.1647 -113.6324 917.6910
v  -43.2025 -113.6324 828.7357
v  -2.6442 -113.6324 714.6445
v  31.1935 -113.6324 574.9742
v  56.9936 -113.6324 409.2808
v  73.4393 -113.6324 217.1207
v  79.2139 -113.6324 -1.9495
v  73.4393 -113.6324 -219.7509
v  56.9936 -113.6324 -408.9503
v  31.1935 -113.6324 -571.2601
v  -2.6442 -113.6324 -708.3927
v  -43.2025 -113.6324 -822.0608
v  -89.1647 -113.6324 -913.9768
v  -89.1647 113.6324 -913.9768
v  -89.1647 113.6324 917.6910
v  -43.2025 113.6324 828.7357
v  -2.6442 113.6324 714.6445
v  31.1935 113.6324 574.9742
v  56.9936 113.6324 409.2808
v  73.4393 113.6324 217.1207
v  79.2139 113.6324 -1.9495
v  73.4393 113.6324 -219.7509
v  56.9936 113.6324 -408.9503
v  31.1935 113.6324 -571.2601
v  -2.6442 113.6324 -708.3927
v  -43.2025 113.6324 -822.0608
# 90 vertices

vn 0.8399 -0.0000 0.5427
vn 0.7872 -0.0000 0.6167
vn 0.8399 0.0000 0.5427
vn 0.9150 0.0000 0.4035
vn 0.9565 0.0000 0.2916
vn 0.9798 0.0000 0.2002
vn 0.9923 0.0000 0.1236
vn 0.9983 0.0000 0.0580
vn 1.0000 -0.0000 0.0001
vn 1.0000 0.0000 0.0001
vn 0.9983 -0.0000 -0.0580
vn 0.9983 0.0000 -0.0580
vn 0.9922 0.0000 -0.1245
vn 0.9794 0.0000 -0.2019
vn 0.9565 0.0000 -0.2919
vn 0.9184 0.0000 -0.3956
vn 0.8586 0.0000 -0.5126
vn 0.8586 -0.0000 -0.5126
vn 0.8199 -0.0000 -0.5725
vn -0.6329 0.0000 -0.7742
vn -0.8598 0.0000 0.5107
vn -0.8206 0.0000 0.5714
vn -0.9198 0.0000 0.3924
vn -0.9576 0.0000 0.2882
vn -0.9801 0.0000 0.1985
vn -0.9925 0.0000 0.1219
vn -0.9984 0.0000 0.0566
vn -1.0000 -0.0000 0.0001
vn -1.0000 0.0000 0.0001
vn -0.9984 -0.0000 -0.0558
vn -0.9984 0.0000 -0.0558
vn -0.9928 0.0000 -0.1196
vn -0.9808 0.0000 -0.1948
vn -0.9584 0.0000 -0.2856
vn -0.9174 0.0000 -0.3979
vn -0.8423 0.0000 -0.5390
vn -0.7890 0.0000 -0.6145
vn -0.6979 0.0000 0.7162
vn 0.0000 -1.0000 -0.0000
vn -0.0000 -1.0000 -0.0000
vn -0.0000 -1.0000 0.0000
vn 0.0000 1.0000 -0.0000
vn 0.0000 1.0000 0.0000
vn -0.8207 0.0000 0.5714
vn -0.8206 -0.0000 0.5714
vn -0.8944 -0.0000 0.4472
vn -0.9418 -0.0000 0.3361
vn -0.9709 -0.0000 0.2396
vn -0.9876 -0.0000 0.1570
vn -0.9962 0.0000 0.0866
vn -0.9996 0.0000 0.0265
vn -0.9997 0.0000 -0.0264
vn -0.9964 0.0000 -0.0853
vn -0.9881 -0.0000 -0.1539
vn -0.9719 -0.0000 -0.2355
vn -0.9422 -0.0000 -0.3350
vn -0.8884 -0.0000 -0.4590
vn -0.7890 -0.0000 -0.6144
vn -0.7890 0.0000 -0.6144
vn -0.8884 0.0000 -0.4590
vn -0.9422 0.0000 -0.3350
vn -0.9719 0.0000 -0.2355
vn -0.9881 0.0000 -0.1539
vn -0.9876 0.0000 0.1570
vn -0.9709 0.0000 0.2396
vn -0.9418 0.0000 0.3361
vn -0.8944 0.0000 0.4472
# 67 vertex normals

vt 0.0431 0.1188 0.0000
vt 0.0100 0.1188 0.0000
vt 0.0100 0.0100 0.0000
vt 0.0431 0.0100 0.0000
vt 0.0885 0.1188 0.0000
vt 0.0885 0.0100 0.0000
vt 0.1462 0.1188 0.0000
vt 0.1462 0.0100 0.0000
vt 0.2161 0.1188 0.0000
vt 0.2161 0.0100 0.0000
vt 0.2986 0.1188 0.0000
vt 0.2986 0.0100 0.0000
vt 0.3935 0.1188 0.0000
vt 0.3935 0.0100 0.0000
vt 0.5009 0.1188 0.0000
vt 0.5009 0.0100 0.0000
vt 0.6078 0.1188 0.0000
vt 0.6078 0.0100 0.0000
vt 0.7010 0.1188 0.0000
vt 0.7010 0.0100 0.0000
vt 0.7815 0.1188 0.0000
vt 0.7815 0.0100 0.0000
vt 0.8498 0.1188 0.0000
vt 0.8498 0.0100 0.0000
vt 0.9069 0.1188 0.0000
vt 0.9069 0.0100 0.0000
vt 0.9534 0.1188 0.0000
vt 0.9534 0.0100 0.0000
vt 0.9900 0.1188 0.0000
vt 0.9900 0.0100 0.0000
vt 0.0282 0.2482 0.0000
vt 0.0100 0.2482 0.0000
vt 0.0100 0.1394 0.0000
vt 0.0282 0.1394 0.0000
vt 0.0405 0.7002 0.0000
vt 0.0100 0.7002 0.0000
vt 0.0100 0.5940 0.0000
vt 0.0405 0.5940 0.0000
vt 0.0845 0.7002 0.0000
vt 0.0845 0.5940 0.0000
vt 0.1389 0.7002 0.0000
vt 0.1389 0.5940 0.0000
vt 0.2045 0.7002 0.0000
vt 0.2045 0.5940 0.0000
vt 0.2822 0.7002 0.0000
vt 0.2822 0.5940 0.0000
vt 0.3727 0.7002 0.0000
vt 0.3727 0.5940 0.0000
vt 0.4770 0.7002 0.0000
vt 0.4770 0.5940 0.0000
vt 0.5818 0.7002 0.0000
vt 0.5818 0.5940 0.0000
vt 0.6738 0.7002 0.0000
vt 0.6738 0.5940 0.0000
vt 0.7531 0.7002 0.0000
vt 0.7531 0.5940 0.0000
vt 0.8199 0.7002 0.0000
vt 0.8199 0.5940 0.0000
vt 0.8745 0.7002 0.0000
vt 0.8745 0.5940 0.0000
vt 0.9171 0.7002 0.0000
vt 0.9171 0.5940 0.0000
vt 0.9441 0.7002 0.0000
vt 0.9441 0.5940 0.0000
vt 0.9900 0.2482 0.0000
vt 0.9700 0.2482 0.0000
vt 0.9700 0.1394 0.0000
vt 0.9900 0.1394 0.0000
vt 0.0431 0.3223 0.0000
vt 0.0100 0.2963 0.0000
vt 0.0300 0.2757 0.0000
vt 0.0608 0.2997 0.0000
vt 0.0885 0.3461 0.0000
vt 0.1034 0.3217 0.0000
vt 0.1462 0.3670 0.0000
vt 0.1580 0.3411 0.0000
vt 0.2161 0.3844 0.0000
vt 0.2248 0.3573 0.0000
vt 0.2986 0.3976 0.0000
vt 0.3041 0.3697 0.0000
vt 0.3935 0.4060 0.0000
vt 0.3961 0.3775 0.0000
vt 0.5009 0.4090 0.0000
vt 0.5009 0.3803 0.0000
vt 0.6052 0.3775 0.0000
vt 0.6078 0.4061 0.0000
vt 0.6957 0.3697 0.0000
vt 0.7010 0.3978 0.0000
vt 0.7734 0.3573 0.0000
vt 0.7815 0.3847 0.0000
vt 0.8390 0.3411 0.0000
vt 0.8498 0.3676 0.0000
vt 0.8934 0.3217 0.0000
vt 0.9069 0.3470 0.0000
vt 0.9374 0.2997 0.0000
vt 0.9534 0.3236 0.0000
vt 0.9718 0.2757 0.0000
vt 0.9900 0.2980 0.0000
vt 0.0466 0.4844 0.0000
vt 0.0100 0.4588 0.0000
vt 0.0282 0.4366 0.0000
vt 0.0626 0.4605 0.0000
vt 0.9700 0.4366 0.0000
vt 0.9900 0.4571 0.0000
vt 0.9569 0.4831 0.0000
vt 0.9392 0.4605 0.0000
vt 0.9115 0.5069 0.0000
vt 0.8966 0.4825 0.0000
vt 0.8538 0.5278 0.0000
vt 0.8420 0.5019 0.0000
vt 0.7839 0.5452 0.0000
vt 0.7752 0.5181 0.0000
vt 0.7014 0.5584 0.0000
vt 0.6959 0.5305 0.0000
vt 0.6065 0.5669 0.0000
vt 0.6039 0.5383 0.0000
vt 0.4991 0.5698 0.0000
vt 0.4991 0.5411 0.0000
vt 0.3948 0.5383 0.0000
vt 0.3922 0.5669 0.0000
vt 0.3043 0.5305 0.0000
vt 0.2990 0.5586 0.0000
vt 0.2266 0.5181 0.0000
vt 0.2185 0.5455 0.0000
vt 0.1610 0.5019 0.0000
vt 0.1502 0.5284 0.0000
vt 0.1066 0.4825 0.0000
vt 0.0931 0.5078 0.0000
vt 0.0321 0.1404 0.0000
vt 0.0321 0.2466 0.0000
vt 0.0626 0.1394 0.0000
vt 0.0626 0.1404 0.0000
vt 0.1066 0.1394 0.0000
vt 0.1066 0.1404 0.0000
vt 0.1610 0.1394 0.0000
vt 0.1610 0.1404 0.0000
vt 0.2266 0.1394 0.0000
vt 0.2266 0.1404 0.0000
vt 0.3043 0.1394 0.0000
vt 0.3043 0.1404 0.0000
vt 0.3948 0.1394 0.0000
vt 0.3948 0.1404 0.0000
vt 0.4991 0.1394 0.0000
vt 0.4991 0.1404 0.0000
vt 0.6039 0.1394 0.0000
vt 0.6039 0.1404 0.0000
vt 0.6959 0.1394 0.0000
vt 0.6959 0.1404 0.0000
vt 0.7752 0.1394 0.0000
vt 0.7752 0.1404 0.0000
vt 0.8420 0.1394 0.0000
vt 0.8420 0.1404 0.0000
vt 0.8966 0.1394 0.0000
vt 0.8966 0.1404 0.0000
vt 0.9392 0.1394 0.0000
vt 0.9392 0.1404 0.0000
vt 0.9662 0.1404 0.0000
vt 0.9662 0.2466 0.0000
vt 0.9392 0.2482 0.0000
vt 0.9392 0.2466 0.0000
vt 0.8966 0.2482 0.0000
vt 0.8966 0.2466 0.0000
vt 0.8420 0.2482 0.0000
vt 0.8420 0.2466 0.0000
vt 0.7752 0.2482 0.0000
vt 0.7752 0.2466 0.0000
vt 0.6959 0.2482 0.0000
vt 0.6959 0.2466 0.0000
vt 0.6039 0.2482 0.0000
vt 0.6039 0.2466 0.0000
vt 0.4991 0.2482 0.0000
vt 0.4991 0.2466 0.0000
vt 0.3948 0.2482 0.0000
vt 0.3948 0.2466 0.0000
vt 0.3043 0.2482 0.0000
vt 0.3043 0.2466 0.0000
vt 0.2266 0.2482 0.0000
vt 0.2266 0.2466 0.0000
vt 0.1610 0.2482 0.0000
vt 0.1610 0.2466 0.0000
vt 0.1066 0.2482 0.0000
vt 0.1066 0.2466 0.0000
vt 0.0626 0.2482 0.0000
vt 0.0626 0.2466 0.0000
# 184 texture coords

g Ellipse03
usemtl Material__790
s 1
f 1/1/1 2/2/2 3/3/2 4/4/3 
s 3
f 5/5/4 1/1/1 4/4/3 6/6/4 
s 2
f 7/7/5 5/5/4 6/6/4 8/8/5 
f 9/9/6 7/7/5 8/8/5 10/10/6 
f 11/11/7 9/9/6 10/10/6 12/12/7 
f 13/13/8 11/11/7 12/12/7 14/14/8 
f 15/15/9 13/13/8 14/14/8 16/16/10 
f 17/17/11 15/15/9 16/16/10 18/18/12 
f 19/19/13 17/17/11 18/18/12 20/20/13 
f 21/21/14 19/19/13 20/20/13 22/22/14 
f 23/23/15 21/21/14 22/22/14 24/24/15 
f 25/25/16 23/23/15 24/24/15 26/26/16 
f 27/27/17 25/25/16 26/26/16 28/28/18 
f 29/29/19 27/27/17 28/28/18 30/30/19 
s 4
f 31/31/20 29/32/20 30/33/20 32/34/20 
s 2
f 33/35/21 34/36/22 35/37/22 36/38/21 
f 37/39/23 33/35/21 36/38/21 38/40/23 
f 39/41/24 37/39/23 38/40/23 40/42/24 
f 41/43/25 39/41/24 40/42/24 42/44/25 
f 43/45/26 41/43/25 42/44/25 44/46/26 
f 45/47/27 43/45/26 44/46/26 46/48/27 
f 47/49/28 45/47/27 46/48/27 48/50/29 
f 49/51/30 47/49/28 48/50/29 50/52/31 
f 51/53/32 49/51/30 50/52/31 52/54/32 
f 53/55/33 51/53/32 52/54/32 54/56/33 
f 55/57/34 53/55/33 54/56/33 56/58/34 
f 57/59/35 55/57/34 56/58/34 58/60/35 
f 59/61/36 57/59/35 58/60/35 60/62/36 
f 61/63/37 59/61/36 60/62/36 62/64/37 
s 4
f 2/65/38 63/66/38 64/67/38 3/68/38 
s 16
f 4/69/39 3/70/39 64/71/39 65/72/39 
f 6/73/39 4/69/39 65/72/39 66/74/39 
f 8/75/39 6/73/39 66/74/39 67/76/39 
f 10/77/39 8/75/39 67/76/39 68/78/39 
f 12/79/39 10/77/39 68/78/39 69/80/39 
f 14/81/39 12/79/39 69/80/39 70/82/39 
f 16/83/39 14/81/39 70/82/39 71/84/39 
f 16/83/39 71/84/39 72/85/39 18/86/39 
f 18/86/39 72/85/39 73/87/39 20/88/39 
f 20/88/39 73/87/39 74/89/40 22/90/40 
f 22/90/40 74/89/40 75/91/41 24/92/41 
f 24/92/41 75/91/41 76/93/41 26/94/39 
f 26/94/39 76/93/41 77/95/39 28/96/39 
f 28/96/39 77/95/39 32/97/39 30/98/39 
f 27/99/42 29/100/42 31/101/42 78/102/42 
f 63/103/42 2/104/42 1/105/42 79/106/42 
f 79/106/42 1/105/42 5/107/42 80/108/42 
f 80/108/42 5/107/42 7/109/42 81/110/42 
f 81/110/42 7/109/42 9/111/42 82/112/42 
f 82/112/42 9/111/42 11/113/42 83/114/42 
f 83/114/42 11/113/42 13/115/42 84/116/42 
f 84/116/42 13/115/42 15/117/42 85/118/42 
f 86/119/42 85/118/42 15/117/42 17/120/42 
f 87/121/43 86/119/42 17/120/42 19/122/43 
f 88/123/42 87/121/43 19/122/43 21/124/42 
f 89/125/42 88/123/42 21/124/42 23/126/42 
f 90/127/42 89/125/42 23/126/42 25/128/42 
f 78/102/42 90/127/42 25/128/42 27/99/42 
s off
f 31/31/44 32/34/44 35/129/44 34/130/44 
f 32/34/45 77/131/45 36/132/45 35/129/45 
f 77/131/46 76/133/46 38/134/46 36/132/46 
f 76/133/47 75/135/47 40/136/47 38/134/47 
f 75/135/48 74/137/48 42/138/48 40/136/48 
f 74/137/49 73/139/49 44/140/49 42/138/49 
f 73/139/50 72/141/50 46/142/50 44/140/50 
f 72/141/51 71/143/51 48/144/51 46/142/51 
f 71/143/52 70/145/52 50/146/52 48/144/52 
f 70/145/53 69/147/53 52/148/53 50/146/53 
f 69/147/54 68/149/54 54/150/54 52/148/54 
f 68/149/55 67/151/55 56/152/55 54/150/55 
f 67/151/56 66/153/56 58/154/56 56/152/56 
f 66/153/57 65/155/57 60/156/57 58/154/57 
f 65/155/58 64/67/58 62/157/58 60/156/58 
f 64/67/59 63/66/59 61/158/59 62/157/59 
f 63/66/59 79/159/59 59/160/59 61/158/59 
f 79/159/60 80/161/60 57/162/60 59/160/60 
f 80/161/61 81/163/61 55/164/61 57/162/61 
f 81/163/62 82/165/62 53/166/62 55/164/62 
f 82/165/63 83/167/63 51/168/63 53/166/63 
f 83/167/53 84/169/53 49/170/53 51/168/53 
f 84/169/52 85/171/52 47/172/52 49/170/52 
f 85/171/51 86/173/51 45/174/51 47/172/51 
f 86/173/50 87/175/50 43/176/50 45/174/50 
f 87/175/64 88/177/64 41/178/64 43/176/64 
f 88/177/65 89/179/65 39/180/65 41/178/65 
f 89/179/66 90/181/66 37/182/66 39/180/66 
f 90/181/67 78/183/67 33/184/67 37/182/67 
f 78/183/22 31/31/22 34/130/22 33/184/22 
# 88 polygons

