# 3ds Max Wavefront OBJ Exporter v0.97b - (c)2007 guruware
# File Created: 20.10.2015 09:55:50

mtllib dianshi002.mtl

#
# object DZYJY12
#

v  3.1994 45.0000 -75.0000
v  0.6994 45.0000 -75.0000
v  -5.8141 45.0000 75.0000
v  -3.3141 45.0000 75.0000
v  3.1994 -45.0000 -75.0000
v  0.6994 -45.0000 -75.0000
v  0.6994 -39.7356 -75.0000
v  0.6994 41.7380 -75.0000
v  -3.3140 -45.0000 75.0000
v  -5.8140 -45.0000 75.0000
v  -5.8141 41.7380 75.0000
v  -5.8140 -39.7356 75.0000
v  -0.4567 -43.3234 72.2491
v  5.8141 -43.3234 -72.1622
v  5.8141 43.3234 -72.1622
v  -0.4567 43.3234 72.2491
v  -5.6706 -39.7356 71.6958
v  0.5550 -39.7356 -71.6747
v  0.5550 41.7380 -71.6747
v  -5.6706 41.7380 71.6958
v  -5.1186 41.2554 71.3466
v  1.1070 41.2554 -71.1053
v  1.1070 -39.2901 -71.1053
v  -5.1186 -39.2901 71.3466
# 24 vertices

vn 0.0000 1.0000 -0.0000
vn 0.0000 0.0000 -1.0000
vn 0.0000 -1.0000 -0.0000
vn 0.0000 0.0000 1.0000
vn 0.9991 0.0000 0.0434
vn -0.9991 0.0000 -0.0434
vn 0.5221 0.8526 0.0227
vn 0.6936 0.0000 0.7204
vn 0.5221 -0.8526 0.0227
vn 0.7354 0.0000 -0.6776
vn -0.9990 0.0000 -0.0437
vn -0.6547 -0.7554 -0.0285
vn -0.7180 0.0000 0.6960
vn -0.6245 0.7805 -0.0272
vn -0.5346 0.0000 -0.8451
# 15 vertex normals

vt 0.9754 0.0710 0.0000
vt 0.9750 0.0809 0.0000
vt 0.3783 0.0834 0.0000
vt 0.3787 0.0735 0.0000
vt 0.9880 0.0231 0.0000
vt 0.9880 0.0337 0.0000
vt 0.9657 0.0337 0.0000
vt 0.6063 0.0231 0.0000
vt 0.6202 0.0337 0.0000
vt 0.6063 0.0337 0.0000
vt 0.9750 0.1183 0.0000
vt 0.9754 0.1282 0.0000
vt 0.3787 0.1246 0.0000
vt 0.3784 0.1147 0.0000
vt 0.3881 0.4847 0.0000
vt 0.3881 0.4952 0.0000
vt 0.3745 0.4952 0.0000
vt 0.0120 0.4847 0.0000
vt 0.0340 0.4952 0.0000
vt 0.0120 0.4952 0.0000
vt 0.9636 0.4866 0.0000
vt 0.4135 0.4866 0.0000
vt 0.4135 0.1566 0.0000
vt 0.9636 0.1566 0.0000
vt 0.9516 0.5427 0.0000
vt 0.4031 0.5427 0.0000
vt 0.9643 0.5226 0.0000
vt 0.9643 0.5427 0.0000
vt 0.3904 0.5427 0.0000
vt 0.3904 0.5226 0.0000
vt 0.9646 0.0602 0.0000
vt 0.3901 0.0626 0.0000
vt 0.3811 0.4728 0.0000
vt 0.0190 0.4728 0.0000
vt 0.9637 0.1073 0.0000
vt 0.3892 0.1039 0.0000
vt 0.9809 0.0120 0.0000
vt 0.6134 0.0120 0.0000
vt 0.3904 0.8669 0.0000
vt 0.3904 0.8544 0.0000
vt 0.4031 0.8544 0.0000
vt 0.9643 0.8669 0.0000
vt 0.9516 0.8544 0.0000
vt 0.9643 0.8544 0.0000
vt 0.9503 0.8525 0.0000
vt 0.4053 0.8525 0.0000
vt 0.4053 0.5444 0.0000
vt 0.9503 0.5444 0.0000
# 48 texture coords

g DZYJY12
usemtl bashou
s 1
f 1/1/1 2/2/1 3/3/1 4/4/1 
s 4
f 5/5/2 6/6/2 7/7/2 1/8/2 
f 8/9/2 2/10/2 1/8/2 7/7/2 
s 2
f 9/11/3 10/12/3 6/13/3 5/14/3 
s 4
f 4/15/4 3/16/4 11/17/4 9/18/4 
f 12/19/4 10/20/4 9/18/4 11/17/4 
s 16
f 13/21/5 14/22/5 15/23/5 16/24/5 
f 17/25/6 18/26/6 10/27/6 12/28/6 
f 18/26/6 7/29/6 6/30/6 10/27/6 
s off
f 15/31/7 1/1/7 4/4/7 16/32/7 
f 16/33/8 4/15/8 9/18/8 13/34/8 
f 13/35/9 9/11/9 5/14/9 14/36/9 
f 14/37/10 5/5/10 1/8/10 15/38/10 
s 16
f 2/39/6 8/40/6 19/41/6 3/42/6 
f 20/43/6 11/44/6 3/42/6 19/41/6 
f 12/28/6 11/44/6 20/43/6 17/25/6 
f 21/45/11 22/46/11 23/47/11 24/48/11 
f 19/41/6 8/40/6 7/29/6 18/26/6 
s off
f 21/45/12 20/43/12 19/41/12 22/46/12 
f 22/46/13 19/41/13 18/26/13 23/47/13 
f 23/47/14 18/26/14 17/25/14 24/48/14 
f 24/48/15 17/25/15 20/43/15 21/45/15 
# 22 polygons

