# 3ds Max Wavefront OBJ Exporter v0.94b - (c)2007 guruware
# 创建的文件:02.11.2016 17:08:12

mtllib ups48-3.mtl

#
# object ChamferBox59
#

v  23.4000 100.0000 44.4000
v  23.4000 100.0000 -44.4000
v  -23.4000 100.0000 -44.4000
v  -23.4000 100.0000 44.4000
v  -23.4000 99.9196 -44.7000
v  -23.5500 99.9196 -44.6598
v  -23.6598 99.9196 -44.5500
v  -23.7000 99.9196 -44.4000
v  -23.7000 99.9196 44.4000
v  -23.6598 99.9196 44.5500
v  -23.5500 99.9196 44.6598
v  -23.4000 99.9196 44.7000
v  23.4000 99.9196 44.7000
v  23.5500 99.9196 44.6598
v  23.6598 99.9196 44.5500
v  23.7000 99.9196 44.4000
v  23.7000 99.9196 -44.4000
v  23.6598 99.9196 -44.5500
v  23.5500 99.9196 -44.6598
v  23.4000 99.9196 -44.7000
v  -23.6598 99.7000 -44.8500
v  -23.4000 99.7000 -44.9196
v  -23.8500 99.7000 -44.6598
v  -23.9196 99.7000 -44.4000
v  -23.9196 99.7000 44.4000
v  -23.8500 99.7000 44.6598
v  -23.6598 99.7000 44.8500
v  -23.4000 99.7000 44.9196
v  23.4000 99.7000 44.9196
v  23.6598 99.7000 44.8500
v  23.8500 99.7000 44.6598
v  23.9196 99.7000 44.4000
v  23.9196 99.7000 -44.4000
v  23.8500 99.7000 -44.6598
v  23.6598 99.7000 -44.8500
v  23.4000 99.7000 -44.9196
v  -23.7000 99.4000 -44.9196
v  -23.4000 99.4000 -45.0000
v  -23.9196 99.4000 -44.7000
v  -24.0000 99.4000 -44.4000
v  -24.0000 99.4000 44.4000
v  -23.9196 99.4000 44.7000
v  -23.7000 99.4000 44.9196
v  -23.4000 99.4000 45.0000
v  23.4000 99.4000 45.0000
v  23.7000 99.4000 44.9196
v  23.9196 99.4000 44.7000
v  24.0000 99.4000 44.4000
v  24.0000 99.4000 -44.4000
v  23.9196 99.4000 -44.7000
v  23.7000 99.4000 -44.9196
v  23.4000 99.4000 -45.0000
v  -23.7000 -99.4000 -44.9196
v  -23.4000 -99.4000 -45.0000
v  -23.9196 -99.4000 -44.7000
v  -24.0000 -99.4000 -44.4000
v  -24.0000 -99.4000 44.4000
v  -23.9196 -99.4000 44.7000
v  -23.7000 -99.4000 44.9196
v  -23.4000 -99.4000 45.0000
v  23.4000 -99.4000 45.0000
v  23.7000 -99.4000 44.9196
v  23.9196 -99.4000 44.7000
v  24.0000 -99.4000 44.4000
v  24.0000 -99.4000 -44.4000
v  23.9196 -99.4000 -44.7000
v  23.7000 -99.4000 -44.9196
v  23.4000 -99.4000 -45.0000
v  -23.6598 -99.7000 -44.8500
v  -23.4000 -99.7000 -44.9196
v  -23.8500 -99.7000 -44.6598
v  -23.9196 -99.7000 -44.4000
v  -23.9196 -99.7000 44.4000
v  -23.8500 -99.7000 44.6598
v  -23.6598 -99.7000 44.8500
v  -23.4000 -99.7000 44.9196
v  23.4000 -99.7000 44.9196
v  23.6598 -99.7000 44.8500
v  23.8500 -99.7000 44.6598
v  23.9196 -99.7000 44.4000
v  23.9196 -99.7000 -44.4000
v  23.8500 -99.7000 -44.6598
v  23.6598 -99.7000 -44.8500
v  23.4000 -99.7000 -44.9196
v  -23.5500 -99.9196 -44.6598
v  -23.4000 -99.9196 -44.7000
v  -23.6598 -99.9196 -44.5500
v  -23.7000 -99.9196 -44.4000
v  -23.7000 -99.9196 44.4000
v  -23.6598 -99.9196 44.5500
v  -23.5500 -99.9196 44.6598
v  -23.4000 -99.9196 44.7000
v  23.4000 -99.9196 44.7000
v  23.5500 -99.9196 44.6598
v  23.6598 -99.9196 44.5500
v  23.7000 -99.9196 44.4000
v  23.7000 -99.9196 -44.4000
v  23.6598 -99.9196 -44.5500
v  23.5500 -99.9196 -44.6598
v  23.4000 -99.9196 -44.7000
v  -23.4000 -100.0000 -44.4000
v  -23.4000 -100.0000 44.4000
v  23.4000 -100.0000 44.4000
v  23.4000 -100.0000 -44.4000
# 104 vertices

vn 0.1087 0.9881 0.1087
vn 0.1087 0.9881 -0.1087
vn -0.1087 0.9881 -0.1087
vn -0.1087 0.9881 0.1087
vn -0.0698 0.8549 -0.5140
vn -0.2654 0.8474 -0.4598
vn -0.4598 0.8474 -0.2655
vn -0.5140 0.8549 -0.0698
vn -0.5140 0.8549 0.0698
vn -0.4598 0.8474 0.2655
vn -0.2654 0.8474 0.4598
vn -0.0698 0.8549 0.5140
vn 0.0698 0.8549 0.5140
vn 0.2654 0.8474 0.4598
vn 0.4598 0.8474 0.2655
vn 0.5140 0.8549 0.0698
vn 0.5140 0.8549 -0.0698
vn 0.4598 0.8474 -0.2655
vn 0.2654 0.8474 -0.4598
vn 0.0698 0.8549 -0.5140
vn -0.4380 0.4823 -0.7586
vn -0.1129 0.4883 -0.8653
vn -0.7586 0.4823 -0.4380
vn -0.8653 0.4883 -0.1129
vn -0.8653 0.4883 0.1129
vn -0.7586 0.4823 0.4380
vn -0.4380 0.4823 0.7586
vn -0.1129 0.4883 0.8653
vn 0.1129 0.4883 0.8653
vn 0.4380 0.4823 0.7586
vn 0.7586 0.4823 0.4380
vn 0.8653 0.4883 0.1129
vn 0.8653 0.4883 -0.1129
vn 0.7586 0.4823 -0.4380
vn 0.4380 0.4823 -0.7586
vn 0.1129 0.4883 -0.8653
vn -0.4959 0.1278 -0.8589
vn -0.1281 0.1281 -0.9834
vn -0.8589 0.1278 -0.4959
vn -0.9834 0.1281 -0.1281
vn -0.9834 0.1281 0.1281
vn -0.8589 0.1278 0.4959
vn -0.4959 0.1278 0.8589
vn -0.1281 0.1281 0.9834
vn 0.1281 0.1281 0.9834
vn 0.4959 0.1278 0.8589
vn 0.8589 0.1278 0.4959
vn 0.9834 0.1281 0.1281
vn 0.9834 0.1281 -0.1281
vn 0.8589 0.1278 -0.4959
vn 0.4959 0.1278 -0.8589
vn 0.1281 0.1281 -0.9834
vn -0.4959 -0.1278 -0.8589
vn -0.1281 -0.1281 -0.9834
vn -0.8589 -0.1278 -0.4959
vn -0.9834 -0.1282 -0.1281
vn -0.9834 -0.1282 0.1281
vn -0.8589 -0.1278 0.4959
vn -0.4959 -0.1278 0.8589
vn -0.1281 -0.1281 0.9834
vn 0.1281 -0.1281 0.9834
vn 0.4959 -0.1278 0.8589
vn 0.8589 -0.1278 0.4959
vn 0.9834 -0.1282 0.1281
vn 0.9834 -0.1282 -0.1281
vn 0.8589 -0.1278 -0.4959
vn 0.4959 -0.1278 -0.8589
vn 0.1281 -0.1281 -0.9834
vn -0.4380 -0.4823 -0.7586
vn -0.1129 -0.4883 -0.8653
vn -0.7586 -0.4823 -0.4380
vn -0.8653 -0.4883 -0.1129
vn -0.8653 -0.4883 0.1129
vn -0.7586 -0.4823 0.4380
vn -0.4380 -0.4823 0.7586
vn -0.1129 -0.4883 0.8653
vn 0.1129 -0.4883 0.8653
vn 0.4380 -0.4823 0.7586
vn 0.7586 -0.4823 0.4380
vn 0.8653 -0.4883 0.1129
vn 0.8653 -0.4883 -0.1129
vn 0.7586 -0.4823 -0.4380
vn 0.4380 -0.4823 -0.7586
vn 0.1129 -0.4883 -0.8653
vn -0.2654 -0.8474 -0.4598
vn -0.0698 -0.8549 -0.5140
vn -0.4598 -0.8474 -0.2655
vn -0.5140 -0.8549 -0.0698
vn -0.5140 -0.8549 0.0698
vn -0.4598 -0.8474 0.2655
vn -0.2654 -0.8474 0.4598
vn -0.0698 -0.8549 0.5140
vn 0.0698 -0.8549 0.5140
vn 0.2654 -0.8474 0.4598
vn 0.4598 -0.8474 0.2655
vn 0.5140 -0.8549 0.0698
vn 0.5140 -0.8549 -0.0698
vn 0.4598 -0.8474 -0.2655
vn 0.2654 -0.8474 -0.4598
vn 0.0698 -0.8549 -0.5140
vn -0.1087 -0.9881 -0.1087
vn -0.1087 -0.9881 0.1087
vn 0.1087 -0.9881 0.1087
vn 0.1087 -0.9881 -0.1087
# 104 vertex normals

vt 0.2837 0.2534 0.0000
vt 0.2837 0.0108 0.0000
vt 0.4115 0.0108 0.0000
vt 0.4115 0.2534 0.0000
vt 0.4115 0.0100 0.0000
vt 0.4119 0.0101 0.0000
vt 0.4122 0.0104 0.0000
vt 0.4124 0.0108 0.0000
vt 0.4124 0.2534 0.0000
vt 0.4122 0.2538 0.0000
vt 0.4119 0.2541 0.0000
vt 0.4115 0.2542 0.0000
vt 0.2837 0.2542 0.0000
vt 0.2833 0.2541 0.0000
vt 0.2830 0.2538 0.0000
vt 0.2829 0.2534 0.0000
vt 0.2829 0.0108 0.0000
vt 0.2830 0.0104 0.0000
vt 0.2833 0.0101 0.0000
vt 0.2837 0.0100 0.0000
vt 0.7128 0.2823 0.0000
vt 0.7131 0.2817 0.0000
vt 0.7136 0.2817 0.0000
vt 0.7136 0.2823 0.0000
vt 0.2547 0.2823 0.0000
vt 0.2544 0.2817 0.0000
vt 0.2547 0.2817 0.0000
vt 0.2552 0.2823 0.0000
vt 0.2540 0.2823 0.0000
vt 0.2540 0.2817 0.0000
vt 0.0114 0.2823 0.0000
vt 0.0114 0.2817 0.0000
vt 0.0107 0.2823 0.0000
vt 0.0110 0.2817 0.0000
vt 0.0102 0.2823 0.0000
vt 0.0107 0.2817 0.0000
vt 0.6844 0.2823 0.0000
vt 0.6844 0.2817 0.0000
vt 0.6848 0.2817 0.0000
vt 0.6851 0.2823 0.0000
vt 0.5566 0.2823 0.0000
vt 0.5566 0.2817 0.0000
vt 0.5559 0.2823 0.0000
vt 0.5562 0.2817 0.0000
vt 0.5276 0.2823 0.0000
vt 0.5273 0.2817 0.0000
vt 0.5276 0.2817 0.0000
vt 0.5281 0.2823 0.0000
vt 0.5269 0.2823 0.0000
vt 0.5269 0.2817 0.0000
vt 0.2843 0.2823 0.0000
vt 0.2843 0.2817 0.0000
vt 0.2836 0.2823 0.0000
vt 0.2839 0.2817 0.0000
vt 0.2831 0.2823 0.0000
vt 0.2836 0.2817 0.0000
vt 0.8414 0.2823 0.0000
vt 0.8414 0.2817 0.0000
vt 0.8418 0.2817 0.0000
vt 0.8421 0.2823 0.0000
vt 0.7127 0.2831 0.0000
vt 0.7136 0.2831 0.0000
vt 0.2548 0.2831 0.0000
vt 0.2554 0.2831 0.0000
vt 0.2540 0.2831 0.0000
vt 0.0114 0.2831 0.0000
vt 0.0106 0.2831 0.0000
vt 0.0100 0.2831 0.0000
vt 0.6844 0.2831 0.0000
vt 0.6852 0.2831 0.0000
vt 0.5566 0.2831 0.0000
vt 0.5558 0.2831 0.0000
vt 0.5277 0.2831 0.0000
vt 0.5283 0.2831 0.0000
vt 0.5269 0.2831 0.0000
vt 0.2843 0.2831 0.0000
vt 0.2835 0.2831 0.0000
vt 0.2829 0.2831 0.0000
vt 0.8414 0.2831 0.0000
vt 0.8422 0.2831 0.0000
vt 0.7127 0.8261 0.0000
vt 0.7136 0.8261 0.0000
vt 0.2548 0.8261 0.0000
vt 0.2554 0.8261 0.0000
vt 0.2540 0.8261 0.0000
vt 0.0114 0.8261 0.0000
vt 0.0106 0.8261 0.0000
vt 0.0100 0.8261 0.0000
vt 0.6844 0.8261 0.0000
vt 0.6852 0.8261 0.0000
vt 0.5530 0.9900 0.0000
vt 0.0100 0.9900 0.0000
vt 0.0100 0.8622 0.0000
vt 0.5530 0.8622 0.0000
vt 0.5558 0.8261 0.0000
vt 0.5566 0.8261 0.0000
vt 0.5277 0.8261 0.0000
vt 0.5283 0.8261 0.0000
vt 0.5269 0.8261 0.0000
vt 0.2843 0.8261 0.0000
vt 0.2835 0.8261 0.0000
vt 0.2829 0.8261 0.0000
vt 0.8414 0.8261 0.0000
vt 0.8422 0.8261 0.0000
vt 0.7128 0.8269 0.0000
vt 0.7136 0.8269 0.0000
vt 0.2547 0.8269 0.0000
vt 0.2552 0.8269 0.0000
vt 0.2540 0.8269 0.0000
vt 0.0114 0.8269 0.0000
vt 0.0107 0.8269 0.0000
vt 0.0102 0.8269 0.0000
vt 0.6844 0.8269 0.0000
vt 0.6851 0.8269 0.0000
vt 0.5566 0.8269 0.0000
vt 0.5559 0.8269 0.0000
vt 0.5276 0.8269 0.0000
vt 0.5281 0.8269 0.0000
vt 0.5269 0.8269 0.0000
vt 0.2843 0.8269 0.0000
vt 0.2836 0.8269 0.0000
vt 0.2831 0.8269 0.0000
vt 0.8414 0.8269 0.0000
vt 0.8421 0.8269 0.0000
vt 0.7131 0.8275 0.0000
vt 0.7136 0.8275 0.0000
vt 0.2544 0.8275 0.0000
vt 0.2547 0.8275 0.0000
vt 0.2540 0.8275 0.0000
vt 0.0114 0.8275 0.0000
vt 0.0110 0.8275 0.0000
vt 0.0107 0.8275 0.0000
vt 0.6844 0.8275 0.0000
vt 0.6848 0.8275 0.0000
vt 0.5566 0.8275 0.0000
vt 0.5562 0.8275 0.0000
vt 0.5273 0.8275 0.0000
vt 0.5276 0.8275 0.0000
vt 0.5269 0.8275 0.0000
vt 0.2843 0.8275 0.0000
vt 0.2839 0.8275 0.0000
vt 0.2836 0.8275 0.0000
vt 0.8414 0.8275 0.0000
vt 0.8418 0.8275 0.0000
vt 0.1387 0.2542 0.0000
vt 0.1387 0.2534 0.0000
vt 0.1391 0.2541 0.0000
vt 0.1394 0.2538 0.0000
vt 0.1395 0.2534 0.0000
vt 0.1387 0.0108 0.0000
vt 0.1395 0.0108 0.0000
vt 0.1394 0.0104 0.0000
vt 0.1391 0.0101 0.0000
vt 0.1387 0.0100 0.0000
vt 0.0108 0.0108 0.0000
vt 0.0108 0.0100 0.0000
vt 0.0104 0.0101 0.0000
vt 0.0101 0.0104 0.0000
vt 0.0100 0.0108 0.0000
vt 0.0108 0.2534 0.0000
vt 0.0100 0.2534 0.0000
vt 0.0101 0.2538 0.0000
vt 0.0104 0.2541 0.0000
vt 0.0108 0.2542 0.0000
# 164 texture coords

g ChamferBox59
usemtl Material__5283
s 1
f 1/1/1 2/2/2 3/3/3 4/4/4 
f 3/3/3 5/5/5 6/6/6 
f 3/3/3 6/6/6 7/7/7 
f 3/3/3 7/7/7 8/8/8 
f 9/9/9 4/4/4 3/3/3 8/8/8 
f 4/4/4 9/9/9 10/10/10 
f 4/4/4 10/10/10 11/11/11 
f 4/4/4 11/11/11 12/12/12 
f 13/13/13 1/1/1 4/4/4 12/12/12 
f 1/1/1 13/13/13 14/14/14 
f 1/1/1 14/14/14 15/15/15 
f 1/1/1 15/15/15 16/16/16 
f 17/17/17 2/2/2 1/1/1 16/16/16 
f 2/2/2 17/17/17 18/18/18 
f 2/2/2 18/18/18 19/19/19 
f 2/2/2 19/19/19 20/20/20 
f 5/5/5 3/3/3 2/2/2 20/20/20 
f 21/21/21 6/22/6 5/23/5 22/24/22 
f 23/25/23 7/26/7 6/27/6 21/28/21 
f 24/29/24 8/30/8 7/26/7 23/25/23 
f 25/31/25 9/32/9 8/30/8 24/29/24 
f 26/33/26 10/34/10 9/32/9 25/31/25 
f 27/35/27 11/36/11 10/34/10 26/33/26 
f 28/37/28 12/38/12 11/39/11 27/40/27 
f 29/41/29 13/42/13 12/38/12 28/37/28 
f 30/43/30 14/44/14 13/42/13 29/41/29 
f 31/45/31 15/46/15 14/47/14 30/48/30 
f 32/49/32 16/50/16 15/46/15 31/45/31 
f 33/51/33 17/52/17 16/50/16 32/49/32 
f 34/53/34 18/54/18 17/52/17 33/51/33 
f 35/55/35 19/56/19 18/54/18 34/53/34 
f 36/57/36 20/58/20 19/59/19 35/60/35 
f 22/24/22 5/23/5 20/58/20 36/57/36 
f 37/61/37 21/21/21 22/24/22 38/62/38 
f 39/63/39 23/25/23 21/28/21 37/64/37 
f 40/65/40 24/29/24 23/25/23 39/63/39 
f 41/66/41 25/31/25 24/29/24 40/65/40 
f 42/67/42 26/33/26 25/31/25 41/66/41 
f 43/68/43 27/35/27 26/33/26 42/67/42 
f 44/69/44 28/37/28 27/40/27 43/70/43 
f 45/71/45 29/41/29 28/37/28 44/69/44 
f 46/72/46 30/43/30 29/41/29 45/71/45 
f 47/73/47 31/45/31 30/48/30 46/74/46 
f 48/75/48 32/49/32 31/45/31 47/73/47 
f 49/76/49 33/51/33 32/49/32 48/75/48 
f 50/77/50 34/53/34 33/51/33 49/76/49 
f 51/78/51 35/55/35 34/53/34 50/77/50 
f 52/79/52 36/57/36 35/60/35 51/80/51 
f 38/62/38 22/24/22 36/57/36 52/79/52 
f 53/81/53 37/61/37 38/62/38 54/82/54 
f 55/83/55 39/63/39 37/64/37 53/84/53 
f 56/85/56 40/65/40 39/63/39 55/83/55 
f 57/86/57 41/66/41 40/65/40 56/85/56 
f 58/87/58 42/67/42 41/66/41 57/86/57 
f 59/88/59 43/68/43 42/67/42 58/87/58 
f 60/89/60 44/69/44 43/70/43 59/90/59 
f 61/91/61 45/92/45 44/93/44 60/94/60 
f 62/95/62 46/72/46 45/71/45 61/96/61 
f 63/97/63 47/73/47 46/74/46 62/98/62 
f 64/99/64 48/75/48 47/73/47 63/97/63 
f 65/100/65 49/76/49 48/75/48 64/99/64 
f 66/101/66 50/77/50 49/76/49 65/100/65 
f 67/102/67 51/78/51 50/77/50 66/101/66 
f 68/103/68 52/79/52 51/80/51 67/104/67 
f 54/82/54 38/62/38 52/79/52 68/103/68 
f 69/105/69 53/81/53 54/82/54 70/106/70 
f 71/107/71 55/83/55 53/84/53 69/108/69 
f 72/109/72 56/85/56 55/83/55 71/107/71 
f 73/110/73 57/86/57 56/85/56 72/109/72 
f 74/111/74 58/87/58 57/86/57 73/110/73 
f 75/112/75 59/88/59 58/87/58 74/111/74 
f 76/113/76 60/89/60 59/90/59 75/114/75 
f 77/115/77 61/96/61 60/89/60 76/113/76 
f 78/116/78 62/95/62 61/96/61 77/115/77 
f 79/117/79 63/97/63 62/98/62 78/118/78 
f 80/119/80 64/99/64 63/97/63 79/117/79 
f 81/120/81 65/100/65 64/99/64 80/119/80 
f 82/121/82 66/101/66 65/100/65 81/120/81 
f 83/122/83 67/102/67 66/101/66 82/121/82 
f 84/123/84 68/103/68 67/104/67 83/124/83 
f 70/106/70 54/82/54 68/103/68 84/123/84 
f 85/125/85 69/105/69 70/106/70 86/126/86 
f 87/127/87 71/107/71 69/108/69 85/128/85 
f 88/129/88 72/109/72 71/107/71 87/127/87 
f 89/130/89 73/110/73 72/109/72 88/129/88 
f 90/131/90 74/111/74 73/110/73 89/130/89 
f 91/132/91 75/112/75 74/111/74 90/131/90 
f 92/133/92 76/113/76 75/114/75 91/134/91 
f 93/135/93 77/115/77 76/113/76 92/133/92 
f 94/136/94 78/116/78 77/115/77 93/135/93 
f 95/137/95 79/117/79 78/118/78 94/138/94 
f 96/139/96 80/119/80 79/117/79 95/137/95 
f 97/140/97 81/120/81 80/119/80 96/139/96 
f 98/141/98 82/121/82 81/120/81 97/140/97 
f 99/142/99 83/122/83 82/121/82 98/141/98 
f 100/143/100 84/123/84 83/124/83 99/144/99 
f 86/126/86 70/106/70 84/123/84 100/143/100 
f 86/145/86 101/146/101 85/147/85 
f 85/147/85 101/146/101 87/148/87 
f 87/148/87 101/146/101 88/149/88 
f 102/150/102 89/151/89 88/149/88 101/146/101 
f 89/151/89 102/150/102 90/152/90 
f 90/152/90 102/150/102 91/153/91 
f 91/153/91 102/150/102 92/154/92 
f 103/155/103 93/156/93 92/154/92 102/150/102 
f 93/156/93 103/155/103 94/157/94 
f 94/157/94 103/155/103 95/158/95 
f 95/158/95 103/155/103 96/159/96 
f 104/160/104 97/161/97 96/159/96 103/155/103 
f 97/161/97 104/160/104 98/162/98 
f 98/162/98 104/160/104 99/163/99 
f 99/163/99 104/160/104 100/164/100 
f 101/146/101 86/145/86 100/164/100 104/160/104 
f 102/150/102 101/146/101 104/160/104 103/155/103 
# 90 polygons - 24 triangles

