# 3ds Max Wavefront OBJ Exporter v0.97b - (c)2007 guruware
# File Created: 20.10.2015 11:39:24

mtllib diannao002.mtl

#
# object DZYJY36
#

v  8.6658 37.2299 -17.9166
v  8.6658 37.2299 17.9166
v  8.6658 0.2920 17.9166
v  8.6658 0.2920 -17.9166
v  -8.2415 37.2299 -18.2166
v  8.2415 37.2299 -18.2166
v  8.3658 37.1057 -18.2166
v  8.2415 0.2920 -18.2166
v  8.3658 0.4163 -18.2166
v  -8.2415 0.2920 -18.2166
v  -8.3658 0.4163 -18.2166
v  -8.3658 37.1057 -18.2166
v  -8.6658 37.2299 17.9166
v  -8.6658 37.2299 -17.9166
v  -8.6658 0.2920 -17.9166
v  -8.6658 0.2920 17.9166
v  8.2415 37.2299 18.2166
v  -8.2415 37.2299 18.2166
v  -8.3658 37.1057 18.2166
v  -8.2415 0.2920 18.2166
v  -8.3658 0.4163 18.2166
v  8.2415 0.2920 18.2166
v  8.3658 0.4163 18.2166
v  8.3658 37.1057 18.2166
v  -8.3658 -0.0080 -17.9166
v  8.3658 -0.0080 -17.9166
v  8.3658 -0.0080 17.9166
v  -8.3658 -0.0080 17.9166
v  8.3658 37.5299 17.9166
v  8.3658 37.5299 -17.9166
v  -8.3658 37.5299 -17.9166
v  -8.3658 37.5299 17.9166
# 32 vertices

vn 1.0000 0.0000 -0.0000
vn 0.0000 0.0000 -1.0000
vn -1.0000 0.0000 -0.0000
vn 0.0000 0.0000 1.0000
vn 0.0000 -1.0000 -0.0000
vn 0.0000 1.0000 -0.0000
vn 0.7071 -0.7071 -0.0000
vn 0.7071 0.7071 -0.0000
vn -0.7071 -0.7071 -0.0000
vn -0.7071 0.7071 -0.0000
vn 0.7071 0.0000 -0.7071
vn 0.7071 0.0000 0.7071
vn 0.0000 -0.7071 -0.7071
vn -0.7071 0.0000 -0.7071
vn 0.0000 0.7071 -0.7071
vn -0.7071 0.0000 0.7071
vn 0.0000 -0.7071 0.7071
vn 0.0000 0.7071 0.7071
vn 0.5000 -0.5000 0.7071
vn 0.5000 -0.5000 -0.7071
vn -0.5000 -0.5000 -0.7071
vn -0.5000 -0.5000 0.7071
vn 0.5000 0.5000 0.7071
vn 0.5000 0.5000 -0.7071
vn -0.5000 0.5000 -0.7071
vn -0.5000 0.5000 0.7071
# 26 vertex normals

vt 0.0271 0.3944 0.0000
vt 0.3346 0.3944 0.0000
vt 0.3346 0.7113 0.0000
vt 0.0271 0.7113 0.0000
vt 0.0518 0.9770 0.0000
vt 0.0518 0.8361 0.0000
vt 0.0529 0.8350 0.0000
vt 0.3677 0.8361 0.0000
vt 0.3666 0.8350 0.0000
vt 0.3677 0.9770 0.0000
vt 0.3666 0.9781 0.0000
vt 0.0529 0.9781 0.0000
vt 0.3959 0.3947 0.0000
vt 0.7028 0.3947 0.0000
vt 0.7028 0.7111 0.0000
vt 0.3959 0.7111 0.0000
vt 0.5805 0.0219 0.0000
vt 0.7214 0.0219 0.0000
vt 0.7225 0.0230 0.0000
vt 0.7214 0.3378 0.0000
vt 0.7225 0.3367 0.0000
vt 0.5805 0.3378 0.0000
vt 0.5794 0.3367 0.0000
vt 0.5794 0.0230 0.0000
vt 0.3931 0.0276 0.0000
vt 0.5374 0.0276 0.0000
vt 0.5374 0.3367 0.0000
vt 0.3931 0.3367 0.0000
vt 0.0245 0.3367 0.0000
vt 0.0245 0.0276 0.0000
vt 0.1688 0.0276 0.0000
vt 0.1688 0.3367 0.0000
vt 0.5400 0.3367 0.0000
vt 0.5400 0.0276 0.0000
vt 0.0219 0.0276 0.0000
vt 0.0219 0.3367 0.0000
vt 0.3905 0.0276 0.0000
vt 0.3905 0.3367 0.0000
vt 0.1714 0.3367 0.0000
vt 0.1714 0.0276 0.0000
vt 0.0245 0.7103 0.0000
vt 0.0245 0.3955 0.0000
vt 0.3371 0.3955 0.0000
vt 0.3371 0.7103 0.0000
vt 0.3826 0.7712 0.0000
vt 0.3838 0.7743 0.0000
vt 0.2137 0.7743 0.0000
vt 0.2149 0.7712 0.0000
vt 0.3963 0.8122 0.0000
vt 0.3976 0.8152 0.0000
vt 0.0219 0.8152 0.0000
vt 0.0232 0.8122 0.0000
vt 0.3826 0.7917 0.0000
vt 0.3838 0.7948 0.0000
vt 0.2137 0.7948 0.0000
vt 0.2149 0.7917 0.0000
vt 0.3933 0.7100 0.0000
vt 0.3933 0.3957 0.0000
vt 0.3941 0.3393 0.0000
vt 0.5363 0.3393 0.0000
vt 0.0256 0.3393 0.0000
vt 0.1678 0.3393 0.0000
vt 0.2600 0.3424 0.0000
vt 0.2612 0.3388 0.0000
vt 0.2627 0.3389 0.0000
vt 0.2637 0.3425 0.0000
vt 0.2637 0.2875 0.0000
vt 0.2626 0.2911 0.0000
vt 0.2611 0.2911 0.0000
vt 0.2600 0.2875 0.0000
vt 0.2087 0.3424 0.0000
vt 0.2099 0.3388 0.0000
vt 0.2114 0.3389 0.0000
vt 0.2124 0.3425 0.0000
vt 0.2124 0.2361 0.0000
vt 0.2113 0.2397 0.0000
vt 0.2098 0.2397 0.0000
vt 0.2087 0.2361 0.0000
vt 0.2482 0.2397 0.0000
vt 0.2492 0.2361 0.0000
vt 0.2507 0.2361 0.0000
vt 0.2518 0.2397 0.0000
vt 0.3150 0.3389 0.0000
vt 0.3138 0.3425 0.0000
vt 0.3123 0.3425 0.0000
vt 0.3113 0.3388 0.0000
vt 0.2994 0.2911 0.0000
vt 0.3005 0.2875 0.0000
vt 0.3020 0.2875 0.0000
vt 0.3031 0.2911 0.0000
vt 0.2124 0.2875 0.0000
vt 0.2112 0.2911 0.0000
vt 0.2097 0.2911 0.0000
vt 0.2087 0.2874 0.0000
# 94 texture coords

g DZYJY36
usemtl 14___Default
s 1
f 1/1/1 2/2/1 3/3/1 4/4/1 
s 4
f 5/5/2 6/6/2 7/7/2 8/8/2 
f 7/7/2 9/9/2 8/8/2 
f 8/8/2 10/10/2 11/11/2 5/5/2 
f 5/5/2 11/11/2 12/12/2 
s 2
f 13/13/3 14/14/3 15/15/3 16/16/3 
s 4
f 17/17/4 18/18/4 19/19/4 20/20/4 
f 19/19/4 21/21/4 20/20/4 
f 20/20/4 22/22/4 23/23/4 17/17/4 
f 17/17/4 23/23/4 24/24/4 
s 16
f 25/25/5 26/26/5 27/27/5 28/28/5 
f 29/29/6 30/30/6 31/31/6 32/32/6 
s off
f 3/33/7 27/27/7 26/26/7 4/34/7 
f 1/35/8 30/30/8 29/29/8 2/36/8 
f 15/37/9 25/25/9 28/28/9 16/38/9 
f 13/39/10 32/32/10 31/31/10 14/40/10 
f 4/4/11 9/41/11 7/42/11 1/1/11 
f 2/2/12 24/43/12 23/44/12 3/3/12 
f 8/45/13 26/46/13 25/47/13 10/48/13 
f 11/49/14 15/50/14 14/51/14 12/52/14 
f 5/53/15 31/54/15 30/55/15 6/56/15 
f 16/16/16 21/57/16 19/58/16 13/13/16 
f 20/59/17 28/28/17 27/27/17 22/60/17 
f 17/61/18 29/29/18 32/32/18 18/62/18 
f 3/63/19 23/64/19 22/65/19 27/66/19 
f 26/67/20 8/68/20 9/69/20 4/70/20 
f 15/71/21 11/72/21 10/73/21 25/74/21 
f 28/75/22 20/76/22 21/77/22 16/78/22 
f 29/79/23 17/80/23 24/81/23 2/82/23 
f 1/83/24 7/84/24 6/85/24 30/86/24 
f 31/87/25 5/88/25 12/89/25 14/90/25 
f 13/91/26 19/92/26 18/93/26 32/94/26 
# 28 polygons - 4 triangles

