<?xml version="1.0" encoding="utf-8"?>
<!-- Generator: Adobe Illustrator 19.0.0, SVG Export Plug-In . SVG Version: 6.00 Build 0)  -->
<svg version="1.1" id="图层_1" xmlns="http://www.w3.org/2000/svg" xmlns:xlink="http://www.w3.org/1999/xlink" x="0px" y="0px"
	 width="1261.42px" height="124.72px" viewBox="0 0 1261.42 124.72" enable-background="new 0 0 1261.42 124.72"
	 xml:space="preserve">
<path id="XMLID_748_" fill="#244B68" d="M1261.417,116.221c0,4.696-3.808,8.504-8.504,8.504H8.504c-4.697,0-8.504-3.808-8.504-8.504
	V8.504C0,3.808,3.807,0,8.504,0h1244.41c4.696,0,8.504,3.808,8.504,8.504V116.221z"/>
<path id="XMLID_747_" fill="#003A56" d="M107.416,0.5c-7.996,1.847-16.218,11.243-16.218,23.323c0,17.584,0,78.685,0,100.401h4.223
	c0-13.928,0-67.659,0-92.366C95.421,0.5,125.659,0.5,125.659,0.5H107.416z"/>
<g id="XMLID_1_">
	<path id="XMLID_2_" fill="#FFFFFF" d="M1138.879,20.853l1.594,0.502c-0.245,0.882-0.651,1.536-1.219,1.965
		c-0.568,0.427-1.29,0.641-2.162,0.641c-1.082,0-1.97-0.366-2.666-1.1c-0.696-0.732-1.044-1.734-1.044-3.006
		c0-1.344,0.35-2.388,1.049-3.132c0.7-0.744,1.62-1.116,2.76-1.116c0.996,0,1.805,0.292,2.427,0.876
		c0.37,0.346,0.647,0.842,0.833,1.488l-1.627,0.386c-0.096-0.419-0.297-0.749-0.602-0.992c-0.306-0.242-0.677-0.363-1.113-0.363
		c-0.604,0-1.093,0.215-1.469,0.644c-0.376,0.43-0.563,1.127-0.563,2.089c0,1.022,0.185,1.749,0.555,2.183
		c0.37,0.433,0.851,0.65,1.443,0.65c0.437,0,0.813-0.138,1.128-0.414C1138.516,21.878,1138.742,21.445,1138.879,20.853z"/>
	<path id="XMLID_3_" fill="#FFFFFF" d="M1143.038,19.756l-1.416-0.254c0.159-0.566,0.433-0.984,0.822-1.256
		c0.388-0.271,0.966-0.407,1.733-0.407c0.696,0,1.214,0.081,1.555,0.245c0.34,0.163,0.58,0.371,0.719,0.622
		c0.139,0.252,0.208,0.714,0.208,1.386l-0.017,1.808c0,0.514,0.025,0.893,0.075,1.137c0.05,0.245,0.143,0.507,0.28,0.786h-1.543
		c-0.041-0.103-0.091-0.256-0.149-0.457c-0.026-0.092-0.045-0.152-0.056-0.182c-0.267,0.258-0.552,0.45-0.855,0.578
		c-0.304,0.129-0.628,0.194-0.972,0.194c-0.607,0-1.085-0.164-1.435-0.491c-0.35-0.326-0.525-0.74-0.525-1.24
		c0-0.33,0.08-0.625,0.239-0.884c0.159-0.259,0.382-0.457,0.669-0.595c0.287-0.138,0.701-0.258,1.242-0.36
		c0.729-0.137,1.234-0.263,1.516-0.381V19.85c0-0.297-0.074-0.509-0.223-0.636c-0.148-0.127-0.427-0.19-0.839-0.19
		c-0.277,0-0.494,0.054-0.649,0.162C1143.26,19.294,1143.134,19.484,1143.038,19.756z M1145.127,21.013
		c-0.2,0.066-0.517,0.145-0.95,0.237c-0.433,0.091-0.717,0.181-0.849,0.269c-0.204,0.143-0.306,0.326-0.306,0.545
		c0,0.217,0.081,0.405,0.244,0.563c0.163,0.158,0.37,0.236,0.622,0.236c0.281,0,0.55-0.092,0.805-0.275
		c0.188-0.14,0.312-0.311,0.372-0.512c0.041-0.133,0.062-0.384,0.062-0.755V21.013z"/>
	<path id="XMLID_4_" fill="#FFFFFF" d="M1150.901,17.971v1.234h-1.066v2.359c0,0.478,0.011,0.756,0.031,0.835
		c0.02,0.078,0.066,0.143,0.139,0.196c0.072,0.051,0.16,0.077,0.263,0.077c0.145,0,0.353-0.049,0.628-0.148l0.133,1.201
		c-0.363,0.154-0.773,0.232-1.233,0.232c-0.281,0-0.535-0.047-0.761-0.141c-0.225-0.093-0.391-0.214-0.497-0.363
		c-0.105-0.149-0.179-0.35-0.22-0.604c-0.033-0.18-0.05-0.543-0.05-1.091v-2.552h-0.717v-1.234h0.717v-1.163l1.566-0.904v2.066
		H1150.901z"/>
	<path id="XMLID_5_" fill="#FFFFFF" d="M1153.15,19.756l-1.417-0.254c0.159-0.566,0.433-0.984,0.822-1.256
		c0.389-0.271,0.966-0.407,1.733-0.407c0.696,0,1.214,0.081,1.555,0.245c0.34,0.163,0.58,0.371,0.718,0.622
		c0.139,0.252,0.208,0.714,0.208,1.386l-0.017,1.808c0,0.514,0.025,0.893,0.075,1.137c0.05,0.245,0.144,0.507,0.28,0.786h-1.543
		c-0.041-0.103-0.091-0.256-0.149-0.457c-0.026-0.092-0.045-0.152-0.056-0.182c-0.266,0.258-0.552,0.45-0.855,0.578
		c-0.304,0.129-0.628,0.194-0.972,0.194c-0.607,0-1.086-0.164-1.435-0.491c-0.35-0.326-0.525-0.74-0.525-1.24
		c0-0.33,0.08-0.625,0.239-0.884c0.159-0.259,0.382-0.457,0.669-0.595c0.287-0.138,0.701-0.258,1.242-0.36
		c0.729-0.137,1.234-0.263,1.516-0.381V19.85c0-0.297-0.074-0.509-0.223-0.636c-0.148-0.127-0.428-0.19-0.839-0.19
		c-0.277,0-0.494,0.054-0.649,0.162C1153.371,19.294,1153.245,19.484,1153.15,19.756z M1155.238,21.013
		c-0.2,0.066-0.517,0.145-0.95,0.237c-0.433,0.091-0.716,0.181-0.849,0.269c-0.204,0.143-0.306,0.326-0.306,0.545
		c0,0.217,0.081,0.405,0.244,0.563c0.163,0.158,0.37,0.236,0.622,0.236c0.281,0,0.55-0.092,0.805-0.275
		c0.188-0.14,0.312-0.311,0.372-0.512c0.041-0.133,0.061-0.384,0.061-0.755V21.013z"/>
	<path id="XMLID_6_" fill="#FFFFFF" d="M1158.308,23.823v-8.078h1.561v8.078H1158.308z"/>
	<path id="XMLID_7_" fill="#FFFFFF" d="M1160.73,17.971h1.66l1.411,4.155l1.377-4.155h1.616l-2.082,5.631l-0.372,1.02
		c-0.137,0.341-0.267,0.603-0.391,0.783c-0.124,0.179-0.266,0.326-0.427,0.438c-0.161,0.111-0.359,0.199-0.595,0.262
		c-0.235,0.062-0.501,0.094-0.797,0.094c-0.3,0-0.594-0.032-0.882-0.094l-0.14-1.212c0.245,0.048,0.465,0.071,0.661,0.071
		c0.363,0,0.632-0.106,0.805-0.317c0.174-0.211,0.307-0.48,0.4-0.807L1160.73,17.971z"/>
	<path id="XMLID_8_" fill="#FFFFFF" d="M1167.243,22.153l1.566-0.236c0.066,0.301,0.202,0.53,0.405,0.686
		c0.204,0.156,0.489,0.235,0.855,0.235c0.404,0,0.708-0.074,0.911-0.221c0.137-0.103,0.206-0.24,0.206-0.413
		c0-0.118-0.037-0.215-0.111-0.293c-0.078-0.074-0.252-0.141-0.522-0.203c-1.258-0.276-2.056-0.527-2.393-0.756
		c-0.467-0.316-0.7-0.755-0.7-1.317c0-0.507,0.202-0.933,0.605-1.279c0.403-0.345,1.029-0.517,1.877-0.517
		c0.806,0,1.407,0.13,1.799,0.39c0.391,0.262,0.662,0.647,0.81,1.158l-1.471,0.27c-0.063-0.228-0.183-0.403-0.358-0.524
		c-0.176-0.121-0.427-0.181-0.753-0.181c-0.411,0-0.705,0.056-0.883,0.17c-0.119,0.08-0.178,0.185-0.178,0.314
		c0,0.111,0.052,0.204,0.155,0.281c0.141,0.103,0.627,0.248,1.457,0.436c0.831,0.187,1.412,0.417,1.741,0.689
		c0.326,0.275,0.489,0.659,0.489,1.151c0,0.537-0.226,0.998-0.677,1.383c-0.452,0.386-1.12,0.579-2.005,0.579
		c-0.803,0-1.439-0.162-1.907-0.485C1167.694,23.147,1167.387,22.708,1167.243,22.153z"/>
	<path id="XMLID_9_" fill="#FFFFFF" d="M1176.821,17.971v1.234h-1.066v2.359c0,0.478,0.011,0.756,0.031,0.835
		c0.02,0.078,0.067,0.143,0.139,0.196c0.072,0.051,0.16,0.077,0.264,0.077c0.145,0,0.353-0.049,0.628-0.148l0.133,1.201
		c-0.363,0.154-0.773,0.232-1.233,0.232c-0.281,0-0.535-0.047-0.76-0.141c-0.225-0.093-0.391-0.214-0.497-0.363
		c-0.105-0.149-0.179-0.35-0.22-0.604c-0.033-0.18-0.05-0.543-0.05-1.091v-2.552h-0.717v-1.234h0.717v-1.163l1.566-0.904v2.066
		H1176.821z"/>
	<path id="XMLID_10_" fill="#FFFFFF" d="M1186,22.385v1.439h-5.469c0.06-0.543,0.237-1.059,0.533-1.546
		c0.297-0.486,0.882-1.131,1.755-1.936c0.703-0.65,1.134-1.091,1.293-1.322c0.215-0.32,0.322-0.636,0.322-0.948
		c0-0.345-0.094-0.61-0.28-0.796c-0.187-0.185-0.445-0.278-0.775-0.278c-0.326,0-0.585,0.098-0.777,0.293
		c-0.192,0.195-0.304,0.517-0.333,0.97l-1.555-0.154c0.093-0.853,0.383-1.465,0.872-1.836c0.488-0.371,1.099-0.556,1.832-0.556
		c0.803,0,1.434,0.215,1.894,0.644c0.459,0.43,0.688,0.965,0.688,1.604c0,0.363-0.065,0.71-0.197,1.038
		c-0.132,0.328-0.34,0.673-0.625,1.033c-0.188,0.239-0.529,0.583-1.021,1.031c-0.493,0.449-0.804,0.746-0.936,0.893
		c-0.132,0.146-0.238,0.29-0.319,0.429H1186z"/>
	<path id="XMLID_11_" fill="#FFFFFF" d="M1187.088,21.955l1.51-0.166c0.037,0.305,0.134,0.531,0.289,0.678
		c0.155,0.146,0.361,0.22,0.616,0.22c0.322,0,0.596-0.146,0.822-0.441c0.226-0.294,0.37-0.904,0.433-1.829
		c-0.392,0.451-0.882,0.677-1.471,0.677c-0.641,0-1.194-0.245-1.658-0.735c-0.465-0.49-0.697-1.129-0.697-1.915
		c0-0.819,0.245-1.479,0.735-1.981c0.491-0.501,1.116-0.752,1.874-0.752c0.826,0,1.503,0.317,2.032,0.95
		c0.529,0.633,0.795,1.676,0.795,3.127c0,1.477-0.276,2.542-0.828,3.196c-0.552,0.654-1.27,0.981-2.154,0.981
		c-0.636,0-1.151-0.169-1.543-0.505C1187.452,23.126,1187.2,22.624,1187.088,21.955z M1190.62,18.572c0-0.5-0.116-0.887-0.348-1.163
		c-0.231-0.276-0.499-0.414-0.802-0.414c-0.289,0-0.528,0.113-0.719,0.339c-0.191,0.226-0.286,0.596-0.286,1.11
		c0,0.522,0.104,0.905,0.311,1.149c0.208,0.244,0.467,0.367,0.778,0.367c0.3,0,0.552-0.118,0.758-0.354
		C1190.518,19.373,1190.62,19.027,1190.62,18.572z"/>
	<path id="XMLID_12_" fill="#FFFFFF" d="M1193.402,21.746l1.554-0.16c0.045,0.349,0.176,0.625,0.394,0.829
		c0.219,0.203,0.47,0.305,0.756,0.305c0.325,0,0.601-0.131,0.827-0.393c0.226-0.262,0.339-0.659,0.339-1.188
		c0-0.496-0.111-0.868-0.336-1.116c-0.224-0.248-0.516-0.372-0.875-0.372c-0.448,0-0.849,0.197-1.204,0.59l-1.266-0.182l0.799-4.204
		h4.126v1.449h-2.943l-0.245,1.372c0.348-0.172,0.704-0.259,1.067-0.259c0.692,0,1.279,0.25,1.76,0.749
		c0.481,0.5,0.721,1.149,0.721,1.945c0,0.666-0.194,1.258-0.583,1.781c-0.529,0.712-1.264,1.069-2.204,1.069
		c-0.752,0-1.365-0.2-1.838-0.601C1193.777,22.96,1193.494,22.421,1193.402,21.746z"/>
	<path id="XMLID_13_" fill="#FFFFFF" d="M1202.342,15.712c0.789,0,1.405,0.279,1.849,0.837c0.529,0.662,0.794,1.758,0.794,3.29
		c0,1.529-0.266,2.627-0.8,3.296c-0.44,0.551-1.054,0.826-1.843,0.826c-0.793,0-1.431-0.302-1.916-0.907
		c-0.484-0.604-0.727-1.681-0.727-3.232c0-1.521,0.266-2.616,0.799-3.284C1200.939,15.987,1201.553,15.712,1202.342,15.712z
		 M1202.342,16.996c-0.189,0-0.357,0.06-0.506,0.179c-0.148,0.119-0.263,0.333-0.344,0.642c-0.108,0.4-0.161,1.074-0.161,2.022
		c0,0.948,0.048,1.599,0.144,1.954c0.097,0.355,0.218,0.59,0.364,0.708c0.146,0.117,0.313,0.176,0.503,0.176
		c0.188,0,0.357-0.06,0.505-0.179c0.149-0.119,0.264-0.333,0.345-0.642c0.107-0.396,0.161-1.068,0.161-2.017
		c0-0.947-0.048-1.598-0.144-1.953c-0.096-0.355-0.218-0.592-0.363-0.711C1202.698,17.056,1202.531,16.996,1202.342,16.996z"/>
	<path id="XMLID_14_" fill="#FFFFFF" d="M1209.08,21.918l0.746-0.064c0.035,0.296,0.118,0.54,0.247,0.729
		c0.129,0.191,0.329,0.344,0.601,0.461c0.271,0.117,0.577,0.176,0.917,0.176c0.302,0,0.568-0.045,0.798-0.134
		c0.231-0.089,0.403-0.211,0.516-0.366c0.112-0.155,0.169-0.324,0.169-0.508c0-0.186-0.055-0.348-0.163-0.487
		c-0.109-0.139-0.288-0.256-0.538-0.35c-0.161-0.062-0.515-0.158-1.064-0.29c-0.549-0.13-0.933-0.254-1.154-0.37
		c-0.285-0.148-0.498-0.332-0.637-0.551c-0.14-0.22-0.21-0.466-0.21-0.738c0-0.299,0.086-0.579,0.257-0.84
		c0.171-0.26,0.421-0.457,0.75-0.592c0.329-0.136,0.694-0.202,1.096-0.202c0.443,0,0.834,0.071,1.172,0.212
		c0.338,0.141,0.598,0.35,0.78,0.625c0.183,0.275,0.28,0.586,0.294,0.935l-0.759,0.056c-0.04-0.375-0.179-0.658-0.414-0.85
		c-0.234-0.191-0.582-0.287-1.041-0.287c-0.478,0-0.827,0.087-1.046,0.261c-0.219,0.174-0.328,0.384-0.328,0.629
		c0,0.213,0.077,0.388,0.232,0.526c0.152,0.138,0.55,0.278,1.192,0.422s1.083,0.27,1.323,0.379c0.348,0.159,0.604,0.36,0.77,0.604
		c0.166,0.244,0.249,0.525,0.249,0.843c0,0.316-0.092,0.613-0.273,0.892c-0.183,0.279-0.444,0.496-0.785,0.651
		c-0.341,0.155-0.724,0.233-1.151,0.233c-0.541,0-0.994-0.077-1.36-0.235c-0.365-0.156-0.652-0.391-0.86-0.705
		C1209.2,22.669,1209.09,22.315,1209.08,21.918z"/>
	<path id="XMLID_15_" fill="#FFFFFF" d="M1217.785,22.44l0.759,0.093c-0.12,0.44-0.342,0.781-0.665,1.023
		c-0.323,0.243-0.736,0.364-1.239,0.364c-0.634,0-1.135-0.193-1.506-0.58c-0.371-0.386-0.556-0.93-0.556-1.627
		c0-0.723,0.187-1.284,0.562-1.683c0.375-0.399,0.862-0.599,1.459-0.599c0.579,0,1.051,0.196,1.418,0.586
		c0.367,0.391,0.551,0.942,0.551,1.651c0,0.043-0.002,0.108-0.005,0.194h-3.227c0.027,0.472,0.161,0.833,0.403,1.084
		c0.242,0.251,0.544,0.376,0.905,0.376c0.269,0,0.499-0.07,0.689-0.21C1217.523,22.971,1217.674,22.747,1217.785,22.44z
		 M1215.376,21.263h2.417c-0.032-0.361-0.125-0.633-0.277-0.813c-0.233-0.281-0.536-0.42-0.909-0.42
		c-0.337,0-0.62,0.111-0.849,0.335S1215.401,20.888,1215.376,21.263z"/>
	<path id="XMLID_16_" fill="#FFFFFF" d="M1219.456,23.823v-4.295h0.661v0.651c0.168-0.304,0.324-0.506,0.467-0.603
		c0.143-0.097,0.3-0.145,0.471-0.145c0.247,0,0.499,0.077,0.754,0.234l-0.252,0.675c-0.18-0.105-0.359-0.158-0.539-0.158
		c-0.16,0-0.304,0.048-0.432,0.144c-0.128,0.095-0.219,0.228-0.273,0.398c-0.081,0.259-0.122,0.542-0.122,0.85v2.248H1219.456z"/>
	<path id="XMLID_17_" fill="#FFFFFF" d="M1222.248,18.731v-0.837h0.733v0.837H1222.248z M1222.248,23.823v-4.295h0.733v4.295
		H1222.248z"/>
	<path id="XMLID_18_" fill="#FFFFFF" d="M1227.062,22.44l0.758,0.093c-0.12,0.44-0.342,0.781-0.665,1.023
		c-0.323,0.243-0.736,0.364-1.239,0.364c-0.634,0-1.135-0.193-1.506-0.58c-0.371-0.386-0.556-0.93-0.556-1.627
		c0-0.723,0.187-1.284,0.562-1.683c0.375-0.399,0.862-0.599,1.459-0.599c0.579,0,1.051,0.196,1.418,0.586
		c0.367,0.391,0.55,0.942,0.55,1.651c0,0.043-0.002,0.108-0.005,0.194h-3.227c0.027,0.472,0.161,0.833,0.403,1.084
		c0.242,0.251,0.544,0.376,0.905,0.376c0.27,0,0.499-0.07,0.689-0.21C1226.799,22.971,1226.95,22.747,1227.062,22.44z
		 M1224.653,21.263h2.417c-0.032-0.361-0.125-0.633-0.277-0.813c-0.233-0.281-0.536-0.42-0.909-0.42
		c-0.337,0-0.62,0.111-0.849,0.335C1224.805,20.589,1224.678,20.888,1224.653,21.263z"/>
	<path id="XMLID_19_" fill="#FFFFFF" d="M1228.448,22.541l0.725-0.112c0.041,0.288,0.154,0.509,0.341,0.663
		c0.185,0.154,0.446,0.231,0.78,0.231c0.338,0,0.588-0.068,0.751-0.204c0.163-0.136,0.244-0.296,0.244-0.479
		c0-0.165-0.072-0.295-0.216-0.388c-0.1-0.065-0.35-0.147-0.75-0.247c-0.538-0.135-0.912-0.251-1.119-0.35
		c-0.208-0.099-0.366-0.234-0.473-0.409c-0.107-0.173-0.161-0.366-0.161-0.576c0-0.191,0.045-0.368,0.133-0.532
		c0.088-0.163,0.209-0.298,0.36-0.406c0.114-0.084,0.27-0.155,0.468-0.212c0.196-0.058,0.408-0.087,0.634-0.087
		c0.34,0,0.637,0.048,0.894,0.145c0.257,0.097,0.446,0.229,0.569,0.394c0.122,0.166,0.206,0.388,0.253,0.666l-0.718,0.097
		c-0.033-0.221-0.127-0.393-0.283-0.517c-0.157-0.124-0.378-0.186-0.663-0.186c-0.337,0-0.577,0.055-0.721,0.166
		c-0.144,0.11-0.216,0.24-0.216,0.388c0,0.094,0.029,0.179,0.09,0.255c0.06,0.078,0.153,0.142,0.281,0.194
		c0.073,0.027,0.289,0.089,0.648,0.186c0.518,0.138,0.881,0.25,1.086,0.338c0.205,0.087,0.366,0.215,0.483,0.382
		c0.117,0.168,0.176,0.375,0.176,0.623c0,0.243-0.072,0.472-0.215,0.686c-0.143,0.214-0.349,0.381-0.617,0.498
		c-0.269,0.117-0.574,0.175-0.913,0.175c-0.563,0-0.992-0.115-1.286-0.348C1228.717,23.341,1228.53,22.997,1228.448,22.541z"/>
</g>
<g id="XMLID_721_">
	<path id="XMLID_40_" fill="#425D7B" d="M107.165,123.225V38.067c0-5.868,2.333-11.971,6.4-16.745
		c4.245-4.982,9.667-7.726,15.268-7.726h898.528c0.025,0,0.27-0.005,0.721-0.005c3.872,0,23.903,0.35,37.974,7.261
		c11.408,5.604,34.505,11.592,65.11,11.592h97.876c11.947,0,21.668,9.643,21.668,21.495v69.286H107.165z"/>
	<path id="XMLID_37_" fill="#231815" d="M1028.082,12.592v2h0.001c3.833,0,23.659,0.345,37.531,7.159
		c11.51,5.653,34.775,11.694,65.552,11.694h97.876c11.396,0,20.668,9.194,20.668,20.495v68.285H108.165V38.067
		c0-10.854,9.028-23.471,20.668-23.471l898.567,0c0.011,0,0.249-0.004,0.681-0.004L1028.082,12.592 M1028.081,12.592
		c-0.468,0-0.719,0.005-0.719,0.005H128.833c-12.519,0-22.668,13.048-22.668,25.471v86.157H1251.71V53.939
		c0-12.423-10.149-22.495-22.668-22.495h-97.876c-30.332,0-53.385-5.946-64.671-11.489
		C1052.245,12.955,1032.112,12.592,1028.081,12.592L1028.081,12.592z"/>
</g>
<path id="XMLID_720_" fill="none" stroke="#37536F" stroke-miterlimit="10" d="M125.659,0.5H9.001C4.306,0.5,0.5,4.277,0.5,8.936
	v106.853c0,4.659,3.806,8.436,8.501,8.436h86.42c0-13.928,0-67.659,0-92.366C95.421,0.5,125.659,0.5,125.659,0.5z"/>
<rect id="XMLID_719_" x="108.428" y="116.095" fill="#2E4A65" width="1141.019" height="8.13"/>
<g id="XMLID_21_">
	<linearGradient id="XMLID_63_" gradientUnits="userSpaceOnUse" x1="32.1174" y1="56.3324" x2="47.2154" y2="56.3324">
		<stop  offset="0" style="stop-color:#000000"/>
		<stop  offset="1" style="stop-color:#EBEBEB"/>
	</linearGradient>
	<linearGradient id="XMLID_64_" gradientUnits="userSpaceOnUse" x1="31.5436" y1="56.3324" x2="47.7891" y2="56.3324">
		<stop  offset="0" style="stop-color:#000000"/>
		<stop  offset="1" style="stop-color:#EBEBEB"/>
	</linearGradient>
	<path id="XMLID_718_" fill="url(#XMLID_63_)" stroke="url(#XMLID_64_)" stroke-width="1.1475" stroke-miterlimit="10" d="
		M47.215,56.333c0,2.422-3.379,4.385-7.549,4.385c-4.169,0-7.549-1.964-7.549-4.385c0-2.427,3.379-4.386,7.549-4.386
		C43.836,51.946,47.215,53.906,47.215,56.333z"/>
	<linearGradient id="XMLID_65_" gradientUnits="userSpaceOnUse" x1="32.7421" y1="56.3324" x2="46.5906" y2="56.3324">
		<stop  offset="0" style="stop-color:#4D4D4D"/>
		<stop  offset="1" style="stop-color:#333333"/>
	</linearGradient>
	<path id="XMLID_717_" fill="url(#XMLID_65_)" stroke="#231815" stroke-width="1.0525" stroke-miterlimit="10" d="M46.591,56.333
		c0,2.221-3.099,4.022-6.925,4.022c-3.824,0-6.924-1.801-6.924-4.022c0-2.226,3.1-4.023,6.924-4.023
		C43.491,52.31,46.591,54.107,46.591,56.333z"/>
</g>
<g id="XMLID_22_">
	<linearGradient id="XMLID_66_" gradientUnits="userSpaceOnUse" x1="54.1086" y1="56.3324" x2="69.2066" y2="56.3324">
		<stop  offset="0" style="stop-color:#000000"/>
		<stop  offset="1" style="stop-color:#EBEBEB"/>
	</linearGradient>
	<linearGradient id="XMLID_67_" gradientUnits="userSpaceOnUse" x1="53.5349" y1="56.3324" x2="69.7804" y2="56.3324">
		<stop  offset="0" style="stop-color:#000000"/>
		<stop  offset="1" style="stop-color:#EBEBEB"/>
	</linearGradient>
	<path id="XMLID_716_" fill="url(#XMLID_66_)" stroke="url(#XMLID_67_)" stroke-width="1.1475" stroke-miterlimit="10" d="
		M69.207,56.333c0,2.422-3.379,4.385-7.549,4.385c-4.169,0-7.549-1.964-7.549-4.385c0-2.427,3.379-4.386,7.549-4.386
		C65.828,51.946,69.207,53.906,69.207,56.333z"/>
	<linearGradient id="XMLID_68_" gradientUnits="userSpaceOnUse" x1="54.7334" y1="56.3324" x2="68.5819" y2="56.3324">
		<stop  offset="0" style="stop-color:#4D4D4D"/>
		<stop  offset="1" style="stop-color:#333333"/>
	</linearGradient>
	<path id="XMLID_715_" fill="url(#XMLID_68_)" stroke="#231815" stroke-width="1.0525" stroke-miterlimit="10" d="M68.582,56.333
		c0,2.221-3.099,4.022-6.925,4.022c-3.824,0-6.924-1.801-6.924-4.022c0-2.226,3.1-4.023,6.924-4.023
		C65.483,52.31,68.582,54.107,68.582,56.333z"/>
</g>
<g id="XMLID_23_">
	<linearGradient id="XMLID_69_" gradientUnits="userSpaceOnUse" x1="10.1261" y1="76.916" x2="25.2241" y2="76.916">
		<stop  offset="0" style="stop-color:#000000"/>
		<stop  offset="1" style="stop-color:#EBEBEB"/>
	</linearGradient>
	<linearGradient id="XMLID_70_" gradientUnits="userSpaceOnUse" x1="9.5523" y1="76.916" x2="25.7978" y2="76.916">
		<stop  offset="0" style="stop-color:#000000"/>
		<stop  offset="1" style="stop-color:#EBEBEB"/>
	</linearGradient>
	<path id="XMLID_714_" fill="url(#XMLID_69_)" stroke="url(#XMLID_70_)" stroke-width="1.1475" stroke-miterlimit="10" d="
		M25.224,76.916c0,2.422-3.379,4.385-7.549,4.385c-4.169,0-7.549-1.964-7.549-4.385c0-2.427,3.379-4.386,7.549-4.386
		C21.845,72.53,25.224,74.49,25.224,76.916z"/>
	<linearGradient id="XMLID_71_" gradientUnits="userSpaceOnUse" x1="10.7508" y1="76.916" x2="24.5993" y2="76.916">
		<stop  offset="0" style="stop-color:#4D4D4D"/>
		<stop  offset="1" style="stop-color:#333333"/>
	</linearGradient>
	<path id="XMLID_713_" fill="url(#XMLID_71_)" stroke="#231815" stroke-width="1.0525" stroke-miterlimit="10" d="M24.599,76.916
		c0,2.221-3.099,4.022-6.925,4.022c-3.824,0-6.924-1.801-6.924-4.022c0-2.226,3.1-4.023,6.924-4.023
		C21.5,72.893,24.599,74.69,24.599,76.916z"/>
</g>
<g id="XMLID_24_">
	<linearGradient id="XMLID_72_" gradientUnits="userSpaceOnUse" x1="32.1174" y1="76.916" x2="47.2154" y2="76.916">
		<stop  offset="0" style="stop-color:#000000"/>
		<stop  offset="1" style="stop-color:#EBEBEB"/>
	</linearGradient>
	<linearGradient id="XMLID_73_" gradientUnits="userSpaceOnUse" x1="31.5436" y1="76.916" x2="47.7891" y2="76.916">
		<stop  offset="0" style="stop-color:#000000"/>
		<stop  offset="1" style="stop-color:#EBEBEB"/>
	</linearGradient>
	<path id="XMLID_712_" fill="url(#XMLID_72_)" stroke="url(#XMLID_73_)" stroke-width="1.1475" stroke-miterlimit="10" d="
		M47.215,76.916c0,2.422-3.379,4.385-7.549,4.385c-4.169,0-7.549-1.964-7.549-4.385c0-2.427,3.379-4.386,7.549-4.386
		C43.836,72.53,47.215,74.49,47.215,76.916z"/>
	<linearGradient id="XMLID_74_" gradientUnits="userSpaceOnUse" x1="32.7421" y1="76.916" x2="46.5906" y2="76.916">
		<stop  offset="0" style="stop-color:#4D4D4D"/>
		<stop  offset="1" style="stop-color:#333333"/>
	</linearGradient>
	<path id="XMLID_711_" fill="url(#XMLID_74_)" stroke="#231815" stroke-width="1.0525" stroke-miterlimit="10" d="M46.591,76.916
		c0,2.221-3.099,4.022-6.925,4.022c-3.824,0-6.924-1.801-6.924-4.022c0-2.226,3.1-4.023,6.924-4.023
		C43.491,72.893,46.591,74.69,46.591,76.916z"/>
</g>
<g id="XMLID_25_">
	<linearGradient id="XMLID_75_" gradientUnits="userSpaceOnUse" x1="54.7334" y1="76.916" x2="69.8314" y2="76.916">
		<stop  offset="0" style="stop-color:#000000"/>
		<stop  offset="1" style="stop-color:#EBEBEB"/>
	</linearGradient>
	<linearGradient id="XMLID_76_" gradientUnits="userSpaceOnUse" x1="54.1596" y1="76.916" x2="70.4051" y2="76.916">
		<stop  offset="0" style="stop-color:#000000"/>
		<stop  offset="1" style="stop-color:#EBEBEB"/>
	</linearGradient>
	<path id="XMLID_710_" fill="url(#XMLID_75_)" stroke="url(#XMLID_76_)" stroke-width="1.1475" stroke-miterlimit="10" d="
		M69.831,76.916c0,2.422-3.379,4.385-7.549,4.385c-4.169,0-7.549-1.964-7.549-4.385c0-2.427,3.379-4.386,7.549-4.386
		C66.452,72.53,69.831,74.49,69.831,76.916z"/>
	<linearGradient id="XMLID_77_" gradientUnits="userSpaceOnUse" x1="55.3581" y1="76.916" x2="69.2066" y2="76.916">
		<stop  offset="0" style="stop-color:#4D4D4D"/>
		<stop  offset="1" style="stop-color:#333333"/>
	</linearGradient>
	<path id="XMLID_709_" fill="url(#XMLID_77_)" stroke="#231815" stroke-width="1.0525" stroke-miterlimit="10" d="M69.207,76.916
		c0,2.221-3.099,4.022-6.925,4.022c-3.824,0-6.924-1.801-6.924-4.022c0-2.226,3.1-4.023,6.924-4.023
		C66.107,72.893,69.207,74.69,69.207,76.916z"/>
</g>
<g id="XMLID_26_">
	<linearGradient id="XMLID_78_" gradientUnits="userSpaceOnUse" x1="76.7247" y1="76.916" x2="91.8227" y2="76.916">
		<stop  offset="0" style="stop-color:#000000"/>
		<stop  offset="1" style="stop-color:#EBEBEB"/>
	</linearGradient>
	<linearGradient id="XMLID_79_" gradientUnits="userSpaceOnUse" x1="76.1509" y1="76.916" x2="92.3964" y2="76.916">
		<stop  offset="0" style="stop-color:#000000"/>
		<stop  offset="1" style="stop-color:#EBEBEB"/>
	</linearGradient>
	<path id="XMLID_708_" fill="url(#XMLID_78_)" stroke="url(#XMLID_79_)" stroke-width="1.1475" stroke-miterlimit="10" d="
		M91.823,76.916c0,2.422-3.379,4.385-7.549,4.385c-4.169,0-7.549-1.964-7.549-4.385c0-2.427,3.379-4.386,7.549-4.386
		C88.444,72.53,91.823,74.49,91.823,76.916z"/>
	<linearGradient id="XMLID_80_" gradientUnits="userSpaceOnUse" x1="77.3494" y1="76.916" x2="91.1979" y2="76.916">
		<stop  offset="0" style="stop-color:#4D4D4D"/>
		<stop  offset="1" style="stop-color:#333333"/>
	</linearGradient>
	<path id="XMLID_707_" fill="url(#XMLID_80_)" stroke="#231815" stroke-width="1.0525" stroke-miterlimit="10" d="M91.198,76.916
		c0,2.221-3.099,4.022-6.925,4.022c-3.824,0-6.924-1.801-6.924-4.022c0-2.226,3.1-4.023,6.924-4.023
		C88.099,72.893,91.198,74.69,91.198,76.916z"/>
</g>
<g id="XMLID_27_">
	<path id="XMLID_28_" fill="#FFFFFF" d="M14.324,57.129l0.531-0.056c0.028,0.284,0.093,0.505,0.193,0.663
		c0.101,0.158,0.244,0.286,0.431,0.382c0.186,0.096,0.397,0.144,0.631,0.144c0.335,0,0.596-0.081,0.781-0.244
		c0.185-0.163,0.278-0.374,0.278-0.634c0-0.151-0.034-0.285-0.101-0.398c-0.067-0.113-0.169-0.206-0.305-0.279
		c-0.136-0.073-0.429-0.175-0.88-0.307c-0.401-0.118-0.687-0.237-0.857-0.357c-0.17-0.12-0.303-0.271-0.397-0.455
		c-0.095-0.184-0.142-0.392-0.142-0.624c0-0.419,0.136-0.759,0.407-1.024c0.272-0.264,0.638-0.397,1.098-0.397
		c0.317,0,0.594,0.063,0.831,0.187c0.237,0.124,0.421,0.302,0.552,0.534c0.131,0.232,0.201,0.505,0.211,0.82l-0.542,0.049
		c-0.028-0.335-0.129-0.584-0.303-0.746c-0.174-0.162-0.418-0.242-0.732-0.242c-0.319,0-0.562,0.071-0.73,0.213
		c-0.167,0.141-0.251,0.324-0.251,0.549c0,0.208,0.061,0.371,0.184,0.485c0.123,0.114,0.399,0.231,0.829,0.349
		c0.42,0.115,0.715,0.215,0.885,0.3c0.26,0.132,0.456,0.304,0.589,0.519c0.132,0.214,0.199,0.47,0.199,0.767
		c0,0.295-0.07,0.564-0.209,0.806c-0.14,0.242-0.329,0.426-0.569,0.553c-0.24,0.127-0.529,0.189-0.866,0.189
		c-0.527,0-0.946-0.157-1.259-0.471C14.498,58.091,14.336,57.666,14.324,57.129z"/>
	<path id="XMLID_29_" fill="#FFFFFF" d="M19.681,58.789v-2.184l-1.64-2.97h0.689l0.836,1.556c0.165,0.306,0.311,0.598,0.436,0.872
		c0.125-0.269,0.281-0.573,0.465-0.911l0.827-1.517h0.651l-1.7,2.97v2.184H19.681z"/>
	<path id="XMLID_30_" fill="#FFFFFF" d="M22.26,57.129l0.531-0.056c0.028,0.284,0.093,0.505,0.193,0.663
		c0.101,0.158,0.244,0.286,0.43,0.382c0.187,0.096,0.397,0.144,0.631,0.144c0.335,0,0.596-0.081,0.781-0.244
		c0.186-0.163,0.278-0.374,0.278-0.634c0-0.151-0.034-0.285-0.101-0.398c-0.067-0.113-0.169-0.206-0.305-0.279
		c-0.136-0.073-0.429-0.175-0.881-0.307c-0.401-0.118-0.687-0.237-0.857-0.357c-0.17-0.12-0.303-0.271-0.397-0.455
		c-0.095-0.184-0.142-0.392-0.142-0.624c0-0.419,0.136-0.759,0.407-1.024c0.272-0.264,0.638-0.397,1.098-0.397
		c0.317,0,0.594,0.063,0.831,0.187c0.237,0.124,0.421,0.302,0.553,0.534c0.131,0.232,0.201,0.505,0.211,0.82l-0.542,0.049
		c-0.028-0.335-0.129-0.584-0.303-0.746c-0.174-0.162-0.418-0.242-0.732-0.242c-0.319,0-0.562,0.071-0.73,0.213
		c-0.167,0.141-0.251,0.324-0.251,0.549c0,0.208,0.062,0.371,0.185,0.485c0.123,0.114,0.399,0.231,0.829,0.349
		c0.42,0.115,0.715,0.215,0.885,0.3c0.26,0.132,0.456,0.304,0.589,0.519c0.132,0.214,0.199,0.47,0.199,0.767
		c0,0.295-0.07,0.564-0.209,0.806c-0.14,0.242-0.329,0.426-0.569,0.553c-0.24,0.127-0.529,0.189-0.866,0.189
		c-0.527,0-0.946-0.157-1.259-0.471C22.434,58.091,22.272,57.666,22.26,57.129z"/>
	<path id="XMLID_31_" fill="#FFFFFF" d="M27.51,58.789v-4.545h-1.403v-0.608h3.376v0.608h-1.41v4.545H27.51z"/>
	<path id="XMLID_32_" fill="#FFFFFF" d="M73.852,58.912v-5.154h1.888c0.394,0,0.686,0.047,0.873,0.143
		c0.188,0.097,0.342,0.256,0.463,0.481c0.12,0.223,0.181,0.482,0.181,0.777c0,0.389-0.102,0.705-0.306,0.945
		c-0.205,0.242-0.501,0.395-0.891,0.461c0.159,0.094,0.279,0.19,0.362,0.286c0.167,0.197,0.315,0.417,0.443,0.658l0.744,1.403
		h-0.708l-0.568-1.071c-0.22-0.419-0.386-0.701-0.498-0.848c-0.112-0.145-0.221-0.243-0.326-0.294s-0.252-0.076-0.44-0.076h-0.652
		v2.288H73.852z M74.415,56.032h1.212c0.265,0,0.465-0.032,0.602-0.095c0.137-0.064,0.246-0.163,0.326-0.299
		c0.08-0.136,0.12-0.294,0.12-0.475c0-0.261-0.077-0.464-0.23-0.613c-0.154-0.149-0.382-0.223-0.684-0.223h-1.347V56.032z"/>
	<path id="XMLID_33_" fill="#FFFFFF" d="M78.145,58.912v-5.154h1.605c0.378,0,0.657,0.033,0.836,0.098
		c0.246,0.089,0.442,0.255,0.588,0.496c0.146,0.241,0.22,0.538,0.22,0.889c0,0.464-0.119,0.843-0.358,1.136
		c-0.239,0.293-0.651,0.439-1.236,0.439h-1.091v2.095H78.145z M78.709,56.208h1.102c0.347,0,0.601-0.078,0.761-0.234
		c0.161-0.156,0.241-0.391,0.241-0.705c0-0.203-0.039-0.378-0.119-0.523c-0.079-0.145-0.175-0.246-0.287-0.299
		c-0.112-0.054-0.315-0.08-0.608-0.08h-1.091V56.208z"/>
	<path id="XMLID_34_" fill="#FFFFFF" d="M81.926,57.252l0.531-0.056c0.028,0.284,0.093,0.505,0.193,0.663
		c0.101,0.158,0.244,0.286,0.431,0.382c0.186,0.096,0.397,0.144,0.631,0.144c0.335,0,0.596-0.081,0.781-0.244
		c0.185-0.163,0.278-0.374,0.278-0.633c0-0.151-0.034-0.285-0.101-0.398c-0.067-0.113-0.169-0.206-0.305-0.279
		c-0.136-0.073-0.429-0.175-0.88-0.307c-0.401-0.118-0.687-0.237-0.857-0.357c-0.17-0.12-0.303-0.271-0.397-0.455
		c-0.095-0.184-0.142-0.392-0.142-0.624c0-0.419,0.136-0.759,0.407-1.024c0.272-0.264,0.638-0.397,1.098-0.397
		c0.317,0,0.594,0.063,0.831,0.187c0.237,0.124,0.421,0.302,0.552,0.534c0.131,0.232,0.201,0.505,0.211,0.819l-0.542,0.049
		c-0.028-0.335-0.129-0.584-0.303-0.746c-0.174-0.162-0.418-0.242-0.732-0.242c-0.319,0-0.562,0.071-0.73,0.213
		c-0.167,0.141-0.251,0.324-0.251,0.549c0,0.208,0.061,0.371,0.184,0.485c0.123,0.114,0.399,0.231,0.829,0.349
		c0.42,0.115,0.715,0.215,0.885,0.3c0.26,0.132,0.456,0.304,0.589,0.519c0.132,0.214,0.199,0.47,0.199,0.767
		c0,0.295-0.07,0.564-0.209,0.806c-0.14,0.242-0.329,0.426-0.569,0.553c-0.24,0.127-0.529,0.189-0.866,0.189
		c-0.527,0-0.946-0.157-1.259-0.471C82.1,58.214,81.938,57.789,81.926,57.252z"/>
	<path id="XMLID_35_" fill="#FFFFFF" d="M10.698,88.774l0.531-0.056c0.028,0.284,0.093,0.505,0.193,0.663
		c0.101,0.158,0.244,0.286,0.43,0.382c0.187,0.096,0.397,0.144,0.631,0.144c0.335,0,0.596-0.081,0.781-0.244
		c0.186-0.163,0.278-0.374,0.278-0.634c0-0.151-0.034-0.285-0.101-0.398c-0.067-0.113-0.169-0.206-0.305-0.279
		c-0.136-0.073-0.429-0.175-0.881-0.307c-0.401-0.118-0.687-0.237-0.857-0.356c-0.17-0.12-0.303-0.271-0.397-0.455
		c-0.095-0.184-0.142-0.392-0.142-0.624c0-0.419,0.136-0.759,0.407-1.024c0.272-0.264,0.638-0.397,1.098-0.397
		c0.317,0,0.594,0.063,0.831,0.187c0.237,0.124,0.421,0.302,0.552,0.534c0.131,0.232,0.201,0.505,0.211,0.82l-0.542,0.049
		c-0.028-0.335-0.129-0.584-0.303-0.746c-0.174-0.162-0.418-0.242-0.732-0.242c-0.319,0-0.562,0.071-0.73,0.213
		c-0.167,0.141-0.251,0.324-0.251,0.549c0,0.208,0.062,0.371,0.185,0.485c0.123,0.114,0.399,0.231,0.829,0.349
		c0.42,0.115,0.715,0.215,0.885,0.3c0.26,0.132,0.456,0.304,0.589,0.519c0.132,0.214,0.199,0.47,0.199,0.767
		c0,0.295-0.07,0.564-0.209,0.806c-0.14,0.242-0.329,0.426-0.569,0.553c-0.24,0.126-0.529,0.19-0.866,0.19
		c-0.527,0-0.946-0.158-1.259-0.472C10.871,89.736,10.709,89.31,10.698,88.774z"/>
	<path id="XMLID_36_" fill="#FFFFFF" d="M15.948,90.433v-4.545h-1.403v-0.608h3.376v0.608h-1.41v4.545H15.948z"/>
	<path id="XMLID_41_" fill="#FFFFFF" d="M17.588,90.433l1.643-5.154h0.602l1.744,5.154h-0.645l-0.495-1.562h-1.792l-0.463,1.562
		H17.588z M18.81,88.316h1.451l-0.442-1.427c-0.137-0.438-0.238-0.794-0.301-1.069c-0.055,0.331-0.133,0.659-0.233,0.984
		L18.81,88.316z"/>
	<path id="XMLID_42_" fill="#FFFFFF" d="M22.679,90.433v-4.545h-1.403v-0.608h3.376v0.608h-1.41v4.545H22.679z"/>
	<path id="XMLID_43_" fill="#FFFFFF" d="M55.551,90.433v-5.155h1.47c0.364,0,0.64,0.032,0.829,0.095
		c0.248,0.082,0.463,0.232,0.645,0.45c0.182,0.218,0.324,0.493,0.425,0.824c0.101,0.331,0.153,0.725,0.153,1.18
		c0,0.583-0.086,1.078-0.259,1.485c-0.173,0.407-0.394,0.695-0.664,0.865c-0.27,0.17-0.624,0.255-1.061,0.255H55.551z
		 M56.114,89.825h0.907c0.366,0,0.643-0.059,0.833-0.177c0.189-0.118,0.334-0.309,0.435-0.572c0.135-0.349,0.202-0.767,0.202-1.255
		c0-0.522-0.071-0.933-0.214-1.232c-0.143-0.298-0.327-0.498-0.551-0.599c-0.151-0.069-0.391-0.103-0.719-0.103h-0.893V89.825z"/>
	<path id="XMLID_44_" fill="#FFFFFF" d="M59.855,90.433v-5.155h1.605c0.378,0,0.657,0.033,0.836,0.099
		c0.246,0.089,0.442,0.255,0.588,0.496c0.146,0.241,0.22,0.538,0.22,0.889c0,0.464-0.119,0.843-0.358,1.135
		c-0.239,0.294-0.651,0.44-1.236,0.44h-1.091v2.095H59.855z M60.418,87.729h1.102c0.347,0,0.601-0.078,0.761-0.234
		c0.161-0.156,0.241-0.391,0.241-0.705c0-0.203-0.04-0.379-0.119-0.524c-0.079-0.145-0.175-0.244-0.287-0.298
		c-0.112-0.054-0.315-0.081-0.608-0.081h-1.091V87.729z"/>
	<path id="XMLID_45_" fill="#FFFFFF" d="M63.791,90.433v-5.155h0.563v4.546h2.097v0.608H63.791z"/>
	<path id="XMLID_46_" fill="#FFFFFF" d="M66.703,90.433l1.65-2.687l-1.456-2.467h0.67l0.778,1.32
		c0.16,0.271,0.272,0.483,0.338,0.636c0.091-0.184,0.204-0.38,0.338-0.587l0.861-1.37h0.606l-1.492,2.426l1.609,2.729h-0.695
		l-1.075-1.838c-0.06-0.103-0.121-0.218-0.182-0.346c-0.097,0.188-0.166,0.317-0.208,0.386l-1.068,1.798H66.703z"/>
	<path id="XMLID_47_" fill="#FFFFFF" d="M76.472,88.776l0.531-0.056c0.028,0.284,0.093,0.505,0.193,0.663
		c0.1,0.158,0.244,0.286,0.43,0.382c0.186,0.096,0.397,0.144,0.631,0.144c0.335,0,0.596-0.081,0.781-0.244
		c0.186-0.163,0.278-0.374,0.278-0.634c0-0.152-0.034-0.285-0.101-0.398c-0.067-0.113-0.169-0.206-0.305-0.279
		c-0.136-0.073-0.429-0.174-0.881-0.307c-0.401-0.118-0.687-0.237-0.857-0.357c-0.17-0.12-0.303-0.271-0.397-0.455
		c-0.095-0.184-0.142-0.392-0.142-0.625c0-0.417,0.136-0.758,0.407-1.023c0.272-0.264,0.638-0.397,1.098-0.397
		c0.317,0,0.593,0.062,0.831,0.186c0.237,0.125,0.421,0.303,0.553,0.535c0.131,0.233,0.201,0.506,0.211,0.82l-0.542,0.049
		c-0.028-0.335-0.129-0.584-0.303-0.746c-0.174-0.162-0.418-0.242-0.732-0.242c-0.319,0-0.562,0.071-0.73,0.212
		c-0.167,0.142-0.251,0.326-0.251,0.55c0,0.209,0.061,0.37,0.185,0.485c0.123,0.115,0.399,0.232,0.829,0.349
		c0.42,0.115,0.715,0.216,0.885,0.3c0.26,0.132,0.456,0.305,0.589,0.519c0.132,0.214,0.199,0.47,0.199,0.767
		c0,0.296-0.07,0.564-0.209,0.806c-0.14,0.242-0.329,0.426-0.569,0.553c-0.24,0.126-0.529,0.19-0.866,0.19
		c-0.527,0-0.946-0.157-1.259-0.472C76.646,89.738,76.484,89.312,76.472,88.776z"/>
	<path id="XMLID_48_" fill="#FFFFFF" d="M80.628,90.435V85.28h1.605c0.378,0,0.657,0.033,0.836,0.099
		c0.246,0.089,0.442,0.255,0.588,0.496c0.146,0.241,0.22,0.538,0.22,0.889c0,0.464-0.119,0.843-0.358,1.135
		c-0.239,0.294-0.651,0.44-1.236,0.44h-1.091v2.095H80.628z M81.191,87.731h1.102c0.347,0,0.601-0.077,0.761-0.233
		c0.161-0.156,0.241-0.391,0.241-0.705c0-0.203-0.039-0.379-0.119-0.524s-0.175-0.244-0.287-0.298
		c-0.112-0.054-0.315-0.081-0.608-0.081h-1.091V87.731z"/>
	<path id="XMLID_49_" fill="#FFFFFF" d="M84.61,90.435V85.28h3.079v0.608h-2.516v1.575h2.356v0.608h-2.356v1.754h2.615v0.608H84.61z
		"/>
	<path id="XMLID_50_" fill="#FFFFFF" d="M88.553,90.435V85.28h1.47c0.364,0,0.64,0.032,0.829,0.095
		c0.248,0.082,0.463,0.233,0.645,0.45c0.182,0.218,0.324,0.493,0.425,0.824c0.102,0.331,0.153,0.725,0.153,1.18
		c0,0.583-0.086,1.078-0.259,1.485c-0.173,0.407-0.394,0.695-0.664,0.865c-0.27,0.17-0.624,0.255-1.061,0.255H88.553z
		 M89.117,89.827h0.907c0.366,0,0.643-0.059,0.833-0.177c0.189-0.118,0.334-0.309,0.435-0.572c0.135-0.349,0.202-0.767,0.202-1.255
		c0-0.522-0.071-0.933-0.214-1.232c-0.143-0.298-0.326-0.498-0.551-0.599c-0.151-0.069-0.391-0.103-0.719-0.103h-0.893V89.827z"/>
</g>
<g id="XMLID_51_">
	<g id="XMLID_818_">
		<path id="XMLID_827_" fill="#FFFFFF" d="M45.157,120.069v-5.403h0.889l1.059,3.825l0.212,0.797
			c0.052-0.195,0.131-0.485,0.238-0.863l1.07-3.759h0.794v5.403h-0.568v-4.518l-1.3,4.518h-0.531l-1.293-4.595v4.595H45.157z"/>
		<path id="XMLID_824_" fill="#FFFFFF" d="M50.202,117.436c0-0.92,0.205-1.629,0.613-2.121c0.408-0.498,0.917-0.744,1.525-0.744
			c0.394,0,0.752,0.112,1.076,0.33c0.325,0.222,0.582,0.544,0.771,0.965c0.189,0.42,0.284,0.923,0.284,1.504
			c0,0.8-0.184,1.452-0.549,1.958c-0.405,0.554-0.933,0.83-1.585,0.83c-0.659,0-1.188-0.282-1.589-0.856
			C50.385,118.79,50.202,118.168,50.202,117.436z M50.811,117.447c0,0.666,0.148,1.182,0.443,1.552
			c0.296,0.366,0.657,0.552,1.079,0.552c0.432,0,0.796-0.191,1.089-0.559c0.294-0.371,0.44-0.919,0.44-1.635
			c0-0.47-0.077-0.882-0.227-1.249c-0.116-0.279-0.292-0.504-0.525-0.673c-0.234-0.168-0.49-0.251-0.766-0.251
			c-0.446,0-0.812,0.184-1.101,0.551C50.956,116.104,50.811,116.675,50.811,117.447z"/>
		<path id="XMLID_821_" fill="#FFFFFF" d="M55.206,120.069v-5.403h1.54c0.381,0,0.67,0.034,0.868,0.1
			c0.261,0.087,0.485,0.245,0.677,0.471c0.189,0.23,0.339,0.515,0.445,0.863c0.107,0.348,0.16,0.761,0.16,1.237
			c0,0.612-0.091,1.132-0.27,1.557c-0.181,0.427-0.413,0.728-0.697,0.905c-0.283,0.178-0.654,0.27-1.11,0.27H55.206z
			 M55.796,119.431h0.95c0.384,0,0.675-0.063,0.872-0.186c0.198-0.123,0.351-0.326,0.457-0.598c0.141-0.367,0.212-0.807,0.212-1.316
			c0-0.548-0.075-0.979-0.225-1.291c-0.149-0.312-0.343-0.521-0.577-0.627c-0.158-0.074-0.409-0.11-0.754-0.11h-0.935V119.431z"/>
		<path id="XMLID_819_" fill="#FFFFFF" d="M59.73,120.069v-5.403h3.227v0.636h-2.635v1.651h2.468v0.638h-2.468v1.839h2.739v0.638
			H59.73z"/>
	</g>
</g>
<g id="XMLID_56_">
	<linearGradient id="XMLID_81_" gradientUnits="userSpaceOnUse" x1="33.5538" y1="102.4134" x2="74.6635" y2="102.4134">
		<stop  offset="0" style="stop-color:#000000"/>
		<stop  offset="1" style="stop-color:#3F3B3A"/>
	</linearGradient>
	<linearGradient id="XMLID_82_" gradientUnits="userSpaceOnUse" x1="32.98" y1="102.4134" x2="75.2372" y2="102.4134">
		<stop  offset="0" style="stop-color:#000000"/>
		<stop  offset="1" style="stop-color:#3F3B3A"/>
	</linearGradient>
	<path id="XMLID_674_" fill="url(#XMLID_81_)" stroke="url(#XMLID_82_)" stroke-width="1.1475" stroke-miterlimit="10" d="
		M74.663,102.413c0,4.726-3.86,8.556-8.622,8.556H42.175c-4.761,0-8.622-3.83-8.622-8.556l0,0c0-4.726,3.86-8.556,8.622-8.556
		h23.867C70.803,93.858,74.663,97.688,74.663,102.413L74.663,102.413z"/>
	<g id="XMLID_673_">
		<linearGradient id="XMLID_83_" gradientUnits="userSpaceOnUse" x1="54.1086" y1="94.7934" x2="54.1086" y2="110.0334">
			<stop  offset="0" style="stop-color:#E6E6E6"/>
			<stop  offset="1" style="stop-color:#DEDEDE"/>
		</linearGradient>
		<path id="XMLID_58_" fill="url(#XMLID_83_)" d="M73.492,102.413c0,4.208-3.64,7.62-8.13,7.62H42.856c-4.49,0-8.13-3.412-8.13-7.62
			l0,0c0-4.208,3.64-7.62,8.13-7.62h22.506C69.851,94.793,73.492,98.205,73.492,102.413L73.492,102.413z"/>
		<linearGradient id="XMLID_84_" gradientUnits="userSpaceOnUse" x1="34.7257" y1="102.4134" x2="73.4915" y2="102.4134">
			<stop  offset="0" style="stop-color:#B0B0B0"/>
			<stop  offset="1" style="stop-color:#FAFAFA"/>
		</linearGradient>
		<path id="XMLID_59_" fill="url(#XMLID_84_)" d="M65.361,95.793c3.932,0,7.13,2.97,7.13,6.62s-3.199,6.62-7.13,6.62H42.856
			c-3.932,0-7.13-2.97-7.13-6.62s3.199-6.62,7.13-6.62H65.361 M65.361,94.793H42.856c-4.49,0-8.13,3.412-8.13,7.62
			s3.64,7.62,8.13,7.62h22.506c4.49,0,8.13-3.412,8.13-7.62S69.851,94.793,65.361,94.793L65.361,94.793z"/>
	</g>
	<linearGradient id="XMLID_85_" gradientUnits="userSpaceOnUse" x1="53.8899" y1="99.0926" x2="53.8899" y2="105.9823">
		<stop  offset="0" style="stop-color:#FFFFFF"/>
		<stop  offset="1" style="stop-color:#F7F7F7"/>
	</linearGradient>
	<path id="XMLID_672_" fill="url(#XMLID_85_)" d="M69.801,102.537c0,1.903-1.554,3.445-3.471,3.445H41.451
		c-1.917,0-3.471-1.542-3.471-3.445l0,0c0-1.903,1.555-3.445,3.471-3.445h24.879C68.247,99.093,69.801,100.635,69.801,102.537
		L69.801,102.537z"/>
	<linearGradient id="XMLID_86_" gradientUnits="userSpaceOnUse" x1="46.2672" y1="94.6705" x2="62.7934" y2="111.1968">
		<stop  offset="0" style="stop-color:#999999"/>
		<stop  offset="1" style="stop-color:#F7F7F7"/>
	</linearGradient>
	<path id="XMLID_671_" fill="url(#XMLID_86_)" d="M69.801,102.934c0,1.684-1.375,3.049-3.072,3.049H42.332
		c-1.697,0-3.072-1.365-3.072-3.049l0,0c0-1.684,1.375-3.049,3.072-3.049h24.397C68.425,99.885,69.801,101.25,69.801,102.934
		L69.801,102.934z"/>
</g>
<rect id="XMLID_670_" x="111.42" y="59.365" fill="#FFF57F" width="1015.154" height="51.035"/>
<rect id="XMLID_669_" x="117.829" y="64.147" fill="#C8C9CA" stroke="#231815" stroke-width="2" stroke-miterlimit="10" width="329.202" height="41.469"/>
<rect id="XMLID_468_" x="455.39" y="64.147" fill="#C8C9CA" stroke="#231815" stroke-width="2" stroke-miterlimit="10" width="329.203" height="41.469"/>
<rect id="XMLID_267_" x="793.36" y="64.147" fill="#C8C9CA" stroke="#231815" stroke-width="2" stroke-miterlimit="10" width="329.203" height="41.469"/>
<g id="XMLID_1047_">
	<path id="XMLID_1048_" fill="#FFFFFF" d="M34.817,85.278h0.843v2.744c0,0.426,0.01,0.704,0.032,0.833
		c0.037,0.224,0.125,0.396,0.267,0.518c0.141,0.122,0.326,0.184,0.556,0.184c0.195,0,0.355-0.044,0.478-0.13
		c0.123-0.087,0.207-0.206,0.253-0.359c0.045-0.153,0.068-0.482,0.068-0.987v-2.804h0.842v2.662c0,0.68-0.036,1.171-0.109,1.474
		c-0.073,0.303-0.238,0.547-0.494,0.736c-0.257,0.187-0.595,0.282-1.015,0.282c-0.437,0-0.777-0.078-1.022-0.234
		c-0.246-0.156-0.423-0.376-0.533-0.657c-0.111-0.283-0.165-0.803-0.165-1.562V85.278z"/>
	<path id="XMLID_1050_" fill="#FFFFFF" d="M39.99,90.345v-4.21h-1.243v-0.857h3.326v0.857h-1.24v4.21H39.99z"/>
	<path id="XMLID_1052_" fill="#FFFFFF" d="M42.644,90.345v-5.026h0.843v4.168h2.104v0.857H42.644z"/>
</g>
<rect id="XMLID_1054_" x="1134.761" y="69.034" fill="#FFF57F" width="37.648" height="37.425"/>
<g id="XMLID_1060_">
	<rect id="XMLID_1056_" x="1140.092" y="74.338" fill="#D4D3CE" width="26.987" height="26.817"/>
	<path id="XMLID_1057_" fill="#231815" d="M1166.079,75.338v24.817h-24.988V75.338H1166.079 M1168.079,73.338h-28.988v28.817h28.988
		V73.338L1168.079,73.338z"/>
</g>
<rect id="XMLID_1067_" x="1188.391" y="69.034" fill="#FFF57F" width="37.648" height="37.425"/>
<g id="XMLID_1073_">
	<rect id="XMLID_1069_" x="1193.721" y="74.338" fill="#D4D3CE" width="26.987" height="26.817"/>
	<path id="XMLID_1070_" fill="#231815" d="M1219.708,75.338v24.817h-24.988V75.338H1219.708 M1221.708,73.338h-28.988v28.817h28.988
		V73.338L1221.708,73.338z"/>
</g>
<g id="XMLID_1080_">
	<rect id="XMLID_1081_" x="17.534" y="22.021" fill="#FFFFFF" width="59.44" height="22.649"/>
	<g id="XMLID_1082_">
		<polygon id="XMLID_1085_" fill="#366B83" points="17.534,22.021 76.974,22.021 76.974,44.67 75.782,44.67 75.782,43.256 
			74.785,43.256 74.785,44.67 73.541,44.67 73.541,42.973 72.557,42.973 72.557,44.67 71.314,44.67 71.314,42.215 70.329,42.215 
			70.329,44.67 69.086,44.67 69.086,40.57 68.102,40.57 68.102,44.67 66.858,44.67 66.858,38.217 65.873,38.217 65.873,44.67 
			64.63,44.67 64.63,34.232 63.633,34.232 63.633,44.67 62.402,44.67 62.402,29.592 61.405,29.592 61.405,44.67 60.161,44.67 
			60.161,34.232 59.177,34.232 59.177,44.67 57.933,44.67 57.933,38.217 56.949,38.217 56.949,44.67 55.706,44.67 55.706,40.57 
			54.721,40.57 54.721,44.67 53.477,44.67 53.477,42.215 52.494,42.215 52.494,44.67 51.25,44.67 51.25,42.973 50.252,42.973 
			50.252,44.67 49.009,44.67 49.009,43.256 48.025,43.256 48.025,44.67 46.794,44.67 46.794,43.256 45.81,43.256 45.81,44.67 
			44.566,44.67 44.566,42.973 43.582,42.973 43.582,44.67 42.338,44.67 42.338,42.215 41.354,42.215 41.354,44.67 40.11,44.67 
			40.11,40.57 39.126,40.57 39.126,44.67 37.883,44.67 37.883,38.217 36.885,38.217 36.885,44.67 35.642,44.67 35.642,34.232 
			34.657,34.232 34.657,44.67 33.414,44.67 33.414,29.592 32.429,29.592 32.429,44.67 31.186,44.67 31.186,34.232 30.202,34.232 
			30.202,44.67 28.958,44.67 28.958,38.217 27.974,38.217 27.974,44.67 26.73,44.67 26.73,40.57 25.746,40.57 25.746,44.67 
			24.503,44.67 24.503,42.215 23.505,42.215 23.505,44.67 22.261,44.67 22.261,42.973 21.277,42.973 21.277,44.67 20.034,44.67 
			20.034,43.256 19.049,43.256 19.049,44.67 17.534,44.67 17.534,22.021 		"/>
		<path id="XMLID_1086_" fill="#FFFFFF" d="M21.005,15.415H19.49v-1.543c0-0.449-0.013-0.732-0.039-0.848
			c-0.039-0.116-0.104-0.168-0.207-0.168c-0.117,0-0.194,0.064-0.233,0.206c-0.026,0.128-0.039,0.423-0.039,0.873v4.139
			c0,0.437,0.013,0.72,0.039,0.849c0.038,0.128,0.103,0.193,0.22,0.193c0.116,0,0.181-0.065,0.207-0.193
			c0.039-0.129,0.052-0.45,0.052-0.939v-1.118h1.515v0.347c0,0.925-0.052,1.581-0.129,1.967c-0.09,0.385-0.272,0.721-0.557,1.015
			c-0.298,0.284-0.648,0.438-1.075,0.438c-0.44,0-0.803-0.129-1.088-0.373c-0.272-0.244-0.466-0.579-0.557-1.016
			c-0.091-0.436-0.143-1.092-0.143-1.966v-2.597c0-0.642,0.013-1.131,0.039-1.452c0.026-0.322,0.117-0.63,0.259-0.926
			c0.143-0.294,0.337-0.527,0.583-0.706c0.259-0.168,0.544-0.245,0.868-0.245c0.44,0,0.803,0.129,1.088,0.386
			c0.298,0.271,0.479,0.591,0.57,0.99c0.09,0.399,0.142,1.003,0.142,1.839V15.415L21.005,15.415z"/>
		<polygon id="XMLID_1087_" fill="#FFFFFF" points="24.334,13.987 24.334,20.633 22.948,20.633 22.948,13.987 24.334,13.987 		"/>
		<path id="XMLID_1088_" fill="#FFFFFF" d="M28.932,15.851H27.65v-0.489c0-0.231-0.026-0.373-0.052-0.437
			c-0.026-0.064-0.091-0.09-0.155-0.09c-0.078,0-0.143,0.039-0.182,0.129c-0.039,0.076-0.064,0.206-0.064,0.373
			c0,0.231,0.026,0.398,0.078,0.501c0.038,0.116,0.181,0.258,0.388,0.412c0.609,0.463,0.985,0.835,1.14,1.132
			c0.155,0.282,0.246,0.757,0.246,1.413c0,0.476-0.052,0.822-0.143,1.041c-0.078,0.232-0.259,0.411-0.505,0.566
			c-0.259,0.154-0.544,0.232-0.88,0.232c-0.376,0-0.687-0.09-0.945-0.27c-0.259-0.168-0.428-0.398-0.518-0.668
			c-0.078-0.269-0.117-0.656-0.117-1.144v-0.437h1.283v0.81c0,0.244,0.025,0.398,0.052,0.476c0.038,0.064,0.103,0.103,0.194,0.103
			c0.09,0,0.155-0.039,0.194-0.128c0.052-0.091,0.065-0.233,0.065-0.412c0-0.386-0.039-0.643-0.117-0.758
			c-0.09-0.129-0.311-0.322-0.647-0.605c-0.35-0.282-0.57-0.502-0.674-0.63c-0.117-0.128-0.207-0.295-0.285-0.527
			c-0.065-0.232-0.103-0.514-0.103-0.875c0-0.501,0.052-0.873,0.155-1.118c0.104-0.231,0.272-0.411,0.505-0.552
			c0.22-0.129,0.505-0.193,0.829-0.193c0.363,0,0.66,0.077,0.92,0.218c0.246,0.141,0.414,0.322,0.492,0.553
			c0.091,0.219,0.129,0.591,0.129,1.118V15.851L28.932,15.851z"/>
		<path id="XMLID_1089_" fill="#FFFFFF" d="M33.867,16.738h-1.256v-1.157c0-0.334-0.013-0.541-0.038-0.631
			c-0.026-0.077-0.078-0.115-0.169-0.115c-0.103,0-0.155,0.051-0.194,0.141c-0.026,0.103-0.039,0.322-0.039,0.668v3.072
			c0,0.334,0.013,0.541,0.039,0.643c0.038,0.09,0.09,0.141,0.194,0.141c0.078,0,0.143-0.051,0.169-0.141
			c0.026-0.103,0.038-0.334,0.038-0.707v-0.835h1.256v0.269c0,0.682-0.039,1.17-0.103,1.466c-0.078,0.283-0.233,0.54-0.466,0.759
			c-0.246,0.206-0.531,0.322-0.881,0.322c-0.375,0-0.674-0.09-0.907-0.283c-0.246-0.18-0.401-0.437-0.479-0.758
			c-0.065-0.322-0.104-0.81-0.104-1.466v-1.94c0-0.476,0-0.836,0.026-1.08c0.026-0.232,0.091-0.462,0.22-0.682
			c0.117-0.231,0.272-0.398,0.479-0.526c0.207-0.129,0.453-0.193,0.725-0.193c0.363,0,0.661,0.103,0.907,0.296
			c0.233,0.193,0.388,0.437,0.466,0.732c0.078,0.295,0.117,0.758,0.117,1.376V16.738L33.867,16.738z"/>
		<path id="XMLID_1090_" fill="#FFFFFF" d="M37.403,18.602c0,0.399-0.013,0.642-0.039,0.746c-0.026,0.103-0.078,0.154-0.168,0.154
			c-0.091,0-0.142-0.039-0.168-0.128c-0.026-0.091-0.039-0.335-0.039-0.721v-3.098c0-0.346,0.026-0.552,0.052-0.617
			c0.039-0.077,0.091-0.103,0.168-0.103c0.078,0,0.13,0.039,0.156,0.129c0.026,0.076,0.039,0.283,0.039,0.591V18.602L37.403,18.602z
			 M38.802,16.596c0-0.681-0.013-1.157-0.039-1.44c-0.026-0.27-0.116-0.527-0.246-0.759c-0.142-0.231-0.324-0.398-0.557-0.514
			c-0.22-0.128-0.479-0.179-0.764-0.179c-0.298,0-0.557,0.064-0.79,0.179c-0.221,0.129-0.402,0.309-0.531,0.54
			c-0.129,0.22-0.208,0.477-0.233,0.76c-0.026,0.269-0.039,0.745-0.039,1.413v1.144c0,0.682,0.013,1.158,0.039,1.427
			c0.026,0.283,0.104,0.527,0.246,0.772c0.142,0.231,0.324,0.397,0.544,0.513c0.233,0.115,0.48,0.18,0.764,0.18
			c0.298,0,0.57-0.065,0.79-0.193c0.22-0.116,0.402-0.296,0.531-0.527c0.143-0.233,0.22-0.476,0.246-0.759
			c0.026-0.282,0.039-0.745,0.039-1.413V16.596L38.802,16.596z"/>
		<path id="XMLID_1093_" fill="#FFFFFF" d="M47.765,14.232H46.38v-0.656c0-0.308-0.026-0.513-0.052-0.591
			c-0.039-0.09-0.091-0.129-0.169-0.129c-0.09,0-0.155,0.051-0.194,0.168c-0.052,0.115-0.078,0.282-0.078,0.513
			c0,0.308,0.026,0.527,0.078,0.682c0.065,0.14,0.194,0.321,0.428,0.54c0.661,0.617,1.062,1.118,1.231,1.504
			c0.181,0.397,0.259,1.028,0.259,1.902c0,0.63-0.039,1.105-0.143,1.401c-0.091,0.309-0.285,0.553-0.544,0.759
			c-0.272,0.206-0.595,0.309-0.958,0.309c-0.402,0-0.738-0.115-1.023-0.36c-0.285-0.231-0.467-0.527-0.557-0.886
			c-0.091-0.373-0.129-0.887-0.129-1.556v-0.578h1.399v1.08c0,0.333,0.013,0.552,0.052,0.642c0.039,0.103,0.117,0.141,0.207,0.141
			c0.104,0,0.169-0.051,0.221-0.18c0.039-0.115,0.064-0.296,0.064-0.54c0-0.527-0.039-0.861-0.129-1.029
			c-0.103-0.154-0.337-0.424-0.713-0.81c-0.362-0.372-0.608-0.655-0.725-0.822c-0.129-0.18-0.22-0.411-0.298-0.72
			c-0.091-0.308-0.129-0.695-0.129-1.17c0-0.68,0.064-1.182,0.168-1.491c0.117-0.321,0.298-0.566,0.556-0.745
			c0.246-0.18,0.545-0.258,0.907-0.258c0.389,0,0.713,0.091,0.998,0.284c0.259,0.192,0.44,0.437,0.518,0.731
			c0.09,0.296,0.142,0.798,0.142,1.504V14.232L47.765,14.232z"/>
		<path id="XMLID_1094_" fill="#FFFFFF" d="M52.636,13.987l-1.049,4.242v2.404h-1.334v-2.404l-1.01-4.242h1.308
			c0.22,1.299,0.337,2.173,0.363,2.622c0.091-0.706,0.22-1.581,0.401-2.622H52.636L52.636,13.987z"/>
		<path id="XMLID_1095_" fill="#FFFFFF" d="M56.742,15.851H55.55v-0.489c0-0.231-0.013-0.373-0.039-0.437
			c-0.039-0.064-0.077-0.09-0.155-0.09c-0.065,0-0.13,0.039-0.156,0.129c-0.039,0.076-0.064,0.206-0.064,0.373
			c0,0.231,0.026,0.398,0.064,0.501c0.052,0.116,0.169,0.258,0.363,0.412c0.557,0.463,0.92,0.835,1.062,1.132
			c0.142,0.282,0.22,0.757,0.22,1.413c0,0.476-0.039,0.822-0.117,1.041c-0.09,0.232-0.246,0.411-0.479,0.566
			c-0.233,0.154-0.505,0.232-0.816,0.232c-0.35,0-0.635-0.09-0.881-0.27c-0.233-0.168-0.389-0.398-0.466-0.668
			c-0.078-0.269-0.117-0.656-0.117-1.144v-0.437h1.192v0.81c0,0.244,0.013,0.398,0.052,0.476c0.026,0.064,0.091,0.103,0.169,0.103
			c0.09,0,0.155-0.039,0.194-0.128c0.039-0.091,0.052-0.233,0.052-0.412c0-0.386-0.039-0.643-0.117-0.758
			c-0.077-0.129-0.272-0.322-0.595-0.605c-0.311-0.282-0.518-0.502-0.622-0.63c-0.103-0.128-0.194-0.295-0.259-0.527
			c-0.065-0.232-0.104-0.514-0.104-0.875c0-0.501,0.052-0.873,0.156-1.118c0.09-0.231,0.246-0.411,0.453-0.552
			c0.221-0.129,0.479-0.193,0.778-0.193c0.337,0,0.609,0.077,0.842,0.218c0.233,0.141,0.388,0.322,0.466,0.553
			c0.078,0.219,0.117,0.591,0.117,1.118V15.851L56.742,15.851z"/>
		<polygon id="XMLID_1096_" fill="#FFFFFF" points="61.379,13.987 61.379,15.324 60.628,15.324 60.628,20.633 59.345,20.633 
			59.345,15.324 58.594,15.324 58.594,13.987 61.379,13.987 		"/>
		<polygon id="XMLID_1097_" fill="#FFFFFF" points="63.516,13.987 65.835,13.987 65.835,15.324 64.915,15.324 64.915,16.57 
			65.783,16.57 65.783,17.844 64.915,17.844 64.915,19.296 65.925,19.296 65.925,20.633 63.516,20.633 63.516,13.987 		"/>
		<path id="XMLID_1098_" fill="#FFFFFF" d="M72.13,13.987v6.646h-1.114l-0.013-4.486l-0.44,4.486h-0.79l-0.467-4.384v4.384h-1.126
			v-6.646h1.658c0.052,0.399,0.104,0.875,0.155,1.414l0.182,1.684l0.285-3.098H72.13L72.13,13.987z"/>
		<path id="XMLID_1099_" fill="#FFFFFF" d="M76.78,15.851h-1.192v-0.489c0-0.231-0.013-0.373-0.039-0.437
			c-0.026-0.064-0.078-0.09-0.143-0.09c-0.077,0-0.129,0.039-0.168,0.129c-0.039,0.076-0.052,0.206-0.052,0.373
			c0,0.231,0.013,0.398,0.064,0.501c0.039,0.116,0.168,0.258,0.363,0.412c0.557,0.463,0.907,0.835,1.049,1.132
			c0.156,0.282,0.22,0.757,0.22,1.413c0,0.476-0.039,0.822-0.117,1.041c-0.078,0.232-0.246,0.411-0.479,0.566
			c-0.233,0.154-0.506,0.232-0.816,0.232c-0.337,0-0.635-0.09-0.868-0.27c-0.246-0.168-0.402-0.398-0.479-0.668
			c-0.078-0.269-0.104-0.656-0.104-1.144v-0.437h1.179v0.81c0,0.244,0.026,0.398,0.052,0.476c0.039,0.064,0.091,0.103,0.182,0.103
			c0.078,0,0.143-0.039,0.181-0.128c0.039-0.091,0.065-0.233,0.065-0.412c0-0.386-0.039-0.643-0.117-0.758
			c-0.09-0.129-0.285-0.322-0.596-0.605c-0.324-0.282-0.531-0.502-0.635-0.63c-0.103-0.128-0.182-0.295-0.246-0.527
			c-0.078-0.232-0.103-0.514-0.103-0.875c0-0.501,0.052-0.873,0.143-1.118c0.091-0.231,0.246-0.411,0.466-0.552
			c0.207-0.129,0.467-0.193,0.764-0.193c0.336,0,0.621,0.077,0.855,0.218c0.233,0.141,0.389,0.322,0.467,0.553
			c0.064,0.219,0.104,0.591,0.104,1.118V15.851L76.78,15.851z"/>
	</g>
</g>
</svg>
