<?xml version="1.0" encoding="utf-8"?>
<!-- Generator: Adobe Illustrator 19.0.0, SVG Export Plug-In . SVG Version: 6.00 Build 0)  -->
<svg version="1.1" id="图层_1" xmlns="http://www.w3.org/2000/svg" xmlns:xlink="http://www.w3.org/1999/xlink" x="0px" y="0px"
	 width="1261.42px" height="124.72px" viewBox="0 0 1261.42 124.72" enable-background="new 0 0 1261.42 124.72"
	 xml:space="preserve">
<path id="XMLID_989_" fill="#3E555F" d="M1261.417,116.221c0,4.696-3.808,8.504-8.504,8.504H8.504c-4.697,0-8.504-3.808-8.504-8.504
	V8.504C0,3.807,3.807,0,8.504,0h1244.41c4.696,0,8.504,3.807,8.504,8.504V116.221z"/>
<g id="XMLID_988_">
	<path id="XMLID_43_" fill="#3F4446" d="M70.045,115.362c-2.575,0-4.669-2.095-4.669-4.669V14.032c0-2.575,2.095-4.669,4.669-4.669
		h1009.998c0.112,0.006,15.521,0.701,23.249,4.243c11.39,5.22,23.193,7.757,36.085,7.757h111.329c2.574,0,4.668,2.095,4.668,4.669
		v84.662c0,2.574-2.094,4.669-4.668,4.669H70.045z"/>
	<path id="XMLID_40_" fill="#231815" d="M1079.997,10.362c0.879,0.041,15.522,0.78,22.878,4.152
		c11.523,5.281,23.463,7.848,36.501,7.848h111.329c2.023,0,3.669,1.646,3.669,3.669v84.662c0,2.023-1.646,3.669-3.669,3.669H70.045
		c-2.023,0-3.669-1.646-3.669-3.669V14.032c0-2.023,1.646-3.669,3.669-3.669H1079.997 M1080.042,8.362H70.045
		c-3.131,0-5.669,2.538-5.669,5.669v96.662c0,3.131,2.538,5.669,5.669,5.669h1180.661c3.131,0,5.669-2.538,5.669-5.669V26.032
		c0-3.131-2.538-5.669-5.669-5.669h-111.329c-15.999,0-27.668-4-35.668-7.666S1080.042,8.362,1080.042,8.362L1080.042,8.362z"/>
</g>
<g id="XMLID_987_">
	<path id="XMLID_38_" fill="#3E555F" d="M41.458,115.362c-0.704,0-1.277-0.573-1.277-1.277v-8.519c0-0.704,0.573-1.277,1.277-1.277
		h13.973c0.704,0,1.277,0.573,1.277,1.277v8.519c0,0.704-0.573,1.277-1.277,1.277H41.458z"/>
	<path id="XMLID_35_" fill="#231815" d="M55.432,105.289c0.153,0,0.277,0.124,0.277,0.277v8.519c0,0.153-0.124,0.277-0.277,0.277
		H41.458c-0.153,0-0.277-0.124-0.277-0.277v-8.519c0-0.153,0.124-0.277,0.277-0.277H55.432 M55.432,103.289H41.458
		c-1.258,0-2.277,1.02-2.277,2.277v8.519c0,1.258,1.019,2.277,2.277,2.277h13.973c1.258,0,2.277-1.02,2.277-2.277v-8.519
		C57.708,104.309,56.689,103.289,55.432,103.289L55.432,103.289z"/>
</g>
<g id="XMLID_986_">
	<path id="XMLID_33_" fill="#3F4446" d="M12.711,115.362c-2.575,0-4.669-2.095-4.669-4.669V14.032c0-2.575,2.095-4.669,4.669-4.669
		h39.328c2.575,0,4.669,2.095,4.669,4.669v82.162c0,2.574-2.095,4.669-4.669,4.669H41.253c-2.836,0-4.669,1.833-4.669,4.669v5.162
		c0,2.574-2.095,4.669-4.669,4.669H12.711z"/>
	<path id="XMLID_30_" fill="#231815" d="M52.039,10.362c2.023,0,3.669,1.646,3.669,3.669v62.812v19.35
		c0,2.023-1.646,3.669-3.669,3.669H41.253c-3.391,0-5.669,2.278-5.669,5.669v5.162c0,2.023-1.646,3.669-3.669,3.669h-9.786h-9.417
		c-2.023,0-3.669-1.646-3.669-3.669V14.032c0-2.023,1.646-3.669,3.669-3.669H52.039 M52.039,8.362H12.711
		c-3.131,0-5.669,2.538-5.669,5.669v96.662c0,3.131,2.538,5.669,5.669,5.669h9.417h9.786c3.131,0,5.669-2.538,5.669-5.669v-5.162
		c0-2.606,1.724-3.669,3.669-3.669h10.786c3.131,0,5.669-2.538,5.669-5.669v-19.35V14.032C57.709,10.9,55.17,8.362,52.039,8.362
		L52.039,8.362z"/>
</g>
<g id="XMLID_1_">
	<path id="XMLID_2_" fill="#FFFFFF" d="M1136.691,11.665l1.909,0.605c-0.293,1.064-0.78,1.855-1.461,2.372
		c-0.681,0.517-1.544,0.775-2.591,0.775c-1.295,0-2.359-0.442-3.193-1.327c-0.833-0.885-1.25-2.095-1.25-3.629
		c0-1.623,0.419-2.884,1.257-3.782c0.839-0.898,1.94-1.347,3.307-1.347c1.192,0,2.162,0.353,2.907,1.058
		c0.443,0.417,0.775,1.016,0.997,1.796l-1.949,0.466c-0.115-0.505-0.355-0.905-0.722-1.197c-0.365-0.293-0.811-0.439-1.333-0.439
		c-0.724,0-1.31,0.259-1.76,0.778c-0.45,0.519-0.676,1.359-0.676,2.521c0,1.233,0.222,2.111,0.666,2.634
		c0.443,0.524,1.02,0.785,1.729,0.785c0.523,0,0.974-0.167,1.351-0.499C1136.255,12.903,1136.527,12.379,1136.691,11.665z"/>
	<path id="XMLID_3_" fill="#FFFFFF" d="M1141.673,10.342l-1.696-0.306c0.19-0.683,0.519-1.188,0.984-1.517
		c0.466-0.328,1.157-0.493,2.075-0.493c0.834,0,1.455,0.099,1.863,0.296c0.407,0.197,0.695,0.448,0.861,0.752
		c0.166,0.304,0.249,0.861,0.249,1.673l-0.02,2.182c0,0.621,0.029,1.079,0.09,1.374c0.06,0.295,0.172,0.611,0.336,0.948h-1.85
		c-0.049-0.124-0.108-0.308-0.18-0.552c-0.031-0.111-0.053-0.184-0.066-0.219c-0.319,0.31-0.661,0.543-1.024,0.698
		c-0.363,0.155-0.752,0.233-1.164,0.233c-0.728,0-1.301-0.197-1.72-0.592c-0.419-0.395-0.629-0.894-0.629-1.497
		c0-0.399,0.096-0.755,0.286-1.068c0.19-0.312,0.458-0.552,0.802-0.718s0.839-0.311,1.487-0.436
		c0.873-0.164,1.479-0.317,1.815-0.459v-0.186c0-0.359-0.089-0.615-0.266-0.768c-0.178-0.153-0.513-0.229-1.005-0.229
		c-0.333,0-0.592,0.066-0.778,0.196C1141.939,9.784,1141.789,10.013,1141.673,10.342z M1144.174,11.858
		c-0.239,0.08-0.618,0.175-1.138,0.286c-0.519,0.111-0.857,0.219-1.018,0.326c-0.244,0.173-0.366,0.393-0.366,0.659
		c0,0.262,0.098,0.488,0.293,0.679c0.195,0.19,0.443,0.286,0.745,0.286c0.337,0,0.658-0.11,0.965-0.333
		c0.226-0.168,0.375-0.375,0.445-0.619c0.049-0.16,0.073-0.463,0.073-0.911V11.858z"/>
	<path id="XMLID_4_" fill="#FFFFFF" d="M1151.093,8.186v1.49h-1.277v2.847c0,0.577,0.012,0.913,0.036,1.008
		c0.024,0.096,0.08,0.174,0.167,0.236c0.086,0.062,0.191,0.093,0.315,0.093c0.173,0,0.424-0.06,0.752-0.18l0.159,1.45
		c-0.435,0.186-0.927,0.279-1.477,0.279c-0.337,0-0.641-0.057-0.911-0.169c-0.271-0.113-0.469-0.26-0.596-0.439
		c-0.126-0.179-0.214-0.422-0.263-0.728c-0.04-0.217-0.06-0.657-0.06-1.317v-3.08h-0.858v-1.49h0.858V6.783l1.876-1.091v2.495
		H1151.093z"/>
	<path id="XMLID_5_" fill="#FFFFFF" d="M1153.787,10.342l-1.696-0.306c0.19-0.683,0.519-1.188,0.984-1.517
		c0.466-0.328,1.157-0.493,2.075-0.493c0.834,0,1.455,0.099,1.863,0.296c0.407,0.197,0.695,0.448,0.861,0.752
		c0.166,0.304,0.249,0.861,0.249,1.673l-0.02,2.182c0,0.621,0.029,1.079,0.09,1.374c0.06,0.295,0.172,0.611,0.336,0.948h-1.85
		c-0.049-0.124-0.108-0.308-0.18-0.552c-0.031-0.111-0.053-0.184-0.066-0.219c-0.319,0.31-0.661,0.543-1.024,0.698
		c-0.363,0.155-0.752,0.233-1.164,0.233c-0.728,0-1.301-0.197-1.72-0.592c-0.419-0.395-0.629-0.894-0.629-1.497
		c0-0.399,0.096-0.755,0.286-1.068c0.19-0.312,0.458-0.552,0.802-0.718s0.839-0.311,1.487-0.436
		c0.873-0.164,1.479-0.317,1.815-0.459v-0.186c0-0.359-0.089-0.615-0.266-0.768c-0.178-0.153-0.513-0.229-1.005-0.229
		c-0.333,0-0.592,0.066-0.778,0.196C1154.052,9.784,1153.902,10.013,1153.787,10.342z M1156.288,11.858
		c-0.239,0.08-0.618,0.175-1.138,0.286c-0.519,0.111-0.857,0.219-1.018,0.326c-0.244,0.173-0.366,0.393-0.366,0.659
		c0,0.262,0.098,0.488,0.293,0.679c0.195,0.19,0.443,0.286,0.745,0.286c0.337,0,0.658-0.11,0.965-0.333
		c0.226-0.168,0.375-0.375,0.445-0.619c0.049-0.16,0.073-0.463,0.073-0.911V11.858z"/>
	<path id="XMLID_6_" fill="#FFFFFF" d="M1159.966,15.251V5.498h1.87v9.753H1159.966z"/>
	<path id="XMLID_7_" fill="#FFFFFF" d="M1162.867,8.186h1.989l1.689,5.016l1.65-5.016h1.936l-2.494,6.799l-0.446,1.23
		c-0.164,0.413-0.32,0.728-0.469,0.945c-0.148,0.217-0.319,0.393-0.513,0.529c-0.192,0.135-0.43,0.241-0.711,0.316
		c-0.282,0.076-0.601,0.113-0.955,0.113c-0.359,0-0.712-0.038-1.058-0.113l-0.166-1.463c0.292,0.058,0.556,0.086,0.791,0.086
		c0.435,0,0.756-0.127,0.965-0.382c0.208-0.255,0.368-0.58,0.479-0.975L1162.867,8.186z"/>
	<path id="XMLID_8_" fill="#FFFFFF" d="M1170.67,13.235l1.876-0.286c0.08,0.364,0.241,0.64,0.485,0.828
		c0.244,0.189,0.586,0.283,1.024,0.283c0.483,0,0.848-0.088,1.091-0.266c0.164-0.124,0.246-0.29,0.246-0.498
		c0-0.142-0.044-0.26-0.133-0.353c-0.093-0.088-0.302-0.17-0.625-0.246c-1.508-0.332-2.464-0.636-2.867-0.911
		c-0.559-0.381-0.838-0.912-0.838-1.59c0-0.612,0.241-1.127,0.725-1.543c0.483-0.417,1.233-0.626,2.249-0.626
		c0.967,0,1.685,0.158,2.155,0.473c0.47,0.315,0.794,0.78,0.971,1.397l-1.763,0.326c-0.075-0.275-0.219-0.485-0.429-0.632
		c-0.211-0.146-0.512-0.22-0.901-0.22c-0.492,0-0.845,0.069-1.058,0.207c-0.143,0.098-0.213,0.224-0.213,0.379
		c0,0.133,0.062,0.246,0.186,0.339c0.169,0.125,0.751,0.299,1.746,0.525c0.996,0.227,1.691,0.503,2.086,0.832
		c0.391,0.333,0.585,0.796,0.585,1.391c0,0.647-0.271,1.204-0.812,1.669c-0.541,0.466-1.341,0.699-2.401,0.699
		c-0.962,0-1.724-0.195-2.285-0.585C1171.21,14.435,1170.843,13.905,1170.67,13.235z"/>
	<path id="XMLID_9_" fill="#FFFFFF" d="M1182.146,8.186v1.49h-1.277v2.847c0,0.577,0.012,0.913,0.036,1.008
		c0.024,0.096,0.08,0.174,0.167,0.236c0.086,0.062,0.191,0.093,0.315,0.093c0.173,0,0.424-0.06,0.752-0.18l0.159,1.45
		c-0.435,0.186-0.927,0.279-1.477,0.279c-0.337,0-0.641-0.057-0.911-0.169c-0.271-0.113-0.469-0.26-0.596-0.439
		c-0.126-0.179-0.214-0.422-0.263-0.728c-0.04-0.217-0.06-0.657-0.06-1.317v-3.08h-0.858v-1.49h0.858V6.783l1.876-1.091v2.495
		H1182.146z"/>
	<path id="XMLID_10_" fill="#FFFFFF" d="M1193.142,13.515v1.736h-6.553c0.071-0.656,0.284-1.278,0.639-1.866
		c0.355-0.587,1.056-1.367,2.103-2.338c0.843-0.785,1.359-1.317,1.55-1.597c0.257-0.386,0.386-0.767,0.386-1.144
		c0-0.417-0.112-0.737-0.336-0.961c-0.224-0.224-0.533-0.336-0.928-0.336c-0.391,0-0.701,0.118-0.932,0.352
		c-0.23,0.235-0.363,0.626-0.398,1.171l-1.863-0.186c0.111-1.029,0.459-1.767,1.045-2.215c0.585-0.448,1.316-0.672,2.195-0.672
		c0.962,0,1.718,0.259,2.269,0.778c0.55,0.519,0.824,1.164,0.824,1.936c0,0.439-0.078,0.857-0.236,1.254
		c-0.157,0.397-0.406,0.813-0.748,1.248c-0.227,0.288-0.634,0.703-1.224,1.244c-0.59,0.542-0.964,0.9-1.121,1.078
		c-0.157,0.178-0.285,0.351-0.383,0.519H1193.142z"/>
	<path id="XMLID_11_" fill="#FFFFFF" d="M1194.447,12.996l1.809-0.199c0.045,0.368,0.16,0.641,0.347,0.818
		c0.186,0.177,0.432,0.266,0.738,0.266c0.386,0,0.714-0.177,0.984-0.532c0.271-0.355,0.443-1.091,0.519-2.209
		c-0.47,0.546-1.058,0.818-1.763,0.818c-0.768,0-1.429-0.296-1.985-0.888c-0.557-0.592-0.835-1.362-0.835-2.312
		c0-0.989,0.294-1.786,0.881-2.392c0.588-0.606,1.336-0.908,2.245-0.908c0.989,0,1.801,0.382,2.436,1.147
		c0.634,0.765,0.951,2.023,0.951,3.775c0,1.783-0.331,3.069-0.991,3.858c-0.661,0.79-1.521,1.184-2.581,1.184
		c-0.763,0-1.38-0.203-1.85-0.608C1194.881,14.41,1194.58,13.803,1194.447,12.996z M1198.677,8.911c0-0.603-0.139-1.071-0.416-1.403
		s-0.598-0.499-0.961-0.499c-0.346,0-0.633,0.136-0.861,0.409c-0.229,0.272-0.343,0.72-0.343,1.34c0,0.63,0.124,1.092,0.372,1.387
		c0.249,0.295,0.56,0.442,0.932,0.442c0.359,0,0.662-0.142,0.908-0.426S1198.677,9.461,1198.677,8.911z"/>
	<path id="XMLID_12_" fill="#FFFFFF" d="M1208.316,7.887l-1.81,0.2c-0.045-0.372-0.16-0.647-0.346-0.825
		c-0.187-0.178-0.429-0.266-0.726-0.266c-0.395,0-0.729,0.177-1.001,0.532c-0.272,0.354-0.444,1.093-0.516,2.215
		c0.466-0.55,1.044-0.825,1.736-0.825c0.78,0,1.449,0.297,2.006,0.892c0.557,0.594,0.835,1.361,0.835,2.301
		c0,0.998-0.293,1.799-0.879,2.402c-0.585,0.603-1.337,0.905-2.255,0.905c-0.984,0-1.794-0.383-2.428-1.148
		c-0.635-0.765-0.951-2.018-0.951-3.762c0-1.787,0.33-3.076,0.991-3.865c0.66-0.79,1.519-1.184,2.574-1.184
		c0.74,0,1.354,0.207,1.839,0.622C1207.874,6.496,1208.182,7.098,1208.316,7.887z M1204.078,11.965c0,0.608,0.14,1.077,0.42,1.407
		c0.279,0.33,0.599,0.496,0.957,0.496c0.347,0,0.635-0.135,0.865-0.406s0.346-0.714,0.346-1.33c0-0.634-0.124-1.099-0.372-1.394
		c-0.249-0.295-0.559-0.442-0.932-0.442c-0.359,0-0.663,0.141-0.911,0.422C1204.202,10.999,1204.078,11.415,1204.078,11.965z"/>
	<path id="XMLID_13_" fill="#FFFFFF" d="M1212.719,5.459c0.945,0,1.684,0.337,2.216,1.011c0.634,0.798,0.951,2.122,0.951,3.972
		c0,1.845-0.319,3.171-0.958,3.978c-0.528,0.665-1.264,0.998-2.209,0.998c-0.949,0-1.714-0.365-2.295-1.095
		c-0.581-0.729-0.871-2.03-0.871-3.901c0-1.836,0.319-3.158,0.958-3.965C1211.039,5.792,1211.775,5.459,1212.719,5.459z
		 M1212.719,7.009c-0.226,0-0.428,0.072-0.605,0.216c-0.177,0.144-0.314,0.402-0.412,0.775c-0.129,0.483-0.192,1.297-0.192,2.441
		s0.058,1.93,0.173,2.358c0.115,0.428,0.26,0.713,0.436,0.854c0.175,0.142,0.376,0.213,0.602,0.213c0.227,0,0.429-0.072,0.605-0.216
		c0.178-0.144,0.315-0.402,0.413-0.775c0.128-0.479,0.192-1.291,0.192-2.435s-0.058-1.93-0.173-2.358
		c-0.115-0.428-0.261-0.714-0.436-0.858C1213.146,7.081,1212.946,7.009,1212.719,7.009z"/>
	<path id="XMLID_14_" fill="#FFFFFF" d="M1220.792,12.951l0.894-0.078c0.042,0.358,0.141,0.652,0.296,0.881
		c0.154,0.229,0.395,0.415,0.72,0.557s0.691,0.212,1.099,0.212c0.361,0,0.681-0.054,0.957-0.161s0.482-0.255,0.617-0.442
		c0.136-0.187,0.203-0.392,0.203-0.613c0-0.225-0.065-0.421-0.195-0.588c-0.13-0.167-0.345-0.309-0.645-0.422
		c-0.192-0.075-0.617-0.191-1.274-0.349c-0.657-0.158-1.118-0.307-1.382-0.447c-0.342-0.179-0.597-0.401-0.764-0.667
		c-0.168-0.265-0.252-0.562-0.252-0.891c0-0.361,0.103-0.699,0.308-1.013c0.205-0.314,0.505-0.553,0.898-0.715
		c0.394-0.163,0.832-0.244,1.313-0.244c0.53,0,0.998,0.085,1.404,0.256c0.404,0.171,0.717,0.422,0.935,0.754
		c0.218,0.332,0.335,0.708,0.352,1.128l-0.908,0.068c-0.049-0.453-0.214-0.794-0.495-1.025c-0.282-0.231-0.698-0.347-1.248-0.347
		c-0.573,0-0.99,0.105-1.252,0.315c-0.263,0.21-0.394,0.463-0.394,0.759c0,0.257,0.093,0.469,0.278,0.635
		c0.183,0.166,0.658,0.336,1.428,0.51c0.771,0.174,1.299,0.326,1.585,0.456c0.417,0.192,0.725,0.436,0.923,0.73
		c0.198,0.295,0.298,0.634,0.298,1.018c0,0.381-0.109,0.74-0.327,1.077c-0.218,0.337-0.531,0.599-0.939,0.786
		c-0.409,0.187-0.869,0.281-1.38,0.281c-0.647,0-1.19-0.094-1.628-0.283c-0.438-0.189-0.781-0.473-1.031-0.852
		C1220.937,13.858,1220.805,13.43,1220.792,12.951z"/>
	<path id="XMLID_15_" fill="#FFFFFF" d="M1231.222,13.581l0.908,0.112c-0.144,0.531-0.408,0.942-0.796,1.235
		c-0.388,0.293-0.882,0.439-1.484,0.439c-0.759,0-1.36-0.233-1.804-0.701c-0.445-0.467-0.667-1.122-0.667-1.965
		c0-0.872,0.225-1.549,0.674-2.031c0.449-0.482,1.032-0.723,1.748-0.723c0.693,0,1.26,0.236,1.699,0.708
		c0.439,0.472,0.659,1.136,0.659,1.992c0,0.052-0.002,0.13-0.005,0.234h-3.867c0.032,0.57,0.193,1.006,0.483,1.309
		s0.651,0.454,1.084,0.454c0.322,0,0.598-0.085,0.825-0.254C1230.908,14.222,1231.088,13.952,1231.222,13.581z M1228.336,12.16
		h2.896c-0.039-0.436-0.149-0.763-0.332-0.981c-0.28-0.338-0.643-0.508-1.089-0.508c-0.403,0-0.743,0.135-1.019,0.405
		C1228.518,11.346,1228.366,11.708,1228.336,12.16z"/>
	<path id="XMLID_17_" fill="#FFFFFF" d="M1233.224,15.251v-5.186h0.791v0.786c0.202-0.368,0.388-0.61,0.56-0.728
		c0.17-0.117,0.358-0.176,0.563-0.176c0.296,0,0.598,0.094,0.903,0.283l-0.303,0.816c-0.215-0.127-0.43-0.191-0.645-0.191
		c-0.192,0-0.364,0.058-0.518,0.173c-0.153,0.116-0.262,0.276-0.327,0.481c-0.098,0.312-0.146,0.654-0.146,1.025v2.715H1233.224z"/>
	<path id="XMLID_18_" fill="#FFFFFF" d="M1236.569,9.104V8.093h0.879v1.011H1236.569z M1236.569,15.251v-5.186h0.879v5.186H1236.569
		z"/>
	<path id="XMLID_19_" fill="#FFFFFF" d="M1242.335,13.581l0.908,0.112c-0.144,0.531-0.408,0.942-0.796,1.235
		c-0.388,0.293-0.882,0.439-1.484,0.439c-0.759,0-1.36-0.233-1.804-0.701c-0.445-0.467-0.667-1.122-0.667-1.965
		c0-0.872,0.225-1.549,0.674-2.031c0.449-0.482,1.032-0.723,1.748-0.723c0.693,0,1.26,0.236,1.699,0.708
		c0.439,0.472,0.659,1.136,0.659,1.992c0,0.052-0.002,0.13-0.005,0.234h-3.867c0.032,0.57,0.193,1.006,0.483,1.309
		s0.651,0.454,1.084,0.454c0.322,0,0.598-0.085,0.825-0.254C1242.021,14.222,1242.202,13.952,1242.335,13.581z M1239.45,12.16h2.896
		c-0.039-0.436-0.149-0.763-0.332-0.981c-0.28-0.338-0.643-0.508-1.089-0.508c-0.403,0-0.743,0.135-1.019,0.405
		C1239.631,11.346,1239.479,11.708,1239.45,12.16z"/>
	<path id="XMLID_22_" fill="#FFFFFF" d="M1243.996,13.703l0.869-0.137c0.049,0.348,0.185,0.615,0.407,0.801
		c0.224,0.186,0.535,0.278,0.936,0.278c0.403,0,0.703-0.082,0.898-0.247c0.195-0.165,0.293-0.357,0.293-0.579
		c0-0.199-0.086-0.355-0.259-0.469c-0.12-0.078-0.42-0.177-0.898-0.298c-0.645-0.163-1.091-0.304-1.341-0.422
		c-0.248-0.119-0.438-0.283-0.566-0.493c-0.128-0.21-0.192-0.442-0.192-0.696c0-0.231,0.053-0.445,0.159-0.642
		c0.105-0.197,0.249-0.36,0.432-0.491c0.137-0.101,0.323-0.187,0.559-0.256c0.236-0.07,0.489-0.105,0.76-0.105
		c0.407,0,0.764,0.059,1.072,0.176c0.307,0.117,0.534,0.276,0.681,0.476c0.146,0.2,0.247,0.468,0.303,0.803l-0.859,0.117
		c-0.039-0.267-0.152-0.475-0.339-0.625c-0.188-0.15-0.452-0.225-0.794-0.225c-0.403,0-0.691,0.067-0.864,0.2
		c-0.173,0.133-0.259,0.289-0.259,0.469c0,0.114,0.036,0.216,0.107,0.308c0.071,0.094,0.184,0.172,0.337,0.234
		c0.088,0.033,0.347,0.108,0.776,0.225c0.622,0.166,1.056,0.302,1.302,0.408c0.245,0.106,0.438,0.26,0.578,0.461
		c0.14,0.202,0.21,0.453,0.21,0.752c0,0.293-0.085,0.569-0.257,0.828c-0.17,0.259-0.417,0.459-0.739,0.601
		c-0.322,0.142-0.687,0.212-1.094,0.212c-0.674,0-1.188-0.14-1.54-0.42C1244.319,14.668,1244.093,14.253,1243.996,13.703z"/>
</g>
<g id="XMLID_23_">
	<g id="XMLID_24_">
		<g id="XMLID_25_">
			<rect id="XMLID_959_" x="24.544" y="24.264" fill="#FFFFFF" width="1.532" height="6.071"/>
			<path id="XMLID_958_" fill="#FFFFFF" d="M38.432,26.004c-0.063-0.033-0.557-0.325-1.289-0.325c-0.99,0-1.678,0.69-1.678,1.62
				c0,0.903,0.658,1.621,1.678,1.621c0.72,0,1.222-0.286,1.289-0.321v1.629c-0.193,0.055-0.715,0.216-1.396,0.216
				c-1.724,0-3.236-1.188-3.236-3.145c0-1.812,1.369-3.143,3.236-3.143c0.719,0,1.251,0.176,1.396,0.219V26.004z"/>
			<path id="XMLID_957_" fill="#FFFFFF" d="M22.437,26.004c-0.062-0.033-0.554-0.325-1.287-0.325c-0.993,0-1.679,0.69-1.679,1.62
				c0,0.903,0.658,1.621,1.679,1.621c0.72,0,1.222-0.286,1.287-0.321v1.629c-0.19,0.055-0.712,0.216-1.398,0.216
				c-1.722,0-3.233-1.188-3.233-3.145c0-1.812,1.369-3.143,3.233-3.143c0.722,0,1.254,0.176,1.398,0.219V26.004z"/>
			<path id="XMLID_26_" fill="#FFFFFF" d="M46.461,27.299c0,1.737-1.342,3.145-3.209,3.145c-1.867,0-3.207-1.408-3.207-3.145
				c0-1.734,1.339-3.143,3.207-3.143C45.12,24.155,46.461,25.564,46.461,27.299z M43.252,25.702c-0.908,0-1.583,0.716-1.583,1.597
				c0,0.884,0.675,1.599,1.583,1.599c0.909,0,1.585-0.715,1.585-1.599C44.837,26.417,44.161,25.702,43.252,25.702z"/>
			<path id="XMLID_954_" fill="#FFFFFF" d="M31.887,25.644c-0.022-0.007-0.667-0.186-1.198-0.186c-0.614,0-0.948,0.206-0.948,0.498
				c0,0.371,0.45,0.5,0.702,0.579l0.423,0.135c0.995,0.316,1.447,0.997,1.447,1.738c0,1.524-1.341,2.037-2.514,2.037
				c-0.814,0-1.578-0.15-1.653-0.165v-1.398c0.135,0.034,0.777,0.226,1.447,0.226c0.762,0,1.113-0.223,1.113-0.567
				c0-0.308-0.304-0.484-0.683-0.605c-0.093-0.029-0.233-0.075-0.327-0.105c-0.854-0.271-1.565-0.771-1.565-1.777
				c0-1.136,0.85-1.899,2.263-1.899c0.746,0,1.448,0.181,1.494,0.194V25.644z"/>
		</g>
	</g>
	<path id="XMLID_953_" fill="#FFFFFF" d="M16.181,17.738c0-0.419-0.341-0.758-0.76-0.758c-0.419,0-0.761,0.339-0.761,0.758v1.594
		c0,0.422,0.342,0.761,0.761,0.761c0.419,0,0.76-0.339,0.76-0.761V17.738z"/>
	<path id="XMLID_952_" fill="#FFFFFF" d="M20.36,15.646c0-0.418-0.341-0.759-0.761-0.759c-0.419,0-0.76,0.341-0.76,0.759v3.686
		c0,0.422,0.34,0.761,0.76,0.761c0.42,0,0.761-0.339,0.761-0.761V15.646z"/>
	<path id="XMLID_951_" fill="#FFFFFF" d="M24.539,12.782c0-0.418-0.342-0.756-0.761-0.756c-0.419,0-0.76,0.338-0.76,0.756v8.065
		c0,0.421,0.341,0.759,0.76,0.759c0.419,0,0.761-0.338,0.761-0.759V12.782z"/>
	<path id="XMLID_950_" fill="#FFFFFF" d="M28.718,15.646c0-0.418-0.343-0.759-0.762-0.759c-0.419,0-0.76,0.341-0.76,0.759v3.686
		c0,0.422,0.341,0.761,0.76,0.761c0.419,0,0.762-0.339,0.762-0.761V15.646z"/>
	<path id="XMLID_949_" fill="#FFFFFF" d="M32.891,17.738c0-0.419-0.339-0.758-0.755-0.758c-0.419,0-0.761,0.339-0.761,0.758v1.594
		c0,0.422,0.341,0.761,0.761,0.761c0.416,0,0.755-0.339,0.755-0.761V17.738z"/>
	<path id="XMLID_948_" fill="#FFFFFF" d="M37.072,15.646c0-0.418-0.339-0.759-0.758-0.759c-0.418,0-0.758,0.341-0.758,0.759v3.686
		c0,0.422,0.34,0.761,0.758,0.761c0.419,0,0.758-0.339,0.758-0.761V15.646z"/>
	<path id="XMLID_947_" fill="#FFFFFF" d="M41.254,12.782c0-0.418-0.34-0.756-0.759-0.756c-0.418,0-0.757,0.338-0.757,0.756v8.065
		c0,0.421,0.339,0.759,0.757,0.759c0.419,0,0.759-0.338,0.759-0.759V12.782z"/>
	<path id="XMLID_946_" fill="#FFFFFF" d="M45.435,15.646c0-0.418-0.339-0.759-0.768-0.759c-0.419,0-0.759,0.341-0.759,0.759v3.686
		c0,0.422,0.34,0.761,0.759,0.761c0.428,0,0.768-0.339,0.768-0.761V15.646z"/>
	<path id="XMLID_945_" fill="#FFFFFF" d="M49.607,17.738c0-0.419-0.341-0.758-0.759-0.758c-0.419,0-0.759,0.339-0.759,0.758v1.594
		c0,0.422,0.339,0.761,0.759,0.761c0.418,0,0.759-0.339,0.759-0.761V17.738z"/>
</g>
<g id="XMLID_27_">
	<path id="XMLID_28_" fill="#FFFFFF" d="M32.917,38.912l0.531-0.057c0.028,0.286,0.093,0.508,0.193,0.668
		c0.101,0.16,0.244,0.288,0.431,0.385c0.187,0.097,0.397,0.145,0.631,0.145c0.336,0,0.596-0.082,0.781-0.246
		c0.185-0.164,0.278-0.377,0.278-0.639c0-0.153-0.034-0.287-0.101-0.401c-0.067-0.114-0.169-0.208-0.305-0.281
		c-0.136-0.073-0.429-0.176-0.881-0.31c-0.401-0.12-0.688-0.239-0.857-0.36c-0.171-0.121-0.303-0.273-0.397-0.459
		c-0.095-0.186-0.142-0.395-0.142-0.629c0-0.421,0.136-0.765,0.407-1.032c0.272-0.267,0.638-0.4,1.099-0.4
		c0.317,0,0.594,0.063,0.832,0.188c0.237,0.125,0.421,0.305,0.553,0.538c0.131,0.234,0.201,0.509,0.211,0.826l-0.543,0.049
		c-0.028-0.338-0.129-0.588-0.303-0.751c-0.174-0.163-0.418-0.245-0.732-0.245c-0.319,0-0.562,0.072-0.73,0.215
		c-0.167,0.143-0.251,0.328-0.251,0.554c0,0.21,0.062,0.374,0.184,0.489c0.123,0.116,0.399,0.233,0.829,0.352
		c0.42,0.116,0.715,0.217,0.885,0.303c0.26,0.133,0.456,0.307,0.589,0.523c0.132,0.216,0.199,0.474,0.199,0.773
		c0,0.297-0.07,0.568-0.209,0.812c-0.14,0.244-0.329,0.43-0.569,0.558c-0.24,0.127-0.529,0.191-0.867,0.191
		c-0.527,0-0.947-0.158-1.26-0.475C33.091,39.882,32.929,39.453,32.917,38.912z"/>
	<path id="XMLID_29_" fill="#FFFFFF" d="M38.276,40.585v-2.201l-1.641-2.995h0.689l0.836,1.568c0.166,0.31,0.311,0.603,0.436,0.88
		c0.125-0.272,0.281-0.579,0.465-0.919l0.828-1.529h0.651l-1.701,2.995v2.201H38.276z"/>
	<path id="XMLID_34_" fill="#FFFFFF" d="M40.856,38.912l0.531-0.057c0.028,0.286,0.093,0.508,0.193,0.668
		c0.101,0.16,0.244,0.288,0.431,0.385c0.187,0.097,0.397,0.145,0.631,0.145c0.335,0,0.596-0.082,0.781-0.246
		c0.186-0.164,0.278-0.377,0.278-0.639c0-0.153-0.034-0.287-0.101-0.401c-0.067-0.114-0.169-0.208-0.305-0.281
		c-0.136-0.073-0.429-0.176-0.881-0.31c-0.401-0.12-0.688-0.239-0.857-0.36c-0.17-0.121-0.303-0.273-0.397-0.459
		c-0.095-0.186-0.142-0.395-0.142-0.629c0-0.421,0.136-0.765,0.407-1.032c0.272-0.267,0.638-0.4,1.099-0.4
		c0.317,0,0.594,0.063,0.832,0.188c0.237,0.125,0.421,0.305,0.553,0.538c0.131,0.234,0.201,0.509,0.211,0.826l-0.543,0.049
		c-0.028-0.338-0.129-0.588-0.303-0.751c-0.174-0.163-0.418-0.245-0.732-0.245c-0.319,0-0.562,0.072-0.73,0.215
		c-0.167,0.143-0.251,0.328-0.251,0.554c0,0.21,0.062,0.374,0.185,0.489c0.123,0.116,0.399,0.233,0.829,0.352
		c0.42,0.116,0.715,0.217,0.885,0.303c0.26,0.133,0.456,0.307,0.589,0.523c0.132,0.216,0.199,0.474,0.199,0.773
		c0,0.297-0.07,0.568-0.209,0.812c-0.14,0.244-0.329,0.43-0.569,0.558c-0.24,0.127-0.529,0.191-0.867,0.191
		c-0.527,0-0.947-0.158-1.26-0.475C41.03,39.882,40.868,39.453,40.856,38.912z"/>
	<path id="XMLID_39_" fill="#FFFFFF" d="M46.108,40.585v-4.583h-1.403v-0.613h3.377v0.613h-1.411v4.583H46.108z"/>
	<path id="XMLID_44_" fill="#FFFFFF" d="M36.312,48.448v-5.196h1.889c0.395,0,0.686,0.048,0.874,0.145
		c0.188,0.097,0.342,0.258,0.463,0.484c0.12,0.225,0.181,0.487,0.181,0.784c0,0.392-0.103,0.71-0.307,0.953
		c-0.205,0.243-0.501,0.398-0.892,0.464c0.159,0.095,0.279,0.191,0.362,0.289c0.167,0.199,0.315,0.42,0.443,0.663l0.744,1.414H39.36
		l-0.568-1.081c-0.22-0.422-0.386-0.707-0.499-0.854c-0.112-0.146-0.221-0.246-0.326-0.296s-0.252-0.076-0.44-0.076h-0.652v2.307
		H36.312z M36.875,45.545h1.212c0.265,0,0.465-0.032,0.603-0.096c0.137-0.063,0.246-0.164,0.326-0.301
		c0.08-0.137,0.12-0.296,0.12-0.479c0-0.262-0.077-0.468-0.23-0.618c-0.154-0.15-0.382-0.225-0.684-0.225h-1.347V45.545z"/>
	<path id="XMLID_45_" fill="#FFFFFF" d="M40.607,48.448v-5.196h1.605c0.378,0,0.657,0.033,0.836,0.099
		c0.246,0.09,0.442,0.256,0.588,0.5c0.146,0.243,0.22,0.542,0.22,0.896c0,0.468-0.119,0.85-0.358,1.145s-0.651,0.443-1.237,0.443
		h-1.092v2.112H40.607z M41.171,45.723h1.103c0.347,0,0.601-0.079,0.762-0.236c0.161-0.157,0.241-0.394,0.241-0.71
		c0-0.206-0.04-0.381-0.119-0.528c-0.079-0.146-0.175-0.247-0.287-0.301c-0.112-0.055-0.315-0.082-0.608-0.082h-1.092V45.723z"/>
	<path id="XMLID_46_" fill="#FFFFFF" d="M44.39,46.775l0.531-0.057c0.028,0.286,0.093,0.508,0.193,0.668
		c0.101,0.16,0.244,0.288,0.431,0.385c0.187,0.097,0.397,0.145,0.631,0.145c0.335,0,0.596-0.082,0.781-0.246
		c0.186-0.164,0.278-0.377,0.278-0.639c0-0.153-0.034-0.287-0.101-0.401c-0.067-0.114-0.169-0.208-0.305-0.281
		c-0.136-0.073-0.429-0.176-0.881-0.31c-0.401-0.12-0.688-0.239-0.857-0.36c-0.17-0.121-0.303-0.273-0.397-0.459
		c-0.095-0.186-0.142-0.395-0.142-0.629c0-0.421,0.136-0.765,0.407-1.032c0.272-0.267,0.638-0.4,1.099-0.4
		c0.317,0,0.594,0.063,0.831,0.188c0.237,0.125,0.421,0.305,0.553,0.539c0.131,0.234,0.201,0.509,0.211,0.826l-0.542,0.049
		c-0.028-0.338-0.129-0.588-0.303-0.751c-0.174-0.163-0.418-0.245-0.732-0.245c-0.319,0-0.562,0.072-0.73,0.215
		c-0.167,0.143-0.251,0.328-0.251,0.554c0,0.21,0.062,0.374,0.185,0.489c0.123,0.116,0.399,0.233,0.829,0.352
		c0.42,0.116,0.715,0.217,0.885,0.303c0.26,0.133,0.456,0.307,0.589,0.523c0.132,0.216,0.199,0.474,0.199,0.773
		c0,0.297-0.07,0.568-0.209,0.812c-0.14,0.244-0.329,0.43-0.569,0.558c-0.24,0.127-0.529,0.191-0.867,0.191
		c-0.527,0-0.947-0.158-1.26-0.475C44.563,47.745,44.401,47.316,44.39,46.775z"/>
	<path id="XMLID_47_" fill="#FFFFFF" d="M34.122,62.502l0.531-0.057c0.028,0.286,0.093,0.508,0.193,0.668
		c0.101,0.16,0.244,0.288,0.431,0.385c0.187,0.097,0.397,0.146,0.631,0.146c0.335,0,0.596-0.082,0.781-0.246
		c0.186-0.164,0.278-0.377,0.278-0.639c0-0.153-0.034-0.287-0.101-0.401c-0.067-0.114-0.169-0.208-0.305-0.281
		c-0.136-0.073-0.429-0.176-0.881-0.31c-0.401-0.12-0.688-0.239-0.857-0.36c-0.17-0.121-0.303-0.273-0.397-0.459
		c-0.095-0.186-0.142-0.395-0.142-0.629c0-0.421,0.136-0.765,0.407-1.032c0.272-0.267,0.638-0.4,1.099-0.4
		c0.317,0,0.594,0.063,0.832,0.188c0.237,0.125,0.421,0.305,0.553,0.539c0.131,0.234,0.201,0.509,0.211,0.826l-0.542,0.049
		c-0.028-0.338-0.129-0.588-0.303-0.751c-0.174-0.163-0.418-0.245-0.732-0.245c-0.319,0-0.562,0.072-0.731,0.215
		c-0.167,0.143-0.251,0.328-0.251,0.554c0,0.21,0.062,0.374,0.185,0.489c0.123,0.116,0.399,0.233,0.829,0.352
		c0.42,0.116,0.715,0.217,0.885,0.303c0.26,0.133,0.456,0.307,0.589,0.523c0.132,0.216,0.199,0.474,0.199,0.773
		c0,0.297-0.07,0.568-0.209,0.812c-0.14,0.244-0.329,0.43-0.569,0.558c-0.24,0.127-0.529,0.191-0.867,0.191
		c-0.527,0-0.947-0.159-1.26-0.476C34.295,63.472,34.133,63.043,34.122,62.502z"/>
	<path id="XMLID_48_" fill="#FFFFFF" d="M39.374,64.175v-4.582h-1.403v-0.613h3.377v0.613h-1.411v4.582H39.374z"/>
	<path id="XMLID_49_" fill="#FFFFFF" d="M41.015,64.175l1.643-5.196h0.603l1.745,5.196H44.36l-0.496-1.574h-1.792l-0.463,1.574
		H41.015z M42.237,62.041h1.451l-0.442-1.439c-0.137-0.441-0.238-0.801-0.301-1.077c-0.055,0.333-0.133,0.664-0.233,0.992
		L42.237,62.041z"/>
	<path id="XMLID_50_" fill="#FFFFFF" d="M46.108,64.175v-4.582h-1.403v-0.613h3.377v0.613h-1.411v4.582H46.108z"/>
	<path id="XMLID_51_" fill="#FFFFFF" d="M32.991,72.039v-5.196h1.471c0.364,0,0.64,0.032,0.829,0.096
		c0.248,0.083,0.463,0.234,0.645,0.454c0.182,0.22,0.324,0.497,0.425,0.831c0.102,0.334,0.153,0.73,0.153,1.189
		c0,0.588-0.086,1.087-0.259,1.497c-0.173,0.41-0.394,0.7-0.665,0.872c-0.271,0.171-0.625,0.257-1.062,0.257H32.991z M33.555,71.426
		h0.907c0.366,0,0.644-0.06,0.833-0.179c0.189-0.119,0.334-0.312,0.436-0.576c0.135-0.352,0.202-0.773,0.202-1.266
		c0-0.526-0.071-0.94-0.214-1.242c-0.143-0.301-0.327-0.502-0.551-0.604c-0.151-0.069-0.391-0.104-0.719-0.104h-0.893V71.426z"/>
	<path id="XMLID_52_" fill="#FFFFFF" d="M37.297,72.039v-5.196h1.605c0.378,0,0.657,0.033,0.836,0.1
		c0.246,0.09,0.442,0.257,0.588,0.5c0.146,0.243,0.22,0.542,0.22,0.896c0,0.468-0.119,0.85-0.358,1.145
		c-0.239,0.296-0.651,0.443-1.237,0.443H37.86v2.112H37.297z M37.86,69.313h1.102c0.347,0,0.601-0.078,0.762-0.235
		c0.161-0.157,0.241-0.395,0.241-0.711c0-0.205-0.04-0.382-0.119-0.528c-0.079-0.146-0.175-0.246-0.287-0.301
		c-0.112-0.055-0.315-0.082-0.608-0.082H37.86V69.313z"/>
	<path id="XMLID_53_" fill="#FFFFFF" d="M41.235,72.039v-5.196h0.563v4.583h2.098v0.613H41.235z"/>
	<path id="XMLID_54_" fill="#FFFFFF" d="M44.148,72.039l1.651-2.709l-1.456-2.487h0.67l0.779,1.331
		c0.16,0.274,0.272,0.487,0.338,0.642c0.091-0.186,0.204-0.383,0.338-0.592l0.862-1.381h0.606l-1.493,2.445l1.61,2.751h-0.695
		l-1.075-1.853c-0.06-0.104-0.121-0.22-0.182-0.349c-0.097,0.189-0.167,0.319-0.208,0.389l-1.069,1.812H44.148z"/>
	<path id="XMLID_55_" fill="#FFFFFF" d="M32.155,78.229l0.531-0.057c0.028,0.286,0.093,0.509,0.193,0.668
		c0.101,0.159,0.244,0.288,0.431,0.385c0.187,0.097,0.397,0.146,0.631,0.146c0.336,0,0.596-0.082,0.781-0.246
		C34.908,78.961,35,78.748,35,78.486c0-0.153-0.034-0.287-0.101-0.401c-0.067-0.114-0.169-0.208-0.305-0.281
		c-0.136-0.073-0.429-0.176-0.881-0.31c-0.401-0.119-0.688-0.239-0.858-0.359c-0.17-0.121-0.303-0.274-0.397-0.459
		c-0.095-0.186-0.142-0.396-0.142-0.63c0-0.42,0.136-0.764,0.407-1.031c0.272-0.267,0.638-0.4,1.099-0.4
		c0.317,0,0.594,0.062,0.832,0.188c0.237,0.126,0.421,0.306,0.553,0.539c0.131,0.234,0.201,0.51,0.211,0.826l-0.542,0.05
		c-0.028-0.338-0.129-0.589-0.303-0.752c-0.174-0.163-0.418-0.244-0.732-0.244c-0.319,0-0.562,0.071-0.73,0.214
		c-0.167,0.144-0.251,0.328-0.251,0.555c0,0.211,0.061,0.373,0.184,0.489c0.123,0.116,0.399,0.233,0.829,0.352
		c0.42,0.116,0.715,0.218,0.885,0.303c0.26,0.133,0.456,0.308,0.589,0.523c0.132,0.216,0.199,0.474,0.199,0.774
		c0,0.298-0.07,0.568-0.209,0.812c-0.14,0.244-0.329,0.43-0.569,0.558c-0.24,0.127-0.529,0.191-0.867,0.191
		c-0.527,0-0.947-0.158-1.26-0.476C32.329,79.199,32.167,78.771,32.155,78.229z"/>
	<path id="XMLID_56_" fill="#FFFFFF" d="M36.312,79.902v-5.196h1.605c0.378,0,0.657,0.033,0.836,0.1
		c0.246,0.09,0.442,0.257,0.588,0.5c0.146,0.243,0.22,0.542,0.22,0.896c0,0.468-0.119,0.85-0.358,1.145
		c-0.239,0.296-0.651,0.443-1.237,0.443h-1.092v2.112H36.312z M36.875,77.177h1.103c0.347,0,0.601-0.078,0.762-0.235
		c0.161-0.157,0.241-0.395,0.241-0.711c0-0.205-0.04-0.382-0.119-0.528c-0.079-0.146-0.175-0.246-0.287-0.301
		c-0.112-0.055-0.315-0.082-0.608-0.082h-1.092V77.177z"/>
	<path id="XMLID_57_" fill="#FFFFFF" d="M40.295,79.902v-5.196h3.08v0.613h-2.517v1.588h2.357v0.613h-2.357v1.769h2.616v0.613
		H40.295z"/>
	<path id="XMLID_58_" fill="#FFFFFF" d="M44.241,79.902v-5.196h1.471c0.364,0,0.64,0.032,0.829,0.096
		c0.248,0.083,0.463,0.234,0.645,0.454c0.182,0.22,0.324,0.497,0.425,0.831c0.102,0.334,0.153,0.73,0.153,1.189
		c0,0.588-0.086,1.087-0.259,1.497c-0.173,0.41-0.394,0.7-0.665,0.872c-0.271,0.171-0.625,0.257-1.062,0.257H44.241z M44.804,79.289
		h0.907c0.366,0,0.644-0.06,0.833-0.179c0.189-0.119,0.334-0.312,0.436-0.576c0.135-0.352,0.202-0.774,0.202-1.266
		c0-0.526-0.071-0.94-0.214-1.242c-0.143-0.301-0.327-0.502-0.551-0.604c-0.151-0.069-0.391-0.104-0.719-0.104h-0.893V79.289z"/>
</g>
<g id="XMLID_59_">
	<g id="XMLID_1057_">
		<path id="XMLID_1066_" fill="#FFFFFF" d="M13.171,111.372v-5.446h0.889l1.059,3.855l0.212,0.804
			c0.052-0.196,0.131-0.489,0.238-0.87l1.07-3.789h0.794v5.446h-0.568v-4.555l-1.301,4.555h-0.532l-1.294-4.632v4.632H13.171z"/>
		<path id="XMLID_1063_" fill="#FFFFFF" d="M18.218,108.718c0-0.928,0.205-1.643,0.613-2.138c0.408-0.502,0.917-0.75,1.526-0.75
			c0.394,0,0.753,0.113,1.076,0.333c0.325,0.224,0.582,0.548,0.771,0.973c0.189,0.423,0.284,0.931,0.284,1.517
			c0,0.807-0.184,1.464-0.549,1.974c-0.405,0.559-0.933,0.837-1.586,0.837c-0.66,0-1.188-0.284-1.589-0.863
			C18.4,110.082,18.218,109.455,18.218,108.718z M18.827,108.729c0,0.672,0.148,1.191,0.443,1.564
			c0.296,0.369,0.657,0.557,1.08,0.557c0.433,0,0.796-0.192,1.09-0.563c0.294-0.374,0.44-0.927,0.44-1.648
			c0-0.474-0.077-0.889-0.227-1.259c-0.116-0.281-0.292-0.508-0.525-0.679c-0.234-0.169-0.49-0.253-0.767-0.253
			c-0.446,0-0.812,0.185-1.101,0.556C18.972,107.374,18.827,107.95,18.827,108.729z"/>
		<path id="XMLID_1060_" fill="#FFFFFF" d="M23.224,111.372v-5.446h1.541c0.381,0,0.67,0.034,0.869,0.101
			c0.261,0.088,0.485,0.247,0.677,0.475c0.189,0.231,0.339,0.52,0.445,0.87c0.107,0.351,0.16,0.768,0.16,1.247
			c0,0.617-0.091,1.142-0.271,1.569c-0.181,0.431-0.413,0.734-0.697,0.912c-0.283,0.18-0.654,0.272-1.111,0.272H23.224z
			 M23.814,110.729h0.951c0.384,0,0.675-0.063,0.872-0.188c0.198-0.124,0.351-0.329,0.457-0.603c0.141-0.37,0.212-0.813,0.212-1.327
			c0-0.553-0.075-0.987-0.225-1.302c-0.149-0.314-0.343-0.525-0.577-0.632c-0.158-0.074-0.409-0.11-0.754-0.11h-0.936V110.729z"/>
		<path id="XMLID_1058_" fill="#FFFFFF" d="M27.75,111.372v-5.446h3.228v0.642h-2.636v1.664h2.469v0.644h-2.469v1.854h2.74v0.644
			H27.75z"/>
	</g>
</g>
<linearGradient id="XMLID_70_" gradientUnits="userSpaceOnUse" x1="20.3599" y1="38.3926" x2="30.2222" y2="38.3926">
	<stop  offset="0" style="stop-color:#4D4D4D"/>
	<stop  offset="1" style="stop-color:#333333"/>
</linearGradient>
<ellipse id="XMLID_912_" fill="url(#XMLID_70_)" cx="25.291" cy="38.393" rx="4.931" ry="2.193"/>
<linearGradient id="XMLID_71_" gradientUnits="userSpaceOnUse" x1="20.3599" y1="46.2559" x2="30.2222" y2="46.2559">
	<stop  offset="0" style="stop-color:#4D4D4D"/>
	<stop  offset="1" style="stop-color:#333333"/>
</linearGradient>
<ellipse id="XMLID_911_" fill="url(#XMLID_71_)" cx="25.291" cy="46.256" rx="4.931" ry="2.193"/>
<linearGradient id="XMLID_72_" gradientUnits="userSpaceOnUse" x1="20.3599" y1="61.075" x2="30.2222" y2="61.075">
	<stop  offset="0" style="stop-color:#4D4D4D"/>
	<stop  offset="1" style="stop-color:#333333"/>
</linearGradient>
<ellipse id="XMLID_910_" fill="url(#XMLID_72_)" cx="25.291" cy="61.075" rx="4.931" ry="2.192"/>
<linearGradient id="XMLID_73_" gradientUnits="userSpaceOnUse" x1="20.3599" y1="69.544" x2="30.2222" y2="69.544">
	<stop  offset="0" style="stop-color:#4D4D4D"/>
	<stop  offset="1" style="stop-color:#333333"/>
</linearGradient>
<ellipse id="XMLID_909_" fill="url(#XMLID_73_)" cx="25.291" cy="69.544" rx="4.931" ry="2.193"/>
<linearGradient id="XMLID_74_" gradientUnits="userSpaceOnUse" x1="20.3599" y1="78.0122" x2="30.2222" y2="78.0122">
	<stop  offset="0" style="stop-color:#4D4D4D"/>
	<stop  offset="1" style="stop-color:#333333"/>
</linearGradient>
<ellipse id="XMLID_908_" fill="url(#XMLID_74_)" cx="25.291" cy="78.013" rx="4.931" ry="2.192"/>
<linearGradient id="XMLID_75_" gradientUnits="userSpaceOnUse" x1="20.3599" y1="86.4809" x2="30.2222" y2="86.4809">
	<stop  offset="0" style="stop-color:#4D4D4D"/>
	<stop  offset="1" style="stop-color:#333333"/>
</linearGradient>
<ellipse id="XMLID_907_" fill="url(#XMLID_75_)" cx="25.291" cy="86.48" rx="4.931" ry="2.193"/>
<linearGradient id="XMLID_76_" gradientUnits="userSpaceOnUse" x1="20.3599" y1="94.9488" x2="30.2222" y2="94.9488">
	<stop  offset="0" style="stop-color:#4D4D4D"/>
	<stop  offset="1" style="stop-color:#333333"/>
</linearGradient>
<ellipse id="XMLID_906_" fill="url(#XMLID_76_)" cx="25.291" cy="94.949" rx="4.931" ry="2.192"/>
<rect id="XMLID_905_" x="595.458" y="12.362" fill="#FFF57F" width="38.082" height="8.25"/>
<rect id="XMLID_904_" x="635.105" y="12.362" fill="#FFF57F" width="38.082" height="8.25"/>
<rect id="XMLID_903_" x="674.752" y="12.362" fill="#FFF57F" width="38.082" height="8.25"/>
<rect id="XMLID_902_" x="714.398" y="12.362" fill="#FFF57F" width="38.082" height="8.25"/>
<rect id="XMLID_901_" x="754.044" y="12.362" fill="#FFF57F" width="38.082" height="8.25"/>
<rect id="XMLID_900_" x="793.691" y="12.362" fill="#FFF57F" width="38.082" height="8.25"/>
<rect id="XMLID_899_" x="856.958" y="12.362" fill="#FFF57F" width="38.082" height="8.25"/>
<rect id="XMLID_898_" x="896.605" y="12.362" fill="#FFF57F" width="38.082" height="8.25"/>
<rect id="XMLID_897_" x="936.252" y="12.362" fill="#FFF57F" width="38.082" height="8.25"/>
<rect id="XMLID_896_" x="975.898" y="12.362" fill="#FFF57F" width="38.082" height="8.25"/>
<rect id="XMLID_895_" x="1015.544" y="12.362" fill="#FFF57F" width="38.082" height="8.25"/>
<rect id="XMLID_894_" x="1055.191" y="12.362" fill="#FFF57F" width="38.082" height="8.25"/>
<g id="XMLID_893_">
	<rect id="XMLID_86_" x="1126.997" y="74.089" fill="#C8C9CA" width="45.172" height="29.047"/>
	<path id="XMLID_65_" fill="#231815" d="M1171.693,74.565v28.094h-44.219V74.565H1171.693 M1172.646,73.612h-46.125v30h46.125
		V73.612L1172.646,73.612z"/>
</g>
<g id="XMLID_892_">
	<path id="XMLID_105_" fill="#FFF57F" d="M1172.75,73.54v35.822h-46.25V73.54H1172.75 M1174.75,71.54h-50.25v39.822h50.25V71.54
		L1174.75,71.54z"/>
</g>
<rect id="XMLID_891_" x="1124.708" y="103.612" fill="#FFF57F" width="50.25" height="7.75"/>
<g id="XMLID_865_">
	<rect id="XMLID_104_" x="1194.497" y="74.089" fill="#C8C9CA" width="45.172" height="29.047"/>
	<path id="XMLID_101_" fill="#231815" d="M1239.193,74.565v28.094h-44.219V74.565H1239.193 M1240.146,73.612h-46.125v30h46.125
		V73.612L1240.146,73.612z"/>
</g>
<g id="XMLID_864_">
	<path id="XMLID_98_" fill="#FFF57F" d="M1240.25,73.54v35.822H1194V73.54H1240.25 M1242.25,71.54H1192v39.822h50.25V71.54
		L1242.25,71.54z"/>
</g>
<rect id="XMLID_863_" x="1192.208" y="103.612" fill="#FFF57F" width="50.25" height="7.75"/>
<g id="XMLID_96_" opacity="0.3">
	<polygon id="XMLID_837_" fill="#FFFFFF" points="1179.44,76.276 1187.497,79.563 1187.497,72.99 	"/>
	<polygon id="XMLID_836_" fill="#FFFFFF" points="1187.497,90.762 1179.44,87.475 1179.44,94.048 	"/>
</g>
<g id="XMLID_97_" opacity="0.3">
	<polygon id="XMLID_835_" fill="#FFFFFF" points="623.286,27.88 621.019,22.324 625.552,22.324 	"/>
	<polygon id="XMLID_834_" fill="#FFFFFF" points="606.237,22.324 608.504,27.88 603.971,27.88 	"/>
</g>
<g id="XMLID_108_" opacity="0.3">
	<polygon id="XMLID_833_" fill="#FFFFFF" points="663.123,27.88 660.855,22.324 665.389,22.324 	"/>
	<polygon id="XMLID_832_" fill="#FFFFFF" points="646.074,22.324 648.341,27.88 643.808,27.88 	"/>
</g>
<g id="XMLID_109_" opacity="0.3">
	<polygon id="XMLID_831_" fill="#FFFFFF" points="702.959,27.88 700.692,22.324 705.226,22.324 	"/>
	<polygon id="XMLID_830_" fill="#FFFFFF" points="685.911,22.324 688.178,27.88 683.645,27.88 	"/>
</g>
<g id="XMLID_110_" opacity="0.3">
	<polygon id="XMLID_829_" fill="#FFFFFF" points="742.795,27.88 740.528,22.324 745.062,22.324 	"/>
	<polygon id="XMLID_828_" fill="#FFFFFF" points="725.747,22.324 728.014,27.88 723.481,27.88 	"/>
</g>
<g id="XMLID_111_" opacity="0.3">
	<polygon id="XMLID_827_" fill="#FFFFFF" points="782.632,27.88 780.365,22.324 784.899,22.324 	"/>
	<polygon id="XMLID_826_" fill="#FFFFFF" points="765.583,22.324 767.851,27.88 763.318,27.88 	"/>
</g>
<g id="XMLID_112_" opacity="0.3">
	<polygon id="XMLID_825_" fill="#FFFFFF" points="822.469,27.88 820.202,22.324 824.736,22.324 	"/>
	<polygon id="XMLID_824_" fill="#FFFFFF" points="805.42,22.324 807.688,27.88 803.155,27.88 	"/>
</g>
<g id="XMLID_113_" opacity="0.3">
	<polygon id="XMLID_823_" fill="#FFFFFF" points="885.4,27.88 883.132,22.324 887.667,22.324 	"/>
	<polygon id="XMLID_822_" fill="#FFFFFF" points="868.351,22.324 870.619,27.88 866.086,27.88 	"/>
</g>
<g id="XMLID_114_" opacity="0.3">
	<polygon id="XMLID_821_" fill="#FFFFFF" points="925.237,27.88 922.969,22.324 927.503,22.324 	"/>
	<polygon id="XMLID_820_" fill="#FFFFFF" points="908.188,22.324 910.456,27.88 905.922,27.88 	"/>
</g>
<g id="XMLID_115_" opacity="0.3">
	<polygon id="XMLID_819_" fill="#FFFFFF" points="965.074,27.88 962.806,22.324 967.34,22.324 	"/>
	<polygon id="XMLID_818_" fill="#FFFFFF" points="948.025,22.324 950.292,27.88 945.759,27.88 	"/>
</g>
<g id="XMLID_116_" opacity="0.3">
	<polygon id="XMLID_817_" fill="#FFFFFF" points="1004.91,27.88 1002.642,22.324 1007.176,22.324 	"/>
	<polygon id="XMLID_816_" fill="#FFFFFF" points="987.861,22.324 990.128,27.88 985.595,27.88 	"/>
</g>
<g id="XMLID_117_" opacity="0.3">
	<polygon id="XMLID_815_" fill="#FFFFFF" points="1044.747,27.88 1042.479,22.324 1047.013,22.324 	"/>
	<polygon id="XMLID_814_" fill="#FFFFFF" points="1027.698,22.324 1029.965,27.88 1025.432,27.88 	"/>
</g>
<g id="XMLID_118_" opacity="0.3">
	<polygon id="XMLID_813_" fill="#FFFFFF" points="1084.583,27.88 1082.316,22.324 1086.85,22.324 	"/>
	<polygon id="XMLID_812_" fill="#FFFFFF" points="1067.535,22.324 1069.802,27.88 1065.269,27.88 	"/>
</g>
<path id="XMLID_811_" fill="#C8C9CA" stroke="#231815" stroke-width="2" stroke-miterlimit="10" d="M831.277,35.635
	c0-1.559-1.275-2.834-2.835-2.834H601.377c-1.559,0-2.835,1.275-2.835,2.834v2.339c0,1.559-1.275,2.834-2.834,2.834h-2.339
	c-1.559,0-2.835,1.275-2.835,2.834v49.121c0,1.559,1.275,2.835,2.835,2.835h2.339c1.559,0,2.834,1.275,2.834,2.835v2.338
	c0,1.56,1.275,2.835,2.835,2.835h227.065c1.56,0,2.835-1.275,2.835-2.835v-2.338c0-1.56,1.275-2.835,2.835-2.835h2.338
	c1.56,0,2.835-1.275,2.835-2.835V43.643c0-1.559-1.275-2.834-2.835-2.834h-2.338c-1.56,0-2.835-1.275-2.835-2.834V35.635z"/>
<path id="XMLID_810_" fill="#C8C9CA" stroke="#231815" stroke-width="2" stroke-miterlimit="10" d="M1094.477,35.635
	c0-1.559-1.275-2.834-2.835-2.834H864.577c-1.56,0-2.835,1.275-2.835,2.834v2.339c0,1.559-1.275,2.834-2.834,2.834h-2.339
	c-1.56,0-2.835,1.275-2.835,2.834v49.121c0,1.559,1.275,2.835,2.835,2.835h2.339c1.559,0,2.834,1.275,2.834,2.835v2.338
	c0,1.56,1.275,2.835,2.835,2.835h227.065c1.56,0,2.835-1.275,2.835-2.835v-2.338c0-1.56,1.275-2.835,2.835-2.835h2.338
	c1.56,0,2.835-1.275,2.835-2.835V43.643c0-1.559-1.275-2.834-2.835-2.834h-2.338c-1.56,0-2.835-1.275-2.835-2.834V35.635z"/>
<g id="XMLID_119_">
	<rect id="XMLID_809_" x="594.208" y="106.862" fill="#FFF57F" width="2.315" height="5.669"/>
	<rect id="XMLID_808_" x="599.801" y="106.862" fill="#FFF57F" width="2.314" height="5.669"/>
	<rect id="XMLID_807_" x="605.394" y="106.862" fill="#FFF57F" width="2.314" height="5.669"/>
	<rect id="XMLID_806_" x="610.987" y="106.862" fill="#FFF57F" width="2.314" height="5.669"/>
	<rect id="XMLID_805_" x="616.58" y="106.862" fill="#FFF57F" width="2.314" height="5.669"/>
	<rect id="XMLID_804_" x="622.172" y="106.862" fill="#FFF57F" width="2.314" height="5.669"/>
	<rect id="XMLID_803_" x="627.765" y="106.862" fill="#FFF57F" width="2.315" height="5.669"/>
	<rect id="XMLID_802_" x="633.358" y="106.862" fill="#FFF57F" width="2.315" height="5.669"/>
	<rect id="XMLID_801_" x="638.951" y="106.862" fill="#FFF57F" width="2.314" height="5.669"/>
	<rect id="XMLID_800_" x="644.544" y="106.862" fill="#FFF57F" width="2.314" height="5.669"/>
	<rect id="XMLID_799_" x="650.136" y="106.862" fill="#FFF57F" width="2.315" height="5.669"/>
	<rect id="XMLID_798_" x="655.729" y="106.862" fill="#FFF57F" width="2.315" height="5.669"/>
	<rect id="XMLID_797_" x="661.322" y="106.862" fill="#FFF57F" width="2.314" height="5.669"/>
	<rect id="XMLID_796_" x="666.915" y="106.862" fill="#FFF57F" width="2.314" height="5.669"/>
	<rect id="XMLID_795_" x="672.507" y="106.862" fill="#FFF57F" width="2.315" height="5.669"/>
	<rect id="XMLID_794_" x="678.1" y="106.862" fill="#FFF57F" width="2.315" height="5.669"/>
	<rect id="XMLID_793_" x="683.693" y="106.862" fill="#FFF57F" width="2.314" height="5.669"/>
	<rect id="XMLID_792_" x="689.286" y="106.862" fill="#FFF57F" width="2.315" height="5.669"/>
	<rect id="XMLID_791_" x="694.878" y="106.862" fill="#FFF57F" width="2.315" height="5.669"/>
	<rect id="XMLID_790_" x="700.471" y="106.862" fill="#FFF57F" width="2.314" height="5.669"/>
	<rect id="XMLID_789_" x="706.064" y="106.862" fill="#FFF57F" width="2.314" height="5.669"/>
	<rect id="XMLID_788_" x="711.657" y="106.862" fill="#FFF57F" width="2.315" height="5.669"/>
	<rect id="XMLID_787_" x="717.25" y="106.862" fill="#FFF57F" width="2.314" height="5.669"/>
	<rect id="XMLID_786_" x="722.842" y="106.862" fill="#FFF57F" width="2.314" height="5.669"/>
	<rect id="XMLID_785_" x="728.435" y="106.862" fill="#FFF57F" width="2.314" height="5.669"/>
	<rect id="XMLID_784_" x="734.028" y="106.862" fill="#FFF57F" width="2.314" height="5.669"/>
	<rect id="XMLID_783_" x="739.621" y="106.862" fill="#FFF57F" width="2.314" height="5.669"/>
	<rect id="XMLID_782_" x="745.213" y="106.862" fill="#FFF57F" width="2.314" height="5.669"/>
	<rect id="XMLID_781_" x="750.806" y="106.862" fill="#FFF57F" width="2.314" height="5.669"/>
	<rect id="XMLID_780_" x="756.399" y="106.862" fill="#FFF57F" width="2.314" height="5.669"/>
	<rect id="XMLID_779_" x="761.992" y="106.862" fill="#FFF57F" width="2.314" height="5.669"/>
	<rect id="XMLID_778_" x="767.584" y="106.862" fill="#FFF57F" width="2.314" height="5.669"/>
	<rect id="XMLID_777_" x="773.177" y="106.862" fill="#FFF57F" width="2.314" height="5.669"/>
	<rect id="XMLID_776_" x="778.77" y="106.862" fill="#FFF57F" width="2.315" height="5.669"/>
	<rect id="XMLID_775_" x="784.363" y="106.862" fill="#FFF57F" width="2.314" height="5.669"/>
	<rect id="XMLID_774_" x="789.956" y="106.862" fill="#FFF57F" width="2.314" height="5.669"/>
	<rect id="XMLID_773_" x="795.548" y="106.862" fill="#FFF57F" width="2.314" height="5.669"/>
	<rect id="XMLID_772_" x="801.141" y="106.862" fill="#FFF57F" width="2.314" height="5.669"/>
	<rect id="XMLID_771_" x="806.734" y="106.862" fill="#FFF57F" width="2.314" height="5.669"/>
	<rect id="XMLID_770_" x="812.327" y="106.862" fill="#FFF57F" width="2.314" height="5.669"/>
	<rect id="XMLID_769_" x="817.919" y="106.862" fill="#FFF57F" width="2.314" height="5.669"/>
	<rect id="XMLID_768_" x="823.512" y="106.862" fill="#FFF57F" width="2.314" height="5.669"/>
	<rect id="XMLID_767_" x="829.105" y="106.862" fill="#FFF57F" width="2.314" height="5.669"/>
	<rect id="XMLID_766_" x="834.698" y="106.862" fill="#FFF57F" width="2.314" height="5.669"/>
</g>
<g id="XMLID_120_">
	<rect id="XMLID_765_" x="857.171" y="106.862" fill="#FFF57F" width="2.314" height="5.669"/>
	<rect id="XMLID_764_" x="862.764" y="106.862" fill="#FFF57F" width="2.314" height="5.669"/>
	<rect id="XMLID_763_" x="868.357" y="106.862" fill="#FFF57F" width="2.314" height="5.669"/>
	<rect id="XMLID_762_" x="873.95" y="106.862" fill="#FFF57F" width="2.314" height="5.669"/>
	<rect id="XMLID_761_" x="879.542" y="106.862" fill="#FFF57F" width="2.314" height="5.669"/>
	<rect id="XMLID_760_" x="885.135" y="106.862" fill="#FFF57F" width="2.314" height="5.669"/>
	<rect id="XMLID_759_" x="890.728" y="106.862" fill="#FFF57F" width="2.315" height="5.669"/>
	<rect id="XMLID_758_" x="896.321" y="106.862" fill="#FFF57F" width="2.314" height="5.669"/>
	<rect id="XMLID_757_" x="901.914" y="106.862" fill="#FFF57F" width="2.314" height="5.669"/>
	<rect id="XMLID_756_" x="907.506" y="106.862" fill="#FFF57F" width="2.314" height="5.669"/>
	<rect id="XMLID_755_" x="913.099" y="106.862" fill="#FFF57F" width="2.314" height="5.669"/>
	<rect id="XMLID_754_" x="918.692" y="106.862" fill="#FFF57F" width="2.314" height="5.669"/>
	<rect id="XMLID_753_" x="924.285" y="106.862" fill="#FFF57F" width="2.314" height="5.669"/>
	<rect id="XMLID_752_" x="929.877" y="106.862" fill="#FFF57F" width="2.314" height="5.669"/>
	<rect id="XMLID_751_" x="935.47" y="106.862" fill="#FFF57F" width="2.314" height="5.669"/>
	<rect id="XMLID_750_" x="941.063" y="106.862" fill="#FFF57F" width="2.314" height="5.669"/>
	<rect id="XMLID_749_" x="946.656" y="106.862" fill="#FFF57F" width="2.314" height="5.669"/>
	<rect id="XMLID_748_" x="952.248" y="106.862" fill="#FFF57F" width="2.314" height="5.669"/>
	<rect id="XMLID_747_" x="957.841" y="106.862" fill="#FFF57F" width="2.314" height="5.669"/>
	<rect id="XMLID_746_" x="963.434" y="106.862" fill="#FFF57F" width="2.314" height="5.669"/>
	<rect id="XMLID_745_" x="969.027" y="106.862" fill="#FFF57F" width="2.314" height="5.669"/>
	<rect id="XMLID_744_" x="974.62" y="106.862" fill="#FFF57F" width="2.314" height="5.669"/>
	<rect id="XMLID_743_" x="980.212" y="106.862" fill="#FFF57F" width="2.314" height="5.669"/>
	<rect id="XMLID_742_" x="985.805" y="106.862" fill="#FFF57F" width="2.314" height="5.669"/>
	<rect id="XMLID_741_" x="991.398" y="106.862" fill="#FFF57F" width="2.314" height="5.669"/>
	<rect id="XMLID_740_" x="996.991" y="106.862" fill="#FFF57F" width="2.314" height="5.669"/>
	<rect id="XMLID_739_" x="1002.583" y="106.862" fill="#FFF57F" width="2.314" height="5.669"/>
	<rect id="XMLID_738_" x="1008.176" y="106.862" fill="#FFF57F" width="2.314" height="5.669"/>
	<rect id="XMLID_737_" x="1013.769" y="106.862" fill="#FFF57F" width="2.315" height="5.669"/>
	<rect id="XMLID_736_" x="1019.362" y="106.862" fill="#FFF57F" width="2.314" height="5.669"/>
	<rect id="XMLID_735_" x="1024.955" y="106.862" fill="#FFF57F" width="2.314" height="5.669"/>
	<rect id="XMLID_734_" x="1030.547" y="106.862" fill="#FFF57F" width="2.314" height="5.669"/>
	<rect id="XMLID_733_" x="1036.14" y="106.862" fill="#FFF57F" width="2.314" height="5.669"/>
	<rect id="XMLID_732_" x="1041.733" y="106.862" fill="#FFF57F" width="2.314" height="5.669"/>
	<rect id="XMLID_731_" x="1047.326" y="106.862" fill="#FFF57F" width="2.314" height="5.669"/>
	<rect id="XMLID_730_" x="1052.918" y="106.862" fill="#FFF57F" width="2.314" height="5.669"/>
	<rect id="XMLID_729_" x="1058.511" y="106.862" fill="#FFF57F" width="2.314" height="5.669"/>
	<rect id="XMLID_728_" x="1064.104" y="106.862" fill="#FFF57F" width="2.315" height="5.669"/>
	<rect id="XMLID_727_" x="1069.697" y="106.862" fill="#FFF57F" width="2.314" height="5.669"/>
	<rect id="XMLID_726_" x="1075.29" y="106.862" fill="#FFF57F" width="2.314" height="5.669"/>
	<rect id="XMLID_725_" x="1080.882" y="106.862" fill="#FFF57F" width="2.314" height="5.669"/>
	<rect id="XMLID_724_" x="1086.475" y="106.862" fill="#FFF57F" width="2.314" height="5.669"/>
	<rect id="XMLID_723_" x="1092.068" y="106.862" fill="#FFF57F" width="2.314" height="5.669"/>
	<rect id="XMLID_722_" x="1097.661" y="106.862" fill="#FFF57F" width="2.314" height="5.669"/>
</g>
<g id="XMLID_121_">
	<path id="XMLID_122_" fill="#FFFFFF" d="M852.896,34.812h-0.649v-2.989c-0.243,0.272-0.523,0.473-0.842,0.6v-0.72
		c0.181-0.073,0.368-0.204,0.562-0.393c0.193-0.188,0.328-0.405,0.403-0.651h0.525V34.812z"/>
	<path id="XMLID_123_" fill="#FFFFFF" d="M853.844,33.716l0.63-0.093c0.017,0.194,0.07,0.344,0.161,0.446
		c0.091,0.103,0.197,0.155,0.319,0.155c0.135,0,0.248-0.062,0.34-0.184c0.093-0.123,0.139-0.292,0.139-0.509
		c0-0.201-0.044-0.359-0.133-0.474c-0.089-0.115-0.196-0.173-0.323-0.173c-0.083,0-0.182,0.021-0.297,0.06l0.07-0.646
		c0.168,0.004,0.302-0.041,0.4-0.135c0.096-0.094,0.145-0.227,0.145-0.397c0-0.143-0.035-0.255-0.106-0.335
		c-0.069-0.081-0.159-0.121-0.268-0.121c-0.109,0-0.204,0.046-0.285,0.14c-0.08,0.093-0.128,0.23-0.142,0.413l-0.602-0.124
		c0.062-0.378,0.184-0.653,0.365-0.824c0.181-0.171,0.408-0.257,0.684-0.257c0.309,0,0.555,0.11,0.736,0.33
		c0.182,0.22,0.272,0.463,0.272,0.729c0,0.181-0.041,0.343-0.122,0.487c-0.082,0.146-0.205,0.272-0.369,0.381
		c0.19,0.051,0.345,0.163,0.465,0.336c0.119,0.173,0.179,0.39,0.179,0.65c0,0.378-0.112,0.691-0.337,0.938
		c-0.225,0.247-0.493,0.371-0.805,0.371c-0.298,0-0.55-0.104-0.756-0.312C853.998,34.361,853.878,34.076,853.844,33.716z"/>
	<path id="XMLID_124_" fill="#FFFFFF" d="M856.305,34.812l1.173-2.154l-1.065-1.984h0.8l0.673,1.238l0.676-1.238h0.793l-1.065,1.98
		l1.172,2.159h-0.826l-0.753-1.402l-0.755,1.402H856.305z"/>
</g>
<g id="XMLID_125_">
	<path id="XMLID_126_" fill="#FFFFFF" d="M852.896,103.606h-0.649v-2.989c-0.243,0.272-0.523,0.473-0.842,0.601v-0.72
		c0.181-0.073,0.368-0.204,0.562-0.393c0.193-0.188,0.328-0.405,0.403-0.651h0.525V103.606z"/>
	<path id="XMLID_127_" fill="#FFFFFF" d="M855.143,103.606v-0.833h-1.389v-0.694l1.471-2.625h0.547v2.622h0.421v0.697h-0.421v0.833
		H855.143z M855.143,102.076v-1.412l-0.779,1.412H855.143z"/>
	<path id="XMLID_128_" fill="#FFFFFF" d="M856.305,103.606l1.173-2.154l-1.065-1.984h0.8l0.673,1.238l0.676-1.238h0.793l-1.065,1.98
		l1.172,2.159h-0.826l-0.753-1.402l-0.755,1.402H856.305z"/>
</g>
<g id="XMLID_129_">
	<path id="XMLID_130_" fill="#FFFFFF" d="M1098.929,34.074v0.737h-2.281c0.024-0.278,0.1-0.543,0.225-0.794
		c0.125-0.251,0.368-0.581,0.729-0.989c0.286-0.325,0.462-0.545,0.528-0.659c0.098-0.168,0.146-0.336,0.146-0.505
		c0-0.181-0.04-0.317-0.121-0.409c-0.081-0.092-0.188-0.139-0.319-0.139c-0.288,0-0.443,0.216-0.466,0.646l-0.646-0.079
		c0.04-0.421,0.157-0.731,0.352-0.929c0.195-0.197,0.454-0.296,0.778-0.296c0.355,0,0.623,0.115,0.804,0.347
		c0.181,0.231,0.271,0.497,0.271,0.796c0,0.169-0.023,0.333-0.069,0.492c-0.046,0.158-0.117,0.318-0.213,0.479
		c-0.096,0.16-0.256,0.365-0.48,0.616c-0.208,0.234-0.341,0.39-0.396,0.465s-0.1,0.148-0.134,0.22H1098.929z"/>
	<path id="XMLID_131_" fill="#FFFFFF" d="M1099.344,33.716l0.63-0.093c0.017,0.194,0.07,0.344,0.161,0.446
		c0.091,0.103,0.197,0.155,0.319,0.155c0.135,0,0.248-0.062,0.34-0.184c0.093-0.123,0.139-0.292,0.139-0.509
		c0-0.201-0.044-0.359-0.133-0.474c-0.089-0.115-0.196-0.173-0.323-0.173c-0.083,0-0.182,0.021-0.297,0.06l0.07-0.646
		c0.168,0.004,0.302-0.041,0.4-0.135c0.096-0.094,0.145-0.227,0.145-0.397c0-0.143-0.035-0.255-0.105-0.335
		c-0.069-0.081-0.159-0.121-0.269-0.121s-0.204,0.046-0.285,0.14c-0.08,0.093-0.128,0.23-0.143,0.413l-0.602-0.124
		c0.062-0.378,0.184-0.653,0.365-0.824c0.181-0.171,0.408-0.257,0.684-0.257c0.309,0,0.555,0.11,0.736,0.33
		c0.182,0.22,0.272,0.463,0.272,0.729c0,0.181-0.041,0.343-0.122,0.487c-0.082,0.146-0.205,0.272-0.369,0.381
		c0.19,0.051,0.345,0.163,0.465,0.336c0.119,0.173,0.179,0.39,0.179,0.65c0,0.378-0.112,0.691-0.337,0.938
		c-0.226,0.247-0.493,0.371-0.805,0.371c-0.298,0-0.55-0.104-0.756-0.312S1099.378,34.076,1099.344,33.716z"/>
	<path id="XMLID_132_" fill="#FFFFFF" d="M1101.805,34.812l1.173-2.154l-1.065-1.984h0.8l0.673,1.238l0.676-1.238h0.793l-1.065,1.98
		l1.172,2.159h-0.826l-0.753-1.402l-0.755,1.402H1101.805z"/>
</g>
<g id="XMLID_133_">
	<path id="XMLID_134_" fill="#FFFFFF" d="M1098.929,102.869v0.737h-2.281c0.024-0.278,0.1-0.543,0.225-0.794
		s0.368-0.581,0.729-0.989c0.286-0.325,0.462-0.545,0.528-0.659c0.098-0.168,0.146-0.336,0.146-0.505
		c0-0.181-0.04-0.317-0.121-0.409s-0.188-0.139-0.319-0.139c-0.288,0-0.443,0.216-0.466,0.646l-0.646-0.079
		c0.04-0.421,0.157-0.731,0.352-0.929c0.195-0.197,0.454-0.296,0.778-0.296c0.355,0,0.623,0.115,0.804,0.347
		c0.181,0.231,0.271,0.497,0.271,0.796c0,0.169-0.023,0.333-0.069,0.492c-0.046,0.158-0.117,0.318-0.213,0.479
		c-0.096,0.16-0.256,0.365-0.48,0.616c-0.208,0.234-0.341,0.39-0.396,0.465c-0.056,0.075-0.1,0.148-0.134,0.22H1098.929z"/>
	<path id="XMLID_135_" fill="#FFFFFF" d="M1100.643,103.606v-0.833h-1.389v-0.694l1.471-2.625h0.547v2.622h0.421v0.697h-0.421v0.833
		H1100.643z M1100.643,102.076v-1.412l-0.779,1.412H1100.643z"/>
	<path id="XMLID_136_" fill="#FFFFFF" d="M1101.805,103.606l1.173-2.154l-1.065-1.984h0.8l0.673,1.238l0.676-1.238h0.793
		l-1.065,1.98l1.172,2.159h-0.826l-0.753-1.402l-0.755,1.402H1101.805z"/>
</g>
<g id="XMLID_137_">
	<path id="XMLID_138_" fill="#FFFFFF" d="M592.882,34.812h-0.649v-2.989c-0.243,0.272-0.523,0.473-0.842,0.6v-0.72
		c0.181-0.073,0.368-0.204,0.562-0.393c0.193-0.188,0.328-0.405,0.403-0.651h0.525V34.812z"/>
	<path id="XMLID_139_" fill="#FFFFFF" d="M593.656,34.812l1.173-2.154l-1.065-1.984h0.8l0.673,1.238l0.676-1.238h0.793l-1.065,1.98
		l1.172,2.159h-0.826l-0.753-1.402l-0.755,1.402H593.656z"/>
</g>
<g id="XMLID_140_">
	<path id="XMLID_141_" fill="#FFFFFF" d="M593.416,102.869v0.737h-2.281c0.024-0.278,0.1-0.543,0.225-0.794s0.368-0.581,0.729-0.989
		c0.286-0.325,0.462-0.545,0.528-0.659c0.098-0.168,0.146-0.336,0.146-0.505c0-0.181-0.04-0.317-0.121-0.409
		c-0.081-0.092-0.188-0.139-0.319-0.139c-0.288,0-0.443,0.216-0.466,0.646l-0.646-0.079c0.04-0.421,0.157-0.731,0.352-0.929
		c0.195-0.197,0.454-0.296,0.778-0.296c0.356,0,0.623,0.115,0.804,0.347c0.181,0.231,0.272,0.497,0.272,0.796
		c0,0.169-0.023,0.333-0.069,0.492c-0.046,0.158-0.117,0.318-0.213,0.479c-0.096,0.16-0.256,0.365-0.481,0.616
		c-0.208,0.234-0.341,0.39-0.396,0.465c-0.056,0.075-0.1,0.148-0.134,0.22H593.416z"/>
	<path id="XMLID_142_" fill="#FFFFFF" d="M593.656,103.606l1.173-2.154l-1.065-1.984h0.8l0.673,1.238l0.676-1.238h0.793l-1.065,1.98
		l1.172,2.159h-0.826l-0.753-1.402l-0.755,1.402H593.656z"/>
</g>
<g id="XMLID_143_">
	<path id="XMLID_144_" fill="#FFFFFF" d="M836.005,34.812h-0.649v-2.989c-0.243,0.272-0.523,0.473-0.842,0.6v-0.72
		c0.181-0.073,0.368-0.204,0.562-0.393c0.193-0.188,0.328-0.405,0.403-0.651h0.525V34.812z"/>
	<path id="XMLID_145_" fill="#FFFFFF" d="M838.382,34.812h-0.649v-2.989c-0.243,0.272-0.523,0.473-0.842,0.6v-0.72
		c0.181-0.073,0.368-0.204,0.562-0.393c0.193-0.188,0.328-0.405,0.403-0.651h0.525V34.812z"/>
	<path id="XMLID_146_" fill="#FFFFFF" d="M839.155,34.812l1.173-2.154l-1.065-1.984h0.8l0.673,1.238l0.676-1.238h0.793l-1.065,1.98
		l1.172,2.159h-0.826l-0.753-1.402l-0.755,1.402H839.155z"/>
</g>
<g id="XMLID_147_">
	<path id="XMLID_148_" fill="#FFFFFF" d="M835.746,103.606h-0.649v-2.989c-0.243,0.272-0.523,0.473-0.842,0.601v-0.72
		c0.181-0.073,0.368-0.204,0.562-0.393c0.193-0.188,0.328-0.405,0.403-0.651h0.525V103.606z"/>
	<path id="XMLID_149_" fill="#FFFFFF" d="M838.916,102.869v0.737h-2.281c0.024-0.278,0.1-0.543,0.225-0.794s0.368-0.581,0.729-0.989
		c0.286-0.325,0.462-0.545,0.528-0.659c0.098-0.168,0.146-0.336,0.146-0.505c0-0.181-0.04-0.317-0.121-0.409
		c-0.081-0.092-0.188-0.139-0.319-0.139c-0.288,0-0.443,0.216-0.466,0.646l-0.646-0.079c0.04-0.421,0.157-0.731,0.352-0.929
		c0.195-0.197,0.454-0.296,0.778-0.296c0.356,0,0.623,0.115,0.804,0.347c0.181,0.231,0.272,0.497,0.272,0.796
		c0,0.169-0.023,0.333-0.069,0.492c-0.046,0.158-0.117,0.318-0.213,0.479c-0.096,0.16-0.256,0.365-0.481,0.616
		c-0.208,0.234-0.341,0.39-0.396,0.465c-0.056,0.075-0.1,0.148-0.134,0.22H838.916z"/>
	<path id="XMLID_150_" fill="#FFFFFF" d="M839.155,103.606l1.173-2.154l-1.065-1.984h0.8l0.673,1.238l0.676-1.238h0.793l-1.065,1.98
		l1.172,2.159h-0.826l-0.753-1.402l-0.755,1.402H839.155z"/>
</g>
<g id="XMLID_1349_">
	<path id="XMLID_1350_" fill="#231815" d="M606.297,19.01h-0.677v-3.116c-0.253,0.284-0.545,0.493-0.877,0.627v-0.75
		c0.188-0.077,0.384-0.213,0.586-0.41c0.202-0.196,0.342-0.423,0.42-0.679h0.547V19.01z"/>
	<path id="XMLID_1352_" fill="#231815" d="M624.716,18.242v0.768h-2.377c0.025-0.29,0.104-0.566,0.234-0.828s0.384-0.605,0.761-1.03
		c0.298-0.339,0.481-0.568,0.55-0.688c0.102-0.174,0.153-0.35,0.153-0.526c0-0.188-0.042-0.33-0.126-0.426
		c-0.084-0.096-0.195-0.144-0.333-0.144c-0.3,0-0.462,0.225-0.485,0.674l-0.674-0.083c0.041-0.439,0.163-0.762,0.366-0.968
		c0.203-0.206,0.473-0.309,0.811-0.309c0.371,0,0.65,0.121,0.838,0.362c0.188,0.241,0.283,0.517,0.283,0.829
		c0,0.176-0.024,0.347-0.072,0.513c-0.048,0.166-0.122,0.333-0.222,0.5c-0.1,0.167-0.267,0.381-0.5,0.642
		c-0.218,0.245-0.355,0.407-0.414,0.485c-0.058,0.078-0.104,0.155-0.14,0.229H624.716z"/>
</g>
<g id="XMLID_1354_">
	<path id="XMLID_1355_" fill="#231815" d="M644.122,17.869l0.655-0.097c0.018,0.203,0.074,0.358,0.169,0.466
		c0.094,0.107,0.205,0.161,0.333,0.161c0.14,0,0.258-0.064,0.354-0.191c0.096-0.127,0.144-0.304,0.144-0.53
		c0-0.209-0.047-0.375-0.139-0.494c-0.093-0.12-0.205-0.18-0.337-0.18c-0.087,0-0.19,0.021-0.311,0.062l0.074-0.674
		c0.175,0.004,0.314-0.043,0.417-0.141c0.101-0.098,0.15-0.236,0.15-0.414c0-0.148-0.036-0.265-0.109-0.349
		c-0.072-0.084-0.166-0.126-0.28-0.126c-0.114,0-0.213,0.049-0.297,0.146c-0.083,0.097-0.133,0.241-0.148,0.431l-0.627-0.129
		c0.064-0.394,0.191-0.681,0.38-0.859c0.189-0.179,0.426-0.268,0.713-0.268c0.322,0,0.578,0.115,0.767,0.344
		c0.19,0.229,0.284,0.483,0.284,0.761c0,0.188-0.043,0.357-0.128,0.508c-0.085,0.151-0.213,0.283-0.384,0.397
		c0.198,0.053,0.359,0.169,0.484,0.35c0.124,0.18,0.187,0.406,0.187,0.677c0,0.394-0.117,0.72-0.352,0.978
		c-0.234,0.258-0.514,0.387-0.838,0.387c-0.311,0-0.573-0.109-0.788-0.326C644.282,18.541,644.157,18.244,644.122,17.869z"/>
	<path id="XMLID_1357_" fill="#231815" d="M663.336,19.01v-0.868h-1.447v-0.724l1.533-2.736h0.57v2.733h0.439v0.727h-0.439v0.868
		H663.336z M663.336,17.416v-1.473l-0.812,1.473H663.336z"/>
</g>
<g id="XMLID_1360_">
	<path id="XMLID_1361_" fill="#231815" d="M683.74,17.901l0.677-0.088c0.018,0.188,0.075,0.336,0.174,0.444
		c0.098,0.108,0.206,0.162,0.323,0.162c0.14,0,0.259-0.069,0.359-0.207c0.1-0.138,0.15-0.35,0.15-0.636
		c0-0.271-0.05-0.47-0.149-0.599c-0.1-0.129-0.226-0.194-0.379-0.194c-0.194,0-0.369,0.104-0.524,0.315L683.82,17l0.347-2.245h1.792
		v0.774h-1.274l-0.11,0.732c0.153-0.092,0.309-0.138,0.466-0.138c0.278,0,0.515,0.11,0.71,0.33c0.245,0.28,0.368,0.65,0.368,1.109
		c0,0.379-0.104,0.727-0.313,1.044c-0.209,0.318-0.508,0.477-0.896,0.477c-0.314,0-0.576-0.103-0.787-0.308
		C683.91,18.571,683.783,18.28,683.74,17.901z"/>
	<path id="XMLID_1363_" fill="#231815" d="M703.888,15.753l-0.656,0.088c-0.031-0.319-0.16-0.479-0.387-0.479
		c-0.147,0-0.27,0.081-0.367,0.241c-0.098,0.161-0.159,0.485-0.185,0.974c0.085-0.122,0.179-0.213,0.283-0.274
		c0.104-0.06,0.219-0.091,0.345-0.091c0.277,0,0.518,0.128,0.726,0.386c0.206,0.258,0.309,0.6,0.309,1.027
		c0,0.455-0.108,0.811-0.326,1.07c-0.219,0.259-0.488,0.388-0.81,0.388c-0.354,0-0.646-0.168-0.879-0.504
		c-0.233-0.336-0.35-0.894-0.35-1.671c0-0.79,0.121-1.358,0.362-1.706c0.242-0.347,0.552-0.52,0.932-0.52
		c0.261,0,0.481,0.089,0.661,0.266C703.725,15.125,703.839,15.393,703.888,15.753z M702.352,17.559c0,0.272,0.051,0.48,0.152,0.624
		c0.102,0.144,0.217,0.216,0.347,0.216c0.126,0,0.23-0.06,0.314-0.179c0.084-0.12,0.126-0.315,0.126-0.587
		c0-0.282-0.046-0.488-0.136-0.617c-0.091-0.129-0.203-0.194-0.337-0.194c-0.13,0-0.24,0.061-0.33,0.185
		C702.398,17.129,702.352,17.313,702.352,17.559z"/>
</g>
<g id="XMLID_1366_">
	<path id="XMLID_1367_" fill="#231815" d="M723.312,15.524v-0.768h2.318v0.6c-0.19,0.229-0.383,0.556-0.578,0.978
		c-0.195,0.422-0.347,0.875-0.453,1.359c-0.107,0.484-0.16,0.923-0.16,1.317h-0.653c0.016-0.612,0.117-1.223,0.306-1.833
		c0.188-0.61,0.442-1.161,0.762-1.653H723.312z"/>
	<path id="XMLID_1369_" fill="#231815" d="M741.757,16.681c-0.166-0.086-0.291-0.203-0.375-0.352
		c-0.084-0.149-0.126-0.328-0.126-0.537c0-0.339,0.096-0.608,0.288-0.809c0.192-0.2,0.451-0.301,0.777-0.301
		c0.345,0,0.607,0.107,0.788,0.321c0.181,0.214,0.27,0.475,0.27,0.783c0,0.209-0.043,0.391-0.131,0.545
		c-0.087,0.154-0.206,0.271-0.357,0.351c0.202,0.098,0.354,0.236,0.453,0.414c0.101,0.177,0.15,0.396,0.15,0.654
		c0,0.267-0.05,0.501-0.148,0.706c-0.1,0.204-0.236,0.36-0.411,0.467c-0.174,0.108-0.37,0.162-0.588,0.162
		c-0.342,0-0.623-0.118-0.846-0.354c-0.223-0.236-0.334-0.554-0.334-0.954c0-0.259,0.051-0.482,0.152-0.667
		C741.422,16.921,741.568,16.779,741.757,16.681z M741.833,17.697c0,0.231,0.049,0.409,0.148,0.534
		c0.098,0.125,0.216,0.188,0.353,0.188s0.254-0.059,0.347-0.179c0.094-0.119,0.141-0.298,0.141-0.537
		c0-0.205-0.048-0.368-0.144-0.487c-0.095-0.12-0.213-0.179-0.353-0.179c-0.138,0-0.254,0.06-0.35,0.181
		C741.88,17.337,741.833,17.497,741.833,17.697z M741.898,15.85c0,0.168,0.039,0.297,0.119,0.386c0.079,0.09,0.18,0.135,0.302,0.135
		c0.123,0,0.225-0.045,0.306-0.135c0.08-0.089,0.121-0.218,0.121-0.386c0-0.162-0.04-0.288-0.119-0.377
		c-0.08-0.09-0.18-0.135-0.299-0.135c-0.126,0-0.228,0.045-0.31,0.136C741.938,15.565,741.898,15.69,741.898,15.85z"/>
</g>
<g id="XMLID_1373_">
	<path id="XMLID_1374_" fill="#231815" d="M765.056,18.01l0.656-0.088c0.031,0.32,0.159,0.48,0.383,0.48
		c0.15,0,0.274-0.08,0.37-0.239c0.097-0.159,0.158-0.482,0.186-0.97c-0.084,0.12-0.18,0.21-0.285,0.271
		c-0.106,0.061-0.224,0.091-0.354,0.091c-0.268,0-0.506-0.128-0.713-0.385c-0.207-0.257-0.311-0.598-0.311-1.023
		c0-0.455,0.108-0.812,0.326-1.073c0.218-0.261,0.486-0.391,0.807-0.391c0.356,0,0.651,0.168,0.883,0.504
		c0.231,0.336,0.347,0.893,0.347,1.67c0,0.792-0.12,1.36-0.361,1.708c-0.241,0.347-0.555,0.52-0.939,0.52
		c-0.268,0-0.487-0.088-0.661-0.264C765.216,18.645,765.105,18.375,765.056,18.01z M766.592,16.208c0-0.27-0.051-0.478-0.153-0.623
		c-0.102-0.145-0.218-0.217-0.347-0.217c-0.126,0-0.23,0.06-0.313,0.179c-0.084,0.12-0.125,0.318-0.125,0.596
		c0,0.278,0.046,0.481,0.137,0.611c0.091,0.129,0.203,0.194,0.337,0.194c0.127,0,0.236-0.062,0.328-0.185
		C766.546,16.64,766.592,16.455,766.592,16.208z"/>
	<path id="XMLID_1377_" fill="#231815" d="M781.892,19.01h-0.677v-3.116c-0.253,0.284-0.546,0.493-0.877,0.627v-0.75
		c0.189-0.077,0.384-0.213,0.586-0.41c0.201-0.196,0.342-0.423,0.42-0.679h0.548V19.01z"/>
	<path id="XMLID_1379_" fill="#231815" d="M784.051,14.682c0.344,0,0.621,0.163,0.833,0.49c0.212,0.326,0.317,0.897,0.317,1.712
		c0,0.813-0.106,1.384-0.317,1.71c-0.212,0.326-0.488,0.49-0.83,0.49c-0.343,0-0.621-0.162-0.832-0.485
		c-0.212-0.323-0.318-0.898-0.318-1.723c0-0.81,0.107-1.377,0.318-1.704C783.433,14.845,783.711,14.682,784.051,14.682z
		 M784.053,15.368c-0.134,0-0.241,0.088-0.32,0.265c-0.08,0.176-0.12,0.594-0.12,1.252c0,0.659,0.04,1.076,0.12,1.251
		c0.079,0.175,0.186,0.263,0.32,0.263c0.136,0,0.243-0.088,0.321-0.265c0.079-0.176,0.118-0.593,0.118-1.25
		c0-0.658-0.039-1.076-0.118-1.252C784.296,15.456,784.189,15.368,784.053,15.368z"/>
</g>
<g id="XMLID_1382_">
	<path id="XMLID_1383_" fill="#231815" d="M804.9,19.01h-0.677v-3.116c-0.253,0.284-0.545,0.493-0.877,0.627v-0.75
		c0.188-0.077,0.384-0.213,0.586-0.41c0.202-0.196,0.342-0.423,0.421-0.679h0.547V19.01z"/>
	<path id="XMLID_1385_" fill="#231815" d="M807.377,19.01h-0.677v-3.116c-0.253,0.284-0.545,0.493-0.877,0.627v-0.75
		c0.189-0.077,0.384-0.213,0.586-0.41c0.202-0.196,0.342-0.423,0.421-0.679h0.547V19.01z"/>
	<path id="XMLID_1387_" fill="#231815" d="M821.118,19.01h-0.677v-3.116c-0.253,0.284-0.545,0.493-0.877,0.627v-0.75
		c0.188-0.077,0.384-0.213,0.586-0.41c0.202-0.196,0.342-0.423,0.421-0.679h0.547V19.01z"/>
	<path id="XMLID_1389_" fill="#231815" d="M824.422,18.242v0.768h-2.378c0.025-0.29,0.104-0.566,0.234-0.828
		c0.13-0.262,0.384-0.605,0.761-1.03c0.298-0.339,0.481-0.568,0.55-0.688c0.102-0.174,0.153-0.35,0.153-0.526
		c0-0.188-0.043-0.33-0.127-0.426c-0.084-0.096-0.195-0.144-0.332-0.144c-0.301,0-0.462,0.225-0.485,0.674l-0.674-0.083
		c0.041-0.439,0.163-0.762,0.366-0.968c0.203-0.206,0.473-0.309,0.811-0.309c0.37,0,0.65,0.121,0.838,0.362
		c0.188,0.241,0.283,0.517,0.283,0.829c0,0.176-0.024,0.347-0.072,0.513c-0.048,0.166-0.122,0.333-0.223,0.5
		c-0.1,0.167-0.267,0.381-0.5,0.642c-0.218,0.245-0.355,0.407-0.413,0.485c-0.058,0.078-0.104,0.155-0.14,0.229H824.422z"/>
</g>
<g id="XMLID_1391_">
	<path id="XMLID_1392_" fill="#231815" d="M867.872,19.01h-0.677v-3.116c-0.253,0.284-0.546,0.493-0.877,0.627v-0.75
		c0.189-0.077,0.384-0.213,0.586-0.41c0.201-0.196,0.342-0.423,0.42-0.679h0.548V19.01z"/>
	<path id="XMLID_1394_" fill="#231815" d="M868.86,17.869l0.656-0.097c0.018,0.203,0.073,0.358,0.168,0.466
		c0.095,0.107,0.206,0.161,0.334,0.161c0.14,0,0.257-0.064,0.354-0.191c0.097-0.127,0.145-0.304,0.145-0.53
		c0-0.209-0.046-0.375-0.139-0.494c-0.093-0.12-0.205-0.18-0.337-0.18c-0.086,0-0.189,0.021-0.31,0.062l0.073-0.674
		c0.176,0.004,0.315-0.043,0.417-0.141c0.101-0.098,0.151-0.236,0.151-0.414c0-0.148-0.037-0.265-0.109-0.349
		c-0.073-0.084-0.167-0.126-0.28-0.126c-0.114,0-0.214,0.049-0.297,0.146c-0.084,0.097-0.134,0.241-0.149,0.431l-0.627-0.129
		c0.065-0.394,0.191-0.681,0.38-0.859c0.189-0.179,0.427-0.268,0.714-0.268c0.321,0,0.577,0.115,0.767,0.344
		c0.19,0.229,0.285,0.483,0.285,0.761c0,0.188-0.043,0.357-0.128,0.508c-0.086,0.151-0.214,0.283-0.385,0.397
		c0.198,0.053,0.359,0.169,0.484,0.35c0.125,0.18,0.186,0.406,0.186,0.677c0,0.394-0.117,0.72-0.352,0.978
		c-0.234,0.258-0.515,0.387-0.838,0.387c-0.31,0-0.573-0.109-0.788-0.326C869.02,18.541,868.895,18.244,868.86,17.869z"/>
	<path id="XMLID_1396_" fill="#231815" d="M884.36,19.01h-0.677v-3.116c-0.253,0.284-0.546,0.493-0.877,0.627v-0.75
		c0.188-0.077,0.384-0.213,0.586-0.41c0.201-0.196,0.342-0.423,0.42-0.679h0.548V19.01z"/>
	<path id="XMLID_1398_" fill="#231815" d="M886.702,19.01v-0.868h-1.447v-0.724l1.532-2.736h0.571v2.733h0.438v0.727h-0.438v0.868
		H886.702z M886.702,17.416v-1.473l-0.812,1.473H886.702z"/>
</g>
<g id="XMLID_1401_">
	<path id="XMLID_1402_" fill="#231815" d="M907.463,19.01h-0.677v-3.116c-0.253,0.284-0.545,0.493-0.877,0.627v-0.75
		c0.188-0.077,0.384-0.213,0.586-0.41c0.202-0.196,0.342-0.423,0.421-0.679h0.547V19.01z"/>
	<path id="XMLID_1404_" fill="#231815" d="M908.488,17.901l0.677-0.088c0.017,0.188,0.075,0.336,0.173,0.444
		c0.099,0.108,0.206,0.162,0.324,0.162c0.139,0,0.259-0.069,0.358-0.207c0.101-0.138,0.15-0.35,0.15-0.636
		c0-0.271-0.05-0.47-0.148-0.599c-0.1-0.129-0.226-0.194-0.379-0.194c-0.194,0-0.37,0.104-0.524,0.315L908.567,17l0.348-2.245h1.791
		v0.774h-1.274l-0.11,0.732c0.153-0.092,0.309-0.138,0.466-0.138c0.279,0,0.516,0.11,0.71,0.33c0.245,0.28,0.368,0.65,0.368,1.109
		c0,0.379-0.104,0.727-0.314,1.044c-0.209,0.318-0.507,0.477-0.895,0.477c-0.315,0-0.576-0.103-0.787-0.308
		C908.658,18.571,908.531,18.28,908.488,17.901z"/>
	<path id="XMLID_1406_" fill="#231815" d="M923.952,19.01h-0.677v-3.116c-0.253,0.284-0.545,0.493-0.877,0.627v-0.75
		c0.188-0.077,0.384-0.213,0.586-0.41c0.202-0.196,0.342-0.423,0.421-0.679h0.547V19.01z"/>
	<path id="XMLID_1408_" fill="#231815" d="M927.262,15.753l-0.656,0.088c-0.031-0.319-0.16-0.479-0.387-0.479
		c-0.147,0-0.271,0.081-0.367,0.241c-0.098,0.161-0.159,0.485-0.185,0.974c0.084-0.122,0.179-0.213,0.282-0.274
		c0.104-0.06,0.22-0.091,0.346-0.091c0.276,0,0.519,0.128,0.725,0.386c0.206,0.258,0.31,0.6,0.31,1.027
		c0,0.455-0.109,0.811-0.327,1.07c-0.218,0.259-0.488,0.388-0.81,0.388c-0.353,0-0.647-0.168-0.88-0.504
		c-0.232-0.336-0.349-0.894-0.349-1.671c0-0.79,0.12-1.358,0.362-1.706c0.241-0.347,0.552-0.52,0.931-0.52
		c0.261,0,0.482,0.089,0.661,0.266C927.098,15.125,927.212,15.393,927.262,15.753z M925.726,17.559c0,0.272,0.051,0.48,0.152,0.624
		c0.101,0.144,0.217,0.216,0.347,0.216c0.126,0,0.23-0.06,0.315-0.179c0.083-0.12,0.125-0.315,0.125-0.587
		c0-0.282-0.045-0.488-0.136-0.617c-0.091-0.129-0.202-0.194-0.336-0.194c-0.13,0-0.24,0.061-0.331,0.185
		C925.771,17.129,925.726,17.313,925.726,17.559z"/>
</g>
<g id="XMLID_1411_">
	<path id="XMLID_1412_" fill="#231815" d="M947.039,19.01h-0.677v-3.116c-0.253,0.284-0.546,0.493-0.877,0.627v-0.75
		c0.188-0.077,0.384-0.213,0.586-0.41c0.201-0.196,0.342-0.423,0.42-0.679h0.548V19.01z"/>
	<path id="XMLID_1414_" fill="#231815" d="M948.05,15.524v-0.768h2.318v0.6c-0.191,0.229-0.383,0.556-0.578,0.978
		c-0.195,0.422-0.346,0.875-0.453,1.359c-0.106,0.484-0.16,0.923-0.16,1.317h-0.653c0.016-0.612,0.118-1.223,0.307-1.833
		c0.188-0.61,0.441-1.161,0.762-1.653H948.05z"/>
	<path id="XMLID_1416_" fill="#231815" d="M963.527,19.01h-0.677v-3.116c-0.253,0.284-0.546,0.493-0.877,0.627v-0.75
		c0.189-0.077,0.384-0.213,0.586-0.41c0.201-0.196,0.342-0.423,0.42-0.679h0.548V19.01z"/>
	<path id="XMLID_1418_" fill="#231815" d="M965.122,16.681c-0.166-0.086-0.291-0.203-0.375-0.352
		c-0.084-0.149-0.125-0.328-0.125-0.537c0-0.339,0.096-0.608,0.288-0.809c0.192-0.2,0.451-0.301,0.776-0.301
		c0.346,0,0.608,0.107,0.789,0.321c0.18,0.214,0.271,0.475,0.271,0.783c0,0.209-0.044,0.391-0.131,0.545
		c-0.088,0.154-0.207,0.271-0.358,0.351c0.202,0.098,0.353,0.236,0.453,0.414c0.1,0.177,0.149,0.396,0.149,0.654
		c0,0.267-0.049,0.501-0.148,0.706c-0.099,0.204-0.235,0.36-0.41,0.467c-0.175,0.108-0.371,0.162-0.589,0.162
		c-0.341,0-0.623-0.118-0.846-0.354s-0.334-0.554-0.334-0.954c0-0.259,0.051-0.482,0.152-0.667
		C964.787,16.921,964.932,16.779,965.122,16.681z M965.198,17.697c0,0.231,0.049,0.409,0.147,0.534
		c0.099,0.125,0.217,0.188,0.354,0.188s0.253-0.059,0.347-0.179c0.093-0.119,0.14-0.298,0.14-0.537c0-0.205-0.048-0.368-0.142-0.487
		c-0.096-0.12-0.213-0.179-0.353-0.179c-0.138,0-0.255,0.06-0.35,0.181C965.246,17.337,965.198,17.497,965.198,17.697z
		 M965.262,15.85c0,0.168,0.04,0.297,0.119,0.386c0.08,0.09,0.181,0.135,0.302,0.135c0.124,0,0.226-0.045,0.306-0.135
		c0.081-0.089,0.121-0.218,0.121-0.386c0-0.162-0.04-0.288-0.119-0.377c-0.079-0.09-0.179-0.135-0.299-0.135
		c-0.125,0-0.229,0.045-0.309,0.136C965.302,15.565,965.262,15.69,965.262,15.85z"/>
</g>
<g id="XMLID_1422_">
	<path id="XMLID_1423_" fill="#231815" d="M986.248,19.01h-0.677v-3.116c-0.253,0.284-0.545,0.493-0.877,0.627v-0.75
		c0.188-0.077,0.384-0.213,0.586-0.41c0.202-0.196,0.342-0.423,0.421-0.679h0.547V19.01z"/>
	<path id="XMLID_1425_" fill="#231815" d="M987.275,18.01l0.656-0.088c0.031,0.32,0.158,0.48,0.382,0.48
		c0.151,0,0.274-0.08,0.371-0.239c0.096-0.159,0.158-0.482,0.185-0.97c-0.085,0.12-0.18,0.21-0.286,0.271
		c-0.106,0.061-0.224,0.091-0.352,0.091c-0.269,0-0.507-0.128-0.714-0.385c-0.207-0.257-0.311-0.598-0.311-1.023
		c0-0.455,0.109-0.812,0.327-1.073c0.218-0.261,0.486-0.391,0.806-0.391c0.357,0,0.651,0.168,0.883,0.504
		c0.231,0.336,0.348,0.893,0.348,1.67c0,0.792-0.121,1.36-0.362,1.708c-0.241,0.347-0.554,0.52-0.939,0.52
		c-0.267,0-0.487-0.088-0.66-0.264C987.435,18.645,987.324,18.375,987.275,18.01z M988.81,16.208c0-0.27-0.051-0.478-0.152-0.623
		c-0.103-0.145-0.218-0.217-0.348-0.217c-0.125,0-0.23,0.06-0.314,0.179c-0.083,0.12-0.125,0.318-0.125,0.596
		c0,0.278,0.046,0.481,0.137,0.611c0.092,0.129,0.204,0.194,0.337,0.194c0.128,0,0.237-0.062,0.328-0.185
		C988.765,16.64,988.81,16.455,988.81,16.208z"/>
	<path id="XMLID_1428_" fill="#231815" d="M1004.667,18.242v0.768h-2.378c0.025-0.29,0.104-0.566,0.234-0.828
		c0.13-0.262,0.384-0.605,0.761-1.03c0.298-0.339,0.481-0.568,0.55-0.688c0.102-0.174,0.153-0.35,0.153-0.526
		c0-0.188-0.043-0.33-0.127-0.426c-0.084-0.096-0.195-0.144-0.332-0.144c-0.301,0-0.462,0.225-0.485,0.674l-0.674-0.083
		c0.041-0.439,0.163-0.762,0.366-0.968c0.203-0.206,0.473-0.309,0.811-0.309c0.37,0,0.65,0.121,0.838,0.362
		c0.188,0.241,0.283,0.517,0.283,0.829c0,0.176-0.024,0.347-0.072,0.513c-0.048,0.166-0.122,0.333-0.223,0.5
		c-0.1,0.167-0.267,0.381-0.5,0.642c-0.218,0.245-0.355,0.407-0.413,0.485c-0.058,0.078-0.104,0.155-0.14,0.229H1004.667z"/>
	<path id="XMLID_1430_" fill="#231815" d="M1006.27,14.682c0.343,0,0.62,0.163,0.832,0.49c0.212,0.326,0.318,0.897,0.318,1.712
		c0,0.813-0.106,1.384-0.318,1.71c-0.212,0.326-0.488,0.49-0.829,0.49c-0.344,0-0.621-0.162-0.833-0.485
		c-0.212-0.323-0.317-0.898-0.317-1.723c0-0.81,0.105-1.377,0.317-1.704C1005.652,14.845,1005.928,14.682,1006.27,14.682z
		 M1006.271,15.368c-0.134,0-0.24,0.088-0.32,0.265c-0.079,0.176-0.119,0.594-0.119,1.252c0,0.659,0.04,1.076,0.119,1.251
		c0.08,0.175,0.187,0.263,0.32,0.263c0.136,0,0.243-0.088,0.322-0.265c0.078-0.176,0.118-0.593,0.118-1.25
		c0-0.658-0.04-1.076-0.118-1.252C1006.514,15.456,1006.407,15.368,1006.271,15.368z"/>
</g>
<g id="XMLID_1433_">
	<path id="XMLID_1434_" fill="#231815" d="M1027.761,18.242v0.768h-2.377c0.025-0.29,0.104-0.566,0.233-0.828
		c0.131-0.262,0.384-0.605,0.761-1.03c0.298-0.339,0.481-0.568,0.551-0.688c0.102-0.174,0.152-0.35,0.152-0.526
		c0-0.188-0.042-0.33-0.126-0.426c-0.085-0.096-0.195-0.144-0.333-0.144c-0.3,0-0.462,0.225-0.485,0.674l-0.674-0.083
		c0.041-0.439,0.163-0.762,0.366-0.968c0.203-0.206,0.474-0.309,0.811-0.309c0.371,0,0.65,0.121,0.839,0.362
		c0.188,0.241,0.282,0.517,0.282,0.829c0,0.176-0.023,0.347-0.072,0.513c-0.048,0.166-0.122,0.333-0.222,0.5
		c-0.101,0.167-0.267,0.381-0.5,0.642c-0.218,0.245-0.355,0.407-0.414,0.485c-0.058,0.078-0.104,0.155-0.14,0.229H1027.761z"/>
	<path id="XMLID_1436_" fill="#231815" d="M1029.954,19.01h-0.677v-3.116c-0.253,0.284-0.546,0.493-0.877,0.627v-0.75
		c0.188-0.077,0.384-0.213,0.586-0.41c0.201-0.196,0.342-0.423,0.42-0.679h0.548V19.01z"/>
	<path id="XMLID_1438_" fill="#231815" d="M1044.25,18.242v0.768h-2.377c0.025-0.29,0.104-0.566,0.233-0.828
		c0.131-0.262,0.384-0.605,0.761-1.03c0.298-0.339,0.481-0.568,0.551-0.688c0.102-0.174,0.152-0.35,0.152-0.526
		c0-0.188-0.042-0.33-0.126-0.426c-0.085-0.096-0.195-0.144-0.333-0.144c-0.3,0-0.462,0.225-0.485,0.674l-0.674-0.083
		c0.041-0.439,0.163-0.762,0.366-0.968c0.203-0.206,0.474-0.309,0.811-0.309c0.371,0,0.65,0.121,0.839,0.362
		c0.188,0.241,0.282,0.517,0.282,0.829c0,0.176-0.023,0.347-0.072,0.513c-0.048,0.166-0.122,0.333-0.222,0.5
		c-0.101,0.167-0.267,0.381-0.5,0.642c-0.218,0.245-0.355,0.407-0.414,0.485c-0.058,0.078-0.104,0.155-0.14,0.229H1044.25z"/>
	<path id="XMLID_1440_" fill="#231815" d="M1046.998,18.242v0.768h-2.377c0.025-0.29,0.104-0.566,0.233-0.828
		c0.131-0.262,0.384-0.605,0.761-1.03c0.298-0.339,0.481-0.568,0.551-0.688c0.102-0.174,0.152-0.35,0.152-0.526
		c0-0.188-0.042-0.33-0.126-0.426c-0.085-0.096-0.195-0.144-0.333-0.144c-0.3,0-0.462,0.225-0.485,0.674l-0.674-0.083
		c0.041-0.439,0.163-0.762,0.366-0.968c0.203-0.206,0.474-0.309,0.811-0.309c0.371,0,0.65,0.121,0.839,0.362
		c0.188,0.241,0.282,0.517,0.282,0.829c0,0.176-0.023,0.347-0.072,0.513c-0.048,0.166-0.122,0.333-0.222,0.5
		c-0.101,0.167-0.267,0.381-0.5,0.642c-0.218,0.245-0.355,0.407-0.414,0.485c-0.058,0.078-0.104,0.155-0.14,0.229H1046.998z"/>
</g>
<g id="XMLID_1442_">
	<path id="XMLID_1443_" fill="#231815" d="M1066.971,18.242v0.768h-2.378c0.025-0.29,0.104-0.566,0.234-0.828
		c0.13-0.262,0.384-0.605,0.761-1.03c0.298-0.339,0.481-0.568,0.55-0.688c0.102-0.174,0.153-0.35,0.153-0.526
		c0-0.188-0.043-0.33-0.127-0.426c-0.084-0.096-0.195-0.144-0.332-0.144c-0.301,0-0.462,0.225-0.485,0.674l-0.674-0.083
		c0.041-0.439,0.163-0.762,0.366-0.968c0.203-0.206,0.473-0.309,0.811-0.309c0.37,0,0.65,0.121,0.838,0.362
		c0.188,0.241,0.283,0.517,0.283,0.829c0,0.176-0.024,0.347-0.072,0.513c-0.048,0.166-0.122,0.333-0.223,0.5
		c-0.1,0.167-0.267,0.381-0.5,0.642c-0.218,0.245-0.355,0.407-0.413,0.485c-0.058,0.078-0.104,0.155-0.14,0.229H1066.971z"/>
	<path id="XMLID_1445_" fill="#231815" d="M1067.404,17.869l0.655-0.097c0.019,0.203,0.074,0.358,0.169,0.466
		c0.094,0.107,0.205,0.161,0.333,0.161c0.14,0,0.258-0.064,0.354-0.191c0.096-0.127,0.145-0.304,0.145-0.53
		c0-0.209-0.047-0.375-0.139-0.494c-0.093-0.12-0.205-0.18-0.337-0.18c-0.087,0-0.19,0.021-0.311,0.062l0.074-0.674
		c0.175,0.004,0.314-0.043,0.417-0.141c0.101-0.098,0.15-0.236,0.15-0.414c0-0.148-0.036-0.265-0.109-0.349
		c-0.072-0.084-0.166-0.126-0.28-0.126s-0.213,0.049-0.297,0.146c-0.083,0.097-0.133,0.241-0.148,0.431l-0.627-0.129
		c0.064-0.394,0.191-0.681,0.38-0.859c0.188-0.179,0.426-0.268,0.713-0.268c0.322,0,0.578,0.115,0.768,0.344
		c0.189,0.229,0.284,0.483,0.284,0.761c0,0.188-0.043,0.357-0.128,0.508c-0.085,0.151-0.213,0.283-0.384,0.397
		c0.198,0.053,0.359,0.169,0.484,0.35c0.124,0.18,0.187,0.406,0.187,0.677c0,0.394-0.117,0.72-0.353,0.978
		c-0.234,0.258-0.514,0.387-0.838,0.387c-0.311,0-0.573-0.109-0.788-0.326C1067.564,18.541,1067.439,18.244,1067.404,17.869z"/>
	<path id="XMLID_1447_" fill="#231815" d="M1084.833,18.242v0.768h-2.378c0.025-0.29,0.104-0.566,0.234-0.828
		c0.13-0.262,0.384-0.605,0.761-1.03c0.298-0.339,0.481-0.568,0.55-0.688c0.102-0.174,0.153-0.35,0.153-0.526
		c0-0.188-0.043-0.33-0.127-0.426c-0.084-0.096-0.195-0.144-0.332-0.144c-0.301,0-0.462,0.225-0.485,0.674l-0.674-0.083
		c0.041-0.439,0.163-0.762,0.366-0.968c0.203-0.206,0.473-0.309,0.811-0.309c0.37,0,0.65,0.121,0.838,0.362
		c0.188,0.241,0.283,0.517,0.283,0.829c0,0.176-0.024,0.347-0.072,0.513c-0.048,0.166-0.122,0.333-0.223,0.5
		c-0.1,0.167-0.267,0.381-0.5,0.642c-0.218,0.245-0.355,0.407-0.413,0.485c-0.058,0.078-0.104,0.155-0.14,0.229H1084.833z"/>
	<path id="XMLID_1449_" fill="#231815" d="M1086.619,19.01v-0.868h-1.447v-0.724l1.533-2.736h0.57v2.733h0.438v0.727h-0.438v0.868
		H1086.619z M1086.619,17.416v-1.473l-0.812,1.473H1086.619z"/>
</g>
</svg>
