<?xml version="1.0" encoding="utf-8"?>
<!-- Generator: Adobe Illustrator 16.0.0, SVG Export Plug-In . SVG Version: 6.00 Build 0)  -->
<!DOCTYPE svg PUBLIC "-//W3C//DTD SVG 1.1//EN" "http://www.w3.org/Graphics/SVG/1.1/DTD/svg11.dtd">
<svg version="1.1" id="图层_1" xmlns="http://www.w3.org/2000/svg" xmlns:xlink="http://www.w3.org/1999/xlink" x="0px" y="0px"
	 width="1157.11px" height="246.23px" viewBox="0 0 1157.11 246.23" enable-background="new 0 0 1157.11 246.23"
	 xml:space="preserve">
<g>
	<path fill="#4E5359" d="M206.807,10.953h24.25v46.189c0,0,2.125,6.769,7.5,8.361h-39.5c0,0,6.5-3.981,7.625-8.893L206.807,10.953z"
		/>
	<path fill="#4E5359" d="M446.126,10.953h24.25v46.189c0,0,2.125,6.769,7.5,8.361h-39.5c0,0,6.5-3.981,7.625-8.893L446.126,10.953z"
		/>
	<path fill="#4E5359" d="M685.445,10.953h24.25v46.189c0,0,2.125,6.769,7.5,8.361h-39.5c0,0,6.5-3.981,7.625-8.893L685.445,10.953z"
		/>
	<path fill="#4E5359" d="M924.765,10.953h24.25v46.189c0,0,2.125,6.769,7.5,8.361h-39.5c0,0,6.5-3.981,7.625-8.893L924.765,10.953z"
		/>
	<path fill="#3E4144" d="M206.807,238.899h24.25V192.71c0,0,2.125-6.769,7.5-8.361h-39.5c0,0,6.5,3.981,7.625,8.893L206.807,238.899
		z"/>
	<path fill="#3E4144" d="M446.126,238.899h24.25V192.71c0,0,2.125-6.769,7.5-8.361h-39.5c0,0,6.5,3.981,7.625,8.893L446.126,238.899
		z"/>
	<path fill="#3E4144" d="M685.445,238.899h24.25V192.71c0,0,2.125-6.769,7.5-8.361h-39.5c0,0,6.5,3.981,7.625,8.893L685.445,238.899
		z"/>
	<path fill="#3E4144" d="M924.765,238.899h24.25V192.71c0,0,2.125-6.769,7.5-8.361h-39.5c0,0,6.5,3.981,7.625,8.893L924.765,238.899
		z"/>
	<linearGradient id="SVGID_1_" gradientUnits="userSpaceOnUse" x1="578.7104" y1="22.1719" x2="578.7104" y2="236.7454">
		<stop  offset="0" style="stop-color:#596066"/>
		<stop  offset="1" style="stop-color:#4B4B55"/>
	</linearGradient>
	<path fill="url(#SVGID_1_)" d="M0.155,0.907h72.927v17.484c0,0,2.666,6.922,10.333,10.563l85.667,32.782c0,0,8,2.55,21.333,3.642
		H965.47c0,0,13.612,1.823,33.945-6.92l68-27.319c0,0,20.334-5.099,17.667-28.046h72.184v244.042h-72.85
		c0,0,3.666-20.762-11.334-26.953c0,0-85.001-40.795-109.334-35.332H192.331c0,0-17.583-1.82-30.916,4.735l-73.667,28.046
		c0,0-13.288,9.754-14.666,15.664c-0.448,1.923-0.334,1.819-0.334,1.819v12.021H0.155V0.907z"/>
	<linearGradient id="SVGID_2_" gradientUnits="userSpaceOnUse" x1="4.3799" y1="123.2471" x2="1152.1826" y2="123.2471">
		<stop  offset="0" style="stop-color:#B0B0B5"/>
		<stop  offset="0.0936" style="stop-color:#D0D0D5"/>
		<stop  offset="0.1478" style="stop-color:#EDEDED"/>
		<stop  offset="0.1823" style="stop-color:#8E8E98"/>
		<stop  offset="0.8276" style="stop-color:#84848E"/>
		<stop  offset="0.8571" style="stop-color:#EBEBEB"/>
		<stop  offset="0.8966" style="stop-color:#BEBEC3"/>
		<stop  offset="1" style="stop-color:#A6A6B0"/>
	</linearGradient>
	<path fill="url(#SVGID_2_)" d="M4.38,236.56V9.935h14.807l137.717,55.396c0,0,12.399,4.317,24.303,5.396h777.455
		c0,0,12.638,0.539,39.917-6.475l134.409-54.318h19.195V236.56h-18.699l-136.559-54.679c0,0-22.153-7.553-37.694-4.676H184.425
		c0,0-8.348-1.97-31.49,6.835L24.973,236.56H4.38z"/>
</g>
</svg>
