<?xml version="1.0" encoding="utf-8"?>
<!-- Generator: Adobe Illustrator 16.0.0, SVG Export Plug-In . SVG Version: 6.00 Build 0)  -->
<!DOCTYPE svg PUBLIC "-//W3C//DTD SVG 1.1//EN" "http://www.w3.org/Graphics/SVG/1.1/DTD/svg11.dtd">
<svg version="1.1" id="图层_1" xmlns="http://www.w3.org/2000/svg" xmlns:xlink="http://www.w3.org/1999/xlink" x="0px" y="0px"
	 width="183.322px" height="15.609px" viewBox="0 0 183.322 15.609" enable-background="new 0 0 183.322 15.609"
	 xml:space="preserve">
<g>
	<path fill="#050505" d="M15.609,3.776c0,1.339-1.086,2.425-2.426,2.425H2.424C1.084,6.201,0,5.115,0,3.776V2.425
		C0,1.086,1.084,0,2.424,0h10.76c1.34,0,2.426,1.086,2.426,2.425V3.776z"/>
	<path fill="#050505" d="M34.244,3.776c0,1.339-1.086,2.425-2.425,2.425H21.059c-1.34,0-2.424-1.086-2.424-2.425V2.425
		C18.635,1.086,19.719,0,21.059,0h10.761c1.339,0,2.425,1.086,2.425,2.425V3.776z"/>
	<path fill="#050505" d="M52.879,3.776c0,1.339-1.085,2.425-2.425,2.425H39.693c-1.339,0-2.424-1.086-2.424-2.425V2.425
		C37.27,1.086,38.354,0,39.693,0h10.761c1.34,0,2.425,1.086,2.425,2.425V3.776z"/>
	<path fill="#050505" d="M71.514,3.776c0,1.339-1.085,2.425-2.425,2.425h-10.76c-1.34,0-2.425-1.086-2.425-2.425V2.425
		C55.904,1.086,56.989,0,58.329,0h10.76c1.34,0,2.425,1.086,2.425,2.425V3.776z"/>
	<path fill="#050505" d="M90.148,3.776c0,1.339-1.085,2.425-2.425,2.425h-10.76c-1.34,0-2.425-1.086-2.425-2.425V2.425
		C74.539,1.086,75.624,0,76.964,0h10.76c1.34,0,2.425,1.086,2.425,2.425V3.776z"/>
	<path fill="#050505" d="M108.782,3.776c0,1.339-1.085,2.425-2.425,2.425h-10.76c-1.34,0-2.425-1.086-2.425-2.425V2.425
		C93.173,1.086,94.258,0,95.598,0h10.76c1.34,0,2.425,1.086,2.425,2.425V3.776z"/>
	<path fill="#050505" d="M127.417,3.776c0,1.339-1.085,2.425-2.425,2.425h-10.76c-1.34,0-2.425-1.086-2.425-2.425V2.425
		c0-1.339,1.085-2.425,2.425-2.425h10.76c1.34,0,2.425,1.086,2.425,2.425V3.776z"/>
	<path fill="#050505" d="M146.053,3.776c0,1.339-1.086,2.425-2.426,2.425h-10.76c-1.34,0-2.425-1.086-2.425-2.425V2.425
		c0-1.339,1.085-2.425,2.425-2.425h10.76c1.34,0,2.426,1.086,2.426,2.425V3.776z"/>
	<path fill="#050505" d="M164.688,3.776c0,1.339-1.086,2.425-2.426,2.425h-10.76c-1.34,0-2.425-1.086-2.425-2.425V2.425
		c0-1.339,1.085-2.425,2.425-2.425h10.76c1.34,0,2.426,1.086,2.426,2.425V3.776z"/>
	<path fill="#050505" d="M183.322,3.776c0,1.339-1.086,2.425-2.426,2.425h-10.76c-1.34,0-2.424-1.086-2.424-2.425V2.425
		c0-1.339,1.084-2.425,2.424-2.425h10.76c1.34,0,2.426,1.086,2.426,2.425V3.776z"/>
	<path fill="#050505" d="M15.609,13.185c0,1.339-1.086,2.425-2.426,2.425H2.424C1.084,15.609,0,14.523,0,13.185v-1.351
		c0-1.339,1.084-2.425,2.424-2.425h10.76c1.34,0,2.426,1.085,2.426,2.425V13.185z"/>
	<path fill="#050505" d="M34.244,13.185c0,1.339-1.086,2.425-2.425,2.425H21.059c-1.34,0-2.424-1.086-2.424-2.425v-1.351
		c0-1.339,1.084-2.425,2.424-2.425h10.761c1.339,0,2.425,1.085,2.425,2.425V13.185z"/>
	<path fill="#050505" d="M52.879,13.185c0,1.339-1.085,2.425-2.425,2.425H39.693c-1.339,0-2.424-1.086-2.424-2.425v-1.351
		c0-1.339,1.085-2.425,2.424-2.425h10.761c1.34,0,2.425,1.085,2.425,2.425V13.185z"/>
	<path fill="#050505" d="M71.514,13.185c0,1.339-1.085,2.425-2.425,2.425h-10.76c-1.34,0-2.425-1.086-2.425-2.425v-1.351
		c0-1.339,1.085-2.425,2.425-2.425h10.76c1.34,0,2.425,1.085,2.425,2.425V13.185z"/>
	<path fill="#050505" d="M90.148,13.185c0,1.339-1.085,2.425-2.425,2.425h-10.76c-1.34,0-2.425-1.086-2.425-2.425v-1.351
		c0-1.339,1.085-2.425,2.425-2.425h10.76c1.34,0,2.425,1.085,2.425,2.425V13.185z"/>
	<path fill="#050505" d="M108.782,13.185c0,1.339-1.085,2.425-2.425,2.425h-10.76c-1.34,0-2.425-1.086-2.425-2.425v-1.351
		c0-1.339,1.085-2.425,2.425-2.425h10.76c1.34,0,2.425,1.085,2.425,2.425V13.185z"/>
	<path fill="#050505" d="M127.417,13.185c0,1.339-1.085,2.425-2.425,2.425h-10.76c-1.34,0-2.425-1.086-2.425-2.425v-1.351
		c0-1.339,1.085-2.425,2.425-2.425h10.76c1.34,0,2.425,1.085,2.425,2.425V13.185z"/>
	<path fill="#050505" d="M146.053,13.185c0,1.339-1.086,2.425-2.426,2.425h-10.76c-1.34,0-2.425-1.086-2.425-2.425v-1.351
		c0-1.339,1.085-2.425,2.425-2.425h10.76c1.34,0,2.426,1.085,2.426,2.425V13.185z"/>
	<path fill="#050505" d="M164.688,13.185c0,1.339-1.086,2.425-2.426,2.425h-10.76c-1.34,0-2.425-1.086-2.425-2.425v-1.351
		c0-1.339,1.085-2.425,2.425-2.425h10.76c1.34,0,2.426,1.085,2.426,2.425V13.185z"/>
	<path fill="#050505" d="M183.322,13.185c0,1.339-1.086,2.425-2.426,2.425h-10.76c-1.34,0-2.424-1.086-2.424-2.425v-1.351
		c0-1.339,1.084-2.425,2.424-2.425h10.76c1.34,0,2.426,1.085,2.426,2.425V13.185z"/>
</g>
</svg>
