<?xml version="1.0" encoding="utf-8"?>
<!-- Generator: Adobe Illustrator 16.0.0, SVG Export Plug-In . SVG Version: 6.00 Build 0)  -->
<!DOCTYPE svg PUBLIC "-//W3C//DTD SVG 1.1//EN" "http://www.w3.org/Graphics/SVG/1.1/DTD/svg11.dtd">
<svg version="1.1" id="图层_1" xmlns="http://www.w3.org/2000/svg" xmlns:xlink="http://www.w3.org/1999/xlink" x="0px" y="0px"
	 width="77.299px" height="23.628px" viewBox="0 0 77.299 23.628" enable-background="new 0 0 77.299 23.628" xml:space="preserve">
<g>
	<path fill="#050505" d="M0.543,6.021c0,1.339-1.085,2.425-2.425,2.425h-10.761c-1.339,0-2.424-1.086-2.424-2.425V4.67
		c0-1.339,1.085-2.425,2.424-2.425h10.761c1.34,0,2.425,1.086,2.425,2.425V6.021z"/>
</g>
<g>
	<path fill="#050505" d="M92.474,6.021c0,1.339-1.085,2.425-2.425,2.425h-10.76c-1.34,0-2.426-1.086-2.426-2.425V4.67
		c0-1.339,1.086-2.425,2.426-2.425h10.76c1.34,0,2.425,1.086,2.425,2.425V6.021z"/>
</g>
<g>
	<path fill="#161616" d="M72.435,15.145c0,2.678-2.171,4.849-4.849,4.849H9.713c-2.678,0-4.849-2.171-4.849-4.849V4.849
		C4.864,2.171,7.035,0,9.713,0h57.873c2.678,0,4.849,2.171,4.849,4.849V15.145z"/>
	<path fill="#2A292B" d="M71.543,14.704c0,2.449-2.113,4.434-4.721,4.434H10.477c-2.607,0-4.721-1.985-4.721-4.434V5.29
		c0-2.449,2.113-4.434,4.721-4.434h56.346c2.607,0,4.721,1.985,4.721,4.434V14.704z"/>
	<rect y="11.119" fill="#2A292B" width="77.299" height="12.509"/>
	<rect x="0.639" y="11.601" fill="#373737" width="76.022" height="11.546"/>
	<rect x="1.817" y="15.984" fill="#A7A8A7" width="27.05" height="2.78"/>
	<rect x="47.684" y="15.984" fill="#A7A8A7" width="27.049" height="2.78"/>
	<path fill="#A7A8A7" d="M38.382,11.601c-3.188,0-5.773,2.584-5.773,5.773c0,3.188,2.585,5.773,5.773,5.773s5.773-2.584,5.773-5.773
		C44.155,14.185,41.57,11.601,38.382,11.601z M38.382,21.597c-2.332,0-4.223-1.891-4.223-4.223c0-2.333,1.891-4.224,4.223-4.224
		s4.224,1.891,4.224,4.224C42.605,19.706,40.714,21.597,38.382,21.597z"/>
	<rect x="37.474" y="12.723" fill="#A7A8A7" width="1.71" height="9.623"/>
</g>
</svg>
