<?xml version="1.0" encoding="utf-8"?>
<!-- Generator: Adobe Illustrator 16.0.0, SVG Export Plug-In . SVG Version: 6.00 Build 0)  -->
<!DOCTYPE svg PUBLIC "-//W3C//DTD SVG 1.1//EN" "http://www.w3.org/Graphics/SVG/1.1/DTD/svg11.dtd">
<svg version="1.1" id="图层_1" xmlns="http://www.w3.org/2000/svg" xmlns:xlink="http://www.w3.org/1999/xlink" x="0px" y="0px"
	 width="52.879px" height="55.489px" viewBox="0 0 52.879 55.489" enable-background="new 0 0 52.879 55.489" xml:space="preserve">
<g>
	<path fill="#050505" d="M15.609,3.776c0,1.339-1.086,2.425-2.426,2.425H2.424C1.084,6.201,0,5.115,0,3.776V2.425
		C0,1.086,1.084,0,2.424,0h10.76c1.34,0,2.426,1.086,2.426,2.425V3.776z"/>
	<path fill="#050505" d="M34.244,3.776c0,1.339-1.086,2.425-2.425,2.425H21.059c-1.34,0-2.424-1.086-2.424-2.425V2.425
		C18.635,1.086,19.719,0,21.059,0h10.761c1.339,0,2.425,1.086,2.425,2.425V3.776z"/>
	<path fill="#050505" d="M52.879,3.776c0,1.339-1.085,2.425-2.425,2.425H39.693c-1.339,0-2.424-1.086-2.424-2.425V2.425
		C37.27,1.086,38.354,0,39.693,0h10.761c1.34,0,2.425,1.086,2.425,2.425V3.776z"/>
	<path fill="#050505" d="M15.609,13.185c0,1.339-1.086,2.425-2.426,2.425H2.424C1.084,15.61,0,14.524,0,13.185v-1.352
		c0-1.339,1.084-2.425,2.424-2.425h10.76c1.34,0,2.426,1.086,2.426,2.425V13.185z"/>
	<path fill="#050505" d="M34.244,13.185c0,1.339-1.086,2.425-2.425,2.425H21.059c-1.34,0-2.424-1.086-2.424-2.425v-1.352
		c0-1.339,1.084-2.425,2.424-2.425h10.761c1.339,0,2.425,1.086,2.425,2.425V13.185z"/>
	<path fill="#050505" d="M52.879,13.185c0,1.339-1.085,2.425-2.425,2.425H39.693c-1.339,0-2.424-1.086-2.424-2.425v-1.352
		c0-1.339,1.085-2.425,2.424-2.425h10.761c1.34,0,2.425,1.086,2.425,2.425V13.185z"/>
	<path fill="#050505" d="M15.609,23.663c0,1.339-1.086,2.425-2.426,2.425H2.424C1.084,26.087,0,25.001,0,23.663v-1.352
		c0-1.339,1.084-2.425,2.424-2.425h10.76c1.34,0,2.426,1.086,2.426,2.425V23.663z"/>
	<path fill="#050505" d="M34.244,23.663c0,1.339-1.086,2.425-2.425,2.425H21.059c-1.34,0-2.424-1.086-2.424-2.425v-1.352
		c0-1.339,1.084-2.425,2.424-2.425h10.761c1.339,0,2.425,1.086,2.425,2.425V23.663z"/>
	<path fill="#050505" d="M52.879,23.663c0,1.339-1.085,2.425-2.425,2.425H39.693c-1.339,0-2.424-1.086-2.424-2.425v-1.352
		c0-1.339,1.085-2.425,2.424-2.425h10.761c1.34,0,2.425,1.086,2.425,2.425V23.663z"/>
	<path fill="#050505" d="M15.609,33.071c0,1.339-1.086,2.425-2.426,2.425H2.424C1.084,35.496,0,34.41,0,33.071v-1.352
		c0-1.339,1.084-2.425,2.424-2.425h10.76c1.34,0,2.426,1.086,2.426,2.425V33.071z"/>
	<path fill="#050505" d="M34.244,33.071c0,1.339-1.086,2.425-2.425,2.425H21.059c-1.34,0-2.424-1.086-2.424-2.425v-1.352
		c0-1.339,1.084-2.425,2.424-2.425h10.761c1.339,0,2.425,1.086,2.425,2.425V33.071z"/>
	<path fill="#050505" d="M15.609,43.656c0,1.339-1.086,2.424-2.426,2.424H2.424C1.084,46.08,0,44.995,0,43.656v-1.352
		c0-1.339,1.084-2.425,2.424-2.425h10.76c1.34,0,2.426,1.086,2.426,2.425V43.656z"/>
	<path fill="#050505" d="M34.244,43.656c0,1.339-1.086,2.424-2.425,2.424H21.059c-1.34,0-2.424-1.085-2.424-2.424v-1.352
		c0-1.339,1.084-2.425,2.424-2.425h10.761c1.339,0,2.425,1.086,2.425,2.425V43.656z"/>
	<path fill="#050505" d="M15.609,53.064c0,1.339-1.086,2.425-2.426,2.425H2.424C1.084,55.489,0,54.403,0,53.064v-1.352
		c0-1.339,1.084-2.425,2.424-2.425h10.76c1.34,0,2.426,1.086,2.426,2.425V53.064z"/>
	<path fill="#050505" d="M34.244,53.064c0,1.339-1.086,2.425-2.425,2.425H21.059c-1.34,0-2.424-1.086-2.424-2.425v-1.352
		c0-1.339,1.084-2.425,2.424-2.425h10.761c1.339,0,2.425,1.086,2.425,2.425V53.064z"/>
	<path fill="#050505" d="M52.879,33.071c0,1.339-1.085,2.425-2.425,2.425H39.693c-1.339,0-2.424-1.086-2.424-2.425v-1.352
		c0-1.339,1.085-2.425,2.424-2.425h10.761c1.34,0,2.425,1.086,2.425,2.425V33.071z"/>
</g>
<g>
	<rect x="52.336" y="38.168" fill="#2A292B" width="77.299" height="12.509"/>
</g>
</svg>
