<?xml version="1.0" encoding="utf-8"?>
<!-- Generator: Adobe Illustrator 16.0.0, SVG Export Plug-In . SVG Version: 6.00 Build 0)  -->
<!DOCTYPE svg PUBLIC "-//W3C//DTD SVG 1.1//EN" "http://www.w3.org/Graphics/SVG/1.1/DTD/svg11.dtd">
<svg version="1.1" id="图层_1" xmlns="http://www.w3.org/2000/svg" xmlns:xlink="http://www.w3.org/1999/xlink" x="0px" y="0px"
	 width="440.371px" height="137.991px" viewBox="0 0 440.371 137.991" enable-background="new 0 0 440.371 137.991"
	 xml:space="preserve">
<g>
	<g>
		<path fill="#010101" d="M15.966,3.991c0,1.417-1.148,2.566-2.565,2.566H2.565C1.149,6.557,0,5.408,0,3.991V2.566
			C0,1.149,1.149,0,2.565,0H13.4c1.417,0,2.565,1.149,2.565,2.566V3.991z"/>
		<path fill="#010101" d="M15.966,14.102c0,1.417-1.148,2.565-2.565,2.565H2.565C1.149,16.667,0,15.519,0,14.102v-1.425
			c0-1.418,1.149-2.566,2.565-2.566H13.4c1.417,0,2.565,1.148,2.565,2.566V14.102z"/>
		<path fill="#010101" d="M15.966,24.212c0,1.417-1.148,2.566-2.565,2.566H2.565C1.149,26.778,0,25.629,0,24.212v-1.425
			c0-1.417,1.149-2.566,2.565-2.566H13.4c1.417,0,2.565,1.148,2.565,2.566V24.212z"/>
		<path fill="#010101" d="M15.966,34.322c0,1.417-1.148,2.565-2.565,2.565H2.565C1.149,36.888,0,35.739,0,34.322v-1.426
			c0-1.417,1.149-2.566,2.565-2.566H13.4c1.417,0,2.565,1.149,2.565,2.566V34.322z"/>
		<path fill="#010101" d="M15.966,44.433c0,1.417-1.148,2.566-2.565,2.566H2.565C1.149,46.999,0,45.849,0,44.433v-1.426
			c0-1.417,1.149-2.566,2.565-2.566H13.4c1.417,0,2.565,1.149,2.565,2.566V44.433z"/>
		<path fill="#010101" d="M15.966,54.543c0,1.417-1.148,2.565-2.565,2.565H2.565C1.149,57.108,0,55.96,0,54.543v-1.426
			c0-1.417,1.149-2.566,2.565-2.566H13.4c1.417,0,2.565,1.149,2.565,2.566V54.543z"/>
		<path fill="#010101" d="M15.966,64.653c0,1.417-1.148,2.566-2.565,2.566H2.565C1.149,67.219,0,66.07,0,64.653v-1.425
			c0-1.417,1.149-2.565,2.565-2.565H13.4c1.417,0,2.565,1.148,2.565,2.565V64.653z"/>
		<path fill="#010101" d="M15.966,74.763c0,1.417-1.148,2.566-2.565,2.566H2.565C1.149,77.329,0,76.18,0,74.763v-1.425
			c0-1.417,1.149-2.566,2.565-2.566H13.4c1.417,0,2.565,1.148,2.565,2.566V74.763z"/>
		<path fill="#010101" d="M15.966,84.873c0,1.417-1.148,2.566-2.565,2.566H2.565C1.149,87.439,0,86.29,0,84.873v-1.425
			c0-1.417,1.149-2.566,2.565-2.566H13.4c1.417,0,2.565,1.149,2.565,2.566V84.873z"/>
		<path fill="#010101" d="M15.966,94.984c0,1.417-1.148,2.566-2.565,2.566H2.565C1.149,97.55,0,96.4,0,94.984v-1.426
			c0-1.417,1.149-2.566,2.565-2.566H13.4c1.417,0,2.565,1.149,2.565,2.566V94.984z"/>
		<path fill="#010101" d="M15.966,105.094c0,1.417-1.148,2.566-2.565,2.566H2.565c-1.416,0-2.565-1.149-2.565-2.566v-1.425
			c0-1.417,1.149-2.566,2.565-2.566H13.4c1.417,0,2.565,1.149,2.565,2.566V105.094z"/>
		<path fill="#010101" d="M15.966,115.204c0,1.417-1.148,2.566-2.565,2.566H2.565c-1.416,0-2.565-1.149-2.565-2.566v-1.425
			c0-1.417,1.149-2.566,2.565-2.566H13.4c1.417,0,2.565,1.148,2.565,2.566V115.204z"/>
		<path fill="#010101" d="M15.966,125.314c0,1.417-1.148,2.565-2.565,2.565H2.565c-1.416,0-2.565-1.148-2.565-2.565v-1.425
			c0-1.417,1.149-2.566,2.565-2.566H13.4c1.417,0,2.565,1.148,2.565,2.566V125.314z"/>
		<path fill="#010101" d="M15.966,135.425c0,1.417-1.148,2.566-2.565,2.566H2.565c-1.416,0-2.565-1.149-2.565-2.566v-1.426
			c0-1.417,1.149-2.565,2.565-2.565H13.4c1.417,0,2.565,1.148,2.565,2.565V135.425z"/>
	</g>
	<g>
		<path fill="#010101" d="M35.257,3.991c0,1.417-1.148,2.566-2.565,2.566H21.857c-1.417,0-2.566-1.149-2.566-2.566V2.566
			C19.291,1.149,20.44,0,21.857,0h10.834c1.417,0,2.565,1.149,2.565,2.566V3.991z"/>
		<path fill="#010101" d="M35.257,14.102c0,1.417-1.148,2.565-2.565,2.565H21.857c-1.417,0-2.566-1.148-2.566-2.565v-1.425
			c0-1.418,1.149-2.566,2.566-2.566h10.834c1.417,0,2.565,1.148,2.565,2.566V14.102z"/>
		<path fill="#010101" d="M35.257,24.212c0,1.417-1.148,2.566-2.565,2.566H21.857c-1.417,0-2.566-1.149-2.566-2.566v-1.425
			c0-1.417,1.149-2.566,2.566-2.566h10.834c1.417,0,2.565,1.148,2.565,2.566V24.212z"/>
		<path fill="#010101" d="M35.257,34.322c0,1.417-1.148,2.565-2.565,2.565H21.857c-1.417,0-2.566-1.148-2.566-2.565v-1.426
			c0-1.417,1.149-2.566,2.566-2.566h10.834c1.417,0,2.565,1.149,2.565,2.566V34.322z"/>
		<path fill="#010101" d="M35.257,44.433c0,1.417-1.148,2.566-2.565,2.566H21.857c-1.417,0-2.566-1.149-2.566-2.566v-1.426
			c0-1.417,1.149-2.566,2.566-2.566h10.834c1.417,0,2.565,1.149,2.565,2.566V44.433z"/>
		<path fill="#010101" d="M35.257,54.543c0,1.417-1.148,2.565-2.565,2.565H21.857c-1.417,0-2.566-1.148-2.566-2.565v-1.426
			c0-1.417,1.149-2.566,2.566-2.566h10.834c1.417,0,2.565,1.149,2.565,2.566V54.543z"/>
		<path fill="#010101" d="M35.257,64.653c0,1.417-1.148,2.566-2.565,2.566H21.857c-1.417,0-2.566-1.148-2.566-2.566v-1.425
			c0-1.417,1.149-2.565,2.566-2.565h10.834c1.417,0,2.565,1.148,2.565,2.565V64.653z"/>
		<path fill="#010101" d="M35.257,74.763c0,1.417-1.148,2.566-2.565,2.566H21.857c-1.417,0-2.566-1.149-2.566-2.566v-1.425
			c0-1.417,1.149-2.566,2.566-2.566h10.834c1.417,0,2.565,1.148,2.565,2.566V74.763z"/>
		<path fill="#010101" d="M35.257,84.873c0,1.417-1.148,2.566-2.565,2.566H21.857c-1.417,0-2.566-1.149-2.566-2.566v-1.425
			c0-1.417,1.149-2.566,2.566-2.566h10.834c1.417,0,2.565,1.149,2.565,2.566V84.873z"/>
		<path fill="#010101" d="M35.257,94.984c0,1.417-1.148,2.566-2.565,2.566H21.857c-1.417,0-2.566-1.149-2.566-2.566v-1.426
			c0-1.417,1.149-2.566,2.566-2.566h10.834c1.417,0,2.565,1.149,2.565,2.566V94.984z"/>
		<path fill="#010101" d="M35.257,105.094c0,1.417-1.148,2.566-2.565,2.566H21.857c-1.417,0-2.566-1.149-2.566-2.566v-1.425
			c0-1.417,1.149-2.566,2.566-2.566h10.834c1.417,0,2.565,1.149,2.565,2.566V105.094z"/>
		<path fill="#010101" d="M35.257,115.204c0,1.417-1.148,2.566-2.565,2.566H21.857c-1.417,0-2.566-1.149-2.566-2.566v-1.425
			c0-1.417,1.149-2.566,2.566-2.566h10.834c1.417,0,2.565,1.148,2.565,2.566V115.204z"/>
		<path fill="#010101" d="M35.257,125.314c0,1.417-1.148,2.565-2.565,2.565H21.857c-1.417,0-2.566-1.148-2.566-2.565v-1.425
			c0-1.417,1.149-2.566,2.566-2.566h10.834c1.417,0,2.565,1.148,2.565,2.566V125.314z"/>
		<path fill="#010101" d="M35.257,135.425c0,1.417-1.148,2.566-2.565,2.566H21.857c-1.417,0-2.566-1.149-2.566-2.566v-1.426
			c0-1.417,1.149-2.565,2.566-2.565h10.834c1.417,0,2.565,1.148,2.565,2.565V135.425z"/>
	</g>
	<g>
		<path fill="#010101" d="M54.548,3.991c0,1.417-1.148,2.566-2.566,2.566H41.148c-1.418,0-2.566-1.149-2.566-2.566V2.566
			C38.582,1.149,39.73,0,41.148,0h10.833c1.418,0,2.566,1.149,2.566,2.566V3.991z"/>
		<path fill="#010101" d="M54.548,14.102c0,1.417-1.148,2.565-2.566,2.565H41.148c-1.418,0-2.566-1.148-2.566-2.565v-1.425
			c0-1.418,1.148-2.566,2.566-2.566h10.833c1.418,0,2.566,1.148,2.566,2.566V14.102z"/>
		<path fill="#010101" d="M54.548,24.212c0,1.417-1.148,2.566-2.566,2.566H41.148c-1.418,0-2.566-1.149-2.566-2.566v-1.425
			c0-1.417,1.148-2.566,2.566-2.566h10.833c1.418,0,2.566,1.148,2.566,2.566V24.212z"/>
		<path fill="#010101" d="M54.548,34.322c0,1.417-1.148,2.565-2.566,2.565H41.148c-1.418,0-2.566-1.148-2.566-2.565v-1.426
			c0-1.417,1.148-2.566,2.566-2.566h10.833c1.418,0,2.566,1.149,2.566,2.566V34.322z"/>
		<path fill="#010101" d="M54.548,44.433c0,1.417-1.148,2.566-2.566,2.566H41.148c-1.418,0-2.566-1.149-2.566-2.566v-1.426
			c0-1.417,1.148-2.566,2.566-2.566h10.833c1.418,0,2.566,1.149,2.566,2.566V44.433z"/>
		<path fill="#010101" d="M54.548,54.543c0,1.417-1.148,2.565-2.566,2.565H41.148c-1.418,0-2.566-1.148-2.566-2.565v-1.426
			c0-1.417,1.148-2.566,2.566-2.566h10.833c1.418,0,2.566,1.149,2.566,2.566V54.543z"/>
		<path fill="#010101" d="M54.548,64.653c0,1.417-1.148,2.566-2.566,2.566H41.148c-1.418,0-2.566-1.148-2.566-2.566v-1.425
			c0-1.417,1.148-2.565,2.566-2.565h10.833c1.418,0,2.566,1.148,2.566,2.565V64.653z"/>
		<path fill="#010101" d="M54.548,74.763c0,1.417-1.148,2.566-2.566,2.566H41.148c-1.418,0-2.566-1.149-2.566-2.566v-1.425
			c0-1.417,1.148-2.566,2.566-2.566h10.833c1.418,0,2.566,1.148,2.566,2.566V74.763z"/>
		<path fill="#010101" d="M54.548,84.873c0,1.417-1.148,2.566-2.566,2.566H41.148c-1.418,0-2.566-1.149-2.566-2.566v-1.425
			c0-1.417,1.148-2.566,2.566-2.566h10.833c1.418,0,2.566,1.149,2.566,2.566V84.873z"/>
		<path fill="#010101" d="M54.548,94.984c0,1.417-1.148,2.566-2.566,2.566H41.148c-1.418,0-2.566-1.149-2.566-2.566v-1.426
			c0-1.417,1.148-2.566,2.566-2.566h10.833c1.418,0,2.566,1.149,2.566,2.566V94.984z"/>
		<path fill="#010101" d="M54.548,105.094c0,1.417-1.148,2.566-2.566,2.566H41.148c-1.418,0-2.566-1.149-2.566-2.566v-1.425
			c0-1.417,1.148-2.566,2.566-2.566h10.833c1.418,0,2.566,1.149,2.566,2.566V105.094z"/>
		<path fill="#010101" d="M54.548,115.204c0,1.417-1.148,2.566-2.566,2.566H41.148c-1.418,0-2.566-1.149-2.566-2.566v-1.425
			c0-1.417,1.148-2.566,2.566-2.566h10.833c1.418,0,2.566,1.148,2.566,2.566V115.204z"/>
		<path fill="#010101" d="M54.548,125.314c0,1.417-1.148,2.565-2.566,2.565H41.148c-1.418,0-2.566-1.148-2.566-2.565v-1.425
			c0-1.417,1.148-2.566,2.566-2.566h10.833c1.418,0,2.566,1.148,2.566,2.566V125.314z"/>
		<path fill="#010101" d="M54.548,135.425c0,1.417-1.148,2.566-2.566,2.566H41.148c-1.418,0-2.566-1.149-2.566-2.566v-1.426
			c0-1.417,1.148-2.565,2.566-2.565h10.833c1.418,0,2.566,1.148,2.566,2.565V135.425z"/>
	</g>
	<g>
		<path fill="#010101" d="M73.839,3.991c0,1.417-1.149,2.566-2.565,2.566H60.439c-1.418,0-2.566-1.149-2.566-2.566V2.566
			C57.873,1.149,59.021,0,60.439,0h10.834c1.416,0,2.565,1.149,2.565,2.566V3.991z"/>
		<path fill="#010101" d="M73.839,14.102c0,1.417-1.149,2.565-2.565,2.565H60.439c-1.418,0-2.566-1.148-2.566-2.565v-1.425
			c0-1.418,1.148-2.566,2.566-2.566h10.834c1.416,0,2.565,1.148,2.565,2.566V14.102z"/>
		<path fill="#010101" d="M73.839,24.212c0,1.417-1.149,2.566-2.565,2.566H60.439c-1.418,0-2.566-1.149-2.566-2.566v-1.425
			c0-1.417,1.148-2.566,2.566-2.566h10.834c1.416,0,2.565,1.148,2.565,2.566V24.212z"/>
		<path fill="#010101" d="M73.839,34.322c0,1.417-1.149,2.565-2.565,2.565H60.439c-1.418,0-2.566-1.148-2.566-2.565v-1.426
			c0-1.417,1.148-2.566,2.566-2.566h10.834c1.416,0,2.565,1.149,2.565,2.566V34.322z"/>
		<path fill="#010101" d="M73.839,44.433c0,1.417-1.149,2.566-2.565,2.566H60.439c-1.418,0-2.566-1.149-2.566-2.566v-1.426
			c0-1.417,1.148-2.566,2.566-2.566h10.834c1.416,0,2.565,1.149,2.565,2.566V44.433z"/>
		<path fill="#010101" d="M73.839,54.543c0,1.417-1.149,2.565-2.565,2.565H60.439c-1.418,0-2.566-1.148-2.566-2.565v-1.426
			c0-1.417,1.148-2.566,2.566-2.566h10.834c1.416,0,2.565,1.149,2.565,2.566V54.543z"/>
		<path fill="#010101" d="M73.839,64.653c0,1.417-1.149,2.566-2.565,2.566H60.439c-1.418,0-2.566-1.148-2.566-2.566v-1.425
			c0-1.417,1.148-2.565,2.566-2.565h10.834c1.416,0,2.565,1.148,2.565,2.565V64.653z"/>
		<path fill="#010101" d="M73.839,74.763c0,1.417-1.149,2.566-2.565,2.566H60.439c-1.418,0-2.566-1.149-2.566-2.566v-1.425
			c0-1.417,1.148-2.566,2.566-2.566h10.834c1.416,0,2.565,1.148,2.565,2.566V74.763z"/>
		<path fill="#010101" d="M73.839,84.873c0,1.417-1.149,2.566-2.565,2.566H60.439c-1.418,0-2.566-1.149-2.566-2.566v-1.425
			c0-1.417,1.148-2.566,2.566-2.566h10.834c1.416,0,2.565,1.149,2.565,2.566V84.873z"/>
		<path fill="#010101" d="M73.839,94.984c0,1.417-1.149,2.566-2.565,2.566H60.439c-1.418,0-2.566-1.149-2.566-2.566v-1.426
			c0-1.417,1.148-2.566,2.566-2.566h10.834c1.416,0,2.565,1.149,2.565,2.566V94.984z"/>
		<path fill="#010101" d="M73.839,105.094c0,1.417-1.149,2.566-2.565,2.566H60.439c-1.418,0-2.566-1.149-2.566-2.566v-1.425
			c0-1.417,1.148-2.566,2.566-2.566h10.834c1.416,0,2.565,1.149,2.565,2.566V105.094z"/>
		<path fill="#010101" d="M73.839,115.204c0,1.417-1.149,2.566-2.565,2.566H60.439c-1.418,0-2.566-1.149-2.566-2.566v-1.425
			c0-1.417,1.148-2.566,2.566-2.566h10.834c1.416,0,2.565,1.148,2.565,2.566V115.204z"/>
		<path fill="#010101" d="M73.839,125.314c0,1.417-1.149,2.565-2.565,2.565H60.439c-1.418,0-2.566-1.148-2.566-2.565v-1.425
			c0-1.417,1.148-2.566,2.566-2.566h10.834c1.416,0,2.565,1.148,2.565,2.566V125.314z"/>
		<path fill="#010101" d="M73.839,135.425c0,1.417-1.149,2.566-2.565,2.566H60.439c-1.418,0-2.566-1.149-2.566-2.566v-1.426
			c0-1.417,1.148-2.565,2.566-2.565h10.834c1.416,0,2.565,1.148,2.565,2.565V135.425z"/>
	</g>
	<g>
		<path fill="#010101" d="M93.131,3.991c0,1.417-1.149,2.566-2.566,2.566H79.73c-1.418,0-2.566-1.149-2.566-2.566V2.566
			C77.164,1.149,78.313,0,79.73,0h10.834c1.417,0,2.566,1.149,2.566,2.566V3.991z"/>
		<path fill="#010101" d="M93.131,14.102c0,1.417-1.149,2.565-2.566,2.565H79.73c-1.418,0-2.566-1.148-2.566-2.565v-1.425
			c0-1.418,1.148-2.566,2.566-2.566h10.834c1.417,0,2.566,1.148,2.566,2.566V14.102z"/>
		<path fill="#010101" d="M93.131,24.212c0,1.417-1.149,2.566-2.566,2.566H79.73c-1.418,0-2.566-1.149-2.566-2.566v-1.425
			c0-1.417,1.148-2.566,2.566-2.566h10.834c1.417,0,2.566,1.148,2.566,2.566V24.212z"/>
		<path fill="#010101" d="M93.131,34.322c0,1.417-1.149,2.565-2.566,2.565H79.73c-1.418,0-2.566-1.148-2.566-2.565v-1.426
			c0-1.417,1.148-2.566,2.566-2.566h10.834c1.417,0,2.566,1.149,2.566,2.566V34.322z"/>
		<path fill="#010101" d="M93.131,44.433c0,1.417-1.149,2.566-2.566,2.566H79.73c-1.418,0-2.566-1.149-2.566-2.566v-1.426
			c0-1.417,1.148-2.566,2.566-2.566h10.834c1.417,0,2.566,1.149,2.566,2.566V44.433z"/>
		<path fill="#010101" d="M93.131,54.543c0,1.417-1.149,2.565-2.566,2.565H79.73c-1.418,0-2.566-1.148-2.566-2.565v-1.426
			c0-1.417,1.148-2.566,2.566-2.566h10.834c1.417,0,2.566,1.149,2.566,2.566V54.543z"/>
		<path fill="#010101" d="M93.131,64.653c0,1.417-1.149,2.566-2.566,2.566H79.73c-1.418,0-2.566-1.148-2.566-2.566v-1.425
			c0-1.417,1.148-2.565,2.566-2.565h10.834c1.417,0,2.566,1.148,2.566,2.565V64.653z"/>
		<path fill="#010101" d="M93.131,74.763c0,1.417-1.149,2.566-2.566,2.566H79.73c-1.418,0-2.566-1.149-2.566-2.566v-1.425
			c0-1.417,1.148-2.566,2.566-2.566h10.834c1.417,0,2.566,1.148,2.566,2.566V74.763z"/>
		<path fill="#010101" d="M93.131,84.873c0,1.417-1.149,2.566-2.566,2.566H79.73c-1.418,0-2.566-1.149-2.566-2.566v-1.425
			c0-1.417,1.148-2.566,2.566-2.566h10.834c1.417,0,2.566,1.149,2.566,2.566V84.873z"/>
		<path fill="#010101" d="M93.131,94.984c0,1.417-1.149,2.566-2.566,2.566H79.73c-1.418,0-2.566-1.149-2.566-2.566v-1.426
			c0-1.417,1.148-2.566,2.566-2.566h10.834c1.417,0,2.566,1.149,2.566,2.566V94.984z"/>
		<path fill="#010101" d="M93.131,105.094c0,1.417-1.149,2.566-2.566,2.566H79.73c-1.418,0-2.566-1.149-2.566-2.566v-1.425
			c0-1.417,1.148-2.566,2.566-2.566h10.834c1.417,0,2.566,1.149,2.566,2.566V105.094z"/>
		<path fill="#010101" d="M93.131,115.204c0,1.417-1.149,2.566-2.566,2.566H79.73c-1.418,0-2.566-1.149-2.566-2.566v-1.425
			c0-1.417,1.148-2.566,2.566-2.566h10.834c1.417,0,2.566,1.148,2.566,2.566V115.204z"/>
		<path fill="#010101" d="M93.131,125.314c0,1.417-1.149,2.565-2.566,2.565H79.73c-1.418,0-2.566-1.148-2.566-2.565v-1.425
			c0-1.417,1.148-2.566,2.566-2.566h10.834c1.417,0,2.566,1.148,2.566,2.566V125.314z"/>
		<path fill="#010101" d="M93.131,135.425c0,1.417-1.149,2.566-2.566,2.566H79.73c-1.418,0-2.566-1.149-2.566-2.566v-1.426
			c0-1.417,1.148-2.565,2.566-2.565h10.834c1.417,0,2.566,1.148,2.566,2.565V135.425z"/>
	</g>
	<g>
		<path fill="#010101" d="M112.422,3.991c0,1.417-1.149,2.566-2.566,2.566H99.021c-1.416,0-2.565-1.149-2.565-2.566V2.566
			C96.455,1.149,97.604,0,99.021,0h10.835c1.417,0,2.566,1.149,2.566,2.566V3.991z"/>
		<path fill="#010101" d="M112.422,14.102c0,1.417-1.149,2.565-2.566,2.565H99.021c-1.416,0-2.565-1.148-2.565-2.565v-1.425
			c0-1.418,1.149-2.566,2.565-2.566h10.835c1.417,0,2.566,1.148,2.566,2.566V14.102z"/>
		<path fill="#010101" d="M112.422,24.212c0,1.417-1.149,2.566-2.566,2.566H99.021c-1.416,0-2.565-1.149-2.565-2.566v-1.425
			c0-1.417,1.149-2.566,2.565-2.566h10.835c1.417,0,2.566,1.148,2.566,2.566V24.212z"/>
		<path fill="#010101" d="M112.422,34.322c0,1.417-1.149,2.565-2.566,2.565H99.021c-1.416,0-2.565-1.148-2.565-2.565v-1.426
			c0-1.417,1.149-2.566,2.565-2.566h10.835c1.417,0,2.566,1.149,2.566,2.566V34.322z"/>
		<path fill="#010101" d="M112.422,44.433c0,1.417-1.149,2.566-2.566,2.566H99.021c-1.416,0-2.565-1.149-2.565-2.566v-1.426
			c0-1.417,1.149-2.566,2.565-2.566h10.835c1.417,0,2.566,1.149,2.566,2.566V44.433z"/>
		<path fill="#010101" d="M112.422,54.543c0,1.417-1.149,2.565-2.566,2.565H99.021c-1.416,0-2.565-1.148-2.565-2.565v-1.426
			c0-1.417,1.149-2.566,2.565-2.566h10.835c1.417,0,2.566,1.149,2.566,2.566V54.543z"/>
		<path fill="#010101" d="M112.422,64.653c0,1.417-1.149,2.566-2.566,2.566H99.021c-1.416,0-2.565-1.148-2.565-2.566v-1.425
			c0-1.417,1.149-2.565,2.565-2.565h10.835c1.417,0,2.566,1.148,2.566,2.565V64.653z"/>
		<path fill="#010101" d="M112.422,74.763c0,1.417-1.149,2.566-2.566,2.566H99.021c-1.416,0-2.565-1.149-2.565-2.566v-1.425
			c0-1.417,1.149-2.566,2.565-2.566h10.835c1.417,0,2.566,1.148,2.566,2.566V74.763z"/>
		<path fill="#010101" d="M112.422,84.873c0,1.417-1.149,2.566-2.566,2.566H99.021c-1.416,0-2.565-1.149-2.565-2.566v-1.425
			c0-1.417,1.149-2.566,2.565-2.566h10.835c1.417,0,2.566,1.149,2.566,2.566V84.873z"/>
		<path fill="#010101" d="M112.422,94.984c0,1.417-1.149,2.566-2.566,2.566H99.021c-1.416,0-2.565-1.149-2.565-2.566v-1.426
			c0-1.417,1.149-2.566,2.565-2.566h10.835c1.417,0,2.566,1.149,2.566,2.566V94.984z"/>
		<path fill="#010101" d="M112.422,105.094c0,1.417-1.149,2.566-2.566,2.566H99.021c-1.416,0-2.565-1.149-2.565-2.566v-1.425
			c0-1.417,1.149-2.566,2.565-2.566h10.835c1.417,0,2.566,1.149,2.566,2.566V105.094z"/>
		<path fill="#010101" d="M112.422,115.204c0,1.417-1.149,2.566-2.566,2.566H99.021c-1.416,0-2.565-1.149-2.565-2.566v-1.425
			c0-1.417,1.149-2.566,2.565-2.566h10.835c1.417,0,2.566,1.148,2.566,2.566V115.204z"/>
		<path fill="#010101" d="M112.422,125.314c0,1.417-1.149,2.565-2.566,2.565H99.021c-1.416,0-2.565-1.148-2.565-2.565v-1.425
			c0-1.417,1.149-2.566,2.565-2.566h10.835c1.417,0,2.566,1.148,2.566,2.566V125.314z"/>
		<path fill="#010101" d="M112.422,135.425c0,1.417-1.149,2.566-2.566,2.566H99.021c-1.416,0-2.565-1.149-2.565-2.566v-1.426
			c0-1.417,1.149-2.565,2.565-2.565h10.835c1.417,0,2.566,1.148,2.566,2.565V135.425z"/>
	</g>
	<g>
		<path fill="#010101" d="M131.713,3.991c0,1.417-1.148,2.566-2.566,2.566h-10.834c-1.417,0-2.566-1.149-2.566-2.566V2.566
			c0-1.417,1.149-2.566,2.566-2.566h10.834c1.418,0,2.566,1.149,2.566,2.566V3.991z"/>
		<path fill="#010101" d="M131.713,14.102c0,1.417-1.148,2.565-2.566,2.565h-10.834c-1.417,0-2.566-1.148-2.566-2.565v-1.425
			c0-1.418,1.149-2.566,2.566-2.566h10.834c1.418,0,2.566,1.148,2.566,2.566V14.102z"/>
		<path fill="#010101" d="M131.713,24.212c0,1.417-1.148,2.566-2.566,2.566h-10.834c-1.417,0-2.566-1.149-2.566-2.566v-1.425
			c0-1.417,1.149-2.566,2.566-2.566h10.834c1.418,0,2.566,1.148,2.566,2.566V24.212z"/>
		<path fill="#010101" d="M131.713,34.322c0,1.417-1.148,2.565-2.566,2.565h-10.834c-1.417,0-2.566-1.148-2.566-2.565v-1.426
			c0-1.417,1.149-2.566,2.566-2.566h10.834c1.418,0,2.566,1.149,2.566,2.566V34.322z"/>
		<path fill="#010101" d="M131.713,44.433c0,1.417-1.148,2.566-2.566,2.566h-10.834c-1.417,0-2.566-1.149-2.566-2.566v-1.426
			c0-1.417,1.149-2.566,2.566-2.566h10.834c1.418,0,2.566,1.149,2.566,2.566V44.433z"/>
		<path fill="#010101" d="M131.713,54.543c0,1.417-1.148,2.565-2.566,2.565h-10.834c-1.417,0-2.566-1.148-2.566-2.565v-1.426
			c0-1.417,1.149-2.566,2.566-2.566h10.834c1.418,0,2.566,1.149,2.566,2.566V54.543z"/>
		<path fill="#010101" d="M131.713,64.653c0,1.417-1.148,2.566-2.566,2.566h-10.834c-1.417,0-2.566-1.148-2.566-2.566v-1.425
			c0-1.417,1.149-2.565,2.566-2.565h10.834c1.418,0,2.566,1.148,2.566,2.565V64.653z"/>
		<path fill="#010101" d="M131.713,74.763c0,1.417-1.148,2.566-2.566,2.566h-10.834c-1.417,0-2.566-1.149-2.566-2.566v-1.425
			c0-1.417,1.149-2.566,2.566-2.566h10.834c1.418,0,2.566,1.148,2.566,2.566V74.763z"/>
		<path fill="#010101" d="M131.713,84.873c0,1.417-1.148,2.566-2.566,2.566h-10.834c-1.417,0-2.566-1.149-2.566-2.566v-1.425
			c0-1.417,1.149-2.566,2.566-2.566h10.834c1.418,0,2.566,1.149,2.566,2.566V84.873z"/>
		<path fill="#010101" d="M131.713,94.984c0,1.417-1.148,2.566-2.566,2.566h-10.834c-1.417,0-2.566-1.149-2.566-2.566v-1.426
			c0-1.417,1.149-2.566,2.566-2.566h10.834c1.418,0,2.566,1.149,2.566,2.566V94.984z"/>
		<path fill="#010101" d="M131.713,105.094c0,1.417-1.148,2.566-2.566,2.566h-10.834c-1.417,0-2.566-1.149-2.566-2.566v-1.425
			c0-1.417,1.149-2.566,2.566-2.566h10.834c1.418,0,2.566,1.149,2.566,2.566V105.094z"/>
		<path fill="#010101" d="M131.713,115.204c0,1.417-1.148,2.566-2.566,2.566h-10.834c-1.417,0-2.566-1.149-2.566-2.566v-1.425
			c0-1.417,1.149-2.566,2.566-2.566h10.834c1.418,0,2.566,1.148,2.566,2.566V115.204z"/>
		<path fill="#010101" d="M131.713,125.314c0,1.417-1.148,2.565-2.566,2.565h-10.834c-1.417,0-2.566-1.148-2.566-2.565v-1.425
			c0-1.417,1.149-2.566,2.566-2.566h10.834c1.418,0,2.566,1.148,2.566,2.566V125.314z"/>
		<path fill="#010101" d="M131.713,135.425c0,1.417-1.148,2.566-2.566,2.566h-10.834c-1.417,0-2.566-1.149-2.566-2.566v-1.426
			c0-1.417,1.149-2.565,2.566-2.565h10.834c1.418,0,2.566,1.148,2.566,2.565V135.425z"/>
	</g>
	<g>
		<path fill="#010101" d="M151.003,3.991c0,1.417-1.148,2.566-2.565,2.566h-10.834c-1.417,0-2.565-1.149-2.565-2.566V2.566
			c0-1.417,1.148-2.566,2.565-2.566h10.834c1.417,0,2.565,1.149,2.565,2.566V3.991z"/>
		<path fill="#010101" d="M151.003,14.102c0,1.417-1.148,2.565-2.565,2.565h-10.834c-1.417,0-2.565-1.148-2.565-2.565v-1.425
			c0-1.418,1.148-2.566,2.565-2.566h10.834c1.417,0,2.565,1.148,2.565,2.566V14.102z"/>
		<path fill="#010101" d="M151.003,24.212c0,1.417-1.148,2.566-2.565,2.566h-10.834c-1.417,0-2.565-1.149-2.565-2.566v-1.425
			c0-1.417,1.148-2.566,2.565-2.566h10.834c1.417,0,2.565,1.148,2.565,2.566V24.212z"/>
		<path fill="#010101" d="M151.003,34.322c0,1.417-1.148,2.565-2.565,2.565h-10.834c-1.417,0-2.565-1.148-2.565-2.565v-1.426
			c0-1.417,1.148-2.566,2.565-2.566h10.834c1.417,0,2.565,1.149,2.565,2.566V34.322z"/>
		<path fill="#010101" d="M151.003,44.433c0,1.417-1.148,2.566-2.565,2.566h-10.834c-1.417,0-2.565-1.149-2.565-2.566v-1.426
			c0-1.417,1.148-2.566,2.565-2.566h10.834c1.417,0,2.565,1.149,2.565,2.566V44.433z"/>
		<path fill="#010101" d="M151.003,54.543c0,1.417-1.148,2.565-2.565,2.565h-10.834c-1.417,0-2.565-1.148-2.565-2.565v-1.426
			c0-1.417,1.148-2.566,2.565-2.566h10.834c1.417,0,2.565,1.149,2.565,2.566V54.543z"/>
		<path fill="#010101" d="M151.003,64.653c0,1.417-1.148,2.566-2.565,2.566h-10.834c-1.417,0-2.565-1.148-2.565-2.566v-1.425
			c0-1.417,1.148-2.565,2.565-2.565h10.834c1.417,0,2.565,1.148,2.565,2.565V64.653z"/>
		<path fill="#010101" d="M151.003,74.763c0,1.417-1.148,2.566-2.565,2.566h-10.834c-1.417,0-2.565-1.149-2.565-2.566v-1.425
			c0-1.417,1.148-2.566,2.565-2.566h10.834c1.417,0,2.565,1.148,2.565,2.566V74.763z"/>
		<path fill="#010101" d="M151.003,84.873c0,1.417-1.148,2.566-2.565,2.566h-10.834c-1.417,0-2.565-1.149-2.565-2.566v-1.425
			c0-1.417,1.148-2.566,2.565-2.566h10.834c1.417,0,2.565,1.149,2.565,2.566V84.873z"/>
		<path fill="#010101" d="M151.003,94.984c0,1.417-1.148,2.566-2.565,2.566h-10.834c-1.417,0-2.565-1.149-2.565-2.566v-1.426
			c0-1.417,1.148-2.566,2.565-2.566h10.834c1.417,0,2.565,1.149,2.565,2.566V94.984z"/>
		<path fill="#010101" d="M151.003,105.094c0,1.417-1.148,2.566-2.565,2.566h-10.834c-1.417,0-2.565-1.149-2.565-2.566v-1.425
			c0-1.417,1.148-2.566,2.565-2.566h10.834c1.417,0,2.565,1.149,2.565,2.566V105.094z"/>
		<path fill="#010101" d="M151.003,115.204c0,1.417-1.148,2.566-2.565,2.566h-10.834c-1.417,0-2.565-1.149-2.565-2.566v-1.425
			c0-1.417,1.148-2.566,2.565-2.566h10.834c1.417,0,2.565,1.148,2.565,2.566V115.204z"/>
		<path fill="#010101" d="M151.003,125.314c0,1.417-1.148,2.565-2.565,2.565h-10.834c-1.417,0-2.565-1.148-2.565-2.565v-1.425
			c0-1.417,1.148-2.566,2.565-2.566h10.834c1.417,0,2.565,1.148,2.565,2.566V125.314z"/>
		<path fill="#010101" d="M151.003,135.425c0,1.417-1.148,2.566-2.565,2.566h-10.834c-1.417,0-2.565-1.149-2.565-2.566v-1.426
			c0-1.417,1.148-2.565,2.565-2.565h10.834c1.417,0,2.565,1.148,2.565,2.565V135.425z"/>
	</g>
	<g>
		<path fill="#010101" d="M170.295,3.991c0,1.417-1.148,2.566-2.566,2.566h-10.834c-1.417,0-2.565-1.149-2.565-2.566V2.566
			c0-1.417,1.148-2.566,2.565-2.566h10.834c1.418,0,2.566,1.149,2.566,2.566V3.991z"/>
		<path fill="#010101" d="M170.295,14.102c0,1.417-1.148,2.565-2.566,2.565h-10.834c-1.417,0-2.565-1.148-2.565-2.565v-1.425
			c0-1.418,1.148-2.566,2.565-2.566h10.834c1.418,0,2.566,1.148,2.566,2.566V14.102z"/>
		<path fill="#010101" d="M170.295,24.212c0,1.417-1.148,2.566-2.566,2.566h-10.834c-1.417,0-2.565-1.149-2.565-2.566v-1.425
			c0-1.417,1.148-2.566,2.565-2.566h10.834c1.418,0,2.566,1.148,2.566,2.566V24.212z"/>
		<path fill="#010101" d="M170.295,34.322c0,1.417-1.148,2.565-2.566,2.565h-10.834c-1.417,0-2.565-1.148-2.565-2.565v-1.426
			c0-1.417,1.148-2.566,2.565-2.566h10.834c1.418,0,2.566,1.149,2.566,2.566V34.322z"/>
		<path fill="#010101" d="M170.295,44.433c0,1.417-1.148,2.566-2.566,2.566h-10.834c-1.417,0-2.565-1.149-2.565-2.566v-1.426
			c0-1.417,1.148-2.566,2.565-2.566h10.834c1.418,0,2.566,1.149,2.566,2.566V44.433z"/>
		<path fill="#010101" d="M170.295,54.543c0,1.417-1.148,2.565-2.566,2.565h-10.834c-1.417,0-2.565-1.148-2.565-2.565v-1.426
			c0-1.417,1.148-2.566,2.565-2.566h10.834c1.418,0,2.566,1.149,2.566,2.566V54.543z"/>
		<path fill="#010101" d="M170.295,64.653c0,1.417-1.148,2.566-2.566,2.566h-10.834c-1.417,0-2.565-1.148-2.565-2.566v-1.425
			c0-1.417,1.148-2.565,2.565-2.565h10.834c1.418,0,2.566,1.148,2.566,2.565V64.653z"/>
		<path fill="#010101" d="M170.295,74.763c0,1.417-1.148,2.566-2.566,2.566h-10.834c-1.417,0-2.565-1.149-2.565-2.566v-1.425
			c0-1.417,1.148-2.566,2.565-2.566h10.834c1.418,0,2.566,1.148,2.566,2.566V74.763z"/>
		<path fill="#010101" d="M170.295,84.873c0,1.417-1.148,2.566-2.566,2.566h-10.834c-1.417,0-2.565-1.149-2.565-2.566v-1.425
			c0-1.417,1.148-2.566,2.565-2.566h10.834c1.418,0,2.566,1.149,2.566,2.566V84.873z"/>
		<path fill="#010101" d="M170.295,94.984c0,1.417-1.148,2.566-2.566,2.566h-10.834c-1.417,0-2.565-1.149-2.565-2.566v-1.426
			c0-1.417,1.148-2.566,2.565-2.566h10.834c1.418,0,2.566,1.149,2.566,2.566V94.984z"/>
		<path fill="#010101" d="M170.295,105.094c0,1.417-1.148,2.566-2.566,2.566h-10.834c-1.417,0-2.565-1.149-2.565-2.566v-1.425
			c0-1.417,1.148-2.566,2.565-2.566h10.834c1.418,0,2.566,1.149,2.566,2.566V105.094z"/>
		<path fill="#010101" d="M170.295,115.204c0,1.417-1.148,2.566-2.566,2.566h-10.834c-1.417,0-2.565-1.149-2.565-2.566v-1.425
			c0-1.417,1.148-2.566,2.565-2.566h10.834c1.418,0,2.566,1.148,2.566,2.566V115.204z"/>
		<path fill="#010101" d="M170.295,125.314c0,1.417-1.148,2.565-2.566,2.565h-10.834c-1.417,0-2.565-1.148-2.565-2.565v-1.425
			c0-1.417,1.148-2.566,2.565-2.566h10.834c1.418,0,2.566,1.148,2.566,2.566V125.314z"/>
		<path fill="#010101" d="M170.295,135.425c0,1.417-1.148,2.566-2.566,2.566h-10.834c-1.417,0-2.565-1.149-2.565-2.566v-1.426
			c0-1.417,1.148-2.565,2.565-2.565h10.834c1.418,0,2.566,1.148,2.566,2.565V135.425z"/>
	</g>
	<g>
		<path fill="#010101" d="M189.586,3.991c0,1.417-1.149,2.566-2.566,2.566h-10.834c-1.417,0-2.566-1.149-2.566-2.566V2.566
			c0-1.417,1.149-2.566,2.566-2.566h10.834c1.417,0,2.566,1.149,2.566,2.566V3.991z"/>
		<path fill="#010101" d="M189.586,14.102c0,1.417-1.149,2.565-2.566,2.565h-10.834c-1.417,0-2.566-1.148-2.566-2.565v-1.425
			c0-1.418,1.149-2.566,2.566-2.566h10.834c1.417,0,2.566,1.148,2.566,2.566V14.102z"/>
		<path fill="#010101" d="M189.586,24.212c0,1.417-1.149,2.566-2.566,2.566h-10.834c-1.417,0-2.566-1.149-2.566-2.566v-1.425
			c0-1.417,1.149-2.566,2.566-2.566h10.834c1.417,0,2.566,1.148,2.566,2.566V24.212z"/>
		<path fill="#010101" d="M189.586,34.322c0,1.417-1.149,2.565-2.566,2.565h-10.834c-1.417,0-2.566-1.148-2.566-2.565v-1.426
			c0-1.417,1.149-2.566,2.566-2.566h10.834c1.417,0,2.566,1.149,2.566,2.566V34.322z"/>
		<path fill="#010101" d="M189.586,44.433c0,1.417-1.149,2.566-2.566,2.566h-10.834c-1.417,0-2.566-1.149-2.566-2.566v-1.426
			c0-1.417,1.149-2.566,2.566-2.566h10.834c1.417,0,2.566,1.149,2.566,2.566V44.433z"/>
		<path fill="#010101" d="M189.586,54.543c0,1.417-1.149,2.565-2.566,2.565h-10.834c-1.417,0-2.566-1.148-2.566-2.565v-1.426
			c0-1.417,1.149-2.566,2.566-2.566h10.834c1.417,0,2.566,1.149,2.566,2.566V54.543z"/>
		<path fill="#010101" d="M189.586,64.653c0,1.417-1.149,2.566-2.566,2.566h-10.834c-1.417,0-2.566-1.148-2.566-2.566v-1.425
			c0-1.417,1.149-2.565,2.566-2.565h10.834c1.417,0,2.566,1.148,2.566,2.565V64.653z"/>
		<path fill="#010101" d="M189.586,74.763c0,1.417-1.149,2.566-2.566,2.566h-10.834c-1.417,0-2.566-1.149-2.566-2.566v-1.425
			c0-1.417,1.149-2.566,2.566-2.566h10.834c1.417,0,2.566,1.148,2.566,2.566V74.763z"/>
		<path fill="#010101" d="M189.586,84.873c0,1.417-1.149,2.566-2.566,2.566h-10.834c-1.417,0-2.566-1.149-2.566-2.566v-1.425
			c0-1.417,1.149-2.566,2.566-2.566h10.834c1.417,0,2.566,1.149,2.566,2.566V84.873z"/>
		<path fill="#010101" d="M189.586,94.984c0,1.417-1.149,2.566-2.566,2.566h-10.834c-1.417,0-2.566-1.149-2.566-2.566v-1.426
			c0-1.417,1.149-2.566,2.566-2.566h10.834c1.417,0,2.566,1.149,2.566,2.566V94.984z"/>
		<path fill="#010101" d="M189.586,105.094c0,1.417-1.149,2.566-2.566,2.566h-10.834c-1.417,0-2.566-1.149-2.566-2.566v-1.425
			c0-1.417,1.149-2.566,2.566-2.566h10.834c1.417,0,2.566,1.149,2.566,2.566V105.094z"/>
		<path fill="#010101" d="M189.586,115.204c0,1.417-1.149,2.566-2.566,2.566h-10.834c-1.417,0-2.566-1.149-2.566-2.566v-1.425
			c0-1.417,1.149-2.566,2.566-2.566h10.834c1.417,0,2.566,1.148,2.566,2.566V115.204z"/>
		<path fill="#010101" d="M189.586,125.314c0,1.417-1.149,2.565-2.566,2.565h-10.834c-1.417,0-2.566-1.148-2.566-2.565v-1.425
			c0-1.417,1.149-2.566,2.566-2.566h10.834c1.417,0,2.566,1.148,2.566,2.566V125.314z"/>
		<path fill="#010101" d="M189.586,135.425c0,1.417-1.149,2.566-2.566,2.566h-10.834c-1.417,0-2.566-1.149-2.566-2.566v-1.426
			c0-1.417,1.149-2.565,2.566-2.565h10.834c1.417,0,2.566,1.148,2.566,2.565V135.425z"/>
	</g>
	<g>
		<path fill="#010101" d="M208.877,3.991c0,1.417-1.149,2.566-2.565,2.566h-10.835c-1.417,0-2.566-1.149-2.566-2.566V2.566
			c0-1.417,1.149-2.566,2.566-2.566h10.835c1.416,0,2.565,1.149,2.565,2.566V3.991z"/>
		<path fill="#010101" d="M208.877,14.102c0,1.417-1.149,2.565-2.565,2.565h-10.835c-1.417,0-2.566-1.148-2.566-2.565v-1.425
			c0-1.418,1.149-2.566,2.566-2.566h10.835c1.416,0,2.565,1.148,2.565,2.566V14.102z"/>
		<path fill="#010101" d="M208.877,24.212c0,1.417-1.149,2.566-2.565,2.566h-10.835c-1.417,0-2.566-1.149-2.566-2.566v-1.425
			c0-1.417,1.149-2.566,2.566-2.566h10.835c1.416,0,2.565,1.148,2.565,2.566V24.212z"/>
		<path fill="#010101" d="M208.877,34.322c0,1.417-1.149,2.565-2.565,2.565h-10.835c-1.417,0-2.566-1.148-2.566-2.565v-1.426
			c0-1.417,1.149-2.566,2.566-2.566h10.835c1.416,0,2.565,1.149,2.565,2.566V34.322z"/>
		<path fill="#010101" d="M208.877,44.433c0,1.417-1.149,2.566-2.565,2.566h-10.835c-1.417,0-2.566-1.149-2.566-2.566v-1.426
			c0-1.417,1.149-2.566,2.566-2.566h10.835c1.416,0,2.565,1.149,2.565,2.566V44.433z"/>
		<path fill="#010101" d="M208.877,54.543c0,1.417-1.149,2.565-2.565,2.565h-10.835c-1.417,0-2.566-1.148-2.566-2.565v-1.426
			c0-1.417,1.149-2.566,2.566-2.566h10.835c1.416,0,2.565,1.149,2.565,2.566V54.543z"/>
		<path fill="#010101" d="M208.877,64.653c0,1.417-1.149,2.566-2.565,2.566h-10.835c-1.417,0-2.566-1.148-2.566-2.566v-1.425
			c0-1.417,1.149-2.565,2.566-2.565h10.835c1.416,0,2.565,1.148,2.565,2.565V64.653z"/>
		<path fill="#010101" d="M208.877,74.763c0,1.417-1.149,2.566-2.565,2.566h-10.835c-1.417,0-2.566-1.149-2.566-2.566v-1.425
			c0-1.417,1.149-2.566,2.566-2.566h10.835c1.416,0,2.565,1.148,2.565,2.566V74.763z"/>
		<path fill="#010101" d="M208.877,84.873c0,1.417-1.149,2.566-2.565,2.566h-10.835c-1.417,0-2.566-1.149-2.566-2.566v-1.425
			c0-1.417,1.149-2.566,2.566-2.566h10.835c1.416,0,2.565,1.149,2.565,2.566V84.873z"/>
		<path fill="#010101" d="M208.877,94.984c0,1.417-1.149,2.566-2.565,2.566h-10.835c-1.417,0-2.566-1.149-2.566-2.566v-1.426
			c0-1.417,1.149-2.566,2.566-2.566h10.835c1.416,0,2.565,1.149,2.565,2.566V94.984z"/>
		<path fill="#010101" d="M208.877,105.094c0,1.417-1.149,2.566-2.565,2.566h-10.835c-1.417,0-2.566-1.149-2.566-2.566v-1.425
			c0-1.417,1.149-2.566,2.566-2.566h10.835c1.416,0,2.565,1.149,2.565,2.566V105.094z"/>
		<path fill="#010101" d="M208.877,115.204c0,1.417-1.149,2.566-2.565,2.566h-10.835c-1.417,0-2.566-1.149-2.566-2.566v-1.425
			c0-1.417,1.149-2.566,2.566-2.566h10.835c1.416,0,2.565,1.148,2.565,2.566V115.204z"/>
		<path fill="#010101" d="M208.877,125.314c0,1.417-1.149,2.565-2.565,2.565h-10.835c-1.417,0-2.566-1.148-2.566-2.565v-1.425
			c0-1.417,1.149-2.566,2.566-2.566h10.835c1.416,0,2.565,1.148,2.565,2.566V125.314z"/>
		<path fill="#010101" d="M208.877,135.425c0,1.417-1.149,2.566-2.565,2.566h-10.835c-1.417,0-2.566-1.149-2.566-2.566v-1.426
			c0-1.417,1.149-2.565,2.566-2.565h10.835c1.416,0,2.565,1.148,2.565,2.565V135.425z"/>
	</g>
	<g>
		<path fill="#010101" d="M228.169,3.991c0,1.417-1.149,2.566-2.566,2.566h-10.835c-1.417,0-2.566-1.149-2.566-2.566V2.566
			c0-1.417,1.149-2.566,2.566-2.566h10.835c1.417,0,2.566,1.149,2.566,2.566V3.991z"/>
		<path fill="#010101" d="M228.169,14.102c0,1.417-1.149,2.565-2.566,2.565h-10.835c-1.417,0-2.566-1.148-2.566-2.565v-1.425
			c0-1.418,1.149-2.566,2.566-2.566h10.835c1.417,0,2.566,1.148,2.566,2.566V14.102z"/>
		<path fill="#010101" d="M228.169,24.212c0,1.417-1.149,2.566-2.566,2.566h-10.835c-1.417,0-2.566-1.149-2.566-2.566v-1.425
			c0-1.417,1.149-2.566,2.566-2.566h10.835c1.417,0,2.566,1.148,2.566,2.566V24.212z"/>
		<path fill="#010101" d="M228.169,34.322c0,1.417-1.149,2.565-2.566,2.565h-10.835c-1.417,0-2.566-1.148-2.566-2.565v-1.426
			c0-1.417,1.149-2.566,2.566-2.566h10.835c1.417,0,2.566,1.149,2.566,2.566V34.322z"/>
		<path fill="#010101" d="M228.169,44.433c0,1.417-1.149,2.566-2.566,2.566h-10.835c-1.417,0-2.566-1.149-2.566-2.566v-1.426
			c0-1.417,1.149-2.566,2.566-2.566h10.835c1.417,0,2.566,1.149,2.566,2.566V44.433z"/>
		<path fill="#010101" d="M228.169,54.543c0,1.417-1.149,2.565-2.566,2.565h-10.835c-1.417,0-2.566-1.148-2.566-2.565v-1.426
			c0-1.417,1.149-2.566,2.566-2.566h10.835c1.417,0,2.566,1.149,2.566,2.566V54.543z"/>
		<path fill="#010101" d="M228.169,64.653c0,1.417-1.149,2.566-2.566,2.566h-10.835c-1.417,0-2.566-1.148-2.566-2.566v-1.425
			c0-1.417,1.149-2.565,2.566-2.565h10.835c1.417,0,2.566,1.148,2.566,2.565V64.653z"/>
		<path fill="#010101" d="M228.169,74.763c0,1.417-1.149,2.566-2.566,2.566h-10.835c-1.417,0-2.566-1.149-2.566-2.566v-1.425
			c0-1.417,1.149-2.566,2.566-2.566h10.835c1.417,0,2.566,1.148,2.566,2.566V74.763z"/>
		<path fill="#010101" d="M228.169,84.873c0,1.417-1.149,2.566-2.566,2.566h-10.835c-1.417,0-2.566-1.149-2.566-2.566v-1.425
			c0-1.417,1.149-2.566,2.566-2.566h10.835c1.417,0,2.566,1.149,2.566,2.566V84.873z"/>
		<path fill="#010101" d="M228.169,94.984c0,1.417-1.149,2.566-2.566,2.566h-10.835c-1.417,0-2.566-1.149-2.566-2.566v-1.426
			c0-1.417,1.149-2.566,2.566-2.566h10.835c1.417,0,2.566,1.149,2.566,2.566V94.984z"/>
		<path fill="#010101" d="M228.169,105.094c0,1.417-1.149,2.566-2.566,2.566h-10.835c-1.417,0-2.566-1.149-2.566-2.566v-1.425
			c0-1.417,1.149-2.566,2.566-2.566h10.835c1.417,0,2.566,1.149,2.566,2.566V105.094z"/>
		<path fill="#010101" d="M228.169,115.204c0,1.417-1.149,2.566-2.566,2.566h-10.835c-1.417,0-2.566-1.149-2.566-2.566v-1.425
			c0-1.417,1.149-2.566,2.566-2.566h10.835c1.417,0,2.566,1.148,2.566,2.566V115.204z"/>
		<path fill="#010101" d="M228.169,125.314c0,1.417-1.149,2.565-2.566,2.565h-10.835c-1.417,0-2.566-1.148-2.566-2.565v-1.425
			c0-1.417,1.149-2.566,2.566-2.566h10.835c1.417,0,2.566,1.148,2.566,2.566V125.314z"/>
		<path fill="#010101" d="M228.169,135.425c0,1.417-1.149,2.566-2.566,2.566h-10.835c-1.417,0-2.566-1.149-2.566-2.566v-1.426
			c0-1.417,1.149-2.565,2.566-2.565h10.835c1.417,0,2.566,1.148,2.566,2.565V135.425z"/>
	</g>
	<g>
		<path fill="#010101" d="M247.459,3.991c0,1.417-1.148,2.566-2.566,2.566h-10.834c-1.416,0-2.565-1.149-2.565-2.566V2.566
			c0-1.417,1.149-2.566,2.565-2.566h10.834c1.418,0,2.566,1.149,2.566,2.566V3.991z"/>
		<path fill="#010101" d="M247.459,14.102c0,1.417-1.148,2.565-2.566,2.565h-10.834c-1.416,0-2.565-1.148-2.565-2.565v-1.425
			c0-1.418,1.149-2.566,2.565-2.566h10.834c1.418,0,2.566,1.148,2.566,2.566V14.102z"/>
		<path fill="#010101" d="M247.459,24.212c0,1.417-1.148,2.566-2.566,2.566h-10.834c-1.416,0-2.565-1.149-2.565-2.566v-1.425
			c0-1.417,1.149-2.566,2.565-2.566h10.834c1.418,0,2.566,1.148,2.566,2.566V24.212z"/>
		<path fill="#010101" d="M247.459,34.322c0,1.417-1.148,2.565-2.566,2.565h-10.834c-1.416,0-2.565-1.148-2.565-2.565v-1.426
			c0-1.417,1.149-2.566,2.565-2.566h10.834c1.418,0,2.566,1.149,2.566,2.566V34.322z"/>
		<path fill="#010101" d="M247.459,44.433c0,1.417-1.148,2.566-2.566,2.566h-10.834c-1.416,0-2.565-1.149-2.565-2.566v-1.426
			c0-1.417,1.149-2.566,2.565-2.566h10.834c1.418,0,2.566,1.149,2.566,2.566V44.433z"/>
		<path fill="#010101" d="M247.459,54.543c0,1.417-1.148,2.565-2.566,2.565h-10.834c-1.416,0-2.565-1.148-2.565-2.565v-1.426
			c0-1.417,1.149-2.566,2.565-2.566h10.834c1.418,0,2.566,1.149,2.566,2.566V54.543z"/>
		<path fill="#010101" d="M247.459,64.653c0,1.417-1.148,2.566-2.566,2.566h-10.834c-1.416,0-2.565-1.148-2.565-2.566v-1.425
			c0-1.417,1.149-2.565,2.565-2.565h10.834c1.418,0,2.566,1.148,2.566,2.565V64.653z"/>
		<path fill="#010101" d="M247.459,74.763c0,1.417-1.148,2.566-2.566,2.566h-10.834c-1.416,0-2.565-1.149-2.565-2.566v-1.425
			c0-1.417,1.149-2.566,2.565-2.566h10.834c1.418,0,2.566,1.148,2.566,2.566V74.763z"/>
		<path fill="#010101" d="M247.459,84.873c0,1.417-1.148,2.566-2.566,2.566h-10.834c-1.416,0-2.565-1.149-2.565-2.566v-1.425
			c0-1.417,1.149-2.566,2.565-2.566h10.834c1.418,0,2.566,1.149,2.566,2.566V84.873z"/>
		<path fill="#010101" d="M247.459,94.984c0,1.417-1.148,2.566-2.566,2.566h-10.834c-1.416,0-2.565-1.149-2.565-2.566v-1.426
			c0-1.417,1.149-2.566,2.565-2.566h10.834c1.418,0,2.566,1.149,2.566,2.566V94.984z"/>
		<path fill="#010101" d="M247.459,105.094c0,1.417-1.148,2.566-2.566,2.566h-10.834c-1.416,0-2.565-1.149-2.565-2.566v-1.425
			c0-1.417,1.149-2.566,2.565-2.566h10.834c1.418,0,2.566,1.149,2.566,2.566V105.094z"/>
		<path fill="#010101" d="M247.459,115.204c0,1.417-1.148,2.566-2.566,2.566h-10.834c-1.416,0-2.565-1.149-2.565-2.566v-1.425
			c0-1.417,1.149-2.566,2.565-2.566h10.834c1.418,0,2.566,1.148,2.566,2.566V115.204z"/>
		<path fill="#010101" d="M247.459,125.314c0,1.417-1.148,2.565-2.566,2.565h-10.834c-1.416,0-2.565-1.148-2.565-2.565v-1.425
			c0-1.417,1.149-2.566,2.565-2.566h10.834c1.418,0,2.566,1.148,2.566,2.566V125.314z"/>
		<path fill="#010101" d="M247.459,135.425c0,1.417-1.148,2.566-2.566,2.566h-10.834c-1.416,0-2.565-1.149-2.565-2.566v-1.426
			c0-1.417,1.149-2.565,2.565-2.565h10.834c1.418,0,2.566,1.148,2.566,2.565V135.425z"/>
	</g>
	<g>
		<path fill="#010101" d="M266.75,3.991c0,1.417-1.148,2.566-2.566,2.566h-10.833c-1.418,0-2.566-1.149-2.566-2.566V2.566
			c0-1.417,1.148-2.566,2.566-2.566h10.833c1.418,0,2.566,1.149,2.566,2.566V3.991z"/>
		<path fill="#010101" d="M266.75,14.102c0,1.417-1.148,2.565-2.566,2.565h-10.833c-1.418,0-2.566-1.148-2.566-2.565v-1.425
			c0-1.418,1.148-2.566,2.566-2.566h10.833c1.418,0,2.566,1.148,2.566,2.566V14.102z"/>
		<path fill="#010101" d="M266.75,24.212c0,1.417-1.148,2.566-2.566,2.566h-10.833c-1.418,0-2.566-1.149-2.566-2.566v-1.425
			c0-1.417,1.148-2.566,2.566-2.566h10.833c1.418,0,2.566,1.148,2.566,2.566V24.212z"/>
		<path fill="#010101" d="M266.75,34.322c0,1.417-1.148,2.565-2.566,2.565h-10.833c-1.418,0-2.566-1.148-2.566-2.565v-1.426
			c0-1.417,1.148-2.566,2.566-2.566h10.833c1.418,0,2.566,1.149,2.566,2.566V34.322z"/>
		<path fill="#010101" d="M266.75,44.433c0,1.417-1.148,2.566-2.566,2.566h-10.833c-1.418,0-2.566-1.149-2.566-2.566v-1.426
			c0-1.417,1.148-2.566,2.566-2.566h10.833c1.418,0,2.566,1.149,2.566,2.566V44.433z"/>
		<path fill="#010101" d="M266.75,54.543c0,1.417-1.148,2.565-2.566,2.565h-10.833c-1.418,0-2.566-1.148-2.566-2.565v-1.426
			c0-1.417,1.148-2.566,2.566-2.566h10.833c1.418,0,2.566,1.149,2.566,2.566V54.543z"/>
		<path fill="#010101" d="M266.75,64.653c0,1.417-1.148,2.566-2.566,2.566h-10.833c-1.418,0-2.566-1.148-2.566-2.566v-1.425
			c0-1.417,1.148-2.565,2.566-2.565h10.833c1.418,0,2.566,1.148,2.566,2.565V64.653z"/>
		<path fill="#010101" d="M266.75,74.763c0,1.417-1.148,2.566-2.566,2.566h-10.833c-1.418,0-2.566-1.149-2.566-2.566v-1.425
			c0-1.417,1.148-2.566,2.566-2.566h10.833c1.418,0,2.566,1.148,2.566,2.566V74.763z"/>
		<path fill="#010101" d="M266.75,84.873c0,1.417-1.148,2.566-2.566,2.566h-10.833c-1.418,0-2.566-1.149-2.566-2.566v-1.425
			c0-1.417,1.148-2.566,2.566-2.566h10.833c1.418,0,2.566,1.149,2.566,2.566V84.873z"/>
		<path fill="#010101" d="M266.75,94.984c0,1.417-1.148,2.566-2.566,2.566h-10.833c-1.418,0-2.566-1.149-2.566-2.566v-1.426
			c0-1.417,1.148-2.566,2.566-2.566h10.833c1.418,0,2.566,1.149,2.566,2.566V94.984z"/>
		<path fill="#010101" d="M266.75,105.094c0,1.417-1.148,2.566-2.566,2.566h-10.833c-1.418,0-2.566-1.149-2.566-2.566v-1.425
			c0-1.417,1.148-2.566,2.566-2.566h10.833c1.418,0,2.566,1.149,2.566,2.566V105.094z"/>
		<path fill="#010101" d="M266.75,115.204c0,1.417-1.148,2.566-2.566,2.566h-10.833c-1.418,0-2.566-1.149-2.566-2.566v-1.425
			c0-1.417,1.148-2.566,2.566-2.566h10.833c1.418,0,2.566,1.148,2.566,2.566V115.204z"/>
		<path fill="#010101" d="M266.75,125.314c0,1.417-1.148,2.565-2.566,2.565h-10.833c-1.418,0-2.566-1.148-2.566-2.565v-1.425
			c0-1.417,1.148-2.566,2.566-2.566h10.833c1.418,0,2.566,1.148,2.566,2.566V125.314z"/>
		<path fill="#010101" d="M266.75,135.425c0,1.417-1.148,2.566-2.566,2.566h-10.833c-1.418,0-2.566-1.149-2.566-2.566v-1.426
			c0-1.417,1.148-2.565,2.566-2.565h10.833c1.418,0,2.566,1.148,2.566,2.565V135.425z"/>
	</g>
	<g>
		<path fill="#010101" d="M286.041,3.991c0,1.417-1.148,2.566-2.566,2.566h-10.833c-1.417,0-2.565-1.149-2.565-2.566V2.566
			c0-1.417,1.148-2.566,2.565-2.566h10.833c1.418,0,2.566,1.149,2.566,2.566V3.991z"/>
		<path fill="#010101" d="M286.041,14.102c0,1.417-1.148,2.565-2.566,2.565h-10.833c-1.417,0-2.565-1.148-2.565-2.565v-1.425
			c0-1.418,1.148-2.566,2.565-2.566h10.833c1.418,0,2.566,1.148,2.566,2.566V14.102z"/>
		<path fill="#010101" d="M286.041,24.212c0,1.417-1.148,2.566-2.566,2.566h-10.833c-1.417,0-2.565-1.149-2.565-2.566v-1.425
			c0-1.417,1.148-2.566,2.565-2.566h10.833c1.418,0,2.566,1.148,2.566,2.566V24.212z"/>
		<path fill="#010101" d="M286.041,34.322c0,1.417-1.148,2.565-2.566,2.565h-10.833c-1.417,0-2.565-1.148-2.565-2.565v-1.426
			c0-1.417,1.148-2.566,2.565-2.566h10.833c1.418,0,2.566,1.149,2.566,2.566V34.322z"/>
		<path fill="#010101" d="M286.041,44.433c0,1.417-1.148,2.566-2.566,2.566h-10.833c-1.417,0-2.565-1.149-2.565-2.566v-1.426
			c0-1.417,1.148-2.566,2.565-2.566h10.833c1.418,0,2.566,1.149,2.566,2.566V44.433z"/>
		<path fill="#010101" d="M286.041,54.543c0,1.417-1.148,2.565-2.566,2.565h-10.833c-1.417,0-2.565-1.148-2.565-2.565v-1.426
			c0-1.417,1.148-2.566,2.565-2.566h10.833c1.418,0,2.566,1.149,2.566,2.566V54.543z"/>
		<path fill="#010101" d="M286.041,64.653c0,1.417-1.148,2.566-2.566,2.566h-10.833c-1.417,0-2.565-1.148-2.565-2.566v-1.425
			c0-1.417,1.148-2.565,2.565-2.565h10.833c1.418,0,2.566,1.148,2.566,2.565V64.653z"/>
		<path fill="#010101" d="M286.041,74.763c0,1.417-1.148,2.566-2.566,2.566h-10.833c-1.417,0-2.565-1.149-2.565-2.566v-1.425
			c0-1.417,1.148-2.566,2.565-2.566h10.833c1.418,0,2.566,1.148,2.566,2.566V74.763z"/>
		<path fill="#010101" d="M286.041,84.873c0,1.417-1.148,2.566-2.566,2.566h-10.833c-1.417,0-2.565-1.149-2.565-2.566v-1.425
			c0-1.417,1.148-2.566,2.565-2.566h10.833c1.418,0,2.566,1.149,2.566,2.566V84.873z"/>
		<path fill="#010101" d="M286.041,94.984c0,1.417-1.148,2.566-2.566,2.566h-10.833c-1.417,0-2.565-1.149-2.565-2.566v-1.426
			c0-1.417,1.148-2.566,2.565-2.566h10.833c1.418,0,2.566,1.149,2.566,2.566V94.984z"/>
		<path fill="#010101" d="M286.041,105.094c0,1.417-1.148,2.566-2.566,2.566h-10.833c-1.417,0-2.565-1.149-2.565-2.566v-1.425
			c0-1.417,1.148-2.566,2.565-2.566h10.833c1.418,0,2.566,1.149,2.566,2.566V105.094z"/>
		<path fill="#010101" d="M286.041,115.204c0,1.417-1.148,2.566-2.566,2.566h-10.833c-1.417,0-2.565-1.149-2.565-2.566v-1.425
			c0-1.417,1.148-2.566,2.565-2.566h10.833c1.418,0,2.566,1.148,2.566,2.566V115.204z"/>
		<path fill="#010101" d="M286.041,125.314c0,1.417-1.148,2.565-2.566,2.565h-10.833c-1.417,0-2.565-1.148-2.565-2.565v-1.425
			c0-1.417,1.148-2.566,2.565-2.566h10.833c1.418,0,2.566,1.148,2.566,2.566V125.314z"/>
		<path fill="#010101" d="M286.041,135.425c0,1.417-1.148,2.566-2.566,2.566h-10.833c-1.417,0-2.565-1.149-2.565-2.566v-1.426
			c0-1.417,1.148-2.565,2.565-2.565h10.833c1.418,0,2.566,1.148,2.566,2.565V135.425z"/>
	</g>
	<g>
		<path fill="#010101" d="M305.332,3.991c0,1.417-1.148,2.566-2.565,2.566h-10.835c-1.417,0-2.565-1.149-2.565-2.566V2.566
			c0-1.417,1.148-2.566,2.565-2.566h10.835c1.417,0,2.565,1.149,2.565,2.566V3.991z"/>
		<path fill="#010101" d="M305.332,14.102c0,1.417-1.148,2.565-2.565,2.565h-10.835c-1.417,0-2.565-1.148-2.565-2.565v-1.425
			c0-1.418,1.148-2.566,2.565-2.566h10.835c1.417,0,2.565,1.148,2.565,2.566V14.102z"/>
		<path fill="#010101" d="M305.332,24.212c0,1.417-1.148,2.566-2.565,2.566h-10.835c-1.417,0-2.565-1.149-2.565-2.566v-1.425
			c0-1.417,1.148-2.566,2.565-2.566h10.835c1.417,0,2.565,1.148,2.565,2.566V24.212z"/>
		<path fill="#010101" d="M305.332,34.322c0,1.417-1.148,2.565-2.565,2.565h-10.835c-1.417,0-2.565-1.148-2.565-2.565v-1.426
			c0-1.417,1.148-2.566,2.565-2.566h10.835c1.417,0,2.565,1.149,2.565,2.566V34.322z"/>
		<path fill="#010101" d="M305.332,44.433c0,1.417-1.148,2.566-2.565,2.566h-10.835c-1.417,0-2.565-1.149-2.565-2.566v-1.426
			c0-1.417,1.148-2.566,2.565-2.566h10.835c1.417,0,2.565,1.149,2.565,2.566V44.433z"/>
		<path fill="#010101" d="M305.332,54.543c0,1.417-1.148,2.565-2.565,2.565h-10.835c-1.417,0-2.565-1.148-2.565-2.565v-1.426
			c0-1.417,1.148-2.566,2.565-2.566h10.835c1.417,0,2.565,1.149,2.565,2.566V54.543z"/>
		<path fill="#010101" d="M305.332,64.653c0,1.417-1.148,2.566-2.565,2.566h-10.835c-1.417,0-2.565-1.148-2.565-2.566v-1.425
			c0-1.417,1.148-2.565,2.565-2.565h10.835c1.417,0,2.565,1.148,2.565,2.565V64.653z"/>
		<path fill="#010101" d="M305.332,74.763c0,1.417-1.148,2.566-2.565,2.566h-10.835c-1.417,0-2.565-1.149-2.565-2.566v-1.425
			c0-1.417,1.148-2.566,2.565-2.566h10.835c1.417,0,2.565,1.148,2.565,2.566V74.763z"/>
		<path fill="#010101" d="M305.332,84.873c0,1.417-1.148,2.566-2.565,2.566h-10.835c-1.417,0-2.565-1.149-2.565-2.566v-1.425
			c0-1.417,1.148-2.566,2.565-2.566h10.835c1.417,0,2.565,1.149,2.565,2.566V84.873z"/>
		<path fill="#010101" d="M305.332,94.984c0,1.417-1.148,2.566-2.565,2.566h-10.835c-1.417,0-2.565-1.149-2.565-2.566v-1.426
			c0-1.417,1.148-2.566,2.565-2.566h10.835c1.417,0,2.565,1.149,2.565,2.566V94.984z"/>
		<path fill="#010101" d="M305.332,105.094c0,1.417-1.148,2.566-2.565,2.566h-10.835c-1.417,0-2.565-1.149-2.565-2.566v-1.425
			c0-1.417,1.148-2.566,2.565-2.566h10.835c1.417,0,2.565,1.149,2.565,2.566V105.094z"/>
		<path fill="#010101" d="M305.332,115.204c0,1.417-1.148,2.566-2.565,2.566h-10.835c-1.417,0-2.565-1.149-2.565-2.566v-1.425
			c0-1.417,1.148-2.566,2.565-2.566h10.835c1.417,0,2.565,1.148,2.565,2.566V115.204z"/>
		<path fill="#010101" d="M305.332,125.314c0,1.417-1.148,2.565-2.565,2.565h-10.835c-1.417,0-2.565-1.148-2.565-2.565v-1.425
			c0-1.417,1.148-2.566,2.565-2.566h10.835c1.417,0,2.565,1.148,2.565,2.566V125.314z"/>
		<path fill="#010101" d="M305.332,135.425c0,1.417-1.148,2.566-2.565,2.566h-10.835c-1.417,0-2.565-1.149-2.565-2.566v-1.426
			c0-1.417,1.148-2.565,2.565-2.565h10.835c1.417,0,2.565,1.148,2.565,2.565V135.425z"/>
	</g>
	<g>
		<path fill="#010101" d="M324.624,3.991c0,1.417-1.149,2.566-2.565,2.566h-10.836c-1.416,0-2.566-1.149-2.566-2.566V2.566
			c0-1.417,1.15-2.566,2.566-2.566h10.836c1.416,0,2.565,1.149,2.565,2.566V3.991z"/>
		<path fill="#010101" d="M324.624,14.102c0,1.417-1.149,2.565-2.565,2.565h-10.836c-1.416,0-2.566-1.148-2.566-2.565v-1.425
			c0-1.418,1.15-2.566,2.566-2.566h10.836c1.416,0,2.565,1.148,2.565,2.566V14.102z"/>
		<path fill="#010101" d="M324.624,24.212c0,1.417-1.149,2.566-2.565,2.566h-10.836c-1.416,0-2.566-1.149-2.566-2.566v-1.425
			c0-1.417,1.15-2.566,2.566-2.566h10.836c1.416,0,2.565,1.148,2.565,2.566V24.212z"/>
		<path fill="#010101" d="M324.624,34.322c0,1.417-1.149,2.565-2.565,2.565h-10.836c-1.416,0-2.566-1.148-2.566-2.565v-1.426
			c0-1.417,1.15-2.566,2.566-2.566h10.836c1.416,0,2.565,1.149,2.565,2.566V34.322z"/>
		<path fill="#010101" d="M324.624,44.433c0,1.417-1.149,2.566-2.565,2.566h-10.836c-1.416,0-2.566-1.149-2.566-2.566v-1.426
			c0-1.417,1.15-2.566,2.566-2.566h10.836c1.416,0,2.565,1.149,2.565,2.566V44.433z"/>
		<path fill="#010101" d="M324.624,54.543c0,1.417-1.149,2.565-2.565,2.565h-10.836c-1.416,0-2.566-1.148-2.566-2.565v-1.426
			c0-1.417,1.15-2.566,2.566-2.566h10.836c1.416,0,2.565,1.149,2.565,2.566V54.543z"/>
		<path fill="#010101" d="M324.624,64.653c0,1.417-1.149,2.566-2.565,2.566h-10.836c-1.416,0-2.566-1.148-2.566-2.566v-1.425
			c0-1.417,1.15-2.565,2.566-2.565h10.836c1.416,0,2.565,1.148,2.565,2.565V64.653z"/>
		<path fill="#010101" d="M324.624,74.763c0,1.417-1.149,2.566-2.565,2.566h-10.836c-1.416,0-2.566-1.149-2.566-2.566v-1.425
			c0-1.417,1.15-2.566,2.566-2.566h10.836c1.416,0,2.565,1.148,2.565,2.566V74.763z"/>
		<path fill="#010101" d="M324.624,84.873c0,1.417-1.149,2.566-2.565,2.566h-10.836c-1.416,0-2.566-1.149-2.566-2.566v-1.425
			c0-1.417,1.15-2.566,2.566-2.566h10.836c1.416,0,2.565,1.149,2.565,2.566V84.873z"/>
		<path fill="#010101" d="M324.624,94.984c0,1.417-1.149,2.566-2.565,2.566h-10.836c-1.416,0-2.566-1.149-2.566-2.566v-1.426
			c0-1.417,1.15-2.566,2.566-2.566h10.836c1.416,0,2.565,1.149,2.565,2.566V94.984z"/>
		<path fill="#010101" d="M324.624,105.094c0,1.417-1.149,2.566-2.565,2.566h-10.836c-1.416,0-2.566-1.149-2.566-2.566v-1.425
			c0-1.417,1.15-2.566,2.566-2.566h10.836c1.416,0,2.565,1.149,2.565,2.566V105.094z"/>
		<path fill="#010101" d="M324.624,115.204c0,1.417-1.149,2.566-2.565,2.566h-10.836c-1.416,0-2.566-1.149-2.566-2.566v-1.425
			c0-1.417,1.15-2.566,2.566-2.566h10.836c1.416,0,2.565,1.148,2.565,2.566V115.204z"/>
		<path fill="#010101" d="M324.624,125.314c0,1.417-1.149,2.565-2.565,2.565h-10.836c-1.416,0-2.566-1.148-2.566-2.565v-1.425
			c0-1.417,1.15-2.566,2.566-2.566h10.836c1.416,0,2.565,1.148,2.565,2.566V125.314z"/>
		<path fill="#010101" d="M324.624,135.425c0,1.417-1.149,2.566-2.565,2.566h-10.836c-1.416,0-2.566-1.149-2.566-2.566v-1.426
			c0-1.417,1.15-2.565,2.566-2.565h10.836c1.416,0,2.565,1.148,2.565,2.565V135.425z"/>
	</g>
	<g>
		<path fill="#010101" d="M343.914,3.991c0,1.417-1.148,2.566-2.565,2.566h-10.835c-1.416,0-2.565-1.149-2.565-2.566V2.566
			c0-1.417,1.149-2.566,2.565-2.566h10.835c1.417,0,2.565,1.149,2.565,2.566V3.991z"/>
		<path fill="#010101" d="M343.914,14.102c0,1.417-1.148,2.565-2.565,2.565h-10.835c-1.416,0-2.565-1.148-2.565-2.565v-1.425
			c0-1.418,1.149-2.566,2.565-2.566h10.835c1.417,0,2.565,1.148,2.565,2.566V14.102z"/>
		<path fill="#010101" d="M343.914,24.212c0,1.417-1.148,2.566-2.565,2.566h-10.835c-1.416,0-2.565-1.149-2.565-2.566v-1.425
			c0-1.417,1.149-2.566,2.565-2.566h10.835c1.417,0,2.565,1.148,2.565,2.566V24.212z"/>
		<path fill="#010101" d="M343.914,34.322c0,1.417-1.148,2.565-2.565,2.565h-10.835c-1.416,0-2.565-1.148-2.565-2.565v-1.426
			c0-1.417,1.149-2.566,2.565-2.566h10.835c1.417,0,2.565,1.149,2.565,2.566V34.322z"/>
		<path fill="#010101" d="M343.914,44.433c0,1.417-1.148,2.566-2.565,2.566h-10.835c-1.416,0-2.565-1.149-2.565-2.566v-1.426
			c0-1.417,1.149-2.566,2.565-2.566h10.835c1.417,0,2.565,1.149,2.565,2.566V44.433z"/>
		<path fill="#010101" d="M343.914,54.543c0,1.417-1.148,2.565-2.565,2.565h-10.835c-1.416,0-2.565-1.148-2.565-2.565v-1.426
			c0-1.417,1.149-2.566,2.565-2.566h10.835c1.417,0,2.565,1.149,2.565,2.566V54.543z"/>
		<path fill="#010101" d="M343.914,64.653c0,1.417-1.148,2.566-2.565,2.566h-10.835c-1.416,0-2.565-1.148-2.565-2.566v-1.425
			c0-1.417,1.149-2.565,2.565-2.565h10.835c1.417,0,2.565,1.148,2.565,2.565V64.653z"/>
		<path fill="#010101" d="M343.914,74.763c0,1.417-1.148,2.566-2.565,2.566h-10.835c-1.416,0-2.565-1.149-2.565-2.566v-1.425
			c0-1.417,1.149-2.566,2.565-2.566h10.835c1.417,0,2.565,1.148,2.565,2.566V74.763z"/>
		<path fill="#010101" d="M343.914,84.873c0,1.417-1.148,2.566-2.565,2.566h-10.835c-1.416,0-2.565-1.149-2.565-2.566v-1.425
			c0-1.417,1.149-2.566,2.565-2.566h10.835c1.417,0,2.565,1.149,2.565,2.566V84.873z"/>
		<path fill="#010101" d="M343.914,94.984c0,1.417-1.148,2.566-2.565,2.566h-10.835c-1.416,0-2.565-1.149-2.565-2.566v-1.426
			c0-1.417,1.149-2.566,2.565-2.566h10.835c1.417,0,2.565,1.149,2.565,2.566V94.984z"/>
		<path fill="#010101" d="M343.914,105.094c0,1.417-1.148,2.566-2.565,2.566h-10.835c-1.416,0-2.565-1.149-2.565-2.566v-1.425
			c0-1.417,1.149-2.566,2.565-2.566h10.835c1.417,0,2.565,1.149,2.565,2.566V105.094z"/>
		<path fill="#010101" d="M343.914,115.204c0,1.417-1.148,2.566-2.565,2.566h-10.835c-1.416,0-2.565-1.149-2.565-2.566v-1.425
			c0-1.417,1.149-2.566,2.565-2.566h10.835c1.417,0,2.565,1.148,2.565,2.566V115.204z"/>
		<path fill="#010101" d="M343.914,125.314c0,1.417-1.148,2.565-2.565,2.565h-10.835c-1.416,0-2.565-1.148-2.565-2.565v-1.425
			c0-1.417,1.149-2.566,2.565-2.566h10.835c1.417,0,2.565,1.148,2.565,2.566V125.314z"/>
		<path fill="#010101" d="M343.914,135.425c0,1.417-1.148,2.566-2.565,2.566h-10.835c-1.416,0-2.565-1.149-2.565-2.566v-1.426
			c0-1.417,1.149-2.565,2.565-2.565h10.835c1.417,0,2.565,1.148,2.565,2.565V135.425z"/>
	</g>
	<g>
		<path fill="#010101" d="M363.206,3.991c0,1.417-1.148,2.566-2.566,2.566h-10.834c-1.417,0-2.565-1.149-2.565-2.566V2.566
			c0-1.417,1.148-2.566,2.565-2.566h10.834c1.418,0,2.566,1.149,2.566,2.566V3.991z"/>
		<path fill="#010101" d="M363.206,14.102c0,1.417-1.148,2.565-2.566,2.565h-10.834c-1.417,0-2.565-1.148-2.565-2.565v-1.425
			c0-1.418,1.148-2.566,2.565-2.566h10.834c1.418,0,2.566,1.148,2.566,2.566V14.102z"/>
		<path fill="#010101" d="M363.206,24.212c0,1.417-1.148,2.566-2.566,2.566h-10.834c-1.417,0-2.565-1.149-2.565-2.566v-1.425
			c0-1.417,1.148-2.566,2.565-2.566h10.834c1.418,0,2.566,1.148,2.566,2.566V24.212z"/>
		<path fill="#010101" d="M363.206,34.322c0,1.417-1.148,2.565-2.566,2.565h-10.834c-1.417,0-2.565-1.148-2.565-2.565v-1.426
			c0-1.417,1.148-2.566,2.565-2.566h10.834c1.418,0,2.566,1.149,2.566,2.566V34.322z"/>
		<path fill="#010101" d="M363.206,44.433c0,1.417-1.148,2.566-2.566,2.566h-10.834c-1.417,0-2.565-1.149-2.565-2.566v-1.426
			c0-1.417,1.148-2.566,2.565-2.566h10.834c1.418,0,2.566,1.149,2.566,2.566V44.433z"/>
		<path fill="#010101" d="M363.206,54.543c0,1.417-1.148,2.565-2.566,2.565h-10.834c-1.417,0-2.565-1.148-2.565-2.565v-1.426
			c0-1.417,1.148-2.566,2.565-2.566h10.834c1.418,0,2.566,1.149,2.566,2.566V54.543z"/>
		<path fill="#010101" d="M363.206,64.653c0,1.417-1.148,2.566-2.566,2.566h-10.834c-1.417,0-2.565-1.148-2.565-2.566v-1.425
			c0-1.417,1.148-2.565,2.565-2.565h10.834c1.418,0,2.566,1.148,2.566,2.565V64.653z"/>
		<path fill="#010101" d="M363.206,74.763c0,1.417-1.148,2.566-2.566,2.566h-10.834c-1.417,0-2.565-1.149-2.565-2.566v-1.425
			c0-1.417,1.148-2.566,2.565-2.566h10.834c1.418,0,2.566,1.148,2.566,2.566V74.763z"/>
		<path fill="#010101" d="M363.206,84.873c0,1.417-1.148,2.566-2.566,2.566h-10.834c-1.417,0-2.565-1.149-2.565-2.566v-1.425
			c0-1.417,1.148-2.566,2.565-2.566h10.834c1.418,0,2.566,1.149,2.566,2.566V84.873z"/>
		<path fill="#010101" d="M363.206,94.984c0,1.417-1.148,2.566-2.566,2.566h-10.834c-1.417,0-2.565-1.149-2.565-2.566v-1.426
			c0-1.417,1.148-2.566,2.565-2.566h10.834c1.418,0,2.566,1.149,2.566,2.566V94.984z"/>
		<path fill="#010101" d="M363.206,105.094c0,1.417-1.148,2.566-2.566,2.566h-10.834c-1.417,0-2.565-1.149-2.565-2.566v-1.425
			c0-1.417,1.148-2.566,2.565-2.566h10.834c1.418,0,2.566,1.149,2.566,2.566V105.094z"/>
		<path fill="#010101" d="M363.206,115.204c0,1.417-1.148,2.566-2.566,2.566h-10.834c-1.417,0-2.565-1.149-2.565-2.566v-1.425
			c0-1.417,1.148-2.566,2.565-2.566h10.834c1.418,0,2.566,1.148,2.566,2.566V115.204z"/>
		<path fill="#010101" d="M363.206,125.314c0,1.417-1.148,2.565-2.566,2.565h-10.834c-1.417,0-2.565-1.148-2.565-2.565v-1.425
			c0-1.417,1.148-2.566,2.565-2.566h10.834c1.418,0,2.566,1.148,2.566,2.566V125.314z"/>
		<path fill="#010101" d="M363.206,135.425c0,1.417-1.148,2.566-2.566,2.566h-10.834c-1.417,0-2.565-1.149-2.565-2.566v-1.426
			c0-1.417,1.148-2.565,2.565-2.565h10.834c1.418,0,2.566,1.148,2.566,2.565V135.425z"/>
	</g>
	<g>
		<path fill="#010101" d="M382.496,3.991c0,1.417-1.148,2.566-2.565,2.566h-10.834c-1.417,0-2.565-1.149-2.565-2.566V2.566
			c0-1.417,1.148-2.566,2.565-2.566h10.834c1.417,0,2.565,1.149,2.565,2.566V3.991z"/>
		<path fill="#010101" d="M382.496,14.102c0,1.417-1.148,2.565-2.565,2.565h-10.834c-1.417,0-2.565-1.148-2.565-2.565v-1.425
			c0-1.418,1.148-2.566,2.565-2.566h10.834c1.417,0,2.565,1.148,2.565,2.566V14.102z"/>
		<path fill="#010101" d="M382.496,24.212c0,1.417-1.148,2.566-2.565,2.566h-10.834c-1.417,0-2.565-1.149-2.565-2.566v-1.425
			c0-1.417,1.148-2.566,2.565-2.566h10.834c1.417,0,2.565,1.148,2.565,2.566V24.212z"/>
		<path fill="#010101" d="M382.496,34.322c0,1.417-1.148,2.565-2.565,2.565h-10.834c-1.417,0-2.565-1.148-2.565-2.565v-1.426
			c0-1.417,1.148-2.566,2.565-2.566h10.834c1.417,0,2.565,1.149,2.565,2.566V34.322z"/>
		<path fill="#010101" d="M382.496,44.433c0,1.417-1.148,2.566-2.565,2.566h-10.834c-1.417,0-2.565-1.149-2.565-2.566v-1.426
			c0-1.417,1.148-2.566,2.565-2.566h10.834c1.417,0,2.565,1.149,2.565,2.566V44.433z"/>
		<path fill="#010101" d="M382.496,54.543c0,1.417-1.148,2.565-2.565,2.565h-10.834c-1.417,0-2.565-1.148-2.565-2.565v-1.426
			c0-1.417,1.148-2.566,2.565-2.566h10.834c1.417,0,2.565,1.149,2.565,2.566V54.543z"/>
		<path fill="#010101" d="M382.496,64.653c0,1.417-1.148,2.566-2.565,2.566h-10.834c-1.417,0-2.565-1.148-2.565-2.566v-1.425
			c0-1.417,1.148-2.565,2.565-2.565h10.834c1.417,0,2.565,1.148,2.565,2.565V64.653z"/>
		<path fill="#010101" d="M382.496,74.763c0,1.417-1.148,2.566-2.565,2.566h-10.834c-1.417,0-2.565-1.149-2.565-2.566v-1.425
			c0-1.417,1.148-2.566,2.565-2.566h10.834c1.417,0,2.565,1.148,2.565,2.566V74.763z"/>
		<path fill="#010101" d="M382.496,84.873c0,1.417-1.148,2.566-2.565,2.566h-10.834c-1.417,0-2.565-1.149-2.565-2.566v-1.425
			c0-1.417,1.148-2.566,2.565-2.566h10.834c1.417,0,2.565,1.149,2.565,2.566V84.873z"/>
		<path fill="#010101" d="M382.496,94.984c0,1.417-1.148,2.566-2.565,2.566h-10.834c-1.417,0-2.565-1.149-2.565-2.566v-1.426
			c0-1.417,1.148-2.566,2.565-2.566h10.834c1.417,0,2.565,1.149,2.565,2.566V94.984z"/>
		<path fill="#010101" d="M382.496,105.094c0,1.417-1.148,2.566-2.565,2.566h-10.834c-1.417,0-2.565-1.149-2.565-2.566v-1.425
			c0-1.417,1.148-2.566,2.565-2.566h10.834c1.417,0,2.565,1.149,2.565,2.566V105.094z"/>
		<path fill="#010101" d="M382.496,115.204c0,1.417-1.148,2.566-2.565,2.566h-10.834c-1.417,0-2.565-1.149-2.565-2.566v-1.425
			c0-1.417,1.148-2.566,2.565-2.566h10.834c1.417,0,2.565,1.148,2.565,2.566V115.204z"/>
		<path fill="#010101" d="M382.496,125.314c0,1.417-1.148,2.565-2.565,2.565h-10.834c-1.417,0-2.565-1.148-2.565-2.565v-1.425
			c0-1.417,1.148-2.566,2.565-2.566h10.834c1.417,0,2.565,1.148,2.565,2.566V125.314z"/>
		<path fill="#010101" d="M382.496,135.425c0,1.417-1.148,2.566-2.565,2.566h-10.834c-1.417,0-2.565-1.149-2.565-2.566v-1.426
			c0-1.417,1.148-2.565,2.565-2.565h10.834c1.417,0,2.565,1.148,2.565,2.565V135.425z"/>
	</g>
	<g>
		<path fill="#010101" d="M401.787,3.991c0,1.417-1.148,2.566-2.565,2.566h-10.834c-1.417,0-2.566-1.149-2.566-2.566V2.566
			c0-1.417,1.149-2.566,2.566-2.566h10.834c1.417,0,2.565,1.149,2.565,2.566V3.991z"/>
		<path fill="#010101" d="M401.787,14.102c0,1.417-1.148,2.565-2.565,2.565h-10.834c-1.417,0-2.566-1.148-2.566-2.565v-1.425
			c0-1.418,1.149-2.566,2.566-2.566h10.834c1.417,0,2.565,1.148,2.565,2.566V14.102z"/>
		<path fill="#010101" d="M401.787,24.212c0,1.417-1.148,2.566-2.565,2.566h-10.834c-1.417,0-2.566-1.149-2.566-2.566v-1.425
			c0-1.417,1.149-2.566,2.566-2.566h10.834c1.417,0,2.565,1.148,2.565,2.566V24.212z"/>
		<path fill="#010101" d="M401.787,34.322c0,1.417-1.148,2.565-2.565,2.565h-10.834c-1.417,0-2.566-1.148-2.566-2.565v-1.426
			c0-1.417,1.149-2.566,2.566-2.566h10.834c1.417,0,2.565,1.149,2.565,2.566V34.322z"/>
		<path fill="#010101" d="M401.787,44.433c0,1.417-1.148,2.566-2.565,2.566h-10.834c-1.417,0-2.566-1.149-2.566-2.566v-1.426
			c0-1.417,1.149-2.566,2.566-2.566h10.834c1.417,0,2.565,1.149,2.565,2.566V44.433z"/>
		<path fill="#010101" d="M401.787,54.543c0,1.417-1.148,2.565-2.565,2.565h-10.834c-1.417,0-2.566-1.148-2.566-2.565v-1.426
			c0-1.417,1.149-2.566,2.566-2.566h10.834c1.417,0,2.565,1.149,2.565,2.566V54.543z"/>
		<path fill="#010101" d="M401.787,64.653c0,1.417-1.148,2.566-2.565,2.566h-10.834c-1.417,0-2.566-1.148-2.566-2.566v-1.425
			c0-1.417,1.149-2.565,2.566-2.565h10.834c1.417,0,2.565,1.148,2.565,2.565V64.653z"/>
		<path fill="#010101" d="M401.787,74.763c0,1.417-1.148,2.566-2.565,2.566h-10.834c-1.417,0-2.566-1.149-2.566-2.566v-1.425
			c0-1.417,1.149-2.566,2.566-2.566h10.834c1.417,0,2.565,1.148,2.565,2.566V74.763z"/>
		<path fill="#010101" d="M401.787,84.873c0,1.417-1.148,2.566-2.565,2.566h-10.834c-1.417,0-2.566-1.149-2.566-2.566v-1.425
			c0-1.417,1.149-2.566,2.566-2.566h10.834c1.417,0,2.565,1.149,2.565,2.566V84.873z"/>
		<path fill="#010101" d="M401.787,94.984c0,1.417-1.148,2.566-2.565,2.566h-10.834c-1.417,0-2.566-1.149-2.566-2.566v-1.426
			c0-1.417,1.149-2.566,2.566-2.566h10.834c1.417,0,2.565,1.149,2.565,2.566V94.984z"/>
		<path fill="#010101" d="M401.787,105.094c0,1.417-1.148,2.566-2.565,2.566h-10.834c-1.417,0-2.566-1.149-2.566-2.566v-1.425
			c0-1.417,1.149-2.566,2.566-2.566h10.834c1.417,0,2.565,1.149,2.565,2.566V105.094z"/>
		<path fill="#010101" d="M401.787,115.204c0,1.417-1.148,2.566-2.565,2.566h-10.834c-1.417,0-2.566-1.149-2.566-2.566v-1.425
			c0-1.417,1.149-2.566,2.566-2.566h10.834c1.417,0,2.565,1.148,2.565,2.566V115.204z"/>
		<path fill="#010101" d="M401.787,125.314c0,1.417-1.148,2.565-2.565,2.565h-10.834c-1.417,0-2.566-1.148-2.566-2.565v-1.425
			c0-1.417,1.149-2.566,2.566-2.566h10.834c1.417,0,2.565,1.148,2.565,2.566V125.314z"/>
		<path fill="#010101" d="M401.787,135.425c0,1.417-1.148,2.566-2.565,2.566h-10.834c-1.417,0-2.566-1.149-2.566-2.566v-1.426
			c0-1.417,1.149-2.565,2.566-2.565h10.834c1.417,0,2.565,1.148,2.565,2.565V135.425z"/>
	</g>
	<g>
		<path fill="#010101" d="M421.079,3.991c0,1.417-1.149,2.566-2.565,2.566h-10.835c-1.417,0-2.565-1.149-2.565-2.566V2.566
			c0-1.417,1.148-2.566,2.565-2.566h10.835c1.416,0,2.565,1.149,2.565,2.566V3.991z"/>
		<path fill="#010101" d="M421.079,14.102c0,1.417-1.149,2.565-2.565,2.565h-10.835c-1.417,0-2.565-1.148-2.565-2.565v-1.425
			c0-1.418,1.148-2.566,2.565-2.566h10.835c1.416,0,2.565,1.148,2.565,2.566V14.102z"/>
		<path fill="#010101" d="M421.079,24.212c0,1.417-1.149,2.566-2.565,2.566h-10.835c-1.417,0-2.565-1.149-2.565-2.566v-1.425
			c0-1.417,1.148-2.566,2.565-2.566h10.835c1.416,0,2.565,1.148,2.565,2.566V24.212z"/>
		<path fill="#010101" d="M421.079,34.322c0,1.417-1.149,2.565-2.565,2.565h-10.835c-1.417,0-2.565-1.148-2.565-2.565v-1.426
			c0-1.417,1.148-2.566,2.565-2.566h10.835c1.416,0,2.565,1.149,2.565,2.566V34.322z"/>
		<path fill="#010101" d="M421.079,44.433c0,1.417-1.149,2.566-2.565,2.566h-10.835c-1.417,0-2.565-1.149-2.565-2.566v-1.426
			c0-1.417,1.148-2.566,2.565-2.566h10.835c1.416,0,2.565,1.149,2.565,2.566V44.433z"/>
		<path fill="#010101" d="M421.079,54.543c0,1.417-1.149,2.565-2.565,2.565h-10.835c-1.417,0-2.565-1.148-2.565-2.565v-1.426
			c0-1.417,1.148-2.566,2.565-2.566h10.835c1.416,0,2.565,1.149,2.565,2.566V54.543z"/>
		<path fill="#010101" d="M421.079,64.653c0,1.417-1.149,2.566-2.565,2.566h-10.835c-1.417,0-2.565-1.148-2.565-2.566v-1.425
			c0-1.417,1.148-2.565,2.565-2.565h10.835c1.416,0,2.565,1.148,2.565,2.565V64.653z"/>
		<path fill="#010101" d="M421.079,74.763c0,1.417-1.149,2.566-2.565,2.566h-10.835c-1.417,0-2.565-1.149-2.565-2.566v-1.425
			c0-1.417,1.148-2.566,2.565-2.566h10.835c1.416,0,2.565,1.148,2.565,2.566V74.763z"/>
		<path fill="#010101" d="M421.079,84.873c0,1.417-1.149,2.566-2.565,2.566h-10.835c-1.417,0-2.565-1.149-2.565-2.566v-1.425
			c0-1.417,1.148-2.566,2.565-2.566h10.835c1.416,0,2.565,1.149,2.565,2.566V84.873z"/>
		<path fill="#010101" d="M421.079,94.984c0,1.417-1.149,2.566-2.565,2.566h-10.835c-1.417,0-2.565-1.149-2.565-2.566v-1.426
			c0-1.417,1.148-2.566,2.565-2.566h10.835c1.416,0,2.565,1.149,2.565,2.566V94.984z"/>
		<path fill="#010101" d="M421.079,105.094c0,1.417-1.149,2.566-2.565,2.566h-10.835c-1.417,0-2.565-1.149-2.565-2.566v-1.425
			c0-1.417,1.148-2.566,2.565-2.566h10.835c1.416,0,2.565,1.149,2.565,2.566V105.094z"/>
		<path fill="#010101" d="M421.079,115.204c0,1.417-1.149,2.566-2.565,2.566h-10.835c-1.417,0-2.565-1.149-2.565-2.566v-1.425
			c0-1.417,1.148-2.566,2.565-2.566h10.835c1.416,0,2.565,1.148,2.565,2.566V115.204z"/>
		<path fill="#010101" d="M421.079,125.314c0,1.417-1.149,2.565-2.565,2.565h-10.835c-1.417,0-2.565-1.148-2.565-2.565v-1.425
			c0-1.417,1.148-2.566,2.565-2.566h10.835c1.416,0,2.565,1.148,2.565,2.566V125.314z"/>
		<path fill="#010101" d="M421.079,135.425c0,1.417-1.149,2.566-2.565,2.566h-10.835c-1.417,0-2.565-1.149-2.565-2.566v-1.426
			c0-1.417,1.148-2.565,2.565-2.565h10.835c1.416,0,2.565,1.148,2.565,2.565V135.425z"/>
	</g>
	<g>
		<path fill="#010101" d="M440.371,3.991c0,1.417-1.15,2.566-2.566,2.566H426.97c-1.417,0-2.566-1.149-2.566-2.566V2.566
			c0-1.417,1.149-2.566,2.566-2.566h10.835c1.416,0,2.566,1.149,2.566,2.566V3.991z"/>
		<path fill="#010101" d="M440.371,14.102c0,1.417-1.15,2.565-2.566,2.565H426.97c-1.417,0-2.566-1.148-2.566-2.565v-1.425
			c0-1.418,1.149-2.566,2.566-2.566h10.835c1.416,0,2.566,1.148,2.566,2.566V14.102z"/>
		<path fill="#010101" d="M440.371,24.212c0,1.417-1.15,2.566-2.566,2.566H426.97c-1.417,0-2.566-1.149-2.566-2.566v-1.425
			c0-1.417,1.149-2.566,2.566-2.566h10.835c1.416,0,2.566,1.148,2.566,2.566V24.212z"/>
		<path fill="#010101" d="M440.371,34.322c0,1.417-1.15,2.565-2.566,2.565H426.97c-1.417,0-2.566-1.148-2.566-2.565v-1.426
			c0-1.417,1.149-2.566,2.566-2.566h10.835c1.416,0,2.566,1.149,2.566,2.566V34.322z"/>
		<path fill="#010101" d="M440.371,44.433c0,1.417-1.15,2.566-2.566,2.566H426.97c-1.417,0-2.566-1.149-2.566-2.566v-1.426
			c0-1.417,1.149-2.566,2.566-2.566h10.835c1.416,0,2.566,1.149,2.566,2.566V44.433z"/>
		<path fill="#010101" d="M440.371,54.543c0,1.417-1.15,2.565-2.566,2.565H426.97c-1.417,0-2.566-1.148-2.566-2.565v-1.426
			c0-1.417,1.149-2.566,2.566-2.566h10.835c1.416,0,2.566,1.149,2.566,2.566V54.543z"/>
		<path fill="#010101" d="M440.371,64.653c0,1.417-1.15,2.566-2.566,2.566H426.97c-1.417,0-2.566-1.148-2.566-2.566v-1.425
			c0-1.417,1.149-2.565,2.566-2.565h10.835c1.416,0,2.566,1.148,2.566,2.565V64.653z"/>
		<path fill="#010101" d="M440.371,74.763c0,1.417-1.15,2.566-2.566,2.566H426.97c-1.417,0-2.566-1.149-2.566-2.566v-1.425
			c0-1.417,1.149-2.566,2.566-2.566h10.835c1.416,0,2.566,1.148,2.566,2.566V74.763z"/>
		<path fill="#010101" d="M440.371,84.873c0,1.417-1.15,2.566-2.566,2.566H426.97c-1.417,0-2.566-1.149-2.566-2.566v-1.425
			c0-1.417,1.149-2.566,2.566-2.566h10.835c1.416,0,2.566,1.149,2.566,2.566V84.873z"/>
		<path fill="#010101" d="M440.371,94.984c0,1.417-1.15,2.566-2.566,2.566H426.97c-1.417,0-2.566-1.149-2.566-2.566v-1.426
			c0-1.417,1.149-2.566,2.566-2.566h10.835c1.416,0,2.566,1.149,2.566,2.566V94.984z"/>
		<path fill="#010101" d="M440.371,105.094c0,1.417-1.15,2.566-2.566,2.566H426.97c-1.417,0-2.566-1.149-2.566-2.566v-1.425
			c0-1.417,1.149-2.566,2.566-2.566h10.835c1.416,0,2.566,1.149,2.566,2.566V105.094z"/>
		<path fill="#010101" d="M440.371,115.204c0,1.417-1.15,2.566-2.566,2.566H426.97c-1.417,0-2.566-1.149-2.566-2.566v-1.425
			c0-1.417,1.149-2.566,2.566-2.566h10.835c1.416,0,2.566,1.148,2.566,2.566V115.204z"/>
		<path fill="#010101" d="M440.371,125.314c0,1.417-1.15,2.565-2.566,2.565H426.97c-1.417,0-2.566-1.148-2.566-2.565v-1.425
			c0-1.417,1.149-2.566,2.566-2.566h10.835c1.416,0,2.566,1.148,2.566,2.566V125.314z"/>
		<path fill="#010101" d="M440.371,135.425c0,1.417-1.15,2.566-2.566,2.566H426.97c-1.417,0-2.566-1.149-2.566-2.566v-1.426
			c0-1.417,1.149-2.565,2.566-2.565h10.835c1.416,0,2.566,1.148,2.566,2.565V135.425z"/>
	</g>
</g>
</svg>
