<?xml version="1.0" encoding="utf-8"?>
<!-- Generator: Adobe Illustrator 16.0.0, SVG Export Plug-In . SVG Version: 6.00 Build 0)  -->
<!DOCTYPE svg PUBLIC "-//W3C//DTD SVG 1.1//EN" "http://www.w3.org/Graphics/SVG/1.1/DTD/svg11.dtd">
<svg version="1.1" id="图层_1" xmlns="http://www.w3.org/2000/svg" xmlns:xlink="http://www.w3.org/1999/xlink" x="0px" y="0px"
	 width="56.69px" height="34px" viewBox="0 0 56.69 34" enable-background="new 0 0 56.69 34" xml:space="preserve">
<rect fill="#626363" width="56.691" height="34"/>
<rect x="8.504" y="20.18" fill="#E5E5E4" width="8.553" height="2.322"/>
<rect x="18.611" y="20.18" fill="#E5E5E4" width="8.554" height="2.322"/>
<rect x="28.721" y="20.18" fill="#E5E5E4" width="8.552" height="2.322"/>
<rect x="38.83" y="20.18" fill="#E5E5E4" width="8.553" height="2.322"/>
<rect x="8.504" y="17.296" fill="#E5E5E4" width="8.553" height="2.323"/>
<rect x="18.611" y="17.296" fill="#E5E5E4" width="8.554" height="2.323"/>
<rect x="28.721" y="17.296" fill="#E5E5E4" width="8.552" height="2.323"/>
<rect x="38.83" y="17.296" fill="#E5E5E4" width="8.553" height="2.323"/>
<rect x="8.504" y="14.387" fill="#E5E5E4" width="8.553" height="2.322"/>
<rect x="18.611" y="14.387" fill="#E5E5E4" width="8.554" height="2.322"/>
<rect x="28.721" y="14.387" fill="#E5E5E4" width="8.552" height="2.322"/>
<rect x="38.83" y="14.387" fill="#E5E5E4" width="8.553" height="2.322"/>
<rect x="8.504" y="11.498" fill="#E5E5E4" width="8.553" height="2.322"/>
<rect x="18.611" y="11.498" fill="#E5E5E4" width="8.554" height="2.322"/>
<rect x="28.721" y="11.498" fill="#E5E5E4" width="8.552" height="2.322"/>
<rect x="38.83" y="11.498" fill="#E5E5E4" width="8.553" height="2.322"/>
<text transform="matrix(1 0 0 1 11.6094 10.2778)" fill="#FFFFFF" font-family="'MicrosoftYaHei'" font-size="3.825">0</text>
<text transform="matrix(1 0 0 1 21.6304 10.2778)" fill="#FFFFFF" font-family="'MicrosoftYaHei'" font-size="3.825">3</text>
<text transform="matrix(1 0 0 1 31.6504 10.2778)" fill="#FFFFFF" font-family="'MicrosoftYaHei'" font-size="3.825">6</text>
<text transform="matrix(1 0 0 1 41.6719 10.2778)" fill="#FFFFFF" font-family="'MicrosoftYaHei'" font-size="3.825">9</text>
<text transform="matrix(1 0 0 1 11.6094 26.8203)" fill="#FFFFFF" font-family="'MicrosoftYaHei'" font-size="3.825">2</text>
<text transform="matrix(1 0 0 1 21.6304 26.8203)" fill="#FFFFFF" font-family="'MicrosoftYaHei'" font-size="3.825">5</text>
<text transform="matrix(1 0 0 1 40.4639 26.8203)" fill="#FFFFFF" font-family="'MicrosoftYaHei'" font-size="3.825">11</text>
<text transform="matrix(1 0 0 1 31.6504 26.8203)" fill="#FFFFFF" font-family="'MicrosoftYaHei'" font-size="3.825">8</text>
</svg>
