<?xml version="1.0" encoding="utf-8"?>
<!-- Generator: Adobe Illustrator 16.0.0, SVG Export Plug-In . SVG Version: 6.00 Build 0)  -->
<!DOCTYPE svg PUBLIC "-//W3C//DTD SVG 1.1//EN" "http://www.w3.org/Graphics/SVG/1.1/DTD/svg11.dtd">
<svg version="1.1" id="图层_1" xmlns="http://www.w3.org/2000/svg" xmlns:xlink="http://www.w3.org/1999/xlink" x="0px" y="0px"
	 width="19.27px" height="8.82px" viewBox="0 0 19.27 8.82" enable-background="new 0 0 19.27 8.82" xml:space="preserve">
<g>
	<rect x="0.001" y="0.005" fill="#161718" width="1" height="8.81"/>
</g>
<g>
	<rect x="9.151" y="0.005" fill="#161718" width="1" height="8.81"/>
</g>
<g>
	<path fill="#161718" d="M5.083,7.851c-1.685,0-3.055-1.369-3.055-3.054c0-1.685,1.37-3.055,3.055-3.055s3.055,1.37,3.055,3.055
		C8.138,6.481,6.768,7.851,5.083,7.851z M5.083,2.742c-1.133,0-2.055,0.922-2.055,2.055c0,1.132,0.922,2.054,2.055,2.054
		s2.055-0.922,2.055-2.054C7.138,3.664,6.216,2.742,5.083,2.742z"/>
</g>
<g>
	<rect x="18.269" y="0.005" fill="#161718" width="1" height="8.81"/>
</g>
<g>
	<path fill="#161718" d="M14.198,7.851c-1.685,0-3.055-1.369-3.055-3.054c0-1.685,1.37-3.055,3.055-3.055s3.055,1.37,3.055,3.055
		C17.253,6.481,15.883,7.851,14.198,7.851z M14.198,2.742c-1.133,0-2.055,0.922-2.055,2.055c0,1.132,0.922,2.054,2.055,2.054
		s2.055-0.922,2.055-2.054C16.253,3.664,15.331,2.742,14.198,2.742z"/>
</g>
</svg>
