<?xml version="1.0" encoding="utf-8"?>
<!-- Generator: Adobe Illustrator 16.0.0, SVG Export Plug-In . SVG Version: 6.00 Build 0)  -->
<!DOCTYPE svg PUBLIC "-//W3C//DTD SVG 1.1//EN" "http://www.w3.org/Graphics/SVG/1.1/DTD/svg11.dtd">
<svg version="1.1" id="图层_1" xmlns="http://www.w3.org/2000/svg" xmlns:xlink="http://www.w3.org/1999/xlink" x="0px" y="0px"
	 width="543.646px" height="32.436px" viewBox="0 0 543.646 32.436" enable-background="new 0 0 543.646 32.436"
	 xml:space="preserve">
<g>
	<rect x="-41.234" y="-196.711" fill="#252528" width="41.234" height="504"/>
</g>
<g>
	<rect fill="#090A0A" width="543.646" height="32.436"/>
	<linearGradient id="SVGID_2_" gradientUnits="userSpaceOnUse" x1="272.5732" y1="28.769" x2="272.5732" y2="2.769">
		<stop  offset="0" style="stop-color:#55A00D"/>
		<stop  offset="1" style="stop-color:#2F4E14"/>
	</linearGradient>
	<rect x="3.081" y="2.769" fill="url(#SVGID_2_)" width="538.984" height="26"/>
	<g>
		<path fill="#C5CCBE" d="M50.275,17.439v4.662h-2.7V9.196h5.904c1.247,0,2.229,0.368,2.942,1.104s1.071,1.745,1.071,3.026
			c0,0.91-0.252,1.742-0.756,2.497c-0.721,1.078-1.843,1.616-3.366,1.616H50.275z M50.275,15.208h2.502
			c0.863,0,1.451-0.263,1.764-0.788c0.168-0.287,0.252-0.692,0.252-1.218c0-0.633-0.187-1.087-0.558-1.362
			c-0.372-0.274-0.979-0.411-1.818-0.411h-2.142V15.208z"/>
		<path fill="#C5CCBE" d="M68.617,17.313c0,1.644-0.492,2.916-1.477,3.816c-0.888,0.816-2.027,1.224-3.42,1.224
			c-1.392,0-2.532-0.408-3.42-1.224c-0.984-0.9-1.476-2.172-1.476-3.816s0.491-2.916,1.476-3.816
			c0.888-0.816,2.028-1.224,3.42-1.224c1.393,0,2.532,0.408,3.42,1.224C68.125,14.397,68.617,15.669,68.617,17.313z M66.024,17.313
			c0-0.792-0.138-1.427-0.413-1.908c-0.385-0.672-1.015-1.008-1.891-1.008c-0.864,0-1.488,0.33-1.872,0.991
			c-0.288,0.503-0.432,1.146-0.432,1.925c0,0.792,0.138,1.428,0.414,1.908c0.384,0.672,1.014,1.008,1.89,1.008
			c0.864,0,1.488-0.33,1.872-0.99C65.881,18.736,66.024,18.094,66.024,17.313z"/>
		<path fill="#C5CCBE" d="M83.053,12.525l-2.754,9.576h-2.592l-1.494-6.984l-1.53,6.984h-2.592l-2.7-9.576h2.686l1.497,6.904
			l1.383-6.903l2.542-0.002l1.434,6.873l1.53-6.872H83.053z"/>
		<path fill="#C5CCBE" d="M90.019,19.293h2.593c-0.313,1.068-0.889,1.866-1.729,2.394c-0.708,0.444-1.536,0.666-2.484,0.666
			c-1.476,0-2.609-0.378-3.401-1.133c-0.912-0.876-1.368-2.245-1.368-4.104c0-1.068,0.24-2.016,0.72-2.844
			c0.78-1.332,2.07-1.998,3.87-1.998c1.2,0,2.184,0.33,2.952,0.99c1.032,0.888,1.548,2.316,1.548,4.284v0.45h-6.57
			c0.084,0.84,0.307,1.44,0.666,1.8c0.36,0.36,0.889,0.54,1.584,0.54c0.372,0,0.711-0.09,1.018-0.27
			C89.722,19.888,89.923,19.63,90.019,19.293z M86.221,16.36h3.906c-0.061-0.708-0.3-1.236-0.72-1.584
			c-0.337-0.288-0.744-0.431-1.225-0.431c-0.588,0-1.044,0.173-1.368,0.521C86.491,15.214,86.293,15.711,86.221,16.36z"/>
		<path fill="#C5CCBE" d="M94.375,22.102v-9.576h2.412v1.656c0.443-0.78,0.863-1.293,1.26-1.539c0.396-0.246,0.864-0.37,1.403-0.37
			h0.486v2.592c-0.107-0.012-0.216-0.021-0.324-0.027c-0.107-0.006-0.24-0.009-0.396-0.009c-0.889,0-1.519,0.246-1.891,0.738
			c-0.287,0.372-0.432,0.888-0.432,1.548v4.986H94.375z"/>
		<path fill="#C5CCBE" d="M114.732,9.538v1.944c-0.708,0.768-1.29,1.47-1.746,2.106c-0.816,1.14-1.47,2.341-1.962,3.6
			c-0.636,1.632-0.954,3.27-0.954,4.914h-2.592c0-1.547,0.312-3.114,0.936-4.698c0.48-1.224,1.128-2.418,1.944-3.582
			c0.492-0.696,1.05-1.38,1.674-2.052h-6.354l0.054-2.232H114.732z"/>
		<path fill="#C5CCBE" d="M118.82,11.662l-0.457,2.771c0.312-0.216,0.594-0.372,0.847-0.468c0.408-0.156,0.889-0.234,1.441-0.234
			c0.996,0,1.855,0.318,2.576,0.954c0.864,0.756,1.297,1.812,1.297,3.168c0,1.164-0.3,2.148-0.9,2.952
			c-0.815,1.092-2.063,1.638-3.744,1.638c-1.115,0-2.058-0.3-2.825-0.9c-0.889-0.696-1.332-1.65-1.332-2.862h2.52
			c0.06,0.552,0.237,0.981,0.531,1.287c0.294,0.306,0.711,0.459,1.251,0.459c0.588,0,1.053-0.223,1.395-0.666
			c0.343-0.444,0.514-1.021,0.514-1.729c0-0.624-0.145-1.146-0.433-1.565c-0.336-0.48-0.815-0.721-1.439-0.721
			c-0.336,0-0.601,0.036-0.792,0.108c-0.384,0.144-0.684,0.414-0.9,0.81l-2.25-0.108l0.883-7.02h7.02v2.124H118.82z"/>
		<path fill="#C5CCBE" d="M125.82,15.874c0-2.232,0.359-3.882,1.08-4.95c0.72-1.068,1.836-1.602,3.348-1.602
			c1.5,0,2.613,0.534,3.339,1.602c0.727,1.068,1.089,2.718,1.089,4.95c0,2.244-0.359,3.9-1.08,4.968
			c-0.72,1.068-1.836,1.602-3.348,1.602c-1.5,0-2.613-0.537-3.339-1.611C126.183,19.759,125.82,18.105,125.82,15.874z
			 M128.412,15.874c0,1.681,0.129,2.859,0.387,3.537c0.258,0.678,0.741,1.018,1.449,1.018s1.19-0.336,1.449-1.009
			c0.258-0.672,0.387-1.854,0.387-3.546c0-1.68-0.129-2.856-0.387-3.527c-0.259-0.672-0.741-1.009-1.449-1.009
			s-1.191,0.333-1.449,0.999S128.412,14.182,128.412,15.874z"/>
	</g>
</g>
</svg>
