<?xml version="1.0" encoding="utf-8"?>
<!-- Generator: Adobe Illustrator 16.0.0, SVG Export Plug-In . SVG Version: 6.00 Build 0)  -->
<!DOCTYPE svg PUBLIC "-//W3C//DTD SVG 1.1//EN" "http://www.w3.org/Graphics/SVG/1.1/DTD/svg11.dtd">
<svg version="1.1" id="图层_1" xmlns="http://www.w3.org/2000/svg" xmlns:xlink="http://www.w3.org/1999/xlink" x="0px" y="0px"
	 width="191.083px" height="503.275px" viewBox="0 0 191.083 503.275" enable-background="new 0 0 191.083 503.275"
	 xml:space="preserve">
<g>
	<polygon fill="#111011" points="3.216,14.882 0,9.312 3.216,3.741 9.647,3.741 12.863,9.312 9.647,14.882 	"/>
	<polygon fill="#111011" points="3.216,29.7 0,24.13 3.216,18.56 9.647,18.56 12.863,24.13 9.647,29.7 	"/>
	<polygon fill="#111011" points="3.216,44.518 0,38.948 3.216,33.378 9.647,33.378 12.863,38.948 9.647,44.518 	"/>
	<polygon fill="#111011" points="3.216,59.336 0,53.767 3.216,48.196 9.647,48.196 12.863,53.767 9.647,59.336 	"/>
	<polygon fill="#111011" points="26.838,14.882 23.622,9.312 26.838,3.741 33.27,3.741 36.485,9.312 33.27,14.882 	"/>
	<polygon fill="#111011" points="26.838,29.7 23.622,24.13 26.838,18.56 33.27,18.56 36.485,24.13 33.27,29.7 	"/>
	<polygon fill="#111011" points="26.838,44.518 23.622,38.948 26.838,33.378 33.27,33.378 36.485,38.948 33.27,44.518 	"/>
	<polygon fill="#111011" points="26.838,59.336 23.622,53.767 26.838,48.196 33.27,48.196 36.485,53.767 33.27,59.336 	"/>
	<polygon fill="#111011" points="50.46,14.882 47.244,9.312 50.46,3.741 56.892,3.741 60.107,9.312 56.892,14.882 	"/>
	<polygon fill="#111011" points="50.46,29.7 47.244,24.13 50.46,18.56 56.892,18.56 60.107,24.13 56.892,29.7 	"/>
	<polygon fill="#111011" points="50.46,44.518 47.244,38.948 50.46,33.378 56.892,33.378 60.107,38.948 56.892,44.518 	"/>
	<polygon fill="#111011" points="50.46,59.336 47.244,53.767 50.46,48.196 56.892,48.196 60.107,53.767 56.892,59.336 	"/>
	<polygon fill="#111011" points="74.082,14.882 70.866,9.312 74.082,3.741 80.514,3.741 83.73,9.312 80.514,14.882 	"/>
	<polygon fill="#111011" points="74.082,29.7 70.866,24.13 74.082,18.56 80.514,18.56 83.73,24.13 80.514,29.7 	"/>
	<polygon fill="#111011" points="74.082,44.518 70.866,38.948 74.082,33.378 80.514,33.378 83.73,38.948 80.514,44.518 	"/>
	<polygon fill="#111011" points="74.082,59.336 70.866,53.767 74.082,48.196 80.514,48.196 83.73,53.767 80.514,59.336 	"/>
	<polygon fill="#111011" points="97.704,14.882 94.488,9.312 97.704,3.741 104.136,3.741 107.353,9.312 104.136,14.882 	"/>
	<polygon fill="#111011" points="97.704,29.7 94.488,24.13 97.704,18.56 104.136,18.56 107.353,24.13 104.136,29.7 	"/>
	<polygon fill="#111011" points="97.704,44.518 94.488,38.948 97.704,33.378 104.136,33.378 107.353,38.948 104.136,44.518 	"/>
	<polygon fill="#111011" points="97.704,59.336 94.488,53.767 97.704,48.196 104.136,48.196 107.353,53.767 104.136,59.336 	"/>
	<polygon fill="#111011" points="121.326,14.882 118.11,9.312 121.326,3.741 127.758,3.741 130.975,9.312 127.758,14.882 	"/>
	<polygon fill="#111011" points="121.326,29.7 118.11,24.13 121.326,18.56 127.758,18.56 130.975,24.13 127.758,29.7 	"/>
	<polygon fill="#111011" points="121.326,44.518 118.11,38.948 121.326,33.378 127.758,33.378 130.975,38.948 127.758,44.518 	"/>
	<polygon fill="#111011" points="121.326,59.336 118.11,53.767 121.326,48.196 127.758,48.196 130.975,53.767 127.758,59.336 	"/>
	<polygon fill="#111011" points="144.948,14.882 141.732,9.312 144.948,3.741 151.381,3.741 154.597,9.312 151.381,14.882 	"/>
	<polygon fill="#111011" points="144.948,29.7 141.732,24.13 144.948,18.56 151.381,18.56 154.597,24.13 151.381,29.7 	"/>
	<polygon fill="#111011" points="144.948,44.518 141.732,38.948 144.948,33.378 151.381,33.378 154.597,38.948 151.381,44.518 	"/>
	<polygon fill="#111011" points="144.948,59.336 141.732,53.767 144.948,48.196 151.381,48.196 154.597,53.767 151.381,59.336 	"/>
	<polygon fill="#111011" points="168.57,14.882 165.354,9.312 168.57,3.741 175.003,3.741 178.219,9.312 175.003,14.882 	"/>
	<polygon fill="#111011" points="168.57,29.7 165.354,24.13 168.57,18.56 175.003,18.56 178.219,24.13 175.003,29.7 	"/>
	<polygon fill="#111011" points="168.57,44.518 165.354,38.948 168.57,33.378 175.003,33.378 178.219,38.948 175.003,44.518 	"/>
	<polygon fill="#111011" points="168.57,59.336 165.354,53.767 168.57,48.196 175.003,48.196 178.219,53.767 175.003,59.336 	"/>
	<polygon fill="#111011" points="11.811,2.21 15.026,7.78 21.459,7.78 24.675,2.21 23.398,0 13.087,0 	"/>
	<polygon fill="#111011" points="15.026,11.458 11.811,17.028 15.026,22.599 21.459,22.599 24.675,17.028 21.459,11.458 	"/>
	<polygon fill="#111011" points="15.026,26.276 11.811,31.847 15.026,37.416 21.459,37.416 24.675,31.847 21.459,26.276 	"/>
	<polygon fill="#111011" points="15.026,41.094 11.811,46.665 15.026,52.234 21.459,52.234 24.675,46.665 21.459,41.094 	"/>
	<polygon fill="#111011" points="15.026,55.913 11.811,61.482 15.026,67.053 21.459,67.053 24.675,61.482 21.459,55.913 	"/>
	<polygon fill="#111011" points="35.433,2.21 38.648,7.78 45.081,7.78 48.297,2.21 47.021,0 36.709,0 	"/>
	<polygon fill="#111011" points="38.648,11.458 35.433,17.028 38.648,22.599 45.081,22.599 48.297,17.028 45.081,11.458 	"/>
	<polygon fill="#111011" points="38.648,26.276 35.433,31.847 38.648,37.416 45.081,37.416 48.297,31.847 45.081,26.276 	"/>
	<polygon fill="#111011" points="38.648,41.094 35.433,46.665 38.648,52.234 45.081,52.234 48.297,46.665 45.081,41.094 	"/>
	<polygon fill="#111011" points="38.648,55.913 35.433,61.482 38.648,67.053 45.081,67.053 48.297,61.482 45.081,55.913 	"/>
	<polygon fill="#111011" points="59.055,2.21 62.271,7.78 68.703,7.78 71.919,2.21 70.643,0 60.331,0 	"/>
	<polygon fill="#111011" points="62.271,11.458 59.055,17.028 62.271,22.599 68.703,22.599 71.919,17.028 68.703,11.458 	"/>
	<polygon fill="#111011" points="62.271,26.276 59.055,31.847 62.271,37.416 68.703,37.416 71.919,31.847 68.703,26.276 	"/>
	<polygon fill="#111011" points="62.271,41.094 59.055,46.665 62.271,52.234 68.703,52.234 71.919,46.665 68.703,41.094 	"/>
	<polygon fill="#111011" points="62.271,55.913 59.055,61.482 62.271,67.053 68.703,67.053 71.919,61.482 68.703,55.913 	"/>
	<polygon fill="#111011" points="82.677,2.21 85.893,7.78 92.325,7.78 95.541,2.21 94.265,0 83.953,0 	"/>
	<polygon fill="#111011" points="85.894,11.458 82.677,17.028 85.894,22.599 92.325,22.599 95.541,17.028 92.325,11.458 	"/>
	<polygon fill="#111011" points="85.894,26.276 82.677,31.847 85.894,37.416 92.325,37.416 95.541,31.847 92.325,26.276 	"/>
	<polygon fill="#111011" points="85.894,41.094 82.677,46.665 85.894,52.234 92.325,52.234 95.541,46.665 92.325,41.094 	"/>
	<polygon fill="#111011" points="85.894,55.913 82.677,61.482 85.894,67.053 92.325,67.053 95.541,61.482 92.325,55.913 	"/>
	<polygon fill="#111011" points="106.299,2.21 109.516,7.78 115.947,7.78 119.163,2.21 117.887,0 107.575,0 	"/>
	<polygon fill="#111011" points="109.516,11.458 106.299,17.028 109.516,22.599 115.947,22.599 119.163,17.028 115.947,11.458 	"/>
	<polygon fill="#111011" points="109.516,26.276 106.299,31.847 109.516,37.416 115.947,37.416 119.163,31.847 115.947,26.276 	"/>
	<polygon fill="#111011" points="109.516,41.094 106.299,46.665 109.516,52.234 115.947,52.234 119.163,46.665 115.947,41.094 	"/>
	<polygon fill="#111011" points="109.516,55.913 106.299,61.482 109.516,67.053 115.947,67.053 119.163,61.482 115.947,55.913 	"/>
	<polygon fill="#111011" points="129.922,2.21 133.138,7.78 139.569,7.78 142.785,2.21 141.51,0 131.197,0 	"/>
	<polygon fill="#111011" points="133.138,11.458 129.921,17.028 133.138,22.599 139.569,22.599 142.785,17.028 139.569,11.458 	"/>
	<polygon fill="#111011" points="133.138,26.276 129.921,31.847 133.138,37.416 139.569,37.416 142.785,31.847 139.569,26.276 	"/>
	<polygon fill="#111011" points="133.138,41.094 129.921,46.665 133.138,52.234 139.569,52.234 142.785,46.665 139.569,41.094 	"/>
	<polygon fill="#111011" points="133.138,55.913 129.921,61.482 133.138,67.053 139.569,67.053 142.785,61.482 139.569,55.913 	"/>
	<polygon fill="#111011" points="153.543,2.21 156.76,7.78 163.191,7.78 166.407,2.21 165.131,0 154.819,0 	"/>
	<polygon fill="#111011" points="156.76,11.458 153.544,17.028 156.76,22.599 163.191,22.599 166.407,17.028 163.191,11.458 	"/>
	<polygon fill="#111011" points="156.76,26.276 153.544,31.847 156.76,37.416 163.191,37.416 166.407,31.847 163.191,26.276 	"/>
	<polygon fill="#111011" points="156.76,41.094 153.544,46.665 156.76,52.234 163.191,52.234 166.407,46.665 163.191,41.094 	"/>
	<polygon fill="#111011" points="156.76,55.913 153.544,61.482 156.76,67.053 163.191,67.053 166.407,61.482 163.191,55.913 	"/>
	<polygon fill="#111011" points="3.216,73.529 0,67.959 3.216,62.389 9.647,62.389 12.863,67.959 9.647,73.529 	"/>
	<polygon fill="#111011" points="3.216,88.348 0,82.777 3.216,77.208 9.647,77.208 12.863,82.777 9.647,88.348 	"/>
	<polygon fill="#111011" points="3.216,103.166 0,97.596 3.216,92.026 9.647,92.026 12.863,97.596 9.647,103.166 	"/>
	<polygon fill="#111011" points="3.216,117.984 0,112.414 3.216,106.844 9.647,106.844 12.863,112.414 9.647,117.984 	"/>
	<polygon fill="#111011" points="26.838,73.529 23.622,67.959 26.838,62.389 33.27,62.389 36.485,67.959 33.27,73.529 	"/>
	<polygon fill="#111011" points="26.838,88.348 23.622,82.777 26.838,77.208 33.27,77.208 36.485,82.777 33.27,88.348 	"/>
	<polygon fill="#111011" points="26.838,103.166 23.622,97.596 26.838,92.026 33.27,92.026 36.485,97.596 33.27,103.166 	"/>
	<polygon fill="#111011" points="26.838,117.984 23.622,112.414 26.838,106.844 33.27,106.844 36.485,112.414 33.27,117.984 	"/>
	<polygon fill="#111011" points="50.46,73.529 47.244,67.959 50.46,62.389 56.892,62.389 60.107,67.959 56.892,73.529 	"/>
	<polygon fill="#111011" points="50.46,88.348 47.244,82.777 50.46,77.208 56.892,77.208 60.107,82.777 56.892,88.348 	"/>
	<polygon fill="#111011" points="50.46,103.166 47.244,97.596 50.46,92.026 56.892,92.026 60.107,97.596 56.892,103.166 	"/>
	<polygon fill="#111011" points="50.46,117.984 47.244,112.414 50.46,106.844 56.892,106.844 60.107,112.414 56.892,117.984 	"/>
	<polygon fill="#111011" points="74.082,73.529 70.866,67.959 74.082,62.389 80.514,62.389 83.73,67.959 80.514,73.529 	"/>
	<polygon fill="#111011" points="74.082,88.348 70.866,82.777 74.082,77.208 80.514,77.208 83.73,82.777 80.514,88.348 	"/>
	<polygon fill="#111011" points="74.082,103.166 70.866,97.596 74.082,92.026 80.514,92.026 83.73,97.596 80.514,103.166 	"/>
	<polygon fill="#111011" points="74.082,117.984 70.866,112.414 74.082,106.844 80.514,106.844 83.73,112.414 80.514,117.984 	"/>
	<polygon fill="#111011" points="97.704,73.529 94.488,67.959 97.704,62.389 104.136,62.389 107.353,67.959 104.136,73.529 	"/>
	<polygon fill="#111011" points="97.704,88.348 94.488,82.777 97.704,77.208 104.136,77.208 107.353,82.777 104.136,88.348 	"/>
	<polygon fill="#111011" points="97.704,103.166 94.488,97.596 97.704,92.026 104.136,92.026 107.353,97.596 104.136,103.166 	"/>
	<polygon fill="#111011" points="97.704,117.984 94.488,112.414 97.704,106.844 104.136,106.844 107.353,112.414 104.136,117.984 	
		"/>
	<polygon fill="#111011" points="121.326,73.529 118.11,67.959 121.326,62.389 127.758,62.389 130.975,67.959 127.758,73.529 	"/>
	<polygon fill="#111011" points="121.326,88.348 118.11,82.777 121.326,77.208 127.758,77.208 130.975,82.777 127.758,88.348 	"/>
	<polygon fill="#111011" points="121.326,103.166 118.11,97.596 121.326,92.026 127.758,92.026 130.975,97.596 127.758,103.166 	"/>
	<polygon fill="#111011" points="121.326,117.984 118.11,112.414 121.326,106.844 127.758,106.844 130.975,112.414 127.758,117.984 
			"/>
	<polygon fill="#111011" points="144.948,73.529 141.732,67.959 144.948,62.389 151.381,62.389 154.597,67.959 151.381,73.529 	"/>
	<polygon fill="#111011" points="144.948,88.348 141.732,82.777 144.948,77.208 151.381,77.208 154.597,82.777 151.381,88.348 	"/>
	<polygon fill="#111011" points="144.948,103.166 141.732,97.596 144.948,92.026 151.381,92.026 154.597,97.596 151.381,103.166 	
		"/>
	<polygon fill="#111011" points="144.948,117.984 141.732,112.414 144.948,106.844 151.381,106.844 154.597,112.414 
		151.381,117.984 	"/>
	<polygon fill="#111011" points="168.57,73.529 165.354,67.959 168.57,62.389 175.003,62.389 178.219,67.959 175.003,73.529 	"/>
	<polygon fill="#111011" points="168.57,88.348 165.354,82.777 168.57,77.208 175.003,77.208 178.219,82.777 175.003,88.348 	"/>
	<polygon fill="#111011" points="168.57,103.166 165.354,97.596 168.57,92.026 175.003,92.026 178.219,97.596 175.003,103.166 	"/>
	<polygon fill="#111011" points="168.57,117.984 165.354,112.414 168.57,106.844 175.003,106.844 178.219,112.414 175.003,117.984 	
		"/>
	<polygon fill="#111011" points="15.026,70.106 11.811,75.676 15.026,81.246 21.459,81.246 24.675,75.676 21.459,70.106 	"/>
	<polygon fill="#111011" points="15.026,84.924 11.811,90.494 15.026,96.064 21.459,96.064 24.675,90.494 21.459,84.924 	"/>
	<polygon fill="#111011" points="15.026,99.742 11.811,105.313 15.026,110.882 21.459,110.882 24.675,105.313 21.459,99.742 	"/>
	<polygon fill="#111011" points="15.026,114.561 11.811,120.13 15.026,125.701 21.459,125.701 24.675,120.13 21.459,114.561 	"/>
	<polygon fill="#111011" points="38.648,70.106 35.433,75.676 38.648,81.246 45.081,81.246 48.297,75.676 45.081,70.106 	"/>
	<polygon fill="#111011" points="38.648,84.924 35.433,90.494 38.648,96.064 45.081,96.064 48.297,90.494 45.081,84.924 	"/>
	<polygon fill="#111011" points="38.648,99.742 35.433,105.313 38.648,110.882 45.081,110.882 48.297,105.313 45.081,99.742 	"/>
	<polygon fill="#111011" points="38.648,114.561 35.433,120.13 38.648,125.701 45.081,125.701 48.297,120.13 45.081,114.561 	"/>
	<polygon fill="#111011" points="62.271,70.106 59.055,75.676 62.271,81.246 68.703,81.246 71.919,75.676 68.703,70.106 	"/>
	<polygon fill="#111011" points="62.271,84.924 59.055,90.494 62.271,96.064 68.703,96.064 71.919,90.494 68.703,84.924 	"/>
	<polygon fill="#111011" points="62.271,99.742 59.055,105.313 62.271,110.882 68.703,110.882 71.919,105.313 68.703,99.742 	"/>
	<polygon fill="#111011" points="62.271,114.561 59.055,120.13 62.271,125.701 68.703,125.701 71.919,120.13 68.703,114.561 	"/>
	<polygon fill="#111011" points="85.894,70.106 82.677,75.676 85.894,81.246 92.325,81.246 95.541,75.676 92.325,70.106 	"/>
	<polygon fill="#111011" points="85.894,84.924 82.677,90.494 85.894,96.064 92.325,96.064 95.541,90.494 92.325,84.924 	"/>
	<polygon fill="#111011" points="85.894,99.742 82.677,105.313 85.894,110.882 92.325,110.882 95.541,105.313 92.325,99.742 	"/>
	<polygon fill="#111011" points="85.894,114.561 82.677,120.13 85.894,125.701 92.325,125.701 95.541,120.13 92.325,114.561 	"/>
	<polygon fill="#111011" points="3.216,132.114 0,126.544 3.216,120.974 9.647,120.974 12.863,126.544 9.647,132.114 	"/>
	<polygon fill="#111011" points="3.216,146.932 0,141.362 3.216,135.792 9.647,135.792 12.863,141.362 9.647,146.932 	"/>
	<polygon fill="#111011" points="3.216,161.75 0,156.18 3.216,150.61 9.647,150.61 12.863,156.18 9.647,161.75 	"/>
	<polygon fill="#111011" points="3.216,176.568 0,170.999 3.216,165.428 9.647,165.428 12.863,170.999 9.647,176.568 	"/>
	<polygon fill="#111011" points="26.838,132.114 23.622,126.544 26.838,120.974 33.27,120.974 36.485,126.544 33.27,132.114 	"/>
	<polygon fill="#111011" points="26.838,146.932 23.622,141.362 26.838,135.792 33.27,135.792 36.485,141.362 33.27,146.932 	"/>
	<polygon fill="#111011" points="26.838,161.75 23.622,156.18 26.838,150.61 33.27,150.61 36.485,156.18 33.27,161.75 	"/>
	<polygon fill="#111011" points="26.838,176.568 23.622,170.999 26.838,165.428 33.27,165.428 36.485,170.999 33.27,176.568 	"/>
	<polygon fill="#111011" points="50.46,132.114 47.244,126.544 50.46,120.974 56.892,120.974 60.107,126.544 56.892,132.114 	"/>
	<polygon fill="#111011" points="50.46,146.932 47.244,141.362 50.46,135.792 56.892,135.792 60.107,141.362 56.892,146.932 	"/>
	<polygon fill="#111011" points="50.46,161.75 47.244,156.18 50.46,150.61 56.892,150.61 60.107,156.18 56.892,161.75 	"/>
	<polygon fill="#111011" points="50.46,176.568 47.244,170.999 50.46,165.428 56.892,165.428 60.107,170.999 56.892,176.568 	"/>
	<polygon fill="#111011" points="74.082,132.114 70.866,126.544 74.082,120.974 80.514,120.974 83.73,126.544 80.514,132.114 	"/>
	<polygon fill="#111011" points="74.082,146.932 70.866,141.362 74.082,135.792 80.514,135.792 83.73,141.362 80.514,146.932 	"/>
	<polygon fill="#111011" points="74.082,161.75 70.866,156.18 74.082,150.61 80.514,150.61 83.73,156.18 80.514,161.75 	"/>
	<polygon fill="#111011" points="74.082,176.568 70.866,170.999 74.082,165.428 80.514,165.428 83.73,170.999 80.514,176.568 	"/>
	<polygon fill="#111011" points="15.026,128.69 11.811,134.26 15.026,139.831 21.459,139.831 24.675,134.26 21.459,128.69 	"/>
	<polygon fill="#111011" points="15.026,143.508 11.811,149.079 15.026,154.648 21.459,154.648 24.675,149.079 21.459,143.508 	"/>
	<polygon fill="#111011" points="15.026,158.327 11.811,163.897 15.026,169.467 21.459,169.467 24.675,163.897 21.459,158.327 	"/>
	<polygon fill="#111011" points="15.026,173.145 11.811,178.715 15.026,184.285 21.459,184.285 24.675,178.715 21.459,173.145 	"/>
	<polygon fill="#111011" points="38.648,128.69 35.433,134.26 38.648,139.831 45.081,139.831 48.297,134.26 45.081,128.69 	"/>
	<polygon fill="#111011" points="38.648,143.508 35.433,149.079 38.648,154.648 45.081,154.648 48.297,149.079 45.081,143.508 	"/>
	<polygon fill="#111011" points="38.648,158.327 35.433,163.897 38.648,169.467 45.081,169.467 48.297,163.897 45.081,158.327 	"/>
	<polygon fill="#111011" points="38.648,173.145 35.433,178.715 38.648,184.285 45.081,184.285 48.297,178.715 45.081,173.145 	"/>
	<polygon fill="#111011" points="62.271,128.69 59.055,134.26 62.271,139.831 68.703,139.831 71.919,134.26 68.703,128.69 	"/>
	<polygon fill="#111011" points="62.271,143.508 59.055,149.079 62.271,154.648 68.703,154.648 71.919,149.079 68.703,143.508 	"/>
	<polygon fill="#111011" points="62.271,158.327 59.055,163.897 62.271,169.467 68.703,169.467 71.919,163.897 68.703,158.327 	"/>
	<polygon fill="#111011" points="62.271,173.145 59.055,178.715 62.271,184.285 68.703,184.285 71.919,178.715 68.703,173.145 	"/>
	<polygon fill="#111011" points="85.894,128.69 82.677,134.26 85.894,139.831 92.325,139.831 95.541,134.26 92.325,128.69 	"/>
	<polygon fill="#111011" points="85.894,143.508 82.677,149.079 85.894,154.648 92.325,154.648 95.541,149.079 92.325,143.508 	"/>
	<polygon fill="#111011" points="85.894,158.327 82.677,163.897 85.894,169.467 92.325,169.467 95.541,163.897 92.325,158.327 	"/>
	<polygon fill="#111011" points="85.894,173.145 82.677,178.715 85.894,184.285 92.325,184.285 95.541,178.715 92.325,173.145 	"/>
	<polygon fill="#111011" points="109.516,70.106 106.299,75.676 109.516,81.246 115.947,81.246 119.163,75.676 115.947,70.106 	"/>
	<polygon fill="#111011" points="109.516,84.924 106.299,90.494 109.516,96.064 115.947,96.064 119.163,90.494 115.947,84.924 	"/>
	<polygon fill="#111011" points="109.516,99.742 106.299,105.313 109.516,110.882 115.947,110.882 119.163,105.313 115.947,99.742 	
		"/>
	<polygon fill="#111011" points="109.516,114.561 106.299,120.13 109.516,125.701 115.947,125.701 119.163,120.13 115.947,114.561 	
		"/>
	<polygon fill="#111011" points="133.138,70.106 129.921,75.676 133.138,81.246 139.569,81.246 142.785,75.676 139.569,70.106 	"/>
	<polygon fill="#111011" points="133.138,84.924 129.921,90.494 133.138,96.064 139.569,96.064 142.785,90.494 139.569,84.924 	"/>
	<polygon fill="#111011" points="133.138,99.742 129.921,105.313 133.138,110.882 139.569,110.882 142.785,105.313 139.569,99.742 	
		"/>
	<polygon fill="#111011" points="133.138,114.561 129.921,120.13 133.138,125.701 139.569,125.701 142.785,120.13 139.569,114.561 	
		"/>
	<polygon fill="#111011" points="156.76,70.106 153.544,75.676 156.76,81.246 163.191,81.246 166.407,75.676 163.191,70.106 	"/>
	<polygon fill="#111011" points="156.76,84.924 153.544,90.494 156.76,96.064 163.191,96.064 166.407,90.494 163.191,84.924 	"/>
	<polygon fill="#111011" points="156.76,99.742 153.544,105.313 156.76,110.882 163.191,110.882 166.407,105.313 163.191,99.742 	
		"/>
	<polygon fill="#111011" points="156.76,114.561 153.544,120.13 156.76,125.701 163.191,125.701 166.407,120.13 163.191,114.561 	
		"/>
	<polygon fill="#111011" points="97.703,131.964 94.487,126.395 97.703,120.824 104.135,120.824 107.352,126.395 104.135,131.964 	
		"/>
	<polygon fill="#111011" points="97.703,146.783 94.487,141.212 97.703,135.643 104.135,135.643 107.352,141.212 104.135,146.783 	
		"/>
	<polygon fill="#111011" points="97.703,161.601 94.487,156.031 97.703,150.461 104.135,150.461 107.352,156.031 104.135,161.601 	
		"/>
	<polygon fill="#111011" points="97.703,176.419 94.487,170.849 97.703,165.279 104.135,165.279 107.352,170.849 104.135,176.419 	
		"/>
	<polygon fill="#111011" points="121.325,131.964 118.109,126.395 121.325,120.824 127.757,120.824 130.974,126.395 
		127.757,131.964 	"/>
	<polygon fill="#111011" points="121.325,146.783 118.109,141.212 121.325,135.643 127.757,135.643 130.974,141.212 
		127.757,146.783 	"/>
	<polygon fill="#111011" points="121.325,161.601 118.109,156.031 121.325,150.461 127.757,150.461 130.974,156.031 
		127.757,161.601 	"/>
	<polygon fill="#111011" points="121.325,176.419 118.109,170.849 121.325,165.279 127.757,165.279 130.974,170.849 
		127.757,176.419 	"/>
	<polygon fill="#111011" points="144.947,131.964 141.731,126.395 144.947,120.824 151.38,120.824 154.596,126.395 151.38,131.964 	
		"/>
	<polygon fill="#111011" points="144.947,146.783 141.731,141.212 144.947,135.643 151.38,135.643 154.596,141.212 151.38,146.783 	
		"/>
	<polygon fill="#111011" points="144.947,161.601 141.731,156.031 144.947,150.461 151.38,150.461 154.596,156.031 151.38,161.601 	
		"/>
	<polygon fill="#111011" points="144.947,176.419 141.731,170.849 144.947,165.279 151.38,165.279 154.596,170.849 151.38,176.419 	
		"/>
	<polygon fill="#111011" points="168.569,131.964 165.354,126.395 168.569,120.824 175.002,120.824 178.218,126.395 
		175.002,131.964 	"/>
	<polygon fill="#111011" points="168.569,146.783 165.354,141.212 168.569,135.643 175.002,135.643 178.218,141.212 
		175.002,146.783 	"/>
	<polygon fill="#111011" points="168.569,161.601 165.354,156.031 168.569,150.461 175.002,150.461 178.218,156.031 
		175.002,161.601 	"/>
	<polygon fill="#111011" points="168.569,176.419 165.354,170.849 168.569,165.279 175.002,165.279 178.218,170.849 
		175.002,176.419 	"/>
	<polygon fill="#111011" points="109.515,128.541 106.298,134.111 109.515,139.681 115.946,139.681 119.162,134.111 
		115.946,128.541 	"/>
	<polygon fill="#111011" points="109.515,143.359 106.298,148.929 109.515,154.499 115.946,154.499 119.162,148.929 
		115.946,143.359 	"/>
	<polygon fill="#111011" points="109.515,158.177 106.298,163.748 109.515,169.317 115.946,169.317 119.162,163.748 
		115.946,158.177 	"/>
	<polygon fill="#111011" points="109.515,172.996 106.298,178.565 109.515,184.136 115.946,184.136 119.162,178.565 
		115.946,172.996 	"/>
	<polygon fill="#111011" points="133.137,128.541 129.92,134.111 133.137,139.681 139.568,139.681 142.784,134.111 139.568,128.541 
			"/>
	<polygon fill="#111011" points="133.137,143.359 129.92,148.929 133.137,154.499 139.568,154.499 142.784,148.929 139.568,143.359 
			"/>
	<polygon fill="#111011" points="133.137,158.177 129.92,163.748 133.137,169.317 139.568,169.317 142.784,163.748 139.568,158.177 
			"/>
	<polygon fill="#111011" points="133.137,172.996 129.92,178.565 133.137,184.136 139.568,184.136 142.784,178.565 139.568,172.996 
			"/>
	<polygon fill="#111011" points="156.759,128.541 153.543,134.111 156.759,139.681 163.19,139.681 166.406,134.111 163.19,128.541 	
		"/>
	<polygon fill="#111011" points="156.759,143.359 153.543,148.929 156.759,154.499 163.19,154.499 166.406,148.929 163.19,143.359 	
		"/>
	<polygon fill="#111011" points="156.759,158.177 153.543,163.748 156.759,169.317 163.19,169.317 166.406,163.748 163.19,158.177 	
		"/>
	<polygon fill="#111011" points="156.759,172.996 153.543,178.565 156.759,184.136 163.19,184.136 166.406,178.565 163.19,172.996 	
		"/>
	<polygon fill="#111011" points="97.703,190.612 94.487,185.042 97.703,179.473 104.135,179.473 107.352,185.042 104.135,190.612 	
		"/>
	<polygon fill="#111011" points="97.703,205.431 94.487,199.86 97.703,194.291 104.135,194.291 107.352,199.86 104.135,205.431 	"/>
	<polygon fill="#111011" points="97.703,220.249 94.487,214.679 97.703,209.109 104.135,209.109 107.352,214.679 104.135,220.249 	
		"/>
	<polygon fill="#111011" points="97.703,235.067 94.487,229.497 97.703,223.927 104.135,223.927 107.352,229.497 104.135,235.067 	
		"/>
	<polygon fill="#111011" points="121.325,190.612 118.109,185.042 121.325,179.473 127.757,179.473 130.974,185.042 
		127.757,190.612 	"/>
	<polygon fill="#111011" points="121.325,205.431 118.109,199.86 121.325,194.291 127.757,194.291 130.974,199.86 127.757,205.431 	
		"/>
	<polygon fill="#111011" points="121.325,220.249 118.109,214.679 121.325,209.109 127.757,209.109 130.974,214.679 
		127.757,220.249 	"/>
	<polygon fill="#111011" points="121.325,235.067 118.109,229.497 121.325,223.927 127.757,223.927 130.974,229.497 
		127.757,235.067 	"/>
	<polygon fill="#111011" points="144.947,190.612 141.731,185.042 144.947,179.473 151.38,179.473 154.596,185.042 151.38,190.612 	
		"/>
	<polygon fill="#111011" points="144.947,205.431 141.731,199.86 144.947,194.291 151.38,194.291 154.596,199.86 151.38,205.431 	
		"/>
	<polygon fill="#111011" points="144.947,220.249 141.731,214.679 144.947,209.109 151.38,209.109 154.596,214.679 151.38,220.249 	
		"/>
	<polygon fill="#111011" points="144.947,235.067 141.731,229.497 144.947,223.927 151.38,223.927 154.596,229.497 151.38,235.067 	
		"/>
	<polygon fill="#111011" points="168.569,190.612 165.354,185.042 168.569,179.473 175.002,179.473 178.218,185.042 
		175.002,190.612 	"/>
	<polygon fill="#111011" points="168.569,205.431 165.354,199.86 168.569,194.291 175.002,194.291 178.218,199.86 175.002,205.431 	
		"/>
	<polygon fill="#111011" points="168.569,220.249 165.354,214.679 168.569,209.109 175.002,209.109 178.218,214.679 
		175.002,220.249 	"/>
	<polygon fill="#111011" points="168.569,235.067 165.354,229.497 168.569,223.927 175.002,223.927 178.218,229.497 
		175.002,235.067 	"/>
	<polygon fill="#111011" points="109.515,187.189 106.298,192.759 109.515,198.329 115.946,198.329 119.162,192.759 
		115.946,187.189 	"/>
	<polygon fill="#111011" points="109.515,202.007 106.298,207.577 109.515,213.147 115.946,213.147 119.162,207.577 
		115.946,202.007 	"/>
	<polygon fill="#111011" points="109.515,216.825 106.298,222.396 109.515,227.966 115.946,227.966 119.162,222.396 
		115.946,216.825 	"/>
	<polygon fill="#111011" points="109.515,231.644 106.298,237.214 109.515,242.784 115.946,242.784 119.162,237.214 
		115.946,231.644 	"/>
	<polygon fill="#111011" points="133.137,187.189 129.92,192.759 133.137,198.329 139.568,198.329 142.784,192.759 139.568,187.189 
			"/>
	<polygon fill="#111011" points="133.137,202.007 129.92,207.577 133.137,213.147 139.568,213.147 142.784,207.577 139.568,202.007 
			"/>
	<polygon fill="#111011" points="133.137,216.825 129.92,222.396 133.137,227.966 139.568,227.966 142.784,222.396 139.568,216.825 
			"/>
	<polygon fill="#111011" points="133.137,231.644 129.92,237.214 133.137,242.784 139.568,242.784 142.784,237.214 139.568,231.644 
			"/>
	<polygon fill="#111011" points="156.759,187.189 153.543,192.759 156.759,198.329 163.19,198.329 166.406,192.759 163.19,187.189 	
		"/>
	<polygon fill="#111011" points="156.759,202.007 153.543,207.577 156.759,213.147 163.19,213.147 166.406,207.577 163.19,202.007 	
		"/>
	<polygon fill="#111011" points="156.759,216.825 153.543,222.396 156.759,227.966 163.19,227.966 166.406,222.396 163.19,216.825 	
		"/>
	<polygon fill="#111011" points="156.759,231.644 153.543,237.214 156.759,242.784 163.19,242.784 166.406,237.214 163.19,231.644 	
		"/>
	<polygon fill="#111011" points="97.702,249.424 94.486,243.854 97.702,238.284 104.134,238.284 107.351,243.854 104.134,249.424 	
		"/>
	<polygon fill="#111011" points="97.702,264.242 94.486,258.672 97.702,253.102 104.134,253.102 107.351,258.672 104.134,264.242 	
		"/>
	<polygon fill="#111011" points="97.702,279.06 94.486,273.49 97.702,267.92 104.134,267.92 107.351,273.49 104.134,279.06 	"/>
	<polygon fill="#111011" points="97.702,293.878 94.486,288.309 97.702,282.738 104.134,282.738 107.351,288.309 104.134,293.878 	
		"/>
	<polygon fill="#111011" points="121.324,249.424 118.108,243.854 121.324,238.284 127.756,238.284 130.973,243.854 
		127.756,249.424 	"/>
	<polygon fill="#111011" points="121.324,264.242 118.108,258.672 121.324,253.102 127.756,253.102 130.973,258.672 
		127.756,264.242 	"/>
	<polygon fill="#111011" points="121.324,279.06 118.108,273.49 121.324,267.92 127.756,267.92 130.973,273.49 127.756,279.06 	"/>
	<polygon fill="#111011" points="121.324,293.878 118.108,288.309 121.324,282.738 127.756,282.738 130.973,288.309 
		127.756,293.878 	"/>
	<polygon fill="#111011" points="144.946,249.424 141.73,243.854 144.946,238.284 151.379,238.284 154.595,243.854 151.379,249.424 
			"/>
	<polygon fill="#111011" points="144.946,264.242 141.73,258.672 144.946,253.102 151.379,253.102 154.595,258.672 151.379,264.242 
			"/>
	<polygon fill="#111011" points="144.946,279.06 141.73,273.49 144.946,267.92 151.379,267.92 154.595,273.49 151.379,279.06 	"/>
	<polygon fill="#111011" points="144.946,293.878 141.73,288.309 144.946,282.738 151.379,282.738 154.595,288.309 151.379,293.878 
			"/>
	<polygon fill="#111011" points="168.568,249.424 165.353,243.854 168.568,238.284 175.001,238.284 178.217,243.854 
		175.001,249.424 	"/>
	<polygon fill="#111011" points="168.568,264.242 165.353,258.672 168.568,253.102 175.001,253.102 178.217,258.672 
		175.001,264.242 	"/>
	<polygon fill="#111011" points="168.568,279.06 165.353,273.49 168.568,267.92 175.001,267.92 178.217,273.49 175.001,279.06 	"/>
	<polygon fill="#111011" points="168.568,293.878 165.353,288.309 168.568,282.738 175.001,282.738 178.217,288.309 
		175.001,293.878 	"/>
	<polygon fill="#111011" points="109.514,246 106.297,251.57 109.514,257.141 115.945,257.141 119.161,251.57 115.945,246 	"/>
	<polygon fill="#111011" points="109.514,260.818 106.297,266.389 109.514,271.959 115.945,271.959 119.161,266.389 
		115.945,260.818 	"/>
	<polygon fill="#111011" points="109.514,275.637 106.297,281.207 109.514,286.777 115.945,286.777 119.161,281.207 
		115.945,275.637 	"/>
	<polygon fill="#111011" points="109.514,290.455 106.297,296.025 109.514,301.595 115.945,301.595 119.161,296.025 
		115.945,290.455 	"/>
	<polygon fill="#111011" points="133.136,246 129.919,251.57 133.136,257.141 139.567,257.141 142.783,251.57 139.567,246 	"/>
	<polygon fill="#111011" points="133.136,260.818 129.919,266.389 133.136,271.959 139.567,271.959 142.783,266.389 
		139.567,260.818 	"/>
	<polygon fill="#111011" points="133.136,275.637 129.919,281.207 133.136,286.777 139.567,286.777 142.783,281.207 
		139.567,275.637 	"/>
	<polygon fill="#111011" points="133.136,290.455 129.919,296.025 133.136,301.595 139.567,301.595 142.783,296.025 
		139.567,290.455 	"/>
	<polygon fill="#111011" points="156.758,246 153.542,251.57 156.758,257.141 163.189,257.141 166.405,251.57 163.189,246 	"/>
	<polygon fill="#111011" points="156.758,260.818 153.542,266.389 156.758,271.959 163.189,271.959 166.405,266.389 
		163.189,260.818 	"/>
	<polygon fill="#111011" points="156.758,275.637 153.542,281.207 156.758,286.777 163.189,286.777 166.405,281.207 
		163.189,275.637 	"/>
	<polygon fill="#111011" points="156.758,290.455 153.542,296.025 156.758,301.595 163.189,301.595 166.405,296.025 
		163.189,290.455 	"/>
	<polygon fill="#111011" points="97.702,308.072 94.486,302.502 97.702,296.932 104.134,296.932 107.351,302.502 104.134,308.072 	
		"/>
	<polygon fill="#111011" points="97.702,322.891 94.486,317.32 97.702,311.75 104.134,311.75 107.351,317.32 104.134,322.891 	"/>
	<polygon fill="#111011" points="97.702,337.708 94.486,332.139 97.702,326.568 104.134,326.568 107.351,332.139 104.134,337.708 	
		"/>
	<polygon fill="#111011" points="97.702,352.526 94.486,346.957 97.702,341.386 104.134,341.386 107.351,346.957 104.134,352.526 	
		"/>
	<polygon fill="#111011" points="121.324,308.072 118.108,302.502 121.324,296.932 127.756,296.932 130.973,302.502 
		127.756,308.072 	"/>
	<polygon fill="#111011" points="121.324,322.891 118.108,317.32 121.324,311.75 127.756,311.75 130.973,317.32 127.756,322.891 	
		"/>
	<polygon fill="#111011" points="121.324,337.708 118.108,332.139 121.324,326.568 127.756,326.568 130.973,332.139 
		127.756,337.708 	"/>
	<polygon fill="#111011" points="121.324,352.526 118.108,346.957 121.324,341.386 127.756,341.386 130.973,346.957 
		127.756,352.526 	"/>
	<polygon fill="#111011" points="144.946,308.072 141.73,302.502 144.946,296.932 151.379,296.932 154.595,302.502 151.379,308.072 
			"/>
	<polygon fill="#111011" points="144.946,322.891 141.73,317.32 144.946,311.75 151.379,311.75 154.595,317.32 151.379,322.891 	"/>
	<polygon fill="#111011" points="144.946,337.708 141.73,332.139 144.946,326.568 151.379,326.568 154.595,332.139 151.379,337.708 
			"/>
	<polygon fill="#111011" points="144.946,352.526 141.73,346.957 144.946,341.386 151.379,341.386 154.595,346.957 151.379,352.526 
			"/>
	<polygon fill="#111011" points="168.568,308.072 165.353,302.502 168.568,296.932 175.001,296.932 178.217,302.502 
		175.001,308.072 	"/>
	<polygon fill="#111011" points="168.568,322.891 165.353,317.32 168.568,311.75 175.001,311.75 178.217,317.32 175.001,322.891 	
		"/>
	<polygon fill="#111011" points="168.568,337.708 165.353,332.139 168.568,326.568 175.001,326.568 178.217,332.139 
		175.001,337.708 	"/>
	<polygon fill="#111011" points="168.568,352.526 165.353,346.957 168.568,341.386 175.001,341.386 178.217,346.957 
		175.001,352.526 	"/>
	<polygon fill="#111011" points="109.514,304.648 106.297,310.218 109.514,315.789 115.945,315.789 119.161,310.218 
		115.945,304.648 	"/>
	<polygon fill="#111011" points="109.514,319.466 106.297,325.037 109.514,330.606 115.945,330.606 119.161,325.037 
		115.945,319.466 	"/>
	<polygon fill="#111011" points="109.514,334.285 106.297,339.855 109.514,345.425 115.945,345.425 119.161,339.855 
		115.945,334.285 	"/>
	<polygon fill="#111011" points="109.514,349.103 106.297,354.673 109.514,360.243 115.945,360.243 119.161,354.673 
		115.945,349.103 	"/>
	<polygon fill="#111011" points="133.136,304.648 129.919,310.218 133.136,315.789 139.567,315.789 142.783,310.218 
		139.567,304.648 	"/>
	<polygon fill="#111011" points="133.136,319.466 129.919,325.037 133.136,330.606 139.567,330.606 142.783,325.037 
		139.567,319.466 	"/>
	<polygon fill="#111011" points="133.136,334.285 129.919,339.855 133.136,345.425 139.567,345.425 142.783,339.855 
		139.567,334.285 	"/>
	<polygon fill="#111011" points="133.136,349.103 129.919,354.673 133.136,360.243 139.567,360.243 142.783,354.673 
		139.567,349.103 	"/>
	<polygon fill="#111011" points="156.758,304.648 153.542,310.218 156.758,315.789 163.189,315.789 166.405,310.218 
		163.189,304.648 	"/>
	<polygon fill="#111011" points="156.758,319.466 153.542,325.037 156.758,330.606 163.189,330.606 166.405,325.037 
		163.189,319.466 	"/>
	<polygon fill="#111011" points="156.758,334.285 153.542,339.855 156.758,345.425 163.189,345.425 166.405,339.855 
		163.189,334.285 	"/>
	<polygon fill="#111011" points="156.758,349.103 153.542,354.673 156.758,360.243 163.189,360.243 166.405,354.673 
		163.189,349.103 	"/>
	<polygon fill="#111011" points="97.702,365.813 94.486,360.243 97.702,354.673 104.134,354.673 107.351,360.243 104.134,365.813 	
		"/>
	<polygon fill="#111011" points="121.324,365.813 118.108,360.243 121.324,354.673 127.756,354.673 130.973,360.243 
		127.756,365.813 	"/>
	<polygon fill="#111011" points="144.946,365.813 141.73,360.243 144.946,354.673 151.379,354.673 154.595,360.243 151.379,365.813 
			"/>
	<polygon fill="#111011" points="168.568,365.813 165.353,360.243 168.568,354.673 175.001,354.673 178.217,360.243 
		175.001,365.813 	"/>
	<polygon fill="#111011" points="109.514,362.389 106.297,367.959 109.514,373.529 115.945,373.529 119.161,367.959 
		115.945,362.389 	"/>
	<polygon fill="#111011" points="133.136,362.389 129.919,367.959 133.136,373.529 139.567,373.529 142.783,367.959 
		139.567,362.389 	"/>
	<polygon fill="#111011" points="156.758,362.389 153.542,367.959 156.758,373.529 163.189,373.529 166.405,367.959 
		163.189,362.389 	"/>
	<polygon fill="#111011" points="178.219,2.21 181.436,7.78 187.867,7.78 191.083,2.21 189.807,0 179.495,0 	"/>
	<polygon fill="#111011" points="181.436,11.458 178.22,17.028 181.436,22.599 187.867,22.599 191.083,17.028 187.867,11.458 	"/>
	<polygon fill="#111011" points="181.436,26.276 178.22,31.847 181.436,37.416 187.867,37.416 191.083,31.847 187.867,26.276 	"/>
	<polygon fill="#111011" points="181.436,41.094 178.22,46.665 181.436,52.234 187.867,52.234 191.083,46.665 187.867,41.094 	"/>
	<polygon fill="#111011" points="181.436,55.913 178.22,61.482 181.436,67.053 187.867,67.053 191.083,61.482 187.867,55.913 	"/>
	<polygon fill="#111011" points="181.436,70.106 178.22,75.676 181.436,81.246 187.867,81.246 191.083,75.676 187.867,70.106 	"/>
	<polygon fill="#111011" points="181.436,84.924 178.22,90.494 181.436,96.064 187.867,96.064 191.083,90.494 187.867,84.924 	"/>
	<polygon fill="#111011" points="181.436,99.742 178.22,105.313 181.436,110.882 187.867,110.882 191.083,105.313 187.867,99.742 	
		"/>
	<polygon fill="#111011" points="181.436,114.561 178.22,120.13 181.436,125.701 187.867,125.701 191.083,120.13 187.867,114.561 	
		"/>
	<polygon fill="#111011" points="181.435,128.541 178.219,134.111 181.435,139.681 187.866,139.681 191.082,134.111 
		187.866,128.541 	"/>
	<polygon fill="#111011" points="181.435,143.359 178.219,148.929 181.435,154.499 187.866,154.499 191.082,148.929 
		187.866,143.359 	"/>
	<polygon fill="#111011" points="181.435,158.177 178.219,163.748 181.435,169.317 187.866,169.317 191.082,163.748 
		187.866,158.177 	"/>
	<polygon fill="#111011" points="181.435,172.996 178.219,178.565 181.435,184.136 187.866,184.136 191.082,178.565 
		187.866,172.996 	"/>
	<polygon fill="#111011" points="181.435,187.189 178.219,192.759 181.435,198.329 187.866,198.329 191.082,192.759 
		187.866,187.189 	"/>
	<polygon fill="#111011" points="181.435,202.007 178.219,207.577 181.435,213.147 187.866,213.147 191.082,207.577 
		187.866,202.007 	"/>
	<polygon fill="#111011" points="181.435,216.825 178.219,222.396 181.435,227.966 187.866,227.966 191.082,222.396 
		187.866,216.825 	"/>
	<polygon fill="#111011" points="181.435,231.644 178.219,237.214 181.435,242.784 187.866,242.784 191.082,237.214 
		187.866,231.644 	"/>
	<polygon fill="#111011" points="181.434,246 178.218,251.57 181.434,257.141 187.865,257.141 191.081,251.57 187.865,246 	"/>
	<polygon fill="#111011" points="181.434,260.818 178.218,266.389 181.434,271.959 187.865,271.959 191.081,266.389 
		187.865,260.818 	"/>
	<polygon fill="#111011" points="181.434,275.637 178.218,281.207 181.434,286.777 187.865,286.777 191.081,281.207 
		187.865,275.637 	"/>
	<polygon fill="#111011" points="181.434,290.455 178.218,296.025 181.434,301.595 187.865,301.595 191.081,296.025 
		187.865,290.455 	"/>
	<polygon fill="#111011" points="181.434,304.648 178.218,310.218 181.434,315.789 187.865,315.789 191.081,310.218 
		187.865,304.648 	"/>
	<polygon fill="#111011" points="181.434,319.466 178.218,325.037 181.434,330.606 187.865,330.606 191.081,325.037 
		187.865,319.466 	"/>
	<polygon fill="#111011" points="181.434,334.285 178.218,339.855 181.434,345.425 187.865,345.425 191.081,339.855 
		187.865,334.285 	"/>
	<polygon fill="#111011" points="181.434,349.103 178.218,354.673 181.434,360.243 187.865,360.243 191.081,354.673 
		187.865,349.103 	"/>
	<polygon fill="#111011" points="181.434,362.389 178.218,367.959 181.434,373.529 187.865,373.529 191.081,367.959 
		187.865,362.389 	"/>
	<polygon fill="#111011" points="97.702,380.547 94.486,374.978 97.702,369.407 104.134,369.407 107.351,374.978 104.134,380.547 	
		"/>
	<polygon fill="#111011" points="121.324,380.547 118.108,374.978 121.324,369.407 127.756,369.407 130.973,374.978 
		127.756,380.547 	"/>
	<polygon fill="#111011" points="144.946,380.547 141.73,374.978 144.946,369.407 151.379,369.407 154.595,374.978 151.379,380.547 
			"/>
	<polygon fill="#111011" points="168.568,380.547 165.353,374.978 168.568,369.407 175.001,369.407 178.217,374.978 
		175.001,380.547 	"/>
	<polygon fill="#111011" points="109.514,377.124 106.297,382.694 109.514,388.264 115.945,388.264 119.161,382.694 
		115.945,377.124 	"/>
	<polygon fill="#111011" points="133.136,377.124 129.919,382.694 133.136,388.264 139.567,388.264 142.783,382.694 
		139.567,377.124 	"/>
	<polygon fill="#111011" points="156.758,377.124 153.542,382.694 156.758,388.264 163.189,388.264 166.405,382.694 
		163.189,377.124 	"/>
	<polygon fill="#111011" points="97.702,394.741 94.486,389.171 97.702,383.601 104.134,383.601 107.351,389.171 104.134,394.741 	
		"/>
	<polygon fill="#111011" points="97.702,409.56 94.486,403.989 97.702,398.419 104.134,398.419 107.351,403.989 104.134,409.56 	"/>
	<polygon fill="#111011" points="97.702,424.377 94.486,418.808 97.702,413.237 104.134,413.237 107.351,418.808 104.134,424.377 	
		"/>
	<polygon fill="#111011" points="97.702,439.195 94.486,433.626 97.702,428.055 104.134,428.055 107.351,433.626 104.134,439.195 	
		"/>
	<polygon fill="#111011" points="121.324,394.741 118.108,389.171 121.324,383.601 127.756,383.601 130.973,389.171 
		127.756,394.741 	"/>
	<polygon fill="#111011" points="121.324,409.56 118.108,403.989 121.324,398.419 127.756,398.419 130.973,403.989 127.756,409.56 	
		"/>
	<polygon fill="#111011" points="121.324,424.377 118.108,418.808 121.324,413.237 127.756,413.237 130.973,418.808 
		127.756,424.377 	"/>
	<polygon fill="#111011" points="121.324,439.195 118.108,433.626 121.324,428.055 127.756,428.055 130.973,433.626 
		127.756,439.195 	"/>
	<polygon fill="#111011" points="144.946,394.741 141.73,389.171 144.946,383.601 151.379,383.601 154.595,389.171 151.379,394.741 
			"/>
	<polygon fill="#111011" points="144.946,409.56 141.73,403.989 144.946,398.419 151.379,398.419 154.595,403.989 151.379,409.56 	
		"/>
	<polygon fill="#111011" points="144.946,424.377 141.73,418.808 144.946,413.237 151.379,413.237 154.595,418.808 151.379,424.377 
			"/>
	<polygon fill="#111011" points="144.946,439.195 141.73,433.626 144.946,428.055 151.379,428.055 154.595,433.626 151.379,439.195 
			"/>
	<polygon fill="#111011" points="168.568,394.741 165.353,389.171 168.568,383.601 175.001,383.601 178.217,389.171 
		175.001,394.741 	"/>
	<polygon fill="#111011" points="168.568,409.56 165.353,403.989 168.568,398.419 175.001,398.419 178.217,403.989 175.001,409.56 	
		"/>
	<polygon fill="#111011" points="168.568,424.377 165.353,418.808 168.568,413.237 175.001,413.237 178.217,418.808 
		175.001,424.377 	"/>
	<polygon fill="#111011" points="168.568,439.195 165.353,433.626 168.568,428.055 175.001,428.055 178.217,433.626 
		175.001,439.195 	"/>
	<polygon fill="#111011" points="109.514,391.317 106.297,396.887 109.514,402.458 115.945,402.458 119.161,396.887 
		115.945,391.317 	"/>
	<polygon fill="#111011" points="109.514,406.135 106.297,411.706 109.514,417.275 115.945,417.275 119.161,411.706 
		115.945,406.135 	"/>
	<polygon fill="#111011" points="109.514,420.954 106.297,426.524 109.514,432.094 115.945,432.094 119.161,426.524 
		115.945,420.954 	"/>
	<polygon fill="#111011" points="109.514,435.772 106.297,441.342 109.514,446.912 115.945,446.912 119.161,441.342 
		115.945,435.772 	"/>
	<polygon fill="#111011" points="133.136,391.317 129.919,396.887 133.136,402.458 139.567,402.458 142.783,396.887 
		139.567,391.317 	"/>
	<polygon fill="#111011" points="133.136,406.135 129.919,411.706 133.136,417.275 139.567,417.275 142.783,411.706 
		139.567,406.135 	"/>
	<polygon fill="#111011" points="133.136,420.954 129.919,426.524 133.136,432.094 139.567,432.094 142.783,426.524 
		139.567,420.954 	"/>
	<polygon fill="#111011" points="133.136,435.772 129.919,441.342 133.136,446.912 139.567,446.912 142.783,441.342 
		139.567,435.772 	"/>
	<polygon fill="#111011" points="156.758,391.317 153.542,396.887 156.758,402.458 163.189,402.458 166.405,396.887 
		163.189,391.317 	"/>
	<polygon fill="#111011" points="156.758,406.135 153.542,411.706 156.758,417.275 163.189,417.275 166.405,411.706 
		163.189,406.135 	"/>
	<polygon fill="#111011" points="156.758,420.954 153.542,426.524 156.758,432.094 163.189,432.094 166.405,426.524 
		163.189,420.954 	"/>
	<polygon fill="#111011" points="156.758,435.772 153.542,441.342 156.758,446.912 163.189,446.912 166.405,441.342 
		163.189,435.772 	"/>
	<polygon fill="#111011" points="97.702,452.481 94.486,446.912 97.702,441.342 104.134,441.342 107.351,446.912 104.134,452.481 	
		"/>
	<polygon fill="#111011" points="121.324,452.481 118.108,446.912 121.324,441.342 127.756,441.342 130.973,446.912 
		127.756,452.481 	"/>
	<polygon fill="#111011" points="144.946,452.481 141.73,446.912 144.946,441.342 151.379,441.342 154.595,446.912 151.379,452.481 
			"/>
	<polygon fill="#111011" points="168.568,452.481 165.353,446.912 168.568,441.342 175.001,441.342 178.217,446.912 
		175.001,452.481 	"/>
	<polygon fill="#111011" points="109.514,449.058 106.297,454.628 109.514,460.198 115.945,460.198 119.161,454.628 
		115.945,449.058 	"/>
	<polygon fill="#111011" points="133.136,449.058 129.919,454.628 133.136,460.198 139.567,460.198 142.783,454.628 
		139.567,449.058 	"/>
	<polygon fill="#111011" points="156.758,449.058 153.542,454.628 156.758,460.198 163.189,460.198 166.405,454.628 
		163.189,449.058 	"/>
	<polygon fill="#111011" points="181.434,377.124 178.218,382.694 181.434,388.264 187.865,388.264 191.081,382.694 
		187.865,377.124 	"/>
	<polygon fill="#111011" points="181.434,391.317 178.218,396.887 181.434,402.458 187.865,402.458 191.081,396.887 
		187.865,391.317 	"/>
	<polygon fill="#111011" points="181.434,406.135 178.218,411.706 181.434,417.275 187.865,417.275 191.081,411.706 
		187.865,406.135 	"/>
	<polygon fill="#111011" points="181.434,420.954 178.218,426.524 181.434,432.094 187.865,432.094 191.081,426.524 
		187.865,420.954 	"/>
	<polygon fill="#111011" points="181.434,435.772 178.218,441.342 181.434,446.912 187.865,446.912 191.081,441.342 
		187.865,435.772 	"/>
	<polygon fill="#111011" points="181.434,449.058 178.218,454.628 181.434,460.198 187.865,460.198 191.081,454.628 
		187.865,449.058 	"/>
	<polygon fill="#111011" points="97.702,466.547 94.486,460.978 97.702,455.407 104.134,455.407 107.351,460.978 104.134,466.547 	
		"/>
	<polygon fill="#111011" points="121.324,466.547 118.108,460.978 121.324,455.407 127.756,455.407 130.973,460.978 
		127.756,466.547 	"/>
	<polygon fill="#111011" points="144.946,466.547 141.73,460.978 144.946,455.407 151.379,455.407 154.595,460.978 151.379,466.547 
			"/>
	<polygon fill="#111011" points="168.568,466.547 165.353,460.978 168.568,455.407 175.001,455.407 178.217,460.978 
		175.001,466.547 	"/>
	<polygon fill="#111011" points="109.514,463.124 106.297,468.694 109.514,474.264 115.945,474.264 119.161,468.694 
		115.945,463.124 	"/>
	<polygon fill="#111011" points="133.136,463.124 129.919,468.694 133.136,474.264 139.567,474.264 142.783,468.694 
		139.567,463.124 	"/>
	<polygon fill="#111011" points="156.758,463.124 153.542,468.694 156.758,474.264 163.189,474.264 166.405,468.694 
		163.189,463.124 	"/>
	<polygon fill="#111011" points="97.702,480.741 94.486,475.171 97.702,469.601 104.134,469.601 107.351,475.171 104.134,480.741 	
		"/>
	<polygon fill="#111011" points="97.702,495.56 94.486,489.989 97.702,484.419 104.134,484.419 107.351,489.989 104.134,495.56 	"/>
	<polygon fill="#111011" points="121.324,480.741 118.108,475.171 121.324,469.601 127.756,469.601 130.973,475.171 
		127.756,480.741 	"/>
	<polygon fill="#111011" points="121.324,495.56 118.108,489.989 121.324,484.419 127.756,484.419 130.973,489.989 127.756,495.56 	
		"/>
	<polygon fill="#111011" points="144.946,480.741 141.73,475.171 144.946,469.601 151.379,469.601 154.595,475.171 151.379,480.741 
			"/>
	<polygon fill="#111011" points="144.946,495.56 141.73,489.989 144.946,484.419 151.379,484.419 154.595,489.989 151.379,495.56 	
		"/>
	<polygon fill="#111011" points="168.568,480.741 165.353,475.171 168.568,469.601 175.001,469.601 178.217,475.171 
		175.001,480.741 	"/>
	<polygon fill="#111011" points="168.568,495.56 165.353,489.989 168.568,484.419 175.001,484.419 178.217,489.989 175.001,495.56 	
		"/>
	<polygon fill="#111011" points="109.514,477.317 106.297,482.887 109.514,488.458 115.945,488.458 119.161,482.887 
		115.945,477.317 	"/>
	<polygon fill="#111011" points="109.514,492.135 106.297,497.706 109.514,503.275 115.945,503.275 119.161,497.706 
		115.945,492.135 	"/>
	<polygon fill="#111011" points="133.136,477.317 129.919,482.887 133.136,488.458 139.567,488.458 142.783,482.887 
		139.567,477.317 	"/>
	<polygon fill="#111011" points="133.136,492.135 129.919,497.706 133.136,503.275 139.567,503.275 142.783,497.706 
		139.567,492.135 	"/>
	<polygon fill="#111011" points="156.758,477.317 153.542,482.887 156.758,488.458 163.189,488.458 166.405,482.887 
		163.189,477.317 	"/>
	<polygon fill="#111011" points="156.758,492.135 153.542,497.706 156.758,503.275 163.189,503.275 166.405,497.706 
		163.189,492.135 	"/>
	<polygon fill="#111011" points="181.434,463.124 178.218,468.694 181.434,474.264 187.865,474.264 191.081,468.694 
		187.865,463.124 	"/>
	<polygon fill="#111011" points="181.434,477.317 178.218,482.887 181.434,488.458 187.865,488.458 191.081,482.887 
		187.865,477.317 	"/>
	<polygon fill="#111011" points="181.434,492.135 178.218,497.706 181.434,503.275 187.865,503.275 191.081,497.706 
		187.865,492.135 	"/>
</g>
</svg>
