<?xml version="1.0" encoding="utf-8"?>
<!-- Generator: Adobe Illustrator 16.0.0, SVG Export Plug-In . SVG Version: 6.00 Build 0)  -->
<!DOCTYPE svg PUBLIC "-//W3C//DTD SVG 1.1//EN" "http://www.w3.org/Graphics/SVG/1.1/DTD/svg11.dtd">
<svg version="1.1" id="图层_1" xmlns="http://www.w3.org/2000/svg" xmlns:xlink="http://www.w3.org/1999/xlink" x="0px" y="0px"
	 width="1017.948px" height="173.901px" viewBox="0 0 1017.948 173.901" enable-background="new 0 0 1017.948 173.901"
	 xml:space="preserve">
<g>
	<rect fill="#202021" width="1017.948" height="173.901"/>
	<rect x="10.66" y="6.92" fill="#38404B" width="996.628" height="160.061"/>
	<rect x="10.66" y="18" fill="#5A595B" width="996.628" height="9.968"/>
	<rect x="10.66" y="21.044" fill="#BEC0C6" width="996.628" height="3.878"/>
	<rect x="10.66" y="36.275" fill="#5A595B" width="996.628" height="9.97"/>
	<rect x="10.66" y="39.32" fill="#BEC0C6" width="996.628" height="3.879"/>
	<rect x="10.66" y="54.551" fill="#5A595B" width="996.628" height="9.97"/>
	<rect x="10.66" y="57.599" fill="#BEC0C6" width="996.628" height="3.878"/>
	<rect x="10.66" y="72.83" fill="#5A595B" width="996.628" height="9.968"/>
	<rect x="10.66" y="75.874" fill="#BEC0C6" width="996.628" height="3.878"/>
	<rect x="10.66" y="91.106" fill="#5A595B" width="996.628" height="9.967"/>
	<rect x="10.66" y="94.15" fill="#BEC0C6" width="996.628" height="3.879"/>
	<rect x="10.66" y="109.381" fill="#5A595B" width="996.628" height="9.97"/>
	<rect x="10.66" y="112.428" fill="#BEC0C6" width="996.628" height="3.876"/>
	<rect x="10.66" y="127.659" fill="#5A595B" width="996.628" height="9.969"/>
	<rect x="10.66" y="130.706" fill="#BEC0C6" width="996.628" height="3.877"/>
	<rect x="10.66" y="145.937" fill="#5A595B" width="996.628" height="9.968"/>
	<rect x="10.66" y="148.98" fill="#BEC0C6" width="996.628" height="3.879"/>
</g>
</svg>
