<?xml version="1.0" encoding="utf-8"?>
<!-- Generator: Adobe Illustrator 16.0.0, SVG Export Plug-In . SVG Version: 6.00 Build 0)  -->
<!DOCTYPE svg PUBLIC "-//W3C//DTD SVG 1.1//EN" "http://www.w3.org/Graphics/SVG/1.1/DTD/svg11.dtd">
<svg version="1.1" id="图层_1" xmlns="http://www.w3.org/2000/svg" xmlns:xlink="http://www.w3.org/1999/xlink" x="0px" y="0px"
	 width="148.339px" height="121.77px" viewBox="0 0 148.339 121.77" enable-background="new 0 0 148.339 121.77"
	 xml:space="preserve">
<g>
	<g>
		<path fill="#A9ABA8" d="M67.427,59.074h-0.546v-0.991h-3.057v0.991h-0.546v-1.487h0.348c0.253-0.414,0.452-0.955,0.603-1.621
			c0.15-0.667,0.226-1.397,0.226-2.191h2.563v3.812h0.409V59.074z M66.444,57.587v-3.315h-1.453
			c-0.027,0.692-0.113,1.324-0.255,1.899c-0.145,0.572-0.33,1.047-0.559,1.416H66.444z"/>
		<path fill="#A9ABA8" d="M70.656,57.115c0,0.157-0.033,0.295-0.095,0.417c-0.065,0.123-0.149,0.223-0.261,0.306
			c-0.122,0.089-0.258,0.156-0.404,0.197c-0.146,0.04-0.338,0.06-0.575,0.06H67.98v-3.241h1.254c0.242,0,0.424,0.007,0.546,0.023
			c0.123,0.016,0.239,0.053,0.347,0.108c0.122,0.064,0.211,0.148,0.268,0.251c0.059,0.102,0.087,0.225,0.087,0.363
			c0,0.162-0.046,0.3-0.137,0.418c-0.09,0.118-0.207,0.21-0.352,0.276v0.028c0.192,0.046,0.351,0.137,0.476,0.269
			C70.592,56.723,70.656,56.898,70.656,57.115z M69.92,55.684c0-0.069-0.016-0.131-0.045-0.188
			c-0.029-0.059-0.075-0.101-0.137-0.131c-0.082-0.042-0.174-0.063-0.274-0.069c-0.103-0.004-0.227-0.007-0.374-0.007h-0.567v0.89
			h0.68c0.144,0,0.247-0.005,0.316-0.016c0.069-0.011,0.138-0.037,0.208-0.079c0.073-0.048,0.122-0.103,0.151-0.167
			C69.905,55.855,69.92,55.778,69.92,55.684z M70.094,57.118c0-0.107-0.018-0.193-0.053-0.261c-0.034-0.065-0.112-0.127-0.229-0.185
			c-0.074-0.032-0.153-0.053-0.238-0.059c-0.086-0.009-0.203-0.012-0.354-0.012h-0.698v1.059h0.517c0.216,0,0.383-0.006,0.499-0.022
			c0.118-0.015,0.219-0.045,0.304-0.093s0.147-0.108,0.188-0.178C70.073,57.296,70.094,57.214,70.094,57.118z"/>
		<path fill="#A9ABA8" d="M73.799,58.095h-0.545v-0.344c-0.049,0.032-0.114,0.078-0.197,0.136c-0.081,0.06-0.16,0.107-0.238,0.142
			c-0.092,0.043-0.195,0.08-0.313,0.112c-0.118,0.027-0.257,0.043-0.413,0.043c-0.292,0-0.54-0.097-0.743-0.29
			c-0.202-0.194-0.304-0.439-0.304-0.738c0-0.247,0.053-0.445,0.158-0.596c0.104-0.151,0.256-0.271,0.45-0.358
			c0.198-0.087,0.435-0.146,0.71-0.177c0.276-0.031,0.572-0.053,0.891-0.07v-0.084c0-0.125-0.022-0.227-0.065-0.308
			c-0.043-0.081-0.105-0.145-0.188-0.192c-0.076-0.044-0.17-0.075-0.278-0.09c-0.107-0.016-0.222-0.023-0.339-0.023
			c-0.143,0-0.302,0.019-0.479,0.058c-0.175,0.038-0.357,0.093-0.545,0.164h-0.03v-0.554c0.108-0.028,0.262-0.063,0.463-0.096
			c0.201-0.034,0.399-0.052,0.594-0.052c0.23,0,0.429,0.019,0.599,0.057c0.169,0.037,0.315,0.102,0.438,0.192
			c0.122,0.088,0.215,0.203,0.278,0.346c0.065,0.14,0.097,0.316,0.097,0.524V58.095z M73.254,57.3v-0.903
			c-0.167,0.009-0.363,0.023-0.588,0.043c-0.225,0.02-0.404,0.047-0.535,0.083c-0.156,0.045-0.283,0.116-0.379,0.208
			c-0.098,0.096-0.146,0.225-0.146,0.389c0,0.186,0.056,0.326,0.168,0.418c0.112,0.095,0.284,0.143,0.513,0.143
			c0.191,0,0.366-0.038,0.526-0.112C72.971,57.494,73.117,57.404,73.254,57.3z"/>
		<path fill="#A9ABA8" d="M78.955,58.095h-0.546v-1.283h-0.642l-1.006,1.283H76.12l1.092-1.335c-0.28-0.079-0.485-0.197-0.615-0.357
			c-0.128-0.16-0.194-0.368-0.194-0.629c0-0.171,0.039-0.319,0.116-0.439c0.078-0.118,0.175-0.217,0.293-0.292
			c0.114-0.072,0.25-0.124,0.4-0.149c0.151-0.026,0.315-0.039,0.493-0.039h1.25V58.095z M78.409,56.383v-1.095H77.72
			c-0.146,0-0.253,0.006-0.319,0.016c-0.068,0.01-0.138,0.036-0.215,0.078c-0.076,0.043-0.133,0.101-0.168,0.174
			c-0.035,0.074-0.053,0.153-0.053,0.237c0,0.107,0.011,0.193,0.033,0.259c0.021,0.066,0.067,0.129,0.135,0.187
			c0.074,0.056,0.16,0.095,0.264,0.114c0.103,0.021,0.216,0.031,0.342,0.031H78.409z"/>
		<path fill="#A9ABA8" d="M82.734,58.875h-0.51v-0.787h-2.438v0.787h-0.509v-1.249h0.351c0.227-0.372,0.396-0.802,0.507-1.29
			c0.112-0.488,0.168-0.982,0.168-1.482h2.039v2.772h0.392V58.875z M81.798,57.626v-2.313h-0.981
			c-0.025,0.485-0.101,0.928-0.225,1.327c-0.123,0.398-0.266,0.73-0.426,0.986H81.798z"/>
		<path fill="#A9ABA8" d="M86.098,56.436c0,0.263-0.038,0.504-0.113,0.722c-0.076,0.218-0.182,0.401-0.318,0.553
			c-0.129,0.144-0.277,0.254-0.451,0.333c-0.175,0.078-0.357,0.118-0.551,0.118c-0.168,0-0.32-0.02-0.456-0.057
			c-0.138-0.036-0.274-0.093-0.416-0.171v1.356h-0.545v-4.436h0.545v0.34c0.145-0.123,0.308-0.224,0.487-0.306
			c0.183-0.084,0.375-0.124,0.58-0.124c0.391,0,0.694,0.148,0.912,0.443C85.989,55.501,86.098,55.912,86.098,56.436z M85.537,56.452
			c0-0.391-0.067-0.683-0.201-0.877c-0.134-0.193-0.339-0.29-0.614-0.29c-0.158,0-0.316,0.034-0.475,0.101
			c-0.159,0.068-0.311,0.158-0.455,0.268v1.837c0.154,0.069,0.286,0.117,0.399,0.143c0.111,0.024,0.237,0.037,0.377,0.037
			c0.304,0,0.542-0.101,0.713-0.307C85.451,57.159,85.537,56.854,85.537,56.452z"/>
		<path fill="#A9ABA8" d="M89.232,58.095h-0.546v-0.344c-0.048,0.032-0.113,0.078-0.194,0.136c-0.083,0.06-0.161,0.107-0.239,0.142
			c-0.092,0.043-0.194,0.08-0.315,0.112c-0.116,0.027-0.255,0.043-0.414,0.043c-0.291,0-0.538-0.097-0.741-0.29
			c-0.203-0.194-0.304-0.439-0.304-0.738c0-0.247,0.053-0.445,0.157-0.596c0.105-0.151,0.256-0.271,0.452-0.358
			c0.195-0.087,0.434-0.146,0.709-0.177c0.276-0.031,0.573-0.053,0.89-0.07v-0.084c0-0.125-0.021-0.227-0.065-0.308
			c-0.044-0.081-0.105-0.145-0.187-0.192c-0.078-0.044-0.17-0.075-0.278-0.09c-0.107-0.016-0.222-0.023-0.339-0.023
			c-0.144,0-0.302,0.019-0.479,0.058c-0.175,0.038-0.358,0.093-0.546,0.164h-0.027v-0.554c0.107-0.028,0.259-0.063,0.461-0.096
			c0.199-0.034,0.399-0.052,0.595-0.052c0.229,0,0.427,0.019,0.597,0.057c0.17,0.037,0.315,0.102,0.439,0.192
			c0.122,0.088,0.216,0.203,0.278,0.346c0.064,0.14,0.097,0.316,0.097,0.524V58.095z M88.687,57.3v-0.903
			c-0.167,0.009-0.362,0.023-0.586,0.043c-0.226,0.02-0.404,0.047-0.536,0.083c-0.155,0.045-0.284,0.116-0.381,0.208
			c-0.096,0.096-0.145,0.225-0.145,0.389c0,0.186,0.057,0.326,0.168,0.418c0.112,0.095,0.283,0.143,0.514,0.143
			c0.193,0,0.365-0.038,0.526-0.112C88.405,57.494,88.553,57.404,88.687,57.3z"/>
		<path fill="#A9ABA8" d="M90.938,58.095h-0.693V57.27h0.693V58.095z"/>
	</g>
	<g>
		<path fill="#A9ABA8" d="M6.309,96.508c0,1.358-1.102,2.459-2.459,2.459l0,0c-1.358,0-2.459-1.101-2.459-2.459V73.2
			c0-1.358,1.101-2.459,2.459-2.459l0,0c1.357,0,2.459,1.101,2.459,2.459V96.508z"/>
		<path fill="#A9ABA8" d="M12.324,96.508c0,1.358-1.101,2.459-2.459,2.459l0,0c-1.357,0-2.459-1.101-2.459-2.459V73.2
			c0-1.358,1.102-2.459,2.459-2.459l0,0c1.358,0,2.459,1.101,2.459,2.459V96.508z"/>
		<path fill="#A9ABA8" d="M18.341,96.508c0,1.358-1.101,2.459-2.459,2.459l0,0c-1.358,0-2.459-1.101-2.459-2.459V73.2
			c0-1.358,1.101-2.459,2.459-2.459l0,0c1.358,0,2.459,1.101,2.459,2.459V96.508z"/>
		<path fill="#A9ABA8" d="M24.357,96.508c0,1.358-1.101,2.459-2.459,2.459l0,0c-1.358,0-2.459-1.101-2.459-2.459V73.2
			c0-1.358,1.101-2.459,2.459-2.459l0,0c1.358,0,2.459,1.101,2.459,2.459V96.508z"/>
		<path fill="#A9ABA8" d="M30.374,96.508c0,1.358-1.101,2.459-2.459,2.459l0,0c-1.358,0-2.459-1.101-2.459-2.459V73.2
			c0-1.358,1.101-2.459,2.459-2.459l0,0c1.358,0,2.459,1.101,2.459,2.459V96.508z"/>
		<path fill="#A9ABA8" d="M36.391,96.508c0,1.358-1.102,2.459-2.459,2.459l0,0c-1.358,0-2.459-1.101-2.459-2.459V73.2
			c0-1.358,1.101-2.459,2.459-2.459l0,0c1.357,0,2.459,1.101,2.459,2.459V96.508z"/>
		<path fill="#A9ABA8" d="M42.406,96.508c0,1.358-1.102,2.459-2.459,2.459l0,0c-1.358,0-2.459-1.101-2.459-2.459V73.2
			c0-1.358,1.101-2.459,2.459-2.459l0,0c1.357,0,2.459,1.101,2.459,2.459V96.508z"/>
		<path fill="#A9ABA8" d="M48.422,96.508c0,1.358-1.101,2.459-2.459,2.459l0,0c-1.357,0-2.459-1.101-2.459-2.459V73.2
			c0-1.358,1.102-2.459,2.459-2.459l0,0c1.358,0,2.459,1.101,2.459,2.459V96.508z"/>
		<path fill="#A9ABA8" d="M54.439,96.508c0,1.358-1.102,2.459-2.459,2.459l0,0c-1.358,0-2.46-1.101-2.46-2.459V73.2
			c0-1.358,1.102-2.459,2.46-2.459l0,0c1.357,0,2.459,1.101,2.459,2.459V96.508z"/>
		<path fill="#A9ABA8" d="M60.455,96.508c0,1.358-1.101,2.459-2.459,2.459l0,0c-1.357,0-2.459-1.101-2.459-2.459V73.2
			c0-1.358,1.102-2.459,2.459-2.459l0,0c1.358,0,2.459,1.101,2.459,2.459V96.508z"/>
		<path fill="#A9ABA8" d="M66.472,96.508c0,1.358-1.101,2.459-2.459,2.459l0,0c-1.358,0-2.459-1.101-2.459-2.459V73.2
			c0-1.358,1.101-2.459,2.459-2.459l0,0c1.358,0,2.459,1.101,2.459,2.459V96.508z"/>
		<path fill="#A9ABA8" d="M72.488,96.508c0,1.358-1.101,2.459-2.459,2.459l0,0c-1.358,0-2.459-1.101-2.459-2.459V73.2
			c0-1.358,1.101-2.459,2.459-2.459l0,0c1.358,0,2.459,1.101,2.459,2.459V96.508z"/>
		<g>
			<g>
				<circle fill="#A9ABA8" cx="3.849" cy="95.546" r="3.849"/>
				<circle fill="#585954" cx="3.849" cy="95.546" r="2.317"/>
				<path fill="#A9ABA8" d="M4.848,106.415c0,0.551-0.447,0.998-0.998,0.998l0,0c-0.552,0-0.998-0.447-0.998-0.998v-6.842
					c0-0.552,0.446-0.998,0.998-0.998l0,0c0.551,0,0.998,0.446,0.998,0.998V106.415z"/>
			</g>
			<g>
				<circle fill="#A9ABA8" cx="15.882" cy="95.546" r="3.849"/>
				<circle fill="#585954" cx="15.882" cy="95.546" r="2.317"/>
				<path fill="#A9ABA8" d="M16.88,106.415c0,0.551-0.446,0.998-0.998,0.998l0,0c-0.551,0-0.998-0.447-0.998-0.998v-6.842
					c0-0.552,0.447-0.998,0.998-0.998l0,0c0.552,0,0.998,0.446,0.998,0.998V106.415z"/>
			</g>
			<g>
				<circle fill="#A9ABA8" cx="27.915" cy="95.546" r="3.849"/>
				<circle fill="#585954" cx="27.915" cy="95.546" r="2.317"/>
				<path fill="#A9ABA8" d="M28.913,106.415c0,0.551-0.446,0.998-0.998,0.998l0,0c-0.552,0-0.998-0.447-0.998-0.998v-6.842
					c0-0.552,0.446-0.998,0.998-0.998l0,0c0.552,0,0.998,0.446,0.998,0.998V106.415z"/>
			</g>
			<g>
				<circle fill="#A9ABA8" cx="39.947" cy="95.546" r="3.849"/>
				<circle fill="#585954" cx="39.947" cy="95.546" r="2.317"/>
				<path fill="#A9ABA8" d="M40.945,106.415c0,0.551-0.447,0.998-0.998,0.998l0,0c-0.552,0-0.998-0.447-0.998-0.998v-6.842
					c0-0.552,0.446-0.998,0.998-0.998l0,0c0.551,0,0.998,0.446,0.998,0.998V106.415z"/>
			</g>
			<g>
				<circle fill="#A9ABA8" cx="51.98" cy="95.546" r="3.849"/>
				<circle fill="#585954" cx="51.98" cy="95.546" r="2.317"/>
				<path fill="#A9ABA8" d="M52.979,106.415c0,0.551-0.447,0.998-0.998,0.998l0,0c-0.552,0-0.999-0.447-0.999-0.998v-6.842
					c0-0.552,0.447-0.998,0.999-0.998l0,0c0.551,0,0.998,0.446,0.998,0.998V106.415z"/>
			</g>
			<g>
				<circle fill="#A9ABA8" cx="64.013" cy="95.546" r="3.849"/>
				<circle fill="#585954" cx="64.013" cy="95.546" r="2.317"/>
				<path fill="#A9ABA8" d="M65.011,106.415c0,0.551-0.446,0.998-0.998,0.998l0,0c-0.552,0-0.998-0.447-0.998-0.998v-6.842
					c0-0.552,0.446-0.998,0.998-0.998l0,0c0.552,0,0.998,0.446,0.998,0.998V106.415z"/>
			</g>
		</g>
		<g>
			<g>
				<circle fill="#A9ABA8" cx="70.321" cy="74.75" r="3.849"/>
				<circle fill="#585954" cx="70.321" cy="74.75" r="2.317"/>
				<path fill="#A9ABA8" d="M69.322,63.881c0-0.551,0.447-0.998,0.998-0.998l0,0c0.552,0,0.998,0.447,0.998,0.998v6.842
					c0,0.552-0.446,0.998-0.998,0.998l0,0c-0.551,0-0.998-0.446-0.998-0.998V63.881z"/>
			</g>
			<g>
				<circle fill="#A9ABA8" cx="58.288" cy="74.75" r="3.849"/>
				<circle fill="#585954" cx="58.288" cy="74.75" r="2.317"/>
				<path fill="#A9ABA8" d="M57.29,63.881c0-0.551,0.446-0.998,0.998-0.998l0,0c0.551,0,0.998,0.447,0.998,0.998v6.842
					c0,0.552-0.447,0.998-0.998,0.998l0,0c-0.552,0-0.998-0.446-0.998-0.998V63.881z"/>
			</g>
			<g>
				<circle fill="#A9ABA8" cx="46.255" cy="74.75" r="3.849"/>
				<circle fill="#585954" cx="46.255" cy="74.75" r="2.317"/>
				<path fill="#A9ABA8" d="M45.257,63.881c0-0.551,0.446-0.998,0.998-0.998l0,0c0.552,0,0.998,0.447,0.998,0.998v6.842
					c0,0.552-0.446,0.998-0.998,0.998l0,0c-0.552,0-0.998-0.446-0.998-0.998V63.881z"/>
			</g>
			<g>
				<circle fill="#A9ABA8" cx="34.223" cy="74.75" r="3.849"/>
				<circle fill="#585954" cx="34.223" cy="74.75" r="2.317"/>
				<path fill="#A9ABA8" d="M33.225,63.881c0-0.551,0.447-0.998,0.998-0.998l0,0c0.552,0,0.998,0.447,0.998,0.998v6.842
					c0,0.552-0.446,0.998-0.998,0.998l0,0c-0.551,0-0.998-0.446-0.998-0.998V63.881z"/>
			</g>
			<g>
				<circle fill="#A9ABA8" cx="22.19" cy="74.75" r="3.849"/>
				<circle fill="#585954" cx="22.19" cy="74.75" r="2.317"/>
				<path fill="#A9ABA8" d="M21.191,63.881c0-0.551,0.447-0.998,0.998-0.998l0,0c0.552,0,0.999,0.447,0.999,0.998v6.842
					c0,0.552-0.447,0.998-0.999,0.998l0,0c-0.551,0-0.998-0.446-0.998-0.998V63.881z"/>
			</g>
			<g>
				<circle fill="#A9ABA8" cx="10.157" cy="74.75" r="3.849"/>
				<circle fill="#585954" cx="10.157" cy="74.75" r="2.317"/>
				<path fill="#A9ABA8" d="M9.159,63.881c0-0.551,0.446-0.998,0.998-0.998l0,0c0.552,0,0.998,0.447,0.998,0.998v6.842
					c0,0.552-0.446,0.998-0.998,0.998l0,0c-0.552,0-0.998-0.446-0.998-0.998V63.881z"/>
			</g>
		</g>
	</g>
	<g>
		<path fill="#A9ABA8" d="M80.478,96.508c0,1.358-1.101,2.459-2.459,2.459l0,0c-1.358,0-2.459-1.101-2.459-2.459V73.2
			c0-1.358,1.101-2.459,2.459-2.459l0,0c1.358,0,2.459,1.101,2.459,2.459V96.508z"/>
		<path fill="#A9ABA8" d="M86.494,96.508c0,1.358-1.102,2.459-2.459,2.459l0,0c-1.358,0-2.459-1.101-2.459-2.459V73.2
			c0-1.358,1.101-2.459,2.459-2.459l0,0c1.357,0,2.459,1.101,2.459,2.459V96.508z"/>
		<path fill="#A9ABA8" d="M92.511,96.508c0,1.358-1.101,2.459-2.459,2.459l0,0c-1.358,0-2.459-1.101-2.459-2.459V73.2
			c0-1.358,1.101-2.459,2.459-2.459l0,0c1.358,0,2.459,1.101,2.459,2.459V96.508z"/>
		<path fill="#A9ABA8" d="M98.527,96.508c0,1.358-1.102,2.459-2.459,2.459l0,0c-1.358,0-2.459-1.101-2.459-2.459V73.2
			c0-1.358,1.101-2.459,2.459-2.459l0,0c1.357,0,2.459,1.101,2.459,2.459V96.508z"/>
		<path fill="#A9ABA8" d="M104.543,96.508c0,1.358-1.101,2.459-2.459,2.459l0,0c-1.357,0-2.459-1.101-2.459-2.459V73.2
			c0-1.358,1.102-2.459,2.459-2.459l0,0c1.358,0,2.459,1.101,2.459,2.459V96.508z"/>
		<path fill="#A9ABA8" d="M110.56,96.508c0,1.358-1.101,2.459-2.459,2.459l0,0c-1.358,0-2.459-1.101-2.459-2.459V73.2
			c0-1.358,1.101-2.459,2.459-2.459l0,0c1.358,0,2.459,1.101,2.459,2.459V96.508z"/>
		<path fill="#A9ABA8" d="M116.575,96.508c0,1.358-1.101,2.459-2.459,2.459l0,0c-1.358,0-2.459-1.101-2.459-2.459V73.2
			c0-1.358,1.101-2.459,2.459-2.459l0,0c1.358,0,2.459,1.101,2.459,2.459V96.508z"/>
		<path fill="#A9ABA8" d="M122.592,96.508c0,1.358-1.101,2.459-2.459,2.459l0,0c-1.358,0-2.459-1.101-2.459-2.459V73.2
			c0-1.358,1.101-2.459,2.459-2.459l0,0c1.358,0,2.459,1.101,2.459,2.459V96.508z"/>
		<path fill="#A9ABA8" d="M128.608,96.508c0,1.358-1.101,2.459-2.459,2.459l0,0c-1.358,0-2.459-1.101-2.459-2.459V73.2
			c0-1.358,1.101-2.459,2.459-2.459l0,0c1.358,0,2.459,1.101,2.459,2.459V96.508z"/>
		<path fill="#A9ABA8" d="M134.625,96.508c0,1.358-1.102,2.459-2.459,2.459l0,0c-1.358,0-2.459-1.101-2.459-2.459V73.2
			c0-1.358,1.101-2.459,2.459-2.459l0,0c1.357,0,2.459,1.101,2.459,2.459V96.508z"/>
		<path fill="#A9ABA8" d="M140.642,96.508c0,1.358-1.102,2.459-2.46,2.459l0,0c-1.357,0-2.459-1.101-2.459-2.459V73.2
			c0-1.358,1.102-2.459,2.459-2.459l0,0c1.358,0,2.46,1.101,2.46,2.459V96.508z"/>
		<path fill="#A9ABA8" d="M146.658,96.508c0,1.358-1.102,2.459-2.459,2.459l0,0c-1.358,0-2.459-1.101-2.459-2.459V73.2
			c0-1.358,1.101-2.459,2.459-2.459l0,0c1.357,0,2.459,1.101,2.459,2.459V96.508z"/>
		<g>
			<g>
				<circle fill="#A9ABA8" cx="78.019" cy="95.546" r="3.849"/>
				<circle fill="#585954" cx="78.019" cy="95.546" r="2.317"/>
				<path fill="#A9ABA8" d="M79.017,106.415c0,0.551-0.446,0.998-0.998,0.998l0,0c-0.552,0-0.998-0.447-0.998-0.998v-6.842
					c0-0.552,0.446-0.998,0.998-0.998l0,0c0.552,0,0.998,0.446,0.998,0.998V106.415z"/>
			</g>
			<g>
				<circle fill="#A9ABA8" cx="90.052" cy="95.546" r="3.849"/>
				<circle fill="#585954" cx="90.051" cy="95.546" r="2.317"/>
				<path fill="#A9ABA8" d="M91.05,106.415c0,0.551-0.447,0.998-0.998,0.998l0,0c-0.552,0-0.999-0.447-0.999-0.998v-6.842
					c0-0.552,0.447-0.998,0.999-0.998l0,0c0.551,0,0.998,0.446,0.998,0.998V106.415z"/>
			</g>
			<g>
				<circle fill="#A9ABA8" cx="102.084" cy="95.546" r="3.849"/>
				<circle fill="#585954" cx="102.084" cy="95.546" r="2.317"/>
				<path fill="#A9ABA8" d="M103.082,106.415c0,0.551-0.446,0.998-0.998,0.998l0,0c-0.551,0-0.998-0.447-0.998-0.998v-6.842
					c0-0.552,0.447-0.998,0.998-0.998l0,0c0.552,0,0.998,0.446,0.998,0.998V106.415z"/>
			</g>
			<g>
				<circle fill="#A9ABA8" cx="114.116" cy="95.546" r="3.849"/>
				<circle fill="#585954" cx="114.116" cy="95.546" r="2.317"/>
				<path fill="#A9ABA8" d="M115.114,106.415c0,0.551-0.446,0.998-0.998,0.998l0,0c-0.551,0-0.998-0.447-0.998-0.998v-6.842
					c0-0.552,0.447-0.998,0.998-0.998l0,0c0.552,0,0.998,0.446,0.998,0.998V106.415z"/>
			</g>
			<g>
				<circle fill="#A9ABA8" cx="126.149" cy="95.546" r="3.849"/>
				<circle fill="#585954" cx="126.149" cy="95.546" r="2.317"/>
				<path fill="#A9ABA8" d="M127.147,106.415c0,0.551-0.446,0.998-0.998,0.998l0,0c-0.552,0-0.998-0.447-0.998-0.998v-6.842
					c0-0.552,0.446-0.998,0.998-0.998l0,0c0.552,0,0.998,0.446,0.998,0.998V106.415z"/>
			</g>
			<g>
				<circle fill="#A9ABA8" cx="138.182" cy="95.546" r="3.849"/>
				<circle fill="#585954" cx="138.182" cy="95.546" r="2.317"/>
				<path fill="#A9ABA8" d="M139.181,106.415c0,0.551-0.447,0.998-0.999,0.998l0,0c-0.551,0-0.998-0.447-0.998-0.998v-6.842
					c0-0.552,0.447-0.998,0.998-0.998l0,0c0.552,0,0.999,0.446,0.999,0.998V106.415z"/>
			</g>
		</g>
		<g>
			<g>
				<circle fill="#A9ABA8" cx="144.49" cy="74.75" r="3.849"/>
				<circle fill="#585954" cx="144.49" cy="74.75" r="2.317"/>
				<path fill="#A9ABA8" d="M143.492,63.881c0-0.551,0.447-0.998,0.998-0.998l0,0c0.551,0,0.998,0.447,0.998,0.998v6.842
					c0,0.552-0.447,0.998-0.998,0.998l0,0c-0.551,0-0.998-0.446-0.998-0.998V63.881z"/>
			</g>
			<g>
				<circle fill="#A9ABA8" cx="132.458" cy="74.75" r="3.849"/>
				<circle fill="#585954" cx="132.458" cy="74.75" r="2.317"/>
				<path fill="#A9ABA8" d="M131.459,63.881c0-0.551,0.447-0.998,0.998-0.998l0,0c0.552,0,0.998,0.447,0.998,0.998v6.842
					c0,0.552-0.446,0.998-0.998,0.998l0,0c-0.551,0-0.998-0.446-0.998-0.998V63.881z"/>
			</g>
			<g>
				<circle fill="#A9ABA8" cx="120.424" cy="74.75" r="3.849"/>
				<circle fill="#585954" cx="120.424" cy="74.75" r="2.317"/>
				<path fill="#A9ABA8" d="M119.426,63.881c0-0.551,0.447-0.998,0.998-0.998l0,0c0.552,0,0.999,0.447,0.999,0.998v6.842
					c0,0.552-0.447,0.998-0.999,0.998l0,0c-0.551,0-0.998-0.446-0.998-0.998V63.881z"/>
			</g>
			<g>
				<circle fill="#A9ABA8" cx="108.392" cy="74.75" r="3.849"/>
				<circle fill="#585954" cx="108.392" cy="74.75" r="2.317"/>
				<path fill="#A9ABA8" d="M107.395,63.881c0-0.551,0.446-0.998,0.998-0.998l0,0c0.551,0,0.998,0.447,0.998,0.998v6.842
					c0,0.552-0.447,0.998-0.998,0.998l0,0c-0.552,0-0.998-0.446-0.998-0.998V63.881z"/>
			</g>
			<g>
				<circle fill="#A9ABA8" cx="96.359" cy="74.75" r="3.849"/>
				<circle fill="#585954" cx="96.36" cy="74.75" r="2.317"/>
				<path fill="#A9ABA8" d="M95.361,63.881c0-0.551,0.447-0.998,0.998-0.998l0,0c0.551,0,0.998,0.447,0.998,0.998v6.842
					c0,0.552-0.447,0.998-0.998,0.998l0,0c-0.551,0-0.998-0.446-0.998-0.998V63.881z"/>
			</g>
			<g>
				<circle fill="#A9ABA8" cx="84.327" cy="74.75" r="3.849"/>
				<circle fill="#585954" cx="84.327" cy="74.75" r="2.317"/>
				<path fill="#A9ABA8" d="M83.328,63.881c0-0.551,0.447-0.998,0.998-0.998l0,0c0.552,0,0.998,0.447,0.998,0.998v6.842
					c0,0.552-0.446,0.998-0.998,0.998l0,0c-0.551,0-0.998-0.446-0.998-0.998V63.881z"/>
			</g>
		</g>
	</g>
	<g>
		<rect x="33.279" y="109.561" fill="#A9ABA8" width="17.131" height="12.209"/>
		<rect x="35.398" y="111.889" fill="#444443" width="7.389" height="7.553"/>
		<rect x="42.787" y="111.889" fill="#B5B7B5" width="2.27" height="7.553"/>
		<rect x="45.057" y="111.889" fill="#444443" width="3.535" height="7.553"/>
	</g>
	<g>
		<rect x="7.316" fill="#A9ABA8" width="34.48" height="18.577"/>
		<rect x="11.581" y="3.542" fill="#444443" width="14.871" height="11.492"/>
		<rect x="26.452" y="3.542" fill="#B5B7B5" width="4.57" height="11.492"/>
		<rect x="31.022" y="3.542" fill="#444443" width="7.112" height="11.492"/>
	</g>
	<g>
		<rect x="7.316" y="20.028" fill="#A9ABA8" width="34.48" height="18.577"/>
		<rect x="11.581" y="23.57" fill="#444443" width="14.871" height="11.492"/>
		<rect x="26.452" y="23.57" fill="#B5B7B5" width="4.57" height="11.492"/>
		<rect x="31.022" y="23.57" fill="#444443" width="7.112" height="11.492"/>
	</g>
	<g>
		<rect x="50.41" y="109.561" fill="#A9ABA8" width="17.132" height="12.209"/>
		<rect x="52.529" y="111.889" fill="#444443" width="7.389" height="7.553"/>
		<rect x="59.918" y="111.889" fill="#B5B7B5" width="2.27" height="7.553"/>
		<rect x="62.188" y="111.889" fill="#444443" width="3.535" height="7.553"/>
	</g>
	<g>
		<rect x="67.542" y="109.561" fill="#A9ABA8" width="17.13" height="12.209"/>
		<rect x="69.661" y="111.889" fill="#444443" width="7.389" height="7.553"/>
		<rect x="77.05" y="111.889" fill="#B5B7B5" width="2.27" height="7.553"/>
		<rect x="79.319" y="111.889" fill="#444443" width="3.534" height="7.553"/>
	</g>
	<g>
		<rect x="84.812" y="109.561" fill="#A9ABA8" width="17.132" height="12.209"/>
		<rect x="86.931" y="111.889" fill="#444443" width="7.39" height="7.553"/>
		<rect x="94.32" y="111.889" fill="#B5B7B5" width="2.269" height="7.553"/>
		<rect x="96.589" y="111.889" fill="#444443" width="3.535" height="7.553"/>
	</g>
	<g>
		<rect x="101.975" y="109.561" fill="#A9ABA8" width="17.132" height="12.209"/>
		<rect x="104.095" y="111.889" fill="#444443" width="7.389" height="7.553"/>
		<rect x="111.483" y="111.889" fill="#B5B7B5" width="2.27" height="7.553"/>
		<rect x="113.753" y="111.889" fill="#444443" width="3.535" height="7.553"/>
	</g>
	<g>
		<rect x="119.106" y="109.561" fill="#A9ABA8" width="17.132" height="12.209"/>
		<rect x="121.227" y="111.889" fill="#444443" width="7.388" height="7.553"/>
		<rect x="128.614" y="111.889" fill="#B5B7B5" width="2.271" height="7.553"/>
		<rect x="130.885" y="111.889" fill="#444443" width="3.535" height="7.553"/>
	</g>
	<g>
		<circle fill="#030000" cx="81.681" cy="9.354" r="4.522"/>
		<circle fill="#AEED4A" cx="81.68" cy="9.354" r="3.633"/>
		<rect x="79.984" y="7.254" opacity="0.5" fill="#FFFFFF" width="1.211" height="1.212"/>
		<rect x="79.984" y="7.254" opacity="0.5" fill="#FFFFFF" width="0.605" height="1.212"/>
	</g>
	<g>
		<circle fill="#030000" cx="98.563" cy="9.354" r="4.522"/>
		<circle fill="#AEED4A" cx="98.563" cy="9.354" r="3.633"/>
		<rect x="96.867" y="7.254" opacity="0.5" fill="#FFFFFF" width="1.211" height="1.212"/>
		<rect x="96.867" y="7.254" opacity="0.5" fill="#FFFFFF" width="0.604" height="1.212"/>
	</g>
	<g>
		<circle fill="#030000" cx="115.446" cy="9.354" r="4.522"/>
		<circle fill="#AEED4A" cx="115.446" cy="9.354" r="3.634"/>
		<rect x="113.75" y="7.254" opacity="0.5" fill="#FFFFFF" width="1.211" height="1.212"/>
		<rect x="113.75" y="7.254" opacity="0.5" fill="#FFFFFF" width="0.605" height="1.212"/>
	</g>
	<g>
		<circle fill="#030000" cx="132.329" cy="9.354" r="4.522"/>
		<circle fill="#AEED4A" cx="132.329" cy="9.354" r="3.633"/>
		<rect x="130.633" y="7.254" opacity="0.5" fill="#FFFFFF" width="1.211" height="1.212"/>
		<rect x="130.633" y="7.254" opacity="0.5" fill="#FFFFFF" width="0.605" height="1.212"/>
	</g>
	<path fill="#A9ABA8" d="M111.434,58.034c0,2.678-2.171,4.849-4.849,4.849h-10.51c-2.678,0-4.849-2.171-4.849-4.849v-3.123
		c0-2.678,2.171-4.849,4.849-4.849h10.51c2.678,0,4.849,2.17,4.849,4.849V58.034z"/>
	<path fill="#444443" d="M109.96,57.648c0,2.019-1.854,3.654-4.142,3.654h-8.977c-2.287,0-4.142-1.635-4.142-3.654v-2.352
		c0-2.018,1.854-3.653,4.142-3.653h8.977c2.287,0,4.142,1.636,4.142,3.653V57.648z"/>
	<path fill="#A9ABA8" d="M61.085,58.034c0,2.678-2.171,4.849-4.849,4.849h-10.51c-2.678,0-4.848-2.171-4.848-4.849v-3.123
		c0-2.678,2.17-4.849,4.848-4.849h10.51c2.678,0,4.849,2.17,4.849,4.849V58.034z"/>
	<path fill="#444443" d="M59.611,57.648c0,2.019-1.854,3.654-4.142,3.654h-8.976c-2.288,0-4.143-1.635-4.143-3.654v-2.352
		c0-2.018,1.854-3.653,4.143-3.653h8.976c2.288,0,4.142,1.636,4.142,3.653V57.648z"/>
	<path fill="#8F938F" d="M76.735,32.687c0,2.678-2.171,4.849-4.849,4.849H51.221c-2.678,0-4.849-2.17-4.849-4.849v-4.485
		c0-2.679,2.171-4.85,4.849-4.85h20.666c2.678,0,4.849,2.171,4.849,4.85V32.687z"/>
	<path fill="#373737" d="M75.123,32.275c0,2.187-1.94,3.959-4.334,3.959H52.318c-2.394,0-4.334-1.772-4.334-3.959v-3.663
		c0-2.187,1.94-3.959,4.334-3.959h18.471c2.394,0,4.334,1.772,4.334,3.959V32.275z"/>
	<rect x="63.072" y="24.653" fill="#8F938F" width="1.924" height="11.582"/>
	<rect x="52.318" y="24.653" fill="#8F938F" width="8.525" height="11.582"/>
	<path fill="#8F938F" d="M109.083,32.687c0,2.678-2.172,4.849-4.85,4.849H83.567c-2.678,0-4.848-2.17-4.848-4.849v-4.485
		c0-2.679,2.17-4.85,4.848-4.85h20.666c2.678,0,4.85,2.171,4.85,4.85V32.687z"/>
	<path fill="#373737" d="M107.469,32.275c0,2.187-1.939,3.959-4.333,3.959H84.665c-2.393,0-4.333-1.772-4.333-3.959v-3.663
		c0-2.187,1.94-3.959,4.333-3.959h18.471c2.394,0,4.333,1.772,4.333,3.959V32.275z"/>
	<rect x="95.42" y="24.653" fill="#8F938F" width="1.923" height="11.582"/>
	<rect x="84.665" y="24.653" fill="#8F938F" width="8.526" height="11.582"/>
	<path fill="#8F938F" d="M141.331,32.687c0,2.678-2.172,4.849-4.85,4.849h-20.666c-2.678,0-4.848-2.17-4.848-4.849v-4.485
		c0-2.679,2.17-4.85,4.848-4.85h20.666c2.678,0,4.85,2.171,4.85,4.85V32.687z"/>
	<path fill="#373737" d="M139.718,32.275c0,2.187-1.94,3.959-4.334,3.959h-18.471c-2.393,0-4.333-1.772-4.333-3.959v-3.663
		c0-2.187,1.94-3.959,4.333-3.959h18.471c2.394,0,4.334,1.772,4.334,3.959V32.275z"/>
	<rect x="127.668" y="24.653" fill="#8F938F" width="1.923" height="11.582"/>
	<rect x="116.913" y="24.653" fill="#8F938F" width="8.526" height="11.582"/>
</g>
</svg>
