<?xml version="1.0" encoding="utf-8"?>
<!-- Generator: Adobe Illustrator 16.0.0, SVG Export Plug-In . SVG Version: 6.00 Build 0)  -->
<!DOCTYPE svg PUBLIC "-//W3C//DTD SVG 1.1//EN" "http://www.w3.org/Graphics/SVG/1.1/DTD/svg11.dtd">
<svg version="1.1" id="图层_1" xmlns="http://www.w3.org/2000/svg" xmlns:xlink="http://www.w3.org/1999/xlink" x="0px" y="0px"
	 width="52.88px" height="55.489px" viewBox="0 0 52.88 55.489" enable-background="new 0 0 52.88 55.489" xml:space="preserve">
<g>
	<path fill="#050505" d="M15.61,3.776c0,1.339-1.085,2.425-2.425,2.425H2.426C1.086,6.201,0,5.115,0,3.776V2.425
		C0,1.086,1.086,0,2.426,0h10.76c1.34,0,2.425,1.086,2.425,2.425V3.776z"/>
	<path fill="#050505" d="M34.245,3.776c0,1.339-1.085,2.425-2.425,2.425h-10.76c-1.34,0-2.426-1.086-2.426-2.425V2.425
		C18.635,1.086,19.721,0,21.061,0h10.76c1.34,0,2.425,1.086,2.425,2.425V3.776z"/>
	<path fill="#050505" d="M52.88,3.776c0,1.339-1.085,2.425-2.425,2.425h-10.76c-1.34,0-2.425-1.086-2.425-2.425V2.425
		C37.271,1.086,38.355,0,39.695,0h10.76c1.34,0,2.425,1.086,2.425,2.425V3.776z"/>
	<path fill="#050505" d="M15.61,13.185c0,1.339-1.085,2.425-2.425,2.425H2.426C1.086,15.61,0,14.524,0,13.185v-1.352
		c0-1.339,1.086-2.425,2.426-2.425h10.76c1.34,0,2.425,1.086,2.425,2.425V13.185z"/>
	<path fill="#050505" d="M34.245,13.185c0,1.339-1.085,2.425-2.425,2.425h-10.76c-1.34,0-2.426-1.086-2.426-2.425v-1.352
		c0-1.339,1.086-2.425,2.426-2.425h10.76c1.34,0,2.425,1.086,2.425,2.425V13.185z"/>
	<path fill="#050505" d="M52.88,13.185c0,1.339-1.085,2.425-2.425,2.425h-10.76c-1.34,0-2.425-1.086-2.425-2.425v-1.352
		c0-1.339,1.085-2.425,2.425-2.425h10.76c1.34,0,2.425,1.086,2.425,2.425V13.185z"/>
	<path fill="#050505" d="M15.61,23.663c0,1.339-1.085,2.425-2.425,2.425H2.426C1.086,26.087,0,25.001,0,23.663v-1.352
		c0-1.339,1.086-2.425,2.426-2.425h10.76c1.34,0,2.425,1.086,2.425,2.425V23.663z"/>
	<path fill="#050505" d="M34.245,23.663c0,1.339-1.085,2.425-2.425,2.425h-10.76c-1.34,0-2.426-1.086-2.426-2.425v-1.352
		c0-1.339,1.086-2.425,2.426-2.425h10.76c1.34,0,2.425,1.086,2.425,2.425V23.663z"/>
	<path fill="#050505" d="M52.88,23.663c0,1.339-1.085,2.425-2.425,2.425h-10.76c-1.34,0-2.425-1.086-2.425-2.425v-1.352
		c0-1.339,1.085-2.425,2.425-2.425h10.76c1.34,0,2.425,1.086,2.425,2.425V23.663z"/>
	<path fill="#050505" d="M15.61,33.071c0,1.339-1.085,2.425-2.425,2.425H2.426C1.086,35.496,0,34.41,0,33.071v-1.352
		c0-1.339,1.086-2.425,2.426-2.425h10.76c1.34,0,2.425,1.086,2.425,2.425V33.071z"/>
	<path fill="#050505" d="M34.245,33.071c0,1.339-1.085,2.425-2.425,2.425h-10.76c-1.34,0-2.426-1.086-2.426-2.425v-1.352
		c0-1.339,1.086-2.425,2.426-2.425h10.76c1.34,0,2.425,1.086,2.425,2.425V33.071z"/>
	<path fill="#050505" d="M52.88,33.071c0,1.339-1.085,2.425-2.425,2.425h-10.76c-1.34,0-2.425-1.086-2.425-2.425v-1.352
		c0-1.339,1.085-2.425,2.425-2.425h10.76c1.34,0,2.425,1.086,2.425,2.425V33.071z"/>
	<path fill="#050505" d="M34.245,43.656c0,1.339-1.085,2.424-2.425,2.424h-10.76c-1.34,0-2.426-1.085-2.426-2.424v-1.352
		c0-1.339,1.086-2.425,2.426-2.425h10.76c1.34,0,2.425,1.086,2.425,2.425V43.656z"/>
	<path fill="#050505" d="M52.88,43.656c0,1.339-1.085,2.424-2.425,2.424h-10.76c-1.34,0-2.425-1.085-2.425-2.424v-1.352
		c0-1.339,1.085-2.425,2.425-2.425h10.76c1.34,0,2.425,1.086,2.425,2.425V43.656z"/>
	<path fill="#050505" d="M34.245,53.064c0,1.339-1.085,2.425-2.425,2.425h-10.76c-1.34,0-2.426-1.086-2.426-2.425v-1.352
		c0-1.339,1.086-2.425,2.426-2.425h10.76c1.34,0,2.425,1.086,2.425,2.425V53.064z"/>
	<path fill="#050505" d="M52.88,53.064c0,1.339-1.085,2.425-2.425,2.425h-10.76c-1.34,0-2.425-1.086-2.425-2.425v-1.352
		c0-1.339,1.085-2.425,2.425-2.425h10.76c1.34,0,2.425,1.086,2.425,2.425V53.064z"/>
</g>
<g>
	<rect x="-76.863" y="38.168" fill="#2A292B" width="77.299" height="12.509"/>
</g>
</svg>
