<?xml version="1.0" encoding="utf-8"?>
<!-- Generator: Adobe Illustrator 16.0.0, SVG Export Plug-In . SVG Version: 6.00 Build 0)  -->
<!DOCTYPE svg PUBLIC "-//W3C//DTD SVG 1.1//EN" "http://www.w3.org/Graphics/SVG/1.1/DTD/svg11.dtd">
<svg version="1.1" id="图层_1" xmlns="http://www.w3.org/2000/svg" xmlns:xlink="http://www.w3.org/1999/xlink" x="0px" y="0px"
	 width="479.12px" height="6.201px" viewBox="0 0 479.12 6.201" enable-background="new 0 0 479.12 6.201" xml:space="preserve">
<g>
	<path fill="#050505" d="M15.61,3.776c0,1.339-1.086,2.425-2.426,2.425H2.425C1.085,6.201,0,5.115,0,3.776V2.425
		C0,1.086,1.085,0,2.425,0h10.76c1.34,0,2.426,1.086,2.426,2.425V3.776z"/>
	<path fill="#050505" d="M34.15,3.776c0,1.339-1.086,2.425-2.424,2.425H20.965c-1.339,0-2.425-1.086-2.425-2.425V2.425
		C18.54,1.086,19.626,0,20.965,0h10.762c1.338,0,2.424,1.086,2.424,2.425V3.776z"/>
	<path fill="#050505" d="M52.69,3.776c0,1.339-1.085,2.425-2.425,2.425h-10.76c-1.34,0-2.425-1.086-2.425-2.425V2.425
		C37.081,1.086,38.166,0,39.506,0h10.76c1.34,0,2.425,1.086,2.425,2.425V3.776z"/>
	<path fill="#050505" d="M71.231,3.776c0,1.339-1.086,2.425-2.425,2.425H58.046c-1.34,0-2.424-1.086-2.424-2.425V2.425
		C55.622,1.086,56.706,0,58.046,0h10.761c1.339,0,2.425,1.086,2.425,2.425V3.776z"/>
	<path fill="#050505" d="M89.771,3.776c0,1.339-1.085,2.425-2.424,2.425H76.586c-1.339,0-2.425-1.086-2.425-2.425V2.425
		C74.161,1.086,75.247,0,76.586,0h10.761c1.339,0,2.424,1.086,2.424,2.425V3.776z"/>
	<path fill="#050505" d="M108.312,3.776c0,1.339-1.085,2.425-2.424,2.425H95.126c-1.338,0-2.424-1.086-2.424-2.425V2.425
		C92.702,1.086,93.788,0,95.126,0h10.762c1.339,0,2.424,1.086,2.424,2.425V3.776z"/>
	<path fill="#050505" d="M126.852,3.776c0,1.339-1.085,2.425-2.424,2.425h-10.761c-1.339,0-2.425-1.086-2.425-2.425V2.425
		c0-1.339,1.086-2.425,2.425-2.425h10.761c1.339,0,2.424,1.086,2.424,2.425V3.776z"/>
	<path fill="#050505" d="M145.394,3.776c0,1.339-1.086,2.425-2.426,2.425h-10.76c-1.34,0-2.425-1.086-2.425-2.425V2.425
		c0-1.339,1.085-2.425,2.425-2.425h10.76c1.34,0,2.426,1.086,2.426,2.425V3.776z"/>
	<path fill="#050505" d="M163.933,3.776c0,1.339-1.085,2.425-2.424,2.425h-10.761c-1.339,0-2.425-1.086-2.425-2.425V2.425
		c0-1.339,1.086-2.425,2.425-2.425h10.761c1.339,0,2.424,1.086,2.424,2.425V3.776z"/>
	<path fill="#050505" d="M182.474,3.776c0,1.339-1.086,2.425-2.424,2.425h-10.762c-1.339,0-2.424-1.086-2.424-2.425V2.425
		c0-1.339,1.085-2.425,2.424-2.425h10.762c1.338,0,2.424,1.086,2.424,2.425V3.776z"/>
	<path fill="#050505" d="M201.014,3.776c0,1.339-1.086,2.425-2.424,2.425h-10.762c-1.338,0-2.424-1.086-2.424-2.425V2.425
		c0-1.339,1.086-2.425,2.424-2.425h10.762c1.338,0,2.424,1.086,2.424,2.425V3.776z"/>
	<path fill="#050505" d="M219.554,3.776c0,1.339-1.084,2.425-2.424,2.425h-10.761c-1.34,0-2.425-1.086-2.425-2.425V2.425
		c0-1.339,1.085-2.425,2.425-2.425h10.761c1.34,0,2.424,1.086,2.424,2.425V3.776z"/>
	<path fill="#050505" d="M238.095,3.776c0,1.339-1.086,2.425-2.424,2.425h-10.762c-1.338,0-2.424-1.086-2.424-2.425V2.425
		c0-1.339,1.086-2.425,2.424-2.425h10.762c1.338,0,2.424,1.086,2.424,2.425V3.776z"/>
	<path fill="#050505" d="M256.635,3.776c0,1.339-1.085,2.425-2.425,2.425h-10.76c-1.34,0-2.425-1.086-2.425-2.425V2.425
		c0-1.339,1.085-2.425,2.425-2.425h10.76c1.34,0,2.425,1.086,2.425,2.425V3.776z"/>
	<path fill="#050505" d="M275.176,3.776c0,1.339-1.086,2.425-2.424,2.425H261.99c-1.339,0-2.424-1.086-2.424-2.425V2.425
		c0-1.339,1.085-2.425,2.424-2.425h10.762c1.338,0,2.424,1.086,2.424,2.425V3.776z"/>
	<path fill="#050505" d="M293.716,3.776c0,1.339-1.085,2.425-2.425,2.425h-10.76c-1.34,0-2.425-1.086-2.425-2.425V2.425
		c0-1.339,1.085-2.425,2.425-2.425h10.76c1.34,0,2.425,1.086,2.425,2.425V3.776z"/>
	<path fill="#050505" d="M312.257,3.776c0,1.339-1.086,2.425-2.425,2.425h-10.761c-1.339,0-2.424-1.086-2.424-2.425V2.425
		c0-1.339,1.085-2.425,2.424-2.425h10.761c1.339,0,2.425,1.086,2.425,2.425V3.776z"/>
	<path fill="#050505" d="M330.796,3.776c0,1.339-1.085,2.425-2.424,2.425h-10.761c-1.339,0-2.425-1.086-2.425-2.425V2.425
		c0-1.339,1.086-2.425,2.425-2.425h10.761c1.339,0,2.424,1.086,2.424,2.425V3.776z"/>
	<path fill="#050505" d="M349.337,3.776c0,1.339-1.085,2.425-2.424,2.425h-10.762c-1.338,0-2.424-1.086-2.424-2.425V2.425
		c0-1.339,1.086-2.425,2.424-2.425h10.762c1.339,0,2.424,1.086,2.424,2.425V3.776z"/>
	<path fill="#050505" d="M386.419,3.776c0,1.339-1.086,2.425-2.426,2.425h-10.76c-1.34,0-2.425-1.086-2.425-2.425V2.425
		c0-1.339,1.085-2.425,2.425-2.425h10.76c1.34,0,2.426,1.086,2.426,2.425V3.776z"/>
	<path fill="#050505" d="M404.958,3.776c0,1.339-1.085,2.425-2.424,2.425h-10.761c-1.339,0-2.425-1.086-2.425-2.425V2.425
		c0-1.339,1.086-2.425,2.425-2.425h10.761c1.339,0,2.424,1.086,2.424,2.425V3.776z"/>
	<path fill="#050505" d="M423.499,3.776c0,1.339-1.086,2.425-2.424,2.425h-10.762c-1.339,0-2.424-1.086-2.424-2.425V2.425
		c0-1.339,1.085-2.425,2.424-2.425h10.762c1.338,0,2.424,1.086,2.424,2.425V3.776z"/>
	<path fill="#050505" d="M442.039,3.776c0,1.339-1.086,2.425-2.424,2.425h-10.762c-1.338,0-2.424-1.086-2.424-2.425V2.425
		c0-1.339,1.086-2.425,2.424-2.425h10.762c1.338,0,2.424,1.086,2.424,2.425V3.776z"/>
	<path fill="#050505" d="M460.579,3.776c0,1.339-1.084,2.425-2.424,2.425h-10.761c-1.34,0-2.425-1.086-2.425-2.425V2.425
		c0-1.339,1.085-2.425,2.425-2.425h10.761c1.34,0,2.424,1.086,2.424,2.425V3.776z"/>
	<path fill="#050505" d="M479.12,3.776c0,1.339-1.086,2.425-2.424,2.425h-10.762c-1.338,0-2.424-1.086-2.424-2.425V2.425
		c0-1.339,1.086-2.425,2.424-2.425h10.762c1.338,0,2.424,1.086,2.424,2.425V3.776z"/>
	<path fill="#050505" d="M367.877,3.776c0,1.339-1.085,2.425-2.424,2.425h-10.761c-1.339,0-2.425-1.086-2.425-2.425V2.425
		c0-1.339,1.086-2.425,2.425-2.425h10.761c1.339,0,2.424,1.086,2.424,2.425V3.776z"/>
</g>
</svg>
