<?xml version="1.0" encoding="utf-8"?>
<!-- Generator: Adobe Illustrator 16.0.0, SVG Export Plug-In . SVG Version: 6.00 Build 0)  -->
<!DOCTYPE svg PUBLIC "-//W3C//DTD SVG 1.1//EN" "http://www.w3.org/Graphics/SVG/1.1/DTD/svg11.dtd">
<svg version="1.1" id="图层_1" xmlns="http://www.w3.org/2000/svg" xmlns:xlink="http://www.w3.org/1999/xlink" x="0px" y="0px"
	 width="20.31px" height="8.81px" viewBox="0 0 20.31 8.81" enable-background="new 0 0 20.31 8.81" xml:space="preserve">
<g>
	<rect fill="#161718" width="1" height="8.832"/>
</g>
<g>
	<rect x="19.31" fill="#161718" width="1" height="8.832"/>
</g>
<g>
	<path fill="#161718" d="M15.209,8.249H4.864c-1.276,0-2.314-1.119-2.314-2.495V2.697c0-1.376,1.038-2.495,2.314-2.495h10.345
		c1.277,0,2.317,1.119,2.317,2.495v3.057C17.526,7.13,16.486,8.249,15.209,8.249z M4.864,1.202c-0.725,0-1.314,0.671-1.314,1.495
		v3.057c0,0.824,0.589,1.495,1.314,1.495h10.345c0.727,0,1.317-0.671,1.317-1.495V2.697c0-0.824-0.591-1.495-1.317-1.495H4.864z"/>
</g>
</svg>
