<?xml version="1.0" encoding="utf-8"?>
<!-- Generator: Adobe Illustrator 16.0.0, SVG Export Plug-In . SVG Version: 6.00 Build 0)  -->
<!DOCTYPE svg PUBLIC "-//W3C//DTD SVG 1.1//EN" "http://www.w3.org/Graphics/SVG/1.1/DTD/svg11.dtd">
<svg version="1.1" id="图层_1" xmlns="http://www.w3.org/2000/svg" xmlns:xlink="http://www.w3.org/1999/xlink" x="0px" y="0px"
	 width="1275.59px" height="252.02px" viewBox="0 0 1275.59 252.02" enable-background="new 0 0 1275.59 252.02"
	 xml:space="preserve">
<rect x="0.75" y="1.016" fill="#1D1D1D" width="1275.592" height="252"/>
<rect y="1.016" fill="#494949" width="61.689" height="252"/>
<linearGradient id="SVGID_1_" gradientUnits="userSpaceOnUse" x1="30.8447" y1="133.0566" x2="30.8447" y2="243.6863">
	<stop  offset="0" style="stop-color:#4E5057"/>
	<stop  offset="0.0394" style="stop-color:#7B7D85"/>
	<stop  offset="0.0985" style="stop-color:#323339"/>
	<stop  offset="0.2857" style="stop-color:#48484E"/>
	<stop  offset="0.399" style="stop-color:#494949"/>
	<stop  offset="1" style="stop-color:#494949"/>
</linearGradient>
<path fill="url(#SVGID_1_)" stroke="#1C1D20" stroke-width="2" stroke-miterlimit="10" d="M56.792,246.38
	c0,1.148-1,2.079-2.232,2.079H7.129c-1.232,0-2.231-0.931-2.231-2.079V134.095c0-1.148,0.999-2.079,2.231-2.079H54.56
	c1.232,0,2.232,0.931,2.232,2.079V246.38z"/>
<path fill="#494949" stroke="#1C1D20" stroke-width="2" stroke-miterlimit="10" d="M56.792,124.855c0,1.193-1,2.16-2.232,2.16H7.129
	c-1.232,0-2.231-0.967-2.231-2.16V8.176c0-1.193,0.999-2.16,2.231-2.16H54.56c1.232,0,2.232,0.967,2.232,2.16V124.855z"/>
<rect x="1213.902" y="1.016" fill="#494949" width="61.689" height="252"/>
<linearGradient id="SVGID_2_" gradientUnits="userSpaceOnUse" x1="1244.7471" y1="133.0566" x2="1244.7471" y2="243.6863">
	<stop  offset="0" style="stop-color:#4E5057"/>
	<stop  offset="0.0394" style="stop-color:#7B7D85"/>
	<stop  offset="0.0985" style="stop-color:#323339"/>
	<stop  offset="0.2857" style="stop-color:#48484E"/>
	<stop  offset="0.399" style="stop-color:#494949"/>
	<stop  offset="1" style="stop-color:#494949"/>
</linearGradient>
<path fill="url(#SVGID_2_)" stroke="#1C1D20" stroke-width="2" stroke-miterlimit="10" d="M1270.694,246.38
	c0,1.148-1,2.079-2.232,2.079h-47.431c-1.232,0-2.231-0.931-2.231-2.079V134.095c0-1.148,0.999-2.079,2.231-2.079h47.431
	c1.232,0,2.232,0.931,2.232,2.079V246.38z"/>
<path fill="#494949" stroke="#1C1D20" stroke-width="2" stroke-miterlimit="10" d="M1270.694,124.855c0,1.193-1,2.16-2.232,2.16
	h-47.431c-1.232,0-2.231-0.967-2.231-2.16V8.176c0-1.193,0.999-2.16,2.231-2.16h47.431c1.232,0,2.232,0.967,2.232,2.16V124.855z"/>
<rect x="61.689" y="0.992" fill="#444344" width="1152.213" height="10.046"/>
<rect x="61.689" y="242.97" fill="#444344" width="1152.213" height="10.046"/>
</svg>
