<?xml version="1.0" encoding="utf-8"?>
<!-- Generator: Adobe Illustrator 16.0.0, SVG Export Plug-In . SVG Version: 6.00 Build 0)  -->
<!DOCTYPE svg PUBLIC "-//W3C//DTD SVG 1.1//EN" "http://www.w3.org/Graphics/SVG/1.1/DTD/svg11.dtd">
<svg version="1.1" id="图层_1" xmlns="http://www.w3.org/2000/svg" xmlns:xlink="http://www.w3.org/1999/xlink" x="0px" y="0px"
	 width="1275.59px" height="126.14px" viewBox="0 0 1275.59 126.14" enable-background="new 0 0 1275.59 126.14"
	 xml:space="preserve">
<rect x="1.107" fill="#040000" width="1275.592" height="126.141"/>
<rect x="1189.013" y="123.423" fill="#68686A" width="15.587" height="1.267"/>
<rect x="1.619" y="1.391" fill="#777A82" stroke="#1C1D20" stroke-miterlimit="10" width="55.167" height="124.166"/>
<rect x="1219.785" y="1.391" fill="#777A82" stroke="#1C1D20" stroke-miterlimit="10" width="56.354" height="124.166"/>
<linearGradient id="SVGID_1_" gradientUnits="userSpaceOnUse" x1="29.2026" y1="13.4746" x2="29.2026" y2="119.8832">
	<stop  offset="0" style="stop-color:#4E5057"/>
	<stop  offset="0.0394" style="stop-color:#7B7D85"/>
	<stop  offset="0.0985" style="stop-color:#323339"/>
	<stop  offset="0.2266" style="stop-color:#48484E"/>
	<stop  offset="0.3399" style="stop-color:#787B83"/>
	<stop  offset="1" style="stop-color:#7B7D85"/>
</linearGradient>
<path fill="url(#SVGID_1_)" stroke="#1C1D20" stroke-width="2" stroke-miterlimit="10" d="M53.567,122.474c0,1.104-0.938,2-2.096,2
	H6.934c-1.157,0-2.096-0.896-2.096-2v-108c0-1.104,0.938-2,2.096-2h44.538c1.157,0,2.096,0.896,2.096,2V122.474z"/>
<linearGradient id="SVGID_2_" gradientUnits="userSpaceOnUse" x1="1247.9521" y1="13.4746" x2="1247.9521" y2="119.8832">
	<stop  offset="0" style="stop-color:#4E5057"/>
	<stop  offset="0.0394" style="stop-color:#7B7D85"/>
	<stop  offset="0.0985" style="stop-color:#323339"/>
	<stop  offset="0.2266" style="stop-color:#48484E"/>
	<stop  offset="0.3399" style="stop-color:#787B83"/>
	<stop  offset="1" style="stop-color:#7B7D85"/>
</linearGradient>
<path fill="url(#SVGID_2_)" stroke="#1C1D20" stroke-width="2" stroke-miterlimit="10" d="M1272.316,122.474
	c0,1.104-0.938,2-2.095,2h-44.538c-1.157,0-2.096-0.896-2.096-2v-108c0-1.104,0.938-2,2.096-2h44.538c1.157,0,2.095,0.896,2.095,2
	V122.474z"/>
<rect x="58.557" y="17.891" fill="#6F717A" width="12" height="107.666"/>
<linearGradient id="SVGID_3_" gradientUnits="userSpaceOnUse" x1="64.5566" y1="0.4326" x2="64.5566" y2="17.482">
	<stop  offset="0" style="stop-color:#A9ABB1"/>
	<stop  offset="0.0394" style="stop-color:#ADAEB4"/>
	<stop  offset="0.1232" style="stop-color:#808086"/>
	<stop  offset="1" style="stop-color:#000000"/>
</linearGradient>
<rect x="58.557" y="1.391" fill="url(#SVGID_3_)" width="12" height="15.25"/>
<linearGradient id="SVGID_4_" gradientUnits="userSpaceOnUse" x1="1210.5996" y1="0.4326" x2="1210.5996" y2="17.482">
	<stop  offset="0" style="stop-color:#A9ABB1"/>
	<stop  offset="0.0394" style="stop-color:#ADAEB4"/>
	<stop  offset="0.1232" style="stop-color:#808086"/>
	<stop  offset="1" style="stop-color:#000000"/>
</linearGradient>
<rect x="1204.6" y="1.391" fill="url(#SVGID_4_)" width="12" height="15.25"/>
<linearGradient id="SVGID_5_" gradientUnits="userSpaceOnUse" x1="62.4219" y1="25.6406" x2="62.4219" y2="34.1443">
	<stop  offset="0" style="stop-color:#A9ABB1"/>
	<stop  offset="0.0394" style="stop-color:#ADAEB4"/>
	<stop  offset="0.1232" style="stop-color:#808086"/>
	<stop  offset="1" style="stop-color:#000000"/>
</linearGradient>
<rect x="56.786" y="25.141" fill="url(#SVGID_5_)" stroke="#1C1D20" stroke-miterlimit="10" width="11.271" height="8.667"/>
<linearGradient id="SVGID_6_" gradientUnits="userSpaceOnUse" x1="62.7964" y1="79.1504" x2="62.7964" y2="104.8243">
	<stop  offset="0" style="stop-color:#A9ABB1"/>
	<stop  offset="0.0394" style="stop-color:#ADAEB4"/>
	<stop  offset="0.1232" style="stop-color:#808086"/>
	<stop  offset="1" style="stop-color:#000000"/>
</linearGradient>
<rect x="57.161" y="77.641" fill="url(#SVGID_6_)" stroke="#1C1D20" stroke-miterlimit="10" width="11.271" height="26.167"/>
<rect x="74.89" y="1.391" fill="#68686A" width="472.167" height="2.083"/>
<rect x="98.493" y="123.423" fill="#68686A" width="164.032" height="1.267"/>
<rect x="317.432" y="123.423" fill="#68686A" width="168.558" height="1.267"/>
<rect x="492.236" y="123.423" fill="#68686A" width="67.32" height="1.267"/>
<rect x="571.225" y="123.423" fill="#68686A" width="154.937" height="1.267"/>
<rect x="736.672" y="123.423" fill="#68686A" width="42.551" height="1.267"/>
<rect x="787.448" y="123.423" fill="#68686A" width="166.608" height="1.267"/>
<rect x="960.172" y="123.423" fill="#68686A" width="42.551" height="1.267"/>
<rect x="1010.948" y="123.423" fill="#68686A" width="166.608" height="1.267"/>
<rect x="70.557" y="123.423" fill="#68686A" width="21.5" height="1.267"/>
<rect x="271.307" y="123.423" fill="#68686A" width="34.125" height="1.267"/>
<rect x="282.057" y="74.558" fill="#414349" width="10.667" height="45.583"/>
<rect x="1204.6" y="17.891" fill="#6F717A" width="12" height="107.666"/>
<linearGradient id="SVGID_7_" gradientUnits="userSpaceOnUse" x1="1214.1504" y1="29.8364" x2="1214.1504" y2="106.8577">
	<stop  offset="0" style="stop-color:#A9ABB1"/>
	<stop  offset="3.000000e-008" style="stop-color:#ADAEB4"/>
	<stop  offset="0.0044" style="stop-color:#A6A7AD"/>
	<stop  offset="0.0186" style="stop-color:#95959B"/>
	<stop  offset="0.0351" style="stop-color:#89898F"/>
	<stop  offset="0.0557" style="stop-color:#828288"/>
	<stop  offset="0.0936" style="stop-color:#808086"/>
	<stop  offset="1" style="stop-color:#000000"/>
</linearGradient>
<rect x="1208.515" y="25.308" fill="url(#SVGID_7_)" stroke="#1C1D20" stroke-miterlimit="10" width="11.271" height="78.5"/>
<polygon fill="#47494F" points="764.244,79.872 764.244,57.706 762.348,57.706 762.348,20.885 763.885,20.885 763.885,15.516 
	750.61,15.516 750.61,21.026 752.1,21.026 752.1,57.706 751.673,57.706 751.673,79.872 752.1,79.872 752.1,116.313 750.61,116.313 
	750.61,122.798 763.885,122.798 763.885,116.455 762.348,116.455 762.348,79.872 "/>
<g>
	<polygon fill="#3C3D3F" points="938.274,68.053 938.274,68.874 915.307,68.874 915.307,68.053 910.723,68.053 910.723,68.874 
		910.723,71.063 915.307,71.063 938.274,71.063 939.39,71.063 942.858,71.063 942.858,68.053 	"/>
	<polygon fill="#3C3D3F" points="905.133,68.053 905.133,68.874 887.563,68.874 887.563,68.053 884.057,68.053 884.057,68.874 
		884.057,71.063 887.563,71.063 905.133,71.063 905.986,71.063 908.64,71.063 908.64,68.053 	"/>
	<polygon fill="#3C3D3F" points="878.645,68.053 878.645,68.874 861.551,68.874 861.551,68.053 858.14,68.053 858.14,68.874 
		858.14,71.063 861.551,71.063 878.645,71.063 879.475,71.063 882.057,71.063 882.057,68.053 	"/>
	<polygon fill="#3C3D3F" points="852.062,68.053 852.062,68.874 834.969,68.874 834.969,68.053 831.557,68.053 831.557,68.874 
		831.557,71.063 834.969,71.063 852.062,71.063 852.892,71.063 855.474,71.063 855.474,68.053 	"/>
	<polygon fill="#3C3D3F" points="822.634,68.053 822.634,68.874 801.729,68.874 801.729,68.053 797.557,68.053 797.557,68.874 
		797.557,71.063 801.729,71.063 822.634,71.063 823.648,71.063 826.807,71.063 826.807,68.053 	"/>
</g>
<g>
	<polygon fill="#3C3D3F" points="718.571,67.974 718.571,68.795 695.604,68.795 695.604,67.974 691.02,67.974 691.02,68.795 
		691.02,70.984 695.604,70.984 718.571,70.984 719.687,70.984 723.155,70.984 723.155,67.974 	"/>
	<polygon fill="#3C3D3F" points="685.43,67.974 685.43,68.795 667.86,68.795 667.86,67.974 664.354,67.974 664.354,68.795 
		664.354,70.984 667.86,70.984 685.43,70.984 686.283,70.984 688.937,70.984 688.937,67.974 	"/>
	<polygon fill="#3C3D3F" points="658.941,67.974 658.941,68.795 641.848,68.795 641.848,67.974 638.437,67.974 638.437,68.795 
		638.437,70.984 641.848,70.984 658.941,70.984 659.771,70.984 662.354,70.984 662.354,67.974 	"/>
	<polygon fill="#3C3D3F" points="632.358,67.974 632.358,68.795 615.266,68.795 615.266,67.974 611.854,67.974 611.854,68.795 
		611.854,70.984 615.266,70.984 632.358,70.984 633.188,70.984 635.771,70.984 635.771,67.974 	"/>
	<polygon fill="#3C3D3F" points="602.931,67.974 602.931,68.795 582.026,68.795 582.026,67.974 577.854,67.974 577.854,68.795 
		577.854,70.984 582.026,70.984 602.931,70.984 603.945,70.984 607.104,70.984 607.104,67.974 	"/>
</g>
<g>
	<polygon fill="#3C3D3F" points="938.274,119.23 938.274,120.052 915.307,120.052 915.307,119.23 910.723,119.23 910.723,120.052 
		910.723,122.241 915.307,122.241 938.274,122.241 939.39,122.241 942.858,122.241 942.858,119.23 	"/>
	<polygon fill="#3C3D3F" points="905.133,119.23 905.133,120.052 887.563,120.052 887.563,119.23 884.057,119.23 884.057,120.052 
		884.057,122.241 887.563,122.241 905.133,122.241 905.986,122.241 908.64,122.241 908.64,119.23 	"/>
	<polygon fill="#3C3D3F" points="878.645,119.23 878.645,120.052 861.551,120.052 861.551,119.23 858.14,119.23 858.14,120.052 
		858.14,122.241 861.551,122.241 878.645,122.241 879.475,122.241 882.057,122.241 882.057,119.23 	"/>
	<polygon fill="#3C3D3F" points="852.062,119.23 852.062,120.052 834.969,120.052 834.969,119.23 831.557,119.23 831.557,120.052 
		831.557,122.241 834.969,122.241 852.062,122.241 852.892,122.241 855.474,122.241 855.474,119.23 	"/>
	<polygon fill="#3C3D3F" points="822.634,119.23 822.634,120.052 801.729,120.052 801.729,119.23 797.557,119.23 797.557,120.052 
		797.557,122.241 801.729,122.241 822.634,122.241 823.648,122.241 826.807,122.241 826.807,119.23 	"/>
</g>
<g>
	<polygon fill="#3C3D3F" points="718.896,118.824 718.896,119.646 695.93,119.646 695.93,118.824 691.346,118.824 691.346,119.646 
		691.346,121.835 695.93,121.835 718.896,121.835 720.013,121.835 723.48,121.835 723.48,118.824 	"/>
	<polygon fill="#3C3D3F" points="685.756,118.824 685.756,119.646 668.187,119.646 668.187,118.824 664.68,118.824 664.68,119.646 
		664.68,121.835 668.187,121.835 685.756,121.835 686.609,121.835 689.263,121.835 689.263,118.824 	"/>
	<polygon fill="#3C3D3F" points="659.268,118.824 659.268,119.646 642.175,119.646 642.175,118.824 638.763,118.824 
		638.763,119.646 638.763,121.835 642.175,121.835 659.268,121.835 660.098,121.835 662.68,121.835 662.68,118.824 	"/>
	<polygon fill="#3C3D3F" points="632.684,118.824 632.684,119.646 615.592,119.646 615.592,118.824 612.18,118.824 612.18,119.646 
		612.18,121.835 615.592,121.835 632.684,121.835 633.515,121.835 636.097,121.835 636.097,118.824 	"/>
	<polygon fill="#3C3D3F" points="603.257,118.824 603.257,119.646 582.353,119.646 582.353,118.824 578.18,118.824 578.18,119.646 
		578.18,121.835 582.353,121.835 603.257,121.835 604.271,121.835 607.43,121.835 607.43,118.824 	"/>
</g>
<linearGradient id="SVGID_8_" gradientUnits="userSpaceOnUse" x1="569.9336" y1="1.1406" x2="569.9336" y2="14.6614">
	<stop  offset="0" style="stop-color:#85868E"/>
	<stop  offset="0.2118" style="stop-color:#47494F"/>
	<stop  offset="1" style="stop-color:#47494F"/>
</linearGradient>
<polygon fill="url(#SVGID_8_)" points="544.391,29.641 544.391,6.391 546.717,1.391 595.477,1.391 595.477,11.891 579.281,11.891 
	579.281,9.391 569.375,9.391 569.375,12.891 550.076,12.891 550.076,29.641 "/>
<rect x="551.39" y="19.693" fill="#3F4248" width="27.418" height="1.01"/>
<rect x="577.848" y="17.995" fill="#3F4248" width="0.96" height="2.708"/>
<linearGradient id="SVGID_9_" gradientUnits="userSpaceOnUse" x1="759.8486" y1="1.9863" x2="759.8486" y2="13.4866">
	<stop  offset="0" style="stop-color:#85868E"/>
	<stop  offset="0.2118" style="stop-color:#47494F"/>
	<stop  offset="1" style="stop-color:#47494F"/>
</linearGradient>
<polygon fill="url(#SVGID_9_)" points="704.391,11.298 704.391,2.152 815.307,2.152 815.307,11.152 799.914,11.152 799.914,9.402 
	788.303,9.402 788.303,14.402 733.539,14.402 733.539,9.402 722.444,9.402 722.444,11.319 "/>
<linearGradient id="SVGID_10_" gradientUnits="userSpaceOnUse" x1="976.3896" y1="1.9863" x2="976.3896" y2="13.4866">
	<stop  offset="0" style="stop-color:#85868E"/>
	<stop  offset="0.2118" style="stop-color:#47494F"/>
	<stop  offset="1" style="stop-color:#47494F"/>
</linearGradient>
<polygon fill="url(#SVGID_10_)" points="920.932,11.298 920.932,2.152 1031.848,2.152 1031.848,11.152 1016.456,11.152 
	1016.456,9.402 1004.845,9.402 1004.845,14.402 950.081,14.402 950.081,9.402 938.986,9.402 938.986,11.319 "/>
<linearGradient id="SVGID_11_" gradientUnits="userSpaceOnUse" x1="1170.8906" y1="1.1934" x2="1170.8906" y2="14.8454">
	<stop  offset="0" style="stop-color:#85868E"/>
	<stop  offset="0.1379" style="stop-color:#47494F"/>
	<stop  offset="1" style="stop-color:#47494F"/>
</linearGradient>
<polygon fill="url(#SVGID_11_)" points="1137.182,1.391 1137.182,12.042 1155.706,12.042 1155.706,9.993 1168.417,9.993 
	1168.417,15.933 1204.6,15.933 1204.6,1.391 "/>
<path fill="#3F4248" d="M704.391,1.771c0,0.21-0.17,0.381-0.381,0.381H595.104c-0.21,0-0.381-0.171-0.381-0.381l0,0
	c0-0.21,0.171-0.381,0.381-0.381H704.01C704.221,1.391,704.391,1.562,704.391,1.771L704.391,1.771z"/>
<path fill="#3F4248" d="M921.596,1.771c0,0.21-0.17,0.381-0.381,0.381H812.31c-0.21,0-0.381-0.171-0.381-0.381l0,0
	c0-0.21,0.171-0.381,0.381-0.381h108.905C921.426,1.391,921.596,1.562,921.596,1.771L921.596,1.771z"/>
<path fill="#47494E" d="M704.391,11.996c0,0.32-0.17,0.582-0.381,0.582H595.104c-0.21,0-0.381-0.262-0.381-0.582l0,0
	c0-0.322,0.171-0.583,0.381-0.583H704.01C704.221,11.413,704.391,11.674,704.391,11.996L704.391,11.996z"/>
<linearGradient id="SVGID_12_" gradientUnits="userSpaceOnUse" x1="609.0151" y1="1.2275" x2="609.0151" y2="12.5179">
	<stop  offset="0" style="stop-color:#85868E"/>
	<stop  offset="0.1379" style="stop-color:#47494F"/>
	<stop  offset="0.7685" style="stop-color:#47494F"/>
	<stop  offset="1" style="stop-color:#202226"/>
</linearGradient>
<path fill="url(#SVGID_12_)" d="M611.307,12.271c0,0.632-0.447,1.146-1,1.146h-2.583c-0.552,0-1-0.514-1-1.146V2.536
	c0-0.632,0.448-1.146,1-1.146h2.583c0.553,0,1,0.514,1,1.146V12.271z"/>
<linearGradient id="SVGID_13_" gradientUnits="userSpaceOnUse" x1="622.7368" y1="1.2275" x2="622.7368" y2="12.5179">
	<stop  offset="0" style="stop-color:#85868E"/>
	<stop  offset="0.1379" style="stop-color:#47494F"/>
	<stop  offset="0.7685" style="stop-color:#47494F"/>
	<stop  offset="1" style="stop-color:#202226"/>
</linearGradient>
<path fill="url(#SVGID_13_)" d="M625.028,12.271c0,0.632-0.447,1.146-1,1.146h-2.583c-0.552,0-1-0.514-1-1.146V2.536
	c0-0.632,0.448-1.146,1-1.146h2.583c0.553,0,1,0.514,1,1.146V12.271z"/>
<linearGradient id="SVGID_14_" gradientUnits="userSpaceOnUse" x1="636.458" y1="1.2275" x2="636.458" y2="12.5179">
	<stop  offset="0" style="stop-color:#85868E"/>
	<stop  offset="0.1379" style="stop-color:#47494F"/>
	<stop  offset="0.7685" style="stop-color:#47494F"/>
	<stop  offset="1" style="stop-color:#202226"/>
</linearGradient>
<path fill="url(#SVGID_14_)" d="M638.75,12.271c0,0.632-0.447,1.146-1,1.146h-2.584c-0.551,0-1-0.514-1-1.146V2.536
	c0-0.632,0.449-1.146,1-1.146h2.584c0.553,0,1,0.514,1,1.146V12.271z"/>
<linearGradient id="SVGID_15_" gradientUnits="userSpaceOnUse" x1="650.1797" y1="1.2275" x2="650.1797" y2="12.5179">
	<stop  offset="0" style="stop-color:#85868E"/>
	<stop  offset="0.1379" style="stop-color:#47494F"/>
	<stop  offset="0.7685" style="stop-color:#47494F"/>
	<stop  offset="1" style="stop-color:#202226"/>
</linearGradient>
<path fill="url(#SVGID_15_)" d="M652.472,12.271c0,0.632-0.447,1.146-1,1.146h-2.583c-0.552,0-1-0.514-1-1.146V2.536
	c0-0.632,0.448-1.146,1-1.146h2.583c0.553,0,1,0.514,1,1.146V12.271z"/>
<linearGradient id="SVGID_16_" gradientUnits="userSpaceOnUse" x1="663.9023" y1="1.2275" x2="663.9023" y2="12.5179">
	<stop  offset="0" style="stop-color:#85868E"/>
	<stop  offset="0.1379" style="stop-color:#47494F"/>
	<stop  offset="0.7685" style="stop-color:#47494F"/>
	<stop  offset="1" style="stop-color:#202226"/>
</linearGradient>
<path fill="url(#SVGID_16_)" d="M666.193,12.271c0,0.632-0.447,1.146-1,1.146h-2.583c-0.552,0-1-0.514-1-1.146V2.536
	c0-0.632,0.448-1.146,1-1.146h2.583c0.553,0,1,0.514,1,1.146V12.271z"/>
<linearGradient id="SVGID_17_" gradientUnits="userSpaceOnUse" x1="677.623" y1="1.2275" x2="677.623" y2="12.5179">
	<stop  offset="0" style="stop-color:#85868E"/>
	<stop  offset="0.1379" style="stop-color:#47494F"/>
	<stop  offset="0.7685" style="stop-color:#47494F"/>
	<stop  offset="1" style="stop-color:#202226"/>
</linearGradient>
<path fill="url(#SVGID_17_)" d="M679.914,12.271c0,0.632-0.447,1.146-1,1.146h-2.582c-0.552,0-1-0.514-1-1.146V2.536
	c0-0.632,0.448-1.146,1-1.146h2.582c0.553,0,1,0.514,1,1.146V12.271z"/>
<linearGradient id="SVGID_18_" gradientUnits="userSpaceOnUse" x1="691.3457" y1="1.2275" x2="691.3457" y2="12.5179">
	<stop  offset="0" style="stop-color:#85868E"/>
	<stop  offset="0.1379" style="stop-color:#47494F"/>
	<stop  offset="0.7685" style="stop-color:#47494F"/>
	<stop  offset="1" style="stop-color:#202226"/>
</linearGradient>
<path fill="url(#SVGID_18_)" d="M693.637,12.271c0,0.632-0.447,1.146-1,1.146h-2.583c-0.552,0-1-0.514-1-1.146V2.536
	c0-0.632,0.448-1.146,1-1.146h2.583c0.553,0,1,0.514,1,1.146V12.271z"/>
<path fill="#47494E" d="M923.264,11.621c0,0.32-0.17,0.582-0.381,0.582H813.978c-0.21,0-0.381-0.262-0.381-0.582l0,0
	c0-0.322,0.171-0.583,0.381-0.583h108.905C923.094,11.038,923.264,11.299,923.264,11.621L923.264,11.621z"/>
<linearGradient id="SVGID_19_" gradientUnits="userSpaceOnUse" x1="827.8887" y1="0.8525" x2="827.8887" y2="12.1429">
	<stop  offset="0" style="stop-color:#85868E"/>
	<stop  offset="0.1379" style="stop-color:#47494F"/>
	<stop  offset="0.7685" style="stop-color:#47494F"/>
	<stop  offset="1" style="stop-color:#202226"/>
</linearGradient>
<path fill="url(#SVGID_19_)" d="M830.18,11.896c0,0.632-0.447,1.146-1,1.146h-2.583c-0.552,0-1-0.514-1-1.146V2.161
	c0-0.632,0.448-1.146,1-1.146h2.583c0.553,0,1,0.514,1,1.146V11.896z"/>
<linearGradient id="SVGID_20_" gradientUnits="userSpaceOnUse" x1="841.6094" y1="0.8525" x2="841.6094" y2="12.1429">
	<stop  offset="0" style="stop-color:#85868E"/>
	<stop  offset="0.1379" style="stop-color:#47494F"/>
	<stop  offset="0.7685" style="stop-color:#47494F"/>
	<stop  offset="1" style="stop-color:#202226"/>
</linearGradient>
<path fill="url(#SVGID_20_)" d="M843.9,11.896c0,0.632-0.446,1.146-1,1.146h-2.582c-0.552,0-1-0.514-1-1.146V2.161
	c0-0.632,0.448-1.146,1-1.146h2.582c0.554,0,1,0.514,1,1.146V11.896z"/>
<linearGradient id="SVGID_21_" gradientUnits="userSpaceOnUse" x1="855.332" y1="0.8525" x2="855.332" y2="12.1429">
	<stop  offset="0" style="stop-color:#85868E"/>
	<stop  offset="0.1379" style="stop-color:#47494F"/>
	<stop  offset="0.7685" style="stop-color:#47494F"/>
	<stop  offset="1" style="stop-color:#202226"/>
</linearGradient>
<path fill="url(#SVGID_21_)" d="M857.623,11.896c0,0.632-0.447,1.146-1,1.146h-2.583c-0.552,0-1-0.514-1-1.146V2.161
	c0-0.632,0.448-1.146,1-1.146h2.583c0.553,0,1,0.514,1,1.146V11.896z"/>
<linearGradient id="SVGID_22_" gradientUnits="userSpaceOnUse" x1="869.0527" y1="0.8525" x2="869.0527" y2="12.1429">
	<stop  offset="0" style="stop-color:#85868E"/>
	<stop  offset="0.1379" style="stop-color:#47494F"/>
	<stop  offset="0.7685" style="stop-color:#47494F"/>
	<stop  offset="1" style="stop-color:#202226"/>
</linearGradient>
<path fill="url(#SVGID_22_)" d="M871.345,11.896c0,0.632-0.448,1.146-1,1.146h-2.583c-0.552,0-1-0.514-1-1.146V2.161
	c0-0.632,0.448-1.146,1-1.146h2.583c0.552,0,1,0.514,1,1.146V11.896z"/>
<linearGradient id="SVGID_23_" gradientUnits="userSpaceOnUse" x1="882.7754" y1="0.8525" x2="882.7754" y2="12.1429">
	<stop  offset="0" style="stop-color:#85868E"/>
	<stop  offset="0.1379" style="stop-color:#47494F"/>
	<stop  offset="0.7685" style="stop-color:#47494F"/>
	<stop  offset="1" style="stop-color:#202226"/>
</linearGradient>
<path fill="url(#SVGID_23_)" d="M885.066,11.896c0,0.632-0.447,1.146-1,1.146h-2.583c-0.552,0-1-0.514-1-1.146V2.161
	c0-0.632,0.448-1.146,1-1.146h2.583c0.553,0,1,0.514,1,1.146V11.896z"/>
<linearGradient id="SVGID_24_" gradientUnits="userSpaceOnUse" x1="896.4961" y1="0.8525" x2="896.4961" y2="12.1429">
	<stop  offset="0" style="stop-color:#85868E"/>
	<stop  offset="0.1379" style="stop-color:#47494F"/>
	<stop  offset="0.7685" style="stop-color:#47494F"/>
	<stop  offset="1" style="stop-color:#202226"/>
</linearGradient>
<path fill="url(#SVGID_24_)" d="M898.788,11.896c0,0.632-0.447,1.146-1,1.146h-2.583c-0.552,0-1-0.514-1-1.146V2.161
	c0-0.632,0.448-1.146,1-1.146h2.583c0.553,0,1,0.514,1,1.146V11.896z"/>
<linearGradient id="SVGID_25_" gradientUnits="userSpaceOnUse" x1="910.2188" y1="0.8525" x2="910.2188" y2="12.1429">
	<stop  offset="0" style="stop-color:#85868E"/>
	<stop  offset="0.1379" style="stop-color:#47494F"/>
	<stop  offset="0.7685" style="stop-color:#47494F"/>
	<stop  offset="1" style="stop-color:#202226"/>
</linearGradient>
<path fill="url(#SVGID_25_)" d="M912.51,11.896c0,0.632-0.447,1.146-1,1.146h-2.583c-0.552,0-1-0.514-1-1.146V2.161
	c0-0.632,0.448-1.146,1-1.146h2.583c0.553,0,1,0.514,1,1.146V11.896z"/>
<path fill="#3F4248" d="M1137.778,1.771c0,0.21-0.17,0.381-0.382,0.381h-108.904c-0.21,0-0.381-0.171-0.381-0.381l0,0
	c0-0.21,0.171-0.381,0.381-0.381h108.904C1137.608,1.391,1137.778,1.562,1137.778,1.771L1137.778,1.771z"/>
<path fill="#47494E" d="M1139.446,11.621c0,0.32-0.17,0.582-0.382,0.582H1030.16c-0.209,0-0.381-0.262-0.381-0.582l0,0
	c0-0.322,0.172-0.583,0.381-0.583h108.904C1139.276,11.038,1139.446,11.299,1139.446,11.621L1139.446,11.621z"/>
<linearGradient id="SVGID_26_" gradientUnits="userSpaceOnUse" x1="1044.0703" y1="0.8525" x2="1044.0703" y2="12.1429">
	<stop  offset="0" style="stop-color:#85868E"/>
	<stop  offset="0.1379" style="stop-color:#47494F"/>
	<stop  offset="0.7685" style="stop-color:#47494F"/>
	<stop  offset="1" style="stop-color:#202226"/>
</linearGradient>
<path fill="url(#SVGID_26_)" d="M1046.362,11.896c0,0.632-0.448,1.146-1,1.146h-2.583c-0.552,0-1-0.514-1-1.146V2.161
	c0-0.632,0.448-1.146,1-1.146h2.583c0.552,0,1,0.514,1,1.146V11.896z"/>
<linearGradient id="SVGID_27_" gradientUnits="userSpaceOnUse" x1="1057.793" y1="0.8525" x2="1057.793" y2="12.1429">
	<stop  offset="0" style="stop-color:#85868E"/>
	<stop  offset="0.1379" style="stop-color:#47494F"/>
	<stop  offset="0.7685" style="stop-color:#47494F"/>
	<stop  offset="1" style="stop-color:#202226"/>
</linearGradient>
<path fill="url(#SVGID_27_)" d="M1060.084,11.896c0,0.632-0.447,1.146-1,1.146h-2.583c-0.552,0-1-0.514-1-1.146V2.161
	c0-0.632,0.448-1.146,1-1.146h2.583c0.553,0,1,0.514,1,1.146V11.896z"/>
<linearGradient id="SVGID_28_" gradientUnits="userSpaceOnUse" x1="1071.5137" y1="0.8525" x2="1071.5137" y2="12.1429">
	<stop  offset="0" style="stop-color:#85868E"/>
	<stop  offset="0.1379" style="stop-color:#47494F"/>
	<stop  offset="0.7685" style="stop-color:#47494F"/>
	<stop  offset="1" style="stop-color:#202226"/>
</linearGradient>
<path fill="url(#SVGID_28_)" d="M1073.806,11.896c0,0.632-0.447,1.146-1,1.146h-2.583c-0.552,0-1-0.514-1-1.146V2.161
	c0-0.632,0.448-1.146,1-1.146h2.583c0.553,0,1,0.514,1,1.146V11.896z"/>
<linearGradient id="SVGID_29_" gradientUnits="userSpaceOnUse" x1="1085.2363" y1="0.8525" x2="1085.2363" y2="12.1429">
	<stop  offset="0" style="stop-color:#85868E"/>
	<stop  offset="0.1379" style="stop-color:#47494F"/>
	<stop  offset="0.7685" style="stop-color:#47494F"/>
	<stop  offset="1" style="stop-color:#202226"/>
</linearGradient>
<path fill="url(#SVGID_29_)" d="M1087.527,11.896c0,0.632-0.447,1.146-1,1.146h-2.583c-0.552,0-1-0.514-1-1.146V2.161
	c0-0.632,0.448-1.146,1-1.146h2.583c0.553,0,1,0.514,1,1.146V11.896z"/>
<linearGradient id="SVGID_30_" gradientUnits="userSpaceOnUse" x1="1098.957" y1="0.8525" x2="1098.957" y2="12.1429">
	<stop  offset="0" style="stop-color:#85868E"/>
	<stop  offset="0.1379" style="stop-color:#47494F"/>
	<stop  offset="0.7685" style="stop-color:#47494F"/>
	<stop  offset="1" style="stop-color:#202226"/>
</linearGradient>
<path fill="url(#SVGID_30_)" d="M1101.249,11.896c0,0.632-0.448,1.146-1,1.146h-2.583c-0.552,0-1-0.514-1-1.146V2.161
	c0-0.632,0.448-1.146,1-1.146h2.583c0.552,0,1,0.514,1,1.146V11.896z"/>
<linearGradient id="SVGID_31_" gradientUnits="userSpaceOnUse" x1="1112.6797" y1="0.8525" x2="1112.6797" y2="12.1429">
	<stop  offset="0" style="stop-color:#85868E"/>
	<stop  offset="0.1379" style="stop-color:#47494F"/>
	<stop  offset="0.7685" style="stop-color:#47494F"/>
	<stop  offset="1" style="stop-color:#202226"/>
</linearGradient>
<path fill="url(#SVGID_31_)" d="M1114.971,11.896c0,0.632-0.447,1.146-1,1.146h-2.583c-0.552,0-1-0.514-1-1.146V2.161
	c0-0.632,0.448-1.146,1-1.146h2.583c0.553,0,1,0.514,1,1.146V11.896z"/>
<linearGradient id="SVGID_32_" gradientUnits="userSpaceOnUse" x1="1126.4004" y1="0.8525" x2="1126.4004" y2="12.1429">
	<stop  offset="0" style="stop-color:#85868E"/>
	<stop  offset="0.1379" style="stop-color:#47494F"/>
	<stop  offset="0.7685" style="stop-color:#47494F"/>
	<stop  offset="1" style="stop-color:#202226"/>
</linearGradient>
<path fill="url(#SVGID_32_)" d="M1128.692,11.896c0,0.632-0.447,1.146-1,1.146h-2.583c-0.552,0-1-0.514-1-1.146V2.161
	c0-0.632,0.448-1.146,1-1.146h2.583c0.553,0,1,0.514,1,1.146V11.896z"/>
<rect x="433.705" y="14.193" fill="#1A469B" width="91.831" height="11"/>
<rect x="442.807" y="15.516" fill="#809CC0" width="18.75" height="8.354"/>
<rect x="432.057" y="55.974" fill="#505366" width="53.933" height="8.25"/>
<rect x="436.672" y="55.974" fill="#4D89B0" width="44.701" height="8.25"/>
<text transform="matrix(0.9962 0 -0.0872 0.9962 432.0176 39.5713)" fill="#E5E5E4" font-family="'MicrosoftYaHei'" font-size="11.5616">powerEdge R630</text>
<path fill="#47494F" d="M74.39,113.026c0,1.168-0.071,2.114-0.158,2.114h-1.934c-0.087,0-0.158-0.946-0.158-2.114V77.088
	c0-1.168,0.071-2.114,0.158-2.114h1.934c0.087,0,0.158,0.946,0.158,2.114V113.026z"/>
<g>
	<polygon fill="#3C3D3F" points="1155.998,68.053 1155.998,68.874 1133.031,68.874 1133.031,68.053 1128.447,68.053 
		1128.447,68.874 1128.447,71.063 1133.031,71.063 1155.998,71.063 1157.114,71.063 1160.582,71.063 1160.582,68.053 	"/>
	<polygon fill="#3C3D3F" points="1122.857,68.053 1122.857,68.874 1105.288,68.874 1105.288,68.053 1101.781,68.053 
		1101.781,68.874 1101.781,71.063 1105.288,71.063 1122.857,71.063 1123.711,71.063 1126.364,71.063 1126.364,68.053 	"/>
	<polygon fill="#3C3D3F" points="1096.369,68.053 1096.369,68.874 1079.276,68.874 1079.276,68.053 1075.864,68.053 
		1075.864,68.874 1075.864,71.063 1079.276,71.063 1096.369,71.063 1097.199,71.063 1099.781,71.063 1099.781,68.053 	"/>
	<polygon fill="#3C3D3F" points="1069.786,68.053 1069.786,68.874 1052.693,68.874 1052.693,68.053 1049.281,68.053 
		1049.281,68.874 1049.281,71.063 1052.693,71.063 1069.786,71.063 1070.617,71.063 1073.198,71.063 1073.198,68.053 	"/>
	<polygon fill="#3C3D3F" points="1040.358,68.053 1040.358,68.874 1019.454,68.874 1019.454,68.053 1015.281,68.053 
		1015.281,68.874 1015.281,71.063 1019.454,71.063 1040.358,71.063 1041.373,71.063 1044.531,71.063 1044.531,68.053 	"/>
</g>
<g>
	<polygon fill="#3C3D3F" points="1155.998,119.23 1155.998,120.052 1133.031,120.052 1133.031,119.23 1128.447,119.23 
		1128.447,120.052 1128.447,122.241 1133.031,122.241 1155.998,122.241 1157.114,122.241 1160.582,122.241 1160.582,119.23 	"/>
	<polygon fill="#3C3D3F" points="1122.857,119.23 1122.857,120.052 1105.288,120.052 1105.288,119.23 1101.781,119.23 
		1101.781,120.052 1101.781,122.241 1105.288,122.241 1122.857,122.241 1123.711,122.241 1126.364,122.241 1126.364,119.23 	"/>
	<polygon fill="#3C3D3F" points="1096.369,119.23 1096.369,120.052 1079.276,120.052 1079.276,119.23 1075.864,119.23 
		1075.864,120.052 1075.864,122.241 1079.276,122.241 1096.369,122.241 1097.199,122.241 1099.781,122.241 1099.781,119.23 	"/>
	<polygon fill="#3C3D3F" points="1069.786,119.23 1069.786,120.052 1052.693,120.052 1052.693,119.23 1049.281,119.23 
		1049.281,120.052 1049.281,122.241 1052.693,122.241 1069.786,122.241 1070.617,122.241 1073.198,122.241 1073.198,119.23 	"/>
	<polygon fill="#3C3D3F" points="1040.358,119.23 1040.358,120.052 1019.454,120.052 1019.454,119.23 1015.281,119.23 
		1015.281,120.052 1015.281,122.241 1019.454,122.241 1040.358,122.241 1041.373,122.241 1044.531,122.241 1044.531,119.23 	"/>
</g>
<polygon fill="#47494F" points="984.432,80.719 984.432,58.989 982.535,58.989 982.535,22.895 984.072,22.895 984.072,17.631 
	970.798,17.631 970.798,23.033 972.288,23.033 972.288,58.989 971.86,58.989 971.86,80.719 972.288,80.719 972.288,116.44 
	970.798,116.44 970.798,122.798 984.072,122.798 984.072,116.58 982.535,116.58 982.535,80.719 "/>
<polygon fill="#47494F" points="1188.518,80.719 1188.518,58.989 1190.414,58.989 1190.414,22.895 1188.877,22.895 1188.877,17.631 
	1202.15,17.631 1202.15,23.033 1200.661,23.033 1200.661,58.989 1201.089,58.989 1201.089,80.719 1200.661,80.719 1200.661,116.44 
	1202.15,116.44 1202.15,122.798 1188.877,122.798 1188.877,116.58 1190.414,116.58 1190.414,80.719 "/>
</svg>
