<?xml version="1.0" encoding="utf-8"?>
<!-- Generator: Adobe Illustrator 16.0.0, SVG Export Plug-In . SVG Version: 6.00 Build 0)  -->
<!DOCTYPE svg PUBLIC "-//W3C//DTD SVG 1.1//EN" "http://www.w3.org/Graphics/SVG/1.1/DTD/svg11.dtd">
<svg version="1.1" id="图层_1" xmlns="http://www.w3.org/2000/svg" xmlns:xlink="http://www.w3.org/1999/xlink" x="0px" y="0px"
	 width="227.725px" height="51.408px" viewBox="0 0 227.725 51.408" enable-background="new 0 0 227.725 51.408"
	 xml:space="preserve">
<rect x="9.408" fill="#010101" width="219.246" height="202.709"/>
<rect fill="#989898" width="9.408" height="202.709"/>
<g>
	<rect x="9.408" y="5.56" fill="#272727" width="211.691" height="42.48"/>
	<rect x="9.408" y="8.91" fill="#020202" width="211.691" height="35.78"/>
</g>
<g>
	<circle cx="46.258" cy="51.408" r="4.704"/>
	<circle cx="60.813" cy="51.408" r="4.704"/>
	<circle cx="75.367" cy="51.408" r="4.704"/>
	<circle cx="89.921" cy="51.408" r="4.705"/>
	<circle cx="104.478" cy="51.408" r="4.704"/>
	<circle cx="119.031" cy="51.408" r="4.705"/>
</g>
<g>
	<circle cx="9.979" cy="11.422" r="2.209"/>
	<circle cx="9.979" cy="41.786" r="2.209"/>
</g>
<g>
	<polygon fill="#323232" points="174.77,48.04 130.863,48.04 120.314,36.06 48.753,36.06 41.055,48.04 9.979,48.04 9.979,5.56 
		39.915,5.56 47.897,16.684 120.6,16.684 131.434,5.56 174.77,5.56 	"/>
	<rect x="177.335" y="5.56" fill="#323232" width="44.334" height="42.48"/>
	<rect x="183.347" y="12.224" fill="#2A0E11" width="24.47" height="29.152"/>
	<rect x="184.355" y="13.426" fill="#8A4451" width="22.45" height="26.747"/>
	<circle fill="#171719" cx="143.443" cy="26.799" r="14.968"/>
	<circle fill="#4F4D4F" cx="143.443" cy="26.799" r="13.952"/>
	<circle fill="#73C85D" cx="143.443" cy="26.799" r="13.311"/>
	<circle fill="#2A3429" cx="143.443" cy="26.799" r="7.27"/>
	<circle fill="#73C85D" cx="143.443" cy="26.799" r="5.56"/>
	<rect x="142.802" y="13.489" fill="#2A3429" width="1.283" height="6.682"/>
	<rect x="142.873" y="33.286" fill="#2A3429" width="1.283" height="6.824"/>
	<rect x="150.036" y="26.051" fill="#2A3429" width="6.718" height="1.283"/>
	<rect x="130.133" y="26.123" fill="#2A3429" width="6.789" height="1.283"/>
</g>
<rect x="226.088" fill="#989898" width="2.566" height="202.709"/>
<g>
	<text transform="matrix(1 0 0 1 19.1045 21.2393)" fill="#A7A3AD" font-family="'CTCuHeiSJ'" font-size="10.2638">HP</text>
	<text transform="matrix(1 0 0 1 14.1865 35.9922)" fill="#A7A3AD" font-family="'CTCuHeiSJ'" font-size="8.5532">DL380</text>
	<rect x="14.184" y="24.769" fill="#A7A3AD" width="25.767" height="1.176"/>
</g>
</svg>
