<?xml version="1.0" encoding="utf-8"?>
<!-- Generator: Adobe Illustrator 16.0.0, SVG Export Plug-In . SVG Version: 6.00 Build 0)  -->
<!DOCTYPE svg PUBLIC "-//W3C//DTD SVG 1.1//EN" "http://www.w3.org/Graphics/SVG/1.1/DTD/svg11.dtd">
<svg version="1.1" id="图层_1" xmlns="http://www.w3.org/2000/svg" xmlns:xlink="http://www.w3.org/1999/xlink" x="0px" y="0px"
	 width="50.789px" height="216.901px" viewBox="0 0 50.789 216.901" enable-background="new 0 0 50.789 216.901"
	 xml:space="preserve">
<g>
	<defs>
		<rect id="SVGID_558_" x="-78.253" y="-17.666" width="1275.59" height="252"/>
	</defs>
	<clipPath id="SVGID_2_">
		<use xlink:href="#SVGID_558_"  overflow="visible"/>
	</clipPath>
	
		<rect x="-78.253" y="-17.666" clip-path="url(#SVGID_2_)" fill="none" stroke="#242426" stroke-width="2" stroke-miterlimit="10" width="1275.59" height="252"/>
</g>
<rect fill="#1C1D20" width="754" height="216.901"/>
<rect x="-78.253" y="-17.666" fill="none" width="1275.59" height="252"/>
<g>
	<defs>
		<rect id="SVGID_590_" x="-78.253" y="-17.666" width="1275.59" height="252"/>
	</defs>
	<clipPath id="SVGID_4_">
		<use xlink:href="#SVGID_590_"  overflow="visible"/>
	</clipPath>
</g>
<g>
	<defs>
		<rect id="SVGID_595_" x="-78.253" y="-17.666" width="1275.59" height="252"/>
	</defs>
	<clipPath id="SVGID_5_">
		<use xlink:href="#SVGID_595_"  overflow="visible"/>
	</clipPath>
</g>
<g>
	<defs>
		<rect id="SVGID_600_" x="-78.253" y="-17.666" width="1275.59" height="252"/>
	</defs>
	<clipPath id="SVGID_7_">
		<use xlink:href="#SVGID_600_"  overflow="visible"/>
	</clipPath>
</g>
<g>
	<defs>
		<rect id="SVGID_605_" x="-78.253" y="-17.666" width="1275.59" height="252"/>
	</defs>
	<clipPath id="SVGID_8_">
		<use xlink:href="#SVGID_605_"  overflow="visible"/>
	</clipPath>
</g>
<g>
	<defs>
		<rect id="SVGID_613_" x="-78.253" y="-17.666" width="1275.59" height="252"/>
	</defs>
	<clipPath id="SVGID_10_">
		<use xlink:href="#SVGID_613_"  overflow="visible"/>
	</clipPath>
</g>
<g>
	<defs>
		<rect id="SVGID_618_" x="-78.253" y="-17.666" width="1275.59" height="252"/>
	</defs>
	<clipPath id="SVGID_11_">
		<use xlink:href="#SVGID_618_"  overflow="visible"/>
	</clipPath>
</g>
<g>
	<defs>
		<rect id="SVGID_623_" x="-78.253" y="-17.666" width="1275.59" height="252"/>
	</defs>
	<clipPath id="SVGID_13_">
		<use xlink:href="#SVGID_623_"  overflow="visible"/>
	</clipPath>
</g>
<g>
	<defs>
		<rect id="SVGID_628_" x="-78.253" y="-17.666" width="1275.59" height="252"/>
	</defs>
	<clipPath id="SVGID_14_">
		<use xlink:href="#SVGID_628_"  overflow="visible"/>
	</clipPath>
</g>
<g>
	<defs>
		<rect id="SVGID_633_" x="-78.253" y="-17.666" width="1275.59" height="252"/>
	</defs>
	<clipPath id="SVGID_16_">
		<use xlink:href="#SVGID_633_"  overflow="visible"/>
	</clipPath>
</g>
<g>
	<defs>
		<rect id="SVGID_638_" x="-78.253" y="-17.666" width="1275.59" height="252"/>
	</defs>
	<clipPath id="SVGID_17_">
		<use xlink:href="#SVGID_638_"  overflow="visible"/>
	</clipPath>
</g>
<g>
	<defs>
		<rect id="SVGID_646_" x="-78.253" y="-17.666" width="1275.59" height="252"/>
	</defs>
	<clipPath id="SVGID_19_">
		<use xlink:href="#SVGID_646_"  overflow="visible"/>
	</clipPath>
</g>
<g>
	<defs>
		<rect id="SVGID_651_" x="-78.253" y="-17.666" width="1275.59" height="252"/>
	</defs>
	<clipPath id="SVGID_20_">
		<use xlink:href="#SVGID_651_"  overflow="visible"/>
	</clipPath>
</g>
<g>
	<defs>
		<rect id="SVGID_656_" x="-78.253" y="-17.666" width="1275.59" height="252"/>
	</defs>
	<clipPath id="SVGID_22_">
		<use xlink:href="#SVGID_656_"  overflow="visible"/>
	</clipPath>
</g>
<g>
	<defs>
		<rect id="SVGID_661_" x="-78.253" y="-17.666" width="1275.59" height="252"/>
	</defs>
	<clipPath id="SVGID_23_">
		<use xlink:href="#SVGID_661_"  overflow="visible"/>
	</clipPath>
</g>
<g>
	<defs>
		<rect id="SVGID_666_" x="-78.253" y="-17.666" width="1275.59" height="252"/>
	</defs>
	<clipPath id="SVGID_25_">
		<use xlink:href="#SVGID_666_"  overflow="visible"/>
	</clipPath>
</g>
<g>
	<defs>
		<rect id="SVGID_671_" x="-78.253" y="-17.666" width="1275.59" height="252"/>
	</defs>
	<clipPath id="SVGID_26_">
		<use xlink:href="#SVGID_671_"  overflow="visible"/>
	</clipPath>
</g>
<g>
	<defs>
		<rect id="SVGID_679_" x="-78.253" y="-17.666" width="1275.59" height="252"/>
	</defs>
	<clipPath id="SVGID_28_">
		<use xlink:href="#SVGID_679_"  overflow="visible"/>
	</clipPath>
</g>
<g>
	<defs>
		<rect id="SVGID_684_" x="-78.253" y="-17.666" width="1275.59" height="252"/>
	</defs>
	<clipPath id="SVGID_29_">
		<use xlink:href="#SVGID_684_"  overflow="visible"/>
	</clipPath>
</g>
<g>
	<defs>
		<rect id="SVGID_689_" x="-78.253" y="-17.666" width="1275.59" height="252"/>
	</defs>
	<clipPath id="SVGID_31_">
		<use xlink:href="#SVGID_689_"  overflow="visible"/>
	</clipPath>
</g>
<g>
	<defs>
		<rect id="SVGID_694_" x="-78.253" y="-17.666" width="1275.59" height="252"/>
	</defs>
	<clipPath id="SVGID_32_">
		<use xlink:href="#SVGID_694_"  overflow="visible"/>
	</clipPath>
</g>
<g>
	<defs>
		<rect id="SVGID_699_" x="-78.253" y="-17.666" width="1275.59" height="252"/>
	</defs>
	<clipPath id="SVGID_34_">
		<use xlink:href="#SVGID_699_"  overflow="visible"/>
	</clipPath>
</g>
<g>
	<defs>
		<rect id="SVGID_704_" x="-78.253" y="-17.666" width="1275.59" height="252"/>
	</defs>
	<clipPath id="SVGID_36_">
		<use xlink:href="#SVGID_704_"  overflow="visible"/>
	</clipPath>
</g>
<g>
	<defs>
		<rect id="SVGID_712_" x="-78.253" y="-17.666" width="1275.59" height="252"/>
	</defs>
	<clipPath id="SVGID_37_">
		<use xlink:href="#SVGID_712_"  overflow="visible"/>
	</clipPath>
</g>
<g>
	<defs>
		<rect id="SVGID_717_" x="-78.253" y="-17.666" width="1275.59" height="252"/>
	</defs>
	<clipPath id="SVGID_39_">
		<use xlink:href="#SVGID_717_"  overflow="visible"/>
	</clipPath>
</g>
<g>
	<defs>
		<rect id="SVGID_722_" x="-78.253" y="-17.666" width="1275.59" height="252"/>
	</defs>
	<clipPath id="SVGID_41_">
		<use xlink:href="#SVGID_722_"  overflow="visible"/>
	</clipPath>
</g>
<g>
	<defs>
		<rect id="SVGID_727_" x="-78.253" y="-17.666" width="1275.59" height="252"/>
	</defs>
	<clipPath id="SVGID_42_">
		<use xlink:href="#SVGID_727_"  overflow="visible"/>
	</clipPath>
</g>
<g>
	<defs>
		<rect id="SVGID_732_" x="-78.253" y="-17.666" width="1275.59" height="252"/>
	</defs>
	<clipPath id="SVGID_44_">
		<use xlink:href="#SVGID_732_"  overflow="visible"/>
	</clipPath>
</g>
<g>
	<defs>
		<rect id="SVGID_737_" x="-78.253" y="-17.666" width="1275.59" height="252"/>
	</defs>
	<clipPath id="SVGID_46_">
		<use xlink:href="#SVGID_737_"  overflow="visible"/>
	</clipPath>
</g>
<g>
	<defs>
		<rect id="SVGID_745_" x="-78.253" y="-17.666" width="1275.59" height="252"/>
	</defs>
	<clipPath id="SVGID_47_">
		<use xlink:href="#SVGID_745_"  overflow="visible"/>
	</clipPath>
</g>
<g>
	<defs>
		<rect id="SVGID_750_" x="-78.253" y="-17.666" width="1275.59" height="252"/>
	</defs>
	<clipPath id="SVGID_49_">
		<use xlink:href="#SVGID_750_"  overflow="visible"/>
	</clipPath>
</g>
<g>
	<defs>
		<rect id="SVGID_755_" x="-78.253" y="-17.666" width="1275.59" height="252"/>
	</defs>
	<clipPath id="SVGID_51_">
		<use xlink:href="#SVGID_755_"  overflow="visible"/>
	</clipPath>
</g>
<g>
	<defs>
		<rect id="SVGID_760_" x="-78.253" y="-17.666" width="1275.59" height="252"/>
	</defs>
	<clipPath id="SVGID_52_">
		<use xlink:href="#SVGID_760_"  overflow="visible"/>
	</clipPath>
</g>
<g>
	<defs>
		<rect id="SVGID_765_" x="-78.253" y="-17.666" width="1275.59" height="252"/>
	</defs>
	<clipPath id="SVGID_54_">
		<use xlink:href="#SVGID_765_"  overflow="visible"/>
	</clipPath>
</g>
<g>
	<defs>
		<rect id="SVGID_770_" x="-78.253" y="-17.666" width="1275.59" height="252"/>
	</defs>
	<clipPath id="SVGID_55_">
		<use xlink:href="#SVGID_770_"  overflow="visible"/>
	</clipPath>
</g>
<g>
	<defs>
		<rect id="SVGID_778_" x="-78.253" y="-17.666" width="1275.59" height="252"/>
	</defs>
	<clipPath id="SVGID_57_">
		<use xlink:href="#SVGID_778_"  overflow="visible"/>
	</clipPath>
</g>
<g>
	<defs>
		<rect id="SVGID_783_" x="-78.253" y="-17.666" width="1275.59" height="252"/>
	</defs>
	<clipPath id="SVGID_59_">
		<use xlink:href="#SVGID_783_"  overflow="visible"/>
	</clipPath>
</g>
<g>
	<defs>
		<rect id="SVGID_788_" x="-78.253" y="-17.666" width="1275.59" height="252"/>
	</defs>
	<clipPath id="SVGID_60_">
		<use xlink:href="#SVGID_788_"  overflow="visible"/>
	</clipPath>
</g>
<g>
	<defs>
		<rect id="SVGID_793_" x="-78.253" y="-17.666" width="1275.59" height="252"/>
	</defs>
	<clipPath id="SVGID_62_">
		<use xlink:href="#SVGID_793_"  overflow="visible"/>
	</clipPath>
</g>
<g>
	<defs>
		<rect id="SVGID_798_" x="-78.253" y="-17.666" width="1275.59" height="252"/>
	</defs>
	<clipPath id="SVGID_64_">
		<use xlink:href="#SVGID_798_"  overflow="visible"/>
	</clipPath>
</g>
<g>
	<defs>
		<rect id="SVGID_803_" x="-78.253" y="-17.666" width="1275.59" height="252"/>
	</defs>
	<clipPath id="SVGID_65_">
		<use xlink:href="#SVGID_803_"  overflow="visible"/>
	</clipPath>
</g>
<g>
	<defs>
		<rect id="SVGID_811_" x="-78.253" y="-17.666" width="1275.59" height="252"/>
	</defs>
	<clipPath id="SVGID_67_">
		<use xlink:href="#SVGID_811_"  overflow="visible"/>
	</clipPath>
</g>
<g>
	<defs>
		<rect id="SVGID_816_" x="-78.253" y="-17.666" width="1275.59" height="252"/>
	</defs>
	<clipPath id="SVGID_69_">
		<use xlink:href="#SVGID_816_"  overflow="visible"/>
	</clipPath>
</g>
<g>
	<defs>
		<rect id="SVGID_821_" x="-78.253" y="-17.666" width="1275.59" height="252"/>
	</defs>
	<clipPath id="SVGID_70_">
		<use xlink:href="#SVGID_821_"  overflow="visible"/>
	</clipPath>
</g>
<g>
	<defs>
		<rect id="SVGID_826_" x="-78.253" y="-17.666" width="1275.59" height="252"/>
	</defs>
	<clipPath id="SVGID_72_">
		<use xlink:href="#SVGID_826_"  overflow="visible"/>
	</clipPath>
</g>
<g>
	<defs>
		<rect id="SVGID_831_" x="-78.253" y="-17.666" width="1275.59" height="252"/>
	</defs>
	<clipPath id="SVGID_74_">
		<use xlink:href="#SVGID_831_"  overflow="visible"/>
	</clipPath>
</g>
<g>
	<defs>
		<rect id="SVGID_836_" x="-78.253" y="-17.666" width="1275.59" height="252"/>
	</defs>
	<clipPath id="SVGID_75_">
		<use xlink:href="#SVGID_836_"  overflow="visible"/>
	</clipPath>
</g>
<g>
	<defs>
		<rect id="SVGID_844_" x="-78.253" y="-17.666" width="1275.59" height="252"/>
	</defs>
	<clipPath id="SVGID_77_">
		<use xlink:href="#SVGID_844_"  overflow="visible"/>
	</clipPath>
</g>
<g>
	<defs>
		<rect id="SVGID_849_" x="-78.253" y="-17.666" width="1275.59" height="252"/>
	</defs>
	<clipPath id="SVGID_79_">
		<use xlink:href="#SVGID_849_"  overflow="visible"/>
	</clipPath>
</g>
<g>
	<defs>
		<rect id="SVGID_854_" x="-78.253" y="-17.666" width="1275.59" height="252"/>
	</defs>
	<clipPath id="SVGID_80_">
		<use xlink:href="#SVGID_854_"  overflow="visible"/>
	</clipPath>
</g>
<g>
	<defs>
		<rect id="SVGID_859_" x="-78.253" y="-17.666" width="1275.59" height="252"/>
	</defs>
	<clipPath id="SVGID_82_">
		<use xlink:href="#SVGID_859_"  overflow="visible"/>
	</clipPath>
</g>
<g>
	<defs>
		<rect id="SVGID_864_" x="-78.253" y="-17.666" width="1275.59" height="252"/>
	</defs>
	<clipPath id="SVGID_84_">
		<use xlink:href="#SVGID_864_"  overflow="visible"/>
	</clipPath>
</g>
<g>
	<defs>
		<rect id="SVGID_869_" x="-78.253" y="-17.666" width="1275.59" height="252"/>
	</defs>
	<clipPath id="SVGID_85_">
		<use xlink:href="#SVGID_869_"  overflow="visible"/>
	</clipPath>
</g>
<g>
	<defs>
		<rect id="SVGID_877_" x="-78.253" y="-17.666" width="1275.59" height="252"/>
	</defs>
	<clipPath id="SVGID_87_">
		<use xlink:href="#SVGID_877_"  overflow="visible"/>
	</clipPath>
</g>
<g>
	<defs>
		<rect id="SVGID_882_" x="-78.253" y="-17.666" width="1275.59" height="252"/>
	</defs>
	<clipPath id="SVGID_88_">
		<use xlink:href="#SVGID_882_"  overflow="visible"/>
	</clipPath>
</g>
<g>
	<defs>
		<rect id="SVGID_887_" x="-78.253" y="-17.666" width="1275.59" height="252"/>
	</defs>
	<clipPath id="SVGID_90_">
		<use xlink:href="#SVGID_887_"  overflow="visible"/>
	</clipPath>
</g>
<g>
	<defs>
		<rect id="SVGID_892_" x="-78.253" y="-17.666" width="1275.59" height="252"/>
	</defs>
	<clipPath id="SVGID_92_">
		<use xlink:href="#SVGID_892_"  overflow="visible"/>
	</clipPath>
</g>
<g>
	<defs>
		<rect id="SVGID_897_" x="-78.253" y="-17.666" width="1275.59" height="252"/>
	</defs>
	<clipPath id="SVGID_93_">
		<use xlink:href="#SVGID_897_"  overflow="visible"/>
	</clipPath>
</g>
<g>
	<defs>
		<rect id="SVGID_902_" x="-78.253" y="-17.666" width="1275.59" height="252"/>
	</defs>
	<clipPath id="SVGID_95_">
		<use xlink:href="#SVGID_902_"  overflow="visible"/>
	</clipPath>
</g>
<g>
	<defs>
		<rect id="SVGID_910_" x="-78.253" y="-17.666" width="1275.59" height="252"/>
	</defs>
	<clipPath id="SVGID_97_">
		<use xlink:href="#SVGID_910_"  overflow="visible"/>
	</clipPath>
</g>
<g>
	<defs>
		<rect id="SVGID_915_" x="-78.253" y="-17.666" width="1275.59" height="252"/>
	</defs>
	<clipPath id="SVGID_98_">
		<use xlink:href="#SVGID_915_"  overflow="visible"/>
	</clipPath>
</g>
<g>
	<defs>
		<rect id="SVGID_920_" x="-78.253" y="-17.666" width="1275.59" height="252"/>
	</defs>
	<clipPath id="SVGID_100_">
		<use xlink:href="#SVGID_920_"  overflow="visible"/>
	</clipPath>
</g>
<g>
	<defs>
		<rect id="SVGID_925_" x="-78.253" y="-17.666" width="1275.59" height="252"/>
	</defs>
	<clipPath id="SVGID_102_">
		<use xlink:href="#SVGID_925_"  overflow="visible"/>
	</clipPath>
</g>
<g>
	<defs>
		<rect id="SVGID_930_" x="-78.253" y="-17.666" width="1275.59" height="252"/>
	</defs>
	<clipPath id="SVGID_103_">
		<use xlink:href="#SVGID_930_"  overflow="visible"/>
	</clipPath>
</g>
<g>
	<defs>
		<rect id="SVGID_935_" x="-78.253" y="-17.666" width="1275.59" height="252"/>
	</defs>
	<clipPath id="SVGID_105_">
		<use xlink:href="#SVGID_935_"  overflow="visible"/>
	</clipPath>
</g>
<g>
	<defs>
		<rect id="SVGID_943_" x="-78.253" y="-17.666" width="1275.59" height="252"/>
	</defs>
	<clipPath id="SVGID_107_">
		<use xlink:href="#SVGID_943_"  overflow="visible"/>
	</clipPath>
</g>
<g>
	<defs>
		<rect id="SVGID_948_" x="-78.253" y="-17.666" width="1275.59" height="252"/>
	</defs>
	<clipPath id="SVGID_108_">
		<use xlink:href="#SVGID_948_"  overflow="visible"/>
	</clipPath>
</g>
<g>
	<defs>
		<rect id="SVGID_953_" x="-78.253" y="-17.666" width="1275.59" height="252"/>
	</defs>
	<clipPath id="SVGID_110_">
		<use xlink:href="#SVGID_953_"  overflow="visible"/>
	</clipPath>
</g>
<g>
	<defs>
		<rect id="SVGID_958_" x="-78.253" y="-17.666" width="1275.59" height="252"/>
	</defs>
	<clipPath id="SVGID_112_">
		<use xlink:href="#SVGID_958_"  overflow="visible"/>
	</clipPath>
</g>
<g>
	<defs>
		<rect id="SVGID_963_" x="-78.253" y="-17.666" width="1275.59" height="252"/>
	</defs>
	<clipPath id="SVGID_113_">
		<use xlink:href="#SVGID_963_"  overflow="visible"/>
	</clipPath>
</g>
<g>
	<defs>
		<rect id="SVGID_968_" x="-78.253" y="-17.666" width="1275.59" height="252"/>
	</defs>
	<clipPath id="SVGID_115_">
		<use xlink:href="#SVGID_968_"  overflow="visible"/>
	</clipPath>
</g>
<g>
	<defs>
		<rect id="SVGID_976_" x="-78.253" y="-17.666" width="1275.59" height="252"/>
	</defs>
	<clipPath id="SVGID_117_">
		<use xlink:href="#SVGID_976_"  overflow="visible"/>
	</clipPath>
</g>
<g>
	<defs>
		<rect id="SVGID_981_" x="-78.253" y="-17.666" width="1275.59" height="252"/>
	</defs>
	<clipPath id="SVGID_118_">
		<use xlink:href="#SVGID_981_"  overflow="visible"/>
	</clipPath>
</g>
<g>
	<defs>
		<rect id="SVGID_986_" x="-78.253" y="-17.666" width="1275.59" height="252"/>
	</defs>
	<clipPath id="SVGID_120_">
		<use xlink:href="#SVGID_986_"  overflow="visible"/>
	</clipPath>
</g>
<g>
	<defs>
		<rect id="SVGID_991_" x="-78.253" y="-17.666" width="1275.59" height="252"/>
	</defs>
	<clipPath id="SVGID_121_">
		<use xlink:href="#SVGID_991_"  overflow="visible"/>
	</clipPath>
</g>
<g>
	<defs>
		<rect id="SVGID_996_" x="-78.253" y="-17.666" width="1275.59" height="252"/>
	</defs>
	<clipPath id="SVGID_123_">
		<use xlink:href="#SVGID_996_"  overflow="visible"/>
	</clipPath>
</g>
<g>
	<defs>
		<rect id="SVGID_1001_" x="-78.253" y="-17.666" width="1275.59" height="252"/>
	</defs>
	<clipPath id="SVGID_125_">
		<use xlink:href="#SVGID_1001_"  overflow="visible"/>
	</clipPath>
</g>
<g>
	<defs>
		<rect id="SVGID_1009_" x="-78.253" y="-17.666" width="1275.59" height="252"/>
	</defs>
	<clipPath id="SVGID_126_">
		<use xlink:href="#SVGID_1009_"  overflow="visible"/>
	</clipPath>
</g>
<g>
	<defs>
		<rect id="SVGID_1014_" x="-78.253" y="-17.666" width="1275.59" height="252"/>
	</defs>
	<clipPath id="SVGID_128_">
		<use xlink:href="#SVGID_1014_"  overflow="visible"/>
	</clipPath>
</g>
<g>
	<defs>
		<rect id="SVGID_1019_" x="-78.253" y="-17.666" width="1275.59" height="252"/>
	</defs>
	<clipPath id="SVGID_130_">
		<use xlink:href="#SVGID_1019_"  overflow="visible"/>
	</clipPath>
</g>
<g>
	<defs>
		<rect id="SVGID_1024_" x="-78.253" y="-17.666" width="1275.59" height="252"/>
	</defs>
	<clipPath id="SVGID_131_">
		<use xlink:href="#SVGID_1024_"  overflow="visible"/>
	</clipPath>
</g>
<g>
	<defs>
		<rect id="SVGID_1029_" x="-78.253" y="-17.666" width="1275.59" height="252"/>
	</defs>
	<clipPath id="SVGID_133_">
		<use xlink:href="#SVGID_1029_"  overflow="visible"/>
	</clipPath>
</g>
<g>
	<defs>
		<rect id="SVGID_1034_" x="-78.253" y="-17.666" width="1275.59" height="252"/>
	</defs>
	<clipPath id="SVGID_135_">
		<use xlink:href="#SVGID_1034_"  overflow="visible"/>
	</clipPath>
</g>
<g>
	<defs>
		<rect id="SVGID_1042_" x="-78.253" y="-17.666" width="1275.59" height="252"/>
	</defs>
	<clipPath id="SVGID_136_">
		<use xlink:href="#SVGID_1042_"  overflow="visible"/>
	</clipPath>
</g>
<g>
	<defs>
		<rect id="SVGID_1047_" x="-78.253" y="-17.666" width="1275.59" height="252"/>
	</defs>
	<clipPath id="SVGID_138_">
		<use xlink:href="#SVGID_1047_"  overflow="visible"/>
	</clipPath>
	<rect x="50.789" y="3.579" clip-path="url(#SVGID_138_)" fill="#3D3D3F" width="43.333" height="205.088"/>
</g>
<g>
	<defs>
		<rect id="SVGID_1049_" x="50.789" y="208.673" width="43.333" height="8.229"/>
	</defs>
	<clipPath id="SVGID_140_">
		<use xlink:href="#SVGID_1049_"  overflow="visible"/>
	</clipPath>
	
		<linearGradient id="SVGID_141_" gradientUnits="userSpaceOnUse" x1="-4.125" y1="-284.5625" x2="-3.1246" y2="-284.5625" gradientTransform="matrix(0 7 7 0 2064.3916 238.3721)">
		<stop  offset="0" style="stop-color:#3D3D3F"/>
		<stop  offset="0.1854" style="stop-color:#46474A"/>
		<stop  offset="0.3292" style="stop-color:#444548"/>
		<stop  offset="0.4035" style="stop-color:#3C3D40"/>
		<stop  offset="0.4618" style="stop-color:#2F3033"/>
		<stop  offset="0.4762" style="stop-color:#2A2B2E"/>
		<stop  offset="0.7914" style="stop-color:#28292C"/>
		<stop  offset="0.9666" style="stop-color:#202124"/>
		<stop  offset="1" style="stop-color:#1D1E21"/>
	</linearGradient>
	<rect x="50.789" y="208.673" clip-path="url(#SVGID_140_)" fill="url(#SVGID_141_)" width="43.333" height="8.229"/>
</g>
<g>
	<defs>
		<rect id="SVGID_1052_" x="-78.253" y="-17.666" width="1275.59" height="252"/>
	</defs>
	<clipPath id="SVGID_143_">
		<use xlink:href="#SVGID_1052_"  overflow="visible"/>
	</clipPath>
</g>
<g>
	<defs>
		<rect id="SVGID_1057_" x="-78.253" y="-17.666" width="1275.59" height="252"/>
	</defs>
	<clipPath id="SVGID_145_">
		<use xlink:href="#SVGID_1057_"  overflow="visible"/>
	</clipPath>
</g>
<g>
	<defs>
		<rect id="SVGID_1062_" x="-78.253" y="-17.666" width="1275.59" height="252"/>
	</defs>
	<clipPath id="SVGID_146_">
		<use xlink:href="#SVGID_1062_"  overflow="visible"/>
	</clipPath>
</g>
<g>
	<defs>
		<rect id="SVGID_1067_" x="-78.253" y="-17.666" width="1275.59" height="252"/>
	</defs>
	<clipPath id="SVGID_148_">
		<use xlink:href="#SVGID_1067_"  overflow="visible"/>
	</clipPath>
</g>
<g>
	<defs>
		<rect id="SVGID_1075_" x="-78.253" y="-17.666" width="1275.59" height="252"/>
	</defs>
	<clipPath id="SVGID_150_">
		<use xlink:href="#SVGID_1075_"  overflow="visible"/>
	</clipPath>
</g>
<g>
	<defs>
		<rect id="SVGID_1077_" x="50.789" y="3.578" width="43.333" height="5.089"/>
	</defs>
	<clipPath id="SVGID_151_">
		<use xlink:href="#SVGID_1077_"  overflow="visible"/>
	</clipPath>
	
		<linearGradient id="SVGID_153_" gradientUnits="userSpaceOnUse" x1="23.7339" y1="-284.5625" x2="24.7339" y2="-284.5625" gradientTransform="matrix(0 5.0879 5.0879 0 1520.277 -117.3147)">
		<stop  offset="0" style="stop-color:#723731"/>
		<stop  offset="0.0108" style="stop-color:#7C3D35"/>
		<stop  offset="0.0461" style="stop-color:#974D41"/>
		<stop  offset="0.0867" style="stop-color:#AD5A4B"/>
		<stop  offset="0.134" style="stop-color:#BD6453"/>
		<stop  offset="0.1925" style="stop-color:#C96B58"/>
		<stop  offset="0.2744" style="stop-color:#D06F5B"/>
		<stop  offset="0.5" style="stop-color:#D2705C"/>
		<stop  offset="0.7256" style="stop-color:#D06F5B"/>
		<stop  offset="0.8075" style="stop-color:#C96B58"/>
		<stop  offset="0.866" style="stop-color:#BD6453"/>
		<stop  offset="0.9133" style="stop-color:#AD5A4B"/>
		<stop  offset="0.9539" style="stop-color:#974D41"/>
		<stop  offset="0.9892" style="stop-color:#7C3D35"/>
		<stop  offset="1" style="stop-color:#723731"/>
	</linearGradient>
	<rect x="50.789" y="3.578" clip-path="url(#SVGID_151_)" fill="url(#SVGID_153_)" width="43.333" height="5.089"/>
</g>
<g>
	<defs>
		<rect id="SVGID_1080_" x="-78.253" y="-17.666" width="1275.59" height="252"/>
	</defs>
	<clipPath id="SVGID_154_">
		<use xlink:href="#SVGID_1080_"  overflow="visible"/>
	</clipPath>
	<rect x="3.966" y="3.579" clip-path="url(#SVGID_154_)" fill="#3D3D3F" width="43.333" height="205.088"/>
</g>
<g>
	<defs>
		<rect id="SVGID_1082_" x="3.966" y="208.673" width="43.333" height="8.229"/>
	</defs>
	<clipPath id="SVGID_156_">
		<use xlink:href="#SVGID_1082_"  overflow="visible"/>
	</clipPath>
	
		<linearGradient id="SVGID_158_" gradientUnits="userSpaceOnUse" x1="-4.125" y1="-284.5625" x2="-3.1246" y2="-284.5625" gradientTransform="matrix(0 7 7 0 2017.5713 238.3721)">
		<stop  offset="0" style="stop-color:#3D3D3F"/>
		<stop  offset="0.1854" style="stop-color:#46474A"/>
		<stop  offset="0.3292" style="stop-color:#444548"/>
		<stop  offset="0.4035" style="stop-color:#3C3D40"/>
		<stop  offset="0.4618" style="stop-color:#2F3033"/>
		<stop  offset="0.4762" style="stop-color:#2A2B2E"/>
		<stop  offset="0.7914" style="stop-color:#28292C"/>
		<stop  offset="0.9666" style="stop-color:#202124"/>
		<stop  offset="1" style="stop-color:#1D1E21"/>
	</linearGradient>
	<rect x="3.966" y="208.673" clip-path="url(#SVGID_156_)" fill="url(#SVGID_158_)" width="43.333" height="8.229"/>
</g>
<g>
	<defs>
		<rect id="SVGID_1085_" x="-78.253" y="-17.666" width="1275.59" height="252"/>
	</defs>
	<clipPath id="SVGID_159_">
		<use xlink:href="#SVGID_1085_"  overflow="visible"/>
	</clipPath>
	<rect x="5.56" y="173.453" clip-path="url(#SVGID_159_)" fill="#202123" width="40.146" height="35.214"/>
	<rect x="10.999" y="20.175" clip-path="url(#SVGID_159_)" fill="#3D3D3F" width="27.458" height="148.523"/>
	<rect x="10.999" y="69.762" clip-path="url(#SVGID_159_)" fill="#1C1D20" width="27.458" height="50.113"/>
	<path clip-path="url(#SVGID_159_)" fill="#3D3D3F" d="M33.184,92.56l-2.637-4.567l2.637-4.566h5.273V80.41h-5.273l-2.637-4.567
		l2.637-4.567h5.273v-1.513H31.25l-2.566,4.444H23.41l-2.566-4.444H11v6.08l2.637-4.567h5.274l2.636,4.567l-2.636,4.567h-5.274
		L11,75.843v12.149l2.637-4.566h5.274l2.636,4.566l-2.636,4.567h-5.274L11,87.992v12.15l2.637-4.566h5.274l2.636,4.566l-2.636,4.566
		h-5.274L11,100.143v12.15l2.637-4.567h5.274l2.636,4.567l-2.636,4.566h-5.274L11,112.293v8.059h2.362l0.275-0.477h5.274
		l0.275,0.477h2.807l-1.22-2.112l2.637-4.567h5.274l2.637,4.567l-1.22,2.112h2.808l0.275-0.477h5.273v-3.016h-5.273l-2.637-4.566
		l2.637-4.567h5.273v-3.017h-5.273l-2.637-4.566l2.637-4.566h5.273V92.56H33.184z M20.772,81.789l2.637-4.566h5.274l2.637,4.566
		l-2.637,4.567H23.41L20.772,81.789z M31.32,106.09l-2.637,4.566H23.41l-2.637-4.566l2.637-4.567h5.274L31.32,106.09z
		 M28.684,98.507H23.41l-2.637-4.567l2.637-4.566h5.274l2.637,4.566L28.684,98.507z"/>
	<polygon clip-path="url(#SVGID_159_)" fill="#1C1D20" points="28.684,74.207 31.25,69.762 20.843,69.762 23.41,74.207 	"/>
	<polygon clip-path="url(#SVGID_159_)" fill="#1C1D20" points="28.684,86.357 31.32,81.79 28.684,77.223 23.41,77.223 20.772,81.79 
		23.41,86.357 	"/>
	<polygon clip-path="url(#SVGID_159_)" fill="#1C1D20" points="23.41,89.372 20.772,93.939 23.41,98.506 28.684,98.506 
		31.321,93.939 28.684,89.372 	"/>
	<polygon clip-path="url(#SVGID_159_)" fill="#1C1D20" points="23.41,101.521 20.772,106.09 23.41,110.656 28.684,110.656 
		31.321,106.09 28.684,101.521 	"/>
	<polygon clip-path="url(#SVGID_159_)" fill="#1C1D20" points="28.684,113.672 23.41,113.672 20.772,118.239 21.993,120.353 
		30.101,120.353 31.32,118.239 	"/>
	<polygon clip-path="url(#SVGID_159_)" fill="#1C1D20" points="30.546,75.843 33.183,80.41 38.457,80.41 38.457,71.275 
		33.183,71.275 	"/>
	<polygon clip-path="url(#SVGID_159_)" fill="#1C1D20" points="30.546,87.992 33.183,92.56 38.457,92.56 38.457,83.426 
		33.183,83.426 	"/>
	<polygon clip-path="url(#SVGID_159_)" fill="#1C1D20" points="30.546,100.143 33.183,104.709 38.457,104.709 38.457,95.576 
		33.183,95.576 	"/>
	<polygon clip-path="url(#SVGID_159_)" fill="#1C1D20" points="30.546,112.292 33.183,116.859 38.457,116.859 38.457,107.726 
		33.183,107.726 	"/>
	<polygon clip-path="url(#SVGID_159_)" fill="#1C1D20" points="32.908,120.352 38.457,120.352 38.457,119.875 33.183,119.875 	"/>
	<polygon clip-path="url(#SVGID_159_)" fill="#1C1D20" points="18.91,80.41 21.547,75.843 18.91,71.275 13.636,71.275 
		10.999,75.843 13.636,80.41 	"/>
	<polygon clip-path="url(#SVGID_159_)" fill="#1C1D20" points="18.91,92.56 21.547,87.992 18.91,83.426 13.636,83.426 
		10.999,87.992 13.636,92.56 	"/>
	<polygon clip-path="url(#SVGID_159_)" fill="#1C1D20" points="18.91,104.709 21.547,100.143 18.91,95.576 13.636,95.576 
		10.999,100.143 13.636,104.709 	"/>
	<polygon clip-path="url(#SVGID_159_)" fill="#1C1D20" points="18.91,116.859 21.547,112.293 18.91,107.726 13.636,107.726 
		10.999,112.293 13.636,116.859 	"/>
	<polygon clip-path="url(#SVGID_159_)" fill="#1C1D20" points="13.636,119.875 13.361,120.353 19.185,120.353 18.91,119.875 	"/>
</g>
<g>
	<defs>
		<path id="SVGID_1087_" d="M13.636,107.727h5.274l2.637,4.565l-2.637,4.568h-5.274l-2.637-4.568L13.636,107.727z M20.773,106.089
			l2.636-4.567h5.274l2.637,4.567l-2.637,4.568h-5.274L20.773,106.089z M13.636,95.576h5.274l2.637,4.566l-2.637,4.567h-5.274
			l-2.637-4.567L13.636,95.576z M20.773,93.939l2.636-4.567h5.274l2.637,4.567l-2.637,4.567h-5.274L20.773,93.939z M13.636,83.426
			h5.274l2.637,4.566l-2.637,4.568h-5.274l-2.637-4.568L13.636,83.426z M20.773,81.789l2.636-4.566h5.274l2.637,4.566l-2.637,4.568
			h-5.274L20.773,81.789z M13.636,71.275h5.274l2.637,4.566L18.91,80.41h-5.274l-2.637-4.568L13.636,71.275z M31.249,69.764
			l-2.566,4.443h-5.274l-2.566-4.443h-9.844v6.078v12.15v12.15v12.149v8.06h2.362l0.275-0.477h5.274l0.276,0.477h2.807l-1.22-2.112
			l2.636-4.567h5.274l2.637,4.567l-1.219,2.112h2.807l0.275-0.477h5.274v-3.015h-5.274l-2.637-4.568l2.637-4.565h5.274v-3.017
			h-5.274l-2.637-4.567l2.637-4.566h5.274v-3.016h-5.274l-2.637-4.568l2.637-4.566h5.274V80.41h-5.274l-2.637-4.568l2.637-4.566
			h5.274v-1.512H31.249z"/>
	</defs>
	<clipPath id="SVGID_161_">
		<use xlink:href="#SVGID_1087_"  overflow="visible"/>
	</clipPath>
	
		<radialGradient id="SVGID_163_" cx="-78.2529" cy="-298.8086" r="1" gradientTransform="matrix(15.9302 0 0 -36.4233 1271.3162 -10788.541)" gradientUnits="userSpaceOnUse">
		<stop  offset="0" style="stop-color:#848484"/>
		<stop  offset="1" style="stop-color:#1C1D20"/>
	</radialGradient>
	<rect x="10.999" y="69.764" clip-path="url(#SVGID_161_)" fill="url(#SVGID_163_)" width="27.458" height="50.588"/>
</g>
<g>
	<defs>
		<rect id="SVGID_1090_" x="-78.253" y="-17.666" width="1275.59" height="252"/>
	</defs>
	<clipPath id="SVGID_164_">
		<use xlink:href="#SVGID_1090_"  overflow="visible"/>
	</clipPath>
	<rect x="10.999" y="20.175" clip-path="url(#SVGID_164_)" fill="#1C1D20" width="27.458" height="42.325"/>
	<path clip-path="url(#SVGID_164_)" fill="#3D3D3F" d="M33.184,45.34l-2.637-4.567l2.637-4.567h5.273v-3.016h-5.273l-2.637-4.566
		l2.637-4.567h5.273v-3.881h-8.432l1.296,2.245l-2.637,4.566H23.41l-2.637-4.566l1.296-2.245H11v8.448l2.637-4.567h5.274
		l2.636,4.567l-2.636,4.566h-5.274L11,28.623v12.149l2.637-4.567h5.274l2.636,4.567l-2.636,4.567h-5.274L11,40.772v12.15
		l2.637-4.567h5.274l2.636,4.567l-2.636,4.567h-5.274L11,52.923V62.5h1.485l1.152-1.994h5.274l1.151,1.994h2.807l-2.096-3.631
		l2.637-4.566h5.274l2.637,4.566L29.225,62.5h2.807l1.152-1.994h5.273V57.49h-5.273l-2.637-4.567l2.637-4.567h5.273V45.34H33.184z
		 M20.772,34.57l2.637-4.567h5.274l2.637,4.567l-2.637,4.566H23.41L20.772,34.57z M28.684,51.287H23.41l-2.637-4.567l2.637-4.567
		h5.274l2.637,4.567L28.684,51.287z"/>
	<polygon clip-path="url(#SVGID_164_)" fill="#1C1D20" points="23.41,26.986 28.684,26.986 31.321,22.42 30.025,20.175 
		22.069,20.175 20.772,22.42 	"/>
	<polygon clip-path="url(#SVGID_164_)" fill="#1C1D20" points="28.684,39.137 31.32,34.57 28.684,30.003 23.41,30.003 20.772,34.57 
		23.41,39.137 	"/>
	<polygon clip-path="url(#SVGID_164_)" fill="#1C1D20" points="23.41,42.152 20.772,46.719 23.41,51.286 28.684,51.286 
		31.321,46.719 28.684,42.152 	"/>
	<polygon clip-path="url(#SVGID_164_)" fill="#1C1D20" points="28.684,54.303 23.41,54.303 20.772,58.869 22.869,62.5 29.225,62.5 
		31.32,58.869 	"/>
	<polygon clip-path="url(#SVGID_164_)" fill="#1C1D20" points="30.546,28.623 33.183,33.189 38.457,33.189 38.457,24.056 
		33.183,24.056 	"/>
	<polygon clip-path="url(#SVGID_164_)" fill="#1C1D20" points="30.546,40.772 33.183,45.34 38.457,45.34 38.457,36.205 
		33.183,36.205 	"/>
	<polygon clip-path="url(#SVGID_164_)" fill="#1C1D20" points="30.546,52.922 33.183,57.489 38.457,57.489 38.457,48.355 
		33.183,48.355 	"/>
	<polygon clip-path="url(#SVGID_164_)" fill="#1C1D20" points="32.031,62.5 38.457,62.5 38.457,60.505 33.184,60.505 	"/>
	<polygon clip-path="url(#SVGID_164_)" fill="#1C1D20" points="18.91,33.189 21.547,28.623 18.91,24.056 13.636,24.056 
		10.999,28.623 13.636,33.189 	"/>
	<polygon clip-path="url(#SVGID_164_)" fill="#1C1D20" points="18.91,45.34 21.547,40.773 18.91,36.205 13.636,36.205 
		10.999,40.773 13.636,45.34 	"/>
	<polygon clip-path="url(#SVGID_164_)" fill="#1C1D20" points="18.91,57.49 21.547,52.923 18.91,48.355 13.636,48.355 
		10.999,52.923 13.636,57.49 	"/>
	<polygon clip-path="url(#SVGID_164_)" fill="#1C1D20" points="13.636,60.506 12.484,62.5 20.061,62.5 18.91,60.506 	"/>
</g>
<g>
	<defs>
		<path id="SVGID_1092_" d="M13.636,48.355h5.274l2.637,4.567l-2.637,4.565h-5.274l-2.637-4.565L13.636,48.355z M20.773,46.719
			l2.636-4.566h5.274l2.637,4.566l-2.637,4.568h-5.274L20.773,46.719z M13.636,36.205h5.274l2.637,4.568l-2.637,4.565h-5.274
			l-2.637-4.565L13.636,36.205z M20.773,34.57l2.636-4.567h5.274l2.637,4.567l-2.637,4.566h-5.274L20.773,34.57z M13.636,24.055
			h5.274l2.637,4.568l-2.637,4.566h-5.274l-2.637-4.566L13.636,24.055z M30.024,20.174l1.296,2.246l-2.637,4.566h-5.274
			l-2.636-4.566l1.296-2.246h-11.07v8.449v12.15v12.149V62.5h1.485l1.152-1.995h5.274l1.151,1.995h2.808l-2.096-3.631l2.636-4.566
			h5.274l2.637,4.566L29.224,62.5h2.807l1.152-1.995h5.274v-3.017h-5.274l-2.637-4.565l2.637-4.567h5.274v-3.017h-5.274
			l-2.637-4.565l2.637-4.568h5.274v-3.016h-5.274l-2.637-4.566l2.637-4.568h5.274v-3.881H30.024z"/>
	</defs>
	<clipPath id="SVGID_166_">
		<use xlink:href="#SVGID_1092_"  overflow="visible"/>
	</clipPath>
	
		<radialGradient id="SVGID_168_" cx="-78.2529" cy="-304.2656" r="1.0004" gradientTransform="matrix(12.5851 0 0 -26.3374 1009.5513 -7972.1992)" gradientUnits="userSpaceOnUse">
		<stop  offset="0" style="stop-color:#848484"/>
		<stop  offset="1" style="stop-color:#1C1D20"/>
	</radialGradient>
	<rect x="10.999" y="20.174" clip-path="url(#SVGID_166_)" fill="url(#SVGID_168_)" width="27.458" height="42.326"/>
</g>
<g>
	<defs>
		<rect id="SVGID_1095_" x="-78.253" y="-17.666" width="1275.59" height="252"/>
	</defs>
	<clipPath id="SVGID_169_">
		<use xlink:href="#SVGID_1095_"  overflow="visible"/>
	</clipPath>
	<rect x="10.999" y="127.557" clip-path="url(#SVGID_169_)" fill="#1C1D20" width="27.458" height="42.325"/>
	<path clip-path="url(#SVGID_169_)" fill="#3D3D3F" d="M33.184,152.722l-2.637-4.567l2.637-4.567h5.273v-3.016h-5.273l-2.637-4.567
		l2.637-4.566h5.273v-3.881h-8.432l1.296,2.245l-2.637,4.566H23.41l-2.637-4.566l1.296-2.245H11v8.447l2.637-4.566h5.274
		l2.636,4.566l-2.636,4.567h-5.274L11,136.004v12.15l2.637-4.567h5.274l2.636,4.567l-2.636,4.567h-5.274L11,148.154v12.15
		l2.637-4.567h5.274l2.636,4.567l-2.636,4.566h-5.274L11,160.305v9.577h1.485l1.152-1.994h5.274l1.151,1.994h2.807l-2.096-3.631
		l2.637-4.566h5.274l2.637,4.566l-2.096,3.631h2.807l1.152-1.994h5.273v-3.017h-5.273l-2.637-4.566l2.637-4.567h5.273v-3.016H33.184
		z M20.772,141.951l2.637-4.566h5.274l2.637,4.566l-2.637,4.567H23.41L20.772,141.951z M28.684,158.668H23.41l-2.637-4.566
		l2.637-4.567h5.274l2.637,4.567L28.684,158.668z"/>
	<polygon clip-path="url(#SVGID_169_)" fill="#1C1D20" points="23.41,134.368 28.684,134.368 31.321,129.802 30.025,127.557 
		22.069,127.557 20.772,129.802 	"/>
	<polygon clip-path="url(#SVGID_169_)" fill="#1C1D20" points="28.684,146.519 31.32,141.951 28.684,137.385 23.41,137.385 
		20.772,141.951 23.41,146.519 	"/>
	<polygon clip-path="url(#SVGID_169_)" fill="#1C1D20" points="23.41,149.534 20.772,154.101 23.41,158.668 28.684,158.668 
		31.321,154.101 28.684,149.534 	"/>
	<polygon clip-path="url(#SVGID_169_)" fill="#1C1D20" points="28.684,161.684 23.41,161.684 20.772,166.251 22.869,169.882 
		29.225,169.882 31.32,166.251 	"/>
	<polygon clip-path="url(#SVGID_169_)" fill="#1C1D20" points="30.546,136.004 33.183,140.571 38.457,140.571 38.457,131.438 
		33.183,131.438 	"/>
	<polygon clip-path="url(#SVGID_169_)" fill="#1C1D20" points="30.546,148.154 33.183,152.722 38.457,152.722 38.457,143.587 
		33.183,143.587 	"/>
	<polygon clip-path="url(#SVGID_169_)" fill="#1C1D20" points="30.546,160.304 33.183,164.871 38.457,164.871 38.457,155.737 
		33.183,155.737 	"/>
	<polygon clip-path="url(#SVGID_169_)" fill="#1C1D20" points="32.031,169.882 38.457,169.882 38.457,167.887 33.184,167.887 	"/>
	<polygon clip-path="url(#SVGID_169_)" fill="#1C1D20" points="18.91,140.571 21.547,136.005 18.91,131.438 13.636,131.438 
		10.999,136.005 13.636,140.571 	"/>
	<polygon clip-path="url(#SVGID_169_)" fill="#1C1D20" points="18.91,152.722 21.547,148.154 18.91,143.588 13.636,143.588 
		10.999,148.154 13.636,152.722 	"/>
	<polygon clip-path="url(#SVGID_169_)" fill="#1C1D20" points="18.91,164.871 21.547,160.305 18.91,155.737 13.636,155.737 
		10.999,160.305 13.636,164.871 	"/>
	<polygon clip-path="url(#SVGID_169_)" fill="#1C1D20" points="13.636,167.887 12.484,169.882 20.061,169.882 18.91,167.887 	"/>
</g>
<g>
	<defs>
		<path id="SVGID_1097_" d="M13.636,155.737h5.274l2.637,4.567l-2.637,4.566h-5.274l-2.637-4.566L13.636,155.737z M20.773,154.101
			l2.636-4.566h5.274l2.637,4.566l-2.637,4.567h-5.274L20.773,154.101z M13.636,143.587h5.274l2.637,4.567l-2.637,4.566h-5.274
			l-2.637-4.566L13.636,143.587z M20.773,141.952l2.636-4.568h5.274l2.637,4.568l-2.637,4.565h-5.274L20.773,141.952z
			 M13.636,131.437h5.274l2.637,4.568l-2.637,4.567h-5.274l-2.637-4.567L13.636,131.437z M30.024,127.556l1.296,2.246l-2.637,4.566
			h-5.274l-2.636-4.566l1.296-2.246h-11.07v8.449v12.149v12.15v9.576h1.485l1.152-1.994h5.274l1.151,1.994h2.808l-2.096-3.63
			l2.636-4.567h5.274l2.637,4.567l-2.096,3.63h2.807l1.152-1.994h5.274v-3.016h-5.274l-2.637-4.566l2.637-4.567h5.274v-3.017h-5.274
			l-2.637-4.566l2.637-4.567h5.274v-3.015h-5.274l-2.637-4.567l2.637-4.568h5.274v-3.881H30.024z"/>
	</defs>
	<clipPath id="SVGID_171_">
		<use xlink:href="#SVGID_1097_"  overflow="visible"/>
	</clipPath>
	
		<radialGradient id="SVGID_173_" cx="-78.2529" cy="-304.2637" r="0.9996" gradientTransform="matrix(12.5851 0 0 -26.3374 1009.5513 -7864.8086)" gradientUnits="userSpaceOnUse">
		<stop  offset="0" style="stop-color:#848484"/>
		<stop  offset="1" style="stop-color:#1C1D20"/>
	</radialGradient>
	<rect x="10.999" y="127.556" clip-path="url(#SVGID_171_)" fill="url(#SVGID_173_)" width="27.458" height="42.325"/>
</g>
<g>
	<defs>
		<rect id="SVGID_1100_" x="-78.253" y="-17.666" width="1275.59" height="252"/>
	</defs>
	<clipPath id="SVGID_174_">
		<use xlink:href="#SVGID_1100_"  overflow="visible"/>
	</clipPath>
	<rect x="10.999" y="62.5" clip-path="url(#SVGID_174_)" fill="#3D3D3F" width="27.458" height="7.262"/>
</g>
<g>
	<defs>
		<rect id="SVGID_1102_" x="10.999" y="62.5" width="27.458" height="7.264"/>
	</defs>
	<clipPath id="SVGID_176_">
		<use xlink:href="#SVGID_1102_"  overflow="visible"/>
	</clipPath>
	
		<linearGradient id="SVGID_178_" gradientUnits="userSpaceOnUse" x1="-78.2529" y1="-303.4609" x2="-77.2529" y2="-303.4609" gradientTransform="matrix(27.4575 0 0 -27.4575 2159.6284 -8266.1465)">
		<stop  offset="0" style="stop-color:#1C1D20"/>
		<stop  offset="0.0056" style="stop-color:#1F1F22"/>
		<stop  offset="0.0729" style="stop-color:#39383A"/>
		<stop  offset="0.1467" style="stop-color:#4D4C4D"/>
		<stop  offset="0.2306" style="stop-color:#5B5A5A"/>
		<stop  offset="0.3321" style="stop-color:#636262"/>
		<stop  offset="0.5" style="stop-color:#666464"/>
		<stop  offset="0.6679" style="stop-color:#636262"/>
		<stop  offset="0.7694" style="stop-color:#5B5A5A"/>
		<stop  offset="0.8533" style="stop-color:#4D4C4D"/>
		<stop  offset="0.9271" style="stop-color:#39383A"/>
		<stop  offset="0.9944" style="stop-color:#1F1F22"/>
		<stop  offset="1" style="stop-color:#1C1D20"/>
	</linearGradient>
	<rect x="10.999" y="62.5" clip-path="url(#SVGID_176_)" fill="url(#SVGID_178_)" width="27.458" height="7.264"/>
</g>
<g>
	<defs>
		<rect id="SVGID_1105_" x="10.999" y="120.352" width="27.458" height="7.263"/>
	</defs>
	<clipPath id="SVGID_179_">
		<use xlink:href="#SVGID_1105_"  overflow="visible"/>
	</clipPath>
	
		<linearGradient id="SVGID_181_" gradientUnits="userSpaceOnUse" x1="-78.2529" y1="-303.4609" x2="-77.2529" y2="-303.4609" gradientTransform="matrix(27.4575 0 0 -27.4575 2159.6284 -8208.2871)">
		<stop  offset="0" style="stop-color:#1C1D20"/>
		<stop  offset="0.0056" style="stop-color:#1F1F22"/>
		<stop  offset="0.0729" style="stop-color:#39383A"/>
		<stop  offset="0.1467" style="stop-color:#4D4C4D"/>
		<stop  offset="0.2306" style="stop-color:#5B5A5A"/>
		<stop  offset="0.3321" style="stop-color:#636262"/>
		<stop  offset="0.5" style="stop-color:#666464"/>
		<stop  offset="0.6679" style="stop-color:#636262"/>
		<stop  offset="0.7694" style="stop-color:#5B5A5A"/>
		<stop  offset="0.8533" style="stop-color:#4D4C4D"/>
		<stop  offset="0.9271" style="stop-color:#39383A"/>
		<stop  offset="0.9944" style="stop-color:#1F1F22"/>
		<stop  offset="1" style="stop-color:#1C1D20"/>
	</linearGradient>
	<rect x="10.999" y="120.352" clip-path="url(#SVGID_179_)" fill="url(#SVGID_181_)" width="27.458" height="7.263"/>
</g>
<g>
	<defs>
		<rect id="SVGID_1108_" x="-78.253" y="-17.666" width="1275.59" height="252"/>
	</defs>
	<clipPath id="SVGID_183_">
		<use xlink:href="#SVGID_1108_"  overflow="visible"/>
	</clipPath>
	<rect x="13.361" y="179.666" clip-path="url(#SVGID_183_)" fill="#77787A" width="22.321" height="2.833"/>
	<rect x="13.361" y="188.227" clip-path="url(#SVGID_183_)" fill="#77787A" width="19.547" height="2.833"/>
	<rect x="13.361" y="196.787" clip-path="url(#SVGID_183_)" fill="#77787A" width="12.685" height="2.833"/>
</g>
<g>
	<defs>
		<rect id="SVGID_1110_" x="3.966" y="3.578" width="43.333" height="5.089"/>
	</defs>
	<clipPath id="SVGID_184_">
		<use xlink:href="#SVGID_1110_"  overflow="visible"/>
	</clipPath>
	
		<linearGradient id="SVGID_186_" gradientUnits="userSpaceOnUse" x1="23.7339" y1="-284.5625" x2="24.7339" y2="-284.5625" gradientTransform="matrix(0 5.0879 5.0879 0 1473.4567 -117.3147)">
		<stop  offset="0" style="stop-color:#723731"/>
		<stop  offset="0.0108" style="stop-color:#7C3D35"/>
		<stop  offset="0.0461" style="stop-color:#974D41"/>
		<stop  offset="0.0867" style="stop-color:#AD5A4B"/>
		<stop  offset="0.134" style="stop-color:#BD6453"/>
		<stop  offset="0.1925" style="stop-color:#C96B58"/>
		<stop  offset="0.2744" style="stop-color:#D06F5B"/>
		<stop  offset="0.5" style="stop-color:#D2705C"/>
		<stop  offset="0.7256" style="stop-color:#D06F5B"/>
		<stop  offset="0.8075" style="stop-color:#C96B58"/>
		<stop  offset="0.866" style="stop-color:#BD6453"/>
		<stop  offset="0.9133" style="stop-color:#AD5A4B"/>
		<stop  offset="0.9539" style="stop-color:#974D41"/>
		<stop  offset="0.9892" style="stop-color:#7C3D35"/>
		<stop  offset="1" style="stop-color:#723731"/>
	</linearGradient>
	<rect x="3.966" y="3.578" clip-path="url(#SVGID_184_)" fill="url(#SVGID_186_)" width="43.333" height="5.089"/>
</g>
<rect x="-78.253" y="-17.666" fill="none" width="1275.59" height="252"/>
</svg>
