<?xml version="1.0" encoding="utf-8"?>
<!-- Generator: Adobe Illustrator 16.0.0, SVG Export Plug-In . SVG Version: 6.00 Build 0)  -->
<!DOCTYPE svg PUBLIC "-//W3C//DTD SVG 1.1//EN" "http://www.w3.org/Graphics/SVG/1.1/DTD/svg11.dtd">
<svg version="1.1" id="图层_1" xmlns="http://www.w3.org/2000/svg" xmlns:xlink="http://www.w3.org/1999/xlink" x="0px" y="0px"
	 width="277.8px" height="78.38px" viewBox="0 0 277.8 78.38" enable-background="new 0 0 277.8 78.38" xml:space="preserve">
<g>
	<rect fill="#1C1D20" width="277.795" height="78.26"/>
	<linearGradient id="SVGID_1_" gradientUnits="userSpaceOnUse" x1="141.2939" y1="0" x2="141.2939" y2="2.25">
		<stop  offset="0" style="stop-color:#363233"/>
		<stop  offset="0.4926" style="stop-color:#535252"/>
		<stop  offset="1" style="stop-color:#464749"/>
	</linearGradient>
	<rect x="49.925" fill="url(#SVGID_1_)" width="182.737" height="2.25"/>
	<linearGradient id="SVGID_2_" gradientUnits="userSpaceOnUse" x1="141.2939" y1="76.1299" x2="141.2939" y2="78.3799">
		<stop  offset="0" style="stop-color:#363233"/>
		<stop  offset="0.4926" style="stop-color:#535252"/>
		<stop  offset="1" style="stop-color:#464749"/>
	</linearGradient>
	<rect x="49.925" y="76.13" fill="url(#SVGID_2_)" width="182.737" height="2.25"/>
	<linearGradient id="SVGID_3_" gradientUnits="userSpaceOnUse" x1="138.897" y1="-0.6494" x2="138.897" y2="77.3541">
		<stop  offset="0" style="stop-color:#C9C9C9"/>
		<stop  offset="0" style="stop-color:#AAAAAA"/>
		<stop  offset="0.0443" style="stop-color:#545353"/>
		<stop  offset="0.5172" style="stop-color:#767373"/>
		<stop  offset="1" style="stop-color:#464749"/>
	</linearGradient>
	<path fill="url(#SVGID_3_)" d="M216.331,0l0.069,0.125l-4.625,8.268h-9.248l-4.626-8.268L197.972,0h-15.688l0.07,0.125
		l-4.625,8.268h-9.248l-4.626-8.268L163.925,0h-15.686l0.07,0.125l-4.625,8.268h-9.248l-4.627-8.268L129.88,0h-15.686l0.069,0.125
		l-4.624,8.268h-9.249l-4.626-8.268L95.835,0H80.147l0.07,0.125l-4.625,8.268h-9.248l-4.626-8.268L61.788,0H0v78.26h61.89
		l-0.171-0.306l4.626-8.268h9.248l4.625,8.268l-0.171,0.306h15.889l-0.171-0.306l4.626-8.268h9.249l4.624,8.268l-0.171,0.306h15.889
		l-0.172-0.306l4.627-8.268h9.248l4.625,8.268l-0.172,0.306h15.889l-0.171-0.306l4.626-8.268h9.248l4.625,8.268l-0.171,0.306h15.889
		l-0.171-0.306l4.626-8.268h9.248l4.625,8.268l-0.171,0.306h61.565V0H216.331z M211.775,11.313l4.625,8.269l-4.625,8.269h-9.248
		l-4.626-8.269l4.626-8.269H211.775z M92.653,40.537l4.627,8.268l-4.627,8.266h-9.249l-4.624-8.266l4.624-8.268H92.653z
		 M78.78,29.445l4.624-8.267h9.249l4.627,8.267l-4.627,8.27h-9.249L78.78,29.445z M95.765,39.041l4.626-8.268h9.249l4.624,8.268
		l-4.624,8.267h-9.249L95.765,39.041z M112.826,29.445l4.624-8.267h9.249l4.626,8.267l-4.626,8.27h-9.249L112.826,29.445z
		 M117.45,40.537h9.249l4.626,8.268l-4.626,8.266h-9.249l-4.624-8.266L117.45,40.537z M129.81,39.041l4.627-8.268h9.248l4.625,8.268
		l-4.625,8.267h-9.248L129.81,39.041z M146.872,29.445l4.624-8.267h9.249l4.625,8.267l-4.625,8.27h-9.249L146.872,29.445z
		 M151.496,40.537h9.249l4.625,8.268l-4.625,8.266h-9.249l-4.624-8.266L151.496,40.537z M163.855,39.041l4.626-8.268h9.248
		l4.625,8.268l-4.625,8.267h-9.248L163.855,39.041z M180.917,29.445l4.625-8.267h9.248l4.627,8.267l-4.627,8.27h-9.248
		L180.917,29.445z M185.542,40.537h9.248l4.627,8.268l-4.627,8.266h-9.248l-4.625-8.266L185.542,40.537z M197.901,39.041
		l4.626-8.268h9.248l4.625,8.268l-4.625,8.267h-9.248L197.901,39.041z M185.542,1.821h9.248l4.627,8.269l-4.627,8.268h-9.248
		l-4.625-8.268L185.542,1.821z M177.729,11.313l4.625,8.269l-4.625,8.269h-9.248l-4.626-8.269l4.626-8.269H177.729z M151.496,1.821
		h9.249l4.625,8.269l-4.625,8.268h-9.249l-4.624-8.268L151.496,1.821z M143.685,11.313l4.625,8.269l-4.625,8.269h-9.248
		l-4.627-8.269l4.627-8.269H143.685z M117.45,1.821h9.249l4.626,8.269l-4.626,8.268h-9.249l-4.624-8.268L117.45,1.821z
		 M109.64,11.313l4.624,8.269l-4.624,8.269h-9.249l-4.626-8.269l4.626-8.269H109.64z M83.404,1.821h9.249l4.627,8.269l-4.627,8.268
		h-9.249L78.78,10.09L83.404,1.821z M66.345,11.313h9.248l4.625,8.269l-4.625,8.269h-9.248l-4.626-8.269L66.345,11.313z
		 M66.345,30.773h9.248l4.625,8.268l-4.625,8.267h-9.248l-4.626-8.267L66.345,30.773z M66.345,66.766l-4.626-8.269l4.626-8.268
		h9.248l4.625,8.268l-4.625,8.269H66.345z M92.653,76.429h-9.249l-4.624-8.268l4.624-8.269h9.249l4.627,8.269L92.653,76.429z
		 M100.391,66.766l-4.626-8.269l4.626-8.268h9.249l4.624,8.268l-4.624,8.269H100.391z M126.699,76.429h-9.249l-4.624-8.268
		l4.624-8.269h9.249l4.626,8.269L126.699,76.429z M134.437,66.766l-4.627-8.269l4.627-8.268h9.248l4.625,8.268l-4.625,8.269H134.437
		z M160.745,76.429h-9.249l-4.624-8.268l4.624-8.269h9.249l4.625,8.269L160.745,76.429z M168.481,66.766l-4.626-8.269l4.626-8.268
		h9.248l4.625,8.268l-4.625,8.269H168.481z M194.79,76.429h-9.248l-4.625-8.268l4.625-8.269h9.248l4.627,8.269L194.79,76.429z
		 M202.527,66.766l-4.626-8.269l4.626-8.268h9.248l4.625,8.268l-4.625,8.269H202.527z M228.435,76.429h-9.25l-4.623-8.268
		l4.623-8.269h9.25l4.625,8.269L228.435,76.429z M228.435,57.07h-9.25l-4.623-8.266l4.623-8.268h9.25l4.625,8.268L228.435,57.07z
		 M228.435,37.715h-9.25l-4.623-8.27l4.623-8.267h9.25l4.625,8.267L228.435,37.715z M228.435,18.357h-9.25l-4.623-8.268l4.623-8.269
		h9.25l4.625,8.269L228.435,18.357z"/>
	<rect x="5.784" y="11.037" fill="#1C1D20" width="52" height="58.725"/>
	<linearGradient id="SVGID_4_" gradientUnits="userSpaceOnUse" x1="9.2842" y1="39.5918" x2="42.2842" y2="39.5918">
		<stop  offset="0" style="stop-color:#1C1D20"/>
		<stop  offset="0.5172" style="stop-color:#403D3E"/>
		<stop  offset="1" style="stop-color:#3C3D3D"/>
	</linearGradient>
	<rect x="9.284" y="15.72" fill="url(#SVGID_4_)" width="33" height="47.744"/>
	<linearGradient id="SVGID_5_" gradientUnits="userSpaceOnUse" x1="25.7842" y1="30.4697" x2="25.7842" y2="16.7175">
		<stop  offset="0" style="stop-color:#1C1D20;stop-opacity:0.6"/>
		<stop  offset="1" style="stop-color:#1C1D20"/>
	</linearGradient>
	<polygon opacity="0.7" fill="url(#SVGID_5_)" points="43.784,33.887 7.784,28.721 7.784,15.72 43.784,15.72 	"/>
	<linearGradient id="SVGID_6_" gradientUnits="userSpaceOnUse" x1="8.5342" y1="17.3867" x2="8.5342" y2="60.1091">
		<stop  offset="0" style="stop-color:#1C1D20"/>
		<stop  offset="0.5172" style="stop-color:#403D3E"/>
		<stop  offset="1" style="stop-color:#3C3D3D"/>
	</linearGradient>
	<rect x="7.784" y="15.72" fill="url(#SVGID_6_)" width="1.5" height="47.744"/>
	<polygon fill="#5E5F5F" points="44.784,63.464 7.784,63.464 7.784,63.178 44.784,61.97 	"/>
	<linearGradient id="SVGID_7_" gradientUnits="userSpaceOnUse" x1="44.7842" y1="39.5918" x2="51.7842" y2="39.5918">
		<stop  offset="0" style="stop-color:#4E4D4D"/>
		<stop  offset="0.0837" style="stop-color:#403D3E"/>
		<stop  offset="0.8374" style="stop-color:#413F3F"/>
		<stop  offset="1" style="stop-color:#504E4F"/>
	</linearGradient>
	<rect x="44.784" y="15.72" fill="url(#SVGID_7_)" width="7" height="47.744"/>
	<rect x="233.354" y="11.037" fill="#1C1D20" width="39" height="58.725"/>
	<linearGradient id="SVGID_8_" gradientUnits="userSpaceOnUse" x1="236.8545" y1="42.7402" x2="272.3545" y2="42.7402">
		<stop  offset="0" style="stop-color:#1C1D20"/>
		<stop  offset="0.5172" style="stop-color:#403D3E"/>
		<stop  offset="1" style="stop-color:#3C3D3D"/>
	</linearGradient>
	<rect x="236.854" y="15.72" fill="url(#SVGID_8_)" width="35.5" height="54.042"/>
	<linearGradient id="SVGID_9_" gradientUnits="userSpaceOnUse" x1="253.3545" y1="28.2871" x2="253.3545" y2="14.5348">
		<stop  offset="0" style="stop-color:#1C1D20;stop-opacity:0.6"/>
		<stop  offset="1" style="stop-color:#1C1D20"/>
	</linearGradient>
	<polygon opacity="0.7" fill="url(#SVGID_9_)" points="271.354,31.704 235.354,26.538 235.354,13.537 271.354,13.537 	"/>
	<linearGradient id="SVGID_10_" gradientUnits="userSpaceOnUse" x1="236.1045" y1="17.6064" x2="236.1045" y2="65.9642">
		<stop  offset="0" style="stop-color:#1C1D20"/>
		<stop  offset="0.5172" style="stop-color:#403D3E"/>
		<stop  offset="1" style="stop-color:#3C3D3D"/>
	</linearGradient>
	<rect x="235.354" y="15.72" fill="url(#SVGID_10_)" width="1.5" height="54.042"/>
	<polygon fill="#5E5F5F" points="272.354,69.762 235.354,69.762 235.354,69.476 272.354,68.268 	"/>
</g>
</svg>
