<?xml version="1.0" encoding="utf-8"?>
<!-- Generator: Adobe Illustrator 16.0.0, SVG Export Plug-In . SVG Version: 6.00 Build 0)  -->
<!DOCTYPE svg PUBLIC "-//W3C//DTD SVG 1.1//EN" "http://www.w3.org/Graphics/SVG/1.1/DTD/svg11.dtd">
<svg version="1.1" id="图层_1" xmlns="http://www.w3.org/2000/svg" xmlns:xlink="http://www.w3.org/1999/xlink" x="0px" y="0px"
	 width="40.08px" height="228.17px" viewBox="0 0 40.08 228.17" enable-background="new 0 0 40.08 228.17" xml:space="preserve">
<g>
	<path fill="#494949" d="M38.085,40.83c0,0.683-0.468,1.236-1.043,1.236h-3.036c-0.574,0-1.043-0.554-1.043-1.236V17.688
		c0-0.682,0.469-1.235,1.043-1.235h3.036c0.575,0,1.043,0.554,1.043,1.235V40.83z"/>
	<path fill="#494949" d="M37.225,12.405c0,0.479-0.444,0.866-0.991,0.866H3.996c-0.546,0-0.991-0.387-0.991-0.866V0.865
		c0-0.479,0.445-0.866,0.991-0.866h32.237c0.547,0,0.991,0.388,0.991,0.866V12.405z"/>
	<path fill="#494949" d="M36.838,52.991c0,0.282-0.446,0.511-0.993,0.511H3.608c-0.547,0-0.992-0.229-0.992-0.511v-6.826
		c0-0.282,0.445-0.512,0.992-0.512h32.236c0.547,0,0.993,0.229,0.993,0.512V52.991z"/>
	<linearGradient id="SVGID_1_" gradientUnits="userSpaceOnUse" x1="20.1147" y1="16.4565" x2="20.1147" y2="41.7056">
		<stop  offset="0" style="stop-color:#4E4E4C"/>
		<stop  offset="0.0443" style="stop-color:#494947"/>
		<stop  offset="0.1232" style="stop-color:#383A39"/>
		<stop  offset="1" style="stop-color:#3A3B3A"/>
	</linearGradient>
	<path fill="url(#SVGID_1_)" d="M31.804,41.201c0,0.478-0.523,0.865-1.168,0.865H9.593c-0.645,0-1.167-0.388-1.167-0.865V16.743
		c0-0.478,0.522-0.864,1.167-0.864h21.043c0.645,0,1.168,0.387,1.168,0.864V41.201z"/>
	<path fill="#494949" d="M7.267,40.83c0,0.683-0.467,1.236-1.041,1.236H3.187c-0.575,0-1.043-0.554-1.043-1.236V17.688
		c0-0.682,0.468-1.235,1.043-1.235h3.039c0.574,0,1.041,0.554,1.041,1.235V40.83z"/>
	<path fill="#A7CF65" d="M19.106,8.177c0,1.433-1.332,2.597-2.977,2.597h-4.529c-1.645,0-2.976-1.164-2.976-2.597V5.869
		c0-1.436,1.331-2.599,2.976-2.599h4.529c1.645,0,2.977,1.163,2.977,2.599V8.177z"/>
	<path fill="#A7CF65" d="M31.603,8.177c0,1.433-1.331,2.597-2.975,2.597h-4.529c-1.646,0-2.977-1.164-2.977-2.597V5.869
		c0-1.436,1.331-2.599,2.977-2.599h4.529c1.644,0,2.975,1.163,2.975,2.599V8.177z"/>
	<linearGradient id="SVGID_2_" gradientUnits="userSpaceOnUse" x1="20.0396" y1="54.2822" x2="20.0395" y2="222.997">
		<stop  offset="0" style="stop-color:#626367"/>
		<stop  offset="0.0345" style="stop-color:#66686C"/>
		<stop  offset="0.064" style="stop-color:#929398"/>
		<stop  offset="0.133" style="stop-color:#898A8E"/>
		<stop  offset="0.6453" style="stop-color:#8C8D92"/>
		<stop  offset="0.6995" style="stop-color:#37373B"/>
		<stop  offset="1" style="stop-color:#7A7B80"/>
	</linearGradient>
	<polygon fill="url(#SVGID_2_)" points="40.078,63.155 35.525,53.181 4.706,53.181 0.002,63.445 0.002,161.546 4.706,171.052 
		4.706,228.17 34.669,228.17 34.669,171.052 34.368,171.052 40.078,161.165 	"/>
	<path fill="#202020" d="M33.981,86.099c0,0.76-0.389,1.377-0.869,1.377H6.966c-0.477,0-0.867-0.617-0.867-1.377V69.335
		c0-0.762,0.391-1.378,0.867-1.378h26.146c0.48,0,0.869,0.616,0.869,1.378V86.099z"/>
	<path fill="#202020" d="M33.981,109.565c0,0.759-0.389,1.377-0.869,1.377H6.966c-0.477,0-0.867-0.618-0.867-1.377V92.801
		c0-0.761,0.391-1.377,0.867-1.377h26.146c0.48,0,0.869,0.616,0.869,1.377V109.565z"/>
	<path fill="#202020" d="M33.981,133.034c0,0.759-0.389,1.377-0.869,1.377H6.966c-0.477,0-0.867-0.618-0.867-1.377v-16.766
		c0-0.76,0.391-1.377,0.867-1.377h26.146c0.48,0,0.869,0.617,0.869,1.377V133.034z"/>
	<path fill="#202020" d="M33.981,156.501c0,0.759-0.389,1.377-0.869,1.377H6.966c-0.477,0-0.867-0.618-0.867-1.377v-16.765
		c0-0.761,0.391-1.377,0.867-1.377h26.146c0.48,0,0.869,0.616,0.869,1.377V156.501z"/>
	<ellipse fill="#4C4C4C" cx="20.039" cy="30.075" rx="7.753" ry="8.321"/>
	<ellipse fill="#272828" cx="20.041" cy="30.075" rx="5.758" ry="6.182"/>
	<ellipse fill="#373838" cx="16.994" cy="32.394" rx="2.159" ry="2.317"/>
</g>
</svg>
