<?xml version="1.0" encoding="utf-8"?>
<!-- Generator: Adobe Illustrator 16.0.0, SVG Export Plug-In . SVG Version: 6.00 Build 0)  -->
<!DOCTYPE svg PUBLIC "-//W3C//DTD SVG 1.1//EN" "http://www.w3.org/Graphics/SVG/1.1/DTD/svg11.dtd">
<svg version="1.1" id="图层_1" xmlns="http://www.w3.org/2000/svg" xmlns:xlink="http://www.w3.org/1999/xlink" x="0px" y="0px"
	 width="273.42px" height="74.8px" viewBox="0 0 273.42 74.8" enable-background="new 0 0 273.42 74.8" xml:space="preserve">
<g>
	<rect x="0.003" y="6.253" fill="#515151" stroke="#222222" stroke-miterlimit="10" width="53.994" height="62.477"/>
	<path fill="#7E7E7E" stroke="#5A5B5B" stroke-miterlimit="10" d="M254.352,50.036c0,3.42-2.727,6.191-6.092,6.191h-14.891
		c-3.365,0-6.092-2.771-6.092-6.191V24.585c0-3.418,2.727-6.19,6.092-6.19h14.891c3.365,0,6.092,2.772,6.092,6.19V50.036z"/>
	<path fill="#515151" stroke="#222222" stroke-miterlimit="10" d="M44.6,49.821c0,2.279-1.818,4.129-4.062,4.129H17.694
		c-2.242,0-4.061-1.85-4.061-4.129V24.8c0-2.279,1.818-4.127,4.061-4.127h22.845c2.243,0,4.062,1.848,4.062,4.127V49.821z"/>
	<polygon fill="#3F3F3F" stroke="#222222" stroke-miterlimit="10" points="0.003,74.364 0.003,62.657 15.733,62.657 19.283,66.886 
		42.353,66.886 44.888,62.657 60.522,62.657 67.452,68.511 208.746,68.511 220.24,62.657 260.803,62.657 273.086,74.364 	"/>
	<polygon fill="#3F3F3F" stroke="#222222" stroke-miterlimit="10" points="0.003,0.683 0.003,12.324 15.705,12.324 19.248,8.119 
		42.275,8.119 44.806,12.324 60.412,12.324 67.328,6.504 208.363,6.504 219.836,12.324 260.324,12.324 272.586,0.683 	"/>
	<ellipse fill="#6A6754" cx="29.117" cy="37.313" rx="8.039" ry="8.171"/>
	
		<radialGradient id="SVGID_1_" cx="63.252" cy="40.3115" r="4.7502" gradientTransform="matrix(1.0153 0 0 1.0318 -35.1025 -4.2813)" gradientUnits="userSpaceOnUse">
		<stop  offset="0.0148" style="stop-color:#5F5F5F"/>
		<stop  offset="1" style="stop-color:#3F3F3F"/>
	</radialGradient>
	<ellipse fill="url(#SVGID_1_)" cx="29.117" cy="37.313" rx="4.823" ry="4.902"/>
	<path fill="#CBDC54" stroke="#040000" stroke-miterlimit="10" d="M9.407,34.222c0,0.571-0.454,1.032-1.015,1.032H5.346
		c-0.562,0-1.016-0.461-1.016-1.032v-6.405c0-0.568,0.454-1.031,1.016-1.031h3.046c0.561,0,1.015,0.463,1.015,1.031V34.222z"/>
	<path fill="#CBDC54" stroke="#040000" stroke-miterlimit="10" d="M9.407,46.806c0,0.57-0.454,1.031-1.015,1.031H5.346
		c-0.562,0-1.016-0.461-1.016-1.031v-6.406c0-0.568,0.454-1.031,1.016-1.031h3.046c0.561,0,1.015,0.463,1.015,1.031V46.806z"/>
	<linearGradient id="SVGID_2_" gradientUnits="userSpaceOnUse" x1="60.5962" y1="38.1279" x2="220.9922" y2="38.1279">
		<stop  offset="0" style="stop-color:#5F6064"/>
		<stop  offset="0.0739" style="stop-color:#7D7C81"/>
		<stop  offset="0.1084" style="stop-color:#9B9AA3"/>
		<stop  offset="0.8621" style="stop-color:#A7A6AF"/>
		<stop  offset="0.9163" style="stop-color:#84858A"/>
		<stop  offset="1" style="stop-color:#5C5F64"/>
	</linearGradient>
	<polygon fill="url(#SVGID_2_)" points="60.596,62.638 61.081,12.376 68.018,6.306 207.76,6.306 220.992,12.376 220.992,62.71 
		209.484,68.78 67.544,69.95 	"/>
	<path fill="#1D1D1D" d="M209.678,55.136c0,2.281-1.678,4.129-3.75,4.129h-24.99c-2.07,0-3.75-1.848-3.75-4.129V19.486
		c0-2.278,1.68-4.127,3.75-4.127h24.99c2.072,0,3.75,1.849,3.75,4.127V55.136z"/>
	<path fill="#1D1D1D" d="M172.664,55.136c0,2.281-1.678,4.129-3.75,4.129h-24.99c-2.07,0-3.75-1.848-3.75-4.129V19.486
		c0-2.278,1.68-4.127,3.75-4.127h24.99c2.072,0,3.75,1.849,3.75,4.127V55.136z"/>
	<path fill="#1D1D1D" d="M135.651,55.136c0,2.281-1.678,4.129-3.75,4.129H106.91c-2.069,0-3.748-1.848-3.748-4.129V19.486
		c0-2.278,1.679-4.127,3.748-4.127h24.991c2.072,0,3.75,1.849,3.75,4.127V55.136z"/>
	<path fill="#1D1D1D" d="M98.638,55.136c0,2.281-1.678,4.129-3.75,4.129H69.897c-2.069,0-3.749-1.848-3.749-4.129V19.486
		c0-2.278,1.68-4.127,3.749-4.127h24.991c2.072,0,3.75,1.849,3.75,4.127V55.136z"/>
	<linearGradient id="SVGID_3_" gradientUnits="userSpaceOnUse" x1="82.3931" y1="15.2871" x2="82.3931" y2="57.1484">
		<stop  offset="0" style="stop-color:#545353"/>
		<stop  offset="0.5172" style="stop-color:#767373"/>
		<stop  offset="1" style="stop-color:#464749"/>
	</linearGradient>
	<path fill="url(#SVGID_3_)" d="M92.607,58.038l-3.47-6.201l3.47-6.199h6.031v-2.189h-6.031l-3.47-6.198l3.47-6.199h6.031v-2.192
		h-6.031l-3.47-6.199l3.47-6.201h4.812c-0.668-0.676-1.551-1.099-2.53-1.099h-4.717l0.103,0.183l-3.47,6.198h-6.936l-3.468-6.198
		l0.102-0.183h-6.605c-0.979,0-1.861,0.423-2.529,1.099h6.645l3.467,6.201l-3.467,6.199h-6.935l-0.93-1.661v5.515l0.93-1.661h6.935
		l3.467,6.199l-3.467,6.198h-6.935l-0.93-1.662V47.3l0.93-1.662h6.935l3.467,6.199l-3.467,6.201h-6.779
		c0.68,0.756,1.622,1.227,2.664,1.227h6.605l-0.102-0.182l3.468-6.199h6.936l3.47,6.199l-0.102,0.182h4.716
		c1.044,0,1.985-0.471,2.665-1.227H92.607z M76.401,30.055l3.468-6.199h6.936l3.47,6.199l-3.47,6.199h-6.936L76.401,30.055z
		 M79.869,50.769l-3.468-6.199l3.468-6.197h6.936l3.47,6.197l-3.47,6.199H79.869z"/>
	<linearGradient id="SVGID_4_" gradientUnits="userSpaceOnUse" x1="119.4058" y1="15.2871" x2="119.4058" y2="57.1484">
		<stop  offset="0" style="stop-color:#545353"/>
		<stop  offset="0.5172" style="stop-color:#767373"/>
		<stop  offset="1" style="stop-color:#464749"/>
	</linearGradient>
	<path fill="url(#SVGID_4_)" d="M129.62,58.038l-3.47-6.201l3.47-6.199h6.031v-2.189h-6.031l-3.47-6.198l3.47-6.199h6.031v-2.192
		h-6.031l-3.47-6.199l3.47-6.201h4.812c-0.668-0.676-1.551-1.099-2.53-1.099h-4.717l0.103,0.183l-3.47,6.198h-6.936l-3.468-6.198
		l0.102-0.183h-6.605c-0.979,0-1.861,0.423-2.529,1.099h6.645l3.467,6.201l-3.467,6.199h-6.935l-0.93-1.661v5.515l0.93-1.661h6.935
		l3.467,6.199l-3.467,6.198h-6.935l-0.93-1.662V47.3l0.93-1.662h6.935l3.467,6.199l-3.467,6.201h-6.779
		c0.68,0.756,1.622,1.227,2.664,1.227h6.605l-0.102-0.182l3.468-6.199h6.936l3.47,6.199l-0.102,0.182h4.716
		c1.044,0,1.985-0.471,2.665-1.227H129.62z M113.414,30.055l3.468-6.199h6.936l3.47,6.199l-3.47,6.199h-6.936L113.414,30.055z
		 M116.881,50.769l-3.468-6.199l3.468-6.197h6.936l3.47,6.197l-3.47,6.199H116.881z"/>
	<linearGradient id="SVGID_5_" gradientUnits="userSpaceOnUse" x1="156.4189" y1="15.2871" x2="156.4189" y2="57.1484">
		<stop  offset="0" style="stop-color:#545353"/>
		<stop  offset="0.5172" style="stop-color:#767373"/>
		<stop  offset="1" style="stop-color:#464749"/>
	</linearGradient>
	<path fill="url(#SVGID_5_)" d="M166.633,58.038l-3.469-6.201l3.469-6.199h6.031v-2.189h-6.031l-3.469-6.198l3.469-6.199h6.031
		v-2.192h-6.031l-3.469-6.199l3.469-6.201h4.813c-0.668-0.676-1.551-1.099-2.531-1.099h-4.717l0.104,0.183l-3.471,6.198h-6.936
		l-3.467-6.198l0.102-0.183h-6.605c-0.979,0-1.861,0.423-2.529,1.099h6.645l3.467,6.201l-3.467,6.199h-6.936l-0.93-1.661v5.515
		l0.93-1.661h6.936l3.467,6.199l-3.467,6.198h-6.936l-0.93-1.662V47.3l0.93-1.662h6.936l3.467,6.199l-3.467,6.201h-6.779
		c0.68,0.756,1.621,1.227,2.664,1.227h6.605l-0.102-0.182l3.467-6.199h6.936l3.471,6.199l-0.102,0.182h4.715
		c1.045,0,1.986-0.471,2.666-1.227H166.633z M150.428,30.055l3.467-6.199h6.936l3.471,6.199l-3.471,6.199h-6.936L150.428,30.055z
		 M153.895,50.769l-3.467-6.199l3.467-6.197h6.936l3.471,6.197l-3.471,6.199H153.895z"/>
	<linearGradient id="SVGID_6_" gradientUnits="userSpaceOnUse" x1="193.4326" y1="15.2871" x2="193.4326" y2="57.1484">
		<stop  offset="0" style="stop-color:#545353"/>
		<stop  offset="0.5172" style="stop-color:#767373"/>
		<stop  offset="1" style="stop-color:#464749"/>
	</linearGradient>
	<path fill="url(#SVGID_6_)" d="M203.646,58.038l-3.471-6.201l3.471-6.199h6.031v-2.189h-6.031l-3.471-6.198l3.471-6.199h6.031
		v-2.192h-6.031l-3.471-6.199l3.471-6.201h4.811c-0.668-0.676-1.551-1.099-2.529-1.099h-4.717l0.102,0.183l-3.469,6.198h-6.936
		l-3.469-6.198l0.102-0.183h-6.605c-0.979,0-1.861,0.423-2.529,1.099h6.645l3.467,6.201l-3.467,6.199h-6.934l-0.93-1.661v5.515
		l0.93-1.661h6.934l3.467,6.199l-3.467,6.198h-6.934l-0.93-1.662V47.3l0.93-1.662h6.934l3.467,6.199l-3.467,6.201h-6.779
		c0.68,0.756,1.623,1.227,2.664,1.227h6.605l-0.102-0.182l3.469-6.199h6.936l3.469,6.199l-0.102,0.182h4.717
		c1.043,0,1.984-0.471,2.664-1.227H203.646z M187.439,30.055l3.469-6.199h6.936l3.469,6.199l-3.469,6.199h-6.936L187.439,30.055z
		 M190.908,50.769l-3.469-6.199l3.469-6.197h6.936l3.469,6.197l-3.469,6.199H190.908z"/>
	<polygon fill="#747475" points="268.586,56.048 268.586,18.214 273.42,18.214 273.42,0.003 209.678,0.003 209.678,74.62 
		273.42,74.62 273.42,56.048 	"/>
	<linearGradient id="SVGID_7_" gradientUnits="userSpaceOnUse" x1="163.709" y1="0.9531" x2="163.709" y2="74.9807">
		<stop  offset="0" style="stop-color:#929398"/>
		<stop  offset="0.0985" style="stop-color:#929398"/>
		<stop  offset="0.1478" style="stop-color:#CBCCD0"/>
		<stop  offset="0.2118" style="stop-color:#7B7B80"/>
		<stop  offset="0.8128" style="stop-color:#84858A"/>
		<stop  offset="0.867" style="stop-color:#5C5F64"/>
		<stop  offset="1" style="stop-color:#838489"/>
	</linearGradient>
	<path fill="url(#SVGID_7_)" d="M261.121,12.324L273.42,0.183H65.505L54.669,12.324l0,0v50.333h-0.672L65.505,74.8H273.42
		l-12.299-12.143V12.324z M209,68.728H67.534l-6.938-6.07V12.324l6.938-6.07H209l11.002,9.105v47.298h0.506L209,68.728z"/>
	<polygon opacity="0.8" fill="#FFFFFF" points="207.426,5.155 67.685,5.155 60.596,12.474 60.596,12.641 67.685,6.322 
		207.992,6.328 220.002,15.359 220.002,15.359 	"/>
</g>
</svg>
