<?xml version="1.0" encoding="utf-8"?>
<!-- Generator: Adobe Illustrator 16.0.0, SVG Export Plug-In . SVG Version: 6.00 Build 0)  -->
<!DOCTYPE svg PUBLIC "-//W3C//DTD SVG 1.1//EN" "http://www.w3.org/Graphics/SVG/1.1/DTD/svg11.dtd">
<svg version="1.1" id="图层_1" xmlns="http://www.w3.org/2000/svg" xmlns:xlink="http://www.w3.org/1999/xlink" x="0px" y="0px"
	 width="40.935px" height="213.981px" viewBox="0 0 40.935 213.981" enable-background="new 0 0 40.935 213.981"
	 xml:space="preserve">
<g>
	<rect x="0.001" fill="#04040C" width="40.935" height="213.981"/>
	<linearGradient id="SVGID_2_" gradientUnits="userSpaceOnUse" x1="20.4688" y1="188.6714" x2="20.4687" y2="3.8179">
		<stop  offset="0" style="stop-color:#797B7A"/>
		<stop  offset="0.2043" style="stop-color:#ADADAD"/>
		<stop  offset="1" style="stop-color:#797B7A"/>
	</linearGradient>
	<rect x="2.682" y="3.818" fill="url(#SVGID_2_)" width="35.573" height="184.854"/>
	<rect x="6.756" y="78.848" fill="#1B1C1B" width="26.761" height="41.252"/>
	
		<radialGradient id="SVGID_4_" cx="-1994.8877" cy="2984.8145" r="0.9749" gradientTransform="matrix(12.5851 0 0 -26.3374 25125.9941 78711.7344)" gradientUnits="userSpaceOnUse">
		<stop  offset="0" style="stop-color:#848484"/>
		<stop  offset="1" style="stop-color:#1C1D20"/>
	</radialGradient>
	<rect x="6.754" y="78.848" fill="url(#SVGID_4_)" width="26.763" height="41.252"/>
	<rect x="7.089" y="25.179" fill="#E2EBFA" width="26.76" height="7.634"/>
	<rect x="28.429" y="32.813" fill="#E2EBFA" width="5.42" height="28.102"/>
	<rect x="2.587" y="183.008" fill="#0B0D0F" width="35.573" height="22.497"/>
	<rect x="7.853" y="183.008" fill="#4C4E4D" width="25.043" height="15.837"/>
	<g>
		<polygon fill="#111011" points="32.307,106.84 33.327,108.608 32.307,110.376 30.265,110.376 29.245,108.608 30.265,106.84 		"/>
		<polygon fill="#111011" points="32.307,102.138 33.327,103.905 32.307,105.673 30.265,105.673 29.245,103.905 30.265,102.138 		
			"/>
		<polygon fill="#111011" points="24.81,106.84 25.83,108.608 24.81,110.376 22.768,110.376 21.748,108.608 22.768,106.84 		"/>
		<polygon fill="#111011" points="24.81,102.138 25.83,103.905 24.81,105.673 22.768,105.673 21.748,103.905 22.768,102.138 		"/>
		<polygon fill="#111011" points="17.313,106.84 18.333,108.608 17.313,110.376 15.271,110.376 14.251,108.608 15.271,106.84 		"/>
		<polygon fill="#111011" points="17.313,102.138 18.333,103.905 17.313,105.673 15.271,105.673 14.251,103.905 15.271,102.138 		
			"/>
		<polygon fill="#111011" points="9.816,106.84 10.837,108.608 9.816,110.376 7.773,110.376 6.754,108.608 7.773,106.84 		"/>
		<polygon fill="#111011" points="9.816,102.138 10.837,103.905 9.816,105.673 7.773,105.673 6.754,103.905 7.773,102.138 		"/>
		<polygon fill="#111011" points="28.559,107.927 29.578,106.159 28.559,104.392 26.517,104.392 25.496,106.159 26.517,107.927 		
			"/>
		<polygon fill="#111011" points="28.559,103.225 29.578,101.457 28.559,99.688 26.517,99.688 25.496,101.457 26.517,103.225 		"/>
		<polygon fill="#111011" points="21.062,107.927 22.081,106.159 21.062,104.392 19.021,104.392 18,106.159 19.021,107.927 		"/>
		<polygon fill="#111011" points="21.062,103.225 22.081,101.457 21.062,99.688 19.021,99.688 18,101.457 19.021,103.225 		"/>
		<polygon fill="#111011" points="13.564,107.927 14.585,106.159 13.564,104.392 11.523,104.392 10.503,106.159 11.523,107.927 		
			"/>
		<polygon fill="#111011" points="13.564,103.225 14.585,101.457 13.564,99.688 11.523,99.688 10.503,101.457 11.523,103.225 		"/>
		<polygon fill="#111011" points="32.307,97.633 33.327,99.401 32.307,101.169 30.265,101.169 29.245,99.401 30.265,97.633 		"/>
		<polygon fill="#111011" points="32.307,92.931 33.327,94.698 32.307,96.466 30.265,96.466 29.245,94.698 30.265,92.931 		"/>
		<polygon fill="#111011" points="32.307,88.228 33.327,89.995 32.307,91.763 30.265,91.763 29.245,89.995 30.265,88.228 		"/>
		<polygon fill="#111011" points="32.307,83.525 33.327,85.292 32.307,87.061 30.265,87.061 29.245,85.292 30.265,83.525 		"/>
		<polygon fill="#111011" points="24.81,97.633 25.83,99.401 24.81,101.169 22.768,101.169 21.748,99.401 22.768,97.633 		"/>
		<polygon fill="#111011" points="24.81,92.931 25.83,94.698 24.81,96.466 22.768,96.466 21.748,94.698 22.768,92.931 		"/>
		<polygon fill="#111011" points="24.81,88.228 25.83,89.995 24.81,91.763 22.768,91.763 21.748,89.995 22.768,88.228 		"/>
		<polygon fill="#111011" points="24.81,83.525 25.83,85.292 24.81,87.061 22.768,87.061 21.748,85.292 22.768,83.525 		"/>
		<polygon fill="#111011" points="17.313,97.633 18.333,99.401 17.313,101.169 15.271,101.169 14.251,99.401 15.271,97.633 		"/>
		<polygon fill="#111011" points="17.313,92.931 18.333,94.698 17.313,96.466 15.271,96.466 14.251,94.698 15.271,92.931 		"/>
		<polygon fill="#111011" points="17.313,88.228 18.333,89.995 17.313,91.763 15.271,91.763 14.251,89.995 15.271,88.228 		"/>
		<polygon fill="#111011" points="17.313,83.525 18.333,85.292 17.313,87.061 15.271,87.061 14.251,85.292 15.271,83.525 		"/>
		<polygon fill="#111011" points="9.816,97.633 10.837,99.401 9.816,101.169 7.773,101.169 6.754,99.401 7.773,97.633 		"/>
		<polygon fill="#111011" points="9.816,92.931 10.837,94.698 9.816,96.466 7.773,96.466 6.754,94.698 7.773,92.931 		"/>
		<polygon fill="#111011" points="9.816,88.228 10.837,89.995 9.816,91.763 7.773,91.763 6.754,89.995 7.773,88.228 		"/>
		<polygon fill="#111011" points="9.816,83.525 10.837,85.292 9.816,87.061 7.773,87.061 6.754,85.292 7.773,83.525 		"/>
		<polygon fill="#111011" points="28.559,98.72 29.578,96.952 28.559,95.185 26.517,95.185 25.496,96.952 26.517,98.72 		"/>
		<polygon fill="#111011" points="28.559,94.017 29.578,92.249 28.559,90.481 26.517,90.481 25.496,92.249 26.517,94.017 		"/>
		<polygon fill="#111011" points="28.559,89.314 29.578,87.546 28.559,85.779 26.517,85.779 25.496,87.546 26.517,89.314 		"/>
		<polygon fill="#111011" points="28.559,84.611 29.578,82.844 28.559,81.076 26.517,81.076 25.496,82.844 26.517,84.611 		"/>
		<polygon fill="#111011" points="21.062,98.72 22.081,96.952 21.062,95.185 19.021,95.185 18,96.952 19.021,98.72 		"/>
		<polygon fill="#111011" points="21.062,94.017 22.081,92.249 21.062,90.481 19.021,90.481 18,92.249 19.021,94.017 		"/>
		<polygon fill="#111011" points="21.062,89.314 22.081,87.546 21.062,85.779 19.021,85.779 18,87.546 19.021,89.314 		"/>
		<polygon fill="#111011" points="21.062,84.611 22.081,82.844 21.062,81.076 19.021,81.076 18,82.844 19.021,84.611 		"/>
		<polygon fill="#111011" points="13.564,98.72 14.585,96.952 13.564,95.185 11.523,95.185 10.503,96.952 11.523,98.72 		"/>
		<polygon fill="#111011" points="13.564,94.017 14.585,92.249 13.564,90.481 11.523,90.481 10.503,92.249 11.523,94.017 		"/>
		<polygon fill="#111011" points="13.564,89.314 14.585,87.546 13.564,85.779 11.523,85.779 10.503,87.546 11.523,89.314 		"/>
		<polygon fill="#111011" points="13.564,84.611 14.585,82.844 13.564,81.076 11.523,81.076 10.503,82.844 11.523,84.611 		"/>
		<polygon fill="#111011" points="32.307,116.086 33.327,117.854 32.307,119.621 30.265,119.621 29.245,117.854 30.265,116.086 		
			"/>
		<polygon fill="#111011" points="32.307,111.384 33.327,113.15 32.307,114.918 30.265,114.918 29.245,113.15 30.265,111.384 		"/>
		<polygon fill="#111011" points="24.81,116.086 25.83,117.854 24.81,119.621 22.768,119.621 21.748,117.854 22.768,116.086 		"/>
		<polygon fill="#111011" points="24.81,111.384 25.83,113.15 24.81,114.918 22.768,114.918 21.748,113.15 22.768,111.384 		"/>
		<polygon fill="#111011" points="17.313,116.086 18.333,117.854 17.313,119.621 15.271,119.621 14.251,117.854 15.271,116.086 		
			"/>
		<polygon fill="#111011" points="17.313,111.384 18.333,113.15 17.313,114.918 15.271,114.918 14.251,113.15 15.271,111.384 		"/>
		<polygon fill="#111011" points="9.816,116.086 10.837,117.854 9.816,119.621 7.773,119.621 6.754,117.854 7.773,116.086 		"/>
		<polygon fill="#111011" points="9.816,111.384 10.837,113.15 9.816,114.918 7.773,114.918 6.754,113.15 7.773,111.384 		"/>
		<polygon fill="#111011" points="28.559,117.172 29.578,115.404 28.559,113.637 26.517,113.637 25.496,115.404 26.517,117.172 		
			"/>
		<polygon fill="#111011" points="28.559,112.47 29.578,110.702 28.559,108.935 26.517,108.935 25.496,110.702 26.517,112.47 		"/>
		<polygon fill="#111011" points="21.062,117.172 22.081,115.404 21.062,113.637 19.021,113.637 18,115.404 19.021,117.172 		"/>
		<polygon fill="#111011" points="21.062,112.47 22.081,110.702 21.062,108.935 19.021,108.935 18,110.702 19.021,112.47 		"/>
		<polygon fill="#111011" points="13.564,117.172 14.585,115.404 13.564,113.637 11.523,113.637 10.503,115.404 11.523,117.172 		
			"/>
		<polygon fill="#111011" points="13.564,112.47 14.585,110.702 13.564,108.935 11.523,108.935 10.503,110.702 11.523,112.47 		"/>
		<polygon fill="#111011" points="32.307,78.848 33.327,80.615 32.307,82.383 30.265,82.383 29.245,80.615 30.265,78.848 		"/>
		<polygon fill="#111011" points="24.81,78.848 25.83,80.615 24.81,82.383 22.768,82.383 21.748,80.615 22.768,78.848 		"/>
		<polygon fill="#111011" points="17.313,78.848 18.333,80.615 17.313,82.383 15.271,82.383 14.251,80.615 15.271,78.848 		"/>
		<polygon fill="#111011" points="9.816,78.848 10.837,80.615 9.816,82.383 7.773,82.383 6.754,80.615 7.773,78.848 		"/>
	</g>
</g>
</svg>
