<?xml version="1.0" encoding="utf-8"?>
<!-- Generator: Adobe Illustrator 16.0.0, SVG Export Plug-In . SVG Version: 6.00 Build 0)  -->
<!DOCTYPE svg PUBLIC "-//W3C//DTD SVG 1.1//EN" "http://www.w3.org/Graphics/SVG/1.1/DTD/svg11.dtd">
<svg version="1.1" id="图层_1" xmlns="http://www.w3.org/2000/svg" xmlns:xlink="http://www.w3.org/1999/xlink" x="0px" y="0px"
	 width="358.333px" height="46.632px" viewBox="0 0 358.333 46.632" enable-background="new 0 0 358.333 46.632"
	 xml:space="preserve">
<g>
	<defs>
		<rect id="SVGID_558_" x="-848.257" y="-131.734" width="1275.59" height="252"/>
	</defs>
	<clipPath id="SVGID_2_">
		<use xlink:href="#SVGID_558_"  overflow="visible"/>
	</clipPath>
	
		<rect x="-848.257" y="-131.734" clip-path="url(#SVGID_2_)" fill="none" stroke="#242426" stroke-width="2" stroke-miterlimit="10" width="1275.59" height="252"/>
	<rect clip-path="url(#SVGID_2_)" fill="#1C1D20" width="358.333" height="46.632"/>
	<polygon clip-path="url(#SVGID_2_)" fill="none" stroke="#1C1D20" stroke-miterlimit="10" points="247.628,41.063 247.636,41.063 
		247.62,41.063 	"/>
	<polygon clip-path="url(#SVGID_2_)" fill="none" stroke="#1C1D20" stroke-miterlimit="10" points="347.421,41.062 347.429,41.063 
		347.429,41.062 	"/>
	<polygon clip-path="url(#SVGID_2_)" fill="none" stroke="#1C1D20" stroke-miterlimit="10" points="347.429,41.063 347.437,41.063 
		347.429,41.063 	"/>
</g>
<g>
	<g>
		<defs>
			<path id="SVGID_560_" d="M224.241,22.662c0,9.424,2.639,17.063,5.895,17.063c0.002,0,0.006-0.001,0.009-0.001
				c3.251-0.013,5.886-7.646,5.886-17.062c0-9.425-2.639-17.063-5.895-17.063S224.241,13.237,224.241,22.662"/>
		</defs>
		<clipPath id="SVGID_4_">
			<use xlink:href="#SVGID_560_"  overflow="visible"/>
		</clipPath>
		
			<linearGradient id="SVGID_5_" gradientUnits="userSpaceOnUse" x1="-848.2568" y1="-442.6475" x2="-847.2568" y2="-442.6475" gradientTransform="matrix(11.7886 0 0 -11.7886 10224 -5195.5303)">
			<stop  offset="0" style="stop-color:#1C1D20"/>
			<stop  offset="1" style="stop-color:#0D141E"/>
		</linearGradient>
		<rect x="224.241" y="5.599" clip-path="url(#SVGID_4_)" fill="url(#SVGID_5_)" width="11.789" height="34.126"/>
	</g>
	<g>
		<defs>
			<path id="SVGID_563_" d="M244.752,5.6L244.752,5.6l-14.616-0.001c3.256,0,5.895,7.639,5.895,17.063
				c0,9.415-2.635,17.049-5.886,17.062h14.607h0.016c3.252-0.013,5.887-7.646,5.887-17.062c0-9.425-2.64-17.063-5.895-17.063
				C244.757,5.599,244.754,5.6,244.752,5.6"/>
		</defs>
		<clipPath id="SVGID_7_">
			<use xlink:href="#SVGID_563_"  overflow="visible"/>
		</clipPath>
		
			<linearGradient id="SVGID_8_" gradientUnits="userSpaceOnUse" x1="-832.7881" y1="-398.6309" x2="-831.7886" y2="-398.6309" gradientTransform="matrix(0 33.5455 33.5455 0 13612.6582 27942.0254)">
			<stop  offset="0" style="stop-color:#46537A"/>
			<stop  offset="0.5379" style="stop-color:#C2D2F0"/>
			<stop  offset="1" style="stop-color:#46537A"/>
		</linearGradient>
		<rect x="230.136" y="5.599" clip-path="url(#SVGID_7_)" fill="url(#SVGID_8_)" width="20.519" height="34.125"/>
	</g>
	<g>
		<defs>
			<path id="SVGID_566_" d="M244.76,5.599c3.255,0,5.895,7.639,5.895,17.063c0,9.415-2.635,17.049-5.887,17.062h103.497h0.008h0.007
				c3.252-0.013,5.887-7.646,5.887-17.062c0-9.425-2.638-17.063-5.894-17.063H244.76z"/>
		</defs>
		<clipPath id="SVGID_10_">
			<use xlink:href="#SVGID_566_"  overflow="visible"/>
		</clipPath>
		
			<linearGradient id="SVGID_11_" gradientUnits="userSpaceOnUse" x1="-832.3369" y1="-398.6309" x2="-831.3364" y2="-398.6309" gradientTransform="matrix(0 32.5937 32.5937 0 13292.3271 27135.1738)">
			<stop  offset="0" style="stop-color:#1C1D20"/>
			<stop  offset="0.5094" style="stop-color:#383A3C"/>
			<stop  offset="1" style="stop-color:#1C1D20"/>
		</linearGradient>
		<rect x="244.76" y="5.599" clip-path="url(#SVGID_10_)" fill="url(#SVGID_11_)" width="109.406" height="34.125"/>
	</g>
	<g>
		<defs>
			<rect id="SVGID_569_" x="227.243" y="39.598" width="10.33" height="2.417"/>
		</defs>
		<clipPath id="SVGID_13_">
			<use xlink:href="#SVGID_569_"  overflow="visible"/>
		</clipPath>
		
			<linearGradient id="SVGID_14_" gradientUnits="userSpaceOnUse" x1="-640.8135" y1="-398.6309" x2="-639.8135" y2="-398.6309" gradientTransform="matrix(0 2.5014 2.5014 0 1229.5398 1642.605)">
			<stop  offset="0" style="stop-color:#656A71"/>
			<stop  offset="0.3471" style="stop-color:#ABACAE"/>
			<stop  offset="0.7908" style="stop-color:#DBDBD9"/>
			<stop  offset="1" style="stop-color:#999B98"/>
		</linearGradient>
		<rect x="227.243" y="39.598" clip-path="url(#SVGID_13_)" fill="url(#SVGID_14_)" width="10.33" height="2.417"/>
	</g>
	<g>
		<defs>
			<rect id="SVGID_572_" x="238.529" y="39.057" width="1.491" height="2.417"/>
		</defs>
		<clipPath id="SVGID_16_">
			<use xlink:href="#SVGID_572_"  overflow="visible"/>
		</clipPath>
		
			<linearGradient id="SVGID_17_" gradientUnits="userSpaceOnUse" x1="-640.8135" y1="-398.6309" x2="-639.8135" y2="-398.6309" gradientTransform="matrix(0 2.5014 2.5014 0 1236.405 1642.064)">
			<stop  offset="0" style="stop-color:#656A71"/>
			<stop  offset="0.3471" style="stop-color:#ABACAE"/>
			<stop  offset="0.7908" style="stop-color:#DBDBD9"/>
			<stop  offset="1" style="stop-color:#999B98"/>
		</linearGradient>
		<rect x="238.529" y="39.057" clip-path="url(#SVGID_16_)" fill="url(#SVGID_17_)" width="1.491" height="2.417"/>
	</g>
	<g>
		<defs>
			<polygon id="SVGID_575_" points="237.573,39.599 237.573,42.015 238.529,41.474 238.529,39.057 			"/>
		</defs>
		<clipPath id="SVGID_19_">
			<use xlink:href="#SVGID_575_"  overflow="visible"/>
		</clipPath>
		
			<linearGradient id="SVGID_20_" gradientUnits="userSpaceOnUse" x1="-1086.7476" y1="-260.9404" x2="-1085.7473" y2="-260.9404" gradientTransform="matrix(-0.9421 -1.6318 -1.6318 0.9421 -1211.1025 -1486.1194)">
			<stop  offset="0" style="stop-color:#656A71"/>
			<stop  offset="1" style="stop-color:#2F3642"/>
		</linearGradient>
		<polygon clip-path="url(#SVGID_19_)" fill="url(#SVGID_20_)" points="237.812,42.429 236.292,39.796 238.29,38.643 239.81,41.275 
					"/>
	</g>
	<g>
		<defs>
			<rect id="SVGID_578_" x="227.243" y="3.452" width="10.33" height="2.417"/>
		</defs>
		<clipPath id="SVGID_22_">
			<use xlink:href="#SVGID_578_"  overflow="visible"/>
		</clipPath>
		
			<linearGradient id="SVGID_23_" gradientUnits="userSpaceOnUse" x1="-1055.7002" y1="-398.6309" x2="-1054.7002" y2="-398.6309" gradientTransform="matrix(0 -2.5014 -2.5014 0 -764.7215 -2634.9312)">
			<stop  offset="0" style="stop-color:#656A71"/>
			<stop  offset="0.3471" style="stop-color:#ABACAE"/>
			<stop  offset="0.7908" style="stop-color:#DBDBD9"/>
			<stop  offset="1" style="stop-color:#999B98"/>
		</linearGradient>
		<rect x="227.243" y="3.452" clip-path="url(#SVGID_22_)" fill="url(#SVGID_23_)" width="10.33" height="2.417"/>
	</g>
	<g>
		<defs>
			<rect id="SVGID_581_" x="238.529" y="3.993" width="1.491" height="2.417"/>
		</defs>
		<clipPath id="SVGID_25_">
			<use xlink:href="#SVGID_581_"  overflow="visible"/>
		</clipPath>
		
			<linearGradient id="SVGID_26_" gradientUnits="userSpaceOnUse" x1="-1055.7002" y1="-398.6309" x2="-1054.7002" y2="-398.6309" gradientTransform="matrix(0 -2.5014 -2.5014 0 -757.8563 -2634.3882)">
			<stop  offset="0" style="stop-color:#656A71"/>
			<stop  offset="0.3471" style="stop-color:#ABACAE"/>
			<stop  offset="0.7908" style="stop-color:#DBDBD9"/>
			<stop  offset="1" style="stop-color:#999B98"/>
		</linearGradient>
		<rect x="238.529" y="3.993" clip-path="url(#SVGID_25_)" fill="url(#SVGID_26_)" width="1.491" height="2.417"/>
	</g>
	<g>
		<defs>
			<polygon id="SVGID_584_" points="237.573,5.869 238.529,6.41 238.529,3.993 237.573,3.452 			"/>
		</defs>
		<clipPath id="SVGID_28_">
			<use xlink:href="#SVGID_584_"  overflow="visible"/>
		</clipPath>
		
			<linearGradient id="SVGID_29_" gradientUnits="userSpaceOnUse" x1="-609.7666" y1="-536.3252" x2="-608.7666" y2="-536.3252" gradientTransform="matrix(-0.9421 1.6318 -1.6318 -0.9421 -1211.1025 493.7936)">
			<stop  offset="0" style="stop-color:#656A71"/>
			<stop  offset="1" style="stop-color:#2F3642"/>
		</linearGradient>
		<polygon clip-path="url(#SVGID_28_)" fill="url(#SVGID_29_)" points="237.813,3.039 236.292,5.671 238.29,6.824 239.81,4.192 		
			"/>
	</g>
	<rect x="3" y="3.182" fill="#3D3D3F" width="35.5" height="38.833"/>
	<rect x="37.073" y="3.182" fill="#343435" width="1.427" height="38.833"/>
	<rect x="18.157" y="12.765" fill="#1C1D20" width="2.257" height="19"/>
	<rect x="21.991" y="12.765" fill="#1C1D20" width="2.257" height="19"/>
	<rect x="25.824" y="12.765" fill="#1C1D20" width="2.257" height="19"/>
	<rect x="5.302" y="3.182" fill="#303032" width="31.198" height="2.917"/>
	<rect x="5.302" y="39.098" fill="#303032" width="31.198" height="2.917"/>
	<rect x="37.073" y="3.182" fill="#1C1D20" width="1.427" height="2.917"/>
	<rect x="37.073" y="39.098" fill="#1C1D20" width="1.427" height="2.917"/>
	<rect x="38.853" y="3.182" fill="#3D3D3F" width="39.565" height="38.833"/>
	<rect x="78.418" y="3.182" fill="#3D3D3F" width="148.825" height="38.833"/>
	<path fill="#1C1D20" d="M68.1,21.966c0,4.531-3.673,8.204-8.204,8.204c-4.532,0-8.205-3.673-8.205-8.204s3.673-8.204,8.205-8.204
		C64.427,13.762,68.1,17.435,68.1,21.966"/>
	<path fill="#EEEEEE" d="M66.916,21.966c0,3.878-3.144,7.021-7.021,7.021c-3.878,0-7.022-3.144-7.022-7.021s3.145-7.021,7.022-7.021
		C63.772,14.945,66.916,18.088,66.916,21.966"/>
	<path fill="none" stroke="#CBCBCC" stroke-miterlimit="10" d="M58.672,18.913c-1.213,0.486-2.07,1.667-2.07,3.053
		c0,1.818,1.475,3.294,3.294,3.294c1.818,0,3.293-1.476,3.293-3.294c0-1.386-0.858-2.566-2.07-3.053"/>
	<rect x="59.219" y="16.896" fill="#CBCBCC" width="1.353" height="4.207"/>
	<path fill="#3D3D3F" d="M52.794,33.999C49.226,31,47.18,26.614,47.18,21.966s2.046-9.034,5.614-12.033l1.416,1.685
		c-3.07,2.58-4.831,6.352-4.831,10.349s1.761,7.77,4.831,10.349L52.794,33.999z"/>
	<path fill="none" stroke="#353537" stroke-miterlimit="10" d="M52.794,33.999C49.226,31,47.18,26.614,47.18,21.966
		s2.046-9.034,5.614-12.033l1.416,1.685c-3.07,2.58-4.831,6.352-4.831,10.349s1.761,7.77,4.831,10.349L52.794,33.999z"/>
	<rect x="76.991" y="3.182" fill="#343435" width="1.427" height="38.833"/>
	<path fill="#1C1D20" d="M143.557,32.349h-16.614c-0.438,0-0.797-0.359-0.797-0.797V12.313c0-0.439,0.359-0.797,0.797-0.797h16.614
		c0.438,0,0.797,0.357,0.797,0.797v19.239C144.354,31.989,143.995,32.349,143.557,32.349"/>
	<path fill="#EEEEEE" d="M142.615,30.898h-14.73c-0.259,0-0.471-0.213-0.471-0.472V13.438c0-0.26,0.212-0.472,0.471-0.472h14.73
		c0.259,0,0.471,0.212,0.471,0.472v16.989C143.086,30.686,142.874,30.898,142.615,30.898"/>
	<rect x="130.916" y="16.664" fill="#CBCBCC" width="8.667" height="2.018"/>
	<rect x="134.166" y="18.682" fill="#CBCBCC" width="2.167" height="8.518"/>
</g>
<rect x="-848.257" y="-131.734" fill="none" width="1275.59" height="252"/>
<g>
	<defs>
		<rect id="SVGID_590_" x="-848.257" y="-131.734" width="1275.59" height="252"/>
	</defs>
	<clipPath id="SVGID_31_">
		<use xlink:href="#SVGID_590_"  overflow="visible"/>
	</clipPath>
</g>
<g>
	<defs>
		<rect id="SVGID_595_" x="-848.257" y="-131.734" width="1275.59" height="252"/>
	</defs>
	<clipPath id="SVGID_32_">
		<use xlink:href="#SVGID_595_"  overflow="visible"/>
	</clipPath>
</g>
<g>
	<defs>
		<rect id="SVGID_600_" x="-848.257" y="-131.734" width="1275.59" height="252"/>
	</defs>
	<clipPath id="SVGID_34_">
		<use xlink:href="#SVGID_600_"  overflow="visible"/>
	</clipPath>
</g>
<g>
	<defs>
		<rect id="SVGID_605_" x="-848.257" y="-131.734" width="1275.59" height="252"/>
	</defs>
	<clipPath id="SVGID_36_">
		<use xlink:href="#SVGID_605_"  overflow="visible"/>
	</clipPath>
</g>
<g>
	<defs>
		<rect id="SVGID_613_" x="-848.257" y="-131.734" width="1275.59" height="252"/>
	</defs>
	<clipPath id="SVGID_37_">
		<use xlink:href="#SVGID_613_"  overflow="visible"/>
	</clipPath>
</g>
<g>
	<defs>
		<rect id="SVGID_618_" x="-848.257" y="-131.734" width="1275.59" height="252"/>
	</defs>
	<clipPath id="SVGID_39_">
		<use xlink:href="#SVGID_618_"  overflow="visible"/>
	</clipPath>
</g>
<g>
	<defs>
		<rect id="SVGID_623_" x="-848.257" y="-131.734" width="1275.59" height="252"/>
	</defs>
	<clipPath id="SVGID_41_">
		<use xlink:href="#SVGID_623_"  overflow="visible"/>
	</clipPath>
</g>
<g>
	<defs>
		<rect id="SVGID_628_" x="-848.257" y="-131.734" width="1275.59" height="252"/>
	</defs>
	<clipPath id="SVGID_42_">
		<use xlink:href="#SVGID_628_"  overflow="visible"/>
	</clipPath>
</g>
<g>
	<defs>
		<rect id="SVGID_633_" x="-848.257" y="-131.734" width="1275.59" height="252"/>
	</defs>
	<clipPath id="SVGID_44_">
		<use xlink:href="#SVGID_633_"  overflow="visible"/>
	</clipPath>
</g>
<g>
	<defs>
		<rect id="SVGID_638_" x="-848.257" y="-131.734" width="1275.59" height="252"/>
	</defs>
	<clipPath id="SVGID_46_">
		<use xlink:href="#SVGID_638_"  overflow="visible"/>
	</clipPath>
</g>
<g>
	<defs>
		<rect id="SVGID_646_" x="-848.257" y="-131.734" width="1275.59" height="252"/>
	</defs>
	<clipPath id="SVGID_47_">
		<use xlink:href="#SVGID_646_"  overflow="visible"/>
	</clipPath>
</g>
<g>
	<defs>
		<rect id="SVGID_651_" x="-848.257" y="-131.734" width="1275.59" height="252"/>
	</defs>
	<clipPath id="SVGID_49_">
		<use xlink:href="#SVGID_651_"  overflow="visible"/>
	</clipPath>
</g>
<g>
	<defs>
		<rect id="SVGID_656_" x="-848.257" y="-131.734" width="1275.59" height="252"/>
	</defs>
	<clipPath id="SVGID_51_">
		<use xlink:href="#SVGID_656_"  overflow="visible"/>
	</clipPath>
</g>
<g>
	<defs>
		<rect id="SVGID_661_" x="-848.257" y="-131.734" width="1275.59" height="252"/>
	</defs>
	<clipPath id="SVGID_52_">
		<use xlink:href="#SVGID_661_"  overflow="visible"/>
	</clipPath>
</g>
<g>
	<defs>
		<rect id="SVGID_666_" x="-848.257" y="-131.734" width="1275.59" height="252"/>
	</defs>
	<clipPath id="SVGID_54_">
		<use xlink:href="#SVGID_666_"  overflow="visible"/>
	</clipPath>
</g>
<g>
	<defs>
		<rect id="SVGID_671_" x="-848.257" y="-131.734" width="1275.59" height="252"/>
	</defs>
	<clipPath id="SVGID_55_">
		<use xlink:href="#SVGID_671_"  overflow="visible"/>
	</clipPath>
</g>
<g>
	<defs>
		<rect id="SVGID_679_" x="-848.257" y="-131.734" width="1275.59" height="252"/>
	</defs>
	<clipPath id="SVGID_57_">
		<use xlink:href="#SVGID_679_"  overflow="visible"/>
	</clipPath>
</g>
<g>
	<defs>
		<rect id="SVGID_684_" x="-848.257" y="-131.734" width="1275.59" height="252"/>
	</defs>
	<clipPath id="SVGID_59_">
		<use xlink:href="#SVGID_684_"  overflow="visible"/>
	</clipPath>
</g>
<g>
	<defs>
		<rect id="SVGID_689_" x="-848.257" y="-131.734" width="1275.59" height="252"/>
	</defs>
	<clipPath id="SVGID_60_">
		<use xlink:href="#SVGID_689_"  overflow="visible"/>
	</clipPath>
</g>
<g>
	<defs>
		<rect id="SVGID_694_" x="-848.257" y="-131.734" width="1275.59" height="252"/>
	</defs>
	<clipPath id="SVGID_62_">
		<use xlink:href="#SVGID_694_"  overflow="visible"/>
	</clipPath>
</g>
<g>
	<defs>
		<rect id="SVGID_699_" x="-848.257" y="-131.734" width="1275.59" height="252"/>
	</defs>
	<clipPath id="SVGID_64_">
		<use xlink:href="#SVGID_699_"  overflow="visible"/>
	</clipPath>
</g>
<g>
	<defs>
		<rect id="SVGID_704_" x="-848.257" y="-131.734" width="1275.59" height="252"/>
	</defs>
	<clipPath id="SVGID_65_">
		<use xlink:href="#SVGID_704_"  overflow="visible"/>
	</clipPath>
</g>
<g>
	<defs>
		<rect id="SVGID_712_" x="-848.257" y="-131.734" width="1275.59" height="252"/>
	</defs>
	<clipPath id="SVGID_67_">
		<use xlink:href="#SVGID_712_"  overflow="visible"/>
	</clipPath>
</g>
<g>
	<defs>
		<rect id="SVGID_717_" x="-848.257" y="-131.734" width="1275.59" height="252"/>
	</defs>
	<clipPath id="SVGID_69_">
		<use xlink:href="#SVGID_717_"  overflow="visible"/>
	</clipPath>
</g>
<g>
	<defs>
		<rect id="SVGID_722_" x="-848.257" y="-131.734" width="1275.59" height="252"/>
	</defs>
	<clipPath id="SVGID_70_">
		<use xlink:href="#SVGID_722_"  overflow="visible"/>
	</clipPath>
</g>
<g>
	<defs>
		<rect id="SVGID_727_" x="-848.257" y="-131.734" width="1275.59" height="252"/>
	</defs>
	<clipPath id="SVGID_72_">
		<use xlink:href="#SVGID_727_"  overflow="visible"/>
	</clipPath>
</g>
<g>
	<defs>
		<rect id="SVGID_732_" x="-848.257" y="-131.734" width="1275.59" height="252"/>
	</defs>
	<clipPath id="SVGID_74_">
		<use xlink:href="#SVGID_732_"  overflow="visible"/>
	</clipPath>
</g>
<g>
	<defs>
		<rect id="SVGID_737_" x="-848.257" y="-131.734" width="1275.59" height="252"/>
	</defs>
	<clipPath id="SVGID_75_">
		<use xlink:href="#SVGID_737_"  overflow="visible"/>
	</clipPath>
</g>
<g>
	<defs>
		<rect id="SVGID_745_" x="-848.257" y="-131.734" width="1275.59" height="252"/>
	</defs>
	<clipPath id="SVGID_77_">
		<use xlink:href="#SVGID_745_"  overflow="visible"/>
	</clipPath>
</g>
<g>
	<defs>
		<rect id="SVGID_750_" x="-848.257" y="-131.734" width="1275.59" height="252"/>
	</defs>
	<clipPath id="SVGID_79_">
		<use xlink:href="#SVGID_750_"  overflow="visible"/>
	</clipPath>
</g>
<g>
	<defs>
		<rect id="SVGID_755_" x="-848.257" y="-131.734" width="1275.59" height="252"/>
	</defs>
	<clipPath id="SVGID_80_">
		<use xlink:href="#SVGID_755_"  overflow="visible"/>
	</clipPath>
</g>
<g>
	<defs>
		<rect id="SVGID_760_" x="-848.257" y="-131.734" width="1275.59" height="252"/>
	</defs>
	<clipPath id="SVGID_82_">
		<use xlink:href="#SVGID_760_"  overflow="visible"/>
	</clipPath>
</g>
<g>
	<defs>
		<rect id="SVGID_765_" x="-848.257" y="-131.734" width="1275.59" height="252"/>
	</defs>
	<clipPath id="SVGID_84_">
		<use xlink:href="#SVGID_765_"  overflow="visible"/>
	</clipPath>
</g>
<g>
	<defs>
		<rect id="SVGID_770_" x="-848.257" y="-131.734" width="1275.59" height="252"/>
	</defs>
	<clipPath id="SVGID_85_">
		<use xlink:href="#SVGID_770_"  overflow="visible"/>
	</clipPath>
</g>
<g>
	<defs>
		<rect id="SVGID_778_" x="-848.257" y="-131.734" width="1275.59" height="252"/>
	</defs>
	<clipPath id="SVGID_87_">
		<use xlink:href="#SVGID_778_"  overflow="visible"/>
	</clipPath>
</g>
<g>
	<defs>
		<rect id="SVGID_783_" x="-848.257" y="-131.734" width="1275.59" height="252"/>
	</defs>
	<clipPath id="SVGID_88_">
		<use xlink:href="#SVGID_783_"  overflow="visible"/>
	</clipPath>
</g>
<g>
	<defs>
		<rect id="SVGID_788_" x="-848.257" y="-131.734" width="1275.59" height="252"/>
	</defs>
	<clipPath id="SVGID_90_">
		<use xlink:href="#SVGID_788_"  overflow="visible"/>
	</clipPath>
</g>
<g>
	<defs>
		<rect id="SVGID_793_" x="-848.257" y="-131.734" width="1275.59" height="252"/>
	</defs>
	<clipPath id="SVGID_92_">
		<use xlink:href="#SVGID_793_"  overflow="visible"/>
	</clipPath>
</g>
<g>
	<defs>
		<rect id="SVGID_798_" x="-848.257" y="-131.734" width="1275.59" height="252"/>
	</defs>
	<clipPath id="SVGID_93_">
		<use xlink:href="#SVGID_798_"  overflow="visible"/>
	</clipPath>
</g>
<g>
	<defs>
		<rect id="SVGID_803_" x="-848.257" y="-131.734" width="1275.59" height="252"/>
	</defs>
	<clipPath id="SVGID_95_">
		<use xlink:href="#SVGID_803_"  overflow="visible"/>
	</clipPath>
</g>
<g>
	<defs>
		<rect id="SVGID_811_" x="-848.257" y="-131.734" width="1275.59" height="252"/>
	</defs>
	<clipPath id="SVGID_97_">
		<use xlink:href="#SVGID_811_"  overflow="visible"/>
	</clipPath>
</g>
<g>
	<defs>
		<rect id="SVGID_816_" x="-848.257" y="-131.734" width="1275.59" height="252"/>
	</defs>
	<clipPath id="SVGID_98_">
		<use xlink:href="#SVGID_816_"  overflow="visible"/>
	</clipPath>
</g>
<g>
	<defs>
		<rect id="SVGID_821_" x="-848.257" y="-131.734" width="1275.59" height="252"/>
	</defs>
	<clipPath id="SVGID_100_">
		<use xlink:href="#SVGID_821_"  overflow="visible"/>
	</clipPath>
</g>
<g>
	<defs>
		<rect id="SVGID_826_" x="-848.257" y="-131.734" width="1275.59" height="252"/>
	</defs>
	<clipPath id="SVGID_102_">
		<use xlink:href="#SVGID_826_"  overflow="visible"/>
	</clipPath>
</g>
<g>
	<defs>
		<rect id="SVGID_831_" x="-848.257" y="-131.734" width="1275.59" height="252"/>
	</defs>
	<clipPath id="SVGID_103_">
		<use xlink:href="#SVGID_831_"  overflow="visible"/>
	</clipPath>
</g>
<g>
	<defs>
		<rect id="SVGID_836_" x="-848.257" y="-131.734" width="1275.59" height="252"/>
	</defs>
	<clipPath id="SVGID_105_">
		<use xlink:href="#SVGID_836_"  overflow="visible"/>
	</clipPath>
</g>
<g>
	<defs>
		<rect id="SVGID_844_" x="-848.257" y="-131.734" width="1275.59" height="252"/>
	</defs>
	<clipPath id="SVGID_107_">
		<use xlink:href="#SVGID_844_"  overflow="visible"/>
	</clipPath>
</g>
<g>
	<defs>
		<rect id="SVGID_849_" x="-848.257" y="-131.734" width="1275.59" height="252"/>
	</defs>
	<clipPath id="SVGID_108_">
		<use xlink:href="#SVGID_849_"  overflow="visible"/>
	</clipPath>
</g>
<g>
	<defs>
		<rect id="SVGID_854_" x="-848.257" y="-131.734" width="1275.59" height="252"/>
	</defs>
	<clipPath id="SVGID_110_">
		<use xlink:href="#SVGID_854_"  overflow="visible"/>
	</clipPath>
</g>
<g>
	<defs>
		<rect id="SVGID_859_" x="-848.257" y="-131.734" width="1275.59" height="252"/>
	</defs>
	<clipPath id="SVGID_112_">
		<use xlink:href="#SVGID_859_"  overflow="visible"/>
	</clipPath>
</g>
<g>
	<defs>
		<rect id="SVGID_864_" x="-848.257" y="-131.734" width="1275.59" height="252"/>
	</defs>
	<clipPath id="SVGID_113_">
		<use xlink:href="#SVGID_864_"  overflow="visible"/>
	</clipPath>
</g>
<g>
	<defs>
		<rect id="SVGID_869_" x="-848.257" y="-131.734" width="1275.59" height="252"/>
	</defs>
	<clipPath id="SVGID_115_">
		<use xlink:href="#SVGID_869_"  overflow="visible"/>
	</clipPath>
</g>
<g>
	<defs>
		<rect id="SVGID_877_" x="-848.257" y="-131.734" width="1275.59" height="252"/>
	</defs>
	<clipPath id="SVGID_117_">
		<use xlink:href="#SVGID_877_"  overflow="visible"/>
	</clipPath>
</g>
<g>
	<defs>
		<rect id="SVGID_882_" x="-848.257" y="-131.734" width="1275.59" height="252"/>
	</defs>
	<clipPath id="SVGID_118_">
		<use xlink:href="#SVGID_882_"  overflow="visible"/>
	</clipPath>
</g>
<g>
	<defs>
		<rect id="SVGID_887_" x="-848.257" y="-131.734" width="1275.59" height="252"/>
	</defs>
	<clipPath id="SVGID_120_">
		<use xlink:href="#SVGID_887_"  overflow="visible"/>
	</clipPath>
</g>
<g>
	<defs>
		<rect id="SVGID_892_" x="-848.257" y="-131.734" width="1275.59" height="252"/>
	</defs>
	<clipPath id="SVGID_121_">
		<use xlink:href="#SVGID_892_"  overflow="visible"/>
	</clipPath>
</g>
<g>
	<defs>
		<rect id="SVGID_897_" x="-848.257" y="-131.734" width="1275.59" height="252"/>
	</defs>
	<clipPath id="SVGID_123_">
		<use xlink:href="#SVGID_897_"  overflow="visible"/>
	</clipPath>
</g>
<g>
	<defs>
		<rect id="SVGID_902_" x="-848.257" y="-131.734" width="1275.59" height="252"/>
	</defs>
	<clipPath id="SVGID_125_">
		<use xlink:href="#SVGID_902_"  overflow="visible"/>
	</clipPath>
</g>
<g>
	<defs>
		<rect id="SVGID_910_" x="-848.257" y="-131.734" width="1275.59" height="252"/>
	</defs>
	<clipPath id="SVGID_126_">
		<use xlink:href="#SVGID_910_"  overflow="visible"/>
	</clipPath>
</g>
<g>
	<defs>
		<rect id="SVGID_915_" x="-848.257" y="-131.734" width="1275.59" height="252"/>
	</defs>
	<clipPath id="SVGID_128_">
		<use xlink:href="#SVGID_915_"  overflow="visible"/>
	</clipPath>
</g>
<g>
	<defs>
		<rect id="SVGID_920_" x="-848.257" y="-131.734" width="1275.59" height="252"/>
	</defs>
	<clipPath id="SVGID_130_">
		<use xlink:href="#SVGID_920_"  overflow="visible"/>
	</clipPath>
</g>
<g>
	<defs>
		<rect id="SVGID_925_" x="-848.257" y="-131.734" width="1275.59" height="252"/>
	</defs>
	<clipPath id="SVGID_131_">
		<use xlink:href="#SVGID_925_"  overflow="visible"/>
	</clipPath>
</g>
<g>
	<defs>
		<rect id="SVGID_930_" x="-848.257" y="-131.734" width="1275.59" height="252"/>
	</defs>
	<clipPath id="SVGID_133_">
		<use xlink:href="#SVGID_930_"  overflow="visible"/>
	</clipPath>
</g>
<g>
	<defs>
		<rect id="SVGID_935_" x="-848.257" y="-131.734" width="1275.59" height="252"/>
	</defs>
	<clipPath id="SVGID_135_">
		<use xlink:href="#SVGID_935_"  overflow="visible"/>
	</clipPath>
</g>
<g>
	<defs>
		<rect id="SVGID_943_" x="-848.257" y="-131.734" width="1275.59" height="252"/>
	</defs>
	<clipPath id="SVGID_136_">
		<use xlink:href="#SVGID_943_"  overflow="visible"/>
	</clipPath>
</g>
<g>
	<defs>
		<rect id="SVGID_948_" x="-848.257" y="-131.734" width="1275.59" height="252"/>
	</defs>
	<clipPath id="SVGID_138_">
		<use xlink:href="#SVGID_948_"  overflow="visible"/>
	</clipPath>
</g>
<g>
	<defs>
		<rect id="SVGID_953_" x="-848.257" y="-131.734" width="1275.59" height="252"/>
	</defs>
	<clipPath id="SVGID_140_">
		<use xlink:href="#SVGID_953_"  overflow="visible"/>
	</clipPath>
</g>
<g>
	<defs>
		<rect id="SVGID_958_" x="-848.257" y="-131.734" width="1275.59" height="252"/>
	</defs>
	<clipPath id="SVGID_141_">
		<use xlink:href="#SVGID_958_"  overflow="visible"/>
	</clipPath>
</g>
<g>
	<defs>
		<rect id="SVGID_963_" x="-848.257" y="-131.734" width="1275.59" height="252"/>
	</defs>
	<clipPath id="SVGID_143_">
		<use xlink:href="#SVGID_963_"  overflow="visible"/>
	</clipPath>
</g>
<g>
	<defs>
		<rect id="SVGID_968_" x="-848.257" y="-131.734" width="1275.59" height="252"/>
	</defs>
	<clipPath id="SVGID_145_">
		<use xlink:href="#SVGID_968_"  overflow="visible"/>
	</clipPath>
</g>
<g>
	<defs>
		<rect id="SVGID_976_" x="-848.257" y="-131.734" width="1275.59" height="252"/>
	</defs>
	<clipPath id="SVGID_146_">
		<use xlink:href="#SVGID_976_"  overflow="visible"/>
	</clipPath>
</g>
<g>
	<defs>
		<rect id="SVGID_981_" x="-848.257" y="-131.734" width="1275.59" height="252"/>
	</defs>
	<clipPath id="SVGID_148_">
		<use xlink:href="#SVGID_981_"  overflow="visible"/>
	</clipPath>
</g>
<g>
	<defs>
		<rect id="SVGID_986_" x="-848.257" y="-131.734" width="1275.59" height="252"/>
	</defs>
	<clipPath id="SVGID_150_">
		<use xlink:href="#SVGID_986_"  overflow="visible"/>
	</clipPath>
</g>
<g>
	<defs>
		<rect id="SVGID_991_" x="-848.257" y="-131.734" width="1275.59" height="252"/>
	</defs>
	<clipPath id="SVGID_151_">
		<use xlink:href="#SVGID_991_"  overflow="visible"/>
	</clipPath>
</g>
<g>
	<defs>
		<rect id="SVGID_996_" x="-848.257" y="-131.734" width="1275.59" height="252"/>
	</defs>
	<clipPath id="SVGID_153_">
		<use xlink:href="#SVGID_996_"  overflow="visible"/>
	</clipPath>
</g>
<g>
	<defs>
		<rect id="SVGID_1001_" x="-848.257" y="-131.734" width="1275.59" height="252"/>
	</defs>
	<clipPath id="SVGID_154_">
		<use xlink:href="#SVGID_1001_"  overflow="visible"/>
	</clipPath>
</g>
<g>
	<defs>
		<rect id="SVGID_1009_" x="-848.257" y="-131.734" width="1275.59" height="252"/>
	</defs>
	<clipPath id="SVGID_156_">
		<use xlink:href="#SVGID_1009_"  overflow="visible"/>
	</clipPath>
</g>
<g>
	<defs>
		<rect id="SVGID_1014_" x="-848.257" y="-131.734" width="1275.59" height="252"/>
	</defs>
	<clipPath id="SVGID_158_">
		<use xlink:href="#SVGID_1014_"  overflow="visible"/>
	</clipPath>
</g>
<g>
	<defs>
		<rect id="SVGID_1019_" x="-848.257" y="-131.734" width="1275.59" height="252"/>
	</defs>
	<clipPath id="SVGID_159_">
		<use xlink:href="#SVGID_1019_"  overflow="visible"/>
	</clipPath>
</g>
<g>
	<defs>
		<rect id="SVGID_1024_" x="-848.257" y="-131.734" width="1275.59" height="252"/>
	</defs>
	<clipPath id="SVGID_161_">
		<use xlink:href="#SVGID_1024_"  overflow="visible"/>
	</clipPath>
</g>
<g>
	<defs>
		<rect id="SVGID_1029_" x="-848.257" y="-131.734" width="1275.59" height="252"/>
	</defs>
	<clipPath id="SVGID_163_">
		<use xlink:href="#SVGID_1029_"  overflow="visible"/>
	</clipPath>
</g>
<g>
	<defs>
		<rect id="SVGID_1034_" x="-848.257" y="-131.734" width="1275.59" height="252"/>
	</defs>
	<clipPath id="SVGID_164_">
		<use xlink:href="#SVGID_1034_"  overflow="visible"/>
	</clipPath>
</g>
<g>
	<defs>
		<rect id="SVGID_1042_" x="-848.257" y="-131.734" width="1275.59" height="252"/>
	</defs>
	<clipPath id="SVGID_166_">
		<use xlink:href="#SVGID_1042_"  overflow="visible"/>
	</clipPath>
</g>
<g>
	<defs>
		<rect id="SVGID_1047_" x="-848.257" y="-131.734" width="1275.59" height="252"/>
	</defs>
	<clipPath id="SVGID_168_">
		<use xlink:href="#SVGID_1047_"  overflow="visible"/>
	</clipPath>
</g>
<g>
	<defs>
		<rect id="SVGID_1052_" x="-848.257" y="-131.734" width="1275.59" height="252"/>
	</defs>
	<clipPath id="SVGID_169_">
		<use xlink:href="#SVGID_1052_"  overflow="visible"/>
	</clipPath>
</g>
<g>
	<defs>
		<rect id="SVGID_1057_" x="-848.257" y="-131.734" width="1275.59" height="252"/>
	</defs>
	<clipPath id="SVGID_171_">
		<use xlink:href="#SVGID_1057_"  overflow="visible"/>
	</clipPath>
</g>
<g>
	<defs>
		<rect id="SVGID_1062_" x="-848.257" y="-131.734" width="1275.59" height="252"/>
	</defs>
	<clipPath id="SVGID_173_">
		<use xlink:href="#SVGID_1062_"  overflow="visible"/>
	</clipPath>
</g>
<g>
	<defs>
		<rect id="SVGID_1067_" x="-848.257" y="-131.734" width="1275.59" height="252"/>
	</defs>
	<clipPath id="SVGID_174_">
		<use xlink:href="#SVGID_1067_"  overflow="visible"/>
	</clipPath>
</g>
<g>
	<defs>
		<rect id="SVGID_1075_" x="-848.257" y="-131.734" width="1275.59" height="252"/>
	</defs>
	<clipPath id="SVGID_176_">
		<use xlink:href="#SVGID_1075_"  overflow="visible"/>
	</clipPath>
</g>
<g>
	<defs>
		<rect id="SVGID_1080_" x="-848.257" y="-131.734" width="1275.59" height="252"/>
	</defs>
	<clipPath id="SVGID_178_">
		<use xlink:href="#SVGID_1080_"  overflow="visible"/>
	</clipPath>
</g>
<g>
	<defs>
		<rect id="SVGID_1085_" x="-848.257" y="-131.734" width="1275.59" height="252"/>
	</defs>
	<clipPath id="SVGID_179_">
		<use xlink:href="#SVGID_1085_"  overflow="visible"/>
	</clipPath>
</g>
<g>
	<defs>
		<rect id="SVGID_1090_" x="-848.257" y="-131.734" width="1275.59" height="252"/>
	</defs>
	<clipPath id="SVGID_181_">
		<use xlink:href="#SVGID_1090_"  overflow="visible"/>
	</clipPath>
</g>
<g>
	<defs>
		<rect id="SVGID_1095_" x="-848.257" y="-131.734" width="1275.59" height="252"/>
	</defs>
	<clipPath id="SVGID_183_">
		<use xlink:href="#SVGID_1095_"  overflow="visible"/>
	</clipPath>
</g>
<g>
	<defs>
		<rect id="SVGID_1100_" x="-848.257" y="-131.734" width="1275.59" height="252"/>
	</defs>
	<clipPath id="SVGID_184_">
		<use xlink:href="#SVGID_1100_"  overflow="visible"/>
	</clipPath>
</g>
<g>
	<defs>
		<rect id="SVGID_1108_" x="-848.257" y="-131.734" width="1275.59" height="252"/>
	</defs>
	<clipPath id="SVGID_186_">
		<use xlink:href="#SVGID_1108_"  overflow="visible"/>
	</clipPath>
</g>
<rect x="-848.257" y="-131.734" fill="none" width="1275.59" height="252"/>
</svg>
