<?xml version="1.0" encoding="utf-8"?>
<!-- Generator: Adobe Illustrator 16.0.0, SVG Export Plug-In . SVG Version: 6.00 Build 0)  -->
<!DOCTYPE svg PUBLIC "-//W3C//DTD SVG 1.1//EN" "http://www.w3.org/Graphics/SVG/1.1/DTD/svg11.dtd">
<svg version="1.1" id="图层_1" xmlns="http://www.w3.org/2000/svg" xmlns:xlink="http://www.w3.org/1999/xlink" x="0px" y="0px"
	 width="338.83px" height="37.92px" viewBox="0 0 338.83 37.92" enable-background="new 0 0 338.83 37.92" xml:space="preserve">
<rect x="-0.019" y="0.076" fill="#47494F" width="338.834" height="37.916"/>
<path fill="#46484E" stroke="#101010" stroke-miterlimit="10" d="M234.148,24.367c0,1.104-0.896,2-2,2h-25.44c-1.104,0-2-0.896-2-2
	V13.7c0-1.104,0.896-2,2-2h25.44c1.104,0,2,0.896,2,2V24.367z"/>
<path fill="#909298" stroke="#101010" stroke-miterlimit="10" d="M197.648,25.433c0,0.376-0.305,0.682-0.682,0.682h-8.668
	c-0.376,0-0.682-0.306-0.682-0.682v-3.634c0-0.377,0.306-0.682,0.682-0.682h8.668c0.377,0,0.682,0.305,0.682,0.682V25.433z"/>
<rect x="246.273" y="22.66" fill="#1C1D20" width="3.208" height="3.707"/>
<g>
	<path fill="#E5E5E4" d="M125.292,9.847h-10.895l-0.357,1.876h2.568h0.518h4.696c0,0,0.315,5.334-2.839,6h-3.128l0.533-4.813h-2.591
		l-0.807,6.396h6.15C126.396,18.138,125.292,9.847,125.292,9.847z"/>
	<path fill="#E5E5E4" d="M148.159,9.847h-10.895l-0.358,1.876h2.568h0.518h4.696c0,0,0.315,5.334-2.838,6h-3.128l0.532-4.813h-2.59
		l-0.808,6.396h6.151C149.263,18.138,148.159,9.847,148.159,9.847z"/>
	<polygon fill="#E5E5E4" points="127.811,9.899 129.169,19.356 130.981,19.356 137.129,9.899 134.153,9.899 131.63,14.231 
		130.334,14.303 129.493,9.899 	"/>
	<rect x="123.734" y="9.899" fill="#E5E5E4" width="4.345" height="1.871"/>
</g>
<path fill="#E5E5E4" d="M129.296,23.014c-9.786,0-17.719,1.166-17.719,2.604s7.933,2.604,17.719,2.604s17.719-1.166,17.719-2.604
	S139.082,23.014,129.296,23.014z M129.797,26.051c-1.841,0-3.334-0.327-3.334-0.729s1.493-0.729,3.334-0.729
	s3.334,0.327,3.334,0.729S131.638,26.051,129.797,26.051z"/>
<path fill="#E5E5E4" d="M94.149,27.09c0,0.553-0.448,1-1,1H67.482c-0.553,0-1-0.447-1-1V9.423c0-0.552,0.447-1,1-1h25.667
	c0.552,0,1,0.448,1,1V27.09z"/>
</svg>
