<?xml version="1.0" encoding="utf-8"?>
<!-- Generator: Adobe Illustrator 16.0.0, SVG Export Plug-In . SVG Version: 6.00 Build 0)  -->
<!DOCTYPE svg PUBLIC "-//W3C//DTD SVG 1.1//EN" "http://www.w3.org/Graphics/SVG/1.1/DTD/svg11.dtd">
<svg version="1.1" id="图层_1" xmlns="http://www.w3.org/2000/svg" xmlns:xlink="http://www.w3.org/1999/xlink" x="0px" y="0px"
	 width="378.478px" height="60.3px" viewBox="0 0 378.478 60.3" enable-background="new 0 0 378.478 60.3" xml:space="preserve">
<g>
	<path fill="#393939" d="M378.478,53.026c0,4.017-3.257,7.273-7.273,7.273H7.273C3.257,60.3,0,57.043,0,53.026V7.274
		C0,3.257,3.257,0,7.273,0h363.931c4.017,0,7.273,3.257,7.273,7.274V53.026z"/>
	<path fill="#060606" d="M377.188,51.182c0,4.206-3.295,7.614-7.357,7.614H8.646c-4.063,0-7.356-3.409-7.356-7.614V9.118
		c0-4.205,3.294-7.614,7.356-7.614h361.186c4.063,0,7.357,3.41,7.357,7.614V51.182z"/>
	<path fill="#4B4B4B" d="M374.776,49.535c0,4.018-3.257,7.274-7.273,7.274H10.975c-4.017,0-7.273-3.256-7.273-7.274v-38.77
		c0-4.017,3.257-7.273,7.273-7.273h356.528c4.017,0,7.273,3.257,7.273,7.273V49.535z"/>
	<rect x="7.231" y="6.332" fill="#050505" width="364.015" height="47.637"/>
	<rect x="7.231" y="6.332" fill="#050505" width="364.015" height="47.637"/>
	<rect x="8.541" y="7.844" fill="#666663" width="361.396" height="44.612"/>
	<rect x="253.007" y="25.266" fill="#050505" width="28.951" height="11.836"/>
	<rect x="254.099" y="26.885" fill="#4B4B4B" width="26.769" height="8.598"/>
	<rect x="231.208" y="30.578" fill="#B0B0AD" width="15.254" height="6.486"/>
	<circle fill="#050505" cx="297.425" cy="34.89" r="2.637"/>
	<g>
		<g>
			<path fill="#B0B0AD" d="M28.521,24.883V14.761h4.474c1.525,0,2.64,0.564,3.346,1.691c0.519,0.828,0.777,1.871,0.777,3.13
				c0,1.363-0.282,2.514-0.848,3.454c-0.733,1.231-1.854,1.847-3.359,1.847H28.521z M30.595,16.512v6.621h2.062
				c0.79,0,1.388-0.357,1.793-1.071c0.339-0.601,0.508-1.375,0.508-2.324c0-1.314-0.273-2.226-0.818-2.733
				c-0.358-0.328-0.861-0.493-1.512-0.493H30.595z"/>
			<path fill="#B0B0AD" d="M44.584,14.761h2.202l-3.445,10.122h-2.018l-3.416-10.122h2.272l2.174,7.666L44.584,14.761z"/>
			<path fill="#B0B0AD" d="M48.127,24.883V14.761h4.475c1.524,0,2.641,0.564,3.346,1.691c0.518,0.828,0.776,1.871,0.776,3.13
				c0,1.363-0.282,2.514-0.847,3.454c-0.734,1.231-1.854,1.847-3.359,1.847H48.127z M50.202,16.512v6.621h2.062
				c0.79,0,1.388-0.357,1.792-1.071c0.34-0.601,0.508-1.375,0.508-2.324c0-1.314-0.271-2.226-0.818-2.733
				c-0.357-0.328-0.861-0.493-1.51-0.493H50.202z"/>
		</g>
		<rect x="32.226" y="14.761" fill="#B0B0AD" width="7.94" height="1.25"/>
		<rect x="45.142" y="14.761" fill="#B0B0AD" width="7.94" height="1.25"/>
	</g>
</g>
</svg>
