<?xml version="1.0" encoding="utf-8"?>
<!-- Generator: Adobe Illustrator 16.0.0, SVG Export Plug-In . SVG Version: 6.00 Build 0)  -->
<!DOCTYPE svg PUBLIC "-//W3C//DTD SVG 1.1//EN" "http://www.w3.org/Graphics/SVG/1.1/DTD/svg11.dtd">
<svg version="1.1" id="图层_1" xmlns="http://www.w3.org/2000/svg" xmlns:xlink="http://www.w3.org/1999/xlink" x="0px" y="0px"
	 width="253.67px" height="111.98px" viewBox="0 0 253.67 111.98" enable-background="new 0 0 253.67 111.98" xml:space="preserve">
<path fill="#4C4C4C" d="M100.334,106.98c0,2.762-2.16,5-4.824,5H4.824c-2.666,0-4.824-2.238-4.824-5V5.647c0-2.762,2.158-5,4.824-5
	H95.51c2.664,0,4.824,2.238,4.824,5V106.98z"/>
<path fill="#393A3A" d="M32.924,98.041c-1.826,0-3.307-1.541-3.307-3.439V15.108c0-1.899,1.48-3.44,3.307-3.44h58.291
	c1.826,0,3.309,1.541,3.309,3.44v79.493c0,1.898-1.482,3.439-3.309,3.439H32.924z"/>
<rect y="33.25" fill="#1C1D20" width="29.617" height="46.4"/>
<rect y="35.429" fill="#4C4C4C" width="29.332" height="41.237"/>
<path fill="#DFDB93" d="M28.238,33.017c0,0,4.801-4.479,12.117,0v47.485c0,0-6.402,8.063-13.26,0
	C27.096,80.502,12.008,61.016,28.238,33.017z"/>
<g>
	<linearGradient id="SVGID_1_" gradientUnits="userSpaceOnUse" x1="163.1338" y1="97.0791" x2="187.3894" y2="91.3123">
		<stop  offset="0" style="stop-color:#A0A0A0"/>
		<stop  offset="0.0788" style="stop-color:#484647"/>
		<stop  offset="0.5862" style="stop-color:#1C1D20"/>
	</linearGradient>
	<path fill="url(#SVGID_1_)" d="M164.332,79.732c0,0-3.166,19.08,3.334,27.223s20.826,0,20.826,0s-13.92,3.811-18.623-25.273"/>
	<linearGradient id="SVGID_2_" gradientUnits="userSpaceOnUse" x1="199.7617" y1="89.5762" x2="222.5722" y2="66.1783">
		<stop  offset="0" style="stop-color:#A0A0A0"/>
		<stop  offset="0.0788" style="stop-color:#484647"/>
		<stop  offset="0.5862" style="stop-color:#1C1D20"/>
	</linearGradient>
	<path fill="url(#SVGID_2_)" d="M193.285,79.65c0,0,7.756,13.326,24.068,12.922l8.609-12.922c0,0-20.289,1.602-20.289-11.084
		C205.674,55.88,193.285,79.65,193.285,79.65z"/>
	<linearGradient id="SVGID_3_" gradientUnits="userSpaceOnUse" x1="136.6982" y1="74.2422" x2="151.0283" y2="82.8295">
		<stop  offset="0" style="stop-color:#A0A0A0"/>
		<stop  offset="0.0788" style="stop-color:#484647"/>
		<stop  offset="0.5862" style="stop-color:#1C1D20"/>
	</linearGradient>
	<path fill="url(#SVGID_3_)" d="M150.326,63.361c0,0-12.957,5.598-16.273,18.229c-2.666,10.16,7.873,14.744,7.873,14.744
		s-2.273-16.873,8.4-30.127"/>
	<linearGradient id="SVGID_4_" gradientUnits="userSpaceOnUse" x1="131.3867" y1="31.249" x2="156.0957" y2="31.249">
		<stop  offset="0" style="stop-color:#1C1D20"/>
		<stop  offset="0.8571" style="stop-color:#484647"/>
		<stop  offset="1" style="stop-color:#A0A0A0"/>
	</linearGradient>
	<path fill="url(#SVGID_4_)" d="M156.096,35.429c0,0-3.49-14.095-24.709-8.012v9.188C131.387,36.604,137.525,28.357,156.096,35.429z
		"/>
	<linearGradient id="SVGID_5_" gradientUnits="userSpaceOnUse" x1="172.668" y1="16.7876" x2="189.0186" y2="16.7876">
		<stop  offset="0" style="stop-color:#1C1D20"/>
		<stop  offset="0.8571" style="stop-color:#484647"/>
		<stop  offset="1" style="stop-color:#A0A0A0"/>
	</linearGradient>
	<path fill="url(#SVGID_5_)" d="M177.053,2.326c0,0,14.031,12.471,11.705,28.923c0,0,2.408-4.503-12.092-4.376
		c0,0,4.072-25.626-3.998-24.364"/>
	<linearGradient id="SVGID_6_" gradientUnits="userSpaceOnUse" x1="198.6465" y1="29.6807" x2="216.5947" y2="32.2058">
		<stop  offset="0" style="stop-color:#1C1D20"/>
		<stop  offset="0.8571" style="stop-color:#484647"/>
		<stop  offset="1" style="stop-color:#A0A0A0"/>
	</linearGradient>
	<path fill="url(#SVGID_6_)" d="M216.291,19.173c0,0,2.396,29.05-10.863,32.939c0,0-1.719-10.785-7.092-15.507
		c0,0,16.145-6.312,10.414-26.979"/>
	<circle fill="#92C4E4" cx="176.667" cy="55.88" r="29.007"/>
</g>
<path fill="#666666" d="M246.295-0.003h-32.629v14.776c11.531,9.926,18.844,24.617,18.844,41.026
	c0,29.892-24.232,54.124-54.123,54.124c-19.205,0-36.061-10.012-45.668-25.09V26.767c3.453-5.421,7.848-10.182,12.947-14.063V-0.003
	h-37.961c-4.072,0-7.371,2.238-7.371,5V106.33c0,2.762,3.299,5,7.371,5h138.59c4.072,0,7.371-2.238,7.371-5V4.997
	C253.666,2.235,250.367-0.003,246.295-0.003z"/>
<path fill="#111111" d="M253.666,62.176c0,2.762-2.088,5-4.664,5h-13.16c-2.576,0-4.666-2.238-4.666-5V45.958
	c0-2.762,2.09-5,4.666-5h13.16c2.576,0,4.664,2.238,4.664,5V62.176z"/>
<g>
	<rect x="100.334" y="33.449" fill="#1C1D20" width="20.666" height="32.908"/>
	<rect x="100.334" y="33.449" fill="#48464B" width="2.166" height="32.908"/>
	<rect x="118.834" y="33.449" fill="#48464B" width="2.166" height="32.908"/>
</g>
<path fill="#C9C9C9" d="M110.666,32.229c3.912,0,7.086,3.224,7.086,7.2c0,3.976-3.174,7.199-7.086,7.199s-7.084-3.224-7.084-7.199
	C103.582,35.453,106.754,32.229,110.666,32.229"/>
<rect x="106.986" y="38.118" fill="#040000" width="7.361" height="2.618"/>
<rect x="109.377" y="35.688" fill="#040000" width="2.58" height="7.479"/>
<linearGradient id="SVGID_7_" gradientUnits="userSpaceOnUse" x1="100.334" y1="54.0674" x2="253.666" y2="54.0674">
	<stop  offset="0" style="stop-color:#1E1F1F"/>
	<stop  offset="0.0837" style="stop-color:#282423"/>
	<stop  offset="0.3103" style="stop-color:#4A4A52"/>
	<stop  offset="0.9655" style="stop-color:#000000"/>
</linearGradient>
<path fill="url(#SVGID_7_)" d="M253.666,55.575c0,2.763-2.238,5.001-5,5.001H105.334c-2.762,0-5-2.238-5-5.001v-3.016
	c0-2.762,2.238-5,5-5h143.332c2.762,0,5,2.238,5,5V55.575z"/>
<g>
	<circle fill="#020202" cx="136.688" cy="8.999" r="8.229"/>
	<path fill="#C9C9C9" d="M136.688,2.574c3.492,0,6.324,2.877,6.324,6.426c0,3.548-2.832,6.424-6.324,6.424
		c-3.49,0-6.322-2.876-6.322-6.424C130.365,5.451,133.197,2.574,136.688,2.574"/>
	<rect x="133.404" y="7.83" fill="#040000" width="6.57" height="2.337"/>
	<rect x="135.537" y="5.661" fill="#040000" width="2.303" height="6.676"/>
</g>
<g>
	<circle fill="#020202" cx="222.946" cy="8.999" r="8.229"/>
	<path fill="#C9C9C9" d="M222.945,2.574c3.492,0,6.324,2.877,6.324,6.426c0,3.548-2.832,6.424-6.324,6.424
		c-3.49,0-6.32-2.876-6.32-6.424C216.625,5.451,219.455,2.574,222.945,2.574"/>
	<rect x="219.662" y="7.83" fill="#040000" width="6.57" height="2.337"/>
	<rect x="221.795" y="5.661" fill="#040000" width="2.303" height="6.676"/>
</g>
<g>
	<circle fill="#020202" cx="136.688" cy="101.365" r="8.229"/>
	<path fill="#C9C9C9" d="M136.688,94.941c3.492,0,6.324,2.877,6.324,6.426c0,3.547-2.832,6.424-6.324,6.424
		c-3.49,0-6.322-2.877-6.322-6.424C130.365,97.818,133.197,94.941,136.688,94.941"/>
	<rect x="133.404" y="100.197" fill="#040000" width="6.57" height="2.336"/>
	<rect x="135.537" y="98.027" fill="#040000" width="2.303" height="6.676"/>
</g>
<g>
	<circle fill="#020202" cx="222.946" cy="101.365" r="8.229"/>
	<path fill="#C9C9C9" d="M222.945,94.941c3.492,0,6.324,2.877,6.324,6.426c0,3.547-2.832,6.424-6.324,6.424
		c-3.49,0-6.32-2.877-6.32-6.424C216.625,97.818,219.455,94.941,222.945,94.941"/>
	<rect x="219.662" y="100.197" fill="#040000" width="6.57" height="2.336"/>
	<rect x="221.795" y="98.027" fill="#040000" width="2.303" height="6.676"/>
</g>
<linearGradient id="SVGID_8_" gradientUnits="userSpaceOnUse" x1="178.4238" y1="74.001" x2="178.4238" y2="35.8296">
	<stop  offset="0" style="stop-color:#1C1D20"/>
	<stop  offset="0.3547" style="stop-color:#454344"/>
	<stop  offset="0.6207" style="stop-color:#4E4B4C"/>
	<stop  offset="0.8719" style="stop-color:#484647"/>
	<stop  offset="1" style="stop-color:#A0A0A0"/>
</linearGradient>
<path fill="url(#SVGID_8_)" d="M193.475,71.35c0,2.795-2.268,5.063-5.064,5.063h-19.975c-2.797,0-5.063-2.268-5.063-5.063V40.747
	c0-2.797,2.266-5.063,5.063-5.063h19.975c2.797,0,5.064,2.267,5.064,5.063V71.35z"/>
<linearGradient id="SVGID_9_" gradientUnits="userSpaceOnUse" x1="178.4229" y1="73.8906" x2="178.4229" y2="35.9527">
	<stop  offset="0.0148" style="stop-color:#454344"/>
	<stop  offset="0.197" style="stop-color:#1C1D20"/>
	<stop  offset="0.7635" style="stop-color:#4E4B4C"/>
	<stop  offset="0.9113" style="stop-color:#484647"/>
	<stop  offset="0.9754" style="stop-color:#898887"/>
</linearGradient>
<path fill="url(#SVGID_9_)" d="M167.352,35.808h22.143c0,0-11.363,21.559-0.607,40.479h-19.975
	C168.912,76.287,183.225,57.239,167.352,35.808z"/>
<circle fill="#569E7C" cx="115.75" cy="89.002" r="6.5"/>
<ellipse fill="#D8EDE3" cx="119.376" cy="86.834" rx="0.542" ry="0.75"/>
<ellipse fill="#D8EDE3" cx="116.291" cy="87.377" rx="1.375" ry="1.5"/>
<g>
	<polygon fill="#D9CE68" points="121.814,10.025 111.955,27.101 102.098,10.025 	"/>
	<polygon fill="none" stroke="#474747" stroke-miterlimit="10" points="119.166,11.914 111.957,24.4 104.746,11.914 	"/>
	
		<line fill="none" stroke="#474747" stroke-width="0.75" stroke-miterlimit="10" x1="108.582" y1="13.368" x2="115.234" y2="13.368"/>
	<path fill="none" stroke="#474747" stroke-width="0.5" stroke-miterlimit="10" d="M110.307,14.668c0,0-0.785,0.717-0.408,2.196
		c0.184,0.722,0.719,1.267,0.408,2.245"/>
	<path fill="none" stroke="#474747" stroke-width="0.5" stroke-miterlimit="10" d="M112.127,14.668c0,0-0.785,0.717-0.408,2.196
		c0.184,0.722,0.719,1.267,0.408,2.245"/>
	<path fill="none" stroke="#474747" stroke-width="0.5" stroke-miterlimit="10" d="M113.947,14.668c0,0-0.787,0.717-0.41,2.196
		c0.184,0.722,0.719,1.267,0.41,2.245"/>
</g>
</svg>
