<?xml version="1.0" encoding="utf-8"?>
<!-- Generator: Adobe Illustrator 16.0.0, SVG Export Plug-In . SVG Version: 6.00 Build 0)  -->
<!DOCTYPE svg PUBLIC "-//W3C//DTD SVG 1.1//EN" "http://www.w3.org/Graphics/SVG/1.1/DTD/svg11.dtd">
<svg version="1.1" id="图层_1" xmlns="http://www.w3.org/2000/svg" xmlns:xlink="http://www.w3.org/1999/xlink" x="0px" y="0px"
	 width="603.638px" height="191.651px" viewBox="0 0 603.638 191.651" enable-background="new 0 0 603.638 191.651"
	 xml:space="preserve">
<g>
	<polygon fill="#111011" points="357.549,14.882 354.332,9.312 357.549,3.742 363.98,3.742 367.196,9.312 363.98,14.882 	"/>
	<polygon fill="#111011" points="357.549,29.7 354.332,24.13 357.549,18.56 363.98,18.56 367.196,24.13 363.98,29.7 	"/>
	<polygon fill="#111011" points="357.549,44.518 354.332,38.948 357.549,33.378 363.98,33.378 367.196,38.948 363.98,44.518 	"/>
	<polygon fill="#111011" points="357.549,59.336 354.332,53.767 357.549,48.196 363.98,48.196 367.196,53.767 363.98,59.336 	"/>
	<polygon fill="#111011" points="3.217,14.882 0,9.312 3.217,3.742 9.648,3.742 12.864,9.312 9.648,14.882 	"/>
	<polygon fill="#111011" points="3.217,29.7 0,24.13 3.217,18.56 9.648,18.56 12.864,24.13 9.648,29.7 	"/>
	<polygon fill="#111011" points="3.217,44.518 0,38.948 3.217,33.378 9.648,33.378 12.864,38.948 9.648,44.518 	"/>
	<polygon fill="#111011" points="3.217,59.336 0,53.767 3.217,48.196 9.648,48.196 12.864,53.767 9.648,59.336 	"/>
	<polygon fill="#111011" points="26.839,14.882 23.622,9.312 26.839,3.742 33.271,3.742 36.486,9.312 33.271,14.882 	"/>
	<polygon fill="#111011" points="26.839,29.7 23.622,24.13 26.839,18.56 33.271,18.56 36.486,24.13 33.271,29.7 	"/>
	<polygon fill="#111011" points="26.839,44.518 23.622,38.948 26.839,33.378 33.271,33.378 36.486,38.948 33.271,44.518 	"/>
	<polygon fill="#111011" points="26.839,59.336 23.622,53.767 26.839,48.196 33.271,48.196 36.486,53.767 33.271,59.336 	"/>
	<polygon fill="#111011" points="50.461,14.882 47.244,9.312 50.461,3.742 56.893,3.742 60.108,9.312 56.893,14.882 	"/>
	<polygon fill="#111011" points="50.461,29.7 47.244,24.13 50.461,18.56 56.893,18.56 60.108,24.13 56.893,29.7 	"/>
	<polygon fill="#111011" points="50.461,44.518 47.244,38.948 50.461,33.378 56.893,33.378 60.108,38.948 56.893,44.518 	"/>
	<polygon fill="#111011" points="50.461,59.336 47.244,53.767 50.461,48.196 56.893,48.196 60.108,53.767 56.893,59.336 	"/>
	<polygon fill="#111011" points="74.083,14.882 70.867,9.312 74.083,3.742 80.515,3.742 83.73,9.312 80.515,14.882 	"/>
	<polygon fill="#111011" points="74.083,29.7 70.867,24.13 74.083,18.56 80.515,18.56 83.73,24.13 80.515,29.7 	"/>
	<polygon fill="#111011" points="74.083,44.518 70.867,38.948 74.083,33.378 80.515,33.378 83.73,38.948 80.515,44.518 	"/>
	<polygon fill="#111011" points="74.083,59.336 70.867,53.767 74.083,48.196 80.515,48.196 83.73,53.767 80.515,59.336 	"/>
	<polygon fill="#111011" points="97.705,14.882 94.489,9.312 97.705,3.742 104.137,3.742 107.353,9.312 104.137,14.882 	"/>
	<polygon fill="#111011" points="97.705,29.7 94.489,24.13 97.705,18.56 104.137,18.56 107.353,24.13 104.137,29.7 	"/>
	<polygon fill="#111011" points="97.705,44.518 94.489,38.948 97.705,33.378 104.137,33.378 107.353,38.948 104.137,44.518 	"/>
	<polygon fill="#111011" points="97.705,59.336 94.489,53.767 97.705,48.196 104.137,48.196 107.353,53.767 104.137,59.336 	"/>
	<polygon fill="#111011" points="121.327,14.882 118.111,9.312 121.327,3.742 127.759,3.742 130.975,9.312 127.759,14.882 	"/>
	<polygon fill="#111011" points="121.327,29.7 118.111,24.13 121.327,18.56 127.759,18.56 130.975,24.13 127.759,29.7 	"/>
	<polygon fill="#111011" points="121.327,44.518 118.111,38.948 121.327,33.378 127.759,33.378 130.975,38.948 127.759,44.518 	"/>
	<polygon fill="#111011" points="121.327,59.336 118.111,53.767 121.327,48.196 127.759,48.196 130.975,53.767 127.759,59.336 	"/>
	<polygon fill="#111011" points="144.949,14.882 141.733,9.312 144.949,3.742 151.381,3.742 154.598,9.312 151.381,14.882 	"/>
	<polygon fill="#111011" points="144.949,29.7 141.733,24.13 144.949,18.56 151.381,18.56 154.598,24.13 151.381,29.7 	"/>
	<polygon fill="#111011" points="144.949,44.518 141.733,38.948 144.949,33.378 151.381,33.378 154.598,38.948 151.381,44.518 	"/>
	<polygon fill="#111011" points="144.949,59.336 141.733,53.767 144.949,48.196 151.381,48.196 154.598,53.767 151.381,59.336 	"/>
	<polygon fill="#111011" points="168.571,14.882 165.355,9.312 168.571,3.742 175.003,3.742 178.22,9.312 175.003,14.882 	"/>
	<polygon fill="#111011" points="168.571,29.7 165.355,24.13 168.571,18.56 175.003,18.56 178.22,24.13 175.003,29.7 	"/>
	<polygon fill="#111011" points="168.571,44.518 165.355,38.948 168.571,33.378 175.003,33.378 178.22,38.948 175.003,44.518 	"/>
	<polygon fill="#111011" points="168.571,59.336 165.355,53.767 168.571,48.196 175.003,48.196 178.22,53.767 175.003,59.336 	"/>
	<polygon fill="#111011" points="192.193,14.882 188.978,9.312 192.193,3.742 198.625,3.742 201.842,9.312 198.625,14.882 	"/>
	<polygon fill="#111011" points="192.193,29.7 188.978,24.13 192.193,18.56 198.625,18.56 201.842,24.13 198.625,29.7 	"/>
	<polygon fill="#111011" points="192.193,44.518 188.978,38.948 192.193,33.378 198.625,33.378 201.842,38.948 198.625,44.518 	"/>
	<polygon fill="#111011" points="192.193,59.336 188.978,53.767 192.193,48.196 198.625,48.196 201.842,53.767 198.625,59.336 	"/>
	<polygon fill="#111011" points="215.815,14.882 212.6,9.312 215.815,3.742 222.248,3.742 225.464,9.312 222.248,14.882 	"/>
	<polygon fill="#111011" points="215.815,29.7 212.6,24.13 215.815,18.56 222.248,18.56 225.464,24.13 222.248,29.7 	"/>
	<polygon fill="#111011" points="215.815,44.518 212.6,38.948 215.815,33.378 222.248,33.378 225.464,38.948 222.248,44.518 	"/>
	<polygon fill="#111011" points="215.815,59.336 212.6,53.767 215.815,48.196 222.248,48.196 225.464,53.767 222.248,59.336 	"/>
	<polygon fill="#111011" points="239.438,14.882 236.222,9.312 239.438,3.742 245.87,3.742 249.086,9.312 245.87,14.882 	"/>
	<polygon fill="#111011" points="239.438,29.7 236.222,24.13 239.438,18.56 245.87,18.56 249.086,24.13 245.87,29.7 	"/>
	<polygon fill="#111011" points="239.438,44.518 236.222,38.948 239.438,33.378 245.87,33.378 249.086,38.948 245.87,44.518 	"/>
	<polygon fill="#111011" points="239.438,59.336 236.222,53.767 239.438,48.196 245.87,48.196 249.086,53.767 245.87,59.336 	"/>
	<polygon fill="#111011" points="263.06,14.882 259.844,9.312 263.06,3.742 269.492,3.742 272.708,9.312 269.492,14.882 	"/>
	<polygon fill="#111011" points="263.06,29.7 259.844,24.13 263.06,18.56 269.492,18.56 272.708,24.13 269.492,29.7 	"/>
	<polygon fill="#111011" points="263.06,44.518 259.844,38.948 263.06,33.378 269.492,33.378 272.708,38.948 269.492,44.518 	"/>
	<polygon fill="#111011" points="263.06,59.336 259.844,53.767 263.06,48.196 269.492,48.196 272.708,53.767 269.492,59.336 	"/>
	<polygon fill="#111011" points="286.682,14.882 283.466,9.312 286.682,3.742 293.114,3.742 296.33,9.312 293.114,14.882 	"/>
	<polygon fill="#111011" points="286.682,29.7 283.466,24.13 286.682,18.56 293.114,18.56 296.33,24.13 293.114,29.7 	"/>
	<polygon fill="#111011" points="286.682,44.518 283.466,38.948 286.682,33.378 293.114,33.378 296.33,38.948 293.114,44.518 	"/>
	<polygon fill="#111011" points="286.682,59.336 283.466,53.767 286.682,48.196 293.114,48.196 296.33,53.767 293.114,59.336 	"/>
	<polygon fill="#111011" points="310.305,14.882 307.088,9.312 310.305,3.742 316.736,3.742 319.952,9.312 316.736,14.882 	"/>
	<polygon fill="#111011" points="310.305,29.7 307.088,24.13 310.305,18.56 316.736,18.56 319.952,24.13 316.736,29.7 	"/>
	<polygon fill="#111011" points="310.305,44.518 307.088,38.948 310.305,33.378 316.736,33.378 319.952,38.948 316.736,44.518 	"/>
	<polygon fill="#111011" points="310.305,59.336 307.088,53.767 310.305,48.196 316.736,48.196 319.952,53.767 316.736,59.336 	"/>
	<polygon fill="#111011" points="333.927,14.882 330.71,9.312 333.927,3.742 340.358,3.742 343.574,9.312 340.358,14.882 	"/>
	<polygon fill="#111011" points="333.927,29.7 330.71,24.13 333.927,18.56 340.358,18.56 343.574,24.13 340.358,29.7 	"/>
	<polygon fill="#111011" points="333.927,44.518 330.71,38.948 333.927,33.378 340.358,33.378 343.574,38.948 340.358,44.518 	"/>
	<polygon fill="#111011" points="333.927,59.336 330.71,53.767 333.927,48.196 340.358,48.196 343.574,53.767 340.358,59.336 	"/>
	<polygon fill="#111011" points="11.812,2.21 15.027,7.78 21.459,7.78 24.676,2.21 23.399,0 13.088,0 	"/>
	<polygon fill="#111011" points="15.027,11.459 11.812,17.028 15.027,22.599 21.459,22.599 24.676,17.028 21.459,11.459 	"/>
	<polygon fill="#111011" points="15.027,26.276 11.812,31.847 15.027,37.417 21.459,37.417 24.676,31.847 21.459,26.276 	"/>
	<polygon fill="#111011" points="15.027,41.095 11.812,46.665 15.027,52.235 21.459,52.235 24.676,46.665 21.459,41.095 	"/>
	<polygon fill="#111011" points="15.027,55.913 11.812,61.483 15.027,67.053 21.459,67.053 24.676,61.483 21.459,55.913 	"/>
	<polygon fill="#111011" points="35.434,2.21 38.649,7.78 45.082,7.78 48.298,2.21 47.021,0 36.71,0 	"/>
	<polygon fill="#111011" points="38.649,11.459 35.434,17.028 38.649,22.599 45.082,22.599 48.298,17.028 45.082,11.459 	"/>
	<polygon fill="#111011" points="38.649,26.276 35.434,31.847 38.649,37.417 45.082,37.417 48.298,31.847 45.082,26.276 	"/>
	<polygon fill="#111011" points="38.649,41.095 35.434,46.665 38.649,52.235 45.082,52.235 48.298,46.665 45.082,41.095 	"/>
	<polygon fill="#111011" points="38.649,55.913 35.434,61.483 38.649,67.053 45.082,67.053 48.298,61.483 45.082,55.913 	"/>
	<polygon fill="#111011" points="59.056,2.21 62.271,7.78 68.704,7.78 71.92,2.21 70.644,0 60.332,0 	"/>
	<polygon fill="#111011" points="62.271,11.459 59.056,17.028 62.271,22.599 68.704,22.599 71.92,17.028 68.704,11.459 	"/>
	<polygon fill="#111011" points="62.271,26.276 59.056,31.847 62.271,37.417 68.704,37.417 71.92,31.847 68.704,26.276 	"/>
	<polygon fill="#111011" points="62.271,41.095 59.056,46.665 62.271,52.235 68.704,52.235 71.92,46.665 68.704,41.095 	"/>
	<polygon fill="#111011" points="62.271,55.913 59.056,61.483 62.271,67.053 68.704,67.053 71.92,61.483 68.704,55.913 	"/>
	<polygon fill="#111011" points="82.678,2.21 85.894,7.78 92.326,7.78 95.542,2.21 94.266,0 83.954,0 	"/>
	<polygon fill="#111011" points="85.894,11.459 82.678,17.028 85.894,22.599 92.326,22.599 95.542,17.028 92.326,11.459 	"/>
	<polygon fill="#111011" points="85.894,26.276 82.678,31.847 85.894,37.417 92.326,37.417 95.542,31.847 92.326,26.276 	"/>
	<polygon fill="#111011" points="85.894,41.095 82.678,46.665 85.894,52.235 92.326,52.235 95.542,46.665 92.326,41.095 	"/>
	<polygon fill="#111011" points="85.894,55.913 82.678,61.483 85.894,67.053 92.326,67.053 95.542,61.483 92.326,55.913 	"/>
	<polygon fill="#111011" points="106.3,2.21 109.516,7.78 115.948,7.78 119.164,2.21 117.888,0 107.576,0 	"/>
	<polygon fill="#111011" points="109.516,11.459 106.3,17.028 109.516,22.599 115.948,22.599 119.164,17.028 115.948,11.459 	"/>
	<polygon fill="#111011" points="109.516,26.276 106.3,31.847 109.516,37.417 115.948,37.417 119.164,31.847 115.948,26.276 	"/>
	<polygon fill="#111011" points="109.516,41.095 106.3,46.665 109.516,52.235 115.948,52.235 119.164,46.665 115.948,41.095 	"/>
	<polygon fill="#111011" points="109.516,55.913 106.3,61.483 109.516,67.053 115.948,67.053 119.164,61.483 115.948,55.913 	"/>
	<polygon fill="#111011" points="129.922,2.21 133.138,7.78 139.57,7.78 142.786,2.21 141.51,0 131.198,0 	"/>
	<polygon fill="#111011" points="133.138,11.459 129.922,17.028 133.138,22.599 139.57,22.599 142.786,17.028 139.57,11.459 	"/>
	<polygon fill="#111011" points="133.138,26.276 129.922,31.847 133.138,37.417 139.57,37.417 142.786,31.847 139.57,26.276 	"/>
	<polygon fill="#111011" points="133.138,41.095 129.922,46.665 133.138,52.235 139.57,52.235 142.786,46.665 139.57,41.095 	"/>
	<polygon fill="#111011" points="133.138,55.913 129.922,61.483 133.138,67.053 139.57,67.053 142.786,61.483 139.57,55.913 	"/>
	<polygon fill="#111011" points="153.544,2.21 156.76,7.78 163.192,7.78 166.408,2.21 165.132,0 154.82,0 	"/>
	<polygon fill="#111011" points="156.761,11.459 153.544,17.028 156.761,22.599 163.192,22.599 166.408,17.028 163.192,11.459 	"/>
	<polygon fill="#111011" points="156.761,26.276 153.544,31.847 156.761,37.417 163.192,37.417 166.408,31.847 163.192,26.276 	"/>
	<polygon fill="#111011" points="156.761,41.095 153.544,46.665 156.761,52.235 163.192,52.235 166.408,46.665 163.192,41.095 	"/>
	<polygon fill="#111011" points="156.761,55.913 153.544,61.483 156.761,67.053 163.192,67.053 166.408,61.483 163.192,55.913 	"/>
	<polygon fill="#111011" points="177.166,2.21 180.383,7.78 186.814,7.78 190.03,2.21 188.754,0 178.442,0 	"/>
	<polygon fill="#111011" points="180.383,11.459 177.166,17.028 180.383,22.599 186.814,22.599 190.03,17.028 186.814,11.459 	"/>
	<polygon fill="#111011" points="180.383,26.276 177.166,31.847 180.383,37.417 186.814,37.417 190.03,31.847 186.814,26.276 	"/>
	<polygon fill="#111011" points="180.383,41.095 177.166,46.665 180.383,52.235 186.814,52.235 190.03,46.665 186.814,41.095 	"/>
	<polygon fill="#111011" points="180.383,55.913 177.166,61.483 180.383,67.053 186.814,67.053 190.03,61.483 186.814,55.913 	"/>
	<polygon fill="#111011" points="200.789,2.21 204.005,7.78 210.437,7.78 213.652,2.21 212.377,0 202.064,0 	"/>
	<polygon fill="#111011" points="204.005,11.459 200.788,17.028 204.005,22.599 210.437,22.599 213.652,17.028 210.437,11.459 	"/>
	<polygon fill="#111011" points="204.005,26.276 200.788,31.847 204.005,37.417 210.437,37.417 213.652,31.847 210.437,26.276 	"/>
	<polygon fill="#111011" points="204.005,41.095 200.788,46.665 204.005,52.235 210.437,52.235 213.652,46.665 210.437,41.095 	"/>
	<polygon fill="#111011" points="204.005,55.913 200.788,61.483 204.005,67.053 210.437,67.053 213.652,61.483 210.437,55.913 	"/>
	<polygon fill="#111011" points="224.41,2.21 227.627,7.78 234.059,7.78 237.274,2.21 235.998,0 225.687,0 	"/>
	<polygon fill="#111011" points="227.627,11.459 224.411,17.028 227.627,22.599 234.059,22.599 237.274,17.028 234.059,11.459 	"/>
	<polygon fill="#111011" points="227.627,26.276 224.411,31.847 227.627,37.417 234.059,37.417 237.274,31.847 234.059,26.276 	"/>
	<polygon fill="#111011" points="227.627,41.095 224.411,46.665 227.627,52.235 234.059,52.235 237.274,46.665 234.059,41.095 	"/>
	<polygon fill="#111011" points="227.627,55.913 224.411,61.483 227.627,67.053 234.059,67.053 237.274,61.483 234.059,55.913 	"/>
	<polygon fill="#111011" points="248.033,2.21 251.249,7.78 257.681,7.78 260.896,2.21 259.621,0 249.309,0 	"/>
	<polygon fill="#111011" points="251.249,11.459 248.033,17.028 251.249,22.599 257.681,22.599 260.896,17.028 257.681,11.459 	"/>
	<polygon fill="#111011" points="251.249,26.276 248.033,31.847 251.249,37.417 257.681,37.417 260.896,31.847 257.681,26.276 	"/>
	<polygon fill="#111011" points="251.249,41.095 248.033,46.665 251.249,52.235 257.681,52.235 260.896,46.665 257.681,41.095 	"/>
	<polygon fill="#111011" points="251.249,55.913 248.033,61.483 251.249,67.053 257.681,67.053 260.896,61.483 257.681,55.913 	"/>
	<polygon fill="#111011" points="271.655,2.21 274.871,7.78 281.303,7.78 284.519,2.21 283.243,0 272.931,0 	"/>
	<polygon fill="#111011" points="274.871,11.459 271.655,17.028 274.871,22.599 281.303,22.599 284.52,17.028 281.303,11.459 	"/>
	<polygon fill="#111011" points="274.871,26.276 271.655,31.847 274.871,37.417 281.303,37.417 284.52,31.847 281.303,26.276 	"/>
	<polygon fill="#111011" points="274.871,41.095 271.655,46.665 274.871,52.235 281.303,52.235 284.52,46.665 281.303,41.095 	"/>
	<polygon fill="#111011" points="274.871,55.913 271.655,61.483 274.871,67.053 281.303,67.053 284.52,61.483 281.303,55.913 	"/>
	<polygon fill="#111011" points="295.277,2.21 298.493,7.78 304.926,7.78 308.142,2.21 306.865,0 296.553,0 	"/>
	<polygon fill="#111011" points="298.493,11.459 295.277,17.028 298.493,22.599 304.925,22.599 308.141,17.028 304.925,11.459 	"/>
	<polygon fill="#111011" points="298.493,26.276 295.277,31.847 298.493,37.417 304.925,37.417 308.141,31.847 304.925,26.276 	"/>
	<polygon fill="#111011" points="298.493,41.095 295.277,46.665 298.493,52.235 304.925,52.235 308.141,46.665 304.925,41.095 	"/>
	<polygon fill="#111011" points="298.493,55.913 295.277,61.483 298.493,67.053 304.925,67.053 308.141,61.483 304.925,55.913 	"/>
	<polygon fill="#111011" points="318.899,2.21 322.115,7.78 328.547,7.78 331.764,2.21 330.487,0 320.175,0 	"/>
	<polygon fill="#111011" points="322.115,11.459 318.899,17.028 322.115,22.599 328.547,22.599 331.764,17.028 328.547,11.459 	"/>
	<polygon fill="#111011" points="322.115,26.276 318.899,31.847 322.115,37.417 328.547,37.417 331.764,31.847 328.547,26.276 	"/>
	<polygon fill="#111011" points="322.115,41.095 318.899,46.665 322.115,52.235 328.547,52.235 331.764,46.665 328.547,41.095 	"/>
	<polygon fill="#111011" points="322.115,55.913 318.899,61.483 322.115,67.053 328.547,67.053 331.764,61.483 328.547,55.913 	"/>
	<polygon fill="#111011" points="343.798,0 342.521,2.21 345.737,7.781 352.17,7.781 355.386,2.21 354.109,0 	"/>
	<polygon fill="#111011" points="345.737,11.459 342.521,17.028 345.737,22.599 352.169,22.599 355.386,17.028 352.169,11.459 	"/>
	<polygon fill="#111011" points="345.737,26.276 342.521,31.847 345.737,37.417 352.169,37.417 355.386,31.847 352.169,26.276 	"/>
	<polygon fill="#111011" points="345.737,41.095 342.521,46.665 345.737,52.235 352.169,52.235 355.386,46.665 352.169,41.095 	"/>
	<polygon fill="#111011" points="345.737,55.913 342.521,61.483 345.737,67.053 352.169,67.053 355.386,61.483 352.169,55.913 	"/>
	<polygon fill="#111011" points="357.549,73.53 354.332,67.96 357.549,62.39 363.98,62.39 367.196,67.96 363.98,73.53 	"/>
	<polygon fill="#111011" points="357.549,88.349 354.332,82.778 357.549,77.208 363.98,77.208 367.196,82.778 363.98,88.349 	"/>
	<polygon fill="#111011" points="357.549,103.166 354.332,97.597 357.549,92.026 363.98,92.026 367.196,97.597 363.98,103.166 	"/>
	<polygon fill="#111011" points="357.549,117.984 354.332,112.415 357.549,106.844 363.98,106.844 367.196,112.415 363.98,117.984 	
		"/>
	<polygon fill="#111011" points="3.217,73.53 0,67.96 3.217,62.39 9.648,62.39 12.864,67.96 9.648,73.53 	"/>
	<polygon fill="#111011" points="3.217,88.349 0,82.778 3.217,77.208 9.648,77.208 12.864,82.778 9.648,88.349 	"/>
	<polygon fill="#111011" points="3.217,103.166 0,97.597 3.217,92.026 9.648,92.026 12.864,97.597 9.648,103.166 	"/>
	<polygon fill="#111011" points="3.217,117.984 0,112.415 3.217,106.844 9.648,106.844 12.864,112.415 9.648,117.984 	"/>
	<polygon fill="#111011" points="26.839,73.53 23.622,67.96 26.839,62.39 33.271,62.39 36.486,67.96 33.271,73.53 	"/>
	<polygon fill="#111011" points="26.839,88.349 23.622,82.778 26.839,77.208 33.271,77.208 36.486,82.778 33.271,88.349 	"/>
	<polygon fill="#111011" points="26.839,103.166 23.622,97.597 26.839,92.026 33.271,92.026 36.486,97.597 33.271,103.166 	"/>
	<polygon fill="#111011" points="26.839,117.984 23.622,112.415 26.839,106.844 33.271,106.844 36.486,112.415 33.271,117.984 	"/>
	<polygon fill="#111011" points="50.461,73.53 47.244,67.96 50.461,62.39 56.893,62.39 60.108,67.96 56.893,73.53 	"/>
	<polygon fill="#111011" points="50.461,88.349 47.244,82.778 50.461,77.208 56.893,77.208 60.108,82.778 56.893,88.349 	"/>
	<polygon fill="#111011" points="50.461,103.166 47.244,97.597 50.461,92.026 56.893,92.026 60.108,97.597 56.893,103.166 	"/>
	<polygon fill="#111011" points="50.461,117.984 47.244,112.415 50.461,106.844 56.893,106.844 60.108,112.415 56.893,117.984 	"/>
	<polygon fill="#111011" points="74.083,73.53 70.867,67.96 74.083,62.39 80.515,62.39 83.73,67.96 80.515,73.53 	"/>
	<polygon fill="#111011" points="74.083,88.349 70.867,82.778 74.083,77.208 80.515,77.208 83.73,82.778 80.515,88.349 	"/>
	<polygon fill="#111011" points="74.083,103.166 70.867,97.597 74.083,92.026 80.515,92.026 83.73,97.597 80.515,103.166 	"/>
	<polygon fill="#111011" points="74.083,117.984 70.867,112.415 74.083,106.844 80.515,106.844 83.73,112.415 80.515,117.984 	"/>
	<polygon fill="#111011" points="97.705,73.53 94.489,67.96 97.705,62.39 104.137,62.39 107.353,67.96 104.137,73.53 	"/>
	<polygon fill="#111011" points="97.705,88.349 94.489,82.778 97.705,77.208 104.137,77.208 107.353,82.778 104.137,88.349 	"/>
	<polygon fill="#111011" points="97.705,103.166 94.489,97.597 97.705,92.026 104.137,92.026 107.353,97.597 104.137,103.166 	"/>
	<polygon fill="#111011" points="97.705,117.984 94.489,112.415 97.705,106.844 104.137,106.844 107.353,112.415 104.137,117.984 	
		"/>
	<polygon fill="#111011" points="121.327,73.53 118.111,67.96 121.327,62.39 127.759,62.39 130.975,67.96 127.759,73.53 	"/>
	<polygon fill="#111011" points="121.327,88.349 118.111,82.778 121.327,77.208 127.759,77.208 130.975,82.778 127.759,88.349 	"/>
	<polygon fill="#111011" points="121.327,103.166 118.111,97.597 121.327,92.026 127.759,92.026 130.975,97.597 127.759,103.166 	
		"/>
	<polygon fill="#111011" points="121.327,117.984 118.111,112.415 121.327,106.844 127.759,106.844 130.975,112.415 
		127.759,117.984 	"/>
	<polygon fill="#111011" points="144.949,73.53 141.733,67.96 144.949,62.39 151.381,62.39 154.598,67.96 151.381,73.53 	"/>
	<polygon fill="#111011" points="144.949,88.349 141.733,82.778 144.949,77.208 151.381,77.208 154.598,82.778 151.381,88.349 	"/>
	<polygon fill="#111011" points="144.949,103.166 141.733,97.597 144.949,92.026 151.381,92.026 154.598,97.597 151.381,103.166 	
		"/>
	<polygon fill="#111011" points="144.949,117.984 141.733,112.415 144.949,106.844 151.381,106.844 154.598,112.415 
		151.381,117.984 	"/>
	<polygon fill="#111011" points="168.571,73.53 165.355,67.96 168.571,62.39 175.003,62.39 178.22,67.96 175.003,73.53 	"/>
	<polygon fill="#111011" points="168.571,88.349 165.355,82.778 168.571,77.208 175.003,77.208 178.22,82.778 175.003,88.349 	"/>
	<polygon fill="#111011" points="168.571,103.166 165.355,97.597 168.571,92.026 175.003,92.026 178.22,97.597 175.003,103.166 	"/>
	<polygon fill="#111011" points="168.571,117.984 165.355,112.415 168.571,106.844 175.003,106.844 178.22,112.415 175.003,117.984 
			"/>
	<polygon fill="#111011" points="192.193,73.53 188.978,67.96 192.193,62.39 198.625,62.39 201.842,67.96 198.625,73.53 	"/>
	<polygon fill="#111011" points="192.193,88.349 188.978,82.778 192.193,77.208 198.625,77.208 201.842,82.778 198.625,88.349 	"/>
	<polygon fill="#111011" points="192.193,103.166 188.978,97.597 192.193,92.026 198.625,92.026 201.842,97.597 198.625,103.166 	
		"/>
	<polygon fill="#111011" points="192.193,117.984 188.978,112.415 192.193,106.844 198.625,106.844 201.842,112.415 
		198.625,117.984 	"/>
	<polygon fill="#111011" points="215.815,73.53 212.6,67.96 215.815,62.39 222.248,62.39 225.464,67.96 222.248,73.53 	"/>
	<polygon fill="#111011" points="215.815,88.349 212.6,82.778 215.815,77.208 222.248,77.208 225.464,82.778 222.248,88.349 	"/>
	<polygon fill="#111011" points="215.815,103.166 212.6,97.597 215.815,92.026 222.248,92.026 225.464,97.597 222.248,103.166 	"/>
	<polygon fill="#111011" points="215.815,117.984 212.6,112.415 215.815,106.844 222.248,106.844 225.464,112.415 222.248,117.984 	
		"/>
	<polygon fill="#111011" points="239.438,73.53 236.222,67.96 239.438,62.39 245.87,62.39 249.086,67.96 245.87,73.53 	"/>
	<polygon fill="#111011" points="239.438,88.349 236.222,82.778 239.438,77.208 245.87,77.208 249.086,82.778 245.87,88.349 	"/>
	<polygon fill="#111011" points="239.438,103.166 236.222,97.597 239.438,92.026 245.87,92.026 249.086,97.597 245.87,103.166 	"/>
	<polygon fill="#111011" points="239.438,117.984 236.222,112.415 239.438,106.844 245.87,106.844 249.086,112.415 245.87,117.984 	
		"/>
	<polygon fill="#111011" points="263.06,73.53 259.844,67.96 263.06,62.39 269.492,62.39 272.708,67.96 269.492,73.53 	"/>
	<polygon fill="#111011" points="263.06,88.349 259.844,82.778 263.06,77.208 269.492,77.208 272.708,82.778 269.492,88.349 	"/>
	<polygon fill="#111011" points="263.06,103.166 259.844,97.597 263.06,92.026 269.492,92.026 272.708,97.597 269.492,103.166 	"/>
	<polygon fill="#111011" points="263.06,117.984 259.844,112.415 263.06,106.844 269.492,106.844 272.708,112.415 269.492,117.984 	
		"/>
	<polygon fill="#111011" points="286.682,73.53 283.466,67.96 286.682,62.39 293.114,62.39 296.33,67.96 293.114,73.53 	"/>
	<polygon fill="#111011" points="286.682,88.349 283.466,82.778 286.682,77.208 293.114,77.208 296.33,82.778 293.114,88.349 	"/>
	<polygon fill="#111011" points="286.682,103.166 283.466,97.597 286.682,92.026 293.114,92.026 296.33,97.597 293.114,103.166 	"/>
	<polygon fill="#111011" points="286.682,117.984 283.466,112.415 286.682,106.844 293.114,106.844 296.33,112.415 293.114,117.984 
			"/>
	<polygon fill="#111011" points="310.305,73.53 307.088,67.96 310.305,62.39 316.736,62.39 319.952,67.96 316.736,73.53 	"/>
	<polygon fill="#111011" points="310.305,88.349 307.088,82.778 310.305,77.208 316.736,77.208 319.952,82.778 316.736,88.349 	"/>
	<polygon fill="#111011" points="310.305,103.166 307.088,97.597 310.305,92.026 316.736,92.026 319.952,97.597 316.736,103.166 	
		"/>
	<polygon fill="#111011" points="310.305,117.984 307.088,112.415 310.305,106.844 316.736,106.844 319.952,112.415 
		316.736,117.984 	"/>
	<polygon fill="#111011" points="333.927,73.53 330.71,67.96 333.927,62.39 340.358,62.39 343.574,67.96 340.358,73.53 	"/>
	<polygon fill="#111011" points="333.927,88.349 330.71,82.778 333.927,77.208 340.358,77.208 343.574,82.778 340.358,88.349 	"/>
	<polygon fill="#111011" points="333.927,103.166 330.71,97.597 333.927,92.026 340.358,92.026 343.574,97.597 340.358,103.166 	"/>
	<polygon fill="#111011" points="333.927,117.984 330.71,112.415 333.927,106.844 340.358,106.844 343.574,112.415 340.358,117.984 
			"/>
	<polygon fill="#111011" points="15.027,70.106 11.812,75.676 15.027,81.247 21.459,81.247 24.676,75.676 21.459,70.106 	"/>
	<polygon fill="#111011" points="15.027,84.924 11.812,90.495 15.027,96.064 21.459,96.064 24.676,90.495 21.459,84.924 	"/>
	<polygon fill="#111011" points="15.027,99.743 11.812,105.313 15.027,110.883 21.459,110.883 24.676,105.313 21.459,99.743 	"/>
	<polygon fill="#111011" points="15.027,114.561 11.812,120.131 15.027,125.701 21.459,125.701 24.676,120.131 21.459,114.561 	"/>
	<polygon fill="#111011" points="38.649,70.106 35.434,75.676 38.649,81.247 45.082,81.247 48.298,75.676 45.082,70.106 	"/>
	<polygon fill="#111011" points="38.649,84.924 35.434,90.495 38.649,96.064 45.082,96.064 48.298,90.495 45.082,84.924 	"/>
	<polygon fill="#111011" points="38.649,99.743 35.434,105.313 38.649,110.883 45.082,110.883 48.298,105.313 45.082,99.743 	"/>
	<polygon fill="#111011" points="38.649,114.561 35.434,120.131 38.649,125.701 45.082,125.701 48.298,120.131 45.082,114.561 	"/>
	<polygon fill="#111011" points="62.271,70.106 59.056,75.676 62.271,81.247 68.704,81.247 71.92,75.676 68.704,70.106 	"/>
	<polygon fill="#111011" points="62.271,84.924 59.056,90.495 62.271,96.064 68.704,96.064 71.92,90.495 68.704,84.924 	"/>
	<polygon fill="#111011" points="62.271,99.743 59.056,105.313 62.271,110.883 68.704,110.883 71.92,105.313 68.704,99.743 	"/>
	<polygon fill="#111011" points="62.271,114.561 59.056,120.131 62.271,125.701 68.704,125.701 71.92,120.131 68.704,114.561 	"/>
	<polygon fill="#111011" points="85.894,70.106 82.678,75.676 85.894,81.247 92.326,81.247 95.542,75.676 92.326,70.106 	"/>
	<polygon fill="#111011" points="85.894,84.924 82.678,90.495 85.894,96.064 92.326,96.064 95.542,90.495 92.326,84.924 	"/>
	<polygon fill="#111011" points="85.894,99.743 82.678,105.313 85.894,110.883 92.326,110.883 95.542,105.313 92.326,99.743 	"/>
	<polygon fill="#111011" points="85.894,114.561 82.678,120.131 85.894,125.701 92.326,125.701 95.542,120.131 92.326,114.561 	"/>
	<polygon fill="#111011" points="109.516,70.106 106.3,75.676 109.516,81.247 115.948,81.247 119.164,75.676 115.948,70.106 	"/>
	<polygon fill="#111011" points="109.516,84.924 106.3,90.495 109.516,96.064 115.948,96.064 119.164,90.495 115.948,84.924 	"/>
	<polygon fill="#111011" points="109.516,99.743 106.3,105.313 109.516,110.883 115.948,110.883 119.164,105.313 115.948,99.743 	
		"/>
	<polygon fill="#111011" points="109.516,114.561 106.3,120.131 109.516,125.701 115.948,125.701 119.164,120.131 115.948,114.561 	
		"/>
	<polygon fill="#111011" points="133.138,70.106 129.922,75.676 133.138,81.247 139.57,81.247 142.786,75.676 139.57,70.106 	"/>
	<polygon fill="#111011" points="133.138,84.924 129.922,90.495 133.138,96.064 139.57,96.064 142.786,90.495 139.57,84.924 	"/>
	<polygon fill="#111011" points="133.138,99.743 129.922,105.313 133.138,110.883 139.57,110.883 142.786,105.313 139.57,99.743 	
		"/>
	<polygon fill="#111011" points="133.138,114.561 129.922,120.131 133.138,125.701 139.57,125.701 142.786,120.131 139.57,114.561 	
		"/>
	<polygon fill="#111011" points="156.761,70.106 153.544,75.676 156.761,81.247 163.192,81.247 166.408,75.676 163.192,70.106 	"/>
	<polygon fill="#111011" points="156.761,84.924 153.544,90.495 156.761,96.064 163.192,96.064 166.408,90.495 163.192,84.924 	"/>
	<polygon fill="#111011" points="156.761,99.743 153.544,105.313 156.761,110.883 163.192,110.883 166.408,105.313 163.192,99.743 	
		"/>
	<polygon fill="#111011" points="156.761,114.561 153.544,120.131 156.761,125.701 163.192,125.701 166.408,120.131 
		163.192,114.561 	"/>
	<polygon fill="#111011" points="180.383,70.106 177.166,75.676 180.383,81.247 186.814,81.247 190.03,75.676 186.814,70.106 	"/>
	<polygon fill="#111011" points="180.383,84.924 177.166,90.495 180.383,96.064 186.814,96.064 190.03,90.495 186.814,84.924 	"/>
	<polygon fill="#111011" points="180.383,99.743 177.166,105.313 180.383,110.883 186.814,110.883 190.03,105.313 186.814,99.743 	
		"/>
	<polygon fill="#111011" points="180.383,114.561 177.166,120.131 180.383,125.701 186.814,125.701 190.03,120.131 186.814,114.561 
			"/>
	<polygon fill="#111011" points="204.005,70.106 200.788,75.676 204.005,81.247 210.437,81.247 213.652,75.676 210.437,70.106 	"/>
	<polygon fill="#111011" points="204.005,84.924 200.788,90.495 204.005,96.064 210.437,96.064 213.652,90.495 210.437,84.924 	"/>
	<polygon fill="#111011" points="204.005,99.743 200.788,105.313 204.005,110.883 210.437,110.883 213.652,105.313 210.437,99.743 	
		"/>
	<polygon fill="#111011" points="204.005,114.561 200.788,120.131 204.005,125.701 210.437,125.701 213.652,120.131 
		210.437,114.561 	"/>
	<polygon fill="#111011" points="227.627,70.106 224.411,75.676 227.627,81.247 234.059,81.247 237.274,75.676 234.059,70.106 	"/>
	<polygon fill="#111011" points="227.627,84.924 224.411,90.495 227.627,96.064 234.059,96.064 237.274,90.495 234.059,84.924 	"/>
	<polygon fill="#111011" points="227.627,99.743 224.411,105.313 227.627,110.883 234.059,110.883 237.274,105.313 234.059,99.743 	
		"/>
	<polygon fill="#111011" points="227.627,114.561 224.411,120.131 227.627,125.701 234.059,125.701 237.274,120.131 
		234.059,114.561 	"/>
	<polygon fill="#111011" points="251.249,70.106 248.033,75.676 251.249,81.247 257.681,81.247 260.896,75.676 257.681,70.106 	"/>
	<polygon fill="#111011" points="251.249,84.924 248.033,90.495 251.249,96.064 257.681,96.064 260.896,90.495 257.681,84.924 	"/>
	<polygon fill="#111011" points="251.249,99.743 248.033,105.313 251.249,110.883 257.681,110.883 260.896,105.313 257.681,99.743 	
		"/>
	<polygon fill="#111011" points="251.249,114.561 248.033,120.131 251.249,125.701 257.681,125.701 260.896,120.131 
		257.681,114.561 	"/>
	<polygon fill="#111011" points="274.871,70.106 271.655,75.676 274.871,81.247 281.303,81.247 284.52,75.676 281.303,70.106 	"/>
	<polygon fill="#111011" points="274.871,84.924 271.655,90.495 274.871,96.064 281.303,96.064 284.52,90.495 281.303,84.924 	"/>
	<polygon fill="#111011" points="274.871,99.743 271.655,105.313 274.871,110.883 281.303,110.883 284.52,105.313 281.303,99.743 	
		"/>
	<polygon fill="#111011" points="274.871,114.561 271.655,120.131 274.871,125.701 281.303,125.701 284.52,120.131 281.303,114.561 
			"/>
	<polygon fill="#111011" points="298.493,70.106 295.277,75.676 298.493,81.247 304.925,81.247 308.141,75.676 304.925,70.106 	"/>
	<polygon fill="#111011" points="298.493,84.924 295.277,90.495 298.493,96.064 304.925,96.064 308.141,90.495 304.925,84.924 	"/>
	<polygon fill="#111011" points="298.493,99.743 295.277,105.313 298.493,110.883 304.925,110.883 308.141,105.313 304.925,99.743 	
		"/>
	<polygon fill="#111011" points="298.493,114.561 295.277,120.131 298.493,125.701 304.925,125.701 308.141,120.131 
		304.925,114.561 	"/>
	<polygon fill="#111011" points="322.115,70.106 318.899,75.676 322.115,81.247 328.547,81.247 331.764,75.676 328.547,70.106 	"/>
	<polygon fill="#111011" points="322.115,84.924 318.899,90.495 322.115,96.064 328.547,96.064 331.764,90.495 328.547,84.924 	"/>
	<polygon fill="#111011" points="322.115,99.743 318.899,105.313 322.115,110.883 328.547,110.883 331.764,105.313 328.547,99.743 	
		"/>
	<polygon fill="#111011" points="322.115,114.561 318.899,120.131 322.115,125.701 328.547,125.701 331.764,120.131 
		328.547,114.561 	"/>
	<polygon fill="#111011" points="345.737,70.106 342.521,75.676 345.737,81.247 352.169,81.247 355.386,75.676 352.169,70.106 	"/>
	<polygon fill="#111011" points="345.737,84.924 342.521,90.495 345.737,96.064 352.169,96.064 355.386,90.495 352.169,84.924 	"/>
	<polygon fill="#111011" points="345.737,99.743 342.521,105.313 345.737,110.883 352.169,110.883 355.386,105.313 352.169,99.743 	
		"/>
	<polygon fill="#111011" points="345.737,114.561 342.521,120.131 345.737,125.701 352.169,125.701 355.386,120.131 
		352.169,114.561 	"/>
	<polygon fill="#111011" points="381.391,14.882 378.174,9.312 381.391,3.742 387.822,3.742 391.038,9.312 387.822,14.882 	"/>
	<polygon fill="#111011" points="381.391,29.7 378.174,24.13 381.391,18.56 387.822,18.56 391.038,24.13 387.822,29.7 	"/>
	<polygon fill="#111011" points="381.391,44.518 378.174,38.948 381.391,33.378 387.822,33.378 391.038,38.948 387.822,44.518 	"/>
	<polygon fill="#111011" points="381.391,59.336 378.174,53.767 381.391,48.196 387.822,48.196 391.038,53.767 387.822,59.336 	"/>
	<polygon fill="#111011" points="405.013,14.882 401.796,9.312 405.013,3.742 411.444,3.742 414.66,9.312 411.444,14.882 	"/>
	<polygon fill="#111011" points="405.013,29.7 401.796,24.13 405.013,18.56 411.444,18.56 414.66,24.13 411.444,29.7 	"/>
	<polygon fill="#111011" points="405.013,44.518 401.796,38.948 405.013,33.378 411.444,33.378 414.66,38.948 411.444,44.518 	"/>
	<polygon fill="#111011" points="405.013,59.336 401.796,53.767 405.013,48.196 411.444,48.196 414.66,53.767 411.444,59.336 	"/>
	<polygon fill="#111011" points="428.635,14.882 425.419,9.312 428.635,3.742 435.066,3.742 438.282,9.312 435.066,14.882 	"/>
	<polygon fill="#111011" points="428.635,29.7 425.419,24.13 428.635,18.56 435.066,18.56 438.282,24.13 435.066,29.7 	"/>
	<polygon fill="#111011" points="428.635,44.518 425.419,38.948 428.635,33.378 435.066,33.378 438.282,38.948 435.066,44.518 	"/>
	<polygon fill="#111011" points="428.635,59.336 425.419,53.767 428.635,48.196 435.066,48.196 438.282,53.767 435.066,59.336 	"/>
	<polygon fill="#111011" points="452.257,14.882 449.041,9.312 452.257,3.742 458.688,3.742 461.904,9.312 458.688,14.882 	"/>
	<polygon fill="#111011" points="452.257,29.7 449.041,24.13 452.257,18.56 458.688,18.56 461.904,24.13 458.688,29.7 	"/>
	<polygon fill="#111011" points="452.257,44.518 449.041,38.948 452.257,33.378 458.688,33.378 461.904,38.948 458.688,44.518 	"/>
	<polygon fill="#111011" points="452.257,59.336 449.041,53.767 452.257,48.196 458.688,48.196 461.904,53.767 458.688,59.336 	"/>
	<polygon fill="#111011" points="475.879,14.882 472.663,9.312 475.879,3.742 482.311,3.742 485.526,9.312 482.311,14.882 	"/>
	<polygon fill="#111011" points="475.879,29.7 472.663,24.13 475.879,18.56 482.311,18.56 485.526,24.13 482.311,29.7 	"/>
	<polygon fill="#111011" points="475.879,44.518 472.663,38.948 475.879,33.378 482.311,33.378 485.526,38.948 482.311,44.518 	"/>
	<polygon fill="#111011" points="475.879,59.336 472.663,53.767 475.879,48.196 482.311,48.196 485.526,53.767 482.311,59.336 	"/>
	<polygon fill="#111011" points="499.501,14.882 496.285,9.312 499.501,3.742 505.933,3.742 509.149,9.312 505.933,14.882 	"/>
	<polygon fill="#111011" points="499.501,29.7 496.285,24.13 499.501,18.56 505.933,18.56 509.149,24.13 505.933,29.7 	"/>
	<polygon fill="#111011" points="499.501,44.518 496.285,38.948 499.501,33.378 505.933,33.378 509.149,38.948 505.933,44.518 	"/>
	<polygon fill="#111011" points="499.501,59.336 496.285,53.767 499.501,48.196 505.933,48.196 509.149,53.767 505.933,59.336 	"/>
	<polygon fill="#111011" points="523.123,14.882 519.907,9.312 523.123,3.742 529.555,3.742 532.771,9.312 529.555,14.882 	"/>
	<polygon fill="#111011" points="523.123,29.7 519.907,24.13 523.123,18.56 529.555,18.56 532.771,24.13 529.555,29.7 	"/>
	<polygon fill="#111011" points="523.123,44.518 519.907,38.948 523.123,33.378 529.555,33.378 532.771,38.948 529.555,44.518 	"/>
	<polygon fill="#111011" points="523.123,59.336 519.907,53.767 523.123,48.196 529.555,48.196 532.771,53.767 529.555,59.336 	"/>
	<polygon fill="#111011" points="546.745,14.882 543.529,9.312 546.745,3.742 553.177,3.742 556.394,9.312 553.177,14.882 	"/>
	<polygon fill="#111011" points="546.745,29.7 543.529,24.13 546.745,18.56 553.177,18.56 556.394,24.13 553.177,29.7 	"/>
	<polygon fill="#111011" points="546.745,44.518 543.529,38.948 546.745,33.378 553.177,33.378 556.394,38.948 553.177,44.518 	"/>
	<polygon fill="#111011" points="546.745,59.336 543.529,53.767 546.745,48.196 553.177,48.196 556.394,53.767 553.177,59.336 	"/>
	<polygon fill="#111011" points="570.367,14.882 567.151,9.312 570.367,3.742 576.8,3.742 580.016,9.312 576.8,14.882 	"/>
	<polygon fill="#111011" points="570.367,29.7 567.151,24.13 570.367,18.56 576.8,18.56 580.016,24.13 576.8,29.7 	"/>
	<polygon fill="#111011" points="570.367,44.518 567.151,38.948 570.367,33.378 576.8,33.378 580.016,38.948 576.8,44.518 	"/>
	<polygon fill="#111011" points="570.367,59.336 567.151,53.767 570.367,48.196 576.8,48.196 580.016,53.767 576.8,59.336 	"/>
	<polygon fill="#111011" points="593.989,14.882 590.773,9.312 593.989,3.742 600.422,3.742 603.638,9.312 600.422,14.882 	"/>
	<polygon fill="#111011" points="593.989,29.7 590.773,24.13 593.989,18.56 600.422,18.56 603.638,24.13 600.422,29.7 	"/>
	<polygon fill="#111011" points="593.989,44.518 590.773,38.948 593.989,33.378 600.422,33.378 603.638,38.948 600.422,44.518 	"/>
	<polygon fill="#111011" points="593.989,59.336 590.773,53.767 593.989,48.196 600.422,48.196 603.638,53.767 600.422,59.336 	"/>
	<polygon fill="#111011" points="366.363,2.21 369.579,7.78 376.011,7.78 379.228,2.21 377.951,0 367.64,0 	"/>
	<polygon fill="#111011" points="369.579,11.459 366.363,17.028 369.579,22.599 376.011,22.599 379.228,17.028 376.011,11.459 	"/>
	<polygon fill="#111011" points="369.579,26.276 366.363,31.847 369.579,37.417 376.011,37.417 379.228,31.847 376.011,26.276 	"/>
	<polygon fill="#111011" points="369.579,41.095 366.363,46.665 369.579,52.235 376.011,52.235 379.228,46.665 376.011,41.095 	"/>
	<polygon fill="#111011" points="369.579,55.913 366.363,61.483 369.579,67.053 376.011,67.053 379.228,61.483 376.011,55.913 	"/>
	<polygon fill="#111011" points="389.985,2.21 393.201,7.78 399.634,7.78 402.85,2.21 401.573,0 391.262,0 	"/>
	<polygon fill="#111011" points="393.201,11.459 389.985,17.028 393.201,22.599 399.634,22.599 402.85,17.028 399.634,11.459 	"/>
	<polygon fill="#111011" points="393.201,26.276 389.985,31.847 393.201,37.417 399.634,37.417 402.85,31.847 399.634,26.276 	"/>
	<polygon fill="#111011" points="393.201,41.095 389.985,46.665 393.201,52.235 399.634,52.235 402.85,46.665 399.634,41.095 	"/>
	<polygon fill="#111011" points="393.201,55.913 389.985,61.483 393.201,67.053 399.634,67.053 402.85,61.483 399.634,55.913 	"/>
	<polygon fill="#111011" points="413.607,2.21 416.823,7.78 423.256,7.78 426.472,2.21 425.195,0 414.884,0 	"/>
	<polygon fill="#111011" points="416.823,11.459 413.607,17.028 416.823,22.599 423.256,22.599 426.472,17.028 423.256,11.459 	"/>
	<polygon fill="#111011" points="416.823,26.276 413.607,31.847 416.823,37.417 423.256,37.417 426.472,31.847 423.256,26.276 	"/>
	<polygon fill="#111011" points="416.823,41.095 413.607,46.665 416.823,52.235 423.256,52.235 426.472,46.665 423.256,41.095 	"/>
	<polygon fill="#111011" points="416.823,55.913 413.607,61.483 416.823,67.053 423.256,67.053 426.472,61.483 423.256,55.913 	"/>
	<polygon fill="#111011" points="437.229,2.21 440.445,7.78 446.878,7.78 450.094,2.21 448.817,0 438.506,0 	"/>
	<polygon fill="#111011" points="440.445,11.459 437.229,17.028 440.445,22.599 446.878,22.599 450.094,17.028 446.878,11.459 	"/>
	<polygon fill="#111011" points="440.445,26.276 437.229,31.847 440.445,37.417 446.878,37.417 450.094,31.847 446.878,26.276 	"/>
	<polygon fill="#111011" points="440.445,41.095 437.229,46.665 440.445,52.235 446.878,52.235 450.094,46.665 446.878,41.095 	"/>
	<polygon fill="#111011" points="440.445,55.913 437.229,61.483 440.445,67.053 446.878,67.053 450.094,61.483 446.878,55.913 	"/>
	<polygon fill="#111011" points="460.852,2.21 464.067,7.78 470.5,7.78 473.716,2.21 472.439,0 462.128,0 	"/>
	<polygon fill="#111011" points="464.067,11.459 460.852,17.028 464.067,22.599 470.5,22.599 473.716,17.028 470.5,11.459 	"/>
	<polygon fill="#111011" points="464.067,26.276 460.852,31.847 464.067,37.417 470.5,37.417 473.716,31.847 470.5,26.276 	"/>
	<polygon fill="#111011" points="464.067,41.095 460.852,46.665 464.067,52.235 470.5,52.235 473.716,46.665 470.5,41.095 	"/>
	<polygon fill="#111011" points="464.067,55.913 460.852,61.483 464.067,67.053 470.5,67.053 473.716,61.483 470.5,55.913 	"/>
	<polygon fill="#111011" points="484.474,2.21 487.689,7.78 494.122,7.78 497.338,2.21 496.062,0 485.75,0 	"/>
	<polygon fill="#111011" points="487.689,11.459 484.474,17.028 487.689,22.599 494.122,22.599 497.338,17.028 494.122,11.459 	"/>
	<polygon fill="#111011" points="487.689,26.276 484.474,31.847 487.689,37.417 494.122,37.417 497.338,31.847 494.122,26.276 	"/>
	<polygon fill="#111011" points="487.689,41.095 484.474,46.665 487.689,52.235 494.122,52.235 497.338,46.665 494.122,41.095 	"/>
	<polygon fill="#111011" points="487.689,55.913 484.474,61.483 487.689,67.053 494.122,67.053 497.338,61.483 494.122,55.913 	"/>
	<polygon fill="#111011" points="508.096,2.21 511.312,7.78 517.744,7.78 520.96,2.21 519.684,0 509.372,0 	"/>
	<polygon fill="#111011" points="511.313,11.459 508.096,17.028 511.313,22.599 517.744,22.599 520.96,17.028 517.744,11.459 	"/>
	<polygon fill="#111011" points="511.313,26.276 508.096,31.847 511.313,37.417 517.744,37.417 520.96,31.847 517.744,26.276 	"/>
	<polygon fill="#111011" points="511.313,41.095 508.096,46.665 511.313,52.235 517.744,52.235 520.96,46.665 517.744,41.095 	"/>
	<polygon fill="#111011" points="511.313,55.913 508.096,61.483 511.313,67.053 517.744,67.053 520.96,61.483 517.744,55.913 	"/>
	<polygon fill="#111011" points="531.718,2.21 534.935,7.78 541.366,7.78 544.582,2.21 543.306,0 532.994,0 	"/>
	<polygon fill="#111011" points="534.935,11.459 531.718,17.028 534.935,22.599 541.366,22.599 544.582,17.028 541.366,11.459 	"/>
	<polygon fill="#111011" points="534.935,26.276 531.718,31.847 534.935,37.417 541.366,37.417 544.582,31.847 541.366,26.276 	"/>
	<polygon fill="#111011" points="534.935,41.095 531.718,46.665 534.935,52.235 541.366,52.235 544.582,46.665 541.366,41.095 	"/>
	<polygon fill="#111011" points="534.935,55.913 531.718,61.483 534.935,67.053 541.366,67.053 544.582,61.483 541.366,55.913 	"/>
	<polygon fill="#111011" points="555.341,2.21 558.557,7.78 564.988,7.78 568.204,2.21 566.929,0 556.616,0 	"/>
	<polygon fill="#111011" points="558.557,11.459 555.34,17.028 558.557,22.599 564.988,22.599 568.204,17.028 564.988,11.459 	"/>
	<polygon fill="#111011" points="558.557,26.276 555.34,31.847 558.557,37.417 564.988,37.417 568.204,31.847 564.988,26.276 	"/>
	<polygon fill="#111011" points="558.557,41.095 555.34,46.665 558.557,52.235 564.988,52.235 568.204,46.665 564.988,41.095 	"/>
	<polygon fill="#111011" points="558.557,55.913 555.34,61.483 558.557,67.053 564.988,67.053 568.204,61.483 564.988,55.913 	"/>
	<polygon fill="#111011" points="578.962,2.21 582.179,7.78 588.61,7.78 591.826,2.21 590.55,0 580.238,0 	"/>
	<polygon fill="#111011" points="582.179,11.459 578.963,17.028 582.179,22.599 588.61,22.599 591.826,17.028 588.61,11.459 	"/>
	<polygon fill="#111011" points="582.179,26.276 578.963,31.847 582.179,37.417 588.61,37.417 591.826,31.847 588.61,26.276 	"/>
	<polygon fill="#111011" points="582.179,41.095 578.963,46.665 582.179,52.235 588.61,52.235 591.826,46.665 588.61,41.095 	"/>
	<polygon fill="#111011" points="582.179,55.913 578.963,61.483 582.179,67.053 588.61,67.053 591.826,61.483 588.61,55.913 	"/>
	<polygon fill="#111011" points="381.391,73.53 378.174,67.96 381.391,62.39 387.822,62.39 391.038,67.96 387.822,73.53 	"/>
	<polygon fill="#111011" points="381.391,88.349 378.174,82.778 381.391,77.208 387.822,77.208 391.038,82.778 387.822,88.349 	"/>
	<polygon fill="#111011" points="381.391,103.166 378.174,97.597 381.391,92.026 387.822,92.026 391.038,97.597 387.822,103.166 	
		"/>
	<polygon fill="#111011" points="381.391,117.984 378.174,112.415 381.391,106.844 387.822,106.844 391.038,112.415 
		387.822,117.984 	"/>
	<polygon fill="#111011" points="405.013,73.53 401.796,67.96 405.013,62.39 411.444,62.39 414.66,67.96 411.444,73.53 	"/>
	<polygon fill="#111011" points="405.013,88.349 401.796,82.778 405.013,77.208 411.444,77.208 414.66,82.778 411.444,88.349 	"/>
	<polygon fill="#111011" points="405.013,103.166 401.796,97.597 405.013,92.026 411.444,92.026 414.66,97.597 411.444,103.166 	"/>
	<polygon fill="#111011" points="405.013,117.984 401.796,112.415 405.013,106.844 411.444,106.844 414.66,112.415 411.444,117.984 
			"/>
	<polygon fill="#111011" points="428.635,73.53 425.419,67.96 428.635,62.39 435.066,62.39 438.282,67.96 435.066,73.53 	"/>
	<polygon fill="#111011" points="428.635,88.349 425.419,82.778 428.635,77.208 435.066,77.208 438.282,82.778 435.066,88.349 	"/>
	<polygon fill="#111011" points="428.635,103.166 425.419,97.597 428.635,92.026 435.066,92.026 438.282,97.597 435.066,103.166 	
		"/>
	<polygon fill="#111011" points="428.635,117.984 425.419,112.415 428.635,106.844 435.066,106.844 438.282,112.415 
		435.066,117.984 	"/>
	<polygon fill="#111011" points="452.257,73.53 449.041,67.96 452.257,62.39 458.688,62.39 461.904,67.96 458.688,73.53 	"/>
	<polygon fill="#111011" points="452.257,88.349 449.041,82.778 452.257,77.208 458.688,77.208 461.904,82.778 458.688,88.349 	"/>
	<polygon fill="#111011" points="452.257,103.166 449.041,97.597 452.257,92.026 458.688,92.026 461.904,97.597 458.688,103.166 	
		"/>
	<polygon fill="#111011" points="452.257,117.984 449.041,112.415 452.257,106.844 458.688,106.844 461.904,112.415 
		458.688,117.984 	"/>
	<polygon fill="#111011" points="475.879,73.53 472.663,67.96 475.879,62.39 482.311,62.39 485.526,67.96 482.311,73.53 	"/>
	<polygon fill="#111011" points="475.879,88.349 472.663,82.778 475.879,77.208 482.311,77.208 485.526,82.778 482.311,88.349 	"/>
	<polygon fill="#111011" points="475.879,103.166 472.663,97.597 475.879,92.026 482.311,92.026 485.526,97.597 482.311,103.166 	
		"/>
	<polygon fill="#111011" points="475.879,117.984 472.663,112.415 475.879,106.844 482.311,106.844 485.526,112.415 
		482.311,117.984 	"/>
	<polygon fill="#111011" points="499.501,73.53 496.285,67.96 499.501,62.39 505.933,62.39 509.149,67.96 505.933,73.53 	"/>
	<polygon fill="#111011" points="499.501,88.349 496.285,82.778 499.501,77.208 505.933,77.208 509.149,82.778 505.933,88.349 	"/>
	<polygon fill="#111011" points="499.501,103.166 496.285,97.597 499.501,92.026 505.933,92.026 509.149,97.597 505.933,103.166 	
		"/>
	<polygon fill="#111011" points="499.501,117.984 496.285,112.415 499.501,106.844 505.933,106.844 509.149,112.415 
		505.933,117.984 	"/>
	<polygon fill="#111011" points="523.123,73.53 519.907,67.96 523.123,62.39 529.555,62.39 532.771,67.96 529.555,73.53 	"/>
	<polygon fill="#111011" points="523.123,88.349 519.907,82.778 523.123,77.208 529.555,77.208 532.771,82.778 529.555,88.349 	"/>
	<polygon fill="#111011" points="523.123,103.166 519.907,97.597 523.123,92.026 529.555,92.026 532.771,97.597 529.555,103.166 	
		"/>
	<polygon fill="#111011" points="523.123,117.984 519.907,112.415 523.123,106.844 529.555,106.844 532.771,112.415 
		529.555,117.984 	"/>
	<polygon fill="#111011" points="546.745,73.53 543.529,67.96 546.745,62.39 553.177,62.39 556.394,67.96 553.177,73.53 	"/>
	<polygon fill="#111011" points="546.745,88.349 543.529,82.778 546.745,77.208 553.177,77.208 556.394,82.778 553.177,88.349 	"/>
	<polygon fill="#111011" points="546.745,103.166 543.529,97.597 546.745,92.026 553.177,92.026 556.394,97.597 553.177,103.166 	
		"/>
	<polygon fill="#111011" points="546.745,117.984 543.529,112.415 546.745,106.844 553.177,106.844 556.394,112.415 
		553.177,117.984 	"/>
	<polygon fill="#111011" points="570.367,73.53 567.151,67.96 570.367,62.39 576.8,62.39 580.016,67.96 576.8,73.53 	"/>
	<polygon fill="#111011" points="570.367,88.349 567.151,82.778 570.367,77.208 576.8,77.208 580.016,82.778 576.8,88.349 	"/>
	<polygon fill="#111011" points="570.367,103.166 567.151,97.597 570.367,92.026 576.8,92.026 580.016,97.597 576.8,103.166 	"/>
	<polygon fill="#111011" points="570.367,117.984 567.151,112.415 570.367,106.844 576.8,106.844 580.016,112.415 576.8,117.984 	
		"/>
	<polygon fill="#111011" points="593.989,73.53 590.773,67.96 593.989,62.39 600.422,62.39 603.638,67.96 600.422,73.53 	"/>
	<polygon fill="#111011" points="593.989,88.349 590.773,82.778 593.989,77.208 600.422,77.208 603.638,82.778 600.422,88.349 	"/>
	<polygon fill="#111011" points="593.989,103.166 590.773,97.597 593.989,92.026 600.422,92.026 603.638,97.597 600.422,103.166 	
		"/>
	<polygon fill="#111011" points="593.989,117.984 590.773,112.415 593.989,106.844 600.422,106.844 603.638,112.415 
		600.422,117.984 	"/>
	<polygon fill="#111011" points="369.579,70.106 366.363,75.676 369.579,81.247 376.011,81.247 379.228,75.676 376.011,70.106 	"/>
	<polygon fill="#111011" points="369.579,84.924 366.363,90.495 369.579,96.064 376.011,96.064 379.228,90.495 376.011,84.924 	"/>
	<polygon fill="#111011" points="369.579,99.743 366.363,105.313 369.579,110.883 376.011,110.883 379.228,105.313 376.011,99.743 	
		"/>
	<polygon fill="#111011" points="369.579,114.561 366.363,120.131 369.579,125.701 376.011,125.701 379.228,120.131 
		376.011,114.561 	"/>
	<polygon fill="#111011" points="393.201,70.106 389.985,75.676 393.201,81.247 399.634,81.247 402.85,75.676 399.634,70.106 	"/>
	<polygon fill="#111011" points="393.201,84.924 389.985,90.495 393.201,96.064 399.634,96.064 402.85,90.495 399.634,84.924 	"/>
	<polygon fill="#111011" points="393.201,99.743 389.985,105.313 393.201,110.883 399.634,110.883 402.85,105.313 399.634,99.743 	
		"/>
	<polygon fill="#111011" points="393.201,114.561 389.985,120.131 393.201,125.701 399.634,125.701 402.85,120.131 399.634,114.561 
			"/>
	<polygon fill="#111011" points="416.823,70.106 413.607,75.676 416.823,81.247 423.256,81.247 426.472,75.676 423.256,70.106 	"/>
	<polygon fill="#111011" points="416.823,84.924 413.607,90.495 416.823,96.064 423.256,96.064 426.472,90.495 423.256,84.924 	"/>
	<polygon fill="#111011" points="416.823,99.743 413.607,105.313 416.823,110.883 423.256,110.883 426.472,105.313 423.256,99.743 	
		"/>
	<polygon fill="#111011" points="416.823,114.561 413.607,120.131 416.823,125.701 423.256,125.701 426.472,120.131 
		423.256,114.561 	"/>
	<polygon fill="#111011" points="440.445,70.106 437.229,75.676 440.445,81.247 446.878,81.247 450.094,75.676 446.878,70.106 	"/>
	<polygon fill="#111011" points="440.445,84.924 437.229,90.495 440.445,96.064 446.878,96.064 450.094,90.495 446.878,84.924 	"/>
	<polygon fill="#111011" points="440.445,99.743 437.229,105.313 440.445,110.883 446.878,110.883 450.094,105.313 446.878,99.743 	
		"/>
	<polygon fill="#111011" points="440.445,114.561 437.229,120.131 440.445,125.701 446.878,125.701 450.094,120.131 
		446.878,114.561 	"/>
	<polygon fill="#111011" points="464.067,70.106 460.852,75.676 464.067,81.247 470.5,81.247 473.716,75.676 470.5,70.106 	"/>
	<polygon fill="#111011" points="464.067,84.924 460.852,90.495 464.067,96.064 470.5,96.064 473.716,90.495 470.5,84.924 	"/>
	<polygon fill="#111011" points="464.067,99.743 460.852,105.313 464.067,110.883 470.5,110.883 473.716,105.313 470.5,99.743 	"/>
	<polygon fill="#111011" points="464.067,114.561 460.852,120.131 464.067,125.701 470.5,125.701 473.716,120.131 470.5,114.561 	
		"/>
	<polygon fill="#111011" points="487.689,70.106 484.474,75.676 487.689,81.247 494.122,81.247 497.338,75.676 494.122,70.106 	"/>
	<polygon fill="#111011" points="487.689,84.924 484.474,90.495 487.689,96.064 494.122,96.064 497.338,90.495 494.122,84.924 	"/>
	<polygon fill="#111011" points="487.689,99.743 484.474,105.313 487.689,110.883 494.122,110.883 497.338,105.313 494.122,99.743 	
		"/>
	<polygon fill="#111011" points="487.689,114.561 484.474,120.131 487.689,125.701 494.122,125.701 497.338,120.131 
		494.122,114.561 	"/>
	<polygon fill="#111011" points="511.313,70.106 508.096,75.676 511.313,81.247 517.744,81.247 520.96,75.676 517.744,70.106 	"/>
	<polygon fill="#111011" points="511.313,84.924 508.096,90.495 511.313,96.064 517.744,96.064 520.96,90.495 517.744,84.924 	"/>
	<polygon fill="#111011" points="511.313,99.743 508.096,105.313 511.313,110.883 517.744,110.883 520.96,105.313 517.744,99.743 	
		"/>
	<polygon fill="#111011" points="511.313,114.561 508.096,120.131 511.313,125.701 517.744,125.701 520.96,120.131 517.744,114.561 
			"/>
	<polygon fill="#111011" points="534.935,70.106 531.718,75.676 534.935,81.247 541.366,81.247 544.582,75.676 541.366,70.106 	"/>
	<polygon fill="#111011" points="534.935,84.924 531.718,90.495 534.935,96.064 541.366,96.064 544.582,90.495 541.366,84.924 	"/>
	<polygon fill="#111011" points="534.935,99.743 531.718,105.313 534.935,110.883 541.366,110.883 544.582,105.313 541.366,99.743 	
		"/>
	<polygon fill="#111011" points="534.935,114.561 531.718,120.131 534.935,125.701 541.366,125.701 544.582,120.131 
		541.366,114.561 	"/>
	<polygon fill="#111011" points="558.557,70.106 555.34,75.676 558.557,81.247 564.988,81.247 568.204,75.676 564.988,70.106 	"/>
	<polygon fill="#111011" points="558.557,84.924 555.34,90.495 558.557,96.064 564.988,96.064 568.204,90.495 564.988,84.924 	"/>
	<polygon fill="#111011" points="558.557,99.743 555.34,105.313 558.557,110.883 564.988,110.883 568.204,105.313 564.988,99.743 	
		"/>
	<polygon fill="#111011" points="558.557,114.561 555.34,120.131 558.557,125.701 564.988,125.701 568.204,120.131 564.988,114.561 
			"/>
	<polygon fill="#111011" points="582.179,70.106 578.963,75.676 582.179,81.247 588.61,81.247 591.826,75.676 588.61,70.106 	"/>
	<polygon fill="#111011" points="582.179,84.924 578.963,90.495 582.179,96.064 588.61,96.064 591.826,90.495 588.61,84.924 	"/>
	<polygon fill="#111011" points="582.179,99.743 578.963,105.313 582.179,110.883 588.61,110.883 591.826,105.313 588.61,99.743 	
		"/>
	<polygon fill="#111011" points="582.179,114.561 578.963,120.131 582.179,125.701 588.61,125.701 591.826,120.131 588.61,114.561 	
		"/>
	<polygon fill="#111011" points="357.549,132.849 354.332,127.278 357.549,121.708 363.98,121.708 367.196,127.278 363.98,132.849 	
		"/>
	<polygon fill="#111011" points="357.549,147.666 354.332,142.097 357.549,136.526 363.98,136.526 367.196,142.097 363.98,147.666 	
		"/>
	<polygon fill="#111011" points="357.549,162.484 354.332,156.915 357.549,151.344 363.98,151.344 367.196,156.915 363.98,162.484 	
		"/>
	<polygon fill="#111011" points="3.217,132.849 0,127.278 3.217,121.708 9.648,121.708 12.864,127.278 9.648,132.849 	"/>
	<polygon fill="#111011" points="3.217,147.666 0,142.097 3.217,136.526 9.648,136.526 12.864,142.097 9.648,147.666 	"/>
	<polygon fill="#111011" points="3.217,162.484 0,156.915 3.217,151.344 9.648,151.344 12.864,156.915 9.648,162.484 	"/>
	<polygon fill="#111011" points="26.839,132.849 23.622,127.278 26.839,121.708 33.271,121.708 36.486,127.278 33.271,132.849 	"/>
	<polygon fill="#111011" points="26.839,147.666 23.622,142.097 26.839,136.526 33.271,136.526 36.486,142.097 33.271,147.666 	"/>
	<polygon fill="#111011" points="26.839,162.484 23.622,156.915 26.839,151.344 33.271,151.344 36.486,156.915 33.271,162.484 	"/>
	<polygon fill="#111011" points="50.461,132.849 47.244,127.278 50.461,121.708 56.893,121.708 60.108,127.278 56.893,132.849 	"/>
	<polygon fill="#111011" points="50.461,147.666 47.244,142.097 50.461,136.526 56.893,136.526 60.108,142.097 56.893,147.666 	"/>
	<polygon fill="#111011" points="50.461,162.484 47.244,156.915 50.461,151.344 56.893,151.344 60.108,156.915 56.893,162.484 	"/>
	<polygon fill="#111011" points="74.083,132.849 70.867,127.278 74.083,121.708 80.515,121.708 83.73,127.278 80.515,132.849 	"/>
	<polygon fill="#111011" points="74.083,147.666 70.867,142.097 74.083,136.526 80.515,136.526 83.73,142.097 80.515,147.666 	"/>
	<polygon fill="#111011" points="74.083,162.484 70.867,156.915 74.083,151.344 80.515,151.344 83.73,156.915 80.515,162.484 	"/>
	<polygon fill="#111011" points="97.705,132.849 94.489,127.278 97.705,121.708 104.137,121.708 107.353,127.278 104.137,132.849 	
		"/>
	<polygon fill="#111011" points="97.705,147.666 94.489,142.097 97.705,136.526 104.137,136.526 107.353,142.097 104.137,147.666 	
		"/>
	<polygon fill="#111011" points="97.705,162.484 94.489,156.915 97.705,151.344 104.137,151.344 107.353,156.915 104.137,162.484 	
		"/>
	<polygon fill="#111011" points="121.327,132.849 118.111,127.278 121.327,121.708 127.759,121.708 130.975,127.278 
		127.759,132.849 	"/>
	<polygon fill="#111011" points="121.327,147.666 118.111,142.097 121.327,136.526 127.759,136.526 130.975,142.097 
		127.759,147.666 	"/>
	<polygon fill="#111011" points="121.327,162.484 118.111,156.915 121.327,151.344 127.759,151.344 130.975,156.915 
		127.759,162.484 	"/>
	<polygon fill="#111011" points="144.949,132.849 141.733,127.278 144.949,121.708 151.381,121.708 154.598,127.278 
		151.381,132.849 	"/>
	<polygon fill="#111011" points="144.949,147.666 141.733,142.097 144.949,136.526 151.381,136.526 154.598,142.097 
		151.381,147.666 	"/>
	<polygon fill="#111011" points="144.949,162.484 141.733,156.915 144.949,151.344 151.381,151.344 154.598,156.915 
		151.381,162.484 	"/>
	<polygon fill="#111011" points="168.571,132.849 165.355,127.278 168.571,121.708 175.003,121.708 178.22,127.278 175.003,132.849 
			"/>
	<polygon fill="#111011" points="168.571,147.666 165.355,142.097 168.571,136.526 175.003,136.526 178.22,142.097 175.003,147.666 
			"/>
	<polygon fill="#111011" points="168.571,162.484 165.355,156.915 168.571,151.344 175.003,151.344 178.22,156.915 175.003,162.484 
			"/>
	<polygon fill="#111011" points="192.193,132.849 188.978,127.278 192.193,121.708 198.625,121.708 201.842,127.278 
		198.625,132.849 	"/>
	<polygon fill="#111011" points="192.193,147.666 188.978,142.097 192.193,136.526 198.625,136.526 201.842,142.097 
		198.625,147.666 	"/>
	<polygon fill="#111011" points="192.193,162.484 188.978,156.915 192.193,151.344 198.625,151.344 201.842,156.915 
		198.625,162.484 	"/>
	<polygon fill="#111011" points="215.815,132.849 212.6,127.278 215.815,121.708 222.248,121.708 225.464,127.278 222.248,132.849 	
		"/>
	<polygon fill="#111011" points="215.815,147.666 212.6,142.097 215.815,136.526 222.248,136.526 225.464,142.097 222.248,147.666 	
		"/>
	<polygon fill="#111011" points="215.815,162.484 212.6,156.915 215.815,151.344 222.248,151.344 225.464,156.915 222.248,162.484 	
		"/>
	<polygon fill="#111011" points="239.438,132.849 236.222,127.278 239.438,121.708 245.87,121.708 249.086,127.278 245.87,132.849 	
		"/>
	<polygon fill="#111011" points="239.438,147.666 236.222,142.097 239.438,136.526 245.87,136.526 249.086,142.097 245.87,147.666 	
		"/>
	<polygon fill="#111011" points="239.438,162.484 236.222,156.915 239.438,151.344 245.87,151.344 249.086,156.915 245.87,162.484 	
		"/>
	<polygon fill="#111011" points="263.06,132.849 259.844,127.278 263.06,121.708 269.492,121.708 272.708,127.278 269.492,132.849 	
		"/>
	<polygon fill="#111011" points="263.06,147.666 259.844,142.097 263.06,136.526 269.492,136.526 272.708,142.097 269.492,147.666 	
		"/>
	<polygon fill="#111011" points="263.06,162.484 259.844,156.915 263.06,151.344 269.492,151.344 272.708,156.915 269.492,162.484 	
		"/>
	<polygon fill="#111011" points="286.682,132.849 283.466,127.278 286.682,121.708 293.114,121.708 296.33,127.278 293.114,132.849 
			"/>
	<polygon fill="#111011" points="286.682,147.666 283.466,142.097 286.682,136.526 293.114,136.526 296.33,142.097 293.114,147.666 
			"/>
	<polygon fill="#111011" points="286.682,162.484 283.466,156.915 286.682,151.344 293.114,151.344 296.33,156.915 293.114,162.484 
			"/>
	<polygon fill="#111011" points="310.305,132.849 307.088,127.278 310.305,121.708 316.736,121.708 319.952,127.278 
		316.736,132.849 	"/>
	<polygon fill="#111011" points="310.305,147.666 307.088,142.097 310.305,136.526 316.736,136.526 319.952,142.097 
		316.736,147.666 	"/>
	<polygon fill="#111011" points="310.305,162.484 307.088,156.915 310.305,151.344 316.736,151.344 319.952,156.915 
		316.736,162.484 	"/>
	<polygon fill="#111011" points="333.927,132.849 330.71,127.278 333.927,121.708 340.358,121.708 343.574,127.278 340.358,132.849 
			"/>
	<polygon fill="#111011" points="333.927,147.666 330.71,142.097 333.927,136.526 340.358,136.526 343.574,142.097 340.358,147.666 
			"/>
	<polygon fill="#111011" points="333.927,162.484 330.71,156.915 333.927,151.344 340.358,151.344 343.574,156.915 340.358,162.484 
			"/>
	<polygon fill="#111011" points="15.027,129.424 11.812,134.995 15.027,140.564 21.459,140.564 24.676,134.995 21.459,129.424 	"/>
	<polygon fill="#111011" points="15.027,144.243 11.812,149.813 15.027,155.383 21.459,155.383 24.676,149.813 21.459,144.243 	"/>
	<polygon fill="#111011" points="15.027,159.061 11.812,164.631 15.027,170.201 21.459,170.201 24.676,164.631 21.459,159.061 	"/>
	<polygon fill="#111011" points="38.649,129.424 35.434,134.995 38.649,140.564 45.082,140.564 48.298,134.995 45.082,129.424 	"/>
	<polygon fill="#111011" points="38.649,144.243 35.434,149.813 38.649,155.383 45.082,155.383 48.298,149.813 45.082,144.243 	"/>
	<polygon fill="#111011" points="38.649,159.061 35.434,164.631 38.649,170.201 45.082,170.201 48.298,164.631 45.082,159.061 	"/>
	<polygon fill="#111011" points="62.271,129.424 59.056,134.995 62.271,140.564 68.704,140.564 71.92,134.995 68.704,129.424 	"/>
	<polygon fill="#111011" points="62.271,144.243 59.056,149.813 62.271,155.383 68.704,155.383 71.92,149.813 68.704,144.243 	"/>
	<polygon fill="#111011" points="62.271,159.061 59.056,164.631 62.271,170.201 68.704,170.201 71.92,164.631 68.704,159.061 	"/>
	<polygon fill="#111011" points="85.894,129.424 82.678,134.995 85.894,140.564 92.326,140.564 95.542,134.995 92.326,129.424 	"/>
	<polygon fill="#111011" points="85.894,144.243 82.678,149.813 85.894,155.383 92.326,155.383 95.542,149.813 92.326,144.243 	"/>
	<polygon fill="#111011" points="85.894,159.061 82.678,164.631 85.894,170.201 92.326,170.201 95.542,164.631 92.326,159.061 	"/>
	<polygon fill="#111011" points="109.516,129.424 106.3,134.995 109.516,140.564 115.948,140.564 119.164,134.995 115.948,129.424 	
		"/>
	<polygon fill="#111011" points="109.516,144.243 106.3,149.813 109.516,155.383 115.948,155.383 119.164,149.813 115.948,144.243 	
		"/>
	<polygon fill="#111011" points="109.516,159.061 106.3,164.631 109.516,170.201 115.948,170.201 119.164,164.631 115.948,159.061 	
		"/>
	<polygon fill="#111011" points="133.138,129.424 129.922,134.995 133.138,140.564 139.57,140.564 142.786,134.995 139.57,129.424 	
		"/>
	<polygon fill="#111011" points="133.138,144.243 129.922,149.813 133.138,155.383 139.57,155.383 142.786,149.813 139.57,144.243 	
		"/>
	<polygon fill="#111011" points="133.138,159.061 129.922,164.631 133.138,170.201 139.57,170.201 142.786,164.631 139.57,159.061 	
		"/>
	<polygon fill="#111011" points="156.761,129.424 153.544,134.995 156.761,140.564 163.192,140.564 166.408,134.995 
		163.192,129.424 	"/>
	<polygon fill="#111011" points="156.761,144.243 153.544,149.813 156.761,155.383 163.192,155.383 166.408,149.813 
		163.192,144.243 	"/>
	<polygon fill="#111011" points="156.761,159.061 153.544,164.631 156.761,170.201 163.192,170.201 166.408,164.631 
		163.192,159.061 	"/>
	<polygon fill="#111011" points="180.383,129.424 177.166,134.995 180.383,140.564 186.814,140.564 190.03,134.995 186.814,129.424 
			"/>
	<polygon fill="#111011" points="180.383,144.243 177.166,149.813 180.383,155.383 186.814,155.383 190.03,149.813 186.814,144.243 
			"/>
	<polygon fill="#111011" points="180.383,159.061 177.166,164.631 180.383,170.201 186.814,170.201 190.03,164.631 186.814,159.061 
			"/>
	<polygon fill="#111011" points="204.005,129.424 200.788,134.995 204.005,140.564 210.437,140.564 213.652,134.995 
		210.437,129.424 	"/>
	<polygon fill="#111011" points="204.005,144.243 200.788,149.813 204.005,155.383 210.437,155.383 213.652,149.813 
		210.437,144.243 	"/>
	<polygon fill="#111011" points="204.005,159.061 200.788,164.631 204.005,170.201 210.437,170.201 213.652,164.631 
		210.437,159.061 	"/>
	<polygon fill="#111011" points="227.627,129.424 224.411,134.995 227.627,140.564 234.059,140.564 237.274,134.995 
		234.059,129.424 	"/>
	<polygon fill="#111011" points="227.627,144.243 224.411,149.813 227.627,155.383 234.059,155.383 237.274,149.813 
		234.059,144.243 	"/>
	<polygon fill="#111011" points="227.627,159.061 224.411,164.631 227.627,170.201 234.059,170.201 237.274,164.631 
		234.059,159.061 	"/>
	<polygon fill="#111011" points="251.249,129.424 248.033,134.995 251.249,140.564 257.681,140.564 260.896,134.995 
		257.681,129.424 	"/>
	<polygon fill="#111011" points="251.249,144.243 248.033,149.813 251.249,155.383 257.681,155.383 260.896,149.813 
		257.681,144.243 	"/>
	<polygon fill="#111011" points="251.249,159.061 248.033,164.631 251.249,170.201 257.681,170.201 260.896,164.631 
		257.681,159.061 	"/>
	<polygon fill="#111011" points="274.871,129.424 271.655,134.995 274.871,140.564 281.303,140.564 284.52,134.995 281.303,129.424 
			"/>
	<polygon fill="#111011" points="274.871,144.243 271.655,149.813 274.871,155.383 281.303,155.383 284.52,149.813 281.303,144.243 
			"/>
	<polygon fill="#111011" points="274.871,159.061 271.655,164.631 274.871,170.201 281.303,170.201 284.52,164.631 281.303,159.061 
			"/>
	<polygon fill="#111011" points="298.493,129.424 295.277,134.995 298.493,140.564 304.925,140.564 308.141,134.995 
		304.925,129.424 	"/>
	<polygon fill="#111011" points="298.493,144.243 295.277,149.813 298.493,155.383 304.925,155.383 308.141,149.813 
		304.925,144.243 	"/>
	<polygon fill="#111011" points="298.493,159.061 295.277,164.631 298.493,170.201 304.925,170.201 308.141,164.631 
		304.925,159.061 	"/>
	<polygon fill="#111011" points="322.115,129.424 318.899,134.995 322.115,140.564 328.547,140.564 331.764,134.995 
		328.547,129.424 	"/>
	<polygon fill="#111011" points="322.115,144.243 318.899,149.813 322.115,155.383 328.547,155.383 331.764,149.813 
		328.547,144.243 	"/>
	<polygon fill="#111011" points="322.115,159.061 318.899,164.631 322.115,170.201 328.547,170.201 331.764,164.631 
		328.547,159.061 	"/>
	<polygon fill="#111011" points="345.737,129.424 342.521,134.995 345.737,140.564 352.169,140.564 355.386,134.995 
		352.169,129.424 	"/>
	<polygon fill="#111011" points="345.737,144.243 342.521,149.813 345.737,155.383 352.169,155.383 355.386,149.813 
		352.169,144.243 	"/>
	<polygon fill="#111011" points="345.737,159.061 342.521,164.631 345.737,170.201 352.169,170.201 355.386,164.631 
		352.169,159.061 	"/>
	<polygon fill="#111011" points="381.391,132.849 378.174,127.278 381.391,121.708 387.822,121.708 391.038,127.278 
		387.822,132.849 	"/>
	<polygon fill="#111011" points="381.391,147.666 378.174,142.097 381.391,136.526 387.822,136.526 391.038,142.097 
		387.822,147.666 	"/>
	<polygon fill="#111011" points="381.391,162.484 378.174,156.915 381.391,151.344 387.822,151.344 391.038,156.915 
		387.822,162.484 	"/>
	<polygon fill="#111011" points="405.013,132.849 401.796,127.278 405.013,121.708 411.444,121.708 414.66,127.278 411.444,132.849 
			"/>
	<polygon fill="#111011" points="405.013,147.666 401.796,142.097 405.013,136.526 411.444,136.526 414.66,142.097 411.444,147.666 
			"/>
	<polygon fill="#111011" points="405.013,162.484 401.796,156.915 405.013,151.344 411.444,151.344 414.66,156.915 411.444,162.484 
			"/>
	<polygon fill="#111011" points="428.635,132.849 425.419,127.278 428.635,121.708 435.066,121.708 438.282,127.278 
		435.066,132.849 	"/>
	<polygon fill="#111011" points="428.635,147.666 425.419,142.097 428.635,136.526 435.066,136.526 438.282,142.097 
		435.066,147.666 	"/>
	<polygon fill="#111011" points="428.635,162.484 425.419,156.915 428.635,151.344 435.066,151.344 438.282,156.915 
		435.066,162.484 	"/>
	<polygon fill="#111011" points="452.257,132.849 449.041,127.278 452.257,121.708 458.688,121.708 461.904,127.278 
		458.688,132.849 	"/>
	<polygon fill="#111011" points="452.257,147.666 449.041,142.097 452.257,136.526 458.688,136.526 461.904,142.097 
		458.688,147.666 	"/>
	<polygon fill="#111011" points="452.257,162.484 449.041,156.915 452.257,151.344 458.688,151.344 461.904,156.915 
		458.688,162.484 	"/>
	<polygon fill="#111011" points="475.879,132.849 472.663,127.278 475.879,121.708 482.311,121.708 485.526,127.278 
		482.311,132.849 	"/>
	<polygon fill="#111011" points="475.879,147.666 472.663,142.097 475.879,136.526 482.311,136.526 485.526,142.097 
		482.311,147.666 	"/>
	<polygon fill="#111011" points="475.879,162.484 472.663,156.915 475.879,151.344 482.311,151.344 485.526,156.915 
		482.311,162.484 	"/>
	<polygon fill="#111011" points="499.501,132.849 496.285,127.278 499.501,121.708 505.933,121.708 509.149,127.278 
		505.933,132.849 	"/>
	<polygon fill="#111011" points="499.501,147.666 496.285,142.097 499.501,136.526 505.933,136.526 509.149,142.097 
		505.933,147.666 	"/>
	<polygon fill="#111011" points="499.501,162.484 496.285,156.915 499.501,151.344 505.933,151.344 509.149,156.915 
		505.933,162.484 	"/>
	<polygon fill="#111011" points="523.123,132.849 519.907,127.278 523.123,121.708 529.555,121.708 532.771,127.278 
		529.555,132.849 	"/>
	<polygon fill="#111011" points="523.123,147.666 519.907,142.097 523.123,136.526 529.555,136.526 532.771,142.097 
		529.555,147.666 	"/>
	<polygon fill="#111011" points="523.123,162.484 519.907,156.915 523.123,151.344 529.555,151.344 532.771,156.915 
		529.555,162.484 	"/>
	<polygon fill="#111011" points="546.745,132.849 543.529,127.278 546.745,121.708 553.177,121.708 556.394,127.278 
		553.177,132.849 	"/>
	<polygon fill="#111011" points="546.745,147.666 543.529,142.097 546.745,136.526 553.177,136.526 556.394,142.097 
		553.177,147.666 	"/>
	<polygon fill="#111011" points="546.745,162.484 543.529,156.915 546.745,151.344 553.177,151.344 556.394,156.915 
		553.177,162.484 	"/>
	<polygon fill="#111011" points="570.367,132.849 567.151,127.278 570.367,121.708 576.8,121.708 580.016,127.278 576.8,132.849 	
		"/>
	<polygon fill="#111011" points="570.367,147.666 567.151,142.097 570.367,136.526 576.8,136.526 580.016,142.097 576.8,147.666 	
		"/>
	<polygon fill="#111011" points="570.367,162.484 567.151,156.915 570.367,151.344 576.8,151.344 580.016,156.915 576.8,162.484 	
		"/>
	<polygon fill="#111011" points="593.989,132.849 590.773,127.278 593.989,121.708 600.422,121.708 603.638,127.278 
		600.422,132.849 	"/>
	<polygon fill="#111011" points="593.989,147.666 590.773,142.097 593.989,136.526 600.422,136.526 603.638,142.097 
		600.422,147.666 	"/>
	<polygon fill="#111011" points="593.989,162.484 590.773,156.915 593.989,151.344 600.422,151.344 603.638,156.915 
		600.422,162.484 	"/>
	<polygon fill="#111011" points="369.579,129.424 366.363,134.995 369.579,140.564 376.011,140.564 379.228,134.995 
		376.011,129.424 	"/>
	<polygon fill="#111011" points="369.579,144.243 366.363,149.813 369.579,155.383 376.011,155.383 379.228,149.813 
		376.011,144.243 	"/>
	<polygon fill="#111011" points="369.579,159.061 366.363,164.631 369.579,170.201 376.011,170.201 379.228,164.631 
		376.011,159.061 	"/>
	<polygon fill="#111011" points="393.201,129.424 389.985,134.995 393.201,140.564 399.634,140.564 402.85,134.995 399.634,129.424 
			"/>
	<polygon fill="#111011" points="393.201,144.243 389.985,149.813 393.201,155.383 399.634,155.383 402.85,149.813 399.634,144.243 
			"/>
	<polygon fill="#111011" points="393.201,159.061 389.985,164.631 393.201,170.201 399.634,170.201 402.85,164.631 399.634,159.061 
			"/>
	<polygon fill="#111011" points="416.823,129.424 413.607,134.995 416.823,140.564 423.256,140.564 426.472,134.995 
		423.256,129.424 	"/>
	<polygon fill="#111011" points="416.823,144.243 413.607,149.813 416.823,155.383 423.256,155.383 426.472,149.813 
		423.256,144.243 	"/>
	<polygon fill="#111011" points="416.823,159.061 413.607,164.631 416.823,170.201 423.256,170.201 426.472,164.631 
		423.256,159.061 	"/>
	<polygon fill="#111011" points="440.445,129.424 437.229,134.995 440.445,140.564 446.878,140.564 450.094,134.995 
		446.878,129.424 	"/>
	<polygon fill="#111011" points="440.445,144.243 437.229,149.813 440.445,155.383 446.878,155.383 450.094,149.813 
		446.878,144.243 	"/>
	<polygon fill="#111011" points="440.445,159.061 437.229,164.631 440.445,170.201 446.878,170.201 450.094,164.631 
		446.878,159.061 	"/>
	<polygon fill="#111011" points="464.067,129.424 460.852,134.995 464.067,140.564 470.5,140.564 473.716,134.995 470.5,129.424 	
		"/>
	<polygon fill="#111011" points="464.067,144.243 460.852,149.813 464.067,155.383 470.5,155.383 473.716,149.813 470.5,144.243 	
		"/>
	<polygon fill="#111011" points="464.067,159.061 460.852,164.631 464.067,170.201 470.5,170.201 473.716,164.631 470.5,159.061 	
		"/>
	<polygon fill="#111011" points="487.689,129.424 484.474,134.995 487.689,140.564 494.122,140.564 497.338,134.995 
		494.122,129.424 	"/>
	<polygon fill="#111011" points="487.689,144.243 484.474,149.813 487.689,155.383 494.122,155.383 497.338,149.813 
		494.122,144.243 	"/>
	<polygon fill="#111011" points="487.689,159.061 484.474,164.631 487.689,170.201 494.122,170.201 497.338,164.631 
		494.122,159.061 	"/>
	<polygon fill="#111011" points="511.313,129.424 508.096,134.995 511.313,140.564 517.744,140.564 520.96,134.995 517.744,129.424 
			"/>
	<polygon fill="#111011" points="511.313,144.243 508.096,149.813 511.313,155.383 517.744,155.383 520.96,149.813 517.744,144.243 
			"/>
	<polygon fill="#111011" points="511.313,159.061 508.096,164.631 511.313,170.201 517.744,170.201 520.96,164.631 517.744,159.061 
			"/>
	<polygon fill="#111011" points="534.935,129.424 531.718,134.995 534.935,140.564 541.366,140.564 544.582,134.995 
		541.366,129.424 	"/>
	<polygon fill="#111011" points="534.935,144.243 531.718,149.813 534.935,155.383 541.366,155.383 544.582,149.813 
		541.366,144.243 	"/>
	<polygon fill="#111011" points="534.935,159.061 531.718,164.631 534.935,170.201 541.366,170.201 544.582,164.631 
		541.366,159.061 	"/>
	<polygon fill="#111011" points="558.557,129.424 555.34,134.995 558.557,140.564 564.988,140.564 568.204,134.995 564.988,129.424 
			"/>
	<polygon fill="#111011" points="558.557,144.243 555.34,149.813 558.557,155.383 564.988,155.383 568.204,149.813 564.988,144.243 
			"/>
	<polygon fill="#111011" points="558.557,159.061 555.34,164.631 558.557,170.201 564.988,170.201 568.204,164.631 564.988,159.061 
			"/>
	<polygon fill="#111011" points="582.179,129.424 578.963,134.995 582.179,140.564 588.61,140.564 591.826,134.995 588.61,129.424 	
		"/>
	<polygon fill="#111011" points="582.179,144.243 578.963,149.813 582.179,155.383 588.61,155.383 591.826,149.813 588.61,144.243 	
		"/>
	<polygon fill="#111011" points="582.179,159.061 578.963,164.631 582.179,170.201 588.61,170.201 591.826,164.631 588.61,159.061 	
		"/>
	<polygon fill="#111011" points="357.549,176.833 354.332,171.263 357.549,165.693 363.98,165.693 367.196,171.263 363.98,176.833 	
		"/>
	<polygon fill="#111011" points="357.549,191.651 354.332,186.082 357.549,180.51 363.98,180.51 367.196,186.082 363.98,191.651 	
		"/>
	<polygon fill="#111011" points="3.217,176.833 0,171.263 3.217,165.693 9.648,165.693 12.864,171.263 9.648,176.833 	"/>
	<polygon fill="#111011" points="3.217,191.651 0,186.082 3.217,180.51 9.648,180.51 12.864,186.082 9.648,191.651 	"/>
	<polygon fill="#111011" points="26.839,176.833 23.622,171.263 26.839,165.693 33.271,165.693 36.486,171.263 33.271,176.833 	"/>
	<polygon fill="#111011" points="26.839,191.651 23.622,186.082 26.839,180.51 33.271,180.51 36.486,186.082 33.271,191.651 	"/>
	<polygon fill="#111011" points="50.461,176.833 47.244,171.263 50.461,165.693 56.893,165.693 60.108,171.263 56.893,176.833 	"/>
	<polygon fill="#111011" points="50.461,191.651 47.244,186.082 50.461,180.51 56.893,180.51 60.108,186.082 56.893,191.651 	"/>
	<polygon fill="#111011" points="74.083,176.833 70.867,171.263 74.083,165.693 80.515,165.693 83.73,171.263 80.515,176.833 	"/>
	<polygon fill="#111011" points="74.083,191.651 70.867,186.082 74.083,180.51 80.515,180.51 83.73,186.082 80.515,191.651 	"/>
	<polygon fill="#111011" points="97.705,176.833 94.489,171.263 97.705,165.693 104.137,165.693 107.353,171.263 104.137,176.833 	
		"/>
	<polygon fill="#111011" points="97.705,191.651 94.489,186.082 97.705,180.51 104.137,180.51 107.353,186.082 104.137,191.651 	"/>
	<polygon fill="#111011" points="121.327,176.833 118.111,171.263 121.327,165.693 127.759,165.693 130.975,171.263 
		127.759,176.833 	"/>
	<polygon fill="#111011" points="121.327,191.651 118.111,186.082 121.327,180.51 127.759,180.51 130.975,186.082 127.759,191.651 	
		"/>
	<polygon fill="#111011" points="144.949,176.833 141.733,171.263 144.949,165.693 151.381,165.693 154.598,171.263 
		151.381,176.833 	"/>
	<polygon fill="#111011" points="144.949,191.651 141.733,186.082 144.949,180.51 151.381,180.51 154.598,186.082 151.381,191.651 	
		"/>
	<polygon fill="#111011" points="168.571,176.833 165.355,171.263 168.571,165.693 175.003,165.693 178.22,171.263 175.003,176.833 
			"/>
	<polygon fill="#111011" points="168.571,191.651 165.355,186.082 168.571,180.51 175.003,180.51 178.22,186.082 175.003,191.651 	
		"/>
	<polygon fill="#111011" points="192.193,176.833 188.978,171.263 192.193,165.693 198.625,165.693 201.842,171.263 
		198.625,176.833 	"/>
	<polygon fill="#111011" points="192.193,191.651 188.978,186.082 192.193,180.51 198.625,180.51 201.842,186.082 198.625,191.651 	
		"/>
	<polygon fill="#111011" points="215.815,176.833 212.6,171.263 215.815,165.693 222.248,165.693 225.464,171.263 222.248,176.833 	
		"/>
	<polygon fill="#111011" points="215.815,191.651 212.6,186.082 215.815,180.51 222.248,180.51 225.464,186.082 222.248,191.651 	
		"/>
	<polygon fill="#111011" points="239.438,176.833 236.222,171.263 239.438,165.693 245.87,165.693 249.086,171.263 245.87,176.833 	
		"/>
	<polygon fill="#111011" points="239.438,191.651 236.222,186.082 239.438,180.51 245.87,180.51 249.086,186.082 245.87,191.651 	
		"/>
	<polygon fill="#111011" points="263.06,176.833 259.844,171.263 263.06,165.693 269.492,165.693 272.708,171.263 269.492,176.833 	
		"/>
	<polygon fill="#111011" points="263.06,191.651 259.844,186.082 263.06,180.51 269.492,180.51 272.708,186.082 269.492,191.651 	
		"/>
	<polygon fill="#111011" points="286.682,176.833 283.466,171.263 286.682,165.693 293.114,165.693 296.33,171.263 293.114,176.833 
			"/>
	<polygon fill="#111011" points="286.682,191.651 283.466,186.082 286.682,180.51 293.114,180.51 296.33,186.082 293.114,191.651 	
		"/>
	<polygon fill="#111011" points="310.305,176.833 307.088,171.263 310.305,165.693 316.736,165.693 319.952,171.263 
		316.736,176.833 	"/>
	<polygon fill="#111011" points="310.305,191.651 307.088,186.082 310.305,180.51 316.736,180.51 319.952,186.082 316.736,191.651 	
		"/>
	<polygon fill="#111011" points="333.927,176.833 330.71,171.263 333.927,165.693 340.358,165.693 343.574,171.263 340.358,176.833 
			"/>
	<polygon fill="#111011" points="333.927,191.651 330.71,186.082 333.927,180.51 340.358,180.51 343.574,186.082 340.358,191.651 	
		"/>
	<polygon fill="#111011" points="15.027,173.409 11.812,178.98 15.027,184.549 21.459,184.549 24.676,178.98 21.459,173.409 	"/>
	<polygon fill="#111011" points="38.649,173.409 35.434,178.98 38.649,184.549 45.082,184.549 48.298,178.98 45.082,173.409 	"/>
	<polygon fill="#111011" points="62.271,173.409 59.056,178.98 62.271,184.549 68.704,184.549 71.92,178.98 68.704,173.409 	"/>
	<polygon fill="#111011" points="85.894,173.409 82.678,178.98 85.894,184.549 92.326,184.549 95.542,178.98 92.326,173.409 	"/>
	<polygon fill="#111011" points="109.516,173.409 106.3,178.98 109.516,184.549 115.948,184.549 119.164,178.98 115.948,173.409 	
		"/>
	<polygon fill="#111011" points="133.138,173.409 129.922,178.98 133.138,184.549 139.57,184.549 142.786,178.98 139.57,173.409 	
		"/>
	<polygon fill="#111011" points="156.761,173.409 153.544,178.98 156.761,184.549 163.192,184.549 166.408,178.98 163.192,173.409 	
		"/>
	<polygon fill="#111011" points="180.383,173.409 177.166,178.98 180.383,184.549 186.814,184.549 190.03,178.98 186.814,173.409 	
		"/>
	<polygon fill="#111011" points="204.005,173.409 200.788,178.98 204.005,184.549 210.437,184.549 213.652,178.98 210.437,173.409 	
		"/>
	<polygon fill="#111011" points="227.627,173.409 224.411,178.98 227.627,184.549 234.059,184.549 237.274,178.98 234.059,173.409 	
		"/>
	<polygon fill="#111011" points="251.249,173.409 248.033,178.98 251.249,184.549 257.681,184.549 260.896,178.98 257.681,173.409 	
		"/>
	<polygon fill="#111011" points="274.871,173.409 271.655,178.98 274.871,184.549 281.303,184.549 284.52,178.98 281.303,173.409 	
		"/>
	<polygon fill="#111011" points="298.493,173.409 295.277,178.98 298.493,184.549 304.925,184.549 308.141,178.98 304.925,173.409 	
		"/>
	<polygon fill="#111011" points="322.115,173.409 318.899,178.98 322.115,184.549 328.547,184.549 331.764,178.98 328.547,173.409 	
		"/>
	<polygon fill="#111011" points="345.737,173.409 342.521,178.98 345.737,184.549 352.169,184.549 355.386,178.98 352.169,173.409 	
		"/>
	<polygon fill="#111011" points="381.391,176.833 378.174,171.263 381.391,165.693 387.822,165.693 391.038,171.263 
		387.822,176.833 	"/>
	<polygon fill="#111011" points="381.391,191.651 378.174,186.082 381.391,180.51 387.822,180.51 391.038,186.082 387.822,191.651 	
		"/>
	<polygon fill="#111011" points="405.013,176.833 401.796,171.263 405.013,165.693 411.444,165.693 414.66,171.263 411.444,176.833 
			"/>
	<polygon fill="#111011" points="405.013,191.651 401.796,186.082 405.013,180.51 411.444,180.51 414.66,186.082 411.444,191.651 	
		"/>
	<polygon fill="#111011" points="428.635,176.833 425.419,171.263 428.635,165.693 435.066,165.693 438.282,171.263 
		435.066,176.833 	"/>
	<polygon fill="#111011" points="428.635,191.651 425.419,186.082 428.635,180.51 435.066,180.51 438.282,186.082 435.066,191.651 	
		"/>
	<polygon fill="#111011" points="452.257,176.833 449.041,171.263 452.257,165.693 458.688,165.693 461.904,171.263 
		458.688,176.833 	"/>
	<polygon fill="#111011" points="452.257,191.651 449.041,186.082 452.257,180.51 458.688,180.51 461.904,186.082 458.688,191.651 	
		"/>
	<polygon fill="#111011" points="475.879,176.833 472.663,171.263 475.879,165.693 482.311,165.693 485.526,171.263 
		482.311,176.833 	"/>
	<polygon fill="#111011" points="475.879,191.651 472.663,186.082 475.879,180.51 482.311,180.51 485.526,186.082 482.311,191.651 	
		"/>
	<polygon fill="#111011" points="499.501,176.833 496.285,171.263 499.501,165.693 505.933,165.693 509.149,171.263 
		505.933,176.833 	"/>
	<polygon fill="#111011" points="499.501,191.651 496.285,186.082 499.501,180.51 505.933,180.51 509.149,186.082 505.933,191.651 	
		"/>
	<polygon fill="#111011" points="523.123,176.833 519.907,171.263 523.123,165.693 529.555,165.693 532.771,171.263 
		529.555,176.833 	"/>
	<polygon fill="#111011" points="523.123,191.651 519.907,186.082 523.123,180.51 529.555,180.51 532.771,186.082 529.555,191.651 	
		"/>
	<polygon fill="#111011" points="546.745,176.833 543.529,171.263 546.745,165.693 553.177,165.693 556.394,171.263 
		553.177,176.833 	"/>
	<polygon fill="#111011" points="546.745,191.651 543.529,186.082 546.745,180.51 553.177,180.51 556.394,186.082 553.177,191.651 	
		"/>
	<polygon fill="#111011" points="570.367,176.833 567.151,171.263 570.367,165.693 576.8,165.693 580.016,171.263 576.8,176.833 	
		"/>
	<polygon fill="#111011" points="570.367,191.651 567.151,186.082 570.367,180.51 576.8,180.51 580.016,186.082 576.8,191.651 	"/>
	<polygon fill="#111011" points="593.989,176.833 590.773,171.263 593.989,165.693 600.422,165.693 603.638,171.263 
		600.422,176.833 	"/>
	<polygon fill="#111011" points="593.989,191.651 590.773,186.082 593.989,180.51 600.422,180.51 603.638,186.082 600.422,191.651 	
		"/>
	<polygon fill="#111011" points="369.579,173.409 366.363,178.98 369.579,184.549 376.011,184.549 379.228,178.98 376.011,173.409 	
		"/>
	<polygon fill="#111011" points="393.201,173.409 389.985,178.98 393.201,184.549 399.634,184.549 402.85,178.98 399.634,173.409 	
		"/>
	<polygon fill="#111011" points="416.823,173.409 413.607,178.98 416.823,184.549 423.256,184.549 426.472,178.98 423.256,173.409 	
		"/>
	<polygon fill="#111011" points="440.445,173.409 437.229,178.98 440.445,184.549 446.878,184.549 450.094,178.98 446.878,173.409 	
		"/>
	<polygon fill="#111011" points="464.067,173.409 460.852,178.98 464.067,184.549 470.5,184.549 473.716,178.98 470.5,173.409 	"/>
	<polygon fill="#111011" points="487.689,173.409 484.474,178.98 487.689,184.549 494.122,184.549 497.338,178.98 494.122,173.409 	
		"/>
	<polygon fill="#111011" points="511.313,173.409 508.096,178.98 511.313,184.549 517.744,184.549 520.96,178.98 517.744,173.409 	
		"/>
	<polygon fill="#111011" points="534.935,173.409 531.718,178.98 534.935,184.549 541.366,184.549 544.582,178.98 541.366,173.409 	
		"/>
	<polygon fill="#111011" points="558.557,173.409 555.34,178.98 558.557,184.549 564.988,184.549 568.204,178.98 564.988,173.409 	
		"/>
	<polygon fill="#111011" points="582.179,173.409 578.963,178.98 582.179,184.549 588.61,184.549 591.826,178.98 588.61,173.409 	
		"/>
</g>
</svg>
