<?xml version="1.0" encoding="utf-8"?>
<!-- Generator: Adobe Illustrator 19.0.0, SVG Export Plug-In . SVG Version: 6.00 Build 0)  -->
<svg version="1.1" id="图层_1" xmlns="http://www.w3.org/2000/svg" xmlns:xlink="http://www.w3.org/1999/xlink" x="0px" y="0px"
	 width="1247.244px" height="124.72px" viewBox="-2 0 1247.244 124.72" enable-background="new -2 0 1247.244 124.72"
	 xml:space="preserve">
<rect id="XMLID_1444_" x="-2" y="-0.003" fill="#28272A" width="1247.244" height="124.726"/>
<path id="XMLID_1443_" fill="#253654" stroke="#231815" stroke-width="2.183" stroke-miterlimit="10" d="M1235.322,109.131
	c0,3.131-2.537,5.67-5.668,5.67H13.591c-3.131,0-5.669-2.539-5.669-5.67V15.588c0-3.131,2.538-5.669,5.669-5.669h1216.063
	c3.131,0,5.668,2.538,5.668,5.669L1235.322,109.131L1235.322,109.131z"/>
<rect id="XMLID_1442_" x="17.473" y="25.961" fill="#888888" stroke="#231815" stroke-width="2" stroke-miterlimit="10" width="542.115" height="73.962"/>
<polygon id="XMLID_1441_" fill="#FFFFFF" points="1183.351,23.143 1183.351,28.127 1176.253,28.127 1176.253,23.143 
	1172.146,23.143 1172.146,35.341 1176.253,35.341 1176.253,30.356 1183.351,30.356 1183.351,35.341 1187.454,35.341 
	1187.454,23.143 "/>
<path id="XMLID_3486_" fill="#FFFFFF" d="M1201.033,29.242c1.484-0.633,2.411-1.562,2.411-2.616c0-1.954-3.167-3.483-7.212-3.483
	h-6.513v1.796h6.513c1.287,0,2.373,0.788,2.373,1.717c0,0.925-1.072,1.706-2.346,1.718c-0.008,0-0.016,0-0.027,0h-5.317v1.737h5.317
	l0,0c1.287,0,2.373,0.816,2.373,1.746c0,0.931-1.086,1.688-2.373,1.688l0,0h-6.513v1.796h6.513c4.045,0,7.212-1.53,7.212-3.482
	C1203.444,30.803,1202.518,29.876,1201.033,29.242z"/>
<path id="XMLID_3484_" fill="#FFFFFF" d="M1215.085,25.124h5.896v-2.046h-8.606v0.001c-4.049,0.023-7.337,2.748-7.337,6.098
	s3.288,6.076,7.337,6.098v0.003h8.606v-2.046h-5.454v-0.001c-2.981,0-5.403-1.822-5.403-4.062
	C1210.124,27.042,1212.312,25.293,1215.085,25.124z"/>
<rect id="XMLID_1114_" x="564.958" y="25.961" fill="#888888" stroke="#231815" stroke-width="2" stroke-miterlimit="10" width="542.116" height="73.962"/>
<rect id="XMLID_789_" x="1183.838" y="65.087" fill="#888888" stroke="#231815" stroke-width="2" stroke-miterlimit="10" width="45.89" height="34.836"/>
<rect id="XMLID_763_" x="1133.911" y="65.087" fill="#888888" stroke="#231815" stroke-width="2" stroke-miterlimit="10" width="45.89" height="34.836"/>
<path id="XMLID_2493_" fill="#FFFFFF" d="M1081.018,23.143V21.99h-2.344v-0.961l2.484-3.637h0.922v3.633h0.711v0.965h-0.711v1.152
	h-1.062V23.143z M1081.018,21.025v-1.957l-1.316,1.957H1081.018z"/>
<path id="XMLID_2491_" fill="#FFFFFF" d="M1083.314,18.514v-1.02h3.754v0.797c-0.31,0.305-0.625,0.742-0.945,1.312
	s-0.564,1.176-0.732,1.818s-0.251,1.215-0.248,1.721h-1.059c0.019-0.791,0.182-1.599,0.49-2.422
	c0.309-0.823,0.721-1.559,1.236-2.207L1083.314,18.514L1083.314,18.514z"/>
<path id="XMLID_2487_" fill="#FFFFFF" d="M1124.174,79.474v-1.152h-2.344V77.36l2.484-3.637h0.922v3.633h0.711v0.965h-0.711v1.152
	L1124.174,79.474L1124.174,79.474z M1124.174,77.356v-1.957l-1.316,1.957H1124.174z"/>
<path id="XMLID_2484_" fill="#FFFFFF" d="M1126.494,78.149l1.062-0.117c0.026,0.216,0.094,0.376,0.203,0.48
	c0.109,0.104,0.254,0.156,0.434,0.156c0.227,0,0.419-0.104,0.578-0.312c0.159-0.209,0.261-0.641,0.305-1.297
	c-0.276,0.32-0.621,0.48-1.035,0.48c-0.45,0-0.839-0.174-1.166-0.521c-0.327-0.348-0.49-0.801-0.49-1.357
	c0-0.581,0.173-1.049,0.518-1.404c0.345-0.355,0.784-0.533,1.318-0.533c0.581,0,1.058,0.225,1.43,0.674
	c0.372,0.449,0.559,1.188,0.559,2.217c0,1.047-0.194,1.802-0.582,2.266c-0.388,0.463-0.894,0.695-1.516,0.695
	c-0.448,0-0.81-0.119-1.086-0.357C1126.749,78.979,1126.572,78.623,1126.494,78.149z M1128.979,75.751
	c0-0.354-0.081-0.629-0.244-0.824s-0.351-0.293-0.564-0.293c-0.203,0-0.372,0.08-0.506,0.24c-0.134,0.16-0.201,0.422-0.201,0.787
	c0,0.369,0.073,0.641,0.219,0.814c0.146,0.173,0.328,0.26,0.547,0.26c0.211,0,0.389-0.084,0.533-0.25
	C1128.906,76.318,1128.979,76.073,1128.979,75.751z"/>
<path id="XMLID_2480_" fill="#FFFFFF" d="M1155.01,109.732v-1.152h-2.344v-0.961l2.484-3.637h0.922v3.633h0.711v0.965h-0.711v1.152
	H1155.01z M1155.01,107.615v-1.957l-1.316,1.957H1155.01z"/>
<path id="XMLID_2477_" fill="#FFFFFF" d="M1157.33,108.408l1.062-0.117c0.026,0.216,0.094,0.376,0.203,0.48
	c0.109,0.104,0.254,0.156,0.434,0.156c0.227,0,0.419-0.104,0.578-0.312c0.159-0.209,0.261-0.641,0.305-1.297
	c-0.276,0.32-0.621,0.48-1.035,0.48c-0.45,0-0.839-0.174-1.166-0.521c-0.327-0.348-0.49-0.801-0.49-1.357
	c0-0.581,0.173-1.049,0.518-1.404c0.345-0.355,0.784-0.533,1.318-0.533c0.581,0,1.058,0.225,1.43,0.674
	c0.372,0.449,0.559,1.188,0.559,2.217c0,1.047-0.194,1.802-0.582,2.266c-0.388,0.463-0.894,0.695-1.516,0.695
	c-0.448,0-0.81-0.119-1.086-0.357C1157.585,109.238,1157.408,108.882,1157.33,108.408z M1159.814,106.01
	c0-0.355-0.081-0.629-0.244-0.824s-0.351-0.293-0.564-0.293c-0.203,0-0.372,0.08-0.506,0.24c-0.134,0.16-0.201,0.422-0.201,0.787
	c0,0.369,0.073,0.641,0.219,0.814c0.146,0.173,0.328,0.26,0.547,0.26c0.211,0,0.389-0.084,0.533-0.25
	C1159.742,106.577,1159.814,106.332,1159.814,106.01z"/>
<path id="XMLID_2474_" fill="#FFFFFF" d="M1122.037,93.566l1.094-0.113c0.031,0.248,0.124,0.443,0.277,0.588
	s0.331,0.217,0.531,0.217c0.229,0,0.423-0.094,0.582-0.279c0.159-0.186,0.238-0.467,0.238-0.842c0-0.352-0.079-0.615-0.236-0.791
	s-0.362-0.264-0.615-0.264c-0.315,0-0.598,0.139-0.848,0.418l-0.891-0.129l0.562-2.98h2.902v1.027h-2.07l-0.172,0.973
	c0.245-0.123,0.495-0.184,0.75-0.184c0.487,0,0.899,0.178,1.238,0.531c0.339,0.354,0.508,0.814,0.508,1.379
	c0,0.471-0.137,0.893-0.41,1.262c-0.372,0.506-0.89,0.758-1.551,0.758c-0.528,0-0.96-0.143-1.293-0.426
	S1122.103,94.045,1122.037,93.566z"/>
<path id="XMLID_2471_" fill="#FFFFFF" d="M1128.326,89.289c0.555,0,0.988,0.197,1.301,0.594c0.372,0.469,0.559,1.246,0.559,2.332
	c0,1.084-0.188,1.861-0.562,2.336c-0.31,0.391-0.742,0.586-1.297,0.586c-0.558,0-1.007-0.215-1.348-0.643
	c-0.341-0.428-0.512-1.191-0.512-2.291c0-1.078,0.188-1.854,0.562-2.328C1127.339,89.484,1127.771,89.289,1128.326,89.289z
	 M1128.326,90.199c-0.133,0-0.251,0.043-0.355,0.127s-0.185,0.236-0.242,0.455c-0.075,0.283-0.113,0.762-0.113,1.433
	c0,0.672,0.034,1.133,0.102,1.385c0.067,0.252,0.153,0.418,0.256,0.502s0.221,0.125,0.354,0.125s0.251-0.043,0.355-0.127
	s0.185-0.236,0.242-0.455c0.075-0.281,0.113-0.758,0.113-1.43s-0.034-1.133-0.102-1.385c-0.067-0.252-0.153-0.42-0.256-0.504
	S1128.459,90.199,1128.326,90.199z"/>
<path id="XMLID_2468_" fill="#FFFFFF" d="M1202.708,108.312l1.094-0.113c0.031,0.248,0.124,0.443,0.277,0.588
	s0.331,0.217,0.531,0.217c0.229,0,0.423-0.094,0.582-0.279c0.159-0.186,0.238-0.467,0.238-0.842c0-0.351-0.079-0.615-0.236-0.791
	s-0.362-0.264-0.615-0.264c-0.315,0-0.598,0.139-0.848,0.418l-0.891-0.129l0.562-2.98h2.902v1.027h-2.07l-0.172,0.973
	c0.245-0.123,0.495-0.184,0.75-0.184c0.487,0,0.899,0.178,1.238,0.531s0.508,0.814,0.508,1.379c0,0.471-0.137,0.893-0.41,1.262
	c-0.372,0.506-0.89,0.758-1.551,0.758c-0.528,0-0.96-0.143-1.293-0.426C1202.973,109.174,1202.773,108.791,1202.708,108.312z"/>
<path id="XMLID_2465_" fill="#FFFFFF" d="M1208.997,104.035c0.555,0,0.988,0.197,1.301,0.594c0.372,0.469,0.559,1.246,0.559,2.332
	c0,1.084-0.188,1.861-0.562,2.336c-0.31,0.391-0.742,0.586-1.297,0.586c-0.558,0-1.007-0.215-1.348-0.643
	c-0.341-0.428-0.512-1.191-0.512-2.291c0-1.078,0.188-1.854,0.562-2.328C1208.01,104.23,1208.442,104.035,1208.997,104.035z
	 M1208.997,104.945c-0.133,0-0.251,0.043-0.355,0.127s-0.185,0.236-0.242,0.455c-0.075,0.283-0.113,0.762-0.113,1.434
	s0.034,1.133,0.102,1.385c0.067,0.252,0.153,0.418,0.256,0.502s0.221,0.125,0.354,0.125s0.251-0.043,0.355-0.127
	s0.185-0.236,0.242-0.455c0.075-0.281,0.113-0.758,0.113-1.43s-0.034-1.133-0.102-1.385c-0.067-0.252-0.153-0.42-0.256-0.504
	C1209.248,104.988,1209.13,104.945,1208.997,104.945z"/>
<path id="XMLID_2461_" fill="#FFFFFF" d="M1081.018,109.143v-1.152h-2.344v-0.961l2.484-3.637h0.922v3.633h0.711v0.965h-0.711v1.152
	H1081.018z M1081.018,107.025v-1.957l-1.316,1.957H1081.018z"/>
<path id="XMLID_2457_" fill="#FFFFFF" d="M1084.256,106.053c-0.284-0.119-0.49-0.285-0.619-0.494s-0.193-0.439-0.193-0.689
	c0-0.428,0.149-0.779,0.447-1.059c0.298-0.279,0.722-0.418,1.271-0.418c0.544,0,0.967,0.139,1.268,0.418
	c0.301,0.279,0.451,0.631,0.451,1.059c0,0.266-0.069,0.502-0.207,0.709c-0.138,0.207-0.332,0.365-0.582,0.475
	c0.317,0.127,0.56,0.315,0.725,0.559c0.165,0.244,0.248,0.527,0.248,0.848c0,0.529-0.169,0.959-0.506,1.289
	s-0.786,0.496-1.346,0.496c-0.521,0-0.954-0.137-1.301-0.41c-0.409-0.322-0.613-0.766-0.613-1.328c0-0.311,0.077-0.594,0.23-0.854
	C1083.683,106.393,1083.925,106.193,1084.256,106.053z M1084.381,107.4c0,0.303,0.077,0.537,0.232,0.707s0.349,0.254,0.58,0.254
	c0.227,0,0.414-0.082,0.562-0.244c0.148-0.162,0.223-0.398,0.223-0.705c0-0.268-0.075-0.484-0.227-0.646
	c-0.151-0.162-0.343-0.244-0.574-0.244c-0.269,0-0.468,0.092-0.6,0.277C1084.446,106.984,1084.381,107.184,1084.381,107.4z
	 M1084.482,104.947c0,0.219,0.062,0.389,0.186,0.512s0.288,0.184,0.494,0.184c0.208,0,0.375-0.062,0.5-0.186
	c0.125-0.123,0.188-0.295,0.188-0.514c0-0.205-0.062-0.371-0.186-0.494s-0.287-0.186-0.49-0.186c-0.211,0-0.379,0.062-0.504,0.188
	S1084.482,104.742,1084.482,104.947z"/>
<linearGradient id="XMLID_2_" gradientUnits="userSpaceOnUse" x1="1110.473" y1="26.736" x2="1117.326" y2="26.736" gradientTransform="matrix(1 0 0 -1 0 124.72)">
	<stop  offset="0" style="stop-color:#4D4D4D"/>
	<stop  offset="1" style="stop-color:#333333"/>
</linearGradient>
<path id="XMLID_715_" fill="url(#XMLID_2_)" d="M1117.326,97.984c0,0.691-0.438,1.252-0.979,1.252h-4.895
	c-0.541,0-0.979-0.561-0.979-1.252l0,0c0-0.69,0.438-1.252,0.979-1.252h4.895C1116.888,96.732,1117.326,97.294,1117.326,97.984
	L1117.326,97.984z"/>
<linearGradient id="XMLID_3_" gradientUnits="userSpaceOnUse" x1="1122.646" y1="26.736" x2="1129.499" y2="26.736" gradientTransform="matrix(1 0 0 -1 0 124.72)">
	<stop  offset="0" style="stop-color:#4D4D4D"/>
	<stop  offset="1" style="stop-color:#333333"/>
</linearGradient>
<path id="XMLID_714_" fill="url(#XMLID_3_)" d="M1129.499,97.984c0,0.691-0.438,1.252-0.979,1.252h-4.895
	c-0.541,0-0.979-0.561-0.979-1.252l0,0c0-0.69,0.438-1.252,0.979-1.252h4.895C1129.061,96.732,1129.499,97.294,1129.499,97.984
	L1129.499,97.984z"/>
<linearGradient id="XMLID_4_" gradientUnits="userSpaceOnUse" x1="1122.646" y1="41.4485" x2="1129.499" y2="41.4485" gradientTransform="matrix(1 0 0 -1 0 124.72)">
	<stop  offset="0" style="stop-color:#4D4D4D"/>
	<stop  offset="1" style="stop-color:#333333"/>
</linearGradient>
<path id="XMLID_713_" fill="url(#XMLID_4_)" d="M1129.499,83.272c0,0.691-0.438,1.252-0.979,1.252h-4.895
	c-0.541,0-0.979-0.561-0.979-1.252l0,0c0-0.691,0.438-1.253,0.979-1.253h4.895C1129.061,82.02,1129.499,82.581,1129.499,83.272
	L1129.499,83.272z"/>
<path id="XMLID_2450_" fill="#FFFFFF" d="M1105.646,108.547v-3.912h1.268c0.48,0,0.794,0.019,0.939,0.059
	c0.225,0.059,0.412,0.187,0.562,0.383c0.151,0.195,0.228,0.451,0.228,0.762c0,0.24-0.044,0.441-0.132,0.605
	c-0.086,0.165-0.197,0.292-0.332,0.386c-0.135,0.093-0.271,0.155-0.409,0.185c-0.188,0.038-0.461,0.058-0.819,0.058h-0.515v1.476
	h-0.79V108.547z M1106.436,105.296v1.11h0.433c0.311,0,0.52-0.021,0.624-0.061c0.106-0.041,0.188-0.106,0.246-0.192
	c0.06-0.088,0.091-0.189,0.091-0.305c0-0.143-0.042-0.26-0.126-0.352c-0.085-0.094-0.189-0.151-0.317-0.174
	c-0.095-0.018-0.284-0.027-0.569-0.027L1106.436,105.296L1106.436,105.296z"/>
<path id="XMLID_2447_" fill="#FFFFFF" d="M1109.112,107.09c0-0.249,0.061-0.49,0.184-0.725c0.123-0.232,0.297-0.409,0.521-0.533
	c0.226-0.122,0.476-0.184,0.754-0.184c0.43,0,0.78,0.139,1.055,0.417c0.274,0.278,0.41,0.631,0.41,1.057
	c0,0.428-0.139,0.783-0.414,1.064c-0.276,0.283-0.625,0.424-1.045,0.424c-0.261,0-0.507-0.058-0.743-0.176
	c-0.235-0.118-0.415-0.29-0.538-0.516C1109.173,107.69,1109.112,107.415,1109.112,107.09z M1109.88,107.13
	c0,0.281,0.067,0.496,0.201,0.645c0.133,0.149,0.297,0.225,0.493,0.225s0.359-0.075,0.492-0.225
	c0.133-0.148,0.199-0.365,0.199-0.651c0-0.276-0.066-0.49-0.199-0.639c-0.133-0.15-0.296-0.225-0.492-0.225s-0.36,0.074-0.493,0.225
	C1109.947,106.633,1109.88,106.849,1109.88,107.13z"/>
<path id="XMLID_2445_" fill="#FFFFFF" d="M1113.152,108.547l-0.897-2.835h0.729l0.53,1.858l0.488-1.858h0.724l0.474,1.858
	l0.54-1.858h0.74l-0.91,2.835h-0.72l-0.49-1.823l-0.479,1.823H1113.152z"/>
<path id="XMLID_2442_" fill="#FFFFFF" d="M1118.515,107.645l0.748,0.125c-0.096,0.274-0.248,0.482-0.455,0.627
	c-0.207,0.142-0.466,0.214-0.778,0.214c-0.492,0-0.856-0.161-1.094-0.483c-0.187-0.258-0.28-0.583-0.28-0.977
	c0-0.47,0.123-0.837,0.367-1.103c0.248-0.266,0.558-0.399,0.933-0.399c0.423,0,0.754,0.139,0.998,0.417
	c0.243,0.278,0.36,0.706,0.35,1.28h-1.879c0.006,0.223,0.065,0.396,0.181,0.519c0.115,0.124,0.261,0.185,0.434,0.185
	c0.117,0,0.217-0.031,0.296-0.097C1118.415,107.89,1118.475,107.787,1118.515,107.645z M1118.559,106.887
	c-0.005-0.218-0.062-0.382-0.168-0.495c-0.107-0.113-0.236-0.169-0.39-0.169c-0.164,0-0.3,0.059-0.406,0.179
	c-0.106,0.118-0.159,0.28-0.157,0.485H1118.559z"/>
<path id="XMLID_2440_" fill="#FFFFFF" d="M1120.632,108.547h-0.75v-2.835h0.697v0.403c0.119-0.189,0.227-0.315,0.321-0.377
	c0.096-0.06,0.203-0.09,0.323-0.09c0.172,0,0.335,0.047,0.494,0.142l-0.232,0.653c-0.126-0.082-0.243-0.123-0.352-0.123
	c-0.104,0-0.193,0.029-0.268,0.088c-0.072,0.057-0.129,0.162-0.172,0.313c-0.041,0.151-0.062,0.467-0.062,0.95L1120.632,108.547
	L1120.632,108.547z"/>
<path id="XMLID_2437_" fill="#FFFFFF" d="M1126.538,108.486v-3.845h0.782v3.19h1.946v0.654L1126.538,108.486L1126.538,108.486z"/>
<path id="XMLID_2434_" fill="#FFFFFF" d="M1129.819,105.297v-0.687h0.743v0.687H1129.819z M1129.819,108.486v-2.809h0.743v2.809
	H1129.819z"/>
<path id="XMLID_2432_" fill="#FFFFFF" d="M1133.878,108.486h-0.743v-1.434c0-0.303-0.016-0.499-0.047-0.588
	s-0.083-0.157-0.155-0.208c-0.071-0.05-0.157-0.073-0.258-0.073c-0.13,0-0.244,0.035-0.347,0.104
	c-0.102,0.071-0.172,0.166-0.211,0.281c-0.035,0.116-0.056,0.331-0.056,0.646v1.271h-0.743v-2.809h0.69v0.412
	c0.245-0.317,0.554-0.475,0.925-0.475c0.164,0,0.314,0.03,0.449,0.089c0.137,0.06,0.24,0.135,0.309,0.226
	c0.069,0.093,0.119,0.196,0.145,0.312c0.027,0.117,0.042,0.283,0.042,0.501L1133.878,108.486L1133.878,108.486z"/>
<path id="XMLID_2430_" fill="#FFFFFF" d="M1134.605,108.486v-3.876h0.742v2.058l0.869-0.99h0.917l-0.961,1.025l1.028,1.783h-0.801
	l-0.705-1.262l-0.348,0.362v0.899L1134.605,108.486L1134.605,108.486z"/>
<path id="XMLID_2428_" fill="#FFFFFF" d="M1137.246,108.552l0.96-4.008h0.559l-0.971,4.008H1137.246z"/>
<path id="XMLID_2425_" fill="#FFFFFF" d="M1142.648,108.486h-0.851l-0.34-0.88h-1.549l-0.321,0.88h-0.829l1.511-3.876h0.827
	L1142.648,108.486z M1141.208,106.952l-0.534-1.438l-0.525,1.438H1141.208z"/>
<path id="XMLID_2423_" fill="#FFFFFF" d="M1145.506,106.509l-0.732,0.132c-0.024-0.146-0.08-0.257-0.167-0.33
	c-0.088-0.074-0.2-0.111-0.34-0.111c-0.187,0-0.332,0.064-0.442,0.191s-0.166,0.341-0.166,0.642c0,0.333,0.056,0.567,0.168,0.706
	c0.112,0.137,0.263,0.206,0.45,0.206c0.141,0,0.257-0.04,0.347-0.121c0.09-0.08,0.153-0.217,0.19-0.413l0.73,0.124
	c-0.077,0.336-0.222,0.588-0.437,0.759s-0.504,0.257-0.865,0.257c-0.41,0-0.738-0.13-0.981-0.389
	c-0.244-0.26-0.366-0.618-0.366-1.076c0-0.464,0.122-0.825,0.366-1.083c0.246-0.258,0.577-0.388,0.995-0.388
	c0.342,0,0.613,0.074,0.815,0.222C1145.272,105.983,1145.418,106.207,1145.506,106.509z"/>
<path id="XMLID_2421_" fill="#FFFFFF" d="M1147.357,105.678v0.593h-0.508v1.132c0,0.229,0.004,0.362,0.015,0.4
	c0.01,0.038,0.031,0.069,0.066,0.094c0.034,0.023,0.075,0.037,0.125,0.037c0.068,0,0.169-0.023,0.298-0.072l0.064,0.577
	c-0.174,0.075-0.368,0.111-0.588,0.111c-0.134,0-0.253-0.022-0.361-0.067c-0.107-0.046-0.187-0.103-0.237-0.175
	c-0.05-0.071-0.084-0.168-0.104-0.289c-0.016-0.087-0.022-0.262-0.022-0.523v-1.225h-0.341v-0.593h0.341v-0.558l0.745-0.434v0.991
	L1147.357,105.678L1147.357,105.678z"/>
<path id="XMLID_2418_" fill="#FFFFFF" d="M35.933,19.28h-2.676l-0.646,3.092h-1.426l1.449-6.92h1.421l-0.557,2.671h2.676
	l0.562-2.671h1.421l-1.444,6.92h-1.425L35.933,19.28z"/>
<path id="XMLID_2416_" fill="#FFFFFF" d="M38.236,20.565l1.298-0.156c0.053,0.368,0.15,0.623,0.29,0.765s0.327,0.212,0.56,0.212
	c0.308,0,0.564-0.104,0.767-0.312s0.304-0.474,0.304-0.798c0-0.283-0.082-0.507-0.246-0.673c-0.164-0.165-0.384-0.247-0.661-0.247
	c-0.069,0-0.142,0.006-0.217,0.019l0.236-1.128c0.047,0.006,0.093,0.01,0.137,0.01c0.362,0,0.637-0.092,0.826-0.276
	c0.188-0.184,0.283-0.434,0.283-0.748c0-0.224-0.064-0.399-0.191-0.529c-0.127-0.129-0.295-0.193-0.502-0.193
	c-0.195,0-0.37,0.072-0.524,0.215s-0.277,0.388-0.368,0.734l-1.237-0.246c0.157-0.51,0.376-0.901,0.656-1.175
	c0.425-0.409,0.947-0.613,1.567-0.613c0.636,0,1.119,0.177,1.449,0.531c0.33,0.354,0.496,0.778,0.496,1.272
	c0,0.359-0.105,0.683-0.316,0.973c-0.211,0.29-0.5,0.502-0.869,0.637c0.293,0.154,0.508,0.354,0.647,0.599
	c0.138,0.246,0.208,0.502,0.208,0.77c0,0.51-0.181,0.978-0.543,1.407c-0.494,0.585-1.131,0.878-1.912,0.878
	c-0.585,0-1.067-0.168-1.446-0.503C38.548,21.652,38.318,21.178,38.236,20.565z"/>
<path id="XMLID_2414_" fill="#FFFFFF" d="M48.53,19.88l1.435,0.217c-0.28,0.777-0.7,1.371-1.26,1.782
	c-0.56,0.411-1.216,0.616-1.968,0.616c-0.847,0-1.508-0.255-1.985-0.765s-0.715-1.249-0.715-2.218c0-0.787,0.16-1.506,0.479-2.16
	c0.319-0.653,0.762-1.152,1.329-1.499c0.566-0.346,1.183-0.519,1.85-0.519c0.749,0,1.354,0.201,1.817,0.601
	c0.462,0.401,0.734,0.948,0.816,1.641l-1.364,0.132c-0.075-0.403-0.221-0.694-0.437-0.875c-0.215-0.181-0.502-0.271-0.861-0.271
	c-0.394,0-0.761,0.12-1.102,0.359c-0.341,0.239-0.614,0.613-0.819,1.121s-0.307,1.016-0.307,1.522c0,0.554,0.133,0.982,0.399,1.284
	s0.597,0.453,0.994,0.453c0.368,0,0.706-0.12,1.013-0.359C48.15,20.703,48.379,20.349,48.53,19.88z"/>
<path id="XMLID_2412_" fill="#FFFFFF" d="M61.459,20.13l1.354-0.071c0.019,0.431,0.093,0.722,0.222,0.874
	c0.208,0.245,0.592,0.368,1.152,0.368c0.466,0,0.802-0.083,1.01-0.25s0.312-0.368,0.312-0.604c0-0.205-0.085-0.378-0.255-0.519
	c-0.12-0.104-0.448-0.272-0.984-0.505s-0.928-0.427-1.175-0.583s-0.441-0.358-0.583-0.606c-0.142-0.249-0.212-0.54-0.212-0.873
	c0-0.582,0.211-1.065,0.633-1.449c0.421-0.384,1.032-0.576,1.831-0.576c0.812,0,1.441,0.19,1.886,0.571
	c0.445,0.38,0.69,0.887,0.734,1.52l-1.364,0.061c-0.035-0.33-0.154-0.583-0.359-0.76c-0.205-0.176-0.507-0.265-0.906-0.265
	c-0.394,0-0.674,0.069-0.842,0.208c-0.169,0.138-0.253,0.313-0.253,0.524c0,0.198,0.077,0.362,0.231,0.491
	c0.154,0.132,0.496,0.313,1.024,0.543c0.796,0.343,1.303,0.621,1.52,0.835c0.324,0.314,0.486,0.719,0.486,1.213
	c0,0.61-0.242,1.132-0.725,1.564c-0.483,0.433-1.156,0.649-2.018,0.649c-0.595,0-1.11-0.1-1.546-0.3
	c-0.436-0.2-0.744-0.477-0.923-0.833C61.53,21.001,61.446,20.593,61.459,20.13z"/>
<path id="XMLID_2410_" fill="#FFFFFF" d="M68.44,18.398l0.255-1.208c1.167-0.51,2.07-1.103,2.709-1.779h0.826l-1.458,6.962h-1.364
	l1.005-4.795c-0.283,0.182-0.61,0.349-0.979,0.5C69.064,18.228,68.732,18.335,68.44,18.398z"/>
<path id="XMLID_2407_" fill="#FFFFFF" d="M73.292,20.121c0-0.695,0.118-1.4,0.354-2.115c0.29-0.872,0.661-1.52,1.114-1.944
	c0.453-0.425,0.957-0.637,1.511-0.637c0.56,0,1.02,0.203,1.38,0.609c0.36,0.406,0.541,0.996,0.541,1.77
	c0,0.708-0.131,1.456-0.394,2.244s-0.618,1.392-1.064,1.812c-0.447,0.42-0.95,0.63-1.51,0.63c-0.56,0-1.022-0.203-1.385-0.609
	C73.474,21.475,73.292,20.888,73.292,20.121z M74.623,20.395c0,0.371,0.06,0.632,0.179,0.783c0.12,0.151,0.274,0.227,0.463,0.227
	c0.251,0,0.475-0.116,0.67-0.349c0.261-0.312,0.493-0.925,0.694-1.841c0.161-0.727,0.241-1.303,0.241-1.728
	c0-0.346-0.061-0.596-0.182-0.748c-0.121-0.153-0.276-0.229-0.465-0.229c-0.239,0-0.452,0.115-0.637,0.345
	c-0.274,0.333-0.51,0.92-0.708,1.76C74.708,19.342,74.623,19.935,74.623,20.395z"/>
<path id="XMLID_2405_" fill="#FFFFFF" d="M78.659,20.39l1.317-0.118c-0.003,0.063-0.005,0.11-0.005,0.142
	c0,0.321,0.072,0.562,0.215,0.722c0.143,0.161,0.33,0.241,0.559,0.241c0.321,0,0.613-0.153,0.876-0.46s0.394-0.731,0.394-1.272
	c0-0.321-0.074-0.563-0.222-0.727s-0.344-0.246-0.59-0.246c-0.176,0-0.347,0.041-0.512,0.123c-0.165,0.082-0.325,0.206-0.479,0.373
	l-1.114-0.085l1.052-3.535h3.479l-0.255,1.237h-2.299l-0.316,1.066c0.132-0.06,0.265-0.104,0.396-0.134
	c0.132-0.03,0.263-0.045,0.392-0.045c0.528,0,0.963,0.178,1.303,0.533c0.34,0.356,0.51,0.833,0.51,1.43
	c0,0.479-0.119,0.95-0.356,1.414c-0.238,0.464-0.567,0.821-0.989,1.069c-0.422,0.248-0.864,0.373-1.327,0.373
	c-0.588,0-1.072-0.19-1.451-0.571C78.857,21.538,78.665,21.028,78.659,20.39z"/>
<path id="XMLID_2402_" fill="#FFFFFF" d="M84.044,20.121c0-0.695,0.118-1.4,0.354-2.115c0.289-0.872,0.661-1.52,1.114-1.944
	c0.453-0.425,0.956-0.637,1.511-0.637c0.56,0,1.02,0.203,1.38,0.609c0.36,0.406,0.541,0.996,0.541,1.77
	c0,0.708-0.131,1.456-0.394,2.244s-0.618,1.392-1.064,1.812c-0.447,0.42-0.95,0.63-1.51,0.63c-0.56,0-1.022-0.203-1.385-0.609
	C84.226,21.475,84.044,20.888,84.044,20.121z M85.375,20.395c0,0.371,0.06,0.632,0.179,0.783c0.12,0.151,0.274,0.227,0.463,0.227
	c0.251,0,0.475-0.116,0.67-0.349c0.261-0.312,0.493-0.925,0.694-1.841c0.161-0.727,0.241-1.303,0.241-1.728
	c0-0.346-0.061-0.596-0.182-0.748c-0.121-0.153-0.276-0.229-0.465-0.229c-0.239,0-0.452,0.115-0.637,0.345
	c-0.274,0.333-0.51,0.92-0.708,1.76C85.46,19.342,85.375,19.935,85.375,20.395z"/>
<path id="XMLID_2400_" fill="#FFFFFF" d="M92.205,22.372H90.78l1.208-5.763h-2.03l0.241-1.156h5.452l-0.241,1.156h-2.002
	L92.205,22.372z"/>
<polygon id="XMLID_683_" fill="#FFFFFF" points="16.598,18.891 19.433,21.726 22.268,18.891 "/>
<path id="XMLID_2396_" fill="#FFFFFF" d="M14.008,108.532v-3.926h0.519v3.463h1.934v0.463
	C16.461,108.532,14.008,108.532,14.008,108.532z"/>
<path id="XMLID_2393_" fill="#FFFFFF" d="M17.02,105.161v-0.555h0.482v0.555H17.02z M17.02,108.532v-2.844h0.482v2.844H17.02z"/>
<path id="XMLID_2391_" fill="#FFFFFF" d="M18.235,108.532v-2.844h0.434v0.404c0.208-0.312,0.51-0.469,0.905-0.469
	c0.171,0,0.329,0.031,0.473,0.093c0.144,0.062,0.252,0.143,0.323,0.242c0.071,0.1,0.122,0.219,0.15,0.356
	c0.018,0.089,0.027,0.245,0.027,0.469v1.748h-0.482v-1.73c0-0.196-0.019-0.344-0.056-0.44c-0.038-0.098-0.104-0.175-0.2-0.233
	s-0.208-0.087-0.336-0.087c-0.206,0-0.382,0.065-0.532,0.195c-0.149,0.131-0.224,0.378-0.224,0.742v1.553h-0.482V108.532z"/>
<path id="XMLID_2389_" fill="#FFFFFF" d="M21.288,108.532v-3.926h0.482v2.239l1.141-1.157h0.624l-1.087,1.055l1.197,1.789H23.05
	l-0.94-1.454l-0.34,0.327v1.127H21.288z"/>
<path id="XMLID_2387_" fill="#FFFFFF" d="M23.666,108.6l1.138-4.06h0.385l-1.135,4.06H23.666z"/>
<path id="XMLID_2384_" fill="#FFFFFF" d="M25.182,108.532l1.507-3.926h0.56l1.606,3.926h-0.592l-0.458-1.188h-1.642l-0.431,1.188
	H25.182z M26.314,106.92h1.331l-0.41-1.087c-0.125-0.33-0.218-0.602-0.279-0.813c-0.05,0.251-0.12,0.501-0.211,0.749L26.314,106.92z
	"/>
<path id="XMLID_2382_" fill="#FFFFFF" d="M31.064,107.49l0.474,0.062c-0.052,0.327-0.184,0.583-0.397,0.767
	c-0.213,0.185-0.475,0.277-0.786,0.277c-0.389,0-0.702-0.127-0.938-0.382c-0.236-0.254-0.355-0.619-0.355-1.094
	c0-0.307,0.051-0.576,0.152-0.806c0.102-0.23,0.257-0.403,0.465-0.519c0.208-0.115,0.434-0.173,0.679-0.173
	c0.309,0,0.562,0.078,0.758,0.234s0.322,0.378,0.377,0.666l-0.469,0.072c-0.044-0.191-0.124-0.335-0.237-0.432
	s-0.25-0.145-0.411-0.145c-0.243,0-0.44,0.087-0.592,0.261c-0.151,0.175-0.228,0.45-0.228,0.826c0,0.382,0.073,0.66,0.22,0.833
	c0.146,0.173,0.337,0.26,0.573,0.26c0.189,0,0.347-0.058,0.474-0.174C30.95,107.91,31.03,107.731,31.064,107.49z"/>
<path id="XMLID_2380_" fill="#FFFFFF" d="M33.002,108.102l0.07,0.426c-0.136,0.028-0.257,0.042-0.364,0.042
	c-0.175,0-0.311-0.027-0.407-0.083c-0.097-0.055-0.165-0.128-0.204-0.218c-0.04-0.09-0.059-0.28-0.059-0.569v-1.636h-0.353v-0.375
	h0.353v-0.704l0.479-0.289v0.993h0.484v0.375h-0.484v1.663c0,0.137,0.008,0.226,0.025,0.265c0.017,0.039,0.044,0.07,0.083,0.094
	c0.039,0.023,0.093,0.035,0.165,0.035C32.845,108.12,32.915,108.113,33.002,108.102z"/>
<path id="XMLID_2378_" fill="#FFFFFF" d="M38.92,108.069v0.463h-2.595c-0.003-0.116,0.015-0.228,0.056-0.335
	c0.066-0.177,0.172-0.351,0.317-0.522c0.146-0.172,0.355-0.37,0.63-0.595c0.427-0.35,0.715-0.627,0.865-0.831
	c0.15-0.205,0.225-0.398,0.225-0.58c0-0.191-0.068-0.353-0.205-0.483c-0.137-0.131-0.314-0.197-0.534-0.197
	c-0.232,0-0.418,0.07-0.557,0.209c-0.139,0.14-0.209,0.332-0.211,0.579l-0.496-0.052c0.034-0.369,0.162-0.65,0.383-0.845
	c0.221-0.193,0.518-0.29,0.892-0.29c0.376,0,0.675,0.104,0.894,0.313c0.22,0.209,0.33,0.468,0.33,0.776
	c0,0.157-0.032,0.312-0.097,0.463c-0.064,0.152-0.171,0.312-0.32,0.479c-0.149,0.168-0.396,0.398-0.743,0.69
	c-0.289,0.243-0.475,0.408-0.557,0.494c-0.082,0.087-0.15,0.174-0.204,0.262h1.927V108.069z"/>
<path id="XMLID_2376_" fill="#FFFFFF" d="M42.425,107.684l0.477-0.075c0.026,0.191,0.101,0.338,0.224,0.439
	c0.122,0.102,0.293,0.152,0.513,0.152c0.221,0,0.385-0.045,0.493-0.135c0.107-0.091,0.161-0.196,0.161-0.317
	c0-0.109-0.047-0.195-0.142-0.258c-0.066-0.042-0.23-0.097-0.493-0.163c-0.354-0.089-0.599-0.166-0.735-0.231
	c-0.137-0.065-0.24-0.155-0.31-0.271c-0.071-0.115-0.106-0.242-0.106-0.382c0-0.126,0.029-0.244,0.087-0.352
	c0.058-0.108,0.137-0.198,0.237-0.269c0.075-0.055,0.177-0.102,0.306-0.141c0.129-0.038,0.269-0.058,0.417-0.058
	c0.223,0,0.419,0.032,0.588,0.097c0.168,0.064,0.293,0.151,0.374,0.261c0.08,0.11,0.136,0.257,0.166,0.44l-0.471,0.064
	c-0.021-0.146-0.083-0.261-0.186-0.343s-0.248-0.123-0.436-0.123c-0.221,0-0.379,0.037-0.474,0.109
	c-0.095,0.073-0.142,0.159-0.142,0.258c0,0.062,0.02,0.118,0.059,0.168c0.039,0.052,0.101,0.095,0.185,0.129
	c0.048,0.018,0.19,0.059,0.426,0.123c0.341,0.091,0.579,0.166,0.714,0.224c0.135,0.058,0.24,0.142,0.317,0.253
	s0.115,0.248,0.115,0.413c0,0.16-0.047,0.311-0.141,0.453c-0.094,0.143-0.229,0.252-0.405,0.33c-0.177,0.077-0.377,0.116-0.6,0.116
	c-0.37,0-0.651-0.077-0.845-0.23C42.603,108.213,42.479,107.985,42.425,107.684z"/>
<path id="XMLID_2373_" fill="#FFFFFF" d="M45.36,109.622v-3.934h0.44v0.369c0.104-0.145,0.22-0.253,0.35-0.325
	c0.13-0.072,0.288-0.108,0.474-0.108c0.243,0,0.457,0.062,0.642,0.188c0.186,0.125,0.326,0.302,0.42,0.529
	c0.095,0.228,0.142,0.477,0.142,0.748c0,0.291-0.052,0.553-0.156,0.786c-0.104,0.232-0.256,0.411-0.456,0.535
	c-0.199,0.124-0.408,0.187-0.628,0.187c-0.161,0-0.305-0.034-0.432-0.102c-0.128-0.068-0.232-0.154-0.315-0.258v1.385L45.36,109.622
	L45.36,109.622z M45.797,107.126c0,0.366,0.074,0.637,0.222,0.812c0.148,0.175,0.328,0.263,0.539,0.263
	c0.214,0,0.397-0.091,0.55-0.271c0.152-0.182,0.229-0.462,0.229-0.843c0-0.362-0.074-0.634-0.223-0.813
	c-0.149-0.181-0.327-0.271-0.535-0.271c-0.205,0-0.387,0.096-0.544,0.288C45.876,106.481,45.797,106.761,45.797,107.126z"/>
<path id="XMLID_2370_" fill="#FFFFFF" d="M50.357,107.616l0.498,0.061c-0.079,0.291-0.224,0.518-0.437,0.678
	c-0.212,0.161-0.484,0.241-0.814,0.241c-0.416,0-0.746-0.128-0.989-0.385c-0.244-0.256-0.366-0.615-0.366-1.077
	c0-0.479,0.124-0.85,0.37-1.114c0.247-0.264,0.566-0.396,0.958-0.396c0.38,0,0.691,0.13,0.932,0.389s0.361,0.623,0.361,1.093
	c0,0.028-0.001,0.071-0.003,0.128h-2.121c0.018,0.312,0.106,0.552,0.265,0.718s0.357,0.249,0.595,0.249
	c0.177,0,0.327-0.047,0.452-0.14C50.185,107.968,50.284,107.82,50.357,107.616z M48.774,106.837h1.588
	c-0.021-0.239-0.082-0.418-0.182-0.538c-0.153-0.186-0.353-0.278-0.597-0.278c-0.221,0-0.407,0.074-0.558,0.223
	C48.874,106.391,48.791,106.589,48.774,106.837z"/>
<path id="XMLID_2367_" fill="#FFFFFF" d="M53.407,107.616l0.498,0.061c-0.079,0.291-0.224,0.518-0.437,0.678
	c-0.212,0.161-0.484,0.241-0.814,0.241c-0.416,0-0.746-0.128-0.989-0.385c-0.244-0.256-0.366-0.615-0.366-1.077
	c0-0.479,0.123-0.85,0.37-1.114c0.247-0.264,0.566-0.396,0.958-0.396c0.38,0,0.691,0.13,0.932,0.389s0.361,0.623,0.361,1.093
	c0,0.028-0.001,0.071-0.003,0.128h-2.121c0.018,0.312,0.107,0.552,0.265,0.718c0.159,0.166,0.357,0.249,0.595,0.249
	c0.177,0,0.327-0.047,0.452-0.14C53.234,107.968,53.333,107.82,53.407,107.616z M51.824,106.837h1.588
	c-0.021-0.239-0.082-0.418-0.182-0.538c-0.153-0.186-0.353-0.278-0.597-0.278c-0.221,0-0.407,0.074-0.558,0.223
	C51.924,106.391,51.84,106.589,51.824,106.837z"/>
<path id="XMLID_2364_" fill="#FFFFFF" d="M56.355,108.532v-0.358c-0.181,0.281-0.446,0.423-0.795,0.423
	c-0.226,0-0.435-0.062-0.625-0.188c-0.19-0.125-0.337-0.3-0.442-0.524c-0.104-0.225-0.157-0.481-0.157-0.772
	c0-0.284,0.047-0.542,0.142-0.772c0.094-0.231,0.236-0.408,0.425-0.532c0.189-0.123,0.401-0.185,0.635-0.185
	c0.171,0,0.324,0.036,0.458,0.108s0.243,0.167,0.327,0.283v-1.409h0.479v3.926C56.802,108.532,56.355,108.532,56.355,108.532z
	 M54.831,107.113c0,0.364,0.077,0.636,0.23,0.816c0.153,0.181,0.334,0.271,0.543,0.271c0.211,0,0.39-0.086,0.537-0.259
	c0.147-0.172,0.221-0.435,0.221-0.788c0-0.39-0.075-0.675-0.225-0.857c-0.15-0.182-0.335-0.272-0.555-0.272
	c-0.214,0-0.393,0.087-0.537,0.263C54.903,106.461,54.831,106.736,54.831,107.113z"/>
</svg>
