<?xml version="1.0" encoding="utf-8"?>
<!-- Generator: Adobe Illustrator 19.0.0, SVG Export Plug-In . SVG Version: 6.00 Build 0)  -->
<svg version="1.1" id="图层_1" xmlns="http://www.w3.org/2000/svg" xmlns:xlink="http://www.w3.org/1999/xlink" x="0px" y="0px"
	 width="935.433px" height="124.72px" viewBox="0 0 935.433 124.72" enable-background="new 0 0 935.433 124.72"
	 xml:space="preserve">
<rect id="XMLID_796_" fill="#28272A" width="935.434" height="124.725"/>
<path id="XMLID_795_" fill="#253654" stroke="#231815" stroke-width="2.0981" stroke-miterlimit="10" d="M925.512,109.135
	c0,3.131-2.537,5.668-5.668,5.668H15.592c-3.132,0-5.67-2.537-5.67-5.668V15.59c0-3.131,2.538-5.668,5.67-5.668h904.252
	c3.131,0,5.668,2.537,5.668,5.668V109.135z"/>
<g id="XMLID_1_">
	<g id="XMLID_2_">
		<polygon id="XMLID_794_" fill="#FFFFFF" points="873.435,19.416 873.435,25.203 865.197,25.203 865.197,19.416 860.432,19.416 
			860.432,33.576 865.197,33.576 865.197,27.787 873.435,27.787 873.435,33.576 878.198,33.576 878.198,19.416 		"/>
		<path id="XMLID_3_" fill="#FFFFFF" d="M893.958,26.496c1.724-0.734,2.799-1.814,2.799-3.039c0-2.264-3.677-4.041-8.371-4.041
			h-7.558v2.086h7.558c1.495,0,2.755,0.914,2.755,1.994c0,1.074-1.244,1.981-2.723,1.992c-0.009,0-0.018,0-0.032,0h-6.171v2.016
			h6.171l0,0c1.495,0,2.755,0.947,2.755,2.025c0,1.082-1.26,1.961-2.755,1.961l0,0h-7.558v2.086h7.558
			c4.694,0,8.371-1.777,8.371-4.043C896.757,28.309,895.682,27.232,893.958,26.496z"/>
		<path id="XMLID_4_" fill="#FFFFFF" d="M910.268,21.717h6.844v-2.375h-9.989v0.002c-4.7,0.027-8.515,3.188-8.515,7.076
			c0,3.889,3.815,7.053,8.515,7.078v0.004h9.989v-2.375h-6.331v-0.002c-3.46,0-6.272-2.113-6.272-4.715
			C904.509,23.941,907.05,21.912,910.268,21.717z"/>
	</g>
	<g id="XMLID_5_">
		<path id="XMLID_6_" fill="#FFFFFF" d="M748.034,29.084h-3.772l-0.911,4.355h-2.009l2.041-9.75h2.003l-0.785,3.766h3.771
			l0.791-3.766h2.003l-2.036,9.75h-2.009L748.034,29.084z"/>
		<path id="XMLID_7_" fill="#FFFFFF" d="M751.28,30.893l1.828-0.219c0.075,0.518,0.213,0.877,0.409,1.076
			c0.198,0.201,0.459,0.299,0.788,0.299c0.435,0,0.796-0.145,1.082-0.439c0.285-0.289,0.428-0.666,0.428-1.123
			c0-0.398-0.115-0.715-0.346-0.947c-0.23-0.232-0.542-0.35-0.931-0.35c-0.098,0-0.199,0.01-0.307,0.027l0.332-1.59
			c0.067,0.01,0.132,0.014,0.193,0.014c0.511,0,0.898-0.129,1.164-0.389c0.267-0.26,0.399-0.611,0.399-1.055
			c0-0.315-0.091-0.565-0.269-0.746c-0.18-0.182-0.415-0.271-0.708-0.271c-0.275,0-0.521,0.102-0.739,0.303
			c-0.217,0.201-0.39,0.545-0.518,1.033l-1.742-0.346c0.22-0.719,0.529-1.27,0.923-1.656c0.6-0.574,1.336-0.863,2.208-0.863
			c0.896,0,1.578,0.248,2.043,0.748c0.466,0.5,0.698,1.096,0.698,1.791c0,0.506-0.148,0.963-0.446,1.371
			c-0.296,0.408-0.705,0.709-1.224,0.896c0.412,0.219,0.717,0.5,0.912,0.846c0.194,0.346,0.292,0.709,0.292,1.084
			c0,0.719-0.256,1.379-0.764,1.984c-0.697,0.824-1.596,1.236-2.694,1.236c-0.824,0-1.505-0.236-2.038-0.709
			C751.721,32.426,751.395,31.758,751.28,30.893z"/>
		<path id="XMLID_8_" fill="#FFFFFF" d="M765.785,29.93l2.023,0.305c-0.394,1.094-0.988,1.932-1.777,2.51
			c-0.788,0.58-1.713,0.869-2.773,0.869c-1.193,0-2.124-0.359-2.796-1.078c-0.672-0.717-1.008-1.76-1.008-3.125
			c0-1.109,0.225-2.123,0.676-3.043c0.448-0.92,1.072-1.625,1.871-2.113c0.798-0.486,1.667-0.73,2.606-0.73
			c1.056,0,1.91,0.283,2.562,0.848c0.65,0.566,1.034,1.336,1.149,2.311l-1.922,0.188c-0.107-0.568-0.311-0.979-0.615-1.234
			c-0.304-0.256-0.709-0.381-1.214-0.381c-0.554,0-1.071,0.168-1.553,0.504c-0.481,0.338-0.866,0.865-1.154,1.58
			c-0.288,0.717-0.433,1.432-0.433,2.145c0,0.781,0.189,1.385,0.562,1.809c0.376,0.426,0.842,0.641,1.4,0.641
			c0.52,0,0.995-0.17,1.427-0.506C765.251,31.088,765.573,30.59,765.785,29.93z"/>
		<path id="XMLID_9_" fill="#FFFFFF" d="M776.434,30.281l1.91-0.1c0.026,0.607,0.13,1.017,0.312,1.23
			c0.294,0.346,0.834,0.52,1.623,0.52c0.656,0,1.132-0.117,1.424-0.354c0.293-0.234,0.438-0.517,0.438-0.851
			c0-0.289-0.119-0.531-0.358-0.731c-0.17-0.148-0.632-0.385-1.388-0.713c-0.756-0.328-1.308-0.603-1.655-0.82
			c-0.349-0.221-0.622-0.506-0.822-0.855c-0.198-0.35-0.299-0.76-0.299-1.23c0-0.82,0.297-1.502,0.892-2.041
			c0.594-0.543,1.454-0.812,2.58-0.812c1.143,0,2.029,0.267,2.656,0.805c0.628,0.537,0.973,1.25,1.035,2.141l-1.922,0.088
			c-0.05-0.465-0.218-0.822-0.506-1.072c-0.288-0.248-0.714-0.371-1.277-0.371c-0.555,0-0.95,0.098-1.188,0.293
			c-0.237,0.195-0.354,0.439-0.354,0.738c0,0.279,0.107,0.51,0.325,0.691c0.218,0.185,0.697,0.441,1.443,0.764
			c1.121,0.484,1.836,0.877,2.143,1.178c0.456,0.443,0.684,1.014,0.684,1.709c0,0.861-0.34,1.596-1.021,2.207
			c-0.681,0.607-1.628,0.914-2.844,0.914c-0.837,0-1.563-0.142-2.177-0.424c-0.615-0.279-1.049-0.672-1.303-1.174
			C776.533,31.51,776.416,30.932,776.434,30.281z"/>
		<path id="XMLID_10_" fill="#FFFFFF" d="M786.27,27.84l0.36-1.703c1.645-0.717,2.917-1.553,3.816-2.506h1.165l-2.055,9.809h-1.922
			l1.416-6.758c-0.398,0.258-0.859,0.494-1.38,0.705C787.148,27.6,786.684,27.752,786.27,27.84z"/>
		<path id="XMLID_11_" fill="#FFFFFF" d="M795.828,26.729l-1.869-0.277c0.15-0.906,0.502-1.6,1.054-2.08
			c0.553-0.48,1.243-0.721,2.072-0.721c0.91,0,1.622,0.246,2.142,0.738c0.518,0.492,0.779,1.117,0.779,1.875
			c0,0.385-0.08,0.773-0.24,1.16c-0.159,0.389-0.421,0.795-0.784,1.221c-0.262,0.303-0.69,0.729-1.284,1.279
			c-0.594,0.555-0.988,0.93-1.181,1.131c-0.193,0.203-0.378,0.416-0.556,0.643h3.379l-0.358,1.742h-5.927
			c0.062-0.479,0.203-0.934,0.423-1.365c0.22-0.434,0.493-0.836,0.821-1.207c0.327-0.373,0.928-0.975,1.802-1.803
			c0.656-0.631,1.071-1.041,1.244-1.231c0.31-0.346,0.522-0.646,0.638-0.898c0.115-0.254,0.174-0.481,0.174-0.686
			c0-0.328-0.097-0.594-0.289-0.799c-0.193-0.203-0.438-0.305-0.735-0.305c-0.302,0-0.566,0.115-0.792,0.342
			C796.113,25.717,795.943,26.131,795.828,26.729z"/>
		<path id="XMLID_12_" fill="#FFFFFF" d="M803.403,26.729l-1.87-0.277c0.152-0.906,0.503-1.6,1.056-2.08
			c0.553-0.48,1.243-0.721,2.071-0.721c0.909,0,1.623,0.246,2.143,0.738c0.52,0.492,0.778,1.117,0.778,1.875
			c0,0.385-0.08,0.773-0.241,1.16c-0.158,0.389-0.42,0.795-0.784,1.221c-0.261,0.303-0.689,0.729-1.283,1.279
			c-0.594,0.555-0.988,0.93-1.18,1.131c-0.193,0.203-0.38,0.416-0.557,0.643h3.38l-0.36,1.742h-5.926
			c0.062-0.479,0.203-0.934,0.423-1.365c0.22-0.434,0.493-0.836,0.82-1.207c0.329-0.373,0.93-0.975,1.803-1.803
			c0.656-0.631,1.071-1.041,1.244-1.231c0.311-0.346,0.523-0.646,0.638-0.898c0.116-0.254,0.175-0.481,0.175-0.686
			c0-0.328-0.098-0.594-0.29-0.799c-0.193-0.203-0.438-0.305-0.734-0.305c-0.303,0-0.566,0.115-0.791,0.342
			C803.69,25.717,803.52,26.131,803.403,26.729z"/>
		<path id="XMLID_13_" fill="#FFFFFF" d="M811.592,31.453h-3.838l0.332-1.598l5.274-6.166h1.649l-1.284,6.141h1.184l-0.339,1.623
			h-1.184l-0.419,1.986h-1.797L811.592,31.453z M811.932,29.83l0.63-3.041l-2.574,3.041H811.932z"/>
	</g>
	<g id="XMLID_14_">
		<path id="XMLID_15_" fill="#FFFFFF" d="M750.579,65.582v-5.555h1.801c0.683,0,1.127,0.027,1.334,0.082
			c0.317,0.084,0.585,0.266,0.8,0.543c0.214,0.279,0.321,0.641,0.321,1.084c0,0.34-0.062,0.627-0.185,0.859
			c-0.125,0.232-0.282,0.416-0.473,0.549c-0.19,0.131-0.385,0.219-0.581,0.264c-0.269,0.053-0.656,0.078-1.164,0.078h-0.731v2.096
			H750.579z M751.701,60.967v1.576h0.614c0.441,0,0.737-0.029,0.887-0.088c0.149-0.057,0.266-0.148,0.351-0.271
			c0.084-0.125,0.127-0.268,0.127-0.432c0-0.203-0.06-0.371-0.179-0.502c-0.118-0.131-0.269-0.213-0.451-0.246
			c-0.134-0.025-0.402-0.037-0.808-0.037H751.701z"/>
		<path id="XMLID_16_" fill="#FFFFFF" d="M755.502,63.514c0-0.354,0.087-0.697,0.262-1.027c0.175-0.332,0.422-0.584,0.741-0.758
			c0.319-0.174,0.676-0.262,1.07-0.262c0.609,0,1.108,0.197,1.498,0.594c0.389,0.395,0.583,0.895,0.583,1.498
			c0,0.609-0.196,1.113-0.589,1.516c-0.393,0.398-0.888,0.6-1.484,0.6c-0.369,0-0.721-0.084-1.056-0.25
			c-0.335-0.168-0.589-0.412-0.764-0.734C755.589,64.367,755.502,63.975,755.502,63.514z M756.594,63.57
			c0,0.398,0.096,0.705,0.284,0.918c0.189,0.211,0.425,0.318,0.701,0.318c0.278,0,0.512-0.107,0.699-0.318
			c0.188-0.213,0.283-0.521,0.283-0.926c0-0.395-0.095-0.697-0.283-0.91c-0.188-0.213-0.421-0.316-0.699-0.316
			c-0.276,0-0.512,0.104-0.701,0.316C756.689,62.865,756.594,63.17,756.594,63.57z"/>
		<path id="XMLID_17_" fill="#FFFFFF" d="M761.511,65.582h-1.065v-4.025h0.99v0.574c0.169-0.271,0.32-0.449,0.456-0.535
			c0.136-0.086,0.288-0.129,0.46-0.129c0.243,0,0.476,0.066,0.701,0.201l-0.329,0.928c-0.181-0.115-0.347-0.174-0.5-0.174
			c-0.15,0-0.276,0.041-0.38,0.123c-0.104,0.082-0.186,0.23-0.244,0.445c-0.06,0.215-0.089,0.664-0.089,1.35V65.582z"/>
		<path id="XMLID_18_" fill="#FFFFFF" d="M765.357,61.557v0.85h-0.729v1.621c0,0.33,0.008,0.521,0.021,0.576
			c0.014,0.055,0.045,0.098,0.095,0.135c0.05,0.035,0.109,0.051,0.18,0.051c0.099,0,0.241-0.033,0.429-0.1l0.091,0.824
			c-0.248,0.107-0.528,0.16-0.841,0.16c-0.193,0-0.365-0.033-0.519-0.096c-0.154-0.066-0.268-0.148-0.34-0.252
			c-0.071-0.102-0.121-0.24-0.149-0.414c-0.023-0.125-0.034-0.375-0.034-0.75v-1.756h-0.489v-0.85h0.489v-0.799l1.068-0.621v1.42
			H765.357z"/>
		<path id="XMLID_19_" fill="#FFFFFF" d="M767.977,63.775l1.092-0.107c0.065,0.367,0.199,0.637,0.399,0.809s0.473,0.256,0.813,0.256
			c0.361,0,0.634-0.074,0.816-0.229c0.184-0.152,0.274-0.332,0.274-0.535c0-0.133-0.037-0.244-0.115-0.336
			c-0.077-0.092-0.211-0.172-0.403-0.242c-0.132-0.045-0.432-0.125-0.897-0.242c-0.603-0.148-1.024-0.332-1.268-0.549
			c-0.34-0.307-0.511-0.678-0.511-1.119c0-0.281,0.08-0.547,0.241-0.793c0.16-0.246,0.391-0.434,0.692-0.562
			s0.667-0.195,1.095-0.195c0.696,0,1.221,0.154,1.574,0.461c0.352,0.305,0.537,0.713,0.556,1.225l-1.122,0.049
			c-0.048-0.287-0.151-0.492-0.31-0.617c-0.157-0.125-0.394-0.186-0.71-0.186c-0.325,0-0.582,0.066-0.766,0.199
			c-0.12,0.086-0.179,0.201-0.179,0.346c0,0.131,0.056,0.244,0.166,0.336c0.143,0.119,0.486,0.244,1.031,0.373
			c0.547,0.127,0.95,0.262,1.212,0.4c0.262,0.137,0.466,0.324,0.614,0.562c0.147,0.24,0.221,0.535,0.221,0.887
			c0,0.318-0.088,0.615-0.265,0.894c-0.177,0.277-0.427,0.482-0.751,0.619c-0.323,0.135-0.725,0.203-1.208,0.203
			c-0.703,0-1.243-0.162-1.619-0.488C768.274,64.869,768.05,64.396,767.977,63.775z"/>
		<path id="XMLID_21_" fill="#FFFFFF" d="M775.276,61.557v0.85h-0.729v1.621c0,0.33,0.008,0.521,0.021,0.576
			c0.014,0.055,0.045,0.098,0.095,0.135c0.05,0.035,0.109,0.051,0.181,0.051c0.098,0,0.24-0.033,0.428-0.1l0.091,0.824
			c-0.248,0.107-0.528,0.16-0.841,0.16c-0.192,0-0.365-0.033-0.519-0.096c-0.155-0.066-0.268-0.148-0.34-0.252
			c-0.072-0.102-0.122-0.24-0.15-0.414c-0.023-0.125-0.033-0.375-0.033-0.75v-1.756h-0.49v-0.85h0.49v-0.799l1.067-0.621v1.42
			H775.276z"/>
		<path id="XMLID_22_" fill="#FFFFFF" d="M776.811,62.785l-0.966-0.174c0.108-0.391,0.295-0.678,0.562-0.865
			c0.265-0.186,0.658-0.279,1.182-0.279c0.475,0,0.829,0.055,1.061,0.17c0.232,0.111,0.397,0.254,0.49,0.426
			c0.095,0.174,0.143,0.49,0.143,0.955l-0.012,1.242c0,0.353,0.018,0.613,0.052,0.781c0.033,0.17,0.097,0.35,0.191,0.541h-1.055
			c-0.027-0.07-0.062-0.174-0.103-0.314c-0.017-0.062-0.03-0.105-0.037-0.125c-0.182,0.178-0.376,0.309-0.584,0.398
			c-0.206,0.088-0.428,0.133-0.662,0.133c-0.415,0-0.741-0.113-0.98-0.338c-0.238-0.225-0.358-0.508-0.358-0.854
			c0-0.227,0.054-0.43,0.162-0.607c0.109-0.178,0.263-0.314,0.458-0.408c0.195-0.096,0.477-0.178,0.847-0.25
			c0.498-0.092,0.843-0.18,1.035-0.262V62.85c0-0.205-0.051-0.352-0.151-0.438c-0.102-0.088-0.292-0.131-0.573-0.131
			c-0.189,0-0.337,0.037-0.443,0.113C776.964,62.467,776.877,62.6,776.811,62.785z M778.237,63.65
			c-0.138,0.045-0.352,0.1-0.648,0.162c-0.296,0.064-0.489,0.125-0.58,0.186c-0.14,0.1-0.208,0.225-0.208,0.377
			c0,0.148,0.056,0.277,0.167,0.385c0.11,0.109,0.253,0.164,0.425,0.164c0.191,0,0.374-0.064,0.549-0.191
			c0.129-0.094,0.213-0.213,0.255-0.352c0.027-0.09,0.041-0.264,0.041-0.52V63.65z"/>
		<path id="XMLID_23_" fill="#FFFFFF" d="M782.178,61.557v0.85h-0.728v1.621c0,0.33,0.007,0.521,0.022,0.576
			s0.046,0.098,0.094,0.135c0.05,0.035,0.109,0.051,0.181,0.051c0.099,0,0.241-0.033,0.429-0.1l0.09,0.824
			c-0.247,0.107-0.528,0.16-0.841,0.16c-0.192,0-0.365-0.033-0.519-0.096c-0.154-0.066-0.268-0.148-0.339-0.252
			c-0.073-0.102-0.123-0.24-0.15-0.414c-0.023-0.125-0.034-0.375-0.034-0.75v-1.756h-0.489v-0.85h0.489v-0.799l1.068-0.621v1.42
			H782.178z"/>
		<path id="XMLID_25_" fill="#FFFFFF" d="M785.567,65.582V64.98c-0.148,0.215-0.339,0.383-0.578,0.508
			c-0.239,0.123-0.491,0.186-0.756,0.186c-0.271,0-0.513-0.059-0.728-0.178c-0.214-0.119-0.369-0.287-0.466-0.5
			c-0.096-0.215-0.144-0.514-0.144-0.893v-2.547h1.065v1.851c0,0.564,0.019,0.912,0.06,1.039c0.039,0.129,0.109,0.228,0.214,0.303
			c0.104,0.076,0.234,0.111,0.394,0.111c0.182,0,0.345-0.049,0.49-0.148c0.143-0.1,0.241-0.225,0.295-0.371
			c0.053-0.148,0.079-0.51,0.079-1.086v-1.699h1.065v4.025H785.567z"/>
		<path id="XMLID_26_" fill="#FFFFFF" d="M787.283,64.434l1.069-0.162c0.045,0.207,0.138,0.363,0.276,0.473
			c0.14,0.107,0.333,0.16,0.584,0.16c0.275,0,0.482-0.051,0.621-0.152c0.095-0.07,0.141-0.164,0.141-0.283
			c0-0.082-0.024-0.149-0.075-0.201c-0.053-0.051-0.172-0.098-0.356-0.141c-0.859-0.189-1.403-0.363-1.633-0.52
			c-0.319-0.217-0.479-0.517-0.479-0.904c0-0.35,0.138-0.642,0.412-0.881c0.276-0.236,0.703-0.355,1.282-0.355
			c0.551,0,0.959,0.09,1.227,0.27c0.269,0.18,0.452,0.443,0.554,0.795l-1.004,0.186c-0.044-0.156-0.125-0.277-0.245-0.359
			c-0.12-0.084-0.291-0.125-0.513-0.125c-0.281,0-0.481,0.039-0.603,0.117c-0.081,0.057-0.121,0.129-0.121,0.217
			c0,0.074,0.035,0.139,0.107,0.193c0.096,0.07,0.427,0.17,0.994,0.299c0.568,0.129,0.964,0.287,1.188,0.473
			c0.223,0.189,0.334,0.455,0.334,0.793c0,0.369-0.154,0.686-0.463,0.951c-0.308,0.266-0.764,0.398-1.368,0.398
			c-0.548,0-0.982-0.111-1.301-0.334C787.592,65.117,787.383,64.814,787.283,64.434z"/>
	</g>
	<g id="XMLID_27_">
		<path id="XMLID_28_" fill="#FFFFFF" d="M699.958,76.377h-0.917v-3.451c-0.335,0.312-0.729,0.545-1.183,0.695v-0.832
			c0.238-0.078,0.499-0.227,0.779-0.445c0.28-0.219,0.473-0.475,0.576-0.764h0.744V76.377z"/>
		<path id="XMLID_29_" fill="#FFFFFF" d="M710.569,75.109l0.888-0.107c0.028,0.227,0.104,0.398,0.228,0.52
			c0.124,0.119,0.274,0.178,0.45,0.178c0.189,0,0.349-0.07,0.477-0.215c0.13-0.143,0.193-0.336,0.193-0.58
			c0-0.23-0.062-0.412-0.185-0.547c-0.125-0.135-0.275-0.203-0.454-0.203c-0.117,0-0.257,0.023-0.421,0.068l0.102-0.746
			c0.248,0.006,0.438-0.047,0.567-0.162c0.131-0.113,0.195-0.266,0.195-0.455c0-0.16-0.048-0.289-0.144-0.383
			c-0.095-0.096-0.223-0.145-0.382-0.145c-0.155,0-0.289,0.055-0.4,0.162c-0.11,0.109-0.178,0.268-0.202,0.477l-0.844-0.143
			c0.059-0.289,0.147-0.52,0.266-0.693c0.117-0.174,0.283-0.309,0.495-0.408c0.212-0.098,0.449-0.146,0.712-0.146
			c0.45,0,0.811,0.143,1.083,0.43c0.224,0.234,0.336,0.5,0.336,0.795c0,0.42-0.229,0.754-0.689,1.004
			c0.274,0.059,0.493,0.189,0.657,0.395c0.164,0.205,0.246,0.451,0.246,0.74c0,0.42-0.153,0.777-0.46,1.072
			c-0.307,0.297-0.688,0.443-1.145,0.443c-0.432,0-0.791-0.125-1.075-0.373C710.781,75.838,710.615,75.512,710.569,75.109z"/>
		<path id="XMLID_30_" fill="#FFFFFF" d="M723.604,75.148l0.913-0.094c0.025,0.205,0.102,0.369,0.231,0.49
			c0.127,0.121,0.276,0.182,0.443,0.182c0.19,0,0.352-0.078,0.485-0.234c0.133-0.154,0.198-0.389,0.198-0.701
			c0-0.295-0.065-0.514-0.197-0.66c-0.131-0.146-0.302-0.221-0.513-0.221c-0.264,0-0.499,0.117-0.708,0.35l-0.743-0.107l0.47-2.488
			h2.422v0.857h-1.728l-0.143,0.811c0.205-0.1,0.413-0.152,0.626-0.152c0.406,0,0.751,0.146,1.034,0.443
			c0.282,0.295,0.423,0.68,0.423,1.15c0,0.395-0.113,0.746-0.342,1.055c-0.311,0.42-0.743,0.631-1.295,0.631
			c-0.441,0-0.801-0.117-1.078-0.354C723.825,75.867,723.659,75.549,723.604,75.148z"/>
		<path id="XMLID_31_" fill="#FFFFFF" d="M736.579,72.516v-0.852h3.134v0.664c-0.259,0.256-0.521,0.621-0.789,1.096
			c-0.268,0.477-0.471,0.983-0.611,1.518c-0.141,0.535-0.209,1.016-0.207,1.436h-0.884c0.016-0.66,0.152-1.332,0.409-2.02
			c0.258-0.688,0.602-1.303,1.032-1.842H736.579z"/>
		<path id="XMLID_32_" fill="#FFFFFF" d="M749.588,75.273l0.887-0.1c0.023,0.182,0.079,0.314,0.17,0.402
			c0.091,0.088,0.212,0.131,0.361,0.131c0.189,0,0.351-0.088,0.482-0.262c0.133-0.174,0.218-0.533,0.254-1.082
			c-0.23,0.268-0.518,0.4-0.863,0.4c-0.376,0-0.7-0.145-0.973-0.436c-0.273-0.289-0.409-0.666-0.409-1.133
			c0-0.484,0.143-0.875,0.433-1.17c0.287-0.299,0.653-0.445,1.1-0.445c0.484,0,0.882,0.186,1.193,0.562
			c0.31,0.373,0.466,0.99,0.466,1.85c0,0.873-0.163,1.504-0.485,1.891c-0.324,0.387-0.746,0.58-1.265,0.58
			c-0.375,0-0.677-0.1-0.907-0.299C749.801,75.967,749.653,75.668,749.588,75.273z M751.662,73.271c0-0.295-0.068-0.525-0.204-0.688
			c-0.137-0.164-0.293-0.244-0.472-0.244c-0.169,0-0.311,0.066-0.422,0.199c-0.111,0.135-0.168,0.354-0.168,0.656
			c0,0.311,0.061,0.537,0.183,0.682c0.121,0.143,0.274,0.217,0.456,0.217c0.176,0,0.325-0.07,0.445-0.209
			C751.601,73.744,751.662,73.541,751.662,73.271z"/>
		<path id="XMLID_33_" fill="#FFFFFF" d="M763.046,76.377h-0.916v-3.451c-0.335,0.312-0.73,0.545-1.184,0.695v-0.832
			c0.239-0.078,0.499-0.227,0.779-0.445c0.28-0.219,0.474-0.475,0.578-0.764h0.742V76.377z"/>
		<path id="XMLID_34_" fill="#FFFFFF" d="M766.392,76.377h-0.917v-3.451c-0.335,0.312-0.729,0.545-1.183,0.695v-0.832
			c0.238-0.078,0.499-0.227,0.779-0.445c0.28-0.219,0.473-0.475,0.576-0.764h0.744V76.377z"/>
		<path id="XMLID_35_" fill="#FFFFFF" d="M777.525,76.377h-0.916v-3.451c-0.335,0.312-0.729,0.545-1.185,0.695v-0.832
			c0.239-0.078,0.499-0.227,0.779-0.445c0.28-0.219,0.473-0.475,0.577-0.764h0.744V76.377z"/>
		<path id="XMLID_36_" fill="#FFFFFF" d="M778.861,75.109l0.887-0.107c0.028,0.227,0.104,0.398,0.229,0.52
			c0.124,0.119,0.273,0.178,0.45,0.178c0.188,0,0.348-0.07,0.477-0.215c0.129-0.143,0.194-0.336,0.194-0.58
			c0-0.23-0.062-0.412-0.187-0.547c-0.123-0.135-0.274-0.203-0.453-0.203c-0.117,0-0.258,0.023-0.42,0.068l0.101-0.746
			c0.248,0.006,0.437-0.047,0.567-0.162c0.13-0.113,0.196-0.266,0.196-0.455c0-0.16-0.049-0.289-0.145-0.383
			c-0.095-0.096-0.222-0.145-0.381-0.145c-0.157,0-0.291,0.055-0.401,0.162c-0.111,0.109-0.179,0.268-0.202,0.477l-0.845-0.143
			c0.059-0.289,0.147-0.52,0.266-0.693c0.119-0.174,0.284-0.309,0.496-0.408c0.212-0.098,0.448-0.146,0.713-0.146
			c0.449,0,0.811,0.143,1.082,0.43c0.225,0.234,0.336,0.5,0.336,0.795c0,0.42-0.229,0.754-0.689,1.004
			c0.274,0.059,0.494,0.189,0.657,0.395c0.163,0.205,0.246,0.451,0.246,0.74c0,0.42-0.153,0.777-0.46,1.072
			c-0.306,0.297-0.688,0.443-1.144,0.443c-0.434,0-0.792-0.125-1.077-0.373C779.072,75.838,778.907,75.512,778.861,75.109z"/>
		<path id="XMLID_37_" fill="#FFFFFF" d="M788.661,76.377h-0.915v-3.451c-0.335,0.312-0.73,0.545-1.185,0.695v-0.832
			c0.239-0.078,0.499-0.227,0.779-0.445c0.281-0.219,0.474-0.475,0.578-0.764h0.742V76.377z"/>
		<path id="XMLID_38_" fill="#FFFFFF" d="M790.044,75.148l0.913-0.094c0.026,0.205,0.104,0.369,0.231,0.49
			c0.128,0.121,0.276,0.182,0.443,0.182c0.192,0,0.353-0.078,0.485-0.234c0.134-0.154,0.199-0.389,0.199-0.701
			c0-0.295-0.065-0.514-0.197-0.66c-0.131-0.146-0.303-0.221-0.514-0.221c-0.264,0-0.498,0.117-0.707,0.35l-0.743-0.107l0.47-2.488
			h2.421v0.857h-1.727l-0.145,0.811c0.205-0.1,0.414-0.152,0.627-0.152c0.406,0,0.751,0.146,1.033,0.443
			c0.283,0.295,0.424,0.68,0.424,1.15c0,0.395-0.114,0.746-0.342,1.055c-0.311,0.42-0.743,0.631-1.295,0.631
			c-0.44,0-0.801-0.117-1.079-0.354C790.266,75.867,790.099,75.549,790.044,75.148z"/>
		<path id="XMLID_39_" fill="#FFFFFF" d="M801.654,76.377h-0.916v-3.451c-0.335,0.312-0.73,0.545-1.184,0.695v-0.832
			c0.238-0.078,0.498-0.227,0.778-0.445c0.28-0.219,0.473-0.475,0.577-0.764h0.744V76.377z"/>
		<path id="XMLID_40_" fill="#FFFFFF" d="M803.023,72.516v-0.852h3.133v0.664c-0.258,0.256-0.521,0.621-0.789,1.096
			c-0.268,0.477-0.471,0.983-0.611,1.518c-0.14,0.535-0.21,1.016-0.207,1.436h-0.883c0.015-0.66,0.151-1.332,0.408-2.02
			c0.258-0.688,0.602-1.303,1.032-1.842H803.023z"/>
		<path id="XMLID_41_" fill="#FFFFFF" d="M814.645,76.377h-0.916v-3.451c-0.335,0.312-0.729,0.545-1.183,0.695v-0.832
			c0.238-0.078,0.499-0.227,0.779-0.445c0.28-0.219,0.473-0.475,0.576-0.764h0.743V76.377z"/>
		<path id="XMLID_42_" fill="#FFFFFF" d="M816.035,75.273l0.886-0.1c0.023,0.182,0.078,0.314,0.17,0.402
			c0.092,0.088,0.212,0.131,0.361,0.131c0.189,0,0.351-0.088,0.483-0.262c0.132-0.174,0.217-0.533,0.254-1.082
			c-0.23,0.268-0.519,0.4-0.863,0.4c-0.377,0-0.7-0.145-0.974-0.436c-0.273-0.289-0.409-0.666-0.409-1.133
			c0-0.484,0.144-0.875,0.433-1.17c0.287-0.299,0.653-0.445,1.1-0.445c0.485,0,0.883,0.186,1.193,0.562
			c0.31,0.373,0.467,0.99,0.467,1.85c0,0.873-0.163,1.504-0.486,1.891c-0.323,0.387-0.745,0.58-1.265,0.58
			c-0.374,0-0.676-0.1-0.906-0.299C816.247,75.967,816.1,75.668,816.035,75.273z M818.108,73.271c0-0.295-0.068-0.525-0.203-0.688
			c-0.137-0.164-0.294-0.244-0.472-0.244c-0.169,0-0.31,0.066-0.422,0.199c-0.112,0.135-0.168,0.354-0.168,0.656
			c0,0.311,0.06,0.537,0.182,0.682c0.121,0.143,0.274,0.217,0.456,0.217c0.177,0,0.325-0.07,0.445-0.209
			C818.048,73.744,818.108,73.541,818.108,73.271z"/>
		<path id="XMLID_43_" fill="#FFFFFF" d="M828.388,75.527v0.85h-3.211c0.034-0.32,0.139-0.625,0.312-0.912
			c0.173-0.289,0.518-0.67,1.03-1.146c0.413-0.385,0.666-0.646,0.76-0.783c0.126-0.189,0.19-0.375,0.19-0.561
			c0-0.205-0.055-0.361-0.165-0.471c-0.11-0.109-0.262-0.164-0.455-0.164c-0.191,0-0.343,0.057-0.456,0.172
			c-0.114,0.115-0.179,0.307-0.195,0.572l-0.913-0.09c0.055-0.506,0.225-0.867,0.512-1.086c0.286-0.219,0.646-0.328,1.076-0.328
			c0.472,0,0.842,0.125,1.11,0.381c0.271,0.254,0.405,0.57,0.405,0.947c0,0.217-0.038,0.42-0.115,0.615
			c-0.078,0.195-0.2,0.398-0.367,0.611c-0.11,0.141-0.311,0.344-0.601,0.609c-0.289,0.266-0.472,0.441-0.548,0.529
			c-0.078,0.086-0.14,0.172-0.188,0.254H828.388z"/>
		<path id="XMLID_44_" fill="#FFFFFF" d="M831.352,76.377h-0.917v-3.451c-0.335,0.312-0.729,0.545-1.183,0.695v-0.832
			c0.238-0.078,0.499-0.227,0.779-0.445c0.28-0.219,0.473-0.475,0.576-0.764h0.744V76.377z"/>
		<path id="XMLID_45_" fill="#FFFFFF" d="M841.38,75.527v0.85h-3.212c0.035-0.32,0.14-0.625,0.312-0.912
			c0.175-0.289,0.518-0.67,1.03-1.146c0.414-0.385,0.667-0.646,0.761-0.783c0.126-0.189,0.188-0.375,0.188-0.561
			c0-0.205-0.055-0.361-0.165-0.471c-0.109-0.109-0.261-0.164-0.454-0.164c-0.191,0-0.343,0.057-0.456,0.172
			c-0.113,0.115-0.18,0.307-0.195,0.572l-0.913-0.09c0.054-0.506,0.225-0.867,0.511-1.086c0.288-0.219,0.646-0.328,1.076-0.328
			c0.473,0,0.842,0.125,1.112,0.381c0.269,0.254,0.404,0.57,0.404,0.947c0,0.217-0.038,0.42-0.116,0.615
			c-0.077,0.195-0.199,0.398-0.366,0.611c-0.111,0.141-0.311,0.344-0.601,0.609c-0.289,0.266-0.471,0.441-0.549,0.529
			c-0.077,0.086-0.14,0.172-0.188,0.254H841.38z"/>
		<path id="XMLID_46_" fill="#FFFFFF" d="M841.966,75.109l0.888-0.107c0.028,0.227,0.104,0.398,0.228,0.52
			c0.125,0.119,0.274,0.178,0.45,0.178c0.189,0,0.349-0.07,0.477-0.215c0.13-0.143,0.194-0.336,0.194-0.58
			c0-0.23-0.062-0.412-0.185-0.547c-0.125-0.135-0.274-0.203-0.454-0.203c-0.117,0-0.257,0.023-0.42,0.068l0.101-0.746
			c0.248,0.006,0.438-0.047,0.567-0.162c0.131-0.113,0.195-0.266,0.195-0.455c0-0.16-0.047-0.289-0.143-0.383
			c-0.096-0.096-0.223-0.145-0.382-0.145c-0.156,0-0.29,0.055-0.401,0.162c-0.11,0.109-0.178,0.268-0.201,0.477l-0.845-0.143
			c0.059-0.289,0.147-0.52,0.266-0.693c0.118-0.174,0.283-0.309,0.495-0.408c0.212-0.098,0.449-0.146,0.712-0.146
			c0.451,0,0.812,0.143,1.083,0.43c0.224,0.234,0.336,0.5,0.336,0.795c0,0.42-0.229,0.754-0.688,1.004
			c0.273,0.059,0.492,0.189,0.656,0.395c0.164,0.205,0.246,0.451,0.246,0.74c0,0.42-0.153,0.777-0.46,1.072
			c-0.307,0.297-0.688,0.443-1.145,0.443c-0.432,0-0.791-0.125-1.075-0.373C842.178,75.838,842.013,75.512,841.966,75.109z"/>
	</g>
	<g id="XMLID_47_">
		<path id="XMLID_48_" fill="#FFFFFF" d="M700.708,90.967v0.852h-3.212c0.034-0.322,0.139-0.627,0.314-0.914
			c0.173-0.289,0.517-0.67,1.03-1.146c0.412-0.385,0.666-0.646,0.759-0.781c0.126-0.189,0.189-0.377,0.189-0.562
			c0-0.203-0.056-0.361-0.165-0.471c-0.109-0.109-0.261-0.164-0.454-0.164c-0.191,0-0.345,0.059-0.456,0.172
			c-0.114,0.115-0.179,0.307-0.195,0.574l-0.913-0.092c0.054-0.504,0.225-0.865,0.511-1.086c0.287-0.219,0.646-0.328,1.077-0.328
			c0.47,0,0.842,0.127,1.11,0.381c0.27,0.254,0.405,0.572,0.405,0.949c0,0.215-0.04,0.42-0.116,0.615
			c-0.077,0.193-0.199,0.398-0.366,0.611c-0.111,0.141-0.312,0.344-0.601,0.609c-0.289,0.264-0.473,0.441-0.549,0.527
			c-0.077,0.088-0.141,0.172-0.188,0.254H700.708z"/>
		<path id="XMLID_49_" fill="#FFFFFF" d="M712.399,91.818v-0.961h-1.956v-0.803l2.073-3.035h0.769v3.031h0.594v0.807h-0.594v0.961
			H712.399z M712.399,90.051v-1.633l-1.1,1.633H712.399z"/>
		<path id="XMLID_50_" fill="#FFFFFF" d="M726.695,88.209l-0.887,0.1c-0.022-0.184-0.079-0.318-0.17-0.406
			c-0.092-0.086-0.21-0.131-0.356-0.131c-0.193,0-0.357,0.088-0.491,0.262c-0.133,0.174-0.217,0.535-0.253,1.086
			c0.229-0.27,0.513-0.404,0.852-0.404c0.383,0,0.71,0.145,0.983,0.438c0.273,0.291,0.409,0.668,0.409,1.127
			c0,0.49-0.144,0.881-0.431,1.178c-0.287,0.295-0.655,0.443-1.104,0.443c-0.483,0-0.881-0.188-1.19-0.562
			c-0.31-0.375-0.467-0.99-0.467-1.844c0-0.877,0.162-1.508,0.486-1.895c0.323-0.387,0.743-0.58,1.262-0.58
			c0.362,0,0.663,0.102,0.901,0.305C726.478,87.527,726.63,87.822,726.695,88.209z M724.618,90.209c0,0.297,0.068,0.527,0.206,0.688
			c0.136,0.164,0.293,0.244,0.469,0.244c0.169,0,0.31-0.066,0.424-0.199c0.113-0.133,0.17-0.35,0.17-0.652
			c0-0.311-0.062-0.539-0.183-0.684c-0.121-0.143-0.274-0.217-0.456-0.217c-0.177,0-0.326,0.07-0.447,0.209
			C724.679,89.734,724.618,89.938,724.618,90.209z"/>
		<path id="XMLID_51_" fill="#FFFFFF" d="M737.366,89.24c-0.238-0.101-0.41-0.238-0.518-0.414c-0.107-0.174-0.161-0.365-0.161-0.574
			c0-0.355,0.125-0.652,0.373-0.883c0.249-0.232,0.603-0.35,1.062-0.35c0.454,0,0.808,0.117,1.059,0.35
			c0.251,0.23,0.376,0.527,0.376,0.883c0,0.223-0.059,0.42-0.173,0.592c-0.115,0.172-0.277,0.305-0.486,0.396
			c0.266,0.106,0.467,0.262,0.606,0.467c0.138,0.203,0.206,0.439,0.206,0.707c0,0.439-0.141,0.799-0.422,1.076
			c-0.281,0.275-0.655,0.412-1.123,0.412c-0.434,0-0.796-0.113-1.086-0.342c-0.341-0.27-0.512-0.639-0.512-1.109
			c0-0.258,0.065-0.494,0.192-0.711C736.887,89.523,737.09,89.357,737.366,89.24z M737.47,90.363c0,0.252,0.064,0.449,0.194,0.592
			c0.13,0.141,0.291,0.211,0.484,0.211c0.188,0,0.345-0.066,0.469-0.203c0.124-0.137,0.186-0.332,0.186-0.588
			c0-0.225-0.063-0.404-0.189-0.541c-0.126-0.137-0.286-0.203-0.479-0.203c-0.224,0-0.391,0.078-0.501,0.23
			C737.524,90.016,737.47,90.184,737.47,90.363z M737.555,88.316c0,0.184,0.051,0.326,0.155,0.428
			c0.104,0.102,0.239,0.154,0.412,0.154c0.174,0,0.312-0.053,0.417-0.156s0.156-0.246,0.156-0.428c0-0.172-0.052-0.309-0.154-0.414
			c-0.104-0.104-0.24-0.154-0.409-0.154c-0.176,0-0.316,0.053-0.421,0.156C737.606,88.008,737.555,88.145,737.555,88.316z"/>
		<path id="XMLID_52_" fill="#FFFFFF" d="M750.058,91.818h-0.916v-3.451c-0.336,0.312-0.729,0.543-1.184,0.693v-0.832
			c0.238-0.078,0.499-0.227,0.779-0.445c0.28-0.217,0.473-0.473,0.576-0.764h0.744V91.818z"/>
		<path id="XMLID_53_" fill="#FFFFFF" d="M752.976,87.02c0.463,0,0.824,0.164,1.085,0.496c0.312,0.391,0.467,1.039,0.467,1.945
			c0,0.904-0.156,1.555-0.47,1.951c-0.258,0.324-0.619,0.488-1.082,0.488c-0.466,0-0.841-0.178-1.125-0.537
			c-0.284-0.357-0.427-0.996-0.427-1.912c0-0.9,0.156-1.547,0.47-1.943C752.151,87.182,752.513,87.02,752.976,87.02z
			 M752.976,87.779c-0.11,0-0.21,0.035-0.297,0.106c-0.087,0.07-0.154,0.197-0.202,0.381c-0.063,0.236-0.095,0.635-0.095,1.195
			c0,0.561,0.028,0.947,0.085,1.156c0.056,0.209,0.128,0.35,0.214,0.418c0.085,0.07,0.185,0.105,0.295,0.105
			c0.111,0,0.209-0.035,0.297-0.107c0.087-0.07,0.154-0.195,0.201-0.379c0.063-0.234,0.096-0.633,0.096-1.193
			c0-0.561-0.029-0.945-0.085-1.154c-0.057-0.211-0.129-0.352-0.214-0.422C753.185,87.814,753.087,87.779,752.976,87.779z"/>
		<path id="XMLID_54_" fill="#FFFFFF" d="M763.049,91.818h-0.916v-3.451c-0.334,0.312-0.729,0.543-1.183,0.693v-0.832
			c0.239-0.078,0.499-0.227,0.779-0.445c0.28-0.217,0.473-0.473,0.577-0.764h0.742V91.818z"/>
		<path id="XMLID_55_" fill="#FFFFFF" d="M767.513,90.967v0.852h-3.211c0.034-0.322,0.139-0.627,0.312-0.914
			c0.174-0.289,0.518-0.67,1.03-1.146c0.413-0.385,0.666-0.646,0.76-0.781c0.126-0.189,0.189-0.377,0.189-0.562
			c0-0.203-0.054-0.361-0.164-0.471c-0.11-0.109-0.262-0.164-0.455-0.164c-0.191,0-0.343,0.059-0.456,0.172
			c-0.113,0.115-0.179,0.307-0.195,0.574l-0.913-0.092c0.055-0.504,0.225-0.865,0.512-1.086c0.287-0.219,0.646-0.328,1.076-0.328
			c0.472,0,0.842,0.127,1.111,0.381c0.27,0.254,0.404,0.572,0.404,0.949c0,0.215-0.038,0.42-0.115,0.615
			c-0.078,0.193-0.2,0.398-0.367,0.611c-0.11,0.141-0.31,0.344-0.601,0.609c-0.289,0.264-0.472,0.441-0.548,0.527
			c-0.078,0.088-0.14,0.172-0.188,0.254H767.513z"/>
		<path id="XMLID_56_" fill="#FFFFFF" d="M776.041,91.818h-0.915v-3.451c-0.335,0.312-0.729,0.543-1.185,0.693v-0.832
			c0.239-0.078,0.499-0.227,0.779-0.445c0.28-0.217,0.473-0.473,0.577-0.764h0.743V91.818z"/>
		<path id="XMLID_57_" fill="#FFFFFF" d="M779.207,91.818v-0.961h-1.956v-0.803l2.073-3.035h0.771v3.031h0.593v0.807h-0.593v0.961
			H779.207z M779.207,90.051v-1.633l-1.098,1.633H779.207z"/>
		<path id="XMLID_58_" fill="#FFFFFF" d="M789.034,91.818h-0.917v-3.451c-0.335,0.312-0.73,0.543-1.183,0.693v-0.832
			c0.238-0.078,0.498-0.227,0.778-0.445c0.281-0.217,0.473-0.473,0.577-0.764h0.744V91.818z"/>
		<path id="XMLID_59_" fill="#FFFFFF" d="M793.507,88.209l-0.888,0.1c-0.021-0.184-0.078-0.318-0.169-0.406
			c-0.091-0.086-0.209-0.131-0.355-0.131c-0.193,0-0.356,0.088-0.49,0.262c-0.134,0.174-0.218,0.535-0.253,1.086
			c0.229-0.27,0.512-0.404,0.851-0.404c0.383,0,0.711,0.145,0.982,0.438c0.273,0.291,0.41,0.668,0.41,1.127
			c0,0.49-0.144,0.881-0.431,1.178c-0.287,0.295-0.655,0.443-1.106,0.443c-0.481,0-0.879-0.188-1.19-0.562
			c-0.31-0.375-0.465-0.99-0.465-1.844c0-0.877,0.162-1.508,0.485-1.895c0.324-0.387,0.744-0.58,1.262-0.58
			c0.362,0,0.663,0.102,0.901,0.305C793.289,87.527,793.441,87.822,793.507,88.209z M791.431,90.209
			c0,0.297,0.067,0.527,0.205,0.688c0.137,0.164,0.292,0.244,0.469,0.244c0.17,0,0.311-0.066,0.424-0.199
			c0.113-0.133,0.17-0.35,0.17-0.652c0-0.311-0.062-0.539-0.184-0.684c-0.121-0.143-0.272-0.217-0.456-0.217
			c-0.176,0-0.325,0.07-0.446,0.209C791.491,89.734,791.431,89.938,791.431,90.209z"/>
		<path id="XMLID_60_" fill="#FFFFFF" d="M802.025,91.818h-0.916v-3.451c-0.335,0.312-0.729,0.543-1.184,0.693v-0.832
			c0.238-0.078,0.499-0.227,0.779-0.445c0.28-0.217,0.474-0.473,0.577-0.764h0.743V91.818z"/>
		<path id="XMLID_61_" fill="#FFFFFF" d="M804.181,89.24c-0.237-0.101-0.409-0.238-0.517-0.414
			c-0.107-0.174-0.161-0.365-0.161-0.574c0-0.355,0.124-0.652,0.372-0.883c0.249-0.232,0.603-0.35,1.061-0.35
			c0.454,0,0.808,0.117,1.059,0.35c0.251,0.23,0.377,0.527,0.377,0.883c0,0.223-0.06,0.42-0.174,0.592
			c-0.115,0.172-0.276,0.305-0.485,0.396c0.266,0.106,0.467,0.262,0.606,0.467c0.138,0.203,0.206,0.439,0.206,0.707
			c0,0.439-0.141,0.799-0.422,1.076c-0.281,0.275-0.655,0.412-1.123,0.412c-0.435,0-0.797-0.113-1.086-0.342
			c-0.341-0.27-0.513-0.639-0.513-1.109c0-0.258,0.065-0.494,0.192-0.711C803.702,89.523,803.904,89.357,804.181,89.24z
			 M804.285,90.363c0,0.252,0.063,0.449,0.194,0.592c0.13,0.141,0.29,0.211,0.483,0.211c0.19,0,0.346-0.066,0.47-0.203
			c0.123-0.137,0.187-0.332,0.187-0.588c0-0.225-0.065-0.404-0.19-0.541c-0.127-0.137-0.286-0.203-0.479-0.203
			c-0.224,0-0.391,0.078-0.501,0.23C804.34,90.016,804.285,90.184,804.285,90.363z M804.37,88.316c0,0.184,0.051,0.326,0.154,0.428
			c0.104,0.102,0.24,0.154,0.412,0.154c0.174,0,0.312-0.053,0.417-0.156c0.106-0.104,0.157-0.246,0.157-0.428
			c0-0.172-0.052-0.309-0.155-0.414c-0.104-0.104-0.239-0.154-0.408-0.154c-0.177,0-0.317,0.053-0.422,0.156
			C804.422,88.008,804.37,88.145,804.37,88.316z"/>
		<path id="XMLID_62_" fill="#FFFFFF" d="M815.768,90.967v0.852h-3.212c0.035-0.322,0.14-0.627,0.313-0.914
			c0.173-0.289,0.518-0.67,1.03-1.146c0.413-0.385,0.666-0.646,0.759-0.781c0.127-0.189,0.19-0.377,0.19-0.562
			c0-0.203-0.055-0.361-0.164-0.471c-0.11-0.109-0.262-0.164-0.455-0.164c-0.191,0-0.343,0.059-0.456,0.172
			c-0.113,0.115-0.179,0.307-0.195,0.574l-0.913-0.092c0.055-0.504,0.225-0.865,0.511-1.086c0.288-0.219,0.646-0.328,1.077-0.328
			c0.472,0,0.842,0.127,1.111,0.381c0.269,0.254,0.404,0.572,0.404,0.949c0,0.215-0.038,0.42-0.116,0.615
			c-0.077,0.193-0.199,0.398-0.366,0.611c-0.111,0.141-0.311,0.344-0.601,0.609c-0.289,0.264-0.472,0.441-0.549,0.527
			c-0.077,0.088-0.14,0.172-0.188,0.254H815.768z"/>
		<path id="XMLID_63_" fill="#FFFFFF" d="M817.936,87.02c0.463,0,0.824,0.164,1.086,0.496c0.311,0.391,0.466,1.039,0.466,1.945
			c0,0.904-0.156,1.555-0.47,1.951c-0.259,0.324-0.619,0.488-1.082,0.488c-0.466,0-0.84-0.178-1.125-0.537
			c-0.284-0.357-0.427-0.996-0.427-1.912c0-0.9,0.156-1.547,0.47-1.943C817.111,87.182,817.473,87.02,817.936,87.02z
			 M817.936,87.779c-0.11,0-0.21,0.035-0.297,0.106c-0.087,0.07-0.153,0.197-0.202,0.381c-0.062,0.236-0.095,0.635-0.095,1.195
			c0,0.561,0.028,0.947,0.086,1.156c0.055,0.209,0.127,0.35,0.213,0.418c0.085,0.07,0.185,0.105,0.295,0.105
			c0.111,0,0.209-0.035,0.296-0.107c0.087-0.07,0.155-0.195,0.203-0.379c0.062-0.234,0.095-0.633,0.095-1.193
			c0-0.561-0.029-0.945-0.085-1.154c-0.057-0.211-0.129-0.352-0.214-0.422C818.145,87.814,818.047,87.779,817.936,87.779z"/>
		<path id="XMLID_64_" fill="#FFFFFF" d="M828.759,90.967v0.852h-3.211c0.034-0.322,0.14-0.627,0.313-0.914
			c0.174-0.289,0.518-0.67,1.029-1.146c0.414-0.385,0.666-0.646,0.761-0.781c0.126-0.189,0.188-0.377,0.188-0.562
			c0-0.203-0.055-0.361-0.165-0.471c-0.11-0.109-0.261-0.164-0.454-0.164c-0.192,0-0.343,0.059-0.456,0.172
			c-0.113,0.115-0.18,0.307-0.196,0.574l-0.913-0.092c0.055-0.504,0.225-0.865,0.512-1.086c0.288-0.219,0.646-0.328,1.076-0.328
			c0.473,0,0.842,0.127,1.112,0.381c0.268,0.254,0.403,0.572,0.403,0.949c0,0.215-0.038,0.42-0.115,0.615
			c-0.078,0.193-0.199,0.398-0.367,0.611c-0.11,0.141-0.31,0.344-0.599,0.609c-0.29,0.264-0.473,0.441-0.55,0.527
			c-0.078,0.088-0.14,0.172-0.188,0.254H828.759z"/>
		<path id="XMLID_65_" fill="#FFFFFF" d="M832.473,90.967v0.852h-3.212c0.036-0.322,0.14-0.627,0.313-0.914
			c0.174-0.289,0.518-0.67,1.03-1.146c0.413-0.385,0.666-0.646,0.759-0.781c0.127-0.189,0.189-0.377,0.189-0.562
			c0-0.203-0.055-0.361-0.164-0.471c-0.109-0.109-0.262-0.164-0.455-0.164c-0.191,0-0.343,0.059-0.456,0.172
			c-0.113,0.115-0.179,0.307-0.195,0.574l-0.913-0.092c0.055-0.504,0.225-0.865,0.512-1.086c0.287-0.219,0.644-0.328,1.076-0.328
			c0.472,0,0.842,0.127,1.111,0.381c0.269,0.254,0.404,0.572,0.404,0.949c0,0.215-0.038,0.42-0.116,0.615
			c-0.077,0.193-0.199,0.398-0.366,0.611c-0.111,0.141-0.311,0.344-0.6,0.609c-0.29,0.264-0.472,0.441-0.55,0.527
			c-0.077,0.088-0.139,0.172-0.188,0.254H832.473z"/>
		<path id="XMLID_66_" fill="#FFFFFF" d="M841.752,90.967v0.852h-3.213c0.036-0.322,0.141-0.627,0.314-0.914
			c0.173-0.289,0.517-0.67,1.03-1.146c0.412-0.385,0.665-0.646,0.759-0.781c0.126-0.189,0.189-0.377,0.189-0.562
			c0-0.203-0.055-0.361-0.164-0.471c-0.11-0.109-0.263-0.164-0.456-0.164c-0.19,0-0.343,0.059-0.456,0.172
			c-0.113,0.115-0.178,0.307-0.195,0.574l-0.913-0.092c0.055-0.504,0.225-0.865,0.513-1.086c0.286-0.219,0.644-0.328,1.075-0.328
			c0.472,0,0.842,0.127,1.111,0.381c0.27,0.254,0.405,0.572,0.405,0.949c0,0.215-0.039,0.42-0.116,0.615
			c-0.077,0.193-0.2,0.398-0.367,0.611c-0.11,0.141-0.311,0.344-0.6,0.609c-0.29,0.264-0.472,0.441-0.55,0.527
			c-0.077,0.088-0.139,0.172-0.188,0.254H841.752z"/>
		<path id="XMLID_67_" fill="#FFFFFF" d="M844.167,91.818v-0.961h-1.956v-0.803l2.073-3.035h0.769v3.031h0.594v0.807h-0.594v0.961
			H844.167z M844.167,90.051v-1.633l-1.099,1.633H844.167z"/>
	</g>
	<polyline id="XMLID_717_" fill="none" stroke="#FFFFFF" stroke-width="0.8346" stroke-miterlimit="10" points="698.908,68.49 
		698.908,63.066 745.041,63.066 	"/>
	<polyline id="XMLID_716_" fill="none" stroke="#FFFFFF" stroke-width="0.8346" stroke-miterlimit="10" points="842.202,68.49 
		842.202,63.066 796.068,63.066 	"/>
	<g id="XMLID_68_">
		<linearGradient id="XMLID_87_" gradientUnits="userSpaceOnUse" x1="695.5762" y1="80.4531" x2="704.3398" y2="80.4531">
			<stop  offset="0" style="stop-color:#4D4D4D"/>
			<stop  offset="1" style="stop-color:#333333"/>
		</linearGradient>
		<path id="XMLID_715_" fill="url(#XMLID_87_)" d="M704.34,80.453c0,0.691-0.561,1.252-1.252,1.252h-6.26
			c-0.692,0-1.252-0.561-1.252-1.252l0,0c0-0.691,0.56-1.252,1.252-1.252h6.26C703.779,79.201,704.34,79.762,704.34,80.453
			L704.34,80.453z"/>
		<linearGradient id="XMLID_88_" gradientUnits="userSpaceOnUse" x1="708.4864" y1="80.4531" x2="717.25" y2="80.4531">
			<stop  offset="0" style="stop-color:#4D4D4D"/>
			<stop  offset="1" style="stop-color:#333333"/>
		</linearGradient>
		<path id="XMLID_714_" fill="url(#XMLID_88_)" d="M717.25,80.453c0,0.691-0.561,1.252-1.252,1.252h-6.26
			c-0.691,0-1.252-0.561-1.252-1.252l0,0c0-0.691,0.56-1.252,1.252-1.252h6.26C716.689,79.201,717.25,79.762,717.25,80.453
			L717.25,80.453z"/>
		<linearGradient id="XMLID_89_" gradientUnits="userSpaceOnUse" x1="721.3965" y1="80.4531" x2="730.1602" y2="80.4531">
			<stop  offset="0" style="stop-color:#4D4D4D"/>
			<stop  offset="1" style="stop-color:#333333"/>
		</linearGradient>
		<path id="XMLID_713_" fill="url(#XMLID_89_)" d="M730.16,80.453c0,0.691-0.561,1.252-1.252,1.252h-6.26
			c-0.693,0-1.252-0.561-1.252-1.252l0,0c0-0.691,0.559-1.252,1.252-1.252h6.26C729.6,79.201,730.16,79.762,730.16,80.453
			L730.16,80.453z"/>
		<linearGradient id="XMLID_90_" gradientUnits="userSpaceOnUse" x1="734.3066" y1="80.4531" x2="743.0703" y2="80.4531">
			<stop  offset="0" style="stop-color:#4D4D4D"/>
			<stop  offset="1" style="stop-color:#333333"/>
		</linearGradient>
		<path id="XMLID_712_" fill="url(#XMLID_90_)" d="M743.07,80.453c0,0.691-0.56,1.252-1.252,1.252h-6.26
			c-0.693,0-1.252-0.561-1.252-1.252l0,0c0-0.691,0.559-1.252,1.252-1.252h6.26C742.51,79.201,743.07,79.762,743.07,80.453
			L743.07,80.453z"/>
		<linearGradient id="XMLID_91_" gradientUnits="userSpaceOnUse" x1="747.2167" y1="80.4531" x2="755.9805" y2="80.4531">
			<stop  offset="0" style="stop-color:#4D4D4D"/>
			<stop  offset="1" style="stop-color:#333333"/>
		</linearGradient>
		<path id="XMLID_711_" fill="url(#XMLID_91_)" d="M755.98,80.453c0,0.691-0.561,1.252-1.252,1.252h-6.26
			c-0.693,0-1.252-0.561-1.252-1.252l0,0c0-0.691,0.559-1.252,1.252-1.252h6.26C755.42,79.201,755.98,79.762,755.98,80.453
			L755.98,80.453z"/>
		<linearGradient id="XMLID_92_" gradientUnits="userSpaceOnUse" x1="760.127" y1="80.4531" x2="768.8896" y2="80.4531">
			<stop  offset="0" style="stop-color:#4D4D4D"/>
			<stop  offset="1" style="stop-color:#333333"/>
		</linearGradient>
		<path id="XMLID_710_" fill="url(#XMLID_92_)" d="M768.89,80.453c0,0.691-0.561,1.252-1.251,1.252h-6.261
			c-0.692,0-1.251-0.561-1.251-1.252l0,0c0-0.691,0.56-1.252,1.251-1.252h6.261C768.329,79.201,768.89,79.762,768.89,80.453
			L768.89,80.453z"/>
		<linearGradient id="XMLID_93_" gradientUnits="userSpaceOnUse" x1="773.037" y1="80.4531" x2="781.8008" y2="80.4531">
			<stop  offset="0" style="stop-color:#4D4D4D"/>
			<stop  offset="1" style="stop-color:#333333"/>
		</linearGradient>
		<path id="XMLID_709_" fill="url(#XMLID_93_)" d="M781.801,80.453c0,0.691-0.561,1.252-1.252,1.252h-6.26
			c-0.692,0-1.252-0.561-1.252-1.252l0,0c0-0.691,0.56-1.252,1.252-1.252h6.26C781.24,79.201,781.801,79.762,781.801,80.453
			L781.801,80.453z"/>
		<linearGradient id="XMLID_94_" gradientUnits="userSpaceOnUse" x1="785.9462" y1="80.4531" x2="794.71" y2="80.4531">
			<stop  offset="0" style="stop-color:#4D4D4D"/>
			<stop  offset="1" style="stop-color:#333333"/>
		</linearGradient>
		<path id="XMLID_708_" fill="url(#XMLID_94_)" d="M794.71,80.453c0,0.691-0.561,1.252-1.252,1.252h-6.259
			c-0.693,0-1.253-0.561-1.253-1.252l0,0c0-0.691,0.56-1.252,1.253-1.252h6.259C794.149,79.201,794.71,79.762,794.71,80.453
			L794.71,80.453z"/>
		<linearGradient id="XMLID_95_" gradientUnits="userSpaceOnUse" x1="798.8574" y1="80.4531" x2="807.6201" y2="80.4531">
			<stop  offset="0" style="stop-color:#4D4D4D"/>
			<stop  offset="1" style="stop-color:#333333"/>
		</linearGradient>
		<path id="XMLID_707_" fill="url(#XMLID_95_)" d="M807.62,80.453c0,0.691-0.56,1.252-1.251,1.252h-6.26
			c-0.692,0-1.252-0.561-1.252-1.252l0,0c0-0.691,0.56-1.252,1.252-1.252h6.26C807.06,79.201,807.62,79.762,807.62,80.453
			L807.62,80.453z"/>
		<linearGradient id="XMLID_96_" gradientUnits="userSpaceOnUse" x1="811.7676" y1="80.4531" x2="820.5312" y2="80.4531">
			<stop  offset="0" style="stop-color:#4D4D4D"/>
			<stop  offset="1" style="stop-color:#333333"/>
		</linearGradient>
		<path id="XMLID_706_" fill="url(#XMLID_96_)" d="M820.531,80.453c0,0.691-0.561,1.252-1.252,1.252h-6.259
			c-0.693,0-1.253-0.561-1.253-1.252l0,0c0-0.691,0.56-1.252,1.253-1.252h6.259C819.971,79.201,820.531,79.762,820.531,80.453
			L820.531,80.453z"/>
		<linearGradient id="XMLID_97_" gradientUnits="userSpaceOnUse" x1="824.6777" y1="80.4531" x2="833.4413" y2="80.4531">
			<stop  offset="0" style="stop-color:#4D4D4D"/>
			<stop  offset="1" style="stop-color:#333333"/>
		</linearGradient>
		<path id="XMLID_705_" fill="url(#XMLID_97_)" d="M833.441,80.453c0,0.691-0.56,1.252-1.253,1.252h-6.259
			c-0.693,0-1.252-0.561-1.252-1.252l0,0c0-0.691,0.559-1.252,1.252-1.252h6.259C832.881,79.201,833.441,79.762,833.441,80.453
			L833.441,80.453z"/>
		<linearGradient id="XMLID_98_" gradientUnits="userSpaceOnUse" x1="837.584" y1="80.4531" x2="846.3477" y2="80.4531">
			<stop  offset="0" style="stop-color:#4D4D4D"/>
			<stop  offset="1" style="stop-color:#333333"/>
		</linearGradient>
		<path id="XMLID_704_" fill="url(#XMLID_98_)" d="M846.348,80.453c0,0.691-0.561,1.252-1.252,1.252h-6.259
			c-0.693,0-1.253-0.561-1.253-1.252l0,0c0-0.691,0.56-1.252,1.253-1.252h6.259C845.787,79.201,846.348,79.762,846.348,80.453
			L846.348,80.453z"/>
	</g>
	<g id="XMLID_69_">
		<linearGradient id="XMLID_99_" gradientUnits="userSpaceOnUse" x1="695.5762" y1="95.754" x2="704.3398" y2="95.754">
			<stop  offset="0" style="stop-color:#4D4D4D"/>
			<stop  offset="1" style="stop-color:#333333"/>
		</linearGradient>
		<path id="XMLID_703_" fill="url(#XMLID_99_)" d="M704.34,95.754c0,0.691-0.561,1.252-1.252,1.252h-6.26
			c-0.692,0-1.252-0.561-1.252-1.252l0,0c0-0.689,0.56-1.252,1.252-1.252h6.26C703.779,94.502,704.34,95.064,704.34,95.754
			L704.34,95.754z"/>
		<linearGradient id="XMLID_100_" gradientUnits="userSpaceOnUse" x1="708.4864" y1="95.754" x2="717.25" y2="95.754">
			<stop  offset="0" style="stop-color:#4D4D4D"/>
			<stop  offset="1" style="stop-color:#333333"/>
		</linearGradient>
		<path id="XMLID_702_" fill="url(#XMLID_100_)" d="M717.25,95.754c0,0.691-0.561,1.252-1.252,1.252h-6.26
			c-0.691,0-1.252-0.561-1.252-1.252l0,0c0-0.689,0.56-1.252,1.252-1.252h6.26C716.689,94.502,717.25,95.064,717.25,95.754
			L717.25,95.754z"/>
		<linearGradient id="XMLID_101_" gradientUnits="userSpaceOnUse" x1="721.3965" y1="95.754" x2="730.1602" y2="95.754">
			<stop  offset="0" style="stop-color:#4D4D4D"/>
			<stop  offset="1" style="stop-color:#333333"/>
		</linearGradient>
		<path id="XMLID_701_" fill="url(#XMLID_101_)" d="M730.16,95.754c0,0.691-0.561,1.252-1.252,1.252h-6.26
			c-0.693,0-1.252-0.561-1.252-1.252l0,0c0-0.689,0.559-1.252,1.252-1.252h6.26C729.6,94.502,730.16,95.064,730.16,95.754
			L730.16,95.754z"/>
		<linearGradient id="XMLID_102_" gradientUnits="userSpaceOnUse" x1="734.3066" y1="95.754" x2="743.0703" y2="95.754">
			<stop  offset="0" style="stop-color:#4D4D4D"/>
			<stop  offset="1" style="stop-color:#333333"/>
		</linearGradient>
		<path id="XMLID_700_" fill="url(#XMLID_102_)" d="M743.07,95.754c0,0.691-0.56,1.252-1.252,1.252h-6.26
			c-0.693,0-1.252-0.561-1.252-1.252l0,0c0-0.689,0.559-1.252,1.252-1.252h6.26C742.51,94.502,743.07,95.064,743.07,95.754
			L743.07,95.754z"/>
		<linearGradient id="XMLID_103_" gradientUnits="userSpaceOnUse" x1="747.2167" y1="95.754" x2="755.9805" y2="95.754">
			<stop  offset="0" style="stop-color:#4D4D4D"/>
			<stop  offset="1" style="stop-color:#333333"/>
		</linearGradient>
		<path id="XMLID_699_" fill="url(#XMLID_103_)" d="M755.98,95.754c0,0.691-0.561,1.252-1.252,1.252h-6.26
			c-0.693,0-1.252-0.561-1.252-1.252l0,0c0-0.689,0.559-1.252,1.252-1.252h6.26C755.42,94.502,755.98,95.064,755.98,95.754
			L755.98,95.754z"/>
		<linearGradient id="XMLID_104_" gradientUnits="userSpaceOnUse" x1="760.127" y1="95.754" x2="768.8896" y2="95.754">
			<stop  offset="0" style="stop-color:#4D4D4D"/>
			<stop  offset="1" style="stop-color:#333333"/>
		</linearGradient>
		<path id="XMLID_698_" fill="url(#XMLID_104_)" d="M768.89,95.754c0,0.691-0.561,1.252-1.251,1.252h-6.261
			c-0.692,0-1.251-0.561-1.251-1.252l0,0c0-0.689,0.56-1.252,1.251-1.252h6.261C768.329,94.502,768.89,95.064,768.89,95.754
			L768.89,95.754z"/>
		<linearGradient id="XMLID_105_" gradientUnits="userSpaceOnUse" x1="773.037" y1="95.754" x2="781.8008" y2="95.754">
			<stop  offset="0" style="stop-color:#4D4D4D"/>
			<stop  offset="1" style="stop-color:#333333"/>
		</linearGradient>
		<path id="XMLID_697_" fill="url(#XMLID_105_)" d="M781.801,95.754c0,0.691-0.561,1.252-1.252,1.252h-6.26
			c-0.692,0-1.252-0.561-1.252-1.252l0,0c0-0.689,0.56-1.252,1.252-1.252h6.26C781.24,94.502,781.801,95.064,781.801,95.754
			L781.801,95.754z"/>
		<linearGradient id="XMLID_106_" gradientUnits="userSpaceOnUse" x1="785.9462" y1="95.754" x2="794.71" y2="95.754">
			<stop  offset="0" style="stop-color:#4D4D4D"/>
			<stop  offset="1" style="stop-color:#333333"/>
		</linearGradient>
		<path id="XMLID_696_" fill="url(#XMLID_106_)" d="M794.71,95.754c0,0.691-0.561,1.252-1.252,1.252h-6.259
			c-0.693,0-1.253-0.561-1.253-1.252l0,0c0-0.689,0.56-1.252,1.253-1.252h6.259C794.149,94.502,794.71,95.064,794.71,95.754
			L794.71,95.754z"/>
		<linearGradient id="XMLID_107_" gradientUnits="userSpaceOnUse" x1="798.8574" y1="95.754" x2="807.6201" y2="95.754">
			<stop  offset="0" style="stop-color:#4D4D4D"/>
			<stop  offset="1" style="stop-color:#333333"/>
		</linearGradient>
		<path id="XMLID_695_" fill="url(#XMLID_107_)" d="M807.62,95.754c0,0.691-0.56,1.252-1.251,1.252h-6.26
			c-0.692,0-1.252-0.561-1.252-1.252l0,0c0-0.689,0.56-1.252,1.252-1.252h6.26C807.06,94.502,807.62,95.064,807.62,95.754
			L807.62,95.754z"/>
		<linearGradient id="XMLID_108_" gradientUnits="userSpaceOnUse" x1="811.7676" y1="95.754" x2="820.5312" y2="95.754">
			<stop  offset="0" style="stop-color:#4D4D4D"/>
			<stop  offset="1" style="stop-color:#333333"/>
		</linearGradient>
		<path id="XMLID_694_" fill="url(#XMLID_108_)" d="M820.531,95.754c0,0.691-0.561,1.252-1.252,1.252h-6.259
			c-0.693,0-1.253-0.561-1.253-1.252l0,0c0-0.689,0.56-1.252,1.253-1.252h6.259C819.971,94.502,820.531,95.064,820.531,95.754
			L820.531,95.754z"/>
		<linearGradient id="XMLID_109_" gradientUnits="userSpaceOnUse" x1="824.6777" y1="95.754" x2="833.4413" y2="95.754">
			<stop  offset="0" style="stop-color:#4D4D4D"/>
			<stop  offset="1" style="stop-color:#333333"/>
		</linearGradient>
		<path id="XMLID_693_" fill="url(#XMLID_109_)" d="M833.441,95.754c0,0.691-0.56,1.252-1.253,1.252h-6.259
			c-0.693,0-1.252-0.561-1.252-1.252l0,0c0-0.689,0.559-1.252,1.252-1.252h6.259C832.881,94.502,833.441,95.064,833.441,95.754
			L833.441,95.754z"/>
		<linearGradient id="XMLID_110_" gradientUnits="userSpaceOnUse" x1="837.584" y1="95.754" x2="846.3477" y2="95.754">
			<stop  offset="0" style="stop-color:#4D4D4D"/>
			<stop  offset="1" style="stop-color:#333333"/>
		</linearGradient>
		<path id="XMLID_692_" fill="url(#XMLID_110_)" d="M846.348,95.754c0,0.691-0.561,1.252-1.252,1.252h-6.259
			c-0.693,0-1.253-0.561-1.253-1.252l0,0c0-0.689,0.56-1.252,1.253-1.252h6.259C845.787,94.502,846.348,95.064,846.348,95.754
			L846.348,95.754z"/>
	</g>
	
		<line id="XMLID_691_" fill="none" stroke="#FFFFFF" stroke-width="0.8346" stroke-miterlimit="10" x1="849.507" y1="81.148" x2="857.019" y2="81.148"/>
	<polyline id="XMLID_690_" fill="none" stroke="#FFFFFF" stroke-width="0.8346" stroke-miterlimit="10" points="848.673,95.754 
		853.264,95.754 853.264,81.705 	"/>
	<linearGradient id="XMLID_111_" gradientUnits="userSpaceOnUse" x1="876.6729" y1="95.754" x2="885.4365" y2="95.754">
		<stop  offset="0" style="stop-color:#4D4D4D"/>
		<stop  offset="1" style="stop-color:#333333"/>
	</linearGradient>
	<path id="XMLID_689_" fill="url(#XMLID_111_)" d="M885.436,95.754c0,0.691-0.56,1.252-1.252,1.252h-6.26
		c-0.692,0-1.252-0.561-1.252-1.252l0,0c0-0.689,0.56-1.252,1.252-1.252h6.26C884.876,94.502,885.436,95.064,885.436,95.754
		L885.436,95.754z"/>
	<g id="XMLID_70_">
		<path id="XMLID_71_" fill="#FFFFFF" d="M887.066,97.914v-4.111h1.332c0.505,0,0.834,0.022,0.987,0.062
			c0.235,0.062,0.433,0.197,0.591,0.402c0.159,0.205,0.239,0.475,0.239,0.801c0,0.252-0.047,0.465-0.139,0.637
			c-0.091,0.172-0.207,0.307-0.349,0.404c-0.142,0.098-0.284,0.164-0.431,0.195c-0.197,0.039-0.484,0.059-0.86,0.059h-0.541v1.551
			H887.066z M887.896,94.498v1.168h0.454c0.327,0,0.546-0.021,0.656-0.064c0.111-0.043,0.197-0.111,0.259-0.201
			c0.062-0.094,0.095-0.199,0.095-0.32c0-0.15-0.044-0.273-0.132-0.371c-0.089-0.098-0.199-0.158-0.333-0.182
			c-0.101-0.02-0.299-0.029-0.599-0.029H887.896z"/>
		<path id="XMLID_72_" fill="#FFFFFF" d="M890.709,96.383c0-0.262,0.063-0.514,0.193-0.76c0.129-0.244,0.312-0.432,0.548-0.561
			c0.236-0.129,0.5-0.193,0.792-0.193c0.451,0,0.82,0.146,1.107,0.438c0.289,0.293,0.433,0.664,0.433,1.111
			c0,0.449-0.146,0.822-0.437,1.119c-0.29,0.297-0.656,0.445-1.098,0.445c-0.273,0-0.532-0.062-0.78-0.186
			c-0.248-0.123-0.437-0.305-0.565-0.543C890.772,97.016,890.709,96.725,890.709,96.383z M891.516,96.426
			c0,0.295,0.07,0.522,0.211,0.678c0.14,0.156,0.312,0.236,0.518,0.236c0.206,0,0.378-0.08,0.518-0.236
			c0.139-0.156,0.209-0.385,0.209-0.684c0-0.291-0.07-0.516-0.209-0.672c-0.14-0.158-0.311-0.236-0.518-0.236
			c-0.206,0-0.379,0.078-0.518,0.236C891.586,95.904,891.516,96.131,891.516,96.426z"/>
		<path id="XMLID_73_" fill="#FFFFFF" d="M894.954,97.914l-0.942-2.979h0.766l0.558,1.953l0.514-1.953h0.76l0.497,1.953l0.568-1.953
			h0.777l-0.956,2.979h-0.757l-0.515-1.916l-0.504,1.916H894.954z"/>
		<path id="XMLID_74_" fill="#FFFFFF" d="M900.589,96.967l0.786,0.131c-0.101,0.289-0.261,0.508-0.479,0.658
			c-0.217,0.15-0.489,0.227-0.817,0.227c-0.518,0-0.9-0.17-1.149-0.508c-0.196-0.271-0.295-0.613-0.295-1.027
			c0-0.494,0.13-0.879,0.387-1.158c0.26-0.279,0.585-0.42,0.979-0.42c0.443,0,0.792,0.146,1.049,0.438
			c0.256,0.293,0.378,0.742,0.367,1.346h-1.975c0.007,0.234,0.069,0.416,0.19,0.545c0.121,0.131,0.273,0.195,0.455,0.195
			c0.123,0,0.228-0.033,0.312-0.102C900.483,97.225,900.547,97.117,900.589,96.967z M900.635,96.17
			c-0.005-0.229-0.065-0.4-0.177-0.52c-0.112-0.119-0.248-0.178-0.409-0.178c-0.173,0-0.314,0.061-0.426,0.188
			c-0.112,0.125-0.168,0.295-0.166,0.51H900.635z"/>
		<path id="XMLID_75_" fill="#FFFFFF" d="M902.813,97.914h-0.788v-2.979h0.732v0.424c0.125-0.199,0.238-0.332,0.338-0.395
			c0.101-0.062,0.214-0.096,0.34-0.096c0.181,0,0.352,0.049,0.52,0.148l-0.244,0.688c-0.133-0.086-0.256-0.129-0.37-0.129
			c-0.109,0-0.203,0.029-0.28,0.092c-0.077,0.059-0.137,0.17-0.182,0.328c-0.043,0.16-0.065,0.492-0.065,1V97.914z"/>
	</g>
	<g id="XMLID_76_">
		<path id="XMLID_77_" fill="#FFFFFF" d="M859.045,82.807V78.73h0.829v3.383h2.063v0.693H859.045z"/>
		<path id="XMLID_78_" fill="#FFFFFF" d="M862.524,79.426v-0.73h0.788v0.73H862.524z M862.524,82.807v-2.979h0.788v2.979H862.524z"
			/>
		<path id="XMLID_79_" fill="#FFFFFF" d="M866.828,82.807h-0.788v-1.52c0-0.322-0.016-0.529-0.051-0.625
			c-0.033-0.094-0.088-0.166-0.163-0.219c-0.076-0.053-0.167-0.078-0.273-0.078c-0.137,0-0.26,0.035-0.367,0.111
			c-0.108,0.074-0.184,0.172-0.223,0.297c-0.041,0.123-0.06,0.352-0.06,0.684v1.35h-0.789v-2.979h0.732v0.438
			c0.261-0.336,0.588-0.504,0.982-0.504c0.174,0,0.333,0.031,0.477,0.094c0.143,0.062,0.252,0.143,0.325,0.238
			c0.074,0.1,0.126,0.209,0.155,0.332c0.028,0.123,0.043,0.299,0.043,0.529V82.807z"/>
		<path id="XMLID_80_" fill="#FFFFFF" d="M867.599,82.807v-4.111h0.788v2.182l0.923-1.049h0.971l-1.018,1.088l1.091,1.891h-0.85
			l-0.748-1.338l-0.368,0.383v0.955H867.599z"/>
		<path id="XMLID_81_" fill="#FFFFFF" d="M870.4,82.877l1.018-4.25h0.592l-1.029,4.25H870.4z"/>
		<path id="XMLID_82_" fill="#FFFFFF" d="M876.129,82.807h-0.902l-0.359-0.934h-1.643l-0.34,0.934h-0.88l1.601-4.111h0.878
			L876.129,82.807z M874.602,81.18l-0.566-1.525l-0.555,1.525H874.602z"/>
		<path id="XMLID_83_" fill="#FFFFFF" d="M879.16,80.709l-0.777,0.141c-0.026-0.156-0.085-0.271-0.177-0.35
			c-0.093-0.08-0.214-0.119-0.36-0.119c-0.197,0-0.354,0.068-0.47,0.203c-0.117,0.137-0.176,0.363-0.176,0.68
			c0,0.354,0.059,0.604,0.178,0.748c0.12,0.146,0.278,0.221,0.478,0.221c0.149,0,0.272-0.043,0.366-0.129
			c0.097-0.084,0.163-0.23,0.203-0.438l0.773,0.131c-0.08,0.355-0.234,0.623-0.462,0.805c-0.229,0.182-0.534,0.271-0.917,0.271
			c-0.437,0-0.783-0.137-1.042-0.412c-0.259-0.273-0.389-0.654-0.389-1.141c0-0.492,0.13-0.875,0.391-1.148
			c0.259-0.273,0.611-0.41,1.054-0.41c0.363,0,0.651,0.078,0.865,0.234C878.913,80.152,879.067,80.389,879.16,80.709z"/>
		<path id="XMLID_84_" fill="#FFFFFF" d="M881.123,79.828v0.629h-0.538v1.199c0,0.244,0.005,0.385,0.017,0.426
			c0.009,0.039,0.033,0.072,0.069,0.1c0.035,0.025,0.081,0.039,0.133,0.039c0.073,0,0.179-0.025,0.317-0.076l0.067,0.611
			c-0.185,0.078-0.391,0.117-0.623,0.117c-0.143,0-0.27-0.023-0.384-0.07c-0.115-0.049-0.197-0.109-0.251-0.185
			c-0.053-0.076-0.091-0.18-0.111-0.307c-0.017-0.092-0.025-0.277-0.025-0.555v-1.299h-0.361v-0.629h0.361v-0.59l0.791-0.461v1.051
			H881.123z"/>
	</g>
</g>
<g id="XMLID_670_">
	<rect id="XMLID_801_" x="48.529" y="27.055" fill="#888888" width="171.333" height="75.162"/>
	<path id="XMLID_798_" fill="#231815" d="M218.862,28.055v73.162H49.529V28.055H218.862 M220.862,26.055h-2H49.529h-2v2v73.162v2h2
		h169.333h2v-2V28.055V26.055L220.862,26.055z"/>
</g>
<g id="XMLID_469_">
	<rect id="XMLID_805_" x="247.196" y="27.055" fill="#888888" width="171.333" height="75.162"/>
	<path id="XMLID_802_" fill="#231815" d="M417.529,28.055v73.162H248.196V28.055H417.529 M419.529,26.055h-2H248.196h-2v2v73.162v2
		h2h169.333h2v-2V28.055V26.055L419.529,26.055z"/>
</g>
<g id="XMLID_268_">
	<rect id="XMLID_809_" x="445.862" y="27.055" fill="#888888" width="171.333" height="75.162"/>
	<path id="XMLID_806_" fill="#231815" d="M616.195,28.055v73.162H446.862V28.055H616.195 M618.195,26.055h-2H446.862h-2v2v73.162v2
		h2h169.333h2v-2V28.055V26.055L618.195,26.055z"/>
</g>
<g id="XMLID_1078_">
	<path id="XMLID_1079_" fill="#FFFFFF" d="M75.091,22.19h-0.917v-3.451c-0.335,0.312-0.729,0.545-1.183,0.695v-0.832
		c0.238-0.078,0.499-0.227,0.779-0.445c0.28-0.219,0.473-0.475,0.576-0.764h0.744V22.19z"/>
	<path id="XMLID_1081_" fill="#FFFFFF" d="M112.665,20.922l0.888-0.107c0.028,0.226,0.104,0.398,0.228,0.519
		c0.124,0.119,0.274,0.178,0.45,0.178c0.189,0,0.349-0.07,0.478-0.215c0.13-0.143,0.193-0.336,0.193-0.58
		c0-0.231-0.062-0.412-0.185-0.547c-0.125-0.135-0.275-0.203-0.454-0.203c-0.117,0-0.257,0.023-0.421,0.068l0.102-0.746
		c0.248,0.006,0.438-0.047,0.567-0.162c0.131-0.113,0.195-0.266,0.195-0.455c0-0.16-0.048-0.289-0.144-0.383
		c-0.095-0.096-0.223-0.145-0.382-0.145c-0.155,0-0.289,0.055-0.4,0.162c-0.11,0.109-0.178,0.267-0.202,0.476l-0.844-0.143
		c0.059-0.289,0.147-0.52,0.266-0.693c0.117-0.174,0.283-0.309,0.495-0.408c0.212-0.098,0.449-0.147,0.712-0.147
		c0.45,0,0.812,0.143,1.083,0.43c0.224,0.234,0.336,0.5,0.336,0.795c0,0.42-0.229,0.754-0.688,1.004
		c0.274,0.059,0.493,0.19,0.657,0.395c0.164,0.205,0.246,0.451,0.246,0.74c0,0.42-0.153,0.777-0.46,1.072
		c-0.307,0.297-0.688,0.443-1.145,0.443c-0.432,0-0.791-0.125-1.075-0.373C112.877,21.65,112.711,21.324,112.665,20.922z"/>
	<path id="XMLID_1083_" fill="#FFFFFF" d="M152.695,20.961l0.913-0.094c0.025,0.205,0.103,0.369,0.232,0.49
		c0.127,0.121,0.276,0.182,0.443,0.182c0.191,0,0.353-0.078,0.485-0.234c0.133-0.154,0.198-0.389,0.198-0.701
		c0-0.295-0.065-0.514-0.197-0.66c-0.131-0.146-0.302-0.221-0.513-0.221c-0.264,0-0.499,0.117-0.708,0.35l-0.743-0.107l0.47-2.488
		h2.422v0.857h-1.727l-0.144,0.811c0.205-0.1,0.413-0.152,0.626-0.152c0.406,0,0.751,0.146,1.034,0.443
		c0.282,0.295,0.423,0.68,0.423,1.15c0,0.394-0.113,0.746-0.342,1.055c-0.311,0.42-0.743,0.631-1.295,0.631
		c-0.441,0-0.801-0.117-1.078-0.354C152.916,21.68,152.75,21.361,152.695,20.961z"/>
	<path id="XMLID_1085_" fill="#FFFFFF" d="M192.35,18.328v-0.851h3.134v0.664c-0.259,0.256-0.521,0.621-0.789,1.096
		c-0.268,0.477-0.471,0.983-0.611,1.518c-0.141,0.535-0.209,1.016-0.207,1.436h-0.884c0.016-0.66,0.152-1.332,0.409-2.02
		c0.258-0.688,0.603-1.303,1.032-1.842H192.35z"/>
	<path id="XMLID_1087_" fill="#FFFFFF" d="M270.507,21.086l0.887-0.1c0.022,0.182,0.079,0.315,0.17,0.402
		c0.091,0.088,0.212,0.131,0.361,0.131c0.189,0,0.351-0.088,0.482-0.262c0.133-0.174,0.218-0.533,0.254-1.082
		c-0.229,0.268-0.518,0.4-0.863,0.4c-0.376,0-0.7-0.145-0.973-0.436c-0.273-0.289-0.409-0.666-0.409-1.133
		c0-0.484,0.144-0.875,0.433-1.17c0.287-0.299,0.653-0.445,1.1-0.445c0.484,0,0.882,0.186,1.193,0.562
		c0.311,0.373,0.466,0.99,0.466,1.85c0,0.873-0.163,1.504-0.485,1.891c-0.324,0.387-0.746,0.58-1.265,0.58
		c-0.375,0-0.677-0.1-0.907-0.299C270.72,21.779,270.572,21.48,270.507,21.086z M272.581,19.084c0-0.295-0.068-0.525-0.204-0.688
		c-0.137-0.164-0.293-0.244-0.472-0.244c-0.169,0-0.311,0.066-0.422,0.199c-0.111,0.135-0.168,0.353-0.168,0.656
		c0,0.311,0.061,0.537,0.183,0.682c0.121,0.142,0.274,0.217,0.456,0.217c0.176,0,0.325-0.07,0.445-0.209
		C272.52,19.557,272.581,19.354,272.581,19.084z"/>
	<path id="XMLID_1090_" fill="#FFFFFF" d="M311.223,22.19h-0.916v-3.451c-0.335,0.312-0.729,0.545-1.184,0.695v-0.832
		c0.239-0.078,0.499-0.227,0.779-0.445c0.28-0.219,0.474-0.475,0.578-0.764h0.742V22.19z"/>
	<path id="XMLID_1092_" fill="#FFFFFF" d="M314.568,22.19h-0.917v-3.451c-0.335,0.312-0.728,0.545-1.183,0.695v-0.832
		c0.238-0.078,0.499-0.227,0.779-0.445c0.28-0.219,0.473-0.475,0.576-0.764h0.744V22.19z"/>
	<path id="XMLID_1094_" fill="#FFFFFF" d="M349.832,22.19h-0.916v-3.451c-0.335,0.312-0.73,0.545-1.185,0.695v-0.832
		c0.239-0.078,0.499-0.227,0.779-0.445c0.28-0.219,0.473-0.475,0.577-0.764h0.744V22.19z"/>
	<path id="XMLID_1096_" fill="#FFFFFF" d="M351.168,20.922l0.887-0.107c0.028,0.226,0.105,0.398,0.229,0.519
		c0.124,0.119,0.273,0.178,0.45,0.178c0.189,0,0.348-0.07,0.478-0.215c0.129-0.143,0.194-0.336,0.194-0.58
		c0-0.231-0.062-0.412-0.186-0.547c-0.123-0.135-0.274-0.203-0.453-0.203c-0.117,0-0.258,0.023-0.42,0.068l0.101-0.746
		c0.248,0.006,0.437-0.047,0.567-0.162c0.13-0.113,0.196-0.266,0.196-0.455c0-0.16-0.049-0.289-0.145-0.383
		c-0.095-0.096-0.222-0.145-0.381-0.145c-0.157,0-0.291,0.055-0.401,0.162c-0.111,0.109-0.179,0.267-0.202,0.476l-0.845-0.143
		c0.059-0.289,0.147-0.52,0.266-0.693c0.119-0.174,0.284-0.309,0.496-0.408c0.212-0.098,0.448-0.147,0.713-0.147
		c0.449,0,0.81,0.143,1.082,0.43c0.225,0.234,0.336,0.5,0.336,0.795c0,0.42-0.23,0.754-0.688,1.004
		c0.274,0.059,0.494,0.19,0.657,0.395c0.163,0.205,0.246,0.451,0.246,0.74c0,0.42-0.153,0.777-0.46,1.072
		c-0.306,0.297-0.688,0.443-1.143,0.443c-0.434,0-0.792-0.125-1.077-0.373C351.379,21.65,351.214,21.324,351.168,20.922z"/>
	<path id="XMLID_1098_" fill="#FFFFFF" d="M390.258,22.19h-0.915v-3.451c-0.335,0.312-0.73,0.545-1.185,0.695v-0.832
		c0.239-0.078,0.499-0.227,0.779-0.445c0.281-0.219,0.474-0.475,0.578-0.764h0.742V22.19z"/>
	<path id="XMLID_1100_" fill="#FFFFFF" d="M391.641,20.961l0.913-0.094c0.026,0.205,0.104,0.369,0.231,0.49
		c0.128,0.121,0.276,0.182,0.443,0.182c0.192,0,0.353-0.078,0.485-0.234c0.134-0.154,0.199-0.389,0.199-0.701
		c0-0.295-0.065-0.514-0.197-0.66c-0.131-0.146-0.303-0.221-0.514-0.221c-0.264,0-0.498,0.117-0.707,0.35l-0.743-0.107l0.47-2.488
		h2.421v0.857h-1.727l-0.145,0.811c0.205-0.1,0.414-0.152,0.627-0.152c0.406,0,0.751,0.146,1.033,0.443
		c0.283,0.295,0.424,0.68,0.424,1.15c0,0.394-0.114,0.746-0.342,1.055c-0.311,0.42-0.743,0.631-1.295,0.631
		c-0.441,0-0.801-0.117-1.079-0.354C391.862,21.68,391.695,21.361,391.641,20.961z"/>
	<path id="XMLID_1102_" fill="#FFFFFF" d="M468.161,22.19h-0.916v-3.451c-0.335,0.312-0.729,0.545-1.184,0.695v-0.832
		c0.238-0.078,0.498-0.227,0.778-0.445c0.28-0.219,0.473-0.475,0.577-0.764h0.744V22.19z"/>
	<path id="XMLID_1104_" fill="#FFFFFF" d="M469.53,18.328v-0.851h3.133v0.664c-0.258,0.256-0.521,0.621-0.789,1.096
		c-0.267,0.477-0.471,0.983-0.611,1.518c-0.14,0.535-0.21,1.016-0.207,1.436h-0.883c0.015-0.66,0.151-1.332,0.408-2.02
		c0.258-0.688,0.602-1.303,1.032-1.842H469.53z"/>
	<path id="XMLID_1106_" fill="#FFFFFF" d="M505.248,22.19h-0.916v-3.451c-0.335,0.312-0.729,0.545-1.183,0.695v-0.832
		c0.238-0.078,0.499-0.227,0.779-0.445c0.28-0.219,0.473-0.475,0.576-0.764h0.743V22.19z"/>
	<path id="XMLID_1108_" fill="#FFFFFF" d="M506.638,21.086l0.886-0.1c0.022,0.182,0.078,0.315,0.17,0.402s0.212,0.131,0.361,0.131
		c0.19,0,0.351-0.088,0.483-0.262c0.132-0.174,0.217-0.533,0.254-1.082c-0.231,0.268-0.519,0.4-0.863,0.4
		c-0.377,0-0.7-0.145-0.974-0.436c-0.273-0.289-0.409-0.666-0.409-1.133c0-0.484,0.145-0.875,0.433-1.17
		c0.287-0.299,0.653-0.445,1.1-0.445c0.485,0,0.883,0.186,1.193,0.562c0.311,0.373,0.467,0.99,0.467,1.85
		c0,0.873-0.163,1.504-0.486,1.891c-0.323,0.387-0.745,0.58-1.265,0.58c-0.374,0-0.676-0.1-0.906-0.299
		C506.85,21.779,506.702,21.48,506.638,21.086z M508.711,19.084c0-0.295-0.068-0.525-0.203-0.688
		c-0.137-0.164-0.294-0.244-0.472-0.244c-0.169,0-0.311,0.066-0.422,0.199c-0.112,0.135-0.168,0.353-0.168,0.656
		c0,0.311,0.061,0.537,0.182,0.682c0.121,0.142,0.274,0.217,0.456,0.217c0.177,0,0.325-0.07,0.445-0.209
		C508.65,19.557,508.711,19.354,508.711,19.084z"/>
	<path id="XMLID_1111_" fill="#FFFFFF" d="M548.663,21.34v0.85h-3.211c0.034-0.32,0.139-0.625,0.312-0.912
		c0.173-0.289,0.518-0.67,1.03-1.146c0.413-0.385,0.666-0.646,0.76-0.783c0.126-0.19,0.189-0.375,0.189-0.561
		c0-0.205-0.055-0.361-0.165-0.471c-0.11-0.109-0.262-0.164-0.455-0.164c-0.191,0-0.343,0.057-0.456,0.172
		c-0.114,0.115-0.179,0.307-0.195,0.572l-0.913-0.09c0.055-0.506,0.225-0.867,0.512-1.086c0.286-0.219,0.645-0.328,1.076-0.328
		c0.472,0,0.842,0.125,1.11,0.381c0.271,0.254,0.405,0.57,0.405,0.947c0,0.217-0.038,0.42-0.115,0.615
		c-0.078,0.195-0.2,0.398-0.367,0.611c-0.11,0.141-0.311,0.344-0.601,0.609c-0.289,0.266-0.472,0.441-0.548,0.529
		c-0.078,0.086-0.14,0.172-0.189,0.254H548.663z"/>
	<path id="XMLID_1113_" fill="#FFFFFF" d="M551.627,22.19h-0.917v-3.451c-0.335,0.312-0.729,0.545-1.183,0.695v-0.832
		c0.238-0.078,0.499-0.227,0.779-0.445c0.28-0.219,0.473-0.475,0.576-0.764h0.744V22.19z"/>
	<path id="XMLID_1115_" fill="#FFFFFF" d="M588.533,21.34v0.85h-3.212c0.035-0.32,0.14-0.625,0.312-0.912
		c0.175-0.289,0.519-0.67,1.03-1.146c0.414-0.385,0.667-0.646,0.761-0.783c0.126-0.19,0.189-0.375,0.189-0.561
		c0-0.205-0.055-0.361-0.165-0.471c-0.109-0.109-0.261-0.164-0.454-0.164c-0.191,0-0.343,0.057-0.456,0.172
		c-0.113,0.115-0.18,0.307-0.195,0.572l-0.913-0.09c0.054-0.506,0.225-0.867,0.511-1.086c0.288-0.219,0.646-0.328,1.076-0.328
		c0.473,0,0.842,0.125,1.112,0.381c0.27,0.254,0.404,0.57,0.404,0.947c0,0.217-0.038,0.42-0.116,0.615
		c-0.077,0.195-0.199,0.398-0.366,0.611c-0.111,0.141-0.311,0.344-0.601,0.609c-0.289,0.266-0.471,0.441-0.549,0.529
		c-0.077,0.086-0.14,0.172-0.188,0.254H588.533z"/>
	<path id="XMLID_1117_" fill="#FFFFFF" d="M589.119,20.922l0.888-0.107c0.028,0.226,0.105,0.398,0.228,0.519
		c0.125,0.119,0.274,0.178,0.45,0.178c0.189,0,0.349-0.07,0.477-0.215c0.13-0.143,0.194-0.336,0.194-0.58
		c0-0.231-0.062-0.412-0.186-0.547c-0.125-0.135-0.274-0.203-0.454-0.203c-0.117,0-0.257,0.023-0.42,0.068l0.101-0.746
		c0.248,0.006,0.438-0.047,0.567-0.162c0.131-0.113,0.195-0.266,0.195-0.455c0-0.16-0.047-0.289-0.143-0.383
		c-0.096-0.096-0.223-0.145-0.382-0.145c-0.156,0-0.29,0.055-0.401,0.162c-0.11,0.109-0.178,0.267-0.201,0.476l-0.845-0.143
		c0.059-0.289,0.148-0.52,0.266-0.693c0.118-0.174,0.283-0.309,0.495-0.408c0.212-0.098,0.449-0.147,0.712-0.147
		c0.451,0,0.812,0.143,1.083,0.43c0.224,0.234,0.336,0.5,0.336,0.795c0,0.42-0.229,0.754-0.688,1.004
		c0.273,0.059,0.492,0.19,0.656,0.395c0.164,0.205,0.246,0.451,0.246,0.74c0,0.42-0.153,0.777-0.46,1.072
		c-0.307,0.297-0.688,0.443-1.144,0.443c-0.432,0-0.791-0.125-1.075-0.373C589.331,21.65,589.166,21.324,589.119,20.922z"/>
</g>
<g id="XMLID_1119_">
	<path id="XMLID_1120_" fill="#FFFFFF" d="M75.093,108.133v0.852h-3.212c0.034-0.322,0.139-0.627,0.313-0.914
		c0.173-0.289,0.517-0.67,1.03-1.146c0.412-0.385,0.666-0.646,0.759-0.781c0.126-0.189,0.189-0.377,0.189-0.562
		c0-0.203-0.056-0.361-0.165-0.471c-0.109-0.109-0.261-0.164-0.454-0.164c-0.191,0-0.345,0.059-0.456,0.172
		c-0.114,0.115-0.179,0.307-0.195,0.574l-0.913-0.092c0.054-0.504,0.225-0.865,0.511-1.086c0.287-0.219,0.646-0.328,1.077-0.328
		c0.47,0,0.842,0.127,1.11,0.381c0.27,0.254,0.405,0.572,0.405,0.949c0,0.215-0.04,0.42-0.116,0.615
		c-0.077,0.193-0.199,0.398-0.366,0.611c-0.111,0.141-0.312,0.344-0.601,0.609c-0.289,0.264-0.473,0.441-0.549,0.527
		c-0.077,0.088-0.141,0.172-0.188,0.254H75.093z"/>
	<path id="XMLID_1122_" fill="#FFFFFF" d="M114.478,108.984v-0.961h-1.956v-0.803l2.073-3.035h0.769v3.031h0.594v0.807h-0.594v0.961
		H114.478z M114.478,107.217v-1.633l-1.1,1.633H114.478z"/>
	<path id="XMLID_1125_" fill="#FFFFFF" d="M155.241,105.375l-0.887,0.1c-0.022-0.184-0.079-0.318-0.17-0.406
		c-0.092-0.086-0.21-0.131-0.355-0.131c-0.193,0-0.357,0.088-0.491,0.262c-0.133,0.174-0.217,0.535-0.253,1.086
		c0.229-0.27,0.513-0.404,0.852-0.404c0.383,0,0.71,0.145,0.983,0.438c0.272,0.291,0.409,0.668,0.409,1.127
		c0,0.49-0.145,0.881-0.431,1.178c-0.287,0.295-0.655,0.443-1.104,0.443c-0.483,0-0.881-0.188-1.191-0.562
		c-0.31-0.375-0.467-0.99-0.467-1.844c0-0.877,0.162-1.508,0.486-1.895c0.323-0.387,0.743-0.58,1.262-0.58
		c0.362,0,0.663,0.102,0.901,0.305C155.024,104.693,155.176,104.988,155.241,105.375z M153.164,107.375
		c0,0.297,0.068,0.527,0.206,0.688c0.136,0.164,0.293,0.244,0.469,0.244c0.169,0,0.311-0.067,0.424-0.199
		c0.113-0.133,0.17-0.35,0.17-0.652c0-0.311-0.061-0.539-0.183-0.684c-0.121-0.143-0.274-0.217-0.456-0.217
		c-0.177,0-0.326,0.07-0.447,0.209C153.225,106.9,153.164,107.104,153.164,107.375z"/>
	<path id="XMLID_1128_" fill="#FFFFFF" d="M192.74,106.406c-0.238-0.102-0.41-0.238-0.518-0.414
		c-0.107-0.174-0.161-0.365-0.161-0.574c0-0.355,0.125-0.652,0.373-0.883c0.249-0.233,0.603-0.35,1.062-0.35
		c0.454,0,0.808,0.117,1.059,0.35c0.251,0.23,0.376,0.527,0.376,0.883c0,0.223-0.059,0.42-0.173,0.592
		c-0.115,0.172-0.277,0.305-0.486,0.396c0.266,0.105,0.467,0.262,0.606,0.467c0.138,0.203,0.206,0.439,0.206,0.707
		c0,0.439-0.141,0.799-0.422,1.076c-0.281,0.275-0.655,0.412-1.123,0.412c-0.434,0-0.796-0.113-1.086-0.342
		c-0.341-0.27-0.512-0.639-0.512-1.109c0-0.258,0.064-0.494,0.192-0.711C192.261,106.689,192.464,106.523,192.74,106.406z
		 M192.844,107.529c0,0.252,0.064,0.449,0.194,0.592c0.13,0.141,0.291,0.211,0.484,0.211c0.189,0,0.345-0.066,0.469-0.203
		c0.124-0.137,0.187-0.332,0.187-0.588c0-0.225-0.063-0.404-0.189-0.541c-0.126-0.137-0.286-0.203-0.479-0.203
		c-0.224,0-0.391,0.078-0.501,0.23C192.898,107.182,192.844,107.35,192.844,107.529z M192.929,105.482
		c0,0.184,0.051,0.326,0.155,0.428c0.103,0.102,0.239,0.154,0.412,0.154c0.174,0,0.312-0.053,0.417-0.156
		c0.105-0.104,0.156-0.246,0.156-0.428c0-0.172-0.052-0.309-0.154-0.414c-0.104-0.104-0.24-0.154-0.409-0.154
		c-0.176,0-0.316,0.053-0.421,0.156C192.98,105.174,192.929,105.311,192.929,105.482z"/>
	<path id="XMLID_1132_" fill="#FFFFFF" d="M270.029,108.984h-0.916v-3.451c-0.336,0.312-0.73,0.543-1.184,0.693v-0.832
		c0.238-0.078,0.499-0.227,0.779-0.445c0.28-0.217,0.473-0.473,0.576-0.764h0.744V108.984z"/>
	<path id="XMLID_1134_" fill="#FFFFFF" d="M272.947,104.186c0.463,0,0.824,0.164,1.085,0.496c0.312,0.391,0.467,1.039,0.467,1.945
		c0,0.904-0.156,1.555-0.47,1.951c-0.258,0.324-0.619,0.488-1.082,0.488c-0.466,0-0.841-0.178-1.125-0.537
		c-0.284-0.357-0.427-0.996-0.427-1.912c0-0.9,0.156-1.547,0.47-1.943C272.123,104.348,272.484,104.186,272.947,104.186z
		 M272.947,104.945c-0.11,0-0.21,0.035-0.297,0.105c-0.087,0.07-0.154,0.197-0.202,0.381c-0.064,0.236-0.095,0.635-0.095,1.195
		c0,0.561,0.028,0.947,0.085,1.156c0.056,0.209,0.128,0.35,0.214,0.418c0.085,0.07,0.185,0.105,0.295,0.105
		c0.111,0,0.209-0.035,0.297-0.107c0.087-0.07,0.154-0.195,0.201-0.379c0.063-0.234,0.096-0.633,0.096-1.193
		c0-0.561-0.029-0.945-0.085-1.154c-0.057-0.211-0.129-0.352-0.214-0.422C273.156,104.98,273.059,104.945,272.947,104.945z"/>
	<path id="XMLID_1137_" fill="#FFFFFF" d="M310.055,108.984h-0.916v-3.451c-0.334,0.312-0.729,0.543-1.183,0.693v-0.832
		c0.239-0.078,0.499-0.227,0.779-0.445c0.28-0.217,0.473-0.473,0.577-0.764h0.742V108.984z"/>
	<path id="XMLID_1139_" fill="#FFFFFF" d="M314.519,108.133v0.852h-3.211c0.034-0.322,0.139-0.627,0.312-0.914
		c0.174-0.289,0.518-0.67,1.03-1.146c0.413-0.385,0.666-0.646,0.76-0.781c0.126-0.189,0.189-0.377,0.189-0.562
		c0-0.203-0.054-0.361-0.164-0.471c-0.11-0.109-0.262-0.164-0.455-0.164c-0.191,0-0.343,0.059-0.456,0.172
		c-0.113,0.115-0.179,0.307-0.195,0.574l-0.913-0.092c0.055-0.504,0.225-0.865,0.512-1.086c0.287-0.219,0.646-0.328,1.076-0.328
		c0.472,0,0.842,0.127,1.111,0.381s0.404,0.572,0.404,0.949c0,0.215-0.038,0.42-0.115,0.615c-0.078,0.193-0.2,0.398-0.367,0.611
		c-0.11,0.141-0.311,0.344-0.601,0.609c-0.289,0.264-0.472,0.441-0.548,0.527c-0.078,0.088-0.14,0.172-0.189,0.254H314.519z"/>
	<path id="XMLID_1141_" fill="#FFFFFF" d="M350.081,108.984h-0.915v-3.451c-0.335,0.312-0.73,0.543-1.185,0.693v-0.832
		c0.239-0.078,0.499-0.227,0.779-0.445c0.28-0.217,0.473-0.473,0.577-0.764h0.743V108.984z"/>
	<path id="XMLID_1143_" fill="#FFFFFF" d="M353.247,108.984v-0.961h-1.956v-0.803l2.073-3.035h0.771v3.031h0.593v0.807h-0.593v0.961
		H353.247z M353.247,107.217v-1.633l-1.098,1.633H353.247z"/>
	<path id="XMLID_1146_" fill="#FFFFFF" d="M390.302,108.984h-0.917v-3.451c-0.335,0.312-0.729,0.543-1.183,0.693v-0.832
		c0.238-0.078,0.498-0.227,0.778-0.445c0.281-0.217,0.473-0.473,0.577-0.764h0.744V108.984z"/>
	<path id="XMLID_1148_" fill="#FFFFFF" d="M394.774,105.375l-0.888,0.1c-0.021-0.184-0.078-0.318-0.169-0.406
		c-0.091-0.086-0.209-0.131-0.355-0.131c-0.193,0-0.356,0.088-0.49,0.262c-0.134,0.174-0.218,0.535-0.253,1.086
		c0.228-0.27,0.512-0.404,0.851-0.404c0.383,0,0.711,0.145,0.982,0.438c0.273,0.291,0.41,0.668,0.41,1.127
		c0,0.49-0.143,0.881-0.431,1.178c-0.287,0.295-0.655,0.443-1.105,0.443c-0.481,0-0.879-0.188-1.19-0.562
		c-0.31-0.375-0.465-0.99-0.465-1.844c0-0.877,0.162-1.508,0.485-1.895c0.324-0.387,0.744-0.58,1.262-0.58
		c0.362,0,0.663,0.102,0.901,0.305C394.557,104.693,394.709,104.988,394.774,105.375z M392.698,107.375
		c0,0.297,0.067,0.527,0.205,0.688c0.137,0.164,0.292,0.244,0.469,0.244c0.17,0,0.31-0.067,0.424-0.199s0.17-0.35,0.17-0.652
		c0-0.311-0.061-0.539-0.184-0.684c-0.121-0.143-0.272-0.217-0.456-0.217c-0.176,0-0.325,0.07-0.446,0.209
		C392.759,106.9,392.698,107.104,392.698,107.375z"/>
	<path id="XMLID_1151_" fill="#FFFFFF" d="M467.511,108.984h-0.916v-3.451c-0.335,0.312-0.729,0.543-1.184,0.693v-0.832
		c0.238-0.078,0.499-0.227,0.779-0.445c0.28-0.217,0.474-0.473,0.577-0.764h0.743V108.984z"/>
	<path id="XMLID_1153_" fill="#FFFFFF" d="M469.666,106.406c-0.237-0.102-0.409-0.238-0.517-0.414
		c-0.107-0.174-0.161-0.365-0.161-0.574c0-0.355,0.124-0.652,0.372-0.883c0.249-0.233,0.604-0.35,1.062-0.35
		c0.454,0,0.808,0.117,1.059,0.35c0.251,0.23,0.377,0.527,0.377,0.883c0,0.223-0.06,0.42-0.174,0.592
		c-0.115,0.172-0.276,0.305-0.485,0.396c0.266,0.105,0.467,0.262,0.605,0.467c0.138,0.203,0.206,0.439,0.206,0.707
		c0,0.439-0.141,0.799-0.422,1.076c-0.281,0.275-0.655,0.412-1.123,0.412c-0.435,0-0.797-0.113-1.086-0.342
		c-0.341-0.27-0.513-0.639-0.513-1.109c0-0.258,0.066-0.494,0.192-0.711C469.187,106.689,469.39,106.523,469.666,106.406z
		 M469.77,107.529c0,0.252,0.064,0.449,0.194,0.592c0.13,0.141,0.29,0.211,0.483,0.211c0.189,0,0.346-0.066,0.47-0.203
		c0.123-0.137,0.186-0.332,0.186-0.588c0-0.225-0.064-0.404-0.189-0.541c-0.127-0.137-0.286-0.203-0.479-0.203
		c-0.224,0-0.391,0.078-0.501,0.23C469.825,107.182,469.77,107.35,469.77,107.529z M469.855,105.482
		c0,0.184,0.051,0.326,0.154,0.428c0.103,0.102,0.24,0.154,0.412,0.154c0.174,0,0.312-0.053,0.417-0.156
		c0.105-0.104,0.157-0.246,0.157-0.428c0-0.172-0.052-0.309-0.155-0.414c-0.103-0.104-0.239-0.154-0.408-0.154
		c-0.177,0-0.317,0.053-0.422,0.156C469.907,105.174,469.855,105.311,469.855,105.482z"/>
	<path id="XMLID_1157_" fill="#FFFFFF" d="M508.843,108.133v0.852h-3.212c0.035-0.322,0.14-0.627,0.314-0.914
		c0.173-0.289,0.517-0.67,1.03-1.146c0.413-0.385,0.666-0.646,0.759-0.781c0.127-0.189,0.189-0.377,0.189-0.562
		c0-0.203-0.055-0.361-0.164-0.471c-0.11-0.109-0.262-0.164-0.455-0.164c-0.191,0-0.343,0.059-0.456,0.172
		c-0.113,0.115-0.179,0.307-0.195,0.574l-0.913-0.092c0.055-0.504,0.225-0.865,0.511-1.086c0.288-0.219,0.646-0.328,1.077-0.328
		c0.472,0,0.842,0.127,1.111,0.381s0.404,0.572,0.404,0.949c0,0.215-0.038,0.42-0.116,0.615c-0.077,0.193-0.199,0.398-0.366,0.611
		c-0.111,0.141-0.311,0.344-0.601,0.609c-0.289,0.264-0.472,0.441-0.549,0.527c-0.077,0.088-0.14,0.172-0.188,0.254H508.843z"/>
	<path id="XMLID_1159_" fill="#FFFFFF" d="M511.011,104.186c0.463,0,0.824,0.164,1.086,0.496c0.311,0.391,0.466,1.039,0.466,1.945
		c0,0.904-0.156,1.555-0.47,1.951c-0.259,0.324-0.619,0.488-1.082,0.488c-0.466,0-0.84-0.178-1.125-0.537
		c-0.284-0.357-0.427-0.996-0.427-1.912c0-0.9,0.156-1.547,0.47-1.943C510.186,104.348,510.548,104.186,511.011,104.186z
		 M511.011,104.945c-0.11,0-0.21,0.035-0.297,0.105c-0.087,0.07-0.153,0.197-0.202,0.381c-0.062,0.236-0.095,0.635-0.095,1.195
		c0,0.561,0.028,0.947,0.086,1.156c0.055,0.209,0.127,0.35,0.213,0.418c0.085,0.07,0.185,0.105,0.295,0.105
		c0.111,0,0.209-0.035,0.296-0.107c0.087-0.07,0.155-0.195,0.203-0.379c0.062-0.234,0.095-0.633,0.095-1.193
		c0-0.561-0.029-0.945-0.085-1.154c-0.057-0.211-0.129-0.352-0.214-0.422C511.22,104.98,511.122,104.945,511.011,104.945z"/>
	<path id="XMLID_1162_" fill="#FFFFFF" d="M549.333,108.133v0.852h-3.211c0.034-0.322,0.14-0.627,0.313-0.914
		c0.174-0.289,0.518-0.67,1.029-1.146c0.414-0.385,0.666-0.646,0.761-0.781c0.126-0.189,0.188-0.377,0.188-0.562
		c0-0.203-0.055-0.361-0.165-0.471c-0.11-0.109-0.261-0.164-0.454-0.164c-0.192,0-0.343,0.059-0.456,0.172
		c-0.113,0.115-0.18,0.307-0.196,0.574l-0.913-0.092c0.055-0.504,0.225-0.865,0.512-1.086c0.288-0.219,0.646-0.328,1.076-0.328
		c0.473,0,0.842,0.127,1.112,0.381c0.269,0.254,0.403,0.572,0.403,0.949c0,0.215-0.038,0.42-0.115,0.615
		c-0.078,0.193-0.199,0.398-0.367,0.611c-0.11,0.141-0.31,0.344-0.599,0.609c-0.29,0.264-0.473,0.441-0.55,0.527
		c-0.078,0.088-0.14,0.172-0.188,0.254H549.333z"/>
	<path id="XMLID_1164_" fill="#FFFFFF" d="M553.047,108.133v0.852h-3.212c0.036-0.322,0.14-0.627,0.313-0.914
		c0.174-0.289,0.518-0.67,1.03-1.146c0.413-0.385,0.666-0.646,0.759-0.781c0.127-0.189,0.19-0.377,0.19-0.562
		c0-0.203-0.055-0.361-0.164-0.471c-0.109-0.109-0.262-0.164-0.455-0.164c-0.191,0-0.343,0.059-0.456,0.172
		c-0.113,0.115-0.179,0.307-0.195,0.574l-0.913-0.092c0.055-0.504,0.225-0.865,0.512-1.086c0.287-0.219,0.644-0.328,1.076-0.328
		c0.472,0,0.842,0.127,1.111,0.381c0.269,0.254,0.404,0.572,0.404,0.949c0,0.215-0.038,0.42-0.116,0.615
		c-0.077,0.193-0.199,0.398-0.366,0.611c-0.111,0.141-0.311,0.344-0.6,0.609c-0.29,0.264-0.472,0.441-0.55,0.527
		c-0.077,0.088-0.139,0.172-0.188,0.254H553.047z"/>
	<path id="XMLID_1166_" fill="#FFFFFF" d="M588.714,108.133v0.852h-3.213c0.036-0.322,0.141-0.627,0.315-0.914
		c0.173-0.289,0.517-0.67,1.03-1.146c0.412-0.385,0.665-0.646,0.759-0.781c0.126-0.189,0.19-0.377,0.19-0.562
		c0-0.203-0.055-0.361-0.164-0.471c-0.11-0.109-0.263-0.164-0.456-0.164c-0.191,0-0.343,0.059-0.456,0.172
		c-0.113,0.115-0.178,0.307-0.195,0.574l-0.913-0.092c0.055-0.504,0.225-0.865,0.513-1.086c0.286-0.219,0.644-0.328,1.075-0.328
		c0.472,0,0.842,0.127,1.111,0.381c0.271,0.254,0.405,0.572,0.405,0.949c0,0.215-0.039,0.42-0.116,0.615
		c-0.077,0.193-0.2,0.398-0.367,0.611c-0.11,0.141-0.311,0.344-0.6,0.609c-0.29,0.264-0.472,0.441-0.55,0.527
		c-0.077,0.088-0.139,0.172-0.188,0.254H588.714z"/>
	<path id="XMLID_1168_" fill="#FFFFFF" d="M591.13,108.984v-0.961h-1.957v-0.803l2.074-3.035h0.769v3.031h0.594v0.807h-0.594v0.961
		H591.13z M591.13,107.217v-1.633l-1.1,1.633H591.13z"/>
</g>
</svg>
