<?xml version="1.0" encoding="utf-8"?>
<!-- Generator: Adobe Illustrator 16.0.0, SVG Export Plug-In . SVG Version: 6.00 Build 0)  -->
<!DOCTYPE svg PUBLIC "-//W3C//DTD SVG 1.1//EN" "http://www.w3.org/Graphics/SVG/1.1/DTD/svg11.dtd">
<svg version="1.1" id="图层_1" xmlns="http://www.w3.org/2000/svg" xmlns:xlink="http://www.w3.org/1999/xlink" x="0px" y="0px"
	 width="1275.59px" height="126.14px" viewBox="0 0 1275.59 126.14" enable-background="new 0 0 1275.59 126.14"
	 xml:space="preserve">
<g>
	<rect x="-0.001" fill="#272828" width="1275.591" height="126.141"/>
	<rect x="2.407" y="2.587" fill="#DDDDDD" width="1269.667" height="121.333"/>
	<path fill="#C3E1E5" stroke="#626363" stroke-miterlimit="10" d="M702.479,17.202c0,1.41-1.343,2.554-3,2.554H371.978
		c-1.657,0-3-1.144-3-2.554V9.31c0-1.41,1.343-2.554,3-2.554h327.501c1.657,0,3,1.144,3,2.554V17.202z"/>
	<polygon fill="#666666" stroke="#272828" stroke-width="0.5" stroke-miterlimit="10" points="391.13,14.487 388.69,10.263 
		386.251,14.487 	"/>
	<polygon fill="#666666" stroke="#272828" stroke-width="0.5" stroke-miterlimit="10" points="392.165,10.263 394.604,14.487 
		397.044,10.263 	"/>
	<text transform="matrix(1 0 0 1 373.312 15.2251)" font-family="'MicrosoftYaHeiLight'" font-size="8">17</text>
	<text transform="matrix(1 0 0 1 402.479 15.2251)" font-family="'MicrosoftYaHeiLight'" font-size="8">18</text>
	<polygon fill="#666666" stroke="#272828" stroke-width="0.5" stroke-miterlimit="10" points="432.202,14.487 429.763,10.263 
		427.323,14.487 	"/>
	<polygon fill="#666666" stroke="#272828" stroke-width="0.5" stroke-miterlimit="10" points="433.237,10.263 435.677,14.487 
		438.116,10.263 	"/>
	<text transform="matrix(1 0 0 1 414.3843 15.2251)" font-family="'MicrosoftYaHeiLight'" font-size="8">19</text>
	<text transform="matrix(1 0 0 1 443.5513 15.2251)" font-family="'MicrosoftYaHeiLight'" font-size="8">20</text>
	<polygon fill="#666666" stroke="#272828" stroke-width="0.5" stroke-miterlimit="10" points="473.274,14.487 470.835,10.263 
		468.396,14.487 	"/>
	<polygon fill="#666666" stroke="#272828" stroke-width="0.5" stroke-miterlimit="10" points="474.31,10.263 476.749,14.487 
		479.188,10.263 	"/>
	<text transform="matrix(1 0 0 1 455.4565 15.2251)" font-family="'MicrosoftYaHeiLight'" font-size="8">21</text>
	<text transform="matrix(1 0 0 1 484.6235 15.2251)" font-family="'MicrosoftYaHeiLight'" font-size="8">22</text>
	<polygon fill="#666666" stroke="#272828" stroke-width="0.5" stroke-miterlimit="10" points="514.347,14.487 511.907,10.263 
		509.468,14.487 	"/>
	<polygon fill="#666666" stroke="#272828" stroke-width="0.5" stroke-miterlimit="10" points="515.382,10.263 517.821,14.487 
		520.261,10.263 	"/>
	<text transform="matrix(1 0 0 1 496.5288 15.2251)" font-family="'MicrosoftYaHeiLight'" font-size="8">23</text>
	<text transform="matrix(1 0 0 1 525.6958 15.2251)" font-family="'MicrosoftYaHeiLight'" font-size="8">24</text>
	<polygon fill="#666666" stroke="#272828" stroke-width="0.5" stroke-miterlimit="10" points="555.419,14.487 552.979,10.263 
		550.54,14.487 	"/>
	<polygon fill="#666666" stroke="#272828" stroke-width="0.5" stroke-miterlimit="10" points="556.454,10.263 558.894,14.487 
		561.333,10.263 	"/>
	<text transform="matrix(1 0 0 1 537.6011 15.2251)" font-family="'MicrosoftYaHeiLight'" font-size="8">25</text>
	<text transform="matrix(1 0 0 1 566.7681 15.2251)" font-family="'MicrosoftYaHeiLight'" font-size="8">26</text>
	<polygon fill="#666666" stroke="#272828" stroke-width="0.5" stroke-miterlimit="10" points="596.491,14.487 594.052,10.263 
		591.612,14.487 	"/>
	<polygon fill="#666666" stroke="#272828" stroke-width="0.5" stroke-miterlimit="10" points="597.526,10.263 599.966,14.487 
		602.405,10.263 	"/>
	<text transform="matrix(1 0 0 1 578.6733 15.2251)" font-family="'MicrosoftYaHeiLight'" font-size="8">27</text>
	<text transform="matrix(1 0 0 1 607.8403 15.2251)" font-family="'MicrosoftYaHeiLight'" font-size="8">28</text>
	<polygon fill="#666666" stroke="#272828" stroke-width="0.5" stroke-miterlimit="10" points="637.564,14.487 635.125,10.263 
		632.686,14.487 	"/>
	<polygon fill="#666666" stroke="#272828" stroke-width="0.5" stroke-miterlimit="10" points="638.6,10.263 641.039,14.487 
		643.479,10.263 	"/>
	<text transform="matrix(1 0 0 1 619.7461 15.2251)" font-family="'MicrosoftYaHeiLight'" font-size="8">29</text>
	<text transform="matrix(1 0 0 1 648.9131 15.2251)" font-family="'MicrosoftYaHeiLight'" font-size="8">30</text>
	<polygon fill="#666666" stroke="#272828" stroke-width="0.5" stroke-miterlimit="10" points="678.636,14.487 676.196,10.263 
		673.757,14.487 	"/>
	<polygon fill="#666666" stroke="#272828" stroke-width="0.5" stroke-miterlimit="10" points="679.671,10.263 682.11,14.487 
		684.55,10.263 	"/>
	<text transform="matrix(1 0 0 1 660.8184 15.2251)" font-family="'MicrosoftYaHeiLight'" font-size="8">31</text>
	<text transform="matrix(1 0 0 1 689.9844 15.2251)" font-family="'MicrosoftYaHeiLight'" font-size="8">32</text>
	<path fill="#C3E1E5" stroke="#626363" stroke-miterlimit="10" d="M359.746,17.202c0,1.41-1.343,2.554-3,2.554H29.244
		c-1.656,0-3-1.144-3-2.554V9.31c0-1.41,1.344-2.554,3-2.554h327.502c1.657,0,3,1.144,3,2.554V17.202z"/>
	<polygon fill="#666666" stroke="#272828" stroke-width="0.5" stroke-miterlimit="10" points="48.397,14.487 45.958,10.263 
		43.519,14.487 	"/>
	<polygon fill="#666666" stroke="#272828" stroke-width="0.5" stroke-miterlimit="10" points="49.433,10.263 51.872,14.487 
		54.312,10.263 	"/>
	<text transform="matrix(1 0 0 1 30.5796 15.2251)" font-family="'MicrosoftYaHeiLight'" font-size="8">1</text>
	<text transform="matrix(1 0 0 1 59.7466 15.2251)" font-family="'MicrosoftYaHeiLight'" font-size="8">2</text>
	<polygon fill="#666666" stroke="#272828" stroke-width="0.5" stroke-miterlimit="10" points="89.47,14.487 87.03,10.263 
		84.591,14.487 	"/>
	<polygon fill="#666666" stroke="#272828" stroke-width="0.5" stroke-miterlimit="10" points="90.505,10.263 92.944,14.487 
		95.384,10.263 	"/>
	<text transform="matrix(1 0 0 1 71.6519 15.2251)" font-family="'MicrosoftYaHeiLight'" font-size="8">3</text>
	<text transform="matrix(1 0 0 1 100.8188 15.2251)" font-family="'MicrosoftYaHeiLight'" font-size="8">4</text>
	<polygon fill="#666666" stroke="#272828" stroke-width="0.5" stroke-miterlimit="10" points="130.542,14.487 128.103,10.263 
		125.663,14.487 	"/>
	<polygon fill="#666666" stroke="#272828" stroke-width="0.5" stroke-miterlimit="10" points="131.577,10.263 134.017,14.487 
		136.456,10.263 	"/>
	<text transform="matrix(1 0 0 1 112.7241 15.2251)" font-family="'MicrosoftYaHeiLight'" font-size="8">5</text>
	<text transform="matrix(1 0 0 1 141.8911 15.2251)" font-family="'MicrosoftYaHeiLight'" font-size="8">6</text>
	<polygon fill="#666666" stroke="#272828" stroke-width="0.5" stroke-miterlimit="10" points="171.614,14.487 169.175,10.263 
		166.735,14.487 	"/>
	<polygon fill="#666666" stroke="#272828" stroke-width="0.5" stroke-miterlimit="10" points="172.649,10.263 175.089,14.487 
		177.528,10.263 	"/>
	<text transform="matrix(1 0 0 1 153.7964 15.2251)" font-family="'MicrosoftYaHeiLight'" font-size="8">7</text>
	<text transform="matrix(1 0 0 1 182.9634 15.2251)" font-family="'MicrosoftYaHeiLight'" font-size="8">8</text>
	<polygon fill="#666666" stroke="#272828" stroke-width="0.5" stroke-miterlimit="10" points="212.687,14.487 210.247,10.263 
		207.808,14.487 	"/>
	<polygon fill="#666666" stroke="#272828" stroke-width="0.5" stroke-miterlimit="10" points="213.722,10.263 216.161,14.487 
		218.601,10.263 	"/>
	<text transform="matrix(1 0 0 1 194.8687 15.2251)" font-family="'MicrosoftYaHeiLight'" font-size="8">9</text>
	<text transform="matrix(1 0 0 1 224.0356 15.2251)" font-family="'MicrosoftYaHeiLight'" font-size="8">10</text>
	<polygon fill="#666666" stroke="#272828" stroke-width="0.5" stroke-miterlimit="10" points="253.759,14.487 251.319,10.263 
		248.88,14.487 	"/>
	<polygon fill="#666666" stroke="#272828" stroke-width="0.5" stroke-miterlimit="10" points="254.794,10.263 257.233,14.487 
		259.673,10.263 	"/>
	<text transform="matrix(1 0 0 1 235.9409 15.2251)" font-family="'MicrosoftYaHeiLight'" font-size="8">11</text>
	<text transform="matrix(1 0 0 1 265.1079 15.2251)" font-family="'MicrosoftYaHeiLight'" font-size="8">12</text>
	<polygon fill="#666666" stroke="#272828" stroke-width="0.5" stroke-miterlimit="10" points="294.832,14.487 292.393,10.263 
		289.953,14.487 	"/>
	<polygon fill="#666666" stroke="#272828" stroke-width="0.5" stroke-miterlimit="10" points="295.867,10.263 298.307,14.487 
		300.746,10.263 	"/>
	<text transform="matrix(1 0 0 1 277.0137 15.2251)" font-family="'MicrosoftYaHeiLight'" font-size="8">13</text>
	<text transform="matrix(1 0 0 1 306.1807 15.2251)" font-family="'MicrosoftYaHeiLight'" font-size="8">14</text>
	<polygon fill="#666666" stroke="#272828" stroke-width="0.5" stroke-miterlimit="10" points="335.903,14.487 333.464,10.263 
		331.024,14.487 	"/>
	<polygon fill="#666666" stroke="#272828" stroke-width="0.5" stroke-miterlimit="10" points="336.938,10.263 339.378,14.487 
		341.817,10.263 	"/>
	<text transform="matrix(1 0 0 1 318.0854 15.2251)" font-family="'MicrosoftYaHeiLight'" font-size="8">15</text>
	<text transform="matrix(1 0 0 1 347.2524 15.2251)" font-family="'MicrosoftYaHeiLight'" font-size="8">16</text>
	<path fill="#C3E1E5" stroke="#626363" stroke-miterlimit="10" d="M1045.212,17.202c0,1.41-1.343,2.554-3,2.554H714.71
		c-1.656,0-3-1.144-3-2.554V9.31c0-1.41,1.344-2.554,3-2.554h327.502c1.657,0,3,1.144,3,2.554V17.202z"/>
	<rect x="26.35" y="17.229" fill="#040000" width="333.291" height="82.249"/>
	<path fill="#F4F4F4" d="M358.608,97.563c0,0.553-0.448,0.998-1.003,0.998H28.299c-0.555,0-1.004-0.445-1.004-0.998V19.331
		c0-0.551,0.449-0.998,1.004-0.998h329.307c0.555,0,1.003,0.447,1.003,0.998V97.563z"/>
	<polygon fill="#666666" stroke="#272828" stroke-width="0.5" stroke-miterlimit="10" points="40.743,61.28 43.183,56.063 
		45.622,61.28 	"/>
	<polygon fill="#666666" stroke="#272828" stroke-width="0.5" stroke-miterlimit="10" points="59.452,61.28 61.892,56.063 
		64.331,61.28 	"/>
	<polygon fill="#666666" stroke="#272828" stroke-width="0.5" stroke-miterlimit="10" points="37.122,56.063 34.683,61.28 
		32.243,56.063 	"/>
	<polygon fill="#666666" stroke="#272828" stroke-width="0.5" stroke-miterlimit="10" points="56.289,56.063 53.85,61.28 
		51.41,56.063 	"/>
	<polygon fill="#666666" stroke="#272828" stroke-width="0.5" stroke-miterlimit="10" points="82.009,61.28 84.448,56.063 
		86.888,61.28 	"/>
	<polygon fill="#666666" stroke="#272828" stroke-width="0.5" stroke-miterlimit="10" points="100.718,61.28 103.157,56.063 
		105.597,61.28 	"/>
	<polygon fill="#666666" stroke="#272828" stroke-width="0.5" stroke-miterlimit="10" points="78.388,56.063 75.948,61.28 
		73.509,56.063 	"/>
	<polygon fill="#666666" stroke="#272828" stroke-width="0.5" stroke-miterlimit="10" points="97.555,56.063 95.115,61.28 
		92.676,56.063 	"/>
	<polygon fill="#666666" stroke="#272828" stroke-width="0.5" stroke-miterlimit="10" points="123.274,61.28 125.714,56.063 
		128.153,61.28 	"/>
	<polygon fill="#666666" stroke="#272828" stroke-width="0.5" stroke-miterlimit="10" points="141.983,61.28 144.423,56.063 
		146.862,61.28 	"/>
	<polygon fill="#666666" stroke="#272828" stroke-width="0.5" stroke-miterlimit="10" points="119.653,56.063 117.214,61.28 
		114.774,56.063 	"/>
	<polygon fill="#666666" stroke="#272828" stroke-width="0.5" stroke-miterlimit="10" points="138.819,56.063 136.38,61.28 
		133.94,56.063 	"/>
	<polygon fill="#666666" stroke="#272828" stroke-width="0.5" stroke-miterlimit="10" points="164.54,61.28 166.979,56.063 
		169.419,61.28 	"/>
	<polygon fill="#666666" stroke="#272828" stroke-width="0.5" stroke-miterlimit="10" points="183.249,61.28 185.688,56.063 
		188.128,61.28 	"/>
	<polygon fill="#666666" stroke="#272828" stroke-width="0.5" stroke-miterlimit="10" points="160.919,56.063 158.479,61.28 
		156.04,56.063 	"/>
	<polygon fill="#666666" stroke="#272828" stroke-width="0.5" stroke-miterlimit="10" points="180.085,56.063 177.646,61.28 
		175.206,56.063 	"/>
	<polygon fill="#666666" stroke="#272828" stroke-width="0.5" stroke-miterlimit="10" points="205.806,61.28 208.245,56.063 
		210.685,61.28 	"/>
	<polygon fill="#666666" stroke="#272828" stroke-width="0.5" stroke-miterlimit="10" points="224.514,61.28 226.953,56.063 
		229.393,61.28 	"/>
	<polygon fill="#666666" stroke="#272828" stroke-width="0.5" stroke-miterlimit="10" points="202.185,56.063 199.745,61.28 
		197.306,56.063 	"/>
	<polygon fill="#666666" stroke="#272828" stroke-width="0.5" stroke-miterlimit="10" points="221.351,56.063 218.911,61.28 
		216.472,56.063 	"/>
	<polygon fill="#666666" stroke="#272828" stroke-width="0.5" stroke-miterlimit="10" points="247.071,61.28 249.511,56.063 
		251.95,61.28 	"/>
	<polygon fill="#666666" stroke="#272828" stroke-width="0.5" stroke-miterlimit="10" points="265.779,61.28 268.219,56.063 
		270.658,61.28 	"/>
	<polygon fill="#666666" stroke="#272828" stroke-width="0.5" stroke-miterlimit="10" points="243.45,56.063 241.011,61.28 
		238.571,56.063 	"/>
	<polygon fill="#666666" stroke="#272828" stroke-width="0.5" stroke-miterlimit="10" points="262.616,56.063 260.177,61.28 
		257.737,56.063 	"/>
	<polygon fill="#666666" stroke="#272828" stroke-width="0.5" stroke-miterlimit="10" points="288.337,61.239 290.776,56.022 
		293.215,61.239 	"/>
	<polygon fill="#666666" stroke="#272828" stroke-width="0.5" stroke-miterlimit="10" points="307.044,61.239 309.483,56.022 
		311.923,61.239 	"/>
	<polygon fill="#666666" stroke="#272828" stroke-width="0.5" stroke-miterlimit="10" points="284.716,56.022 282.276,61.239 
		279.837,56.022 	"/>
	<polygon fill="#666666" stroke="#272828" stroke-width="0.5" stroke-miterlimit="10" points="303.882,56.022 301.442,61.239 
		299.003,56.022 	"/>
	<polygon fill="#666666" stroke="#272828" stroke-width="0.5" stroke-miterlimit="10" points="329.601,61.239 332.04,56.022 
		334.479,61.239 	"/>
	<polygon fill="#666666" stroke="#272828" stroke-width="0.5" stroke-miterlimit="10" points="348.31,61.239 350.749,56.022 
		353.188,61.239 	"/>
	<polygon fill="#666666" stroke="#272828" stroke-width="0.5" stroke-miterlimit="10" points="325.979,56.022 323.54,61.239 
		321.101,56.022 	"/>
	<polygon fill="#666666" stroke="#272828" stroke-width="0.5" stroke-miterlimit="10" points="345.147,56.022 342.708,61.239 
		340.269,56.022 	"/>
	<rect x="369.082" y="17.229" fill="#040000" width="333.292" height="82.249"/>
	<path fill="#F4F4F4" d="M701.341,97.563c0,0.553-0.449,0.998-1.003,0.998H371.031c-0.555,0-1.004-0.445-1.004-0.998V19.331
		c0-0.551,0.449-0.998,1.004-0.998h329.307c0.554,0,1.003,0.447,1.003,0.998V97.563z"/>
	<polygon fill="#666666" stroke="#272828" stroke-width="0.5" stroke-miterlimit="10" points="383.476,61.28 385.915,56.063 
		388.354,61.28 	"/>
	<polygon fill="#666666" stroke="#272828" stroke-width="0.5" stroke-miterlimit="10" points="402.185,61.28 404.624,56.063 
		407.063,61.28 	"/>
	<polygon fill="#666666" stroke="#272828" stroke-width="0.5" stroke-miterlimit="10" points="379.854,56.063 377.415,61.28 
		374.976,56.063 	"/>
	<polygon fill="#666666" stroke="#272828" stroke-width="0.5" stroke-miterlimit="10" points="399.021,56.063 396.582,61.28 
		394.143,56.063 	"/>
	<polygon fill="#666666" stroke="#272828" stroke-width="0.5" stroke-miterlimit="10" points="424.741,61.28 427.181,56.063 
		429.62,61.28 	"/>
	<polygon fill="#666666" stroke="#272828" stroke-width="0.5" stroke-miterlimit="10" points="443.45,61.28 445.89,56.063 
		448.329,61.28 	"/>
	<polygon fill="#666666" stroke="#272828" stroke-width="0.5" stroke-miterlimit="10" points="421.12,56.063 418.681,61.28 
		416.241,56.063 	"/>
	<polygon fill="#666666" stroke="#272828" stroke-width="0.5" stroke-miterlimit="10" points="440.287,56.063 437.848,61.28 
		435.408,56.063 	"/>
	<polygon fill="#666666" stroke="#272828" stroke-width="0.5" stroke-miterlimit="10" points="466.007,61.28 468.446,56.063 
		470.886,61.28 	"/>
	<polygon fill="#666666" stroke="#272828" stroke-width="0.5" stroke-miterlimit="10" points="484.716,61.28 487.155,56.063 
		489.595,61.28 	"/>
	<polygon fill="#666666" stroke="#272828" stroke-width="0.5" stroke-miterlimit="10" points="462.386,56.063 459.946,61.28 
		457.507,56.063 	"/>
	<polygon fill="#666666" stroke="#272828" stroke-width="0.5" stroke-miterlimit="10" points="481.552,56.063 479.112,61.28 
		476.673,56.063 	"/>
	<polygon fill="#666666" stroke="#272828" stroke-width="0.5" stroke-miterlimit="10" points="507.272,61.28 509.712,56.063 
		512.151,61.28 	"/>
	<polygon fill="#666666" stroke="#272828" stroke-width="0.5" stroke-miterlimit="10" points="525.981,61.28 528.421,56.063 
		530.86,61.28 	"/>
	<polygon fill="#666666" stroke="#272828" stroke-width="0.5" stroke-miterlimit="10" points="503.651,56.063 501.212,61.28 
		498.772,56.063 	"/>
	<polygon fill="#666666" stroke="#272828" stroke-width="0.5" stroke-miterlimit="10" points="522.817,56.063 520.378,61.28 
		517.938,56.063 	"/>
	<polygon fill="#666666" stroke="#272828" stroke-width="0.5" stroke-miterlimit="10" points="548.538,61.28 550.978,56.063 
		553.417,61.28 	"/>
	<polygon fill="#666666" stroke="#272828" stroke-width="0.5" stroke-miterlimit="10" points="567.246,61.28 569.686,56.063 
		572.125,61.28 	"/>
	<polygon fill="#666666" stroke="#272828" stroke-width="0.5" stroke-miterlimit="10" points="544.917,56.063 542.478,61.28 
		540.038,56.063 	"/>
	<polygon fill="#666666" stroke="#272828" stroke-width="0.5" stroke-miterlimit="10" points="564.083,56.063 561.644,61.28 
		559.204,56.063 	"/>
	<polygon fill="#666666" stroke="#272828" stroke-width="0.5" stroke-miterlimit="10" points="589.804,61.28 592.243,56.063 
		594.683,61.28 	"/>
	<polygon fill="#666666" stroke="#272828" stroke-width="0.5" stroke-miterlimit="10" points="608.512,61.28 610.951,56.063 
		613.391,61.28 	"/>
	<polygon fill="#666666" stroke="#272828" stroke-width="0.5" stroke-miterlimit="10" points="586.183,56.063 583.743,61.28 
		581.304,56.063 	"/>
	<polygon fill="#666666" stroke="#272828" stroke-width="0.5" stroke-miterlimit="10" points="605.349,56.063 602.909,61.28 
		600.47,56.063 	"/>
	<polygon fill="#666666" stroke="#272828" stroke-width="0.5" stroke-miterlimit="10" points="631.069,61.239 633.509,56.022 
		635.947,61.239 	"/>
	<polygon fill="#666666" stroke="#272828" stroke-width="0.5" stroke-miterlimit="10" points="649.776,61.239 652.216,56.022 
		654.655,61.239 	"/>
	<polygon fill="#666666" stroke="#272828" stroke-width="0.5" stroke-miterlimit="10" points="627.448,56.022 625.009,61.239 
		622.569,56.022 	"/>
	<polygon fill="#666666" stroke="#272828" stroke-width="0.5" stroke-miterlimit="10" points="646.614,56.022 644.175,61.239 
		641.735,56.022 	"/>
	<polygon fill="#666666" stroke="#272828" stroke-width="0.5" stroke-miterlimit="10" points="672.333,61.239 674.772,56.022 
		677.212,61.239 	"/>
	<polygon fill="#666666" stroke="#272828" stroke-width="0.5" stroke-miterlimit="10" points="691.042,61.239 693.481,56.022 
		695.921,61.239 	"/>
	<polygon fill="#666666" stroke="#272828" stroke-width="0.5" stroke-miterlimit="10" points="668.712,56.022 666.272,61.239 
		663.833,56.022 	"/>
	<polygon fill="#666666" stroke="#272828" stroke-width="0.5" stroke-miterlimit="10" points="687.88,56.022 685.44,61.239 
		683.001,56.022 	"/>
	<rect x="711.815" y="17.229" fill="#040000" width="333.292" height="82.249"/>
	<path fill="#F4F4F4" d="M1044.074,97.563c0,0.553-0.449,0.998-1.003,0.998H713.765c-0.555,0-1.004-0.445-1.004-0.998V19.331
		c0-0.551,0.449-0.998,1.004-0.998h329.307c0.554,0,1.003,0.447,1.003,0.998V97.563z"/>
	<polygon fill="#666666" stroke="#272828" stroke-width="0.5" stroke-miterlimit="10" points="726.209,61.28 728.648,56.063 
		731.088,61.28 	"/>
	<polygon fill="#666666" stroke="#272828" stroke-width="0.5" stroke-miterlimit="10" points="744.918,61.28 747.357,56.063 
		749.797,61.28 	"/>
	<polygon fill="#666666" stroke="#272828" stroke-width="0.5" stroke-miterlimit="10" points="722.588,56.063 720.148,61.28 
		717.709,56.063 	"/>
	<polygon fill="#666666" stroke="#272828" stroke-width="0.5" stroke-miterlimit="10" points="741.755,56.063 739.315,61.28 
		736.876,56.063 	"/>
	<polygon fill="#666666" stroke="#272828" stroke-width="0.5" stroke-miterlimit="10" points="767.475,61.28 769.914,56.063 
		772.354,61.28 	"/>
	<polygon fill="#666666" stroke="#272828" stroke-width="0.5" stroke-miterlimit="10" points="786.184,61.28 788.623,56.063 
		791.063,61.28 	"/>
	<polygon fill="#666666" stroke="#272828" stroke-width="0.5" stroke-miterlimit="10" points="763.854,56.063 761.414,61.28 
		758.975,56.063 	"/>
	<polygon fill="#666666" stroke="#272828" stroke-width="0.5" stroke-miterlimit="10" points="783.021,56.063 780.581,61.28 
		778.142,56.063 	"/>
	<polygon fill="#666666" stroke="#272828" stroke-width="0.5" stroke-miterlimit="10" points="808.74,61.28 811.18,56.063 
		813.619,61.28 	"/>
	<polygon fill="#666666" stroke="#272828" stroke-width="0.5" stroke-miterlimit="10" points="827.449,61.28 829.889,56.063 
		832.328,61.28 	"/>
	<polygon fill="#666666" stroke="#272828" stroke-width="0.5" stroke-miterlimit="10" points="805.119,56.063 802.68,61.28 
		800.24,56.063 	"/>
	<polygon fill="#666666" stroke="#272828" stroke-width="0.5" stroke-miterlimit="10" points="824.285,56.063 821.846,61.28 
		819.406,56.063 	"/>
	<polygon fill="#666666" stroke="#272828" stroke-width="0.5" stroke-miterlimit="10" points="850.006,61.28 852.445,56.063 
		854.885,61.28 	"/>
	<polygon fill="#666666" stroke="#272828" stroke-width="0.5" stroke-miterlimit="10" points="868.715,61.28 871.154,56.063 
		873.594,61.28 	"/>
	<polygon fill="#666666" stroke="#272828" stroke-width="0.5" stroke-miterlimit="10" points="846.385,56.063 843.945,61.28 
		841.506,56.063 	"/>
	<polygon fill="#666666" stroke="#272828" stroke-width="0.5" stroke-miterlimit="10" points="865.551,56.063 863.111,61.28 
		860.672,56.063 	"/>
	<polygon fill="#666666" stroke="#272828" stroke-width="0.5" stroke-miterlimit="10" points="891.271,61.28 893.711,56.063 
		896.15,61.28 	"/>
	<polygon fill="#666666" stroke="#272828" stroke-width="0.5" stroke-miterlimit="10" points="909.979,61.28 912.419,56.063 
		914.858,61.28 	"/>
	<polygon fill="#666666" stroke="#272828" stroke-width="0.5" stroke-miterlimit="10" points="887.65,56.063 885.211,61.28 
		882.771,56.063 	"/>
	<polygon fill="#666666" stroke="#272828" stroke-width="0.5" stroke-miterlimit="10" points="906.816,56.063 904.377,61.28 
		901.938,56.063 	"/>
	<polygon fill="#666666" stroke="#272828" stroke-width="0.5" stroke-miterlimit="10" points="932.537,61.28 934.977,56.063 
		937.416,61.28 	"/>
	<polygon fill="#666666" stroke="#272828" stroke-width="0.5" stroke-miterlimit="10" points="951.245,61.28 953.685,56.063 
		956.124,61.28 	"/>
	<polygon fill="#666666" stroke="#272828" stroke-width="0.5" stroke-miterlimit="10" points="928.916,56.063 926.477,61.28 
		924.037,56.063 	"/>
	<polygon fill="#666666" stroke="#272828" stroke-width="0.5" stroke-miterlimit="10" points="948.082,56.063 945.643,61.28 
		943.203,56.063 	"/>
	<polygon fill="#666666" stroke="#272828" stroke-width="0.5" stroke-miterlimit="10" points="973.803,61.239 976.242,56.022 
		978.681,61.239 	"/>
	<polygon fill="#666666" stroke="#272828" stroke-width="0.5" stroke-miterlimit="10" points="992.51,61.239 994.949,56.022 
		997.389,61.239 	"/>
	<polygon fill="#666666" stroke="#272828" stroke-width="0.5" stroke-miterlimit="10" points="970.182,56.022 967.742,61.239 
		965.303,56.022 	"/>
	<polygon fill="#666666" stroke="#272828" stroke-width="0.5" stroke-miterlimit="10" points="989.348,56.022 986.908,61.239 
		984.469,56.022 	"/>
	<polygon fill="#666666" stroke="#272828" stroke-width="0.5" stroke-miterlimit="10" points="1015.066,61.239 1017.506,56.022 
		1019.945,61.239 	"/>
	<polygon fill="#666666" stroke="#272828" stroke-width="0.5" stroke-miterlimit="10" points="1033.775,61.239 1036.215,56.022 
		1038.654,61.239 	"/>
	<polygon fill="#666666" stroke="#272828" stroke-width="0.5" stroke-miterlimit="10" points="1011.445,56.022 1009.006,61.239 
		1006.566,56.022 	"/>
	<polygon fill="#666666" stroke="#272828" stroke-width="0.5" stroke-miterlimit="10" points="1030.613,56.022 1028.174,61.239 
		1025.734,56.022 	"/>
	<polygon fill="#666666" stroke="#272828" stroke-width="0.5" stroke-miterlimit="10" points="733.863,14.487 731.424,10.263 
		728.984,14.487 	"/>
	<polygon fill="#666666" stroke="#272828" stroke-width="0.5" stroke-miterlimit="10" points="734.898,10.263 737.338,14.487 
		739.777,10.263 	"/>
	<text transform="matrix(1 0 0 1 716.0449 15.2251)" font-family="'MicrosoftYaHeiLight'" font-size="8">33</text>
	<text transform="matrix(1 0 0 1 745.2129 15.2251)" font-family="'MicrosoftYaHeiLight'" font-size="8">34</text>
	<polygon fill="#666666" stroke="#272828" stroke-width="0.5" stroke-miterlimit="10" points="774.936,14.487 772.496,10.263 
		770.057,14.487 	"/>
	<polygon fill="#666666" stroke="#272828" stroke-width="0.5" stroke-miterlimit="10" points="775.971,10.263 778.41,14.487 
		780.85,10.263 	"/>
	<text transform="matrix(1 0 0 1 757.1172 15.2251)" font-family="'MicrosoftYaHeiLight'" font-size="8">35</text>
	<text transform="matrix(1 0 0 1 786.2852 15.2251)" font-family="'MicrosoftYaHeiLight'" font-size="8">36</text>
	<polygon fill="#666666" stroke="#272828" stroke-width="0.5" stroke-miterlimit="10" points="816.008,14.487 813.568,10.263 
		811.129,14.487 	"/>
	<polygon fill="#666666" stroke="#272828" stroke-width="0.5" stroke-miterlimit="10" points="817.043,10.263 819.482,14.487 
		821.922,10.263 	"/>
	<text transform="matrix(1 0 0 1 798.1895 15.2251)" font-family="'MicrosoftYaHeiLight'" font-size="8">37</text>
	<text transform="matrix(1 0 0 1 827.3574 15.2251)" font-family="'MicrosoftYaHeiLight'" font-size="8">38</text>
	<polygon fill="#666666" stroke="#272828" stroke-width="0.5" stroke-miterlimit="10" points="857.08,14.487 854.641,10.263 
		852.201,14.487 	"/>
	<polygon fill="#666666" stroke="#272828" stroke-width="0.5" stroke-miterlimit="10" points="858.115,10.263 860.555,14.487 
		862.994,10.263 	"/>
	<text transform="matrix(1 0 0 1 839.2617 15.2251)" font-family="'MicrosoftYaHeiLight'" font-size="8">39</text>
	<text transform="matrix(1 0 0 1 868.4297 15.2251)" font-family="'MicrosoftYaHeiLight'" font-size="8">40</text>
	<polygon fill="#666666" stroke="#272828" stroke-width="0.5" stroke-miterlimit="10" points="898.152,14.487 895.713,10.263 
		893.273,14.487 	"/>
	<polygon fill="#666666" stroke="#272828" stroke-width="0.5" stroke-miterlimit="10" points="899.188,10.263 901.627,14.487 
		904.066,10.263 	"/>
	<text transform="matrix(1 0 0 1 880.334 15.2251)" font-family="'MicrosoftYaHeiLight'" font-size="8">41</text>
	<text transform="matrix(1 0 0 1 909.502 15.2251)" font-family="'MicrosoftYaHeiLight'" font-size="8">42</text>
	<polygon fill="#666666" stroke="#272828" stroke-width="0.5" stroke-miterlimit="10" points="939.225,14.487 936.785,10.263 
		934.346,14.487 	"/>
	<polygon fill="#666666" stroke="#272828" stroke-width="0.5" stroke-miterlimit="10" points="940.26,10.263 942.699,14.487 
		945.139,10.263 	"/>
	<text transform="matrix(1 0 0 1 921.4063 15.2251)" font-family="'MicrosoftYaHeiLight'" font-size="8">43</text>
	<text transform="matrix(1 0 0 1 950.5742 15.2251)" font-family="'MicrosoftYaHeiLight'" font-size="8">44</text>
	<polygon fill="#666666" stroke="#272828" stroke-width="0.5" stroke-miterlimit="10" points="980.298,14.487 977.858,10.263 
		975.419,14.487 	"/>
	<polygon fill="#666666" stroke="#272828" stroke-width="0.5" stroke-miterlimit="10" points="981.333,10.263 983.772,14.487 
		986.212,10.263 	"/>
	<text transform="matrix(1 0 0 1 962.4795 15.2251)" font-family="'MicrosoftYaHeiLight'" font-size="8">45</text>
	<text transform="matrix(1 0 0 1 991.6465 15.2251)" font-family="'MicrosoftYaHeiLight'" font-size="8">46</text>
	<polygon fill="#666666" stroke="#272828" stroke-width="0.5" stroke-miterlimit="10" points="1021.369,14.487 1018.93,10.263 
		1016.49,14.487 	"/>
	<polygon fill="#666666" stroke="#272828" stroke-width="0.5" stroke-miterlimit="10" points="1022.404,10.263 1024.844,14.487 
		1027.283,10.263 	"/>
	<text transform="matrix(1 0 0 1 1003.5508 15.2251)" font-family="'MicrosoftYaHeiLight'" font-size="8">47</text>
	<text transform="matrix(1 0 0 1 1032.7188 15.2251)" font-family="'MicrosoftYaHeiLight'" font-size="8">48</text>
	<polygon fill="#323333" points="1125.705,30.204 1122.544,32.028 1119.383,30.204 1119.383,26.554 1122.544,24.729 
		1125.705,26.554 	"/>
	<polygon fill="#323333" points="1125.705,45.433 1122.544,47.257 1119.383,45.433 1119.383,41.782 1122.544,39.958 
		1125.705,41.782 	"/>
	<polygon fill="#323333" points="1125.705,60.66 1122.544,62.485 1119.383,60.66 1119.383,57.01 1122.544,55.186 1125.705,57.01 	
		"/>
	<polygon fill="#323333" points="1125.705,75.889 1122.544,77.713 1119.383,75.889 1119.383,72.238 1122.544,70.414 
		1125.705,72.238 	"/>
	<polygon fill="#323333" points="1125.705,91.117 1122.544,92.941 1119.383,91.117 1119.383,87.467 1122.544,85.643 
		1125.705,87.467 	"/>
	<polygon fill="#323333" points="1199.996,30.204 1196.835,32.028 1193.674,30.204 1193.674,26.554 1196.835,24.729 
		1199.996,26.554 	"/>
	<polygon fill="#323333" points="1199.996,45.433 1196.835,47.257 1193.674,45.433 1193.674,41.782 1196.835,39.958 
		1199.996,41.782 	"/>
	<polygon fill="#323333" points="1199.996,60.66 1196.835,62.485 1193.674,60.66 1193.674,57.01 1196.835,55.186 1199.996,57.01 	
		"/>
	<polygon fill="#323333" points="1199.996,75.889 1196.835,77.713 1193.674,75.889 1193.674,72.238 1196.835,70.414 
		1199.996,72.238 	"/>
	<polygon fill="#323333" points="1199.996,91.117 1196.835,92.941 1193.674,91.117 1193.674,87.467 1196.835,85.643 
		1199.996,87.467 	"/>
	<text transform="matrix(1 0 0 1 1150.8672 109.6094)" fill="#878787" font-family="'MicrosoftYaHeiLight'" font-size="8">1</text>
	<text transform="matrix(1 0 0 1 1182.5977 109.6094)" fill="#878787" font-family="'MicrosoftYaHeiLight'" font-size="8">2</text>
	<text transform="matrix(1 0 0 1 1115.7578 109.1504)" fill="#878787" font-family="'MicrosoftYaHeiLight'" font-size="8">40GE</text>
	<text transform="matrix(1 0 0 1 39.9326 111.6563)" fill="#878787" font-family="'MicrosoftYaHeiLight'" font-size="8">SYS</text>
	<text transform="matrix(1 0 0 1 73.5991 111.6563)" fill="#878787" font-family="'MicrosoftYaHeiLight'" font-size="8">MST</text>
	<text transform="matrix(1 0 0 1 115.2656 111.6563)" fill="#878787" font-family="'MicrosoftYaHeiLight'" font-size="8">ID</text>
	<text transform="matrix(1 0 0 1 140.6406 111.6563)" fill="#878787" font-family="'MicrosoftYaHeiLight'" font-size="9">HUAWEI</text>
	<text transform="matrix(1 0 0 1 185.5156 111.6563)" fill="#878787" font-family="'MicrosoftYaHeiLight'" font-size="9">CE6851-48S6Q-HI</text>
	<text transform="matrix(1 0 0 1 1103.5703 118.5254)" fill="#878787" font-family="'MicrosoftYaHeiLight'" font-size="8">BreaKout</text>
	<text transform="matrix(1 0 0 1 1210.2422 109.6094)" fill="#878787" font-family="'MicrosoftYaHeiLight'" font-size="8">3</text>
	<text transform="matrix(1 0 0 1 1238.5977 109.6094)" fill="#878787" font-family="'MicrosoftYaHeiLight'" font-size="8">4</text>
	<circle fill="#AFAFAF" stroke="#878787" stroke-miterlimit="10" cx="1146.438" cy="106.484" r="3.125"/>
	<circle fill="#AFAFAF" stroke="#878787" stroke-miterlimit="10" cx="1175.688" cy="106.484" r="3.125"/>
	<circle fill="#AFAFAF" stroke="#878787" stroke-miterlimit="10" cx="1204.688" cy="106.484" r="3.125"/>
	<circle fill="#AFAFAF" stroke="#878787" stroke-miterlimit="10" cx="1233.938" cy="106.484" r="3.125"/>
	<circle fill="#AFAFAF" stroke="#878787" stroke-miterlimit="10" cx="60.172" cy="108.313" r="3.125"/>
	<circle fill="#AFAFAF" stroke="#878787" stroke-miterlimit="10" cx="94.047" cy="108.313" r="3.125"/>
	<circle fill="#AFAFAF" stroke="#878787" stroke-miterlimit="10" cx="128.547" cy="108.313" r="3.125"/>
	<path fill="none" stroke="#878787" stroke-miterlimit="10" d="M1146.438,114.031c0,0-0.792,4.125,2.271,4.875h82.688
		c0,0,3.146-0.875,2.542-5.25"/>
	<line fill="none" stroke="#878787" stroke-miterlimit="10" x1="1175.354" y1="113.656" x2="1175.354" y2="118.906"/>
	<line fill="none" stroke="#878787" stroke-miterlimit="10" x1="1204.438" y1="113.656" x2="1204.438" y2="118.594"/>
	<rect x="1128.895" y="19.04" fill="#040000" width="60.429" height="80.509"/>
	<path fill="#E0E0E0" d="M1187.663,96.777c0,0.625-0.468,1.129-1.047,1.129h-55.015c-0.579,0-1.047-0.504-1.047-1.129V21.854
		c0-0.624,0.468-1.131,1.047-1.131h55.015c0.579,0,1.047,0.507,1.047,1.131V96.777z"/>
	<g>
		<rect x="1144.656" y="55.241" fill="#070606" width="6.113" height="3.461"/>
		<rect x="1152.021" y="55.241" fill="#070606" width="6.112" height="3.461"/>
		<rect x="1159.385" y="55.241" fill="#070606" width="6.113" height="3.461"/>
		<rect x="1166.749" y="55.241" fill="#070606" width="6.113" height="3.461"/>
		<rect x="1144.656" y="59.886" fill="#070606" width="6.113" height="3.461"/>
		<rect x="1152.021" y="59.886" fill="#070606" width="6.112" height="3.461"/>
		<rect x="1159.385" y="59.886" fill="#070606" width="6.113" height="3.461"/>
		<rect x="1166.749" y="59.886" fill="#070606" width="6.113" height="3.461"/>
	</g>
	<polygon fill="#4F6635" stroke="#424142" stroke-miterlimit="10" points="1134.614,63.083 1137.797,55.502 1140.979,63.083 	"/>
	<polygon fill="#4F6635" stroke="#424142" stroke-miterlimit="10" points="1177.099,63.083 1180.279,55.502 1183.461,63.083 	"/>
	<rect x="1203.043" y="19.04" fill="#040000" width="60.429" height="80.509"/>
	<path fill="#E0E0E0" d="M1261.812,96.777c0,0.625-0.468,1.129-1.047,1.129h-55.015c-0.579,0-1.047-0.504-1.047-1.129V21.854
		c0-0.624,0.468-1.131,1.047-1.131h55.015c0.579,0,1.047,0.507,1.047,1.131V96.777z"/>
	<g>
		<rect x="1218.805" y="55.241" fill="#070606" width="6.113" height="3.461"/>
		<rect x="1226.17" y="55.241" fill="#070606" width="6.112" height="3.461"/>
		<rect x="1233.533" y="55.241" fill="#070606" width="6.113" height="3.461"/>
		<rect x="1240.897" y="55.241" fill="#070606" width="6.113" height="3.461"/>
		<rect x="1218.805" y="59.886" fill="#070606" width="6.113" height="3.461"/>
		<rect x="1226.17" y="59.886" fill="#070606" width="6.112" height="3.461"/>
		<rect x="1233.533" y="59.886" fill="#070606" width="6.113" height="3.461"/>
		<rect x="1240.897" y="59.886" fill="#070606" width="6.113" height="3.461"/>
	</g>
	<polygon fill="#4F6635" stroke="#424142" stroke-miterlimit="10" points="1208.763,63.083 1211.945,55.502 1215.127,63.083 	"/>
	<polygon fill="#4F6635" stroke="#424142" stroke-miterlimit="10" points="1251.247,63.083 1254.428,55.502 1257.609,63.083 	"/>
	<path fill="#E5DB43" stroke="#7C7B7C" stroke-miterlimit="10" d="M1055.521,19.46v-7.393c0-1.41,1.343-2.554,3-2.554h54.269
		c1.656,0,3,1.144,3,2.554v7.393H1055.521z"/>
	<path fill="#E5DB43" stroke="#7C7B7C" stroke-miterlimit="10" d="M1128.686,19.46v-7.393c0-1.41,1.343-2.554,3-2.554h54.269
		c1.656,0,3,1.144,3,2.554v7.393H1128.686z"/>
	<path fill="#E5DB43" stroke="#7C7B7C" stroke-miterlimit="10" d="M1203.123,19.46v-7.393c0-1.41,1.343-2.554,3-2.554h54.269
		c1.656,0,3,1.144,3,2.554v7.393H1203.123z"/>
	<polygon fill="#666666" stroke="#272828" stroke-width="0.5" stroke-miterlimit="10" points="1084.957,16.23 1082.518,12.006 
		1080.078,16.23 	"/>
	<polygon fill="#666666" stroke="#272828" stroke-width="0.5" stroke-miterlimit="10" points="1085.992,12.006 1088.432,16.23 
		1090.871,12.006 	"/>
	<text transform="matrix(1 0 0 1 1068.9688 16.9683)" font-family="'MicrosoftYaHeiLight'" font-size="8">1</text>
	<text transform="matrix(1 0 0 1 1097.1367 16.9683)" font-family="'MicrosoftYaHeiLight'" font-size="8">2</text>
	<polygon fill="#666666" stroke="#272828" stroke-width="0.5" stroke-miterlimit="10" points="1157.785,15.861 1155.346,11.637 
		1152.906,15.861 	"/>
	<polygon fill="#666666" stroke="#272828" stroke-width="0.5" stroke-miterlimit="10" points="1158.82,11.637 1161.26,15.861 
		1163.699,11.637 	"/>
	<text transform="matrix(1 0 0 1 1141.7969 16.5991)" font-family="'MicrosoftYaHeiLight'" font-size="8">3</text>
	<text transform="matrix(1 0 0 1 1169.9648 16.5991)" font-family="'MicrosoftYaHeiLight'" font-size="8">4</text>
	<polygon fill="#666666" stroke="#272828" stroke-width="0.5" stroke-miterlimit="10" points="1232.222,15.861 1229.782,11.637 
		1227.343,15.861 	"/>
	<polygon fill="#666666" stroke="#272828" stroke-width="0.5" stroke-miterlimit="10" points="1233.257,11.637 1235.696,15.861 
		1238.136,11.637 	"/>
	<text transform="matrix(1 0 0 1 1216.2344 16.5991)" font-family="'MicrosoftYaHeiLight'" font-size="8">5</text>
	<text transform="matrix(1 0 0 1 1244.4004 16.5991)" font-family="'MicrosoftYaHeiLight'" font-size="8">6</text>
	<rect x="1055.521" y="19.04" fill="#040000" width="60.429" height="80.509"/>
	<path fill="#E0E0E0" d="M1114.289,96.777c0,0.625-0.468,1.129-1.047,1.129h-55.015c-0.579,0-1.047-0.504-1.047-1.129V21.854
		c0-0.624,0.468-1.131,1.047-1.131h55.015c0.579,0,1.047,0.507,1.047,1.131V96.777z"/>
	<g>
		<rect x="1071.282" y="55.241" fill="#070606" width="6.113" height="3.461"/>
		<rect x="1078.647" y="55.241" fill="#070606" width="6.112" height="3.461"/>
		<rect x="1086.011" y="55.241" fill="#070606" width="6.113" height="3.461"/>
		<rect x="1093.375" y="55.241" fill="#070606" width="6.113" height="3.461"/>
		<rect x="1071.282" y="59.886" fill="#070606" width="6.113" height="3.461"/>
		<rect x="1078.647" y="59.886" fill="#070606" width="6.112" height="3.461"/>
		<rect x="1086.011" y="59.886" fill="#070606" width="6.113" height="3.461"/>
		<rect x="1093.375" y="59.886" fill="#070606" width="6.113" height="3.461"/>
	</g>
	<polygon fill="#4F6635" stroke="#424142" stroke-miterlimit="10" points="1061.24,63.083 1064.423,55.502 1067.604,63.083 	"/>
	<polygon fill="#4F6635" stroke="#424142" stroke-miterlimit="10" points="1103.725,63.083 1106.905,55.502 1110.087,63.083 	"/>
</g>
</svg>
