<?xml version="1.0" encoding="utf-8"?>
<!-- Generator: Adobe Illustrator 16.0.0, SVG Export Plug-In . SVG Version: 6.00 Build 0)  -->
<!DOCTYPE svg PUBLIC "-//W3C//DTD SVG 1.1//EN" "http://www.w3.org/Graphics/SVG/1.1/DTD/svg11.dtd">
<svg version="1.1" id="图层_1" xmlns="http://www.w3.org/2000/svg" xmlns:xlink="http://www.w3.org/1999/xlink" x="0px" y="0px"
	 width="1275.59px" height="126.14px" viewBox="0 0 1275.59 126.14" enable-background="new 0 0 1275.59 126.14"
	 xml:space="preserve">
<rect x="0.592" y="-0.261" fill="#272828" width="1275.591" height="126.142"/>
<rect x="47" y="5.708" fill="#DDDDDD" width="1222.5" height="114.205"/>
<rect x="52.338" y="26.814" fill="#0A090A" width="241.267" height="77.323"/>
<path fill="#E5E5E4" d="M292.903,102.164c0,0.563-0.449,1.018-1.004,1.018H54.043c-0.554,0-1.004-0.455-1.004-1.018V28.948
	c0-0.562,0.45-1.017,1.004-1.017h237.856c0.555,0,1.004,0.455,1.004,1.017V102.164z"/>
<rect x="52.338" y="16.903" fill="#DDDDDD" width="241.267" height="9.911"/>
<path fill="#C3E1E5" d="M293.741,16.903V9.51c0-1.41-1.343-2.554-3-2.554H55.338c-1.656,0-3,1.144-3,2.554v7.393H293.741z"/>
<path fill="none" stroke="#626363" stroke-miterlimit="10" d="M290.741,6.974H55.338c-1.656,0-3,1.144-3,2.554v7.393v9.911h241.403
	V16.92V9.528C293.741,8.118,292.398,6.974,290.741,6.974z"/>
<polygon fill="#666666" stroke="#272828" stroke-width="0.5" stroke-miterlimit="10" points="66.33,23.263 63.891,19.039 
	61.451,23.263 "/>
<polygon fill="#666666" stroke="#272828" stroke-width="0.5" stroke-miterlimit="10" points="81.744,19.039 84.184,23.263 
	86.623,19.039 "/>
<text transform="matrix(1 0 0 1 61.4507 15.001)" font-family="'MicrosoftYaHeiLight'" font-size="8">1</text>
<text transform="matrix(1 0 0 1 81.7397 15.001)" font-family="'MicrosoftYaHeiLight'" font-size="8">2</text>
<polygon fill="#666666" stroke="#272828" stroke-width="0.5" stroke-miterlimit="10" points="105.434,23.263 102.994,19.039 
	100.555,23.263 "/>
<polygon fill="#666666" stroke="#272828" stroke-width="0.5" stroke-miterlimit="10" points="120.848,19.039 123.287,23.263 
	125.727,19.039 "/>
<text transform="matrix(1 0 0 1 100.5542 15.001)" font-family="'MicrosoftYaHeiLight'" font-size="8">3</text>
<text transform="matrix(1 0 0 1 120.8433 15.001)" font-family="'MicrosoftYaHeiLight'" font-size="8">4</text>
<polygon fill="#666666" stroke="#272828" stroke-width="0.5" stroke-miterlimit="10" points="144.537,23.263 142.098,19.039 
	139.658,23.263 "/>
<polygon fill="#666666" stroke="#272828" stroke-width="0.5" stroke-miterlimit="10" points="159.951,19.039 162.391,23.263 
	164.83,19.039 "/>
<text transform="matrix(1 0 0 1 139.6577 15.001)" font-family="'MicrosoftYaHeiLight'" font-size="8">5</text>
<text transform="matrix(1 0 0 1 159.9468 15.001)" font-family="'MicrosoftYaHeiLight'" font-size="8">6</text>
<polygon fill="#666666" stroke="#272828" stroke-width="0.5" stroke-miterlimit="10" points="186.242,23.169 183.803,18.945 
	181.363,23.169 "/>
<polygon fill="#666666" stroke="#272828" stroke-width="0.5" stroke-miterlimit="10" points="201.656,18.945 204.096,23.169 
	206.535,18.945 "/>
<text transform="matrix(1 0 0 1 181.3628 14.9072)" font-family="'MicrosoftYaHeiLight'" font-size="8">7</text>
<text transform="matrix(1 0 0 1 201.6519 14.9072)" font-family="'MicrosoftYaHeiLight'" font-size="8">8</text>
<polygon fill="#666666" stroke="#272828" stroke-width="0.5" stroke-miterlimit="10" points="225.346,23.169 222.906,18.945 
	220.467,23.169 "/>
<polygon fill="#666666" stroke="#272828" stroke-width="0.5" stroke-miterlimit="10" points="240.76,18.945 243.199,23.169 
	245.639,18.945 "/>
<text transform="matrix(1 0 0 1 220.4663 14.9072)" font-family="'MicrosoftYaHeiLight'" font-size="8">9</text>
<text transform="matrix(1 0 0 1 240.7554 14.9072)" font-family="'MicrosoftYaHeiLight'" font-size="8">10</text>
<polygon fill="#666666" stroke="#272828" stroke-width="0.5" stroke-miterlimit="10" points="264.449,23.169 262.01,18.945 
	259.57,23.169 "/>
<polygon fill="#666666" stroke="#272828" stroke-width="0.5" stroke-miterlimit="10" points="279.863,18.945 282.303,23.169 
	284.742,18.945 "/>
<text transform="matrix(1 0 0 1 259.5698 14.9072)" font-family="'MicrosoftYaHeiLight'" font-size="8">11</text>
<text transform="matrix(1 0 0 1 279.8589 14.9072)" font-family="'MicrosoftYaHeiLight'" font-size="8">12</text>
<rect x="308.192" y="26.814" fill="#0A090A" width="241.267" height="77.323"/>
<path fill="#E5E5E4" d="M548.758,102.164c0,0.563-0.449,1.018-1.004,1.018H309.897c-0.554,0-1.004-0.455-1.004-1.018V28.948
	c0-0.562,0.45-1.017,1.004-1.017h237.856c0.555,0,1.004,0.455,1.004,1.017V102.164z"/>
<rect x="308.192" y="16.903" fill="#DDDDDD" width="241.267" height="9.911"/>
<path fill="#C3E1E5" d="M549.596,16.903V9.51c0-1.41-1.343-2.554-3-2.554H311.192c-1.656,0-3,1.144-3,2.554v7.393H549.596z"/>
<path fill="none" stroke="#626363" stroke-miterlimit="10" d="M546.596,6.974H311.192c-1.656,0-3,1.144-3,2.554v7.393v9.911h241.403
	V16.92V9.528C549.596,8.118,548.253,6.974,546.596,6.974z"/>
<polygon fill="#666666" stroke="#272828" stroke-width="0.5" stroke-miterlimit="10" points="322.185,23.263 319.745,19.039 
	317.306,23.263 "/>
<polygon fill="#666666" stroke="#272828" stroke-width="0.5" stroke-miterlimit="10" points="337.599,19.039 340.038,23.263 
	342.478,19.039 "/>
<text transform="matrix(1 0 0 1 317.3052 15.001)" font-family="'MicrosoftYaHeiLight'" font-size="8">13</text>
<text transform="matrix(1 0 0 1 337.5942 15.001)" font-family="'MicrosoftYaHeiLight'" font-size="8">14</text>
<polygon fill="#666666" stroke="#272828" stroke-width="0.5" stroke-miterlimit="10" points="361.288,23.263 358.849,19.039 
	356.409,23.263 "/>
<polygon fill="#666666" stroke="#272828" stroke-width="0.5" stroke-miterlimit="10" points="376.702,19.039 379.142,23.263 
	381.581,19.039 "/>
<text transform="matrix(1 0 0 1 356.4087 15.001)" font-family="'MicrosoftYaHeiLight'" font-size="8">15</text>
<text transform="matrix(1 0 0 1 376.6978 15.001)" font-family="'MicrosoftYaHeiLight'" font-size="8">16</text>
<polygon fill="#666666" stroke="#272828" stroke-width="0.5" stroke-miterlimit="10" points="400.392,23.263 397.952,19.039 
	395.513,23.263 "/>
<polygon fill="#666666" stroke="#272828" stroke-width="0.5" stroke-miterlimit="10" points="415.806,19.039 418.245,23.263 
	420.685,19.039 "/>
<text transform="matrix(1 0 0 1 395.5122 15.001)" font-family="'MicrosoftYaHeiLight'" font-size="8">17</text>
<text transform="matrix(1 0 0 1 415.8013 15.001)" font-family="'MicrosoftYaHeiLight'" font-size="8">18</text>
<polygon fill="#666666" stroke="#272828" stroke-width="0.5" stroke-miterlimit="10" points="442.097,23.169 439.657,18.945 
	437.218,23.169 "/>
<polygon fill="#666666" stroke="#272828" stroke-width="0.5" stroke-miterlimit="10" points="457.511,18.945 459.95,23.169 
	462.39,18.945 "/>
<text transform="matrix(1 0 0 1 437.2173 14.9072)" font-family="'MicrosoftYaHeiLight'" font-size="8">19</text>
<text transform="matrix(1 0 0 1 457.5063 14.9072)" font-family="'MicrosoftYaHeiLight'" font-size="8">20</text>
<polygon fill="#666666" stroke="#272828" stroke-width="0.5" stroke-miterlimit="10" points="481.2,23.169 478.761,18.945 
	476.321,23.169 "/>
<polygon fill="#666666" stroke="#272828" stroke-width="0.5" stroke-miterlimit="10" points="496.614,18.945 499.054,23.169 
	501.493,18.945 "/>
<text transform="matrix(1 0 0 1 476.3208 14.9072)" font-family="'MicrosoftYaHeiLight'" font-size="8">21</text>
<text transform="matrix(1 0 0 1 496.6099 14.9072)" font-family="'MicrosoftYaHeiLight'" font-size="8">22</text>
<polygon fill="#666666" stroke="#272828" stroke-width="0.5" stroke-miterlimit="10" points="520.304,23.169 517.864,18.945 
	515.425,23.169 "/>
<polygon fill="#666666" stroke="#272828" stroke-width="0.5" stroke-miterlimit="10" points="535.718,18.945 538.157,23.169 
	540.597,18.945 "/>
<text transform="matrix(1 0 0 1 515.4243 14.9072)" font-family="'MicrosoftYaHeiLight'" font-size="8">23</text>
<text transform="matrix(1 0 0 1 535.7134 14.9072)" font-family="'MicrosoftYaHeiLight'" font-size="8">24</text>
<rect x="564.047" y="26.814" fill="#0A090A" width="241.267" height="77.323"/>
<path fill="#E5E5E4" d="M804.612,102.164c0,0.563-0.449,1.018-1.004,1.018H565.752c-0.554,0-1.004-0.455-1.004-1.018V28.948
	c0-0.562,0.45-1.017,1.004-1.017h237.856c0.555,0,1.004,0.455,1.004,1.017V102.164z"/>
<rect x="564.047" y="16.903" fill="#DDDDDD" width="241.267" height="9.911"/>
<path fill="#C3E1E5" d="M805.45,16.903V9.51c0-1.41-1.343-2.554-3-2.554H567.047c-1.656,0-3,1.144-3,2.554v7.393H805.45z"/>
<path fill="none" stroke="#626363" stroke-miterlimit="10" d="M802.45,6.974H567.047c-1.656,0-3,1.144-3,2.554v7.393v9.911H805.45
	V16.92V9.528C805.45,8.118,804.107,6.974,802.45,6.974z"/>
<polygon fill="#666666" stroke="#272828" stroke-width="0.5" stroke-miterlimit="10" points="578.039,23.263 575.6,19.039 
	573.16,23.263 "/>
<polygon fill="#666666" stroke="#272828" stroke-width="0.5" stroke-miterlimit="10" points="593.453,19.039 595.893,23.263 
	598.332,19.039 "/>
<text transform="matrix(1 0 0 1 573.1597 15.001)" font-family="'MicrosoftYaHeiLight'" font-size="8">25</text>
<text transform="matrix(1 0 0 1 593.4487 15.001)" font-family="'MicrosoftYaHeiLight'" font-size="8">26</text>
<polygon fill="#666666" stroke="#272828" stroke-width="0.5" stroke-miterlimit="10" points="617.143,23.263 614.703,19.039 
	612.264,23.263 "/>
<polygon fill="#666666" stroke="#272828" stroke-width="0.5" stroke-miterlimit="10" points="632.557,19.039 634.996,23.263 
	637.436,19.039 "/>
<text transform="matrix(1 0 0 1 612.2632 15.001)" font-family="'MicrosoftYaHeiLight'" font-size="8">27</text>
<text transform="matrix(1 0 0 1 632.5522 15.001)" font-family="'MicrosoftYaHeiLight'" font-size="8">28</text>
<polygon fill="#666666" stroke="#272828" stroke-width="0.5" stroke-miterlimit="10" points="656.246,23.263 653.807,19.039 
	651.367,23.263 "/>
<polygon fill="#666666" stroke="#272828" stroke-width="0.5" stroke-miterlimit="10" points="671.66,19.039 674.1,23.263 
	676.539,19.039 "/>
<text transform="matrix(1 0 0 1 651.3672 15.001)" font-family="'MicrosoftYaHeiLight'" font-size="8">29</text>
<text transform="matrix(1 0 0 1 671.6563 15.001)" font-family="'MicrosoftYaHeiLight'" font-size="8">30</text>
<polygon fill="#666666" stroke="#272828" stroke-width="0.5" stroke-miterlimit="10" points="697.951,23.169 695.512,18.945 
	693.072,23.169 "/>
<polygon fill="#666666" stroke="#272828" stroke-width="0.5" stroke-miterlimit="10" points="713.365,18.945 715.805,23.169 
	718.244,18.945 "/>
<text transform="matrix(1 0 0 1 693.0723 14.9072)" font-family="'MicrosoftYaHeiLight'" font-size="8">31</text>
<text transform="matrix(1 0 0 1 713.3613 14.9072)" font-family="'MicrosoftYaHeiLight'" font-size="8">32</text>
<polygon fill="#666666" stroke="#272828" stroke-width="0.5" stroke-miterlimit="10" points="737.055,23.169 734.615,18.945 
	732.176,23.169 "/>
<polygon fill="#666666" stroke="#272828" stroke-width="0.5" stroke-miterlimit="10" points="752.469,18.945 754.908,23.169 
	757.348,18.945 "/>
<text transform="matrix(1 0 0 1 732.1758 14.9072)" font-family="'MicrosoftYaHeiLight'" font-size="8">33</text>
<text transform="matrix(1 0 0 1 752.4648 14.9072)" font-family="'MicrosoftYaHeiLight'" font-size="8">34</text>
<polygon fill="#666666" stroke="#272828" stroke-width="0.5" stroke-miterlimit="10" points="776.158,23.169 773.719,18.945 
	771.279,23.169 "/>
<polygon fill="#666666" stroke="#272828" stroke-width="0.5" stroke-miterlimit="10" points="791.572,18.945 794.012,23.169 
	796.451,18.945 "/>
<text transform="matrix(1 0 0 1 771.2793 14.9072)" font-family="'MicrosoftYaHeiLight'" font-size="8">35</text>
<text transform="matrix(1 0 0 1 791.5684 14.9072)" font-family="'MicrosoftYaHeiLight'" font-size="8">36</text>
<rect x="819.901" y="26.814" fill="#0A090A" width="241.267" height="77.323"/>
<path fill="#E5E5E4" d="M1060.467,102.164c0,0.563-0.449,1.018-1.004,1.018H821.606c-0.554,0-1.004-0.455-1.004-1.018V28.948
	c0-0.562,0.45-1.017,1.004-1.017h237.856c0.555,0,1.004,0.455,1.004,1.017V102.164z"/>
<rect x="819.901" y="16.903" fill="#DDDDDD" width="241.267" height="9.911"/>
<path fill="#C3E1E5" d="M1061.305,16.903V9.51c0-1.41-1.343-2.554-3-2.554H822.901c-1.656,0-3,1.144-3,2.554v7.393H1061.305z"/>
<path fill="#E5DB43" stroke="#7C7B7C" stroke-miterlimit="10" d="M1069.921,105.518v7.393c0,1.41,1.343,2.555,3,2.555h175.707
	c1.656,0,3-1.145,3-2.555v-7.393H1069.921z"/>
<path fill="none" stroke="#626363" stroke-miterlimit="10" d="M1058.305,6.974H822.901c-1.656,0-3,1.144-3,2.554v7.393v9.911
	h241.403V16.92V9.528C1061.305,8.118,1059.962,6.974,1058.305,6.974z"/>
<polygon fill="#666666" stroke="#272828" stroke-width="0.5" stroke-miterlimit="10" points="833.894,23.263 831.454,19.039 
	829.015,23.263 "/>
<polygon fill="#666666" stroke="#272828" stroke-width="0.5" stroke-miterlimit="10" points="849.308,19.039 851.747,23.263 
	854.187,19.039 "/>
<text transform="matrix(1 0 0 1 829.0137 15.001)" font-family="'MicrosoftYaHeiLight'" font-size="8">37</text>
<text transform="matrix(1 0 0 1 849.3027 15.001)" font-family="'MicrosoftYaHeiLight'" font-size="8">38</text>
<polygon fill="#666666" stroke="#272828" stroke-width="0.5" stroke-miterlimit="10" points="872.997,23.263 870.558,19.039 
	868.118,23.263 "/>
<polygon fill="#666666" stroke="#272828" stroke-width="0.5" stroke-miterlimit="10" points="888.411,19.039 890.851,23.263 
	893.29,19.039 "/>
<text transform="matrix(1 0 0 1 868.1172 15.001)" font-family="'MicrosoftYaHeiLight'" font-size="8">39</text>
<text transform="matrix(1 0 0 1 888.4063 15.001)" font-family="'MicrosoftYaHeiLight'" font-size="8">40</text>
<polygon fill="#666666" stroke="#272828" stroke-width="0.5" stroke-miterlimit="10" points="912.101,23.263 909.661,19.039 
	907.222,23.263 "/>
<polygon fill="#666666" stroke="#272828" stroke-width="0.5" stroke-miterlimit="10" points="927.515,19.039 929.954,23.263 
	932.394,19.039 "/>
<text transform="matrix(1 0 0 1 907.2207 15.001)" font-family="'MicrosoftYaHeiLight'" font-size="8">41</text>
<text transform="matrix(1 0 0 1 927.5098 15.001)" font-family="'MicrosoftYaHeiLight'" font-size="8">42</text>
<polygon fill="#666666" stroke="#272828" stroke-width="0.5" stroke-miterlimit="10" points="953.806,23.169 951.366,18.945 
	948.927,23.169 "/>
<polygon fill="#666666" stroke="#272828" stroke-width="0.5" stroke-miterlimit="10" points="969.22,18.945 971.659,23.169 
	974.099,18.945 "/>
<text transform="matrix(1 0 0 1 948.9258 14.9072)" font-family="'MicrosoftYaHeiLight'" font-size="8">43</text>
<text transform="matrix(1 0 0 1 969.2148 14.9072)" font-family="'MicrosoftYaHeiLight'" font-size="8">44</text>
<polygon fill="#666666" stroke="#272828" stroke-width="0.5" stroke-miterlimit="10" points="992.909,23.169 990.47,18.945 
	988.03,23.169 "/>
<polygon fill="#666666" stroke="#272828" stroke-width="0.5" stroke-miterlimit="10" points="1008.323,18.945 1010.763,23.169 
	1013.202,18.945 "/>
<text transform="matrix(1 0 0 1 988.0293 14.9072)" font-family="'MicrosoftYaHeiLight'" font-size="8">45</text>
<text transform="matrix(1 0 0 1 1008.3184 14.9072)" font-family="'MicrosoftYaHeiLight'" font-size="8">46</text>
<polygon fill="#666666" stroke="#272828" stroke-width="0.5" stroke-miterlimit="10" points="1032.013,23.169 1029.573,18.945 
	1027.134,23.169 "/>
<polygon fill="#666666" stroke="#272828" stroke-width="0.5" stroke-miterlimit="10" points="1103.027,65.475 1105.467,69.699 
	1107.906,65.475 "/>
<polygon fill="#666666" stroke="#272828" stroke-width="0.5" stroke-miterlimit="10" points="1151.663,27.012 1154.103,31.237 
	1156.542,27.012 "/>
<polygon fill="#666666" stroke="#272828" stroke-width="0.5" stroke-miterlimit="10" points="1163.494,23.498 1167.719,21.058 
	1163.494,18.619 "/>
<polygon fill="#666666" stroke="#272828" stroke-width="0.5" stroke-miterlimit="10" points="1126.717,69.699 1124.277,65.475 
	1121.838,69.699 "/>
<polygon fill="#666666" stroke="#272828" stroke-width="0.5" stroke-miterlimit="10" points="1193.304,65.475 1195.743,69.699 
	1198.183,65.475 "/>
<polygon fill="#666666" stroke="#272828" stroke-width="0.5" stroke-miterlimit="10" points="1216.993,69.699 1214.554,65.475 
	1212.114,69.699 "/>
<polygon fill="#666666" stroke="#272828" stroke-width="0.5" stroke-miterlimit="10" points="1047.427,18.945 1049.866,23.169 
	1052.306,18.945 "/>
<text transform="matrix(1 0 0 1 1027.1328 14.9072)" font-family="'MicrosoftYaHeiLight'" font-size="8">47</text>
<text transform="matrix(1 0 0 1 1047.4219 14.9072)" font-family="'MicrosoftYaHeiLight'" font-size="8">48</text>
<rect x="1069.921" y="72.537" width="181.746" height="32.98"/>
<rect x="1070.854" y="73.76" fill="#DDDDDD" width="179.624" height="30.721"/>
<text transform="matrix(1 0 0 1 1082.3633 113.9434)" font-family="'MicrosoftYaHeiLight'" font-size="8">1</text>
<text transform="matrix(1 0 0 1 1102.6523 113.9434)" font-family="'MicrosoftYaHeiLight'" font-size="8">2</text>
<text transform="matrix(1 0 0 1 1125.4668 113.9434)" font-family="'MicrosoftYaHeiLight'" font-size="8">3</text>
<text transform="matrix(1 0 0 1 1145.7559 113.9434)" font-family="'MicrosoftYaHeiLight'" font-size="8">4</text>
<text transform="matrix(1 0 0 1 1169.582 113.9434)" font-family="'MicrosoftYaHeiLight'" font-size="8">5</text>
<text transform="matrix(1 0 0 1 1189.8711 113.9434)" font-family="'MicrosoftYaHeiLight'" font-size="8">6</text>
<text transform="matrix(1 0 0 1 1214.75 113.9434)" font-family="'MicrosoftYaHeiLight'" font-size="8">7</text>
<text transform="matrix(1 0 0 1 1235.0391 113.9434)" font-family="'MicrosoftYaHeiLight'" font-size="8">8</text>
<path fill="#EDC3CF" stroke="#7C7B7C" stroke-miterlimit="10" d="M1218.568,45.33c0,2.762-2.238,5-5,5h-37.463c-2.762,0-5-2.238-5-5
	V11.974c0-2.762,2.238-5,5-5h37.463c2.762,0,5,2.238,5,5V45.33z"/>
<path fill="#EDC3CF" stroke="#7C7B7C" stroke-miterlimit="10" d="M1170.098,61.058c0,1.86-1.51,3.37-3.37,3.37h-25.249
	c-1.861,0-3.371-1.509-3.371-3.37V38.576c0-1.861,1.51-3.369,3.371-3.369h25.249c1.86,0,3.37,1.508,3.37,3.369V61.058z"/>
<path fill="#EDEDED" d="M1213.642,41.868c0,2.188-1.773,3.962-3.962,3.962h-29.686c-2.188,0-3.963-1.773-3.963-3.962V15.436
	c0-2.188,1.774-3.962,3.963-3.962h29.686c2.188,0,3.962,1.773,3.962,3.962V41.868z"/>
<rect x="1140.095" y="37.556" fill="#070606" width="28.016" height="23.875"/>
</svg>
