<?xml version="1.0" encoding="utf-8"?>
<!-- Generator: Adobe Illustrator 19.0.0, SVG Export Plug-In . SVG Version: 6.00 Build 0)  -->
<svg version="1.1" id="图层_1" xmlns="http://www.w3.org/2000/svg" xmlns:xlink="http://www.w3.org/1999/xlink" x="0px" y="0px"
	 width="1252.914px" height="124.725px" viewBox="0 0 1252.914 124.725" enable-background="new 0 0 1252.914 124.725"
	 xml:space="preserve">
<rect fill="#4A484E" width="1252.914" height="124.725"/>
<path fill="#D6D9D5" stroke="#000000" stroke-miterlimit="10" d="M1243.457,108.693c0,3.131-2.538,5.669-5.669,5.669H15.127
	c-3.132,0-5.67-2.538-5.67-5.669V16.031c0-3.131,2.538-5.669,5.67-5.669h1222.661c3.131,0,5.669,2.538,5.669,5.669V108.693z"/>
<rect x="1094.75" y="64.537" fill="#C9CACA" stroke="#000000" stroke-width="2" stroke-miterlimit="10" width="46.5" height="39.325"/>
<g>
	<polygon points="1182.646,23.075 1186.272,23.075 1186.272,20.177 1187.901,20.177 1187.901,27.327 1186.272,27.327 
		1186.272,24.341 1182.646,24.341 1182.646,27.327 1181.017,27.327 1181.017,20.177 1182.646,20.177 	"/>
	<path d="M1190.856,24.46c0,1.266,0.399,1.791,1.747,1.791c1.347,0,1.736-0.525,1.736-1.791v-4.283h1.629v4.322
		c0,0.917-0.11,1.544-0.454,1.922c-0.638,0.699-1.564,0.986-2.911,0.986c-1.348,0-2.286-0.287-2.922-0.986
		c-0.356-0.387-0.444-1.016-0.444-1.922v-4.322h1.619V24.46z"/>
	<path d="M1201.287,20.177l3.301,7.15h-1.811l-0.713-1.702h-3.364l-0.689,1.702h-1.726l3.276-7.15H1201.287z M1199.227,24.352h2.309
		l-1.175-2.749L1199.227,24.352z"/>
	<polygon points="1205.326,20.177 1207.118,25.675 1208.626,20.177 1210.546,20.177 1212.282,25.675 1213.952,20.177 
		1215.625,20.177 1213.23,27.327 1211.235,27.327 1209.585,21.991 1208.141,27.327 1206.157,27.327 1203.578,20.177 	"/>
	<path d="M1217.816,23.085h4.506v1.244h-4.516c0.01,1.285,0.56,1.754,1.842,1.754h2.674v1.244h-2.748
		c-0.938,0-1.661-0.069-2.416-0.627c-0.797-0.587-1.184-1.523-1.184-2.818c0-2.528,1.153-3.705,3.642-3.705h2.705v1.246h-2.674
		C1218.474,21.423,1217.881,21.96,1217.816,23.085"/>
	<rect x="1223.757" y="20.177" width="1.702" height="7.15"/>
	<g>
		<path d="M1163.913,26.458c0,0,0.039-0.03,0.019-0.082h0.001c-2.611-5.705-6.182-10.027-6.182-10.027s-1.943,1.843-1.805,3.691
			c0.074,1.397,1.125,2.226,1.125,2.226c1.694,1.651,5.798,3.736,6.751,4.209C1163.834,26.479,1163.883,26.495,1163.913,26.458"/>
		<path d="M1163.277,27.87c-0.017-0.06-0.087-0.06-0.087-0.06v-0.002l-6.83,0.238c0.741,1.319,1.988,2.346,3.287,2.031
			c0.899-0.225,2.93-1.642,3.599-2.121h-0.001C1163.296,27.908,1163.277,27.87,1163.277,27.87"/>
		<path d="M1163.38,27.257c0.033-0.054-0.025-0.101-0.025-0.101v-0.002c-2.999-2.022-8.812-5.129-8.812-5.129
			c-0.528,1.637,0.183,2.954,0.183,2.954c0.741,1.566,2.157,2.04,2.157,2.04c0.652,0.269,1.306,0.287,1.306,0.287
			c0.102,0.019,4.062,0.002,5.123-0.004C1163.355,27.302,1163.38,27.257,1163.38,27.257"/>
		<path d="M1163.834,13.398c-0.298,0.025-1.101,0.208-1.101,0.208c-1.808,0.468-2.235,2.109-2.235,2.109
			c-0.328,1.031,0.008,2.166,0.008,2.166c0.604,2.678,3.575,7.078,4.212,8.002c0.047,0.046,0.082,0.029,0.082,0.029
			c0.068-0.019,0.063-0.085,0.063-0.085l0.002,0.001C1165.848,16.003,1163.834,13.398,1163.834,13.398"/>
		<path d="M1166.095,25.911c0.066,0.025,0.099-0.037,0.099-0.037h0.001c0.655-0.947,3.608-5.324,4.209-7.992
			c0,0,0.325-1.292,0.011-2.166c0,0-0.445-1.667-2.257-2.107c0,0-0.523-0.132-1.075-0.21c0,0-2.024,2.606-1.04,12.437l0,0
			C1166.05,25.897,1166.095,25.911,1166.095,25.911"/>
		<path d="M1167.711,27.813c0,0-0.06,0.008-0.076,0.053c0,0-0.015,0.061,0.025,0.092l0,0c0.653,0.469,2.635,1.855,3.592,2.123
			c0,0,1.765,0.604,3.299-2.031l-6.839-0.238L1167.711,27.813z"/>
		<path d="M1176.369,22.011c0,0-5.806,3.115-8.809,5.14l0.002,0.001c0,0-0.054,0.035-0.034,0.1c0,0,0.027,0.051,0.069,0.051l0,0
			c1.074,0.002,5.143,0.008,5.244-0.012c0,0,0.527-0.021,1.178-0.271c0,0,1.446-0.459,2.198-2.103
			C1176.217,24.916,1176.886,23.575,1176.369,22.011"/>
		<path d="M1167.013,26.458c0,0,0.047,0.035,0.091,0.006v0.001c0.979-0.485,5.051-2.558,6.737-4.2c0,0,1.067-0.858,1.124-2.234
			c0.123-1.912-1.803-3.682-1.803-3.682s-3.562,4.31-6.171,10h0.003C1166.995,26.349,1166.962,26.415,1167.013,26.458"/>
	</g>
</g>
<g>
	<path d="M35.887,26.422c-0.305,0.145-0.622,0.255-0.952,0.329c-0.329,0.075-0.67,0.112-1.024,0.112
		c-1.14,0-2.053-0.404-2.738-1.212c-0.803-0.946-1.205-2.161-1.205-3.643c0-0.99,0.169-2.023,0.506-3.098
		c0.439-1.38,1.084-2.429,1.935-3.146c0.851-0.717,1.836-1.075,2.955-1.075c1.161,0,2.118,0.441,2.87,1.325
		c0.752,0.883,1.128,2.087,1.128,3.612c0,1.166-0.202,2.274-0.606,3.323c-0.404,1.049-0.925,1.894-1.562,2.536
		c0.407,0.491,0.851,0.902,1.333,1.233l-0.939,1.499C36.974,27.856,36.406,27.257,35.887,26.422z M36.056,23.81
		c0.375-0.46,0.689-1.079,0.943-1.858c0.254-0.779,0.381-1.532,0.381-2.26c0-0.958-0.206-1.694-0.618-2.208
		c-0.412-0.514-0.932-0.771-1.558-0.771c-0.503,0-0.999,0.191-1.485,0.574c-0.487,0.383-0.906,1.005-1.257,1.867
		c-0.35,0.861-0.526,1.766-0.526,2.714c0,0.941,0.211,1.673,0.634,2.191c0.423,0.52,0.95,0.779,1.582,0.779
		c0.294,0,0.508-0.022,0.642-0.065c0.048-0.017,0.072-0.052,0.072-0.106c0-0.054-0.096-0.185-0.289-0.393
		c-0.252-0.268-0.514-0.463-0.787-0.586l0.723-1.347C35.108,22.711,35.622,23.2,36.056,23.81z"/>
	<path d="M41.137,18.135h1.898l-0.865,5.033c-0.101,0.603-0.152,0.98-0.152,1.133c0,0.262,0.075,0.48,0.227,0.654
		c0.151,0.175,0.335,0.262,0.552,0.262c0.254,0,0.506-0.091,0.755-0.273c0.35-0.252,0.628-0.58,0.834-0.983
		c0.207-0.404,0.383-0.992,0.53-1.763l0.756-4.063h1.898l-1.582,8.527h-1.775l0.211-1.156c-0.769,0.899-1.599,1.35-2.49,1.35
		c-0.562,0-1.009-0.197-1.34-0.591c-0.332-0.394-0.497-0.936-0.497-1.626c0-0.289,0.075-0.872,0.226-1.75L41.137,18.135z"/>
	<path d="M49.529,18.135h1.887l-1.461,8.527h-1.887L49.529,18.135z M50.083,14.892h1.895l-0.361,2.087h-1.887L50.083,14.892z"/>
	<path d="M58.13,26.662h-1.793l0.169-0.929c-0.343,0.414-0.677,0.705-1.001,0.872c-0.324,0.166-0.679,0.25-1.063,0.25
		c-0.696,0-1.265-0.298-1.706-0.892c-0.441-0.595-0.662-1.488-0.662-2.682c0-1.408,0.319-2.65,0.957-3.726
		c0.638-1.076,1.455-1.614,2.451-1.614c0.922,0,1.615,0.452,2.079,1.357l0.793-4.408h1.891L58.13,26.662z M53.913,23.188
		c0,0.62,0.123,1.099,0.368,1.436c0.246,0.336,0.544,0.505,0.896,0.505c0.29,0,0.571-0.116,0.845-0.349
		c0.274-0.233,0.513-0.643,0.717-1.23c0.205-0.588,0.307-1.195,0.307-1.82c0-0.642-0.132-1.15-0.396-1.527
		c-0.264-0.377-0.566-0.565-0.907-0.565c-0.264,0-0.533,0.122-0.807,0.365c-0.274,0.243-0.513,0.668-0.717,1.274
		C54.015,21.883,53.913,22.521,53.913,23.188z"/>
	<path d="M67.368,26.662h-1.777l-0.349-5.428l-2.122,5.428h-1.765l-0.875-8.527h1.678l0.49,5.726l2.16-5.726h1.734l0.241,5.726
		l2.168-5.726h1.895L67.368,26.662z"/>
	<path d="M73.215,20.552l-1.847-0.192c0.221-0.787,0.604-1.387,1.149-1.799c0.545-0.412,1.235-0.618,2.071-0.618
		c0.853,0,1.508,0.211,1.966,0.633c0.459,0.422,0.688,0.981,0.688,1.68c0,0.245-0.021,0.506-0.064,0.782
		c-0.044,0.276-0.205,1.032-0.483,2.268c-0.232,1.017-0.348,1.726-0.348,2.131c0,0.377,0.063,0.785,0.189,1.227h-1.883
		c-0.077-0.312-0.124-0.635-0.141-0.969c-0.268,0.377-0.576,0.664-0.924,0.863c-0.348,0.199-0.695,0.299-1.04,0.299
		c-0.546,0-1.005-0.226-1.377-0.675c-0.371-0.45-0.557-1.049-0.557-1.799c0-0.861,0.219-1.525,0.658-1.991
		c0.434-0.466,1.162-0.747,2.184-0.843c0.899-0.091,1.502-0.201,1.807-0.329c0.1-0.327,0.15-0.587,0.15-0.779
		c0-0.257-0.088-0.464-0.265-0.622c-0.176-0.158-0.416-0.237-0.72-0.237C73.766,19.58,73.362,19.904,73.215,20.552z M74.953,22.688
		c-0.115,0.038-0.264,0.072-0.447,0.104c-0.862,0.128-1.431,0.3-1.706,0.516c-0.274,0.217-0.412,0.506-0.412,0.869
		c0,0.282,0.078,0.512,0.233,0.688c0.156,0.177,0.354,0.265,0.593,0.265c0.25,0,0.49-0.073,0.72-0.22
		c0.229-0.148,0.413-0.353,0.551-0.617c0.138-0.264,0.271-0.697,0.397-1.3L74.953,22.688z"/>
	<path d="M78.633,18.135h1.881l0.474,4.248c0.118,1.087,0.185,1.852,0.201,2.296c0.246-0.877,0.584-1.798,1.012-2.762l1.678-3.782
		h1.999l-4.318,9.362c-0.407,0.879-0.72,1.466-0.939,1.764c-0.22,0.297-0.467,0.515-0.743,0.653
		c-0.276,0.14-0.588,0.209-0.936,0.209c-0.396,0-0.846-0.086-1.35-0.257l0.169-1.719c0.225,0.081,0.444,0.121,0.659,0.121
		c0.578,0,1.056-0.536,1.433-1.607L78.633,18.135z"/>
	<path d="M93.353,22.849l1.887-0.121c0.027,0.632,0.099,1.071,0.217,1.317c0.118,0.246,0.314,0.44,0.586,0.582
		c0.273,0.142,0.645,0.213,1.116,0.213c0.61,0,1.069-0.134,1.377-0.401c0.308-0.268,0.461-0.618,0.461-1.052
		c0-0.306-0.088-0.567-0.265-0.787c-0.177-0.214-0.634-0.517-1.373-0.907c-0.937-0.498-1.559-0.885-1.867-1.16
		c-0.308-0.276-0.546-0.614-0.714-1.016c-0.168-0.401-0.253-0.859-0.253-1.373c0-1.05,0.308-1.888,0.923-2.514
		c0.616-0.626,1.456-0.939,2.521-0.939c1.076,0,1.937,0.311,2.581,0.934s0.999,1.5,1.064,2.632l-1.903,0.096
		c-0.097-1.161-0.682-1.742-1.755-1.742c-0.531,0-0.921,0.111-1.171,0.334c-0.249,0.223-0.374,0.526-0.374,0.913
		c0,0.354,0.119,0.641,0.356,0.86c0.232,0.225,0.699,0.525,1.4,0.9c0.926,0.487,1.541,0.866,1.847,1.137
		c0.306,0.269,0.54,0.602,0.704,0.994c0.163,0.394,0.245,0.839,0.245,1.336c0,1.113-0.351,2.021-1.052,2.725
		c-0.701,0.703-1.627,1.055-2.778,1.055c-0.867,0-1.607-0.185-2.22-0.555c-0.613-0.369-1.03-0.861-1.252-1.477
		C93.44,24.216,93.337,23.555,93.353,22.849z"/>
	<path d="M111.391,17.18l0.361-2.128h6.367l-0.281,1.638c-0.332,0.327-0.683,0.771-1.052,1.333c-0.53,0.809-0.982,1.63-1.357,2.465
		c-0.52,1.168-0.926,2.232-1.221,3.196c-0.407,1.344-0.661,2.336-0.763,2.979h-1.799c0.107-0.781,0.356-1.793,0.747-3.035
		c0.391-1.241,0.843-2.391,1.357-3.448c0.514-1.058,1.103-2.057,1.767-2.999H111.391z"/>
	<path d="M118.361,22.832c0-1.52,0.242-2.975,0.727-4.363c0.484-1.39,1.059-2.376,1.722-2.959c0.503-0.444,1.071-0.667,1.703-0.667
		c0.776,0,1.417,0.345,1.923,1.032c0.506,0.688,0.759,1.695,0.759,3.023c0,1.52-0.24,2.974-0.719,4.359
		c-0.479,1.387-1.05,2.371-1.714,2.955c-0.498,0.434-1.068,0.65-1.71,0.65c-0.766,0-1.405-0.34-1.919-1.02
		C118.618,25.164,118.361,24.16,118.361,22.832z M120.216,23.298c0,0.632,0.084,1.076,0.253,1.333
		c0.168,0.257,0.384,0.386,0.646,0.386c0.332,0,0.634-0.185,0.907-0.555c0.359-0.497,0.671-1.449,0.936-2.854
		c0.265-1.404,0.397-2.49,0.397-3.256c0-0.588-0.085-1.013-0.257-1.273c-0.171-0.26-0.388-0.39-0.65-0.39
		c-0.316,0-0.602,0.183-0.859,0.547c-0.407,0.572-0.752,1.624-1.036,3.155C120.328,21.591,120.216,22.56,120.216,23.298z"/>
	<path d="M125.86,22.832c0-1.52,0.242-2.975,0.727-4.363c0.484-1.39,1.059-2.376,1.722-2.959c0.503-0.444,1.071-0.667,1.703-0.667
		c0.776,0,1.417,0.345,1.923,1.032c0.506,0.688,0.759,1.695,0.759,3.023c0,1.52-0.24,2.974-0.719,4.359
		c-0.479,1.387-1.05,2.371-1.714,2.955c-0.498,0.434-1.068,0.65-1.71,0.65c-0.766,0-1.405-0.34-1.919-1.02
		C126.117,25.164,125.86,24.16,125.86,22.832z M127.715,23.298c0,0.632,0.084,1.076,0.253,1.333
		c0.168,0.257,0.384,0.386,0.646,0.386c0.332,0,0.634-0.185,0.907-0.555c0.359-0.497,0.671-1.449,0.936-2.854
		c0.265-1.404,0.397-2.49,0.397-3.256c0-0.588-0.085-1.013-0.257-1.273s-0.388-0.39-0.65-0.39c-0.316,0-0.602,0.183-0.859,0.547
		c-0.407,0.572-0.752,1.624-1.036,3.155C127.828,21.591,127.715,22.56,127.715,23.298z"/>
	<path d="M137.093,22.849l1.887-0.121c0.027,0.632,0.099,1.071,0.217,1.317c0.118,0.246,0.314,0.44,0.586,0.582
		c0.273,0.142,0.645,0.213,1.116,0.213c0.61,0,1.069-0.134,1.377-0.401c0.308-0.268,0.461-0.618,0.461-1.052
		c0-0.306-0.088-0.567-0.265-0.787c-0.177-0.214-0.634-0.517-1.373-0.907c-0.937-0.498-1.559-0.885-1.867-1.16
		c-0.308-0.276-0.546-0.614-0.714-1.016s-0.253-0.859-0.253-1.373c0-1.05,0.308-1.888,0.923-2.514
		c0.616-0.626,1.456-0.939,2.521-0.939c1.076,0,1.936,0.311,2.581,0.934c0.645,0.622,1,1.5,1.064,2.632l-1.903,0.096
		c-0.097-1.161-0.682-1.742-1.755-1.742c-0.531,0-0.921,0.111-1.171,0.334c-0.249,0.223-0.374,0.526-0.374,0.913
		c0,0.354,0.119,0.641,0.356,0.86c0.232,0.225,0.699,0.525,1.4,0.9c0.926,0.487,1.541,0.866,1.847,1.137
		c0.306,0.269,0.54,0.602,0.704,0.994c0.164,0.394,0.245,0.839,0.245,1.336c0,1.113-0.351,2.021-1.052,2.725
		c-0.701,0.703-1.628,1.055-2.778,1.055c-0.867,0-1.607-0.185-2.22-0.555c-0.613-0.369-1.03-0.861-1.252-1.477
		C137.18,24.216,137.077,23.555,137.093,22.849z"/>
	<path d="M152.582,23.113h-4.745v0.217c0,0.573,0.134,1.03,0.401,1.373c0.268,0.343,0.589,0.514,0.963,0.514
		c0.621,0,1.111-0.396,1.47-1.189l1.694,0.346c-0.332,0.83-0.774,1.45-1.325,1.862c-0.551,0.413-1.169,0.619-1.855,0.619
		c-0.91,0-1.666-0.354-2.268-1.064c-0.602-0.709-0.903-1.671-0.903-2.887c0-1.312,0.343-2.466,1.028-3.464
		c0.685-0.999,1.643-1.498,2.875-1.498c0.829,0,1.503,0.314,2.019,0.943c0.516,0.629,0.774,1.538,0.774,2.727
		C152.71,22.174,152.667,22.675,152.582,23.113z M150.984,21.708l0.008-0.225c0-0.648-0.119-1.127-0.357-1.438
		c-0.238-0.311-0.547-0.466-0.928-0.466c-0.385,0-0.734,0.18-1.048,0.538c-0.313,0.359-0.523,0.889-0.63,1.59H150.984z"/>
	<path d="M154.588,18.135h1.772l-0.282,1.654c0.661-1.231,1.381-1.847,2.162-1.847c0.271,0,0.566,0.08,0.886,0.241l-0.723,1.887
		c-0.174-0.075-0.355-0.112-0.545-0.112c-0.298,0-0.578,0.099-0.838,0.297c-0.396,0.305-0.7,0.704-0.912,1.196
		c-0.211,0.493-0.42,1.339-0.626,2.537l-0.467,2.674h-1.887L154.588,18.135z"/>
	<path d="M159.985,18.135h1.887l-1.461,8.527h-1.887L159.985,18.135z M160.539,14.892h1.895l-0.361,2.087h-1.887L160.539,14.892z"/>
	<path d="M169.074,23.113h-4.745v0.217c0,0.573,0.134,1.03,0.401,1.373c0.268,0.343,0.589,0.514,0.963,0.514
		c0.621,0,1.111-0.396,1.47-1.189l1.694,0.346c-0.332,0.83-0.773,1.45-1.325,1.862c-0.551,0.413-1.17,0.619-1.855,0.619
		c-0.91,0-1.666-0.354-2.268-1.064c-0.602-0.709-0.903-1.671-0.903-2.887c0-1.312,0.343-2.466,1.028-3.464
		c0.685-0.999,1.643-1.498,2.874-1.498c0.83,0,1.503,0.314,2.02,0.943c0.516,0.629,0.774,1.538,0.774,2.727
		C169.202,22.174,169.16,22.675,169.074,23.113z M167.476,21.708l0.008-0.225c0-0.648-0.119-1.127-0.357-1.438
		c-0.238-0.311-0.547-0.466-0.928-0.466c-0.385,0-0.734,0.18-1.048,0.538c-0.313,0.359-0.523,0.889-0.63,1.59H167.476z"/>
	<path d="M169.523,24.277l1.831-0.352c0.161,0.481,0.364,0.817,0.61,1.007c0.247,0.191,0.573,0.285,0.98,0.285
		c0.391,0,0.706-0.094,0.947-0.28c0.241-0.188,0.361-0.407,0.361-0.659c0-0.171-0.051-0.315-0.152-0.434
		c-0.107-0.112-0.364-0.249-0.771-0.409c-1.129-0.455-1.831-0.814-2.104-1.076c-0.434-0.423-0.65-0.974-0.65-1.654
		c0-0.803,0.284-1.464,0.851-1.982c0.567-0.52,1.343-0.779,2.328-0.779c1.67,0,2.639,0.741,2.907,2.225l-1.742,0.369
		c-0.204-0.675-0.69-1.012-1.462-1.012c-0.364,0-0.64,0.075-0.827,0.225c-0.188,0.15-0.281,0.34-0.281,0.57
		c0,0.192,0.072,0.356,0.217,0.489c0.107,0.103,0.476,0.266,1.108,0.49c0.905,0.321,1.512,0.635,1.823,0.94
		c0.455,0.444,0.683,0.985,0.683,1.622c0,0.861-0.292,1.576-0.876,2.144s-1.357,0.852-2.32,0.852
		C171.089,26.855,169.936,25.996,169.523,24.277z"/>
	<text transform="matrix(1 0 0 1 101.2666 26.8818)" font-family="'Arial-BoldItalicMT'" font-size="17.0333px">3</text>
</g>
<g>
	<path fill="#FFF67F" d="M48.741,75.024c-9.054,0-16.419,7.365-16.419,16.419c0,9.054,7.365,16.419,16.419,16.419
		s16.419-7.365,16.419-16.419C65.16,82.39,57.794,75.024,48.741,75.024z M48.741,105.655c-7.836,0-14.211-6.376-14.211-14.212
		c0-7.836,6.375-14.212,14.211-14.212c7.836,0,14.211,6.376,14.211,14.212C62.952,99.279,56.577,105.655,48.741,105.655z"/>
	<polygon fill="#FFF67F" points="49.844,83.303 47.637,83.303 47.637,92.409 39.358,92.409 39.358,94.616 58.123,94.616 
		58.123,92.409 49.844,92.409 	"/>
	<rect x="42.394" y="96.825" fill="#FFF67F" width="12.694" height="2.207"/>
	<rect x="44.463" y="100.688" fill="#FFF67F" width="8.555" height="2.208"/>
</g>
<g>
	<path d="M83.877,107.522v1.089c-0.256,0.205-0.463,0.342-0.621,0.41c-0.158,0.069-0.322,0.104-0.491,0.104
		c-0.129,0-0.259-0.019-0.389-0.057c-0.13-0.037-0.334-0.127-0.611-0.267c-0.277-0.141-0.496-0.211-0.656-0.211
		c-0.343,0-0.697,0.179-1.062,0.534v-1.099c0.207-0.186,0.401-0.317,0.581-0.396c0.181-0.078,0.377-0.117,0.591-0.117
		c0.109,0,0.224,0.018,0.344,0.052c0.12,0.035,0.297,0.109,0.529,0.224c0.233,0.114,0.398,0.186,0.496,0.215
		c0.098,0.029,0.19,0.044,0.277,0.044C83.163,108.047,83.5,107.872,83.877,107.522z"/>
	<path d="M87.593,105.789v4.979h-1.376v-3.263c-0.223,0.169-0.438,0.306-0.646,0.411c-0.208,0.104-0.469,0.204-0.783,0.3v-1.115
		c0.463-0.149,0.823-0.328,1.079-0.537c0.256-0.21,0.457-0.468,0.601-0.775H87.593z"/>
	<path d="M89.073,108.301c0-0.931,0.167-1.582,0.502-1.954c0.335-0.371,0.845-0.558,1.531-0.558c0.33,0,0.6,0.041,0.812,0.122
		c0.211,0.081,0.384,0.187,0.518,0.317c0.133,0.13,0.239,0.267,0.315,0.41c0.077,0.145,0.139,0.312,0.186,0.503
		c0.091,0.365,0.137,0.746,0.137,1.143c0,0.888-0.15,1.538-0.451,1.95c-0.301,0.412-0.818,0.617-1.553,0.617
		c-0.412,0-0.745-0.065-0.999-0.196c-0.254-0.132-0.462-0.324-0.624-0.578c-0.118-0.181-0.21-0.427-0.276-0.739
		C89.106,109.024,89.073,108.679,89.073,108.301z M90.422,108.304c0,0.624,0.055,1.05,0.165,1.277
		c0.11,0.229,0.27,0.343,0.479,0.343c0.138,0,0.257-0.049,0.359-0.146c0.101-0.097,0.176-0.25,0.224-0.459
		c0.048-0.209,0.072-0.535,0.072-0.979c0-0.65-0.055-1.087-0.165-1.311c-0.11-0.225-0.276-0.336-0.496-0.336
		c-0.225,0-0.387,0.114-0.488,0.342C90.472,107.265,90.422,107.688,90.422,108.304z"/>
	<path d="M93.635,108.301c0-0.931,0.167-1.582,0.502-1.954c0.335-0.371,0.845-0.558,1.531-0.558c0.33,0,0.6,0.041,0.812,0.122
		c0.211,0.081,0.384,0.187,0.518,0.317c0.133,0.13,0.239,0.267,0.315,0.41c0.077,0.145,0.139,0.312,0.186,0.503
		c0.091,0.365,0.137,0.746,0.137,1.143c0,0.888-0.15,1.538-0.451,1.95c-0.301,0.412-0.818,0.617-1.553,0.617
		c-0.412,0-0.745-0.065-0.999-0.196c-0.254-0.132-0.462-0.324-0.625-0.578c-0.118-0.181-0.21-0.427-0.276-0.739
		C93.668,109.024,93.635,108.679,93.635,108.301z M94.984,108.304c0,0.624,0.055,1.05,0.165,1.277
		c0.11,0.229,0.27,0.343,0.479,0.343c0.138,0,0.257-0.049,0.359-0.146c0.101-0.097,0.176-0.25,0.224-0.459
		c0.048-0.209,0.072-0.535,0.072-0.979c0-0.65-0.055-1.087-0.165-1.311c-0.11-0.225-0.276-0.336-0.496-0.336
		c-0.225,0-0.387,0.114-0.488,0.342C95.034,107.265,94.984,107.688,94.984,108.304z"/>
	<path d="M98.066,108.458h1.977v1.052h-1.977V108.458z"/>
	<path d="M104.455,110.769h-4.081c0.047-0.403,0.189-0.782,0.426-1.137c0.237-0.355,0.682-0.774,1.335-1.258
		c0.398-0.296,0.653-0.521,0.765-0.675c0.111-0.153,0.167-0.299,0.167-0.438c0-0.148-0.055-0.276-0.166-0.382
		c-0.11-0.106-0.248-0.159-0.415-0.159c-0.174,0-0.315,0.055-0.426,0.164c-0.11,0.109-0.184,0.302-0.222,0.577l-1.362-0.109
		c0.053-0.384,0.151-0.683,0.293-0.897c0.143-0.215,0.344-0.379,0.603-0.494c0.259-0.114,0.618-0.172,1.077-0.172
		c0.479,0,0.851,0.055,1.117,0.164c0.266,0.108,0.476,0.276,0.628,0.502c0.153,0.227,0.229,0.479,0.229,0.76
		c0,0.299-0.087,0.584-0.262,0.855c-0.175,0.271-0.493,0.569-0.954,0.895c-0.274,0.189-0.457,0.322-0.549,0.397
		c-0.092,0.076-0.201,0.175-0.326,0.298h2.124V110.769z"/>
	<path d="M107.374,109.854h-2.478v-1.119l2.478-2.945h1.186v3.009h0.615v1.056h-0.615v0.915h-1.186V109.854z M107.374,108.798v-1.54
		l-1.309,1.54H107.374z"/>
	<path d="M109.598,108.301c0-0.931,0.168-1.582,0.502-1.954c0.335-0.371,0.845-0.558,1.531-0.558c0.33,0,0.6,0.041,0.812,0.122
		c0.211,0.081,0.384,0.187,0.518,0.317c0.133,0.13,0.239,0.267,0.315,0.41c0.077,0.145,0.139,0.312,0.186,0.503
		c0.091,0.365,0.137,0.746,0.137,1.143c0,0.888-0.15,1.538-0.451,1.95c-0.301,0.412-0.818,0.617-1.553,0.617
		c-0.412,0-0.745-0.065-0.999-0.196c-0.254-0.132-0.462-0.324-0.625-0.578c-0.118-0.181-0.21-0.427-0.276-0.739
		C109.631,109.024,109.598,108.679,109.598,108.301z M110.947,108.304c0,0.624,0.055,1.05,0.165,1.277
		c0.11,0.229,0.27,0.343,0.479,0.343c0.138,0,0.257-0.049,0.359-0.146c0.101-0.097,0.176-0.25,0.224-0.459
		c0.048-0.209,0.072-0.535,0.072-0.979c0-0.65-0.055-1.087-0.165-1.311c-0.11-0.225-0.276-0.336-0.496-0.336
		c-0.225,0-0.387,0.114-0.488,0.342C110.997,107.265,110.947,107.688,110.947,108.304z"/>
	<path d="M113.899,105.873h1.582l1.102,3.522l1.088-3.522h1.536l-1.818,4.896h-1.64L113.899,105.873z"/>
	<path d="M119.437,107.222h1.453v1.362h-1.453V107.222z M119.437,109.406h1.453v1.362h-1.453V109.406z"/>
	<path d="M122.131,105.873h3.229v1.085h-2.188l-0.117,0.734c0.151-0.071,0.301-0.124,0.449-0.16
		c0.148-0.035,0.294-0.053,0.439-0.053c0.49,0,0.887,0.147,1.192,0.443c0.305,0.297,0.458,0.669,0.458,1.119
		c0,0.316-0.079,0.62-0.236,0.912c-0.157,0.291-0.379,0.514-0.668,0.668c-0.288,0.153-0.658,0.229-1.107,0.229
		c-0.323,0-0.599-0.03-0.83-0.092c-0.23-0.061-0.427-0.152-0.588-0.274c-0.162-0.121-0.292-0.259-0.392-0.412
		c-0.1-0.154-0.184-0.346-0.251-0.575l1.376-0.149c0.034,0.22,0.111,0.388,0.234,0.502c0.123,0.115,0.268,0.172,0.438,0.172
		c0.189,0,0.346-0.071,0.469-0.215c0.123-0.144,0.185-0.358,0.185-0.643c0-0.292-0.062-0.506-0.187-0.642
		c-0.125-0.136-0.291-0.204-0.497-0.204c-0.131,0-0.258,0.032-0.38,0.097c-0.091,0.047-0.192,0.132-0.301,0.254l-1.159-0.167
		L122.131,105.873z"/>
	<path d="M126.143,108.301c0-0.931,0.167-1.582,0.503-1.954c0.335-0.371,0.845-0.558,1.531-0.558c0.33,0,0.6,0.041,0.811,0.122
		c0.212,0.081,0.384,0.187,0.518,0.317c0.133,0.13,0.239,0.267,0.315,0.41c0.077,0.145,0.139,0.312,0.186,0.503
		c0.091,0.365,0.137,0.746,0.137,1.143c0,0.888-0.15,1.538-0.451,1.95c-0.301,0.412-0.818,0.617-1.553,0.617
		c-0.412,0-0.745-0.065-0.998-0.196c-0.254-0.132-0.462-0.324-0.625-0.578c-0.118-0.181-0.21-0.427-0.276-0.739
		C126.175,109.024,126.143,108.679,126.143,108.301z M127.492,108.304c0,0.624,0.055,1.05,0.165,1.277
		c0.11,0.229,0.27,0.343,0.48,0.343c0.138,0,0.257-0.049,0.359-0.146c0.101-0.097,0.176-0.25,0.224-0.459
		c0.048-0.209,0.072-0.535,0.072-0.979c0-0.65-0.055-1.087-0.165-1.311c-0.11-0.225-0.276-0.336-0.496-0.336
		c-0.225,0-0.387,0.114-0.488,0.342C127.541,107.265,127.492,107.688,127.492,108.304z"/>
	<path d="M131.65,105.789h0.694l-1.23,5.062h-0.687L131.65,105.789z"/>
	<path d="M136.542,106.975l-1.353,0.167c-0.036-0.189-0.095-0.322-0.179-0.4c-0.083-0.078-0.187-0.117-0.309-0.117
		c-0.221,0-0.392,0.111-0.515,0.334c-0.089,0.16-0.155,0.503-0.197,1.028c0.163-0.164,0.33-0.286,0.501-0.365
		c0.171-0.079,0.37-0.119,0.594-0.119c0.437,0,0.806,0.156,1.107,0.468c0.301,0.311,0.452,0.707,0.452,1.186
		c0,0.323-0.076,0.618-0.228,0.885c-0.153,0.268-0.364,0.47-0.635,0.606c-0.271,0.137-0.609,0.205-1.017,0.205
		c-0.49,0-0.883-0.083-1.179-0.25c-0.296-0.167-0.533-0.434-0.71-0.8c-0.177-0.366-0.266-0.851-0.266-1.454
		c0-0.884,0.186-1.531,0.558-1.942c0.372-0.411,0.887-0.616,1.546-0.616c0.39,0,0.697,0.045,0.923,0.136
		c0.226,0.09,0.414,0.222,0.563,0.396C136.351,106.494,136.464,106.712,136.542,106.975z M134.038,109.155
		c0,0.266,0.066,0.473,0.2,0.623c0.134,0.15,0.297,0.226,0.491,0.226c0.178,0,0.328-0.068,0.448-0.204
		c0.12-0.136,0.18-0.338,0.18-0.607c0-0.276-0.062-0.486-0.187-0.631c-0.124-0.146-0.279-0.218-0.464-0.218
		c-0.189,0-0.348,0.07-0.476,0.211C134.102,108.694,134.038,108.896,134.038,109.155z"/>
	<path d="M137.167,108.301c0-0.931,0.167-1.582,0.503-1.954c0.335-0.371,0.845-0.558,1.531-0.558c0.33,0,0.6,0.041,0.812,0.122
		c0.211,0.081,0.384,0.187,0.518,0.317c0.133,0.13,0.239,0.267,0.316,0.41c0.077,0.145,0.139,0.312,0.186,0.503
		c0.091,0.365,0.137,0.746,0.137,1.143c0,0.888-0.15,1.538-0.451,1.95c-0.301,0.412-0.818,0.617-1.553,0.617
		c-0.412,0-0.745-0.065-0.999-0.196c-0.254-0.132-0.462-0.324-0.624-0.578c-0.118-0.181-0.21-0.427-0.276-0.739
		C137.199,109.024,137.167,108.679,137.167,108.301z M138.516,108.304c0,0.624,0.055,1.05,0.165,1.277
		c0.11,0.229,0.27,0.343,0.48,0.343c0.138,0,0.257-0.049,0.359-0.146c0.101-0.097,0.176-0.25,0.224-0.459
		c0.048-0.209,0.072-0.535,0.072-0.979c0-0.65-0.055-1.087-0.165-1.311c-0.11-0.225-0.276-0.336-0.496-0.336
		c-0.225,0-0.387,0.114-0.488,0.342C138.566,107.265,138.516,107.688,138.516,108.304z"/>
	<path d="M141.956,105.873h1.513v1.713h1.653v-1.713h1.52v4.896h-1.52v-1.98h-1.653v1.98h-1.513V105.873z"/>
	<path d="M147.402,107.222h3.289v0.795l-1.79,1.823h1.9v0.929h-3.533v-0.882l1.7-1.736h-1.566V107.222z"/>
	<path d="M151.363,107.222h1.453v1.362h-1.453V107.222z M151.363,109.406h1.453v1.362h-1.453V109.406z"/>
	<path d="M153.507,108.301c0-0.931,0.167-1.582,0.502-1.954c0.335-0.371,0.845-0.558,1.531-0.558c0.329,0,0.6,0.041,0.811,0.122
		c0.211,0.081,0.384,0.187,0.518,0.317c0.133,0.13,0.239,0.267,0.315,0.41c0.077,0.145,0.139,0.312,0.186,0.503
		c0.091,0.365,0.137,0.746,0.137,1.143c0,0.888-0.15,1.538-0.451,1.95c-0.301,0.412-0.818,0.617-1.553,0.617
		c-0.412,0-0.745-0.065-0.998-0.196c-0.254-0.132-0.462-0.324-0.625-0.578c-0.118-0.181-0.21-0.427-0.276-0.739
		C153.54,109.024,153.507,108.679,153.507,108.301z M154.857,108.304c0,0.624,0.055,1.05,0.165,1.277
		c0.11,0.229,0.27,0.343,0.48,0.343c0.138,0,0.257-0.049,0.359-0.146c0.101-0.097,0.176-0.25,0.224-0.459
		c0.048-0.209,0.072-0.535,0.072-0.979c0-0.65-0.055-1.087-0.165-1.311c-0.11-0.225-0.276-0.336-0.496-0.336
		c-0.225,0-0.387,0.114-0.488,0.342C154.906,107.265,154.857,107.688,154.857,108.304z"/>
	<path d="M158.203,109.406h1.453v1.362h-1.453V109.406z"/>
	<path d="M164.284,106.975l-1.353,0.167c-0.036-0.189-0.095-0.322-0.179-0.4c-0.083-0.078-0.187-0.117-0.309-0.117
		c-0.221,0-0.392,0.111-0.515,0.334c-0.089,0.16-0.155,0.503-0.197,1.028c0.163-0.164,0.33-0.286,0.501-0.365
		c0.171-0.079,0.37-0.119,0.594-0.119c0.437,0,0.806,0.156,1.107,0.468c0.301,0.311,0.452,0.707,0.452,1.186
		c0,0.323-0.076,0.618-0.229,0.885c-0.153,0.268-0.364,0.47-0.635,0.606c-0.271,0.137-0.609,0.205-1.017,0.205
		c-0.49,0-0.883-0.083-1.179-0.25c-0.296-0.167-0.533-0.434-0.71-0.8c-0.177-0.366-0.266-0.851-0.266-1.454
		c0-0.884,0.186-1.531,0.558-1.942c0.372-0.411,0.887-0.616,1.546-0.616c0.39,0,0.697,0.045,0.923,0.136
		c0.226,0.09,0.414,0.222,0.563,0.396C164.092,106.494,164.206,106.712,164.284,106.975z M161.779,109.155
		c0,0.266,0.066,0.473,0.2,0.623c0.134,0.15,0.297,0.226,0.491,0.226c0.178,0,0.328-0.068,0.448-0.204
		c0.12-0.136,0.18-0.338,0.18-0.607c0-0.276-0.062-0.486-0.187-0.631c-0.124-0.146-0.279-0.218-0.464-0.218
		c-0.189,0-0.348,0.07-0.476,0.211C161.843,108.694,161.779,108.896,161.779,109.155z"/>
	<path d="M168.139,109.96h-1.717l-0.239,0.809h-1.544l1.84-4.896h1.65l1.839,4.896h-1.584L168.139,109.96z M167.825,108.901
		l-0.54-1.76l-0.535,1.76H167.825z"/>
</g>
<rect x="262.457" y="27.634" fill="#C9CACA" stroke="#000000" stroke-width="2" stroke-miterlimit="10" width="172" height="79.2"/>
<rect x="454.457" y="27.634" fill="#C9CACA" stroke="#000000" stroke-width="2" stroke-miterlimit="10" width="172" height="79.2"/>
<rect x="646.457" y="27.634" fill="#C9CACA" stroke="#000000" stroke-width="2" stroke-miterlimit="10" width="172" height="79.2"/>
<g>
	<polygon fill="#151209" points="957.644,46.31 955.644,46.31 955.644,15.349 1062.452,15.349 1062.452,24.657 1060.452,24.657 
		1060.452,17.349 957.644,17.349 	"/>
</g>
<path fill="#575A5C" d="M1106.714,49.975c0,1.513-1.226,2.737-2.737,2.737h-3.033c-1.512,0-2.737-1.225-2.737-2.737l0,0
	c0-1.512,1.226-2.737,2.737-2.737h3.033C1105.489,47.237,1106.714,48.463,1106.714,49.975L1106.714,49.975z"/>
<path fill="#575A5C" d="M1137.796,49.975c0,1.513-1.226,2.737-2.737,2.737h-3.033c-1.512,0-2.737-1.225-2.737-2.737l0,0
	c0-1.512,1.226-2.737,2.737-2.737h3.033C1136.57,47.237,1137.796,48.463,1137.796,49.975L1137.796,49.975z"/>
<g>
	<polygon fill="#151209" points="1064.855,111.769 1014.144,111.769 1014.144,106.834 1016.144,106.834 1016.144,109.769 
		1062.855,109.769 1062.855,106.834 1064.855,106.834 	"/>
</g>
<g>
	<path d="M938.936,57.564v-5.979h0.791v5.273h2.944v0.706H938.936z"/>
	<path d="M943.606,57.564v-5.979h0.811l3.141,4.695v-4.695h0.759v5.979h-0.812l-3.142-4.698v4.698H943.606z"/>
	<path d="M949.615,57.564v-5.979h0.791v2.965l2.969-2.965h1.073l-2.509,2.423l2.619,3.557h-1.045l-2.129-3.026l-0.979,0.954v2.072
		H949.615z"/>
	<path d="M954.574,57.667l1.733-6.184h0.588l-1.729,6.184H954.574z"/>
	<path d="M956.882,57.564l2.297-5.979h0.853l2.447,5.979h-0.901l-0.697-1.812h-2.501l-0.656,1.812H956.882z M958.608,55.108h2.027
		l-0.624-1.655c-0.19-0.503-0.332-0.917-0.424-1.24c-0.076,0.384-0.184,0.765-0.322,1.142L958.608,55.108z"/>
	<path d="M967.378,55.468l0.791,0.2c-0.166,0.649-0.464,1.146-0.896,1.486c-0.431,0.341-0.958,0.513-1.58,0.513
		c-0.644,0-1.169-0.132-1.572-0.395c-0.404-0.262-0.712-0.643-0.922-1.14c-0.211-0.497-0.316-1.032-0.316-1.603
		c0-0.623,0.119-1.166,0.356-1.63c0.238-0.464,0.577-0.815,1.016-1.057c0.44-0.241,0.923-0.36,1.45-0.36
		c0.599,0,1.102,0.152,1.51,0.457c0.407,0.304,0.691,0.732,0.852,1.284l-0.779,0.184c-0.139-0.435-0.34-0.752-0.604-0.95
		c-0.264-0.199-0.596-0.298-0.995-0.298c-0.46,0-0.844,0.11-1.152,0.33c-0.309,0.22-0.525,0.517-0.65,0.888
		c-0.126,0.371-0.188,0.754-0.188,1.149c0,0.508,0.074,0.951,0.223,1.331c0.148,0.38,0.379,0.663,0.691,0.851
		s0.651,0.281,1.016,0.281c0.443,0,0.818-0.128,1.126-0.383C967.06,56.351,967.268,55.972,967.378,55.468z"/>
	<path d="M970.665,57.564V52.29h-1.971v-0.705h4.74v0.705h-1.979v5.274H970.665z"/>
</g>
<g>
	<path d="M989.603,57.564v-5.979h0.791v5.273h2.944v0.706H989.603z"/>
	<path d="M994.273,57.564v-5.979h0.811l3.141,4.695v-4.695h0.759v5.979h-0.812l-3.142-4.698v4.698H994.273z"/>
	<path d="M1000.282,57.564v-5.979h0.791v2.965l2.969-2.965h1.073l-2.509,2.423l2.619,3.557h-1.045l-2.129-3.026l-0.978,0.954v2.072
		H1000.282z"/>
	<path d="M1005.241,57.667l1.733-6.184h0.588l-1.729,6.184H1005.241z"/>
	<path d="M1007.549,57.564l2.297-5.979h0.853l2.447,5.979h-0.901l-0.697-1.812h-2.501l-0.656,1.812H1007.549z M1009.275,55.108
		h2.027l-0.624-1.655c-0.19-0.503-0.332-0.917-0.424-1.24c-0.076,0.384-0.184,0.765-0.322,1.142L1009.275,55.108z"/>
	<path d="M1018.044,55.468l0.791,0.2c-0.166,0.649-0.464,1.146-0.896,1.486c-0.431,0.341-0.958,0.513-1.58,0.513
		c-0.644,0-1.169-0.132-1.572-0.395c-0.404-0.262-0.712-0.643-0.922-1.14c-0.211-0.497-0.316-1.032-0.316-1.603
		c0-0.623,0.119-1.166,0.356-1.63c0.238-0.464,0.577-0.815,1.016-1.057c0.44-0.241,0.923-0.36,1.45-0.36
		c0.599,0,1.102,0.152,1.51,0.457c0.407,0.304,0.691,0.732,0.852,1.284l-0.779,0.184c-0.139-0.435-0.34-0.752-0.604-0.95
		c-0.264-0.199-0.596-0.298-0.995-0.298c-0.46,0-0.844,0.11-1.152,0.33c-0.309,0.22-0.525,0.517-0.65,0.888
		c-0.126,0.371-0.188,0.754-0.188,1.149c0,0.508,0.074,0.951,0.223,1.331c0.148,0.38,0.379,0.663,0.691,0.851
		s0.651,0.281,1.016,0.281c0.443,0,0.818-0.128,1.126-0.383C1017.727,56.351,1017.935,55.972,1018.044,55.468z"/>
	<path d="M1021.332,57.564V52.29h-1.971v-0.705h4.74v0.705h-1.978v5.274H1021.332z"/>
</g>
<g>
	<path d="M1093.302,40.564v-5.979h2.256c0.396,0,0.7,0.02,0.909,0.057c0.294,0.049,0.54,0.143,0.738,0.279
		c0.198,0.138,0.358,0.33,0.479,0.578c0.121,0.247,0.182,0.52,0.182,0.815c0,0.509-0.162,0.938-0.485,1.291
		c-0.324,0.353-0.908,0.528-1.754,0.528h-1.534v2.431H1093.302z M1094.093,37.428h1.546c0.512,0,0.874-0.095,1.089-0.286
		c0.215-0.19,0.322-0.457,0.322-0.803c0-0.25-0.062-0.465-0.189-0.643c-0.126-0.178-0.293-0.295-0.5-0.353
		c-0.133-0.036-0.379-0.054-0.738-0.054h-1.529V37.428z"/>
	<path d="M1099.917,40.564l-1.587-5.979h0.812l0.909,3.92c0.098,0.41,0.183,0.818,0.253,1.224c0.152-0.64,0.242-1.008,0.27-1.105
		l1.138-4.038h0.954l0.856,3.026c0.215,0.751,0.37,1.456,0.466,2.117c0.075-0.378,0.175-0.812,0.297-1.302l0.939-3.842h0.796
		l-1.64,5.979h-0.764l-1.26-4.556c-0.106-0.381-0.169-0.615-0.188-0.702c-0.062,0.275-0.121,0.509-0.176,0.702l-1.269,4.556
		H1099.917z"/>
	<path d="M1106.77,40.564v-5.979h2.651c0.533,0,0.938,0.054,1.216,0.161c0.277,0.107,0.499,0.297,0.665,0.569
		c0.166,0.271,0.249,0.572,0.249,0.9c0,0.425-0.138,0.782-0.412,1.073c-0.275,0.291-0.699,0.475-1.272,0.555
		c0.209,0.101,0.368,0.2,0.477,0.298c0.231,0.212,0.45,0.477,0.657,0.795l1.04,1.628h-0.995l-0.792-1.244
		c-0.231-0.358-0.421-0.634-0.57-0.823c-0.15-0.191-0.284-0.324-0.402-0.4c-0.118-0.076-0.238-0.129-0.36-0.159
		c-0.09-0.019-0.237-0.028-0.441-0.028h-0.918v2.655H1106.77z M1107.562,37.224h1.7c0.362,0,0.645-0.037,0.849-0.111
		c0.204-0.075,0.359-0.195,0.465-0.359c0.106-0.164,0.159-0.344,0.159-0.537c0-0.282-0.102-0.515-0.308-0.697
		c-0.205-0.182-0.529-0.274-0.973-0.274h-1.892V37.224z"/>
</g>
<g>
	<path d="M1126.236,40.564v-5.979h2.651c0.533,0,0.938,0.054,1.216,0.161c0.277,0.107,0.499,0.297,0.665,0.569
		c0.166,0.271,0.249,0.572,0.249,0.9c0,0.425-0.138,0.782-0.412,1.073c-0.275,0.291-0.699,0.475-1.272,0.555
		c0.209,0.101,0.368,0.2,0.476,0.298c0.231,0.212,0.45,0.477,0.657,0.795l1.04,1.628h-0.995l-0.792-1.244
		c-0.23-0.358-0.421-0.634-0.57-0.823c-0.151-0.191-0.284-0.324-0.402-0.4c-0.118-0.076-0.238-0.129-0.36-0.159
		c-0.09-0.019-0.237-0.028-0.44-0.028h-0.918v2.655H1126.236z M1127.028,37.224h1.7c0.362,0,0.644-0.037,0.849-0.111
		c0.204-0.075,0.359-0.195,0.465-0.359c0.106-0.164,0.159-0.344,0.159-0.537c0-0.282-0.103-0.515-0.308-0.697
		c-0.205-0.182-0.529-0.274-0.973-0.274h-1.893V37.224z"/>
	<path d="M1136.18,34.585h0.791v3.455c0,0.601-0.067,1.078-0.204,1.432c-0.136,0.354-0.381,0.641-0.736,0.862
		c-0.354,0.222-0.82,0.333-1.396,0.333c-0.561,0-1.018-0.098-1.375-0.29c-0.355-0.193-0.61-0.473-0.763-0.839
		c-0.152-0.365-0.229-0.865-0.229-1.498v-3.455h0.792v3.451c0,0.52,0.048,0.901,0.145,1.148c0.097,0.246,0.263,0.436,0.498,0.569
		c0.234,0.133,0.522,0.199,0.862,0.199c0.582,0,0.996-0.131,1.244-0.395c0.247-0.264,0.371-0.771,0.371-1.521V34.585z"/>
	<path d="M1138.282,40.564v-5.979h0.812l3.141,4.695v-4.695h0.759v5.979h-0.812l-3.142-4.698v4.698H1138.282z"/>
</g>
<g>
	<rect x="951.42" y="61.191" fill="#3E3A39" width="59.812" height="7.36"/>
	<rect x="959.899" y="61.191" fill="#61577D" width="42.855" height="7.36"/>
	<g>
		<g>
			<path fill="#61577D" d="M955.491,66.678v0.496h-2.779c-0.004-0.124,0.017-0.243,0.06-0.358c0.071-0.189,0.185-0.375,0.341-0.56
				c0.155-0.184,0.381-0.396,0.676-0.637c0.456-0.374,0.766-0.671,0.926-0.891c0.161-0.219,0.241-0.426,0.241-0.621
				c0-0.204-0.073-0.377-0.22-0.518c-0.146-0.141-0.337-0.211-0.572-0.211c-0.249,0-0.447,0.075-0.597,0.224
				c-0.148,0.149-0.225,0.356-0.227,0.62l-0.53-0.055c0.036-0.396,0.173-0.697,0.41-0.905c0.237-0.207,0.556-0.311,0.955-0.311
				c0.403,0,0.723,0.111,0.958,0.336c0.235,0.224,0.352,0.5,0.352,0.831c0,0.168-0.034,0.334-0.102,0.496
				c-0.069,0.163-0.184,0.334-0.343,0.514c-0.16,0.18-0.426,0.427-0.796,0.74c-0.311,0.26-0.509,0.437-0.597,0.529
				c-0.089,0.093-0.161,0.186-0.219,0.279H955.491z"/>
			<path fill="#61577D" d="M956.044,66.072l0.542-0.046c0.04,0.265,0.134,0.463,0.28,0.596c0.146,0.133,0.322,0.199,0.529,0.199
				c0.248,0,0.459-0.094,0.631-0.281c0.172-0.188,0.258-0.436,0.258-0.745c0-0.295-0.083-0.527-0.248-0.697
				c-0.165-0.17-0.382-0.256-0.649-0.256c-0.167,0-0.316,0.038-0.45,0.113c-0.135,0.076-0.239,0.174-0.315,0.294l-0.485-0.062
				l0.407-2.16h2.091v0.493h-1.678l-0.227,1.131c0.253-0.177,0.518-0.265,0.795-0.265c0.367,0,0.677,0.128,0.929,0.382
				c0.253,0.255,0.379,0.581,0.379,0.981c0,0.38-0.11,0.709-0.333,0.986c-0.27,0.34-0.638,0.511-1.104,0.511
				c-0.383,0-0.695-0.107-0.937-0.321C956.217,66.711,956.079,66.427,956.044,66.072z"/>
		</g>
	</g>
	<g>
		<g>
			<path fill="#61577D" d="M1006.639,66.678v0.496h-2.779c-0.005-0.124,0.016-0.243,0.06-0.358c0.071-0.189,0.185-0.375,0.34-0.56
				c0.156-0.184,0.382-0.396,0.676-0.637c0.457-0.374,0.766-0.671,0.927-0.891c0.16-0.219,0.241-0.426,0.241-0.621
				c0-0.204-0.073-0.377-0.22-0.518c-0.146-0.141-0.337-0.211-0.572-0.211c-0.249,0-0.447,0.075-0.597,0.224
				c-0.149,0.149-0.225,0.356-0.227,0.62l-0.531-0.055c0.037-0.396,0.174-0.697,0.41-0.905c0.237-0.207,0.556-0.311,0.955-0.311
				c0.404,0,0.724,0.111,0.959,0.336c0.234,0.224,0.353,0.5,0.353,0.831c0,0.168-0.034,0.334-0.104,0.496
				c-0.068,0.163-0.183,0.334-0.343,0.514c-0.159,0.18-0.425,0.427-0.796,0.74c-0.31,0.26-0.509,0.437-0.597,0.529
				c-0.088,0.093-0.16,0.186-0.218,0.279H1006.639z"/>
			<path fill="#61577D" d="M1009.872,63.999l-0.514,0.04c-0.046-0.203-0.11-0.351-0.194-0.441c-0.14-0.147-0.312-0.222-0.517-0.222
				c-0.165,0-0.309,0.046-0.434,0.138c-0.162,0.119-0.29,0.292-0.384,0.52c-0.094,0.227-0.143,0.552-0.146,0.973
				c0.124-0.189,0.276-0.33,0.456-0.422c0.18-0.092,0.368-0.138,0.565-0.138c0.344,0,0.637,0.127,0.879,0.38
				c0.242,0.254,0.362,0.581,0.362,0.982c0,0.264-0.057,0.51-0.17,0.736c-0.114,0.227-0.271,0.399-0.469,0.521
				c-0.199,0.12-0.425,0.181-0.678,0.181c-0.43,0-0.781-0.158-1.053-0.475c-0.271-0.316-0.407-0.839-0.407-1.565
				c0-0.812,0.15-1.403,0.45-1.772c0.263-0.321,0.615-0.482,1.059-0.482c0.331,0,0.602,0.092,0.813,0.277
				C1009.703,63.415,1009.83,63.672,1009.872,63.999z M1007.763,65.812c0,0.178,0.038,0.348,0.113,0.511
				c0.075,0.162,0.182,0.286,0.317,0.371c0.136,0.086,0.278,0.128,0.427,0.128c0.219,0,0.406-0.088,0.562-0.264
				c0.157-0.176,0.235-0.415,0.235-0.718c0-0.29-0.077-0.52-0.232-0.687c-0.154-0.167-0.35-0.251-0.585-0.251
				c-0.233,0-0.432,0.084-0.594,0.251C1007.844,65.32,1007.763,65.54,1007.763,65.812z"/>
		</g>
	</g>
	<g>
		<path fill="#FFFFFF" d="M968.669,67.084h-0.53v-3.38c-0.128,0.121-0.295,0.243-0.503,0.365c-0.207,0.122-0.394,0.213-0.558,0.273
			v-0.512c0.296-0.14,0.556-0.309,0.777-0.508c0.222-0.197,0.379-0.391,0.472-0.577h0.342V67.084z"/>
		<path fill="#FFFFFF" d="M970.027,64.953c0-0.511,0.053-0.922,0.157-1.233c0.106-0.312,0.262-0.551,0.469-0.721
			c0.207-0.168,0.469-0.253,0.782-0.253c0.232,0,0.435,0.047,0.61,0.14c0.175,0.094,0.319,0.229,0.434,0.404
			c0.113,0.176,0.203,0.39,0.268,0.643c0.065,0.252,0.098,0.593,0.098,1.021c0,0.507-0.053,0.916-0.156,1.228
			c-0.104,0.312-0.26,0.552-0.468,0.722c-0.207,0.17-0.469,0.255-0.785,0.255c-0.416,0-0.743-0.149-0.981-0.447
			C970.169,66.351,970.027,65.765,970.027,64.953z M970.572,64.953c0,0.71,0.083,1.182,0.249,1.416
			c0.166,0.235,0.371,0.353,0.614,0.353c0.244,0,0.449-0.118,0.614-0.354c0.166-0.236,0.25-0.708,0.25-1.415
			c0-0.711-0.084-1.184-0.25-1.417c-0.165-0.234-0.372-0.351-0.62-0.351c-0.243,0-0.438,0.103-0.583,0.309
			C970.664,63.758,970.572,64.244,970.572,64.953z"/>
		<path fill="#FFFFFF" d="M973.383,64.953c0-0.511,0.053-0.922,0.157-1.233c0.105-0.312,0.262-0.551,0.469-0.721
			c0.207-0.168,0.469-0.253,0.782-0.253c0.232,0,0.436,0.047,0.61,0.14c0.175,0.094,0.319,0.229,0.434,0.404
			c0.113,0.176,0.203,0.39,0.268,0.643c0.064,0.252,0.098,0.593,0.098,1.021c0,0.507-0.053,0.916-0.156,1.228
			c-0.104,0.312-0.26,0.552-0.468,0.722c-0.207,0.17-0.469,0.255-0.785,0.255c-0.416,0-0.743-0.149-0.981-0.447
			C973.526,66.351,973.383,65.765,973.383,64.953z M973.928,64.953c0,0.71,0.083,1.182,0.249,1.416
			c0.166,0.235,0.371,0.353,0.614,0.353c0.244,0,0.448-0.118,0.614-0.354c0.166-0.236,0.25-0.708,0.25-1.415
			c0-0.711-0.084-1.184-0.25-1.417c-0.166-0.234-0.372-0.351-0.62-0.351c-0.243,0-0.438,0.103-0.583,0.309
			C974.02,63.758,973.928,64.244,973.928,64.953z"/>
		<path fill="#FFFFFF" d="M976.489,67.157l1.253-4.467h0.424l-1.249,4.467H976.489z"/>
		<path fill="#FFFFFF" d="M980.415,67.084h-0.53v-3.38c-0.128,0.121-0.296,0.243-0.503,0.365c-0.207,0.122-0.394,0.213-0.559,0.273
			v-0.512c0.297-0.14,0.556-0.309,0.778-0.508c0.222-0.197,0.379-0.391,0.472-0.577h0.342V67.084z"/>
		<path fill="#FFFFFF" d="M981.773,64.953c0-0.511,0.053-0.922,0.157-1.233c0.106-0.312,0.262-0.551,0.469-0.721
			c0.207-0.168,0.468-0.253,0.782-0.253c0.231,0,0.435,0.047,0.61,0.14c0.175,0.094,0.319,0.229,0.433,0.404
			c0.114,0.176,0.204,0.39,0.268,0.643c0.065,0.252,0.098,0.593,0.098,1.021c0,0.507-0.053,0.916-0.156,1.228
			c-0.104,0.312-0.26,0.552-0.468,0.722c-0.207,0.17-0.469,0.255-0.785,0.255c-0.416,0-0.743-0.149-0.982-0.447
			C981.916,66.351,981.773,65.765,981.773,64.953z M982.318,64.953c0,0.71,0.083,1.182,0.249,1.416
			c0.166,0.235,0.371,0.353,0.614,0.353c0.244,0,0.448-0.118,0.614-0.354c0.166-0.236,0.249-0.708,0.249-1.415
			c0-0.711-0.083-1.184-0.249-1.417c-0.166-0.234-0.372-0.351-0.62-0.351c-0.243,0-0.438,0.103-0.583,0.309
			C982.41,63.758,982.318,64.244,982.318,64.953z"/>
		<path fill="#FFFFFF" d="M985.129,64.953c0-0.511,0.053-0.922,0.157-1.233c0.105-0.312,0.262-0.551,0.469-0.721
			c0.207-0.168,0.468-0.253,0.782-0.253c0.232,0,0.436,0.047,0.61,0.14c0.175,0.094,0.319,0.229,0.433,0.404
			c0.114,0.176,0.204,0.39,0.269,0.643c0.064,0.252,0.098,0.593,0.098,1.021c0,0.507-0.053,0.916-0.156,1.228
			c-0.104,0.312-0.26,0.552-0.468,0.722c-0.207,0.17-0.469,0.255-0.785,0.255c-0.416,0-0.743-0.149-0.981-0.447
			C985.272,66.351,985.129,65.765,985.129,64.953z M985.674,64.953c0,0.71,0.083,1.182,0.249,1.416
			c0.166,0.235,0.371,0.353,0.614,0.353c0.244,0,0.448-0.118,0.614-0.354c0.166-0.236,0.25-0.708,0.25-1.415
			c0-0.711-0.084-1.184-0.25-1.417c-0.166-0.234-0.372-0.351-0.62-0.351c-0.243,0-0.438,0.103-0.583,0.309
			C985.766,63.758,985.674,64.244,985.674,64.953z"/>
		<path fill="#FFFFFF" d="M988.486,64.953c0-0.511,0.053-0.922,0.157-1.233c0.105-0.312,0.262-0.551,0.469-0.721
			c0.207-0.168,0.468-0.253,0.782-0.253c0.231,0,0.435,0.047,0.61,0.14c0.175,0.094,0.319,0.229,0.433,0.404
			c0.114,0.176,0.204,0.39,0.268,0.643c0.065,0.252,0.098,0.593,0.098,1.021c0,0.507-0.053,0.916-0.156,1.228
			c-0.104,0.312-0.26,0.552-0.468,0.722c-0.207,0.17-0.469,0.255-0.785,0.255c-0.416,0-0.743-0.149-0.982-0.447
			C988.628,66.351,988.486,65.765,988.486,64.953z M989.031,64.953c0,0.71,0.083,1.182,0.249,1.416
			c0.166,0.235,0.371,0.353,0.614,0.353c0.244,0,0.448-0.118,0.614-0.354c0.166-0.236,0.249-0.708,0.249-1.415
			c0-0.711-0.083-1.184-0.249-1.417c-0.166-0.234-0.372-0.351-0.62-0.351c-0.243,0-0.438,0.103-0.583,0.309
			C989.123,63.758,989.031,64.244,989.031,64.953z"/>
		<path fill="#FFFFFF" d="M992.04,67.084v-4.319h0.86l1.022,3.058c0.095,0.285,0.163,0.498,0.207,0.64
			c0.049-0.157,0.125-0.388,0.229-0.692l1.034-3.005h0.769v4.319h-0.552v-3.616l-1.255,3.616h-0.516l-1.25-3.678v3.678H992.04z"/>
	</g>
</g>
<g>
	<path d="M834.937,57.564v-5.979h0.791v5.273h2.944v0.706H834.937z"/>
	<path d="M839.607,57.564v-5.979h0.812l3.141,4.695v-4.695h0.759v5.979h-0.811l-3.142-4.698v4.698H839.607z"/>
	<path d="M845.616,57.564v-5.979h0.791v2.965l2.969-2.965h1.073l-2.509,2.423l2.619,3.557h-1.045l-2.129-3.026l-0.979,0.954v2.072
		H845.616z"/>
	<path d="M850.575,57.667l1.733-6.184h0.588l-1.729,6.184H850.575z"/>
	<path d="M852.883,57.564l2.297-5.979h0.853l2.447,5.979h-0.901l-0.697-1.812h-2.501l-0.656,1.812H852.883z M854.609,55.108h2.027
		l-0.624-1.655c-0.19-0.503-0.332-0.917-0.424-1.24c-0.076,0.384-0.184,0.765-0.322,1.142L854.609,55.108z"/>
	<path d="M863.378,55.468l0.791,0.2c-0.166,0.649-0.464,1.146-0.896,1.486c-0.431,0.341-0.958,0.513-1.58,0.513
		c-0.645,0-1.169-0.132-1.572-0.395c-0.404-0.262-0.712-0.643-0.922-1.14c-0.211-0.497-0.316-1.032-0.316-1.603
		c0-0.623,0.119-1.166,0.357-1.63c0.238-0.464,0.577-0.815,1.016-1.057c0.44-0.241,0.923-0.36,1.45-0.36
		c0.599,0,1.102,0.152,1.51,0.457c0.407,0.304,0.691,0.732,0.852,1.284l-0.779,0.184c-0.139-0.435-0.34-0.752-0.603-0.95
		c-0.264-0.199-0.596-0.298-0.995-0.298c-0.46,0-0.844,0.11-1.152,0.33c-0.309,0.22-0.525,0.517-0.65,0.888
		c-0.126,0.371-0.188,0.754-0.188,1.149c0,0.508,0.074,0.951,0.223,1.331c0.148,0.38,0.379,0.663,0.691,0.851
		s0.651,0.281,1.016,0.281c0.443,0,0.818-0.128,1.126-0.383C863.061,56.351,863.269,55.972,863.378,55.468z"/>
	<path d="M866.666,57.564V52.29h-1.971v-0.705h4.74v0.705h-1.979v5.274H866.666z"/>
</g>
<g>
	<path d="M885.604,57.564v-5.979h0.791v5.273h2.944v0.706H885.604z"/>
	<path d="M890.274,57.564v-5.979h0.812l3.141,4.695v-4.695h0.759v5.979h-0.811l-3.142-4.698v4.698H890.274z"/>
	<path d="M896.283,57.564v-5.979h0.791v2.965l2.969-2.965h1.073l-2.509,2.423l2.619,3.557h-1.045l-2.129-3.026l-0.979,0.954v2.072
		H896.283z"/>
	<path d="M901.242,57.667l1.733-6.184h0.588l-1.729,6.184H901.242z"/>
	<path d="M903.55,57.564l2.297-5.979h0.853l2.447,5.979h-0.901l-0.697-1.812h-2.501l-0.656,1.812H903.55z M905.276,55.108h2.027
		l-0.624-1.655c-0.19-0.503-0.332-0.917-0.424-1.24c-0.076,0.384-0.184,0.765-0.322,1.142L905.276,55.108z"/>
	<path d="M914.045,55.468l0.791,0.2c-0.166,0.649-0.464,1.146-0.896,1.486c-0.431,0.341-0.958,0.513-1.58,0.513
		c-0.645,0-1.169-0.132-1.572-0.395c-0.404-0.262-0.712-0.643-0.922-1.14c-0.211-0.497-0.316-1.032-0.316-1.603
		c0-0.623,0.119-1.166,0.357-1.63c0.238-0.464,0.577-0.815,1.016-1.057c0.44-0.241,0.923-0.36,1.45-0.36
		c0.599,0,1.102,0.152,1.51,0.457c0.407,0.304,0.691,0.732,0.852,1.284l-0.779,0.184c-0.139-0.435-0.34-0.752-0.603-0.95
		c-0.264-0.199-0.596-0.298-0.995-0.298c-0.46,0-0.844,0.11-1.152,0.33c-0.309,0.22-0.525,0.517-0.65,0.888
		c-0.126,0.371-0.188,0.754-0.188,1.149c0,0.508,0.074,0.951,0.223,1.331c0.148,0.38,0.379,0.663,0.691,0.851
		s0.651,0.281,1.016,0.281c0.443,0,0.818-0.128,1.126-0.383C913.728,56.351,913.936,55.972,914.045,55.468z"/>
	<path d="M917.333,57.564V52.29h-1.971v-0.705h4.74v0.705h-1.979v5.274H917.333z"/>
</g>
<g>
	<rect x="847.421" y="61.191" fill="#3E3A39" width="59.812" height="7.36"/>
	<rect x="855.9" y="61.191" fill="#61577D" width="42.855" height="7.36"/>
	<g>
		<g>
			<path fill="#61577D" d="M851.492,66.678v0.496h-2.779c-0.004-0.124,0.017-0.243,0.06-0.358c0.071-0.189,0.185-0.375,0.341-0.56
				c0.155-0.184,0.381-0.396,0.676-0.637c0.456-0.374,0.766-0.671,0.926-0.891c0.161-0.219,0.241-0.426,0.241-0.621
				c0-0.204-0.073-0.377-0.22-0.518c-0.146-0.141-0.337-0.211-0.572-0.211c-0.249,0-0.447,0.075-0.597,0.224
				c-0.148,0.149-0.225,0.356-0.227,0.62l-0.53-0.055c0.036-0.396,0.173-0.697,0.41-0.905c0.237-0.207,0.556-0.311,0.955-0.311
				c0.403,0,0.723,0.111,0.958,0.336c0.235,0.224,0.353,0.5,0.353,0.831c0,0.168-0.034,0.334-0.103,0.496
				c-0.069,0.163-0.184,0.334-0.343,0.514c-0.16,0.18-0.426,0.427-0.796,0.74c-0.311,0.26-0.509,0.437-0.597,0.529
				c-0.089,0.093-0.161,0.186-0.219,0.279H851.492z"/>
			<path fill="#61577D" d="M852.045,66.072l0.542-0.046c0.04,0.265,0.134,0.463,0.28,0.596c0.146,0.133,0.322,0.199,0.529,0.199
				c0.248,0,0.459-0.094,0.631-0.281c0.172-0.188,0.258-0.436,0.258-0.745c0-0.295-0.083-0.527-0.248-0.697
				c-0.165-0.17-0.382-0.256-0.649-0.256c-0.167,0-0.316,0.038-0.45,0.113c-0.135,0.076-0.239,0.174-0.315,0.294l-0.485-0.062
				l0.407-2.16h2.091v0.493h-1.678l-0.227,1.131c0.253-0.177,0.518-0.265,0.795-0.265c0.367,0,0.677,0.128,0.929,0.382
				c0.253,0.255,0.379,0.581,0.379,0.981c0,0.38-0.11,0.709-0.333,0.986c-0.269,0.34-0.638,0.511-1.104,0.511
				c-0.383,0-0.695-0.107-0.936-0.321C852.218,66.711,852.08,66.427,852.045,66.072z"/>
		</g>
	</g>
	<g>
		<g>
			<path fill="#61577D" d="M902.64,66.678v0.496h-2.779c-0.005-0.124,0.016-0.243,0.06-0.358c0.071-0.189,0.185-0.375,0.34-0.56
				c0.156-0.184,0.382-0.396,0.676-0.637c0.457-0.374,0.766-0.671,0.927-0.891c0.16-0.219,0.241-0.426,0.241-0.621
				c0-0.204-0.073-0.377-0.22-0.518c-0.146-0.141-0.337-0.211-0.572-0.211c-0.249,0-0.447,0.075-0.597,0.224
				c-0.149,0.149-0.225,0.356-0.227,0.62l-0.531-0.055c0.037-0.396,0.174-0.697,0.41-0.905c0.237-0.207,0.556-0.311,0.955-0.311
				c0.404,0,0.724,0.111,0.959,0.336c0.234,0.224,0.352,0.5,0.352,0.831c0,0.168-0.034,0.334-0.103,0.496
				c-0.068,0.163-0.183,0.334-0.343,0.514c-0.159,0.18-0.425,0.427-0.796,0.74c-0.31,0.26-0.509,0.437-0.597,0.529
				c-0.088,0.093-0.16,0.186-0.218,0.279H902.64z"/>
			<path fill="#61577D" d="M905.873,63.999l-0.514,0.04c-0.046-0.203-0.11-0.351-0.194-0.441c-0.14-0.147-0.312-0.222-0.517-0.222
				c-0.165,0-0.309,0.046-0.434,0.138c-0.162,0.119-0.29,0.292-0.384,0.52c-0.094,0.227-0.143,0.552-0.146,0.973
				c0.124-0.189,0.276-0.33,0.456-0.422s0.368-0.138,0.565-0.138c0.344,0,0.637,0.127,0.879,0.38
				c0.242,0.254,0.362,0.581,0.362,0.982c0,0.264-0.057,0.51-0.17,0.736c-0.114,0.227-0.271,0.399-0.469,0.521
				c-0.199,0.12-0.425,0.181-0.678,0.181c-0.43,0-0.781-0.158-1.053-0.475s-0.407-0.839-0.407-1.565c0-0.812,0.15-1.403,0.45-1.772
				c0.263-0.321,0.615-0.482,1.059-0.482c0.331,0,0.602,0.092,0.813,0.277C905.704,63.415,905.831,63.672,905.873,63.999z
				 M903.764,65.812c0,0.178,0.038,0.348,0.113,0.511c0.075,0.162,0.182,0.286,0.317,0.371c0.136,0.086,0.278,0.128,0.427,0.128
				c0.219,0,0.406-0.088,0.562-0.264c0.157-0.176,0.235-0.415,0.235-0.718c0-0.29-0.077-0.52-0.232-0.687
				c-0.154-0.167-0.35-0.251-0.585-0.251c-0.233,0-0.432,0.084-0.594,0.251C903.845,65.32,903.764,65.54,903.764,65.812z"/>
		</g>
	</g>
	<g>
		<path fill="#FFFFFF" d="M864.669,67.084h-0.53v-3.38c-0.128,0.121-0.295,0.243-0.503,0.365c-0.207,0.122-0.394,0.213-0.558,0.273
			v-0.512c0.296-0.14,0.556-0.309,0.777-0.508c0.222-0.197,0.379-0.391,0.472-0.577h0.342V67.084z"/>
		<path fill="#FFFFFF" d="M866.028,64.953c0-0.511,0.053-0.922,0.157-1.233c0.105-0.312,0.262-0.551,0.469-0.721
			c0.207-0.168,0.469-0.253,0.782-0.253c0.232,0,0.435,0.047,0.61,0.14c0.175,0.094,0.319,0.229,0.434,0.404
			c0.113,0.176,0.203,0.39,0.268,0.643c0.065,0.252,0.098,0.593,0.098,1.021c0,0.507-0.053,0.916-0.156,1.228
			c-0.104,0.312-0.26,0.552-0.468,0.722c-0.207,0.17-0.469,0.255-0.785,0.255c-0.416,0-0.743-0.149-0.981-0.447
			C866.17,66.351,866.028,65.765,866.028,64.953z M866.573,64.953c0,0.71,0.083,1.182,0.249,1.416
			c0.166,0.235,0.371,0.353,0.614,0.353c0.244,0,0.449-0.118,0.614-0.354c0.166-0.236,0.25-0.708,0.25-1.415
			c0-0.711-0.084-1.184-0.25-1.417c-0.165-0.234-0.372-0.351-0.62-0.351c-0.243,0-0.438,0.103-0.583,0.309
			C866.665,63.758,866.573,64.244,866.573,64.953z"/>
		<path fill="#FFFFFF" d="M869.384,64.953c0-0.511,0.053-0.922,0.157-1.233c0.105-0.312,0.262-0.551,0.469-0.721
			c0.207-0.168,0.469-0.253,0.782-0.253c0.232,0,0.436,0.047,0.61,0.14c0.175,0.094,0.319,0.229,0.434,0.404
			c0.113,0.176,0.203,0.39,0.268,0.643c0.065,0.252,0.098,0.593,0.098,1.021c0,0.507-0.053,0.916-0.156,1.228
			c-0.104,0.312-0.26,0.552-0.468,0.722c-0.207,0.17-0.469,0.255-0.785,0.255c-0.416,0-0.743-0.149-0.981-0.447
			C869.527,66.351,869.384,65.765,869.384,64.953z M869.929,64.953c0,0.71,0.083,1.182,0.249,1.416
			c0.166,0.235,0.371,0.353,0.614,0.353c0.244,0,0.448-0.118,0.614-0.354c0.166-0.236,0.25-0.708,0.25-1.415
			c0-0.711-0.084-1.184-0.25-1.417c-0.166-0.234-0.372-0.351-0.62-0.351c-0.243,0-0.438,0.103-0.583,0.309
			C870.021,63.758,869.929,64.244,869.929,64.953z"/>
		<path fill="#FFFFFF" d="M872.49,67.157l1.253-4.467h0.424l-1.249,4.467H872.49z"/>
		<path fill="#FFFFFF" d="M876.416,67.084h-0.53v-3.38c-0.128,0.121-0.296,0.243-0.503,0.365c-0.207,0.122-0.394,0.213-0.559,0.273
			v-0.512c0.297-0.14,0.556-0.309,0.778-0.508c0.222-0.197,0.379-0.391,0.472-0.577h0.342V67.084z"/>
		<path fill="#FFFFFF" d="M877.774,64.953c0-0.511,0.053-0.922,0.157-1.233c0.105-0.312,0.262-0.551,0.469-0.721
			c0.207-0.168,0.468-0.253,0.782-0.253c0.231,0,0.435,0.047,0.61,0.14c0.175,0.094,0.319,0.229,0.433,0.404
			c0.114,0.176,0.204,0.39,0.269,0.643c0.064,0.252,0.098,0.593,0.098,1.021c0,0.507-0.053,0.916-0.156,1.228
			c-0.105,0.312-0.26,0.552-0.468,0.722c-0.207,0.17-0.469,0.255-0.785,0.255c-0.416,0-0.743-0.149-0.982-0.447
			C877.917,66.351,877.774,65.765,877.774,64.953z M878.319,64.953c0,0.71,0.083,1.182,0.249,1.416
			c0.166,0.235,0.371,0.353,0.614,0.353c0.244,0,0.448-0.118,0.614-0.354c0.166-0.236,0.249-0.708,0.249-1.415
			c0-0.711-0.083-1.184-0.249-1.417c-0.166-0.234-0.372-0.351-0.62-0.351c-0.243,0-0.438,0.103-0.583,0.309
			C878.411,63.758,878.319,64.244,878.319,64.953z"/>
		<path fill="#FFFFFF" d="M881.13,64.953c0-0.511,0.053-0.922,0.157-1.233c0.106-0.312,0.262-0.551,0.469-0.721
			c0.207-0.168,0.468-0.253,0.782-0.253c0.232,0,0.436,0.047,0.61,0.14c0.175,0.094,0.319,0.229,0.433,0.404
			c0.114,0.176,0.204,0.39,0.268,0.643c0.065,0.252,0.098,0.593,0.098,1.021c0,0.507-0.053,0.916-0.156,1.228
			c-0.104,0.312-0.26,0.552-0.468,0.722c-0.207,0.17-0.469,0.255-0.785,0.255c-0.416,0-0.743-0.149-0.981-0.447
			C881.273,66.351,881.13,65.765,881.13,64.953z M881.675,64.953c0,0.71,0.083,1.182,0.249,1.416
			c0.166,0.235,0.371,0.353,0.614,0.353c0.244,0,0.448-0.118,0.614-0.354c0.166-0.236,0.25-0.708,0.25-1.415
			c0-0.711-0.084-1.184-0.25-1.417c-0.166-0.234-0.372-0.351-0.62-0.351c-0.243,0-0.438,0.103-0.583,0.309
			C881.767,63.758,881.675,64.244,881.675,64.953z"/>
		<path fill="#FFFFFF" d="M884.487,64.953c0-0.511,0.053-0.922,0.157-1.233c0.105-0.312,0.262-0.551,0.469-0.721
			c0.207-0.168,0.468-0.253,0.782-0.253c0.231,0,0.435,0.047,0.61,0.14c0.175,0.094,0.319,0.229,0.433,0.404
			c0.114,0.176,0.204,0.39,0.269,0.643c0.064,0.252,0.098,0.593,0.098,1.021c0,0.507-0.053,0.916-0.156,1.228
			c-0.104,0.312-0.26,0.552-0.468,0.722c-0.207,0.17-0.469,0.255-0.785,0.255c-0.416,0-0.743-0.149-0.982-0.447
			C884.629,66.351,884.487,65.765,884.487,64.953z M885.032,64.953c0,0.71,0.083,1.182,0.249,1.416
			c0.166,0.235,0.371,0.353,0.614,0.353c0.244,0,0.448-0.118,0.614-0.354c0.166-0.236,0.249-0.708,0.249-1.415
			c0-0.711-0.083-1.184-0.249-1.417c-0.166-0.234-0.372-0.351-0.62-0.351c-0.243,0-0.438,0.103-0.583,0.309
			C885.124,63.758,885.032,64.244,885.032,64.953z"/>
		<path fill="#FFFFFF" d="M888.041,67.084v-4.319h0.86l1.023,3.058c0.095,0.285,0.163,0.498,0.207,0.64
			c0.049-0.157,0.125-0.388,0.229-0.692l1.034-3.005h0.769v4.319h-0.552v-3.616l-1.255,3.616h-0.516l-1.25-3.678v3.678H888.041z"/>
	</g>
</g>
<g>
	<path d="M1103.824,110.144l0.743,0.188c-0.155,0.611-0.437,1.077-0.842,1.397c-0.405,0.321-0.9,0.481-1.485,0.481
		c-0.606,0-1.099-0.123-1.479-0.37c-0.38-0.246-0.668-0.604-0.866-1.071c-0.198-0.468-0.297-0.971-0.297-1.507
		c0-0.586,0.111-1.097,0.335-1.532c0.224-0.436,0.542-0.767,0.955-0.993c0.412-0.226,0.867-0.339,1.363-0.339
		c0.562,0,1.035,0.143,1.418,0.429c0.384,0.287,0.651,0.689,0.802,1.208l-0.732,0.173c-0.13-0.409-0.319-0.707-0.567-0.894
		c-0.248-0.187-0.559-0.28-0.936-0.28c-0.432,0-0.793,0.104-1.083,0.31c-0.29,0.207-0.494,0.485-0.612,0.834
		c-0.117,0.35-0.176,0.709-0.176,1.08c0,0.478,0.069,0.896,0.209,1.252c0.139,0.356,0.355,0.623,0.649,0.799
		c0.294,0.177,0.612,0.265,0.955,0.265c0.417,0,0.769-0.12,1.059-0.36C1103.526,110.973,1103.721,110.616,1103.824,110.144z"/>
	<path d="M1105.257,109.376c0-0.933,0.25-1.663,0.751-2.191c0.501-0.527,1.148-0.791,1.94-0.791c0.52,0,0.987,0.124,1.403,0.372
		c0.417,0.247,0.734,0.594,0.953,1.037c0.219,0.443,0.328,0.946,0.328,1.509c0,0.569-0.115,1.08-0.346,1.529
		c-0.229,0.45-0.556,0.791-0.978,1.022c-0.422,0.231-0.877,0.347-1.365,0.347c-0.529,0-1.002-0.128-1.419-0.383
		c-0.416-0.256-0.732-0.605-0.946-1.047C1105.365,110.338,1105.257,109.87,1105.257,109.376z M1106.024,109.388
		c0,0.678,0.182,1.211,0.547,1.602c0.364,0.39,0.82,0.584,1.37,0.584c0.56,0,1.021-0.196,1.383-0.59
		c0.361-0.394,0.542-0.952,0.542-1.676c0-0.458-0.077-0.857-0.232-1.198c-0.155-0.342-0.381-0.606-0.679-0.794
		c-0.298-0.188-0.632-0.282-1.003-0.282c-0.526,0-0.979,0.182-1.359,0.543C1106.213,107.938,1106.024,108.542,1106.024,109.388z"/>
	<path d="M1111.584,112.114v-5.621h0.763l2.952,4.413v-4.413h0.714v5.621h-0.764l-2.952-4.417v4.417H1111.584z"/>
	<path d="M1117.01,110.309l0.702-0.062c0.033,0.281,0.11,0.512,0.231,0.692c0.122,0.18,0.311,0.325,0.566,0.437
		c0.255,0.111,0.543,0.167,0.862,0.167c0.284,0,0.534-0.042,0.752-0.127c0.217-0.084,0.379-0.199,0.484-0.347
		c0.106-0.146,0.159-0.308,0.159-0.481c0-0.176-0.051-0.33-0.153-0.462c-0.103-0.132-0.271-0.242-0.506-0.332
		c-0.151-0.059-0.484-0.149-1.001-0.273s-0.878-0.241-1.085-0.352c-0.269-0.14-0.469-0.314-0.601-0.523
		c-0.132-0.208-0.197-0.441-0.197-0.699c0-0.284,0.081-0.549,0.241-0.796c0.161-0.246,0.396-0.434,0.706-0.562
		c0.31-0.128,0.653-0.191,1.031-0.191c0.417,0,0.784,0.066,1.102,0.201c0.318,0.134,0.563,0.331,0.734,0.592
		c0.171,0.261,0.264,0.557,0.276,0.886l-0.714,0.054c-0.038-0.354-0.168-0.623-0.389-0.805c-0.222-0.182-0.548-0.273-0.979-0.273
		c-0.45,0-0.778,0.082-0.984,0.247c-0.205,0.165-0.309,0.364-0.309,0.597c0,0.202,0.073,0.368,0.219,0.498
		c0.144,0.131,0.518,0.265,1.122,0.401c0.604,0.137,1.018,0.256,1.244,0.358c0.327,0.15,0.568,0.342,0.725,0.573
		c0.156,0.231,0.233,0.498,0.233,0.799c0,0.3-0.085,0.581-0.257,0.846c-0.171,0.265-0.417,0.471-0.737,0.617
		c-0.321,0.147-0.683,0.221-1.084,0.221c-0.509,0-0.935-0.074-1.278-0.223c-0.344-0.147-0.613-0.371-0.81-0.669
		C1117.124,111.021,1117.021,110.684,1117.01,110.309z"/>
	<path d="M1122.275,109.376c0-0.933,0.25-1.663,0.751-2.191c0.501-0.527,1.149-0.791,1.941-0.791c0.519,0,0.987,0.124,1.403,0.372
		c0.417,0.247,0.734,0.594,0.953,1.037c0.219,0.443,0.328,0.946,0.328,1.509c0,0.569-0.115,1.08-0.346,1.529
		c-0.229,0.45-0.556,0.791-0.978,1.022c-0.422,0.231-0.877,0.347-1.365,0.347c-0.529,0-1.002-0.128-1.419-0.383
		c-0.416-0.256-0.732-0.605-0.946-1.047C1122.382,110.338,1122.275,109.87,1122.275,109.376z M1123.042,109.388
		c0,0.678,0.183,1.211,0.547,1.602c0.364,0.39,0.82,0.584,1.37,0.584c0.561,0,1.021-0.196,1.383-0.59
		c0.361-0.394,0.542-0.952,0.542-1.676c0-0.458-0.077-0.857-0.231-1.198c-0.155-0.342-0.381-0.606-0.679-0.794
		s-0.632-0.282-1.003-0.282c-0.526,0-0.979,0.182-1.359,0.543C1123.231,107.938,1123.042,108.542,1123.042,109.388z"/>
	<path d="M1128.579,112.114v-5.621h0.744v4.958h2.769v0.663H1128.579z"/>
	<path d="M1132.992,112.114v-5.621h4.064v0.663h-3.32v1.722h3.109v0.659h-3.109v1.914h3.451v0.663H1132.992z"/>
</g>
<g>
	<path d="M905.196,112.451v0.663h-3.716c-0.005-0.166,0.023-0.326,0.081-0.479c0.095-0.253,0.246-0.502,0.454-0.747
		c0.209-0.246,0.51-0.529,0.903-0.852c0.61-0.501,1.023-0.898,1.238-1.19c0.215-0.293,0.322-0.569,0.322-0.83
		c0-0.274-0.098-0.505-0.293-0.692c-0.196-0.188-0.451-0.282-0.766-0.282c-0.332,0-0.598,0.1-0.797,0.299
		c-0.2,0.2-0.301,0.476-0.304,0.829l-0.709-0.073c0.049-0.529,0.231-0.933,0.548-1.21c0.317-0.277,0.743-0.416,1.277-0.416
		c0.539,0,0.966,0.149,1.28,0.449c0.314,0.299,0.472,0.669,0.472,1.111c0,0.226-0.046,0.446-0.138,0.664
		c-0.092,0.217-0.245,0.445-0.458,0.686c-0.214,0.24-0.568,0.57-1.064,0.989c-0.414,0.348-0.68,0.584-0.798,0.708
		c-0.117,0.124-0.214,0.248-0.291,0.374H905.196z"/>
	<path d="M909.517,108.869l-0.687,0.054c-0.061-0.271-0.148-0.468-0.261-0.59c-0.187-0.197-0.416-0.296-0.69-0.296
		c-0.22,0-0.412,0.062-0.578,0.185c-0.218,0.158-0.389,0.39-0.515,0.693c-0.125,0.305-0.19,0.738-0.195,1.301
		c0.166-0.254,0.369-0.441,0.61-0.564c0.24-0.122,0.491-0.184,0.755-0.184c0.46,0,0.852,0.169,1.175,0.508
		c0.324,0.339,0.485,0.776,0.485,1.313c0,0.353-0.076,0.681-0.227,0.983c-0.152,0.303-0.361,0.535-0.627,0.696
		c-0.267,0.161-0.568,0.241-0.905,0.241c-0.575,0-1.044-0.211-1.407-0.635c-0.363-0.423-0.545-1.12-0.545-2.092
		c0-1.086,0.201-1.876,0.603-2.369c0.35-0.43,0.821-0.645,1.415-0.645c0.442,0,0.805,0.124,1.087,0.372
		C909.292,108.09,909.461,108.433,909.517,108.869z M906.699,111.293c0,0.237,0.051,0.465,0.151,0.683
		c0.102,0.217,0.242,0.383,0.424,0.496c0.182,0.114,0.372,0.171,0.571,0.171c0.292,0,0.542-0.117,0.752-0.353
		c0.209-0.235,0.315-0.555,0.315-0.959c0-0.389-0.104-0.694-0.311-0.918c-0.207-0.224-0.468-0.336-0.782-0.336
		c-0.312,0-0.577,0.112-0.794,0.336C906.807,110.637,906.699,110.93,906.699,111.293z"/>
</g>
<g>
	<path d="M852.757,112.451v0.663h-3.716c-0.005-0.166,0.022-0.326,0.081-0.479c0.095-0.253,0.246-0.502,0.454-0.747
		c0.209-0.246,0.51-0.529,0.903-0.852c0.61-0.501,1.023-0.898,1.238-1.19c0.215-0.293,0.322-0.569,0.322-0.83
		c0-0.274-0.098-0.505-0.293-0.692c-0.196-0.188-0.451-0.282-0.766-0.282c-0.332,0-0.598,0.1-0.797,0.299
		c-0.2,0.2-0.301,0.476-0.304,0.829l-0.709-0.073c0.049-0.529,0.231-0.933,0.548-1.21c0.317-0.277,0.743-0.416,1.277-0.416
		c0.539,0,0.966,0.149,1.28,0.449c0.314,0.299,0.472,0.669,0.472,1.111c0,0.226-0.046,0.446-0.138,0.664
		c-0.092,0.217-0.245,0.445-0.458,0.686c-0.214,0.24-0.568,0.57-1.064,0.989c-0.414,0.348-0.68,0.584-0.798,0.708
		c-0.117,0.124-0.214,0.248-0.291,0.374H852.757z"/>
	<path d="M853.498,111.642l0.725-0.062c0.054,0.354,0.178,0.618,0.374,0.796c0.195,0.178,0.431,0.267,0.707,0.267
		c0.332,0,0.613-0.125,0.844-0.376c0.231-0.25,0.345-0.583,0.345-0.997c0-0.394-0.11-0.704-0.331-0.932
		c-0.222-0.228-0.511-0.341-0.869-0.341c-0.222,0-0.423,0.05-0.602,0.151c-0.179,0.101-0.319,0.231-0.422,0.393l-0.648-0.084
		l0.545-2.888h2.795v0.66h-2.243l-0.303,1.511c0.338-0.235,0.691-0.353,1.062-0.353c0.49,0,0.904,0.171,1.242,0.511
		c0.338,0.34,0.506,0.776,0.506,1.312c0,0.508-0.148,0.948-0.444,1.318c-0.36,0.455-0.852,0.683-1.477,0.683
		c-0.511,0-0.929-0.143-1.252-0.43C853.728,112.494,853.544,112.115,853.498,111.642z"/>
</g>
<rect x="262.457" y="12.655" fill="#61577D" width="172" height="11.5"/>
<path fill="#47434B" d="M277.035,15.03v5l3.458,1.75l3.458-1.75v-5H277.035z M281.288,18.821h-0.748v-1.775
	c-0.121,0.093-0.238,0.167-0.352,0.225c-0.113,0.057-0.255,0.111-0.426,0.163v-0.606c0.252-0.082,0.447-0.179,0.586-0.293
	c0.139-0.113,0.249-0.254,0.327-0.421h0.612V18.821z"/>
<path fill="#47434B" d="M298.004,15.03l-3.458,1.75v5h6.917v-5L298.004,15.03z M299.287,19.397h-2.219
	c0.025-0.22,0.103-0.426,0.232-0.619c0.129-0.193,0.371-0.421,0.725-0.684c0.217-0.16,0.355-0.283,0.416-0.367
	c0.061-0.083,0.091-0.162,0.091-0.237c0-0.081-0.03-0.15-0.09-0.208c-0.06-0.058-0.135-0.086-0.226-0.086
	c-0.094,0-0.171,0.029-0.232,0.089c-0.06,0.059-0.1,0.164-0.121,0.313l-0.741-0.059c0.029-0.208,0.082-0.37,0.16-0.487
	c0.077-0.117,0.187-0.207,0.328-0.27c0.141-0.062,0.336-0.093,0.586-0.093c0.26,0,0.463,0.03,0.607,0.089
	c0.145,0.06,0.259,0.15,0.342,0.274c0.083,0.123,0.124,0.261,0.124,0.413c0,0.162-0.047,0.317-0.143,0.465
	c-0.095,0.147-0.268,0.31-0.518,0.487c-0.149,0.102-0.249,0.174-0.299,0.215c-0.05,0.042-0.109,0.096-0.177,0.162h1.155V19.397z"/>
<path fill="#47434B" d="M316.228,15.03v5l3.458,1.75l3.458-1.75v-5H316.228z M320.859,18.423c-0.081,0.142-0.198,0.251-0.35,0.328
	c-0.153,0.076-0.353,0.115-0.601,0.115c-0.242,0-0.433-0.028-0.573-0.086c-0.14-0.057-0.255-0.14-0.345-0.249
	c-0.09-0.11-0.16-0.247-0.208-0.413l0.739-0.098c0.029,0.148,0.074,0.252,0.135,0.309c0.061,0.059,0.139,0.087,0.233,0.087
	c0.1,0,0.182-0.036,0.248-0.108c0.066-0.073,0.099-0.17,0.099-0.291c0-0.123-0.032-0.219-0.096-0.287
	c-0.064-0.068-0.15-0.102-0.258-0.102c-0.058,0-0.138,0.014-0.24,0.043l0.038-0.527c0.041,0.006,0.073,0.008,0.096,0.008
	c0.097,0,0.178-0.03,0.242-0.092c0.065-0.062,0.097-0.135,0.097-0.22c0-0.081-0.024-0.146-0.072-0.194
	c-0.049-0.049-0.115-0.072-0.2-0.072c-0.087,0-0.158,0.025-0.212,0.078c-0.054,0.053-0.091,0.146-0.111,0.277l-0.699-0.125
	c0.058-0.223,0.169-0.394,0.335-0.513c0.165-0.118,0.399-0.178,0.702-0.178c0.348,0,0.599,0.065,0.754,0.194
	c0.155,0.129,0.233,0.293,0.233,0.488c0,0.115-0.032,0.219-0.095,0.312c-0.063,0.094-0.158,0.175-0.285,0.245
	c0.103,0.025,0.182,0.056,0.236,0.089c0.088,0.055,0.157,0.127,0.206,0.215c0.049,0.09,0.074,0.195,0.074,0.319
	C320.982,18.132,320.94,18.28,320.859,18.423z"/>
<path fill="#47434B" d="M337.299,15.03l-3.458,1.75v5h6.916v-5L337.299,15.03z M338.462,18.899h-0.334v0.498h-0.645v-0.498h-1.348
	v-0.608l1.348-1.602h0.645v1.636h0.334V18.899z"/>
<path fill="#47434B" d="M355.42,15.03v5l3.458,1.75l3.458-1.75v-5H355.42z M360.051,18.378c-0.085,0.158-0.207,0.279-0.363,0.363
	c-0.157,0.083-0.357,0.125-0.602,0.125c-0.176,0-0.326-0.017-0.451-0.05c-0.125-0.033-0.232-0.083-0.32-0.149
	c-0.088-0.065-0.159-0.141-0.213-0.225c-0.054-0.083-0.1-0.188-0.136-0.312l0.748-0.082c0.019,0.12,0.061,0.211,0.128,0.274
	c0.066,0.062,0.146,0.094,0.238,0.094c0.103,0,0.188-0.039,0.255-0.117c0.067-0.078,0.101-0.194,0.101-0.35
	c0-0.159-0.034-0.274-0.102-0.349c-0.068-0.074-0.158-0.111-0.271-0.111c-0.071,0-0.14,0.017-0.207,0.053
	c-0.05,0.025-0.104,0.072-0.164,0.139l-0.63-0.092l0.234-1.43h1.756v0.59h-1.189l-0.063,0.399c0.083-0.039,0.164-0.067,0.244-0.087
	c0.081-0.02,0.16-0.029,0.239-0.029c0.267,0,0.482,0.08,0.648,0.241c0.166,0.161,0.249,0.364,0.249,0.608
	C360.179,18.054,360.136,18.22,360.051,18.378z"/>
<g>
	<path fill="#47434B" d="M376.65,18.079c-0.103,0-0.19,0.037-0.259,0.113c-0.07,0.076-0.104,0.185-0.104,0.328
		c0,0.144,0.036,0.256,0.109,0.338c0.073,0.082,0.162,0.123,0.267,0.123c0.097,0,0.178-0.037,0.243-0.111s0.098-0.184,0.098-0.33
		c0-0.15-0.034-0.265-0.102-0.344C376.834,18.118,376.75,18.079,376.65,18.079z"/>
	<path fill="#47434B" d="M376.389,15.03l-3.458,1.75v5h6.917v-5L376.389,15.03z M377.58,19.001c-0.083,0.146-0.198,0.256-0.345,0.33
		c-0.147,0.074-0.331,0.111-0.553,0.111c-0.267,0-0.48-0.045-0.641-0.137c-0.161-0.09-0.29-0.235-0.386-0.435
		c-0.097-0.198-0.145-0.462-0.145-0.79c0-0.482,0.101-0.833,0.303-1.057c0.202-0.223,0.482-0.335,0.841-0.335
		c0.212,0,0.379,0.024,0.502,0.073c0.123,0.049,0.225,0.121,0.306,0.215c0.081,0.096,0.143,0.214,0.185,0.356l-0.735,0.091
		c-0.02-0.104-0.052-0.176-0.097-0.218c-0.045-0.042-0.102-0.063-0.168-0.063c-0.12,0-0.213,0.06-0.28,0.182
		c-0.048,0.087-0.084,0.273-0.107,0.559c0.088-0.089,0.179-0.155,0.272-0.198c0.093-0.043,0.201-0.064,0.323-0.064
		c0.237,0,0.438,0.085,0.602,0.254c0.164,0.17,0.246,0.385,0.246,0.646C377.704,18.695,377.663,18.856,377.58,19.001z"/>
</g>
<path fill="#47434B" d="M394.612,15.03v5l3.458,1.75l3.458-1.75v-5H394.612z M399.36,16.658c-0.188,0.169-0.344,0.353-0.47,0.55
	c-0.152,0.24-0.273,0.507-0.361,0.801c-0.07,0.229-0.117,0.5-0.142,0.812h-0.737c0.058-0.436,0.15-0.799,0.275-1.094
	c0.124-0.294,0.322-0.609,0.592-0.944h-1.315v-0.624h2.159V16.658z"/>
<g>
	<path fill="#47434B" d="M415.78,18.185c-0.092,0-0.172,0.036-0.241,0.109c-0.068,0.072-0.102,0.171-0.102,0.294
		c0,0.117,0.036,0.213,0.107,0.287c0.071,0.075,0.153,0.112,0.245,0.112c0.088,0,0.168-0.038,0.238-0.113
		c0.07-0.075,0.105-0.172,0.105-0.288c0-0.117-0.036-0.213-0.106-0.289C415.955,18.224,415.873,18.185,415.78,18.185z"/>
	<path fill="#47434B" d="M415.793,17.75c0.085,0,0.154-0.028,0.209-0.083c0.055-0.057,0.082-0.129,0.082-0.217
		c0-0.092-0.028-0.166-0.085-0.225c-0.057-0.057-0.13-0.086-0.218-0.086c-0.089,0-0.163,0.028-0.219,0.084
		c-0.056,0.057-0.085,0.13-0.085,0.219c0,0.093,0.029,0.167,0.086,0.223C415.621,17.722,415.697,17.75,415.793,17.75z"/>
	<path fill="#47434B" d="M415.582,15.03l-3.458,1.75v5h6.917v-5L415.582,15.03z M416.783,18.991
		c-0.061,0.115-0.136,0.205-0.225,0.268c-0.089,0.062-0.2,0.109-0.333,0.139c-0.132,0.03-0.274,0.045-0.424,0.045
		c-0.282,0-0.498-0.033-0.646-0.1s-0.262-0.165-0.34-0.295c-0.077-0.129-0.116-0.273-0.116-0.434c0-0.156,0.037-0.289,0.109-0.396
		c0.072-0.108,0.185-0.192,0.336-0.252c-0.116-0.061-0.201-0.131-0.254-0.207c-0.073-0.104-0.109-0.224-0.109-0.359
		c0-0.223,0.104-0.404,0.314-0.547c0.163-0.109,0.379-0.163,0.648-0.163c0.356,0,0.619,0.067,0.789,0.203
		c0.17,0.136,0.255,0.307,0.255,0.513c0,0.119-0.034,0.231-0.102,0.336c-0.051,0.077-0.131,0.152-0.24,0.225
		c0.144,0.069,0.252,0.16,0.322,0.274c0.071,0.114,0.106,0.239,0.106,0.378C416.875,18.751,416.844,18.876,416.783,18.991z"/>
</g>
<rect x="454.186" y="12.655" fill="#61577D" width="171.999" height="11.5"/>
<g>
	<path fill="#47434B" d="M472.632,16.575c-0.098,0-0.18,0.036-0.245,0.109c-0.064,0.074-0.097,0.185-0.097,0.333
		c0,0.149,0.034,0.263,0.101,0.341c0.067,0.079,0.151,0.119,0.251,0.119c0.104,0,0.19-0.039,0.26-0.115
		c0.069-0.076,0.104-0.186,0.104-0.326c0-0.145-0.037-0.258-0.109-0.339C472.825,16.615,472.736,16.575,472.632,16.575z"/>
	<path fill="#47434B" d="M469.035,15.03v5l3.458,1.75l3.458-1.75v-5H469.035z M473.479,18.531c-0.203,0.224-0.483,0.335-0.841,0.335
		c-0.212,0-0.379-0.024-0.501-0.074c-0.122-0.049-0.224-0.12-0.305-0.215c-0.081-0.094-0.143-0.212-0.187-0.354l0.736-0.093
		c0.019,0.103,0.052,0.175,0.098,0.218c0.046,0.043,0.103,0.063,0.169,0.063c0.119,0,0.211-0.06,0.278-0.18
		c0.048-0.089,0.085-0.275,0.109-0.562c-0.088,0.092-0.179,0.158-0.272,0.2c-0.093,0.042-0.201,0.064-0.323,0.064
		c-0.239,0-0.44-0.084-0.604-0.254c-0.164-0.17-0.246-0.385-0.246-0.643c0-0.178,0.042-0.338,0.126-0.483
		c0.083-0.146,0.198-0.255,0.345-0.329c0.146-0.075,0.331-0.112,0.552-0.112c0.266,0,0.48,0.046,0.641,0.138
		c0.161,0.091,0.29,0.236,0.386,0.436c0.096,0.199,0.145,0.462,0.145,0.789C473.782,17.956,473.681,18.308,473.479,18.531z"/>
</g>
<g>
	<path fill="#47434B" d="M491.46,17.182c-0.122,0-0.21,0.062-0.265,0.187c-0.054,0.123-0.082,0.354-0.082,0.688
		c0,0.339,0.03,0.571,0.09,0.694c0.06,0.125,0.147,0.187,0.261,0.187c0.075,0,0.14-0.026,0.195-0.079
		c0.055-0.053,0.096-0.136,0.122-0.25c0.026-0.113,0.039-0.291,0.039-0.531c0-0.354-0.03-0.592-0.09-0.713
		C491.67,17.242,491.58,17.182,491.46,17.182z"/>
	<path fill="#47434B" d="M490.228,15.03l-3.458,1.75v5h6.917v-5L490.228,15.03z M489.575,19.397h-0.748v-1.775
		c-0.121,0.093-0.238,0.167-0.352,0.225c-0.113,0.057-0.255,0.111-0.426,0.163v-0.607c0.252-0.082,0.447-0.179,0.586-0.293
		c0.139-0.113,0.249-0.254,0.327-0.421h0.612V19.397z M492.31,19.106c-0.164,0.225-0.445,0.336-0.845,0.336
		c-0.224,0-0.405-0.035-0.543-0.107c-0.138-0.071-0.251-0.176-0.339-0.314c-0.064-0.098-0.114-0.231-0.15-0.402
		c-0.036-0.17-0.054-0.358-0.054-0.562c0-0.507,0.091-0.861,0.273-1.062c0.182-0.203,0.46-0.304,0.833-0.304
		c0.179,0,0.326,0.023,0.441,0.066c0.115,0.044,0.209,0.102,0.281,0.173c0.073,0.07,0.13,0.145,0.172,0.223
		c0.041,0.078,0.075,0.17,0.101,0.273c0.05,0.199,0.075,0.406,0.075,0.621C492.555,18.528,492.473,18.882,492.31,19.106z"/>
</g>
<g>
	<path fill="#47434B" d="M507.951,15.03v5l3.458,1.75l3.458-1.75v-5H507.951z M510.757,18.821h-0.748v-1.775
		c-0.121,0.093-0.238,0.167-0.352,0.225c-0.113,0.057-0.255,0.111-0.426,0.163v-0.606c0.252-0.082,0.447-0.179,0.586-0.293
		c0.139-0.113,0.249-0.254,0.327-0.421h0.612V18.821z M513.237,18.821h-0.748v-1.775c-0.121,0.093-0.238,0.167-0.352,0.225
		c-0.113,0.057-0.255,0.111-0.426,0.163v-0.606c0.252-0.082,0.447-0.179,0.586-0.293c0.139-0.113,0.248-0.254,0.327-0.421h0.612
		V18.821z"/>
</g>
<g>
	<path fill="#47434B" d="M529.92,15.03l-3.458,1.75v5h6.917v-5L529.92,15.03z M529.268,19.397h-0.748v-1.775
		c-0.121,0.093-0.238,0.167-0.352,0.225c-0.113,0.057-0.255,0.111-0.426,0.163v-0.607c0.252-0.082,0.447-0.179,0.586-0.293
		c0.139-0.113,0.249-0.254,0.327-0.421h0.612V19.397z M532.237,19.397h-2.219c0.025-0.22,0.103-0.426,0.232-0.619
		c0.129-0.193,0.371-0.421,0.726-0.684c0.217-0.16,0.355-0.283,0.416-0.367c0.06-0.083,0.091-0.162,0.091-0.237
		c0-0.081-0.03-0.15-0.09-0.208c-0.06-0.058-0.135-0.086-0.226-0.086c-0.094,0-0.171,0.029-0.232,0.089
		c-0.06,0.059-0.1,0.164-0.121,0.313l-0.741-0.059c0.029-0.208,0.083-0.37,0.16-0.487c0.077-0.117,0.187-0.207,0.328-0.27
		c0.141-0.062,0.336-0.093,0.586-0.093c0.26,0,0.463,0.03,0.607,0.089c0.145,0.06,0.259,0.15,0.342,0.274
		c0.083,0.123,0.124,0.261,0.124,0.413c0,0.162-0.047,0.317-0.143,0.465c-0.095,0.147-0.268,0.31-0.518,0.487
		c-0.149,0.102-0.249,0.174-0.299,0.215c-0.05,0.042-0.109,0.096-0.177,0.162h1.155V19.397z"/>
</g>
<path fill="#47434B" d="M548.143,15.03v5l3.458,1.75l3.458-1.75v-5H548.143z M550.949,18.821h-0.748v-1.775
	c-0.121,0.093-0.238,0.167-0.352,0.225c-0.113,0.057-0.255,0.111-0.426,0.163v-0.606c0.252-0.082,0.447-0.179,0.586-0.293
	c0.139-0.113,0.248-0.254,0.327-0.421h0.612V18.821z M553.809,18.423c-0.081,0.142-0.198,0.251-0.35,0.328
	c-0.153,0.076-0.353,0.115-0.601,0.115c-0.242,0-0.433-0.028-0.573-0.086c-0.14-0.057-0.255-0.14-0.345-0.249
	c-0.09-0.11-0.16-0.247-0.208-0.413l0.739-0.098c0.029,0.148,0.074,0.252,0.135,0.309c0.061,0.059,0.139,0.087,0.233,0.087
	c0.1,0,0.182-0.036,0.248-0.108c0.066-0.073,0.099-0.17,0.099-0.291c0-0.123-0.032-0.219-0.096-0.287
	c-0.063-0.068-0.149-0.102-0.258-0.102c-0.058,0-0.138,0.014-0.24,0.043l0.038-0.527c0.041,0.006,0.073,0.008,0.096,0.008
	c0.097,0,0.178-0.03,0.242-0.092c0.065-0.062,0.097-0.135,0.097-0.22c0-0.081-0.024-0.146-0.072-0.194
	c-0.049-0.049-0.115-0.072-0.2-0.072c-0.087,0-0.158,0.025-0.212,0.078c-0.054,0.053-0.091,0.146-0.111,0.277l-0.699-0.125
	c0.058-0.223,0.169-0.394,0.335-0.513c0.165-0.118,0.399-0.178,0.702-0.178c0.348,0,0.599,0.065,0.754,0.194
	c0.155,0.129,0.232,0.293,0.232,0.488c0,0.115-0.032,0.219-0.095,0.312c-0.063,0.094-0.158,0.175-0.285,0.245
	c0.103,0.025,0.182,0.056,0.236,0.089c0.088,0.055,0.157,0.127,0.206,0.215c0.049,0.09,0.074,0.195,0.074,0.319
	C553.931,18.132,553.89,18.28,553.809,18.423z"/>
<g>
	<polygon fill="#47434B" points="569.536,18.325 569.536,17.487 568.824,18.325 	"/>
	<path fill="#47434B" d="M568.112,15.03l-3.458,1.75v5h6.917v-5L568.112,15.03z M567.46,19.397h-0.748v-1.775
		c-0.121,0.093-0.238,0.167-0.352,0.225c-0.113,0.057-0.255,0.111-0.426,0.163v-0.607c0.252-0.082,0.447-0.179,0.586-0.293
		c0.139-0.113,0.249-0.254,0.327-0.421h0.612V19.397z M570.514,18.899h-0.334v0.498h-0.644v-0.498h-1.348v-0.608l1.348-1.602h0.644
		v1.636h0.334V18.899z"/>
</g>
<path fill="#47434B" d="M586.336,15.03v5l3.458,1.75l3.458-1.75v-5H586.336z M589.142,18.821h-0.748v-1.775
	c-0.121,0.093-0.238,0.167-0.352,0.225c-0.113,0.057-0.255,0.111-0.426,0.163v-0.606c0.252-0.082,0.447-0.179,0.586-0.293
	c0.139-0.113,0.248-0.254,0.327-0.421h0.612V18.821z M592.001,18.378c-0.085,0.158-0.206,0.279-0.363,0.363
	c-0.157,0.083-0.357,0.125-0.602,0.125c-0.176,0-0.326-0.017-0.451-0.05c-0.125-0.033-0.232-0.083-0.32-0.149
	c-0.088-0.065-0.159-0.141-0.213-0.225c-0.054-0.083-0.1-0.188-0.136-0.312l0.748-0.082c0.019,0.12,0.061,0.211,0.128,0.274
	c0.066,0.062,0.146,0.094,0.238,0.094c0.103,0,0.188-0.039,0.255-0.117c0.067-0.078,0.101-0.194,0.101-0.35
	c0-0.159-0.034-0.274-0.102-0.349c-0.068-0.074-0.158-0.111-0.271-0.111c-0.071,0-0.14,0.017-0.207,0.053
	c-0.05,0.025-0.104,0.072-0.164,0.139l-0.63-0.092l0.234-1.43h1.756v0.59h-1.189l-0.063,0.399c0.083-0.039,0.164-0.067,0.244-0.087
	c0.081-0.02,0.16-0.029,0.239-0.029c0.267,0,0.482,0.08,0.648,0.241c0.166,0.161,0.249,0.364,0.249,0.608
	C592.129,18.054,592.086,18.22,592.001,18.378z"/>
<g>
	<path fill="#47434B" d="M607.305,15.03l-3.458,1.75v5h6.917v-5L607.305,15.03z M606.652,19.397h-0.748v-1.775
		c-0.121,0.093-0.238,0.167-0.352,0.225c-0.113,0.057-0.255,0.111-0.426,0.163v-0.607c0.252-0.082,0.447-0.179,0.586-0.293
		c0.139-0.113,0.249-0.254,0.327-0.421h0.612V19.397z M609.53,19.001c-0.083,0.146-0.198,0.256-0.345,0.33
		c-0.147,0.074-0.332,0.111-0.553,0.111c-0.267,0-0.48-0.045-0.641-0.137c-0.161-0.09-0.29-0.235-0.386-0.435
		c-0.097-0.198-0.145-0.462-0.145-0.79c0-0.482,0.101-0.833,0.303-1.057c0.202-0.223,0.482-0.335,0.841-0.335
		c0.212,0,0.379,0.024,0.502,0.073c0.123,0.049,0.225,0.121,0.306,0.215c0.081,0.096,0.143,0.214,0.185,0.356l-0.735,0.091
		c-0.02-0.104-0.052-0.176-0.097-0.218s-0.102-0.063-0.168-0.063c-0.12,0-0.213,0.06-0.28,0.182
		c-0.048,0.087-0.084,0.273-0.107,0.559c0.088-0.089,0.179-0.155,0.272-0.198c0.093-0.043,0.201-0.064,0.323-0.064
		c0.237,0,0.438,0.085,0.602,0.254c0.164,0.17,0.246,0.385,0.246,0.646C609.654,18.695,609.612,18.856,609.53,19.001z"/>
	<path fill="#47434B" d="M608.599,18.079c-0.103,0-0.189,0.037-0.259,0.113c-0.07,0.076-0.104,0.185-0.104,0.328
		c0,0.144,0.036,0.256,0.109,0.338c0.073,0.082,0.162,0.123,0.267,0.123c0.097,0,0.178-0.037,0.243-0.111s0.098-0.184,0.098-0.33
		c0-0.15-0.034-0.265-0.102-0.344C608.784,18.118,608.699,18.079,608.599,18.079z"/>
</g>
<rect x="645.582" y="12.655" fill="#61577D" width="172" height="11.5"/>
<path fill="#47434B" d="M659.882,15.03v5l3.459,1.75l3.458-1.75v-5H659.882z M662.69,18.821h-0.748v-1.775
	c-0.121,0.093-0.238,0.167-0.352,0.225c-0.113,0.057-0.255,0.111-0.426,0.163v-0.606c0.252-0.082,0.447-0.179,0.587-0.293
	c0.139-0.113,0.248-0.254,0.326-0.421h0.612V18.821z M665.666,16.658c-0.188,0.169-0.344,0.353-0.47,0.55
	c-0.152,0.24-0.272,0.507-0.361,0.801c-0.07,0.229-0.117,0.5-0.142,0.812h-0.737c0.058-0.436,0.149-0.799,0.274-1.094
	c0.125-0.294,0.322-0.609,0.592-0.944h-1.314v-0.624h2.158V16.658z"/>
<g>
	<path fill="#47434B" d="M682.586,18.185c-0.092,0-0.172,0.036-0.241,0.109c-0.068,0.072-0.103,0.171-0.103,0.294
		c0,0.117,0.035,0.213,0.107,0.287c0.071,0.075,0.152,0.112,0.245,0.112c0.089,0,0.167-0.038,0.237-0.113s0.105-0.172,0.105-0.288
		c0-0.117-0.035-0.213-0.105-0.289C682.76,18.224,682.678,18.185,682.586,18.185z"/>
	<path fill="#47434B" d="M681.353,15.03l-3.459,1.75v5h6.916v-5L681.353,15.03z M680.701,19.397h-0.748v-1.775
		c-0.121,0.093-0.238,0.167-0.352,0.225c-0.113,0.057-0.256,0.111-0.426,0.163v-0.607c0.252-0.082,0.447-0.179,0.586-0.293
		c0.139-0.113,0.248-0.254,0.327-0.421h0.612V19.397z M683.588,18.991c-0.061,0.115-0.136,0.205-0.226,0.268
		c-0.088,0.062-0.199,0.109-0.332,0.139c-0.133,0.03-0.273,0.045-0.424,0.045c-0.282,0-0.498-0.033-0.646-0.1
		c-0.148-0.066-0.262-0.165-0.34-0.295c-0.077-0.129-0.116-0.273-0.116-0.434c0-0.156,0.036-0.289,0.109-0.396
		c0.072-0.108,0.185-0.192,0.336-0.252c-0.116-0.061-0.201-0.131-0.255-0.207c-0.072-0.104-0.108-0.224-0.108-0.359
		c0-0.223,0.104-0.404,0.313-0.547c0.164-0.109,0.38-0.163,0.648-0.163c0.356,0,0.619,0.067,0.789,0.203
		c0.17,0.136,0.256,0.307,0.256,0.513c0,0.119-0.034,0.231-0.102,0.336c-0.051,0.077-0.131,0.152-0.24,0.225
		c0.144,0.069,0.252,0.16,0.322,0.274c0.07,0.114,0.106,0.239,0.106,0.378C683.68,18.751,683.65,18.876,683.588,18.991z"/>
	<path fill="#47434B" d="M682.597,17.75c0.086,0,0.154-0.028,0.209-0.083c0.055-0.057,0.082-0.129,0.082-0.217
		c0-0.092-0.028-0.166-0.085-0.225c-0.058-0.057-0.13-0.086-0.218-0.086c-0.09,0-0.163,0.028-0.219,0.084
		c-0.057,0.057-0.085,0.13-0.085,0.219c0,0.093,0.028,0.167,0.087,0.223C682.425,17.722,682.502,17.75,682.597,17.75z"/>
</g>
<g>
	<path fill="#47434B" d="M703.707,16.575c-0.098,0-0.18,0.036-0.244,0.109c-0.064,0.074-0.098,0.185-0.098,0.333
		c0,0.149,0.034,0.263,0.102,0.341c0.066,0.079,0.15,0.119,0.252,0.119c0.103,0,0.189-0.039,0.26-0.115
		c0.068-0.076,0.104-0.186,0.104-0.326c0-0.145-0.037-0.258-0.109-0.339C703.9,16.615,703.811,16.575,703.707,16.575z"/>
	<path fill="#47434B" d="M699.076,15.03v5l3.458,1.75l3.458-1.75v-5H699.076z M701.882,18.821h-0.748v-1.775
		c-0.121,0.093-0.238,0.167-0.352,0.225c-0.113,0.057-0.256,0.111-0.426,0.163v-0.606c0.252-0.082,0.447-0.179,0.586-0.293
		c0.139-0.113,0.248-0.254,0.327-0.421h0.612V18.821z M704.553,18.531c-0.202,0.224-0.482,0.335-0.841,0.335
		c-0.212,0-0.379-0.024-0.502-0.074c-0.121-0.049-0.224-0.12-0.305-0.215c-0.081-0.094-0.143-0.212-0.188-0.354l0.736-0.093
		c0.02,0.103,0.052,0.175,0.098,0.218c0.047,0.043,0.102,0.063,0.169,0.063c0.118,0,0.212-0.06,0.278-0.18
		c0.048-0.089,0.084-0.275,0.108-0.562c-0.089,0.092-0.179,0.158-0.272,0.2c-0.093,0.042-0.201,0.064-0.322,0.064
		c-0.239,0-0.44-0.084-0.604-0.254c-0.164-0.17-0.246-0.385-0.246-0.643c0-0.178,0.042-0.338,0.126-0.483
		c0.083-0.146,0.197-0.255,0.344-0.329c0.146-0.075,0.331-0.112,0.553-0.112c0.266,0,0.48,0.046,0.641,0.138
		c0.161,0.091,0.29,0.236,0.387,0.436c0.096,0.199,0.145,0.462,0.145,0.789C704.857,17.956,704.755,18.308,704.553,18.531z"/>
</g>
<g>
	<path fill="#47434B" d="M722.277,17.182c-0.121,0-0.21,0.062-0.265,0.187c-0.054,0.123-0.081,0.354-0.081,0.688
		c0,0.339,0.029,0.571,0.09,0.694c0.06,0.125,0.146,0.187,0.26,0.187c0.075,0,0.141-0.026,0.195-0.079
		c0.055-0.053,0.096-0.136,0.122-0.25c0.026-0.113,0.039-0.291,0.039-0.531c0-0.354-0.03-0.592-0.09-0.713
		C722.488,17.242,722.398,17.182,722.277,17.182z"/>
	<path fill="#47434B" d="M721.044,15.03l-3.458,1.75v5h6.917v-5L721.044,15.03z M720.881,19.397h-2.22
		c0.025-0.22,0.104-0.426,0.232-0.619c0.129-0.193,0.37-0.421,0.725-0.684c0.217-0.16,0.355-0.283,0.416-0.367
		c0.061-0.083,0.091-0.162,0.091-0.237c0-0.081-0.03-0.15-0.09-0.208c-0.06-0.058-0.136-0.086-0.226-0.086
		c-0.095,0-0.172,0.029-0.232,0.089c-0.06,0.059-0.1,0.164-0.12,0.313l-0.741-0.059c0.029-0.208,0.082-0.37,0.16-0.487
		c0.077-0.117,0.186-0.207,0.328-0.27c0.141-0.062,0.336-0.093,0.585-0.093c0.261,0,0.463,0.03,0.607,0.089
		c0.146,0.06,0.259,0.15,0.342,0.274c0.083,0.123,0.124,0.261,0.124,0.413c0,0.162-0.047,0.317-0.143,0.465
		c-0.095,0.147-0.268,0.31-0.518,0.487c-0.149,0.102-0.249,0.174-0.299,0.215c-0.051,0.042-0.109,0.096-0.178,0.162h1.155V19.397z
		 M723.128,19.106c-0.163,0.225-0.444,0.336-0.845,0.336c-0.224,0-0.404-0.035-0.543-0.107c-0.138-0.071-0.251-0.176-0.34-0.314
		c-0.064-0.098-0.113-0.231-0.149-0.402c-0.036-0.17-0.054-0.358-0.054-0.562c0-0.507,0.092-0.861,0.273-1.062
		c0.182-0.203,0.46-0.304,0.832-0.304c0.18,0,0.326,0.023,0.441,0.066c0.115,0.044,0.209,0.102,0.281,0.173
		c0.073,0.07,0.131,0.145,0.172,0.223c0.042,0.078,0.076,0.17,0.102,0.273c0.049,0.199,0.074,0.406,0.074,0.621
		C723.373,18.528,723.291,18.882,723.128,19.106z"/>
</g>
<path fill="#47434B" d="M739.268,15.03v5l3.458,1.75l3.459-1.75v-5H739.268z M742.563,18.821h-2.22
	c0.025-0.22,0.103-0.426,0.232-0.619c0.129-0.193,0.37-0.421,0.725-0.684c0.217-0.16,0.356-0.283,0.416-0.367
	c0.061-0.083,0.091-0.162,0.091-0.237c0-0.081-0.03-0.15-0.09-0.208c-0.06-0.058-0.136-0.086-0.226-0.086
	c-0.095,0-0.172,0.029-0.232,0.089c-0.06,0.06-0.1,0.164-0.12,0.313l-0.741-0.06c0.029-0.208,0.082-0.37,0.16-0.487
	c0.077-0.117,0.187-0.207,0.328-0.269c0.141-0.062,0.336-0.093,0.585-0.093c0.261,0,0.463,0.03,0.607,0.089
	c0.146,0.06,0.259,0.15,0.342,0.273c0.083,0.123,0.124,0.261,0.124,0.413c0,0.162-0.047,0.317-0.143,0.465
	c-0.095,0.147-0.268,0.31-0.518,0.487c-0.149,0.102-0.249,0.174-0.299,0.215c-0.051,0.042-0.109,0.096-0.178,0.162h1.155V18.821z
	 M744.554,18.821h-0.748v-1.775c-0.121,0.093-0.238,0.167-0.352,0.225c-0.113,0.057-0.254,0.111-0.426,0.163v-0.606
	c0.252-0.082,0.447-0.179,0.587-0.293c0.14-0.113,0.249-0.254,0.327-0.421h0.611V18.821z"/>
<path fill="#47434B" d="M759.238,15.03l-3.459,1.75v5h6.916v-5L759.238,15.03z M759.074,19.397h-2.219
	c0.025-0.22,0.102-0.426,0.231-0.619c0.129-0.193,0.371-0.421,0.727-0.684c0.217-0.16,0.354-0.283,0.415-0.367
	c0.06-0.083,0.091-0.162,0.091-0.237c0-0.081-0.029-0.15-0.09-0.208c-0.06-0.058-0.135-0.086-0.227-0.086
	c-0.094,0-0.171,0.029-0.231,0.089c-0.06,0.059-0.101,0.164-0.121,0.313l-0.741-0.059c0.029-0.208,0.083-0.37,0.16-0.487
	c0.077-0.117,0.186-0.207,0.327-0.27c0.142-0.062,0.337-0.093,0.586-0.093c0.26,0,0.463,0.03,0.607,0.089
	c0.144,0.06,0.259,0.15,0.342,0.274c0.082,0.123,0.124,0.261,0.124,0.413c0,0.162-0.048,0.317-0.143,0.465
	c-0.095,0.147-0.268,0.31-0.518,0.487c-0.148,0.102-0.248,0.174-0.299,0.215c-0.05,0.042-0.109,0.096-0.177,0.162h1.155V19.397z
	 M761.554,19.397h-2.219c0.025-0.22,0.102-0.426,0.23-0.619c0.129-0.193,0.371-0.421,0.727-0.684
	c0.217-0.16,0.354-0.283,0.415-0.367c0.061-0.083,0.091-0.162,0.091-0.237c0-0.081-0.029-0.15-0.09-0.208
	c-0.06-0.058-0.135-0.086-0.227-0.086c-0.094,0-0.171,0.029-0.23,0.089c-0.061,0.059-0.101,0.164-0.121,0.313l-0.741-0.059
	c0.029-0.208,0.083-0.37,0.16-0.487c0.077-0.117,0.187-0.207,0.327-0.27c0.142-0.062,0.337-0.093,0.586-0.093
	c0.26,0,0.463,0.03,0.607,0.089c0.145,0.06,0.259,0.15,0.342,0.274c0.082,0.123,0.124,0.261,0.124,0.413
	c0,0.162-0.048,0.317-0.143,0.465c-0.095,0.147-0.268,0.31-0.519,0.487c-0.148,0.102-0.248,0.174-0.299,0.215
	c-0.05,0.042-0.109,0.096-0.177,0.162h1.155V19.397z"/>
<path fill="#47434B" d="M777.461,15.03v5l3.458,1.75l3.458-1.75v-5H777.461z M780.755,18.821h-2.219
	c0.025-0.22,0.102-0.426,0.23-0.619c0.129-0.193,0.371-0.421,0.727-0.684c0.217-0.16,0.354-0.283,0.415-0.367
	c0.061-0.083,0.091-0.162,0.091-0.237c0-0.081-0.029-0.15-0.09-0.208c-0.06-0.058-0.135-0.086-0.227-0.086
	c-0.094,0-0.171,0.029-0.23,0.089c-0.061,0.06-0.101,0.164-0.121,0.313l-0.741-0.06c0.029-0.208,0.083-0.37,0.16-0.487
	c0.077-0.117,0.187-0.207,0.327-0.269c0.142-0.062,0.337-0.093,0.586-0.093c0.26,0,0.463,0.03,0.607,0.089
	c0.145,0.06,0.259,0.15,0.342,0.273c0.082,0.123,0.124,0.261,0.124,0.413c0,0.162-0.048,0.317-0.143,0.465
	c-0.095,0.147-0.268,0.31-0.519,0.487c-0.148,0.102-0.248,0.174-0.299,0.215c-0.05,0.042-0.109,0.096-0.177,0.162h1.155V18.821z
	 M783.127,18.423c-0.081,0.142-0.197,0.251-0.35,0.328c-0.153,0.076-0.354,0.115-0.602,0.115c-0.242,0-0.434-0.028-0.573-0.086
	c-0.14-0.057-0.255-0.14-0.345-0.249c-0.09-0.11-0.16-0.247-0.208-0.413l0.739-0.098c0.029,0.148,0.074,0.252,0.135,0.309
	c0.062,0.059,0.139,0.087,0.233,0.087c0.1,0,0.183-0.036,0.248-0.108c0.065-0.073,0.099-0.17,0.099-0.291
	c0-0.123-0.031-0.219-0.096-0.287c-0.062-0.068-0.148-0.102-0.258-0.102c-0.059,0-0.139,0.014-0.24,0.043l0.039-0.527
	c0.041,0.006,0.072,0.008,0.096,0.008c0.097,0,0.178-0.03,0.242-0.092c0.064-0.062,0.098-0.135,0.098-0.22
	c0-0.081-0.024-0.146-0.072-0.194c-0.049-0.049-0.115-0.072-0.201-0.072c-0.086,0-0.157,0.025-0.212,0.078
	c-0.054,0.053-0.091,0.146-0.11,0.277l-0.699-0.125c0.059-0.223,0.17-0.394,0.335-0.513c0.165-0.118,0.399-0.178,0.702-0.178
	c0.348,0,0.598,0.065,0.754,0.194c0.154,0.129,0.232,0.293,0.232,0.488c0,0.115-0.032,0.219-0.096,0.312
	c-0.062,0.094-0.157,0.175-0.285,0.245c0.104,0.025,0.182,0.056,0.236,0.089c0.089,0.055,0.158,0.127,0.207,0.215
	c0.049,0.09,0.073,0.195,0.073,0.319C783.249,18.132,783.208,18.28,783.127,18.423z"/>
<g>
	<polygon fill="#47434B" points="799.853,18.325 799.853,17.487 799.141,18.325 	"/>
	<path fill="#47434B" d="M798.429,15.03l-3.458,1.75v5h6.917v-5L798.429,15.03z M798.266,19.397h-2.22
		c0.025-0.22,0.104-0.426,0.232-0.619c0.129-0.193,0.37-0.421,0.725-0.684c0.217-0.16,0.355-0.283,0.416-0.367
		c0.06-0.083,0.091-0.162,0.091-0.237c0-0.081-0.03-0.15-0.09-0.208c-0.06-0.058-0.136-0.086-0.226-0.086
		c-0.095,0-0.172,0.029-0.232,0.089c-0.06,0.059-0.1,0.164-0.12,0.313l-0.741-0.059c0.029-0.208,0.082-0.37,0.16-0.487
		c0.077-0.117,0.187-0.207,0.328-0.27c0.141-0.062,0.336-0.093,0.585-0.093c0.261,0,0.463,0.03,0.607,0.089
		c0.146,0.06,0.259,0.15,0.342,0.274c0.083,0.123,0.124,0.261,0.124,0.413c0,0.162-0.047,0.317-0.143,0.465
		c-0.095,0.147-0.268,0.31-0.518,0.487c-0.149,0.102-0.249,0.174-0.299,0.215c-0.051,0.042-0.109,0.096-0.178,0.162h1.155V19.397z
		 M800.832,18.899h-0.334v0.498h-0.645v-0.498h-1.348v-0.608l1.348-1.602h0.645v1.636h0.334V18.899z"/>
</g>
<g>
	<circle fill="#AEB7B4" stroke="#858D8B" stroke-width="0.5164" stroke-miterlimit="10" cx="47.879" cy="52.713" r="17.034"/>
	<circle fill="#AEB7B4" stroke="#858D8B" stroke-width="0.3794" stroke-miterlimit="10" cx="47.879" cy="52.713" r="12.515"/>
	<g>
		<circle fill="#BFC0C0" cx="47.879" cy="52.713" r="11.795"/>
		<circle fill="#C4C5C5" cx="47.879" cy="52.713" r="11.518"/>
		<circle fill="#C9C9CA" cx="47.879" cy="52.713" r="11.241"/>
		<circle fill="#CECECF" cx="47.879" cy="52.713" r="10.963"/>
		<circle fill="#D2D3D3" cx="47.879" cy="52.713" r="10.686"/>
		<circle fill="#D7D8D8" cx="47.879" cy="52.713" r="10.408"/>
		<circle fill="#DCDCDD" cx="47.879" cy="52.713" r="10.131"/>
		<circle fill="#E0E1E1" cx="47.879" cy="52.713" r="9.853"/>
		<circle fill="#E5E5E6" cx="47.879" cy="52.713" r="9.576"/>
		<circle fill="#E9EAEA" cx="47.879" cy="52.713" r="9.299"/>
	</g>
	<g>
		<polygon fill="#615F5F" points="46.33,59.812 46.33,54.261 40.778,54.261 40.778,51.162 46.33,51.162 46.33,45.61 49.428,45.61 
			49.428,51.162 54.979,51.162 54.979,54.261 49.428,54.261 49.428,59.812 		"/>
		<path d="M49.169,45.868v5.035v0.518h0.517h5.035v2.581h-5.035h-0.517v0.517v5.035h-2.581v-5.035v-0.517h-0.517h-5.035v-2.581
			h5.035h0.517v-0.518v-5.035H49.169 M49.686,45.353h-3.614v5.551H40.52v3.615h5.552v5.552h3.614v-5.552h5.552v-3.615h-5.552V45.353
			L49.686,45.353z"/>
	</g>
</g>
<g>
	<path d="M956.087,112.511v0.672h-3.761c-0.005-0.168,0.022-0.33,0.082-0.485c0.096-0.256,0.249-0.508,0.46-0.757
		c0.211-0.248,0.516-0.535,0.914-0.861c0.618-0.507,1.036-0.909,1.253-1.205c0.218-0.296,0.326-0.576,0.326-0.84
		c0-0.277-0.099-0.511-0.297-0.701c-0.197-0.19-0.456-0.285-0.774-0.285c-0.336,0-0.605,0.101-0.807,0.303
		c-0.202,0.202-0.305,0.481-0.307,0.839l-0.718-0.074c0.049-0.535,0.233-0.943,0.555-1.225c0.32-0.28,0.751-0.421,1.292-0.421
		c0.546,0,0.978,0.151,1.297,0.454c0.318,0.303,0.477,0.678,0.477,1.125c0,0.229-0.046,0.452-0.14,0.672
		c-0.093,0.22-0.247,0.451-0.464,0.694c-0.216,0.243-0.574,0.577-1.076,1.002c-0.42,0.352-0.688,0.59-0.808,0.716
		c-0.119,0.126-0.218,0.252-0.295,0.378H956.087z"/>
	<path d="M956.883,108.238v-0.672h3.684v0.544c-0.362,0.386-0.722,0.897-1.077,1.536c-0.356,0.64-0.631,1.297-0.824,1.972
		c-0.14,0.477-0.229,0.998-0.269,1.564h-0.718c0.008-0.447,0.096-0.988,0.264-1.622c0.169-0.634,0.41-1.245,0.725-1.834
		c0.315-0.589,0.648-1.085,1.003-1.488H956.883z"/>
</g>
<g>
	<path d="M1007.405,112.511v0.672h-3.761c-0.005-0.168,0.022-0.33,0.082-0.485c0.096-0.256,0.249-0.508,0.46-0.757
		c0.211-0.248,0.516-0.535,0.914-0.861c0.618-0.507,1.036-0.909,1.253-1.205c0.218-0.296,0.326-0.576,0.326-0.84
		c0-0.277-0.099-0.511-0.297-0.701c-0.197-0.19-0.456-0.285-0.774-0.285c-0.336,0-0.605,0.101-0.807,0.303
		c-0.202,0.202-0.305,0.481-0.307,0.839l-0.718-0.074c0.049-0.535,0.233-0.943,0.555-1.225c0.32-0.28,0.751-0.421,1.292-0.421
		c0.546,0,0.979,0.151,1.297,0.454c0.318,0.303,0.477,0.678,0.477,1.125c0,0.229-0.046,0.452-0.14,0.672
		c-0.093,0.22-0.247,0.451-0.464,0.694c-0.216,0.243-0.574,0.577-1.076,1.002c-0.42,0.352-0.688,0.59-0.808,0.716
		c-0.119,0.126-0.218,0.252-0.295,0.378H1007.405z"/>
	<path d="M1009.23,110.098c-0.29-0.106-0.505-0.258-0.644-0.454c-0.14-0.197-0.21-0.433-0.21-0.707c0-0.414,0.149-0.762,0.446-1.044
		c0.298-0.282,0.693-0.423,1.188-0.423c0.497,0,0.898,0.145,1.2,0.433c0.302,0.289,0.453,0.64,0.453,1.054
		c0,0.264-0.068,0.493-0.207,0.689c-0.139,0.195-0.349,0.346-0.631,0.452c0.35,0.113,0.615,0.297,0.798,0.551
		c0.183,0.254,0.273,0.557,0.273,0.908c0,0.486-0.172,0.896-0.517,1.227c-0.344,0.331-0.797,0.496-1.358,0.496
		c-0.562,0-1.014-0.166-1.358-0.498c-0.344-0.333-0.516-0.747-0.516-1.244c0-0.37,0.094-0.68,0.281-0.93
		S1008.883,110.188,1009.23,110.098z M1008.865,111.541c0,0.199,0.047,0.392,0.142,0.578c0.095,0.187,0.235,0.331,0.421,0.433
		c0.186,0.102,0.387,0.153,0.602,0.153c0.334,0,0.609-0.107,0.827-0.322c0.217-0.215,0.326-0.487,0.326-0.818
		c0-0.337-0.112-0.614-0.336-0.835c-0.224-0.22-0.504-0.33-0.84-0.33c-0.329,0-0.602,0.109-0.817,0.326
		C1008.973,110.943,1008.865,111.215,1008.865,111.541z M1009.09,108.913c0,0.27,0.086,0.489,0.26,0.66
		c0.173,0.171,0.398,0.256,0.675,0.256c0.27,0,0.49-0.084,0.662-0.254c0.172-0.17,0.258-0.377,0.258-0.623
		c0-0.256-0.089-0.472-0.266-0.646c-0.177-0.174-0.397-0.262-0.662-0.262c-0.266,0-0.487,0.086-0.663,0.256
		C1009.178,108.471,1009.09,108.676,1009.09,108.913z"/>
</g>
<rect x="1039.652" y="28.971" fill="#C9CACA" stroke="#000000" stroke-width="2" stroke-miterlimit="10" width="47.5" height="74.892"/>
</svg>
