<?xml version="1.0" encoding="utf-8"?>
<!-- Generator: Adobe Illustrator 16.0.0, SVG Export Plug-In . SVG Version: 6.00 Build 0)  -->
<!DOCTYPE svg PUBLIC "-//W3C//DTD SVG 1.1//EN" "http://www.w3.org/Graphics/SVG/1.1/DTD/svg11.dtd">
<svg version="1.1" id="图层_1" xmlns="http://www.w3.org/2000/svg" xmlns:xlink="http://www.w3.org/1999/xlink" x="0px" y="0px"
	 width="1275.59px" height="126.14px" viewBox="0 0 1275.59 126.14" enable-background="new 0 0 1275.59 126.14"
	 xml:space="preserve">
<rect y="0" fill="#272828" width="1275.591" height="126.141"/>
<rect x="46.408" y="5.968" fill="#DDDDDD" width="1222.5" height="114.204"/>
<rect x="51.746" y="27.074" fill="#0A090A" width="241.267" height="77.322"/>
<path fill="#E5E5E4" d="M292.312,102.424c0,0.563-0.449,1.018-1.004,1.018H53.451c-0.554,0-1.004-0.455-1.004-1.018V29.209
	c0-0.563,0.45-1.018,1.004-1.018h237.856c0.555,0,1.004,0.455,1.004,1.018V102.424z"/>
<rect x="51.746" y="17.164" fill="#DDDDDD" width="241.267" height="9.911"/>
<path fill="#C3E1E5" d="M293.149,17.164V9.771c0-1.41-1.343-2.554-3-2.554H54.746c-1.656,0-3,1.144-3,2.554v7.393H293.149z"/>
<path fill="none" stroke="#626363" stroke-miterlimit="10" d="M290.149,7.235H54.746c-1.656,0-3,1.144-3,2.554v7.393v9.911h241.403
	v-9.911V9.789C293.149,8.378,291.807,7.235,290.149,7.235z"/>
<polygon fill="#666666" stroke="#272828" stroke-width="0.5" stroke-miterlimit="10" points="65.738,23.523 63.299,19.299 
	60.859,23.523 "/>
<polygon fill="#666666" stroke="#272828" stroke-width="0.5" stroke-miterlimit="10" points="81.152,19.299 83.592,23.523 
	86.031,19.299 "/>
<text transform="matrix(1 0 0 1 60.8589 15.2617)" font-family="'MicrosoftYaHeiLight'" font-size="8">1</text>
<text transform="matrix(1 0 0 1 81.1479 15.2617)" font-family="'MicrosoftYaHeiLight'" font-size="8">2</text>
<polygon fill="#666666" stroke="#272828" stroke-width="0.5" stroke-miterlimit="10" points="104.842,23.523 102.402,19.299 
	99.963,23.523 "/>
<polygon fill="#666666" stroke="#272828" stroke-width="0.5" stroke-miterlimit="10" points="120.256,19.299 122.695,23.523 
	125.135,19.299 "/>
<text transform="matrix(1 0 0 1 99.9624 15.2617)" font-family="'MicrosoftYaHeiLight'" font-size="8">3</text>
<text transform="matrix(1 0 0 1 120.2515 15.2617)" font-family="'MicrosoftYaHeiLight'" font-size="8">4</text>
<polygon fill="#666666" stroke="#272828" stroke-width="0.5" stroke-miterlimit="10" points="143.945,23.523 141.506,19.299 
	139.066,23.523 "/>
<polygon fill="#666666" stroke="#272828" stroke-width="0.5" stroke-miterlimit="10" points="159.359,19.299 161.799,23.523 
	164.238,19.299 "/>
<text transform="matrix(1 0 0 1 139.0659 15.2617)" font-family="'MicrosoftYaHeiLight'" font-size="8">5</text>
<text transform="matrix(1 0 0 1 159.355 15.2617)" font-family="'MicrosoftYaHeiLight'" font-size="8">6</text>
<polygon fill="#666666" stroke="#272828" stroke-width="0.5" stroke-miterlimit="10" points="185.65,23.43 183.211,19.205 
	180.771,23.43 "/>
<polygon fill="#666666" stroke="#272828" stroke-width="0.5" stroke-miterlimit="10" points="201.064,19.205 203.504,23.43 
	205.943,19.205 "/>
<text transform="matrix(1 0 0 1 180.771 15.168)" font-family="'MicrosoftYaHeiLight'" font-size="8">7</text>
<text transform="matrix(1 0 0 1 201.0601 15.168)" font-family="'MicrosoftYaHeiLight'" font-size="8">8</text>
<polygon fill="#666666" stroke="#272828" stroke-width="0.5" stroke-miterlimit="10" points="224.754,23.43 222.314,19.205 
	219.875,23.43 "/>
<polygon fill="#666666" stroke="#272828" stroke-width="0.5" stroke-miterlimit="10" points="240.168,19.205 242.607,23.43 
	245.047,19.205 "/>
<text transform="matrix(1 0 0 1 219.8745 15.168)" font-family="'MicrosoftYaHeiLight'" font-size="8">9</text>
<text transform="matrix(1 0 0 1 240.1636 15.168)" font-family="'MicrosoftYaHeiLight'" font-size="8">10</text>
<polygon fill="#666666" stroke="#272828" stroke-width="0.5" stroke-miterlimit="10" points="263.857,23.43 261.418,19.205 
	258.979,23.43 "/>
<polygon fill="#666666" stroke="#272828" stroke-width="0.5" stroke-miterlimit="10" points="279.271,19.205 281.711,23.43 
	284.15,19.205 "/>
<text transform="matrix(1 0 0 1 258.978 15.168)" font-family="'MicrosoftYaHeiLight'" font-size="8">11</text>
<text transform="matrix(1 0 0 1 279.2671 15.168)" font-family="'MicrosoftYaHeiLight'" font-size="8">12</text>
<rect x="307.601" y="27.074" fill="#0A090A" width="241.267" height="77.322"/>
<path fill="#E5E5E4" d="M548.166,102.424c0,0.563-0.449,1.018-1.004,1.018H309.306c-0.554,0-1.004-0.455-1.004-1.018V29.209
	c0-0.563,0.45-1.018,1.004-1.018h237.856c0.555,0,1.004,0.455,1.004,1.018V102.424z"/>
<rect x="307.601" y="17.164" fill="#DDDDDD" width="241.267" height="9.911"/>
<path fill="#C3E1E5" d="M549.004,17.164V9.771c0-1.41-1.343-2.554-3-2.554H310.601c-1.656,0-3,1.144-3,2.554v7.393H549.004z"/>
<path fill="none" stroke="#626363" stroke-miterlimit="10" d="M546.004,7.235H310.601c-1.656,0-3,1.144-3,2.554v7.393v9.911h241.403
	v-9.911V9.789C549.004,8.378,547.661,7.235,546.004,7.235z"/>
<polygon fill="#666666" stroke="#272828" stroke-width="0.5" stroke-miterlimit="10" points="321.593,23.523 319.153,19.299 
	316.714,23.523 "/>
<polygon fill="#666666" stroke="#272828" stroke-width="0.5" stroke-miterlimit="10" points="337.007,19.299 339.446,23.523 
	341.886,19.299 "/>
<text transform="matrix(1 0 0 1 316.7134 15.2617)" font-family="'MicrosoftYaHeiLight'" font-size="8">13</text>
<text transform="matrix(1 0 0 1 337.0024 15.2617)" font-family="'MicrosoftYaHeiLight'" font-size="8">14</text>
<polygon fill="#666666" stroke="#272828" stroke-width="0.5" stroke-miterlimit="10" points="360.696,23.523 358.257,19.299 
	355.817,23.523 "/>
<polygon fill="#666666" stroke="#272828" stroke-width="0.5" stroke-miterlimit="10" points="376.11,19.299 378.55,23.523 
	380.989,19.299 "/>
<text transform="matrix(1 0 0 1 355.8169 15.2617)" font-family="'MicrosoftYaHeiLight'" font-size="8">15</text>
<text transform="matrix(1 0 0 1 376.106 15.2617)" font-family="'MicrosoftYaHeiLight'" font-size="8">16</text>
<polygon fill="#666666" stroke="#272828" stroke-width="0.5" stroke-miterlimit="10" points="399.8,23.523 397.36,19.299 
	394.921,23.523 "/>
<polygon fill="#666666" stroke="#272828" stroke-width="0.5" stroke-miterlimit="10" points="415.214,19.299 417.653,23.523 
	420.093,19.299 "/>
<text transform="matrix(1 0 0 1 394.9204 15.2617)" font-family="'MicrosoftYaHeiLight'" font-size="8">17</text>
<text transform="matrix(1 0 0 1 415.2095 15.2617)" font-family="'MicrosoftYaHeiLight'" font-size="8">18</text>
<polygon fill="#666666" stroke="#272828" stroke-width="0.5" stroke-miterlimit="10" points="441.505,23.43 439.065,19.205 
	436.626,23.43 "/>
<polygon fill="#666666" stroke="#272828" stroke-width="0.5" stroke-miterlimit="10" points="456.919,19.205 459.358,23.43 
	461.798,19.205 "/>
<text transform="matrix(1 0 0 1 436.6255 15.168)" font-family="'MicrosoftYaHeiLight'" font-size="8">19</text>
<text transform="matrix(1 0 0 1 456.9146 15.168)" font-family="'MicrosoftYaHeiLight'" font-size="8">20</text>
<polygon fill="#666666" stroke="#272828" stroke-width="0.5" stroke-miterlimit="10" points="480.608,23.43 478.169,19.205 
	475.729,23.43 "/>
<polygon fill="#666666" stroke="#272828" stroke-width="0.5" stroke-miterlimit="10" points="496.022,19.205 498.462,23.43 
	500.901,19.205 "/>
<text transform="matrix(1 0 0 1 475.729 15.168)" font-family="'MicrosoftYaHeiLight'" font-size="8">21</text>
<text transform="matrix(1 0 0 1 496.0181 15.168)" font-family="'MicrosoftYaHeiLight'" font-size="8">22</text>
<polygon fill="#666666" stroke="#272828" stroke-width="0.5" stroke-miterlimit="10" points="519.712,23.43 517.272,19.205 
	514.833,23.43 "/>
<polygon fill="#666666" stroke="#272828" stroke-width="0.5" stroke-miterlimit="10" points="535.126,19.205 537.565,23.43 
	540.005,19.205 "/>
<text transform="matrix(1 0 0 1 514.8325 15.168)" font-family="'MicrosoftYaHeiLight'" font-size="8">23</text>
<text transform="matrix(1 0 0 1 535.1216 15.168)" font-family="'MicrosoftYaHeiLight'" font-size="8">24</text>
<rect x="563.455" y="27.074" fill="#0A090A" width="241.267" height="77.322"/>
<path fill="#E5E5E4" d="M804.021,102.424c0,0.563-0.449,1.018-1.004,1.018H565.16c-0.554,0-1.004-0.455-1.004-1.018V29.209
	c0-0.563,0.45-1.018,1.004-1.018h237.856c0.555,0,1.004,0.455,1.004,1.018V102.424z"/>
<rect x="563.455" y="17.164" fill="#DDDDDD" width="241.267" height="9.911"/>
<path fill="#C3E1E5" d="M804.858,17.164V9.771c0-1.41-1.343-2.554-3-2.554H566.455c-1.656,0-3,1.144-3,2.554v7.393H804.858z"/>
<path fill="none" stroke="#626363" stroke-miterlimit="10" d="M801.858,7.235H566.455c-1.656,0-3,1.144-3,2.554v7.393v9.911h241.403
	v-9.911V9.789C804.858,8.378,803.516,7.235,801.858,7.235z"/>
<polygon fill="#666666" stroke="#272828" stroke-width="0.5" stroke-miterlimit="10" points="577.447,23.523 575.008,19.299 
	572.568,23.523 "/>
<polygon fill="#666666" stroke="#272828" stroke-width="0.5" stroke-miterlimit="10" points="592.861,19.299 595.301,23.523 
	597.74,19.299 "/>
<text transform="matrix(1 0 0 1 572.5679 15.2617)" font-family="'MicrosoftYaHeiLight'" font-size="8">25</text>
<text transform="matrix(1 0 0 1 592.8569 15.2617)" font-family="'MicrosoftYaHeiLight'" font-size="8">26</text>
<polygon fill="#666666" stroke="#272828" stroke-width="0.5" stroke-miterlimit="10" points="616.551,23.523 614.111,19.299 
	611.672,23.523 "/>
<polygon fill="#666666" stroke="#272828" stroke-width="0.5" stroke-miterlimit="10" points="631.965,19.299 634.404,23.523 
	636.844,19.299 "/>
<text transform="matrix(1 0 0 1 611.6714 15.2617)" font-family="'MicrosoftYaHeiLight'" font-size="8">27</text>
<text transform="matrix(1 0 0 1 631.9604 15.2617)" font-family="'MicrosoftYaHeiLight'" font-size="8">28</text>
<polygon fill="#666666" stroke="#272828" stroke-width="0.5" stroke-miterlimit="10" points="655.654,23.523 653.215,19.299 
	650.775,23.523 "/>
<polygon fill="#666666" stroke="#272828" stroke-width="0.5" stroke-miterlimit="10" points="671.068,19.299 673.508,23.523 
	675.947,19.299 "/>
<text transform="matrix(1 0 0 1 650.7754 15.2617)" font-family="'MicrosoftYaHeiLight'" font-size="8">29</text>
<text transform="matrix(1 0 0 1 671.0645 15.2617)" font-family="'MicrosoftYaHeiLight'" font-size="8">30</text>
<polygon fill="#666666" stroke="#272828" stroke-width="0.5" stroke-miterlimit="10" points="697.359,23.43 694.92,19.205 
	692.48,23.43 "/>
<polygon fill="#666666" stroke="#272828" stroke-width="0.5" stroke-miterlimit="10" points="712.773,19.205 715.213,23.43 
	717.652,19.205 "/>
<text transform="matrix(1 0 0 1 692.4805 15.168)" font-family="'MicrosoftYaHeiLight'" font-size="8">31</text>
<text transform="matrix(1 0 0 1 712.7695 15.168)" font-family="'MicrosoftYaHeiLight'" font-size="8">32</text>
<polygon fill="#666666" stroke="#272828" stroke-width="0.5" stroke-miterlimit="10" points="736.463,23.43 734.023,19.205 
	731.584,23.43 "/>
<polygon fill="#666666" stroke="#272828" stroke-width="0.5" stroke-miterlimit="10" points="751.877,19.205 754.316,23.43 
	756.756,19.205 "/>
<text transform="matrix(1 0 0 1 731.584 15.168)" font-family="'MicrosoftYaHeiLight'" font-size="8">33</text>
<text transform="matrix(1 0 0 1 751.873 15.168)" font-family="'MicrosoftYaHeiLight'" font-size="8">34</text>
<polygon fill="#666666" stroke="#272828" stroke-width="0.5" stroke-miterlimit="10" points="775.566,23.43 773.127,19.205 
	770.688,23.43 "/>
<polygon fill="#666666" stroke="#272828" stroke-width="0.5" stroke-miterlimit="10" points="790.98,19.205 793.42,23.43 
	795.859,19.205 "/>
<text transform="matrix(1 0 0 1 770.6875 15.168)" font-family="'MicrosoftYaHeiLight'" font-size="8">35</text>
<text transform="matrix(1 0 0 1 790.9766 15.168)" font-family="'MicrosoftYaHeiLight'" font-size="8">36</text>
<rect x="819.31" y="27.074" fill="#0A090A" width="241.267" height="77.322"/>
<path fill="#E5E5E4" d="M1059.875,102.424c0,0.563-0.449,1.018-1.004,1.018H821.015c-0.554,0-1.004-0.455-1.004-1.018V29.209
	c0-0.563,0.45-1.018,1.004-1.018h237.856c0.555,0,1.004,0.455,1.004,1.018V102.424z"/>
<rect x="819.31" y="17.164" fill="#DDDDDD" width="241.267" height="9.911"/>
<path fill="#C3E1E5" d="M1060.713,17.164V9.771c0-1.41-1.343-2.554-3-2.554H822.31c-1.656,0-3,1.144-3,2.554v7.393H1060.713z"/>
<path fill="none" stroke="#626363" stroke-miterlimit="10" d="M1057.713,7.235H822.31c-1.656,0-3,1.144-3,2.554v7.393v9.911h241.403
	v-9.911V9.789C1060.713,8.378,1059.37,7.235,1057.713,7.235z"/>
<polygon fill="#666666" stroke="#272828" stroke-width="0.5" stroke-miterlimit="10" points="833.302,23.523 830.862,19.299 
	828.423,23.523 "/>
<polygon fill="#666666" stroke="#272828" stroke-width="0.5" stroke-miterlimit="10" points="848.716,19.299 851.155,23.523 
	853.595,19.299 "/>
<text transform="matrix(1 0 0 1 828.4219 15.2617)" font-family="'MicrosoftYaHeiLight'" font-size="8">37</text>
<text transform="matrix(1 0 0 1 848.7109 15.2617)" font-family="'MicrosoftYaHeiLight'" font-size="8">38</text>
<polygon fill="#666666" stroke="#272828" stroke-width="0.5" stroke-miterlimit="10" points="872.405,23.523 869.966,19.299 
	867.526,23.523 "/>
<polygon fill="#666666" stroke="#272828" stroke-width="0.5" stroke-miterlimit="10" points="887.819,19.299 890.259,23.523 
	892.698,19.299 "/>
<text transform="matrix(1 0 0 1 867.5254 15.2617)" font-family="'MicrosoftYaHeiLight'" font-size="8">39</text>
<text transform="matrix(1 0 0 1 887.8145 15.2617)" font-family="'MicrosoftYaHeiLight'" font-size="8">40</text>
<polygon fill="#666666" stroke="#272828" stroke-width="0.5" stroke-miterlimit="10" points="911.509,23.523 909.069,19.299 
	906.63,23.523 "/>
<polygon fill="#666666" stroke="#272828" stroke-width="0.5" stroke-miterlimit="10" points="926.923,19.299 929.362,23.523 
	931.802,19.299 "/>
<text transform="matrix(1 0 0 1 906.6289 15.2617)" font-family="'MicrosoftYaHeiLight'" font-size="8">41</text>
<text transform="matrix(1 0 0 1 926.918 15.2617)" font-family="'MicrosoftYaHeiLight'" font-size="8">42</text>
<polygon fill="#666666" stroke="#272828" stroke-width="0.5" stroke-miterlimit="10" points="953.214,23.43 950.774,19.205 
	948.335,23.43 "/>
<polygon fill="#666666" stroke="#272828" stroke-width="0.5" stroke-miterlimit="10" points="968.628,19.205 971.067,23.43 
	973.507,19.205 "/>
<text transform="matrix(1 0 0 1 948.334 15.168)" font-family="'MicrosoftYaHeiLight'" font-size="8">43</text>
<text transform="matrix(1 0 0 1 968.623 15.168)" font-family="'MicrosoftYaHeiLight'" font-size="8">44</text>
<polygon fill="#666666" stroke="#272828" stroke-width="0.5" stroke-miterlimit="10" points="992.317,23.43 989.878,19.205 
	987.438,23.43 "/>
<polygon fill="#666666" stroke="#272828" stroke-width="0.5" stroke-miterlimit="10" points="1007.731,19.205 1010.171,23.43 
	1012.61,19.205 "/>
<text transform="matrix(1 0 0 1 987.4375 15.168)" font-family="'MicrosoftYaHeiLight'" font-size="8">45</text>
<text transform="matrix(1 0 0 1 1007.7266 15.168)" font-family="'MicrosoftYaHeiLight'" font-size="8">46</text>
<polygon fill="#666666" stroke="#272828" stroke-width="0.5" stroke-miterlimit="10" points="1031.421,23.43 1028.981,19.205 
	1026.542,23.43 "/>
<polygon fill="#666666" stroke="#272828" stroke-width="0.5" stroke-miterlimit="10" points="1102.436,65.736 1104.875,69.961 
	1107.314,65.736 "/>
<polygon fill="#666666" stroke="#272828" stroke-width="0.5" stroke-miterlimit="10" points="1151.071,27.273 1153.511,31.498 
	1155.95,27.273 "/>
<polygon fill="#666666" stroke="#272828" stroke-width="0.5" stroke-miterlimit="10" points="1162.902,23.758 1167.127,21.318 
	1162.902,18.879 "/>
<polygon fill="#666666" stroke="#272828" stroke-width="0.5" stroke-miterlimit="10" points="1126.125,69.961 1123.686,65.736 
	1121.246,69.961 "/>
<polygon fill="#666666" stroke="#272828" stroke-width="0.5" stroke-miterlimit="10" points="1192.712,65.736 1195.151,69.961 
	1197.591,65.736 "/>
<polygon fill="#666666" stroke="#272828" stroke-width="0.5" stroke-miterlimit="10" points="1216.401,69.961 1213.962,65.736 
	1211.522,69.961 "/>
<polygon fill="#666666" stroke="#272828" stroke-width="0.5" stroke-miterlimit="10" points="1046.835,19.205 1049.274,23.43 
	1051.714,19.205 "/>
<text transform="matrix(1 0 0 1 1026.541 15.168)" font-family="'MicrosoftYaHeiLight'" font-size="8">47</text>
<text transform="matrix(1 0 0 1 1046.8301 15.168)" font-family="'MicrosoftYaHeiLight'" font-size="8">48</text>
<rect x="1069.329" y="72.799" width="181.746" height="32.98"/>
<rect x="1070.262" y="74.021" fill="#DDDDDD" width="179.624" height="30.721"/>
<path fill="#EDC3CF" stroke="#7C7B7C" stroke-miterlimit="10" d="M1217.977,45.59c0,2.762-2.238,5-5,5h-37.463c-2.762,0-5-2.238-5-5
	V12.235c0-2.762,2.238-5,5-5h37.463c2.762,0,5,2.238,5,5V45.59z"/>
<path fill="#EDEDED" d="M1213.05,42.129c0,2.188-1.773,3.961-3.962,3.961h-29.686c-2.188,0-3.963-1.773-3.963-3.961V15.697
	c0-2.188,1.774-3.962,3.963-3.962h29.686c2.188,0,3.962,1.773,3.962,3.962V42.129z"/>
<path fill="#EDC3CF" stroke="#7C7B7C" stroke-miterlimit="10" d="M1130.808,45.59c0,2.762-2.238,5-5,5h-37.463c-2.762,0-5-2.238-5-5
	V12.235c0-2.762,2.238-5,5-5h37.463c2.762,0,5,2.238,5,5V45.59z"/>
<path fill="#EDEDED" d="M1125.881,42.129c0,2.188-1.773,3.961-3.962,3.961h-29.686c-2.188,0-3.963-1.773-3.963-3.961V15.697
	c0-2.188,1.774-3.962,3.963-3.962h29.686c2.188,0,3.962,1.773,3.962,3.962V42.129z"/>
<path fill="#EDC3CF" stroke="#707070" stroke-miterlimit="10" d="M1161.674,58.643h-15.582c-0.514,0-1-0.217-1.348-0.592l-2.65-2.9
	c-0.306-0.34-0.478-0.777-0.478-1.234v-9.547c0-1.01,0.816-1.83,1.827-1.83h20.879c1.01,0,1.829,0.82,1.829,1.83v9.547
	c0,0.457-0.172,0.895-0.479,1.234l-2.646,2.9C1162.676,58.426,1162.188,58.643,1161.674,58.643z"/>
<path fill="#E5DB43" stroke="#7C7B7C" stroke-miterlimit="10" d="M1069.329,105.779v7.393c0,1.41,1.343,2.553,3,2.553h175.707
	c1.656,0,3-1.143,3-2.553v-7.393H1069.329z"/>
<text transform="matrix(1 0 0 1 1081.7715 114.2041)" font-family="'MicrosoftYaHeiLight'" font-size="8">1</text>
<text transform="matrix(1 0 0 1 1102.0605 114.2041)" font-family="'MicrosoftYaHeiLight'" font-size="8">2</text>
<text transform="matrix(1 0 0 1 1124.875 114.2041)" font-family="'MicrosoftYaHeiLight'" font-size="8">3</text>
<text transform="matrix(1 0 0 1 1145.1641 114.2041)" font-family="'MicrosoftYaHeiLight'" font-size="8">4</text>
<text transform="matrix(1 0 0 1 1168.9902 114.2041)" font-family="'MicrosoftYaHeiLight'" font-size="8">5</text>
<text transform="matrix(1 0 0 1 1189.2793 114.2041)" font-family="'MicrosoftYaHeiLight'" font-size="8">6</text>
<text transform="matrix(1 0 0 1 1214.1582 114.2041)" font-family="'MicrosoftYaHeiLight'" font-size="8">7</text>
<text transform="matrix(1 0 0 1 1234.4473 114.2041)" font-family="'MicrosoftYaHeiLight'" font-size="8">8</text>
</svg>
