<?xml version="1.0" encoding="utf-8"?>
<!-- Generator: Adobe Illustrator 16.0.0, SVG Export Plug-In . SVG Version: 6.00 Build 0)  -->
<!DOCTYPE svg PUBLIC "-//W3C//DTD SVG 1.1//EN" "http://www.w3.org/Graphics/SVG/1.1/DTD/svg11.dtd">
<svg version="1.1" id="图层_1" xmlns="http://www.w3.org/2000/svg" xmlns:xlink="http://www.w3.org/1999/xlink" x="0px" y="0px"
	 width="39.95px" height="38.9px" viewBox="0 0 39.95 38.9" enable-background="new 0 0 39.95 38.9" xml:space="preserve">
<g>
	<polygon fill="#F4F4F4" points="1.577,35.031 4.817,35.031 4.817,32.441 6.272,32.441 6.272,38.83 4.817,38.83 4.817,36.162 
		1.577,36.162 1.577,38.83 0.122,38.83 0.122,32.441 1.577,32.441 	"/>
	<path fill="#F4F4F4" d="M8.913,36.268c0,1.131,0.356,1.601,1.561,1.601c1.203,0,1.551-0.47,1.551-1.601v-3.826h1.455v3.861
		c0,0.818-0.098,1.379-0.405,1.717c-0.569,0.624-1.397,0.881-2.601,0.881c-1.204,0-2.043-0.257-2.611-0.881
		c-0.316-0.346-0.396-0.908-0.396-1.717v-3.861h1.446V36.268z"/>
	<path fill="#F4F4F4" d="M18.232,32.44l2.948,6.39h-1.617l-0.637-1.522H15.92l-0.617,1.522h-1.54l2.927-6.39H18.232z M16.391,36.17
		h2.063l-1.051-2.455L16.391,36.17z"/>
	<polygon fill="#F4F4F4" points="21.84,32.441 23.441,37.354 24.789,32.441 26.504,32.441 28.055,37.354 29.547,32.441 
		31.041,32.441 28.902,38.829 27.119,38.829 25.645,34.062 24.355,38.829 22.582,38.829 20.277,32.441 	"/>
	<path fill="#F4F4F4" d="M32.998,35.04h4.027v1.11H32.99c0.008,1.148,0.5,1.567,1.645,1.567h2.391v1.111H34.57
		c-0.84,0-1.484-0.063-2.158-0.561c-0.713-0.524-1.059-1.36-1.059-2.517c0-2.26,1.029-3.311,3.256-3.311h2.416v1.113h-2.391
		C33.586,33.555,33.057,34.034,32.998,35.04"/>
	<rect x="38.309" y="32.441" fill="#F4F4F4" width="1.52" height="6.388"/>
</g>
<g>
	<path fill="#F4F4F4" d="M17.198,23.487c0,0,0.071-0.057,0.035-0.148h0.002C12.538,13.08,6.116,5.309,6.116,5.309
		S2.624,8.62,2.871,11.943c0.136,2.512,2.022,4.002,2.022,4.002c3.049,2.968,10.426,6.72,12.141,7.569
		C17.06,23.523,17.147,23.554,17.198,23.487"/>
	<path fill="#F4F4F4" d="M16.055,26.025c-0.029-0.11-0.156-0.11-0.156-0.11v-0.002L3.617,26.342c1.333,2.37,3.575,4.217,5.911,3.653
		c1.617-0.406,5.271-2.954,6.473-3.814h-0.002C16.092,26.093,16.055,26.025,16.055,26.025"/>
	<path fill="#F4F4F4" d="M16.241,24.924c0.061-0.099-0.043-0.186-0.043-0.186v-0.003c-5.393-3.637-15.85-9.222-15.85-9.222
		c-0.947,2.941,0.33,5.311,0.33,5.311c1.331,2.817,3.878,3.671,3.878,3.671c1.173,0.482,2.351,0.517,2.351,0.517
		c0.18,0.032,7.303,0.003,9.211-0.007C16.198,25.005,16.241,24.924,16.241,24.924"/>
	<path fill="#F4F4F4" d="M17.058,0.001c-0.536,0.045-1.979,0.376-1.979,0.376c-3.248,0.839-4.02,3.791-4.02,3.791
		c-0.59,1.855,0.016,3.895,0.016,3.895c1.086,4.816,6.428,12.73,7.572,14.391c0.087,0.082,0.148,0.054,0.148,0.054
		c0.122-0.037,0.113-0.155,0.113-0.155l0.004,0.004C20.68,4.687,17.058,0.001,17.058,0.001"/>
	<path fill="#F4F4F4" d="M21.123,22.503c0.119,0.045,0.178-0.067,0.178-0.067h0.004c1.178-1.703,6.486-9.573,7.568-14.37
		c0,0,0.584-2.325,0.018-3.896c0,0-0.801-2.999-4.057-3.792c0,0-0.941-0.234-1.936-0.377c0,0-3.636,4.686-1.869,22.365
		C21.043,22.478,21.123,22.503,21.123,22.503"/>
	<path fill="#F4F4F4" d="M24.031,25.925c0,0-0.109,0.015-0.137,0.095c0,0-0.027,0.106,0.043,0.165
		c1.176,0.84,4.74,3.336,6.459,3.817c0,0,3.176,1.084,5.934-3.653L24.031,25.92V25.925z"/>
	<path fill="#F4F4F4" d="M39.598,15.49c0,0-10.441,5.599-15.842,9.241l0.006,0.001c0,0-0.096,0.064-0.063,0.179
		c0,0,0.051,0.094,0.127,0.094c1.932,0.003,9.246,0.014,9.43-0.024c0,0,0.947-0.036,2.117-0.485c0,0,2.602-0.825,3.953-3.782
		C39.326,20.713,40.529,18.302,39.598,15.49"/>
	<path fill="#F4F4F4" d="M22.773,23.487c0,0,0.084,0.063,0.166,0.01l0,0c1.76-0.872,9.082-4.599,12.113-7.552
		c0,0,1.92-1.544,2.021-4.019c0.221-3.437-3.242-6.618-3.242-6.618s-6.404,7.747-11.096,17.981h0.006
		C22.742,23.29,22.682,23.41,22.773,23.487"/>
</g>
</svg>
