<?xml version="1.0" encoding="utf-8"?>
<!-- Generator: Adobe Illustrator 16.0.0, SVG Export Plug-In . SVG Version: 6.00 Build 0)  -->
<!DOCTYPE svg PUBLIC "-//W3C//DTD SVG 1.1//EN" "http://www.w3.org/Graphics/SVG/1.1/DTD/svg11.dtd">
<svg version="1.1" id="图层_1" xmlns="http://www.w3.org/2000/svg" xmlns:xlink="http://www.w3.org/1999/xlink" x="0px" y="0px"
	 width="48.21px" height="16.58px" viewBox="0 0 48.21 16.58" enable-background="new 0 0 48.21 16.58" xml:space="preserve">
<g>
	<polygon fill="#0E0E0E" points="18.843,0.001 9.375,7.329 18.058,16.578 28.615,9.206 26.825,6.894 18.995,12.172 17.448,10.775 
		23.815,6.15 21.635,4.016 15.136,8.551 13.913,7.198 20.937,2.094 	"/>
	<polygon fill="#0E0E0E" points="26.849,1.006 26.849,16.578 36.794,16.578 36.794,12.128 31.167,12.128 31.167,1.006 	"/>
	<polygon fill="#0E0E0E" points="38.266,1.006 38.266,16.578 48.213,16.578 48.213,12.128 42.586,12.128 42.586,1.006 	"/>
	<path fill="#0E0E0E" d="M12.647,7.94c0,0-0.479-6.631-5.32-6.935h-7.33v15.572h7.634C7.631,16.578,13.346,15.575,12.647,7.94z
		 M6.353,12.978H4.076V4.865h2.276C10.33,8.724,6.353,12.978,6.353,12.978z"/>
</g>
</svg>
