<?xml version="1.0" encoding="utf-8"?>
<!-- Generator: Adobe Illustrator 16.0.0, SVG Export Plug-In . SVG Version: 6.00 Build 0)  -->
<!DOCTYPE svg PUBLIC "-//W3C//DTD SVG 1.1//EN" "http://www.w3.org/Graphics/SVG/1.1/DTD/svg11.dtd">
<svg version="1.1" id="图层_1" xmlns="http://www.w3.org/2000/svg" xmlns:xlink="http://www.w3.org/1999/xlink" x="0px" y="0px"
	 width="25.167px" height="14.753px" viewBox="0 0 25.167 14.753" enable-background="new 0 0 25.167 14.753" xml:space="preserve">
<image overflow="visible" width="1253" height="1703" xlink:href="E:\zzz2d\sw\机柜图标\监控\机柜前视图\1K1-05.jpg"  transform="matrix(1.5362 0 0 1.5362 -308.1987 -87.0298)">
</image>
<g>
	<path fill="#DDDDDD" d="M25.167,14.009c0,0.411-0.333,0.744-0.744,0.744H0.744C0.333,14.753,0,14.42,0,14.009V0.744
		C0,0.333,0.333,0,0.744,0h23.679c0.411,0,0.744,0.333,0.744,0.744V14.009z"/>
	<path fill="#111111" d="M12.583,1.2c-0.187,0-0.371,0.01-0.554,0.026l-1.132,3.197c-0.027,0.075,0.017,0.136,0.097,0.136l0.573,0
		c0.08,0,0.235,0.003,0.536,0.003c0.301,0,0.957,0.375,0.728,1.129c-0.229,0.754-1.479,4.189-1.479,4.189
		c-0.027,0.074-0.114,0.135-0.194,0.135H9.948c-0.08,0-0.124-0.062-0.097-0.136l1.405-3.953l0.151-0.429
		c0,0,0.031-0.184-0.171-0.184H10.74c-0.081,0-0.167,0.061-0.194,0.135L8.962,9.879c-0.027,0.075-0.114,0.135-0.194,0.135
		L7.61,10.014c-0.081,0-0.124-0.062-0.097-0.136l2.918-8.292c-2.35,0.874-4.024,3.136-4.024,5.791c0,2.894,1.991,5.322,4.677,5.993
		l1.367-3.922l1.665-4.774l0,0l0.048-0.136l2.372,0.001c0.714,0,1.454,0.38,1.07,1.416l-0.048,0.135c0,0,0,0-0.001,0l-0.436,1.223
		l-0.615,1.722c-0.204,0.58-0.383,0.984-1.454,0.984h-0.145c0,0-0.001,0-0.001,0l-0.525,0l-0.525,0
		c-0.081,0-0.167,0.061-0.193,0.135l-0.712,2.036l-0.477,1.363c0.036,0,0.072,0.003,0.108,0.003c3.411,0,6.177-2.765,6.177-6.177
		C18.76,3.965,15.994,1.2,12.583,1.2z M14.614,9.259h0.005c0.254,0,0.383-0.278,0.408-0.429s1.1-3.156,1.1-3.156
		c0.076-0.202-0.019-0.284-0.019-0.284c-0.06-0.052-0.174-0.095-0.254-0.095l-0.173,0h-0.174c-0.08,0-0.167,0.061-0.193,0.136
		l-1.291,3.692c-0.026,0.075,0.018,0.136,0.098,0.136L14.614,9.259z"/>
</g>
</svg>
