<?xml version="1.0" encoding="utf-8"?>
<!-- Generator: Adobe Illustrator 16.0.0, SVG Export Plug-In . SVG Version: 6.00 Build 0)  -->
<!DOCTYPE svg PUBLIC "-//W3C//DTD SVG 1.1//EN" "http://www.w3.org/Graphics/SVG/1.1/DTD/svg11.dtd">
<svg version="1.1" id="图层_1" xmlns="http://www.w3.org/2000/svg" xmlns:xlink="http://www.w3.org/1999/xlink" x="0px" y="0px"
	 width="30.21px" height="5.33px" viewBox="0 0 30.21 5.33" enable-background="new 0 0 30.21 5.33" xml:space="preserve">
<g>
	<polygon fill="#F4F4F4" points="1.105,2.184 3.571,2.184 3.571,0.045 4.677,0.045 4.677,5.323 3.571,5.323 3.571,3.119 
		1.105,3.119 1.105,5.323 -0.002,5.323 -0.002,0.045 1.105,0.045 	"/>
	<path fill="#F4F4F4" d="M6.687,3.206c0,0.934,0.272,1.321,1.188,1.321c0.916,0,1.18-0.387,1.18-1.321v-3.16h1.107v3.189
		c0,0.675-0.074,1.139-0.308,1.418C9.42,5.167,8.791,5.38,7.875,5.38c-0.915,0-1.555-0.213-1.986-0.727
		C5.646,4.366,5.587,3.902,5.587,3.235V0.045h1.1V3.206z"/>
	<path fill="#F4F4F4" d="M13.779,0.044l2.243,5.279h-1.231l-0.484-1.258h-2.287l-0.47,1.258h-1.171l2.227-5.279H13.779z
		 M12.378,3.124h1.57l-0.801-2.026L12.378,3.124z"/>
	<polygon fill="#F4F4F4" points="16.523,0.045 17.742,4.103 18.768,0.045 20.074,0.045 21.254,4.103 22.389,0.045 23.525,0.045 
		21.898,5.321 20.541,5.321 19.418,1.383 18.439,5.321 17.088,5.321 15.334,0.045 	"/>
	<path fill="#F4F4F4" d="M25.014,2.192h3.066v0.916h-3.072c0.006,0.95,0.381,1.295,1.252,1.295h1.82v0.918h-1.869
		c-0.639,0-1.129-0.053-1.643-0.463c-0.541-0.434-0.805-1.125-0.805-2.079c0-1.867,0.783-2.734,2.477-2.734h1.84v0.92h-1.82
		C25.461,0.965,25.059,1.36,25.014,2.192"/>
	<rect x="29.055" y="0.045" fill="#F4F4F4" width="1.158" height="5.276"/>
</g>
</svg>
