<?xml version="1.0" encoding="utf-8"?>
<!-- Generator: Adobe Illustrator 16.0.0, SVG Export Plug-In . SVG Version: 6.00 Build 0)  -->
<!DOCTYPE svg PUBLIC "-//W3C//DTD SVG 1.1//EN" "http://www.w3.org/Graphics/SVG/1.1/DTD/svg11.dtd">
<svg version="1.1" id="图层_1" xmlns="http://www.w3.org/2000/svg" xmlns:xlink="http://www.w3.org/1999/xlink" x="0px" y="0px"
	 width="42.333px" height="61.833px" viewBox="0 0 42.333 61.833" enable-background="new 0 0 42.333 61.833" xml:space="preserve">
<g>
	<path fill="#FFFFFF" d="M0,37.021V19.5c0,0-0.02-3.744,2.323-6.653C7.916,5.875,22.354-5.5,39.191,3.067
		c3.058,1.808,3.142,4.996,3.142,4.996v28.959H0z"/>
	<rect y="37.021" fill="#003462" width="42.333" height="24.812"/>
	<g>
		<g>
			<path fill="#0075C2" d="M19.814,30.081c-7.549,0.697-15.412-0.399-16.512-6.298c-0.541-2.906,0.784-5.99,2.541-7.905v-1.022
				c-3.165,2.775-4.881,6.287-3.894,10.437c1.266,5.32,8.015,8.333,18.319,7.333c4.077-0.396,9.411-1.709,13.122-3.745v-2.893
				C30.021,27.993,24.456,29.652,19.814,30.081z M39.696,14.784c-1.793-8.739-18.761-9.292-29.699-2.635v0.735
				c10.927-5.617,26.421-5.583,27.834,2.467c0.474,2.666-1.025,5.44-3.706,7.033v2.092C37.351,23.294,40.658,19.469,39.696,14.784z"
				/>
			<path fill="#0075C2" d="M32.78,13.514h-1.977v8.809c0,1.036,0.499,1.934,1.977,2.076V13.514z"/>
			<path fill="#0075C2" d="M9.219,16.73H7.239v5.757c0,1.035,0.499,1.934,1.979,2.076V16.73z"/>
			<rect x="7.239" y="13.781" fill="#0075C2" width="1.976" height="1.875"/>
			<path fill="#0075C2" d="M21.069,24.472c-1.599,0-2.277-1.113-2.277-2.213v-7.643h1.958v2.115h1.479v1.584H20.75v3.824
				c0,0.45,0.218,0.698,0.682,0.698h0.797v1.636H21.069"/>
			<path fill="#0075C2" d="M24.678,21.212c0,1.003,0.628,1.743,1.739,1.743c0.872,0,1.301-0.242,1.804-0.739l1.206,1.158
				c-0.77,0.766-1.587,1.23-3.023,1.23c-1.879,0-3.679-1.025-3.679-4.01c0-2.553,1.57-3.996,3.634-3.996
				c2.095,0,3.299,1.689,3.299,3.905v0.708H24.678 M26.273,18.222c-0.669,0-1.188,0.346-1.402,0.813
				c-0.13,0.28-0.177,0.496-0.193,0.842h3.023C27.663,19.033,27.28,18.222,26.273,18.222z"/>
			<path fill="#0075C2" d="M14.548,18.314c0.574,0,0.813,0.285,0.813,0.745v5.422h1.963v-5.431c0-1.102-0.588-2.317-2.309-2.317
				l-4.055-0.003v7.751h1.963v-6.167H14.548z"/>
		</g>
	</g>
	<g>
		<g>
			<g>
				<g>
					<g>
						<g>
							<g>
								<path fill="#FFFFFF" d="M7.771,49.759H6.817c-0.091,0-0.146-0.064-0.211-0.161l-1.189-1.908l-1.114,1.908
									c-0.057,0.104-0.121,0.161-0.21,0.161H3.211c-0.089,0-0.129-0.048-0.129-0.104c0-0.017,0.008-0.042,0.017-0.057l1.721-2.87
									l-1.77-2.821c-0.008-0.016-0.017-0.032-0.017-0.048c0-0.057,0.057-0.105,0.129-0.105h0.954c0.09,0,0.162,0.08,0.21,0.153
									l1.182,1.884l1.091-1.884c0.04-0.073,0.12-0.153,0.209-0.153h0.882c0.073,0,0.13,0.048,0.13,0.105
									c0,0.016-0.008,0.033-0.017,0.048l-1.697,2.846l1.779,2.846c0.015,0.023,0.015,0.04,0.015,0.064
									C7.899,49.71,7.859,49.759,7.771,49.759z"/>
								<path fill="#FFFFFF" d="M11.933,47.852H9.298v0.024c0,0.469,0.194,1.026,0.969,1.026c0.592,0,1.149-0.048,1.489-0.08
									c0.008,0,0.015,0,0.023,0c0.081,0,0.146,0.041,0.146,0.121v0.533c0,0.13-0.025,0.186-0.17,0.21
									c-0.525,0.097-0.841,0.137-1.569,0.137c-0.807,0-1.956-0.437-1.956-2.029v-0.598c0-1.261,0.703-2.054,1.939-2.054
									c1.246,0,1.925,0.849,1.925,2.054v0.453C12.095,47.778,12.046,47.852,11.933,47.852z M11.019,47.059
									c0-0.63-0.346-0.994-0.849-0.994c-0.501,0-0.863,0.355-0.863,0.994v0.032h1.712V47.059z"/>
								<path fill="#FFFFFF" d="M14.803,49.823c-1.269,0-1.932-0.856-1.932-2.013v-0.654c0-1.156,0.663-2.014,1.932-2.014
									c1.27,0,1.933,0.857,1.933,2.014v0.654C16.735,48.967,16.072,49.823,14.803,49.823z M15.668,47.156
									c0-0.663-0.299-1.091-0.865-1.091s-0.864,0.428-0.864,1.091v0.654c0,0.663,0.298,1.091,0.864,1.091s0.865-0.428,0.865-1.091
									V47.156z"/>
								<path fill="#FFFFFF" d="M21.221,49.759h-0.743c-0.089,0-0.162-0.08-0.162-0.17v-2.635c0-0.703-0.065-0.906-0.687-0.906
									c-0.275,0-0.575,0.113-0.914,0.291v3.25c0,0.09-0.072,0.17-0.162,0.17H17.81c-0.089,0-0.162-0.08-0.162-0.17v-4.228
									c0-0.089,0.073-0.162,0.162-0.162h0.703c0.089,0,0.162,0.073,0.162,0.162v0.169c0.47-0.299,0.775-0.388,1.31-0.388
									c1.163,0,1.398,0.785,1.398,1.812v2.635C21.383,49.679,21.31,49.759,21.221,49.759z"/>
							</g>
						</g>
					</g>
				</g>
			</g>
		</g>
	</g>
	<g>
		<g>
			<path fill="#FFFFFF" d="M24.029,52.954l-0.537,3.042c-0.01,0.064-0.075,0.122-0.139,0.122h-0.536
				c-0.057,0-0.092-0.045-0.092-0.098c0-0.012,0-0.018,0-0.024l0.535-3.042c0.012-0.064,0.069-0.116,0.134-0.116h0.536
				c0.057,0,0.099,0.04,0.099,0.099C24.029,52.942,24.029,52.948,24.029,52.954z M24.254,51.773l-0.093,0.512
				c-0.011,0.063-0.069,0.115-0.132,0.115h-0.565c-0.058,0-0.104-0.04-0.104-0.098c0-0.007,0-0.011,0-0.018l0.093-0.512
				c0.012-0.063,0.075-0.116,0.141-0.116h0.563c0.058,0,0.098,0.04,0.098,0.099C24.254,51.762,24.254,51.768,24.254,51.773z"/>
			<path fill="#FFFFFF" d="M27.285,54.099l-0.331,1.896c-0.012,0.064-0.075,0.122-0.141,0.122h-0.534
				c-0.059,0-0.099-0.04-0.099-0.098c0-0.007,0.005-0.018,0.005-0.024l0.331-1.896c0.024-0.144,0.041-0.255,0.041-0.348
				c0-0.227-0.099-0.304-0.417-0.304c-0.199,0-0.425,0.082-0.693,0.211l-0.413,2.337c-0.012,0.064-0.075,0.122-0.139,0.122h-0.536
				c-0.057,0-0.099-0.04-0.099-0.098c0-0.007,0.005-0.018,0.005-0.024l0.537-3.042c0.012-0.064,0.068-0.116,0.133-0.116h0.507
				c0.059,0,0.099,0.047,0.099,0.099c0,0.005,0,0.005,0,0.012v0.006l-0.023,0.123c0.372-0.216,0.623-0.281,0.965-0.281
				c0.634,0,0.844,0.378,0.844,0.874C27.326,53.803,27.314,53.948,27.285,54.099z"/>
			<path fill="#FFFFFF" d="M30.327,53.052l-0.058,0.333c-0.013,0.07-0.053,0.11-0.109,0.11c-0.007,0-0.014,0-0.019,0h-0.007
				c-0.157-0.023-0.586-0.07-0.919-0.07c-0.181,0-0.447,0.022-0.447,0.268c0,0.081,0.058,0.157,0.175,0.239l0.68,0.464
				c0.35,0.24,0.43,0.478,0.43,0.733c0,0.727-0.592,1.035-1.284,1.035c-0.19,0-0.692-0.018-1.048-0.116
				c-0.057-0.018-0.087-0.052-0.087-0.105c0-0.005,0-0.011,0-0.016c0-0.006,0-0.006,0-0.013l0.063-0.349
				c0.014-0.058,0.065-0.093,0.124-0.093c0.005,0,0.012,0,0.017,0c0.273,0.035,0.757,0.063,0.931,0.063
				c0.285,0,0.501-0.052,0.501-0.325c0-0.093-0.054-0.18-0.192-0.279l-0.71-0.489c-0.221-0.151-0.378-0.414-0.378-0.692
				c0-0.768,0.669-0.955,1.227-0.955c0.349,0,0.71,0.042,1.03,0.123c0.058,0.018,0.081,0.052,0.081,0.105c0,0.005,0,0.011,0,0.017
				C30.327,53.047,30.327,53.047,30.327,53.052z"/>
			<path fill="#FFFFFF" d="M31.874,52.954l-0.535,3.042c-0.012,0.064-0.075,0.122-0.139,0.122h-0.536
				c-0.059,0-0.092-0.045-0.092-0.098c0-0.012,0-0.018,0-0.024l0.535-3.042c0.011-0.064,0.068-0.116,0.133-0.116h0.535
				c0.059,0,0.099,0.04,0.099,0.099C31.874,52.942,31.874,52.948,31.874,52.954z M32.101,51.773l-0.092,0.512
				c-0.013,0.063-0.07,0.115-0.135,0.115h-0.563c-0.059,0-0.105-0.04-0.105-0.098c0-0.007,0-0.011,0-0.018l0.094-0.512
				c0.012-0.063,0.075-0.116,0.139-0.116h0.564c0.059,0,0.099,0.04,0.099,0.099C32.101,51.762,32.101,51.768,32.101,51.773z"/>
			<path fill="#FFFFFF" d="M35.452,51.809l-0.717,4.047c-0.017,0.087-0.047,0.123-0.186,0.157c-0.378,0.095-0.82,0.151-1.192,0.151
				c-0.809,0-1.163-0.5-1.163-1.14c0-0.104,0.012-0.209,0.028-0.319l0.075-0.448c0.176-1.053,0.717-1.46,1.654-1.46
				c0.139,0,0.335,0.012,0.546,0.042l0.186-1.029c0.012-0.064,0.07-0.116,0.134-0.116h0.534c0.059,0,0.101,0.041,0.101,0.098
				C35.452,51.797,35.452,51.802,35.452,51.809z M33.84,53.425c-0.499,0-0.68,0.268-0.773,0.832l-0.075,0.448
				c-0.023,0.139-0.035,0.256-0.035,0.359c0,0.319,0.134,0.471,0.512,0.471c0.21,0,0.447-0.017,0.564-0.041l0.355-2.029
				C34.23,53.443,33.98,53.425,33.84,53.425z"/>
			<path fill="#FFFFFF" d="M38.442,54.321L38.396,54.6c-0.019,0.093-0.061,0.146-0.141,0.146h-1.896
				c-0.012,0.082-0.028,0.157-0.028,0.238c0,0.314,0.161,0.523,0.591,0.523c0.426,0,0.827-0.041,1.078-0.063
				c0.005,0,0.017,0,0.021,0c0.047,0,0.088,0.011,0.088,0.063c0,0.006,0,0.018,0,0.024l-0.069,0.383
				c-0.019,0.094-0.035,0.134-0.146,0.15c-0.39,0.07-0.645,0.1-1.17,0.1c-0.518,0-1.145-0.291-1.145-1.169
				c0-0.104,0.006-0.226,0.029-0.349l0.063-0.36c0.191-1.087,0.767-1.49,1.658-1.49c0.772,0,1.14,0.512,1.14,1.193
				C38.471,54.094,38.459,54.21,38.442,54.321z M37.215,53.46c-0.467,0-0.682,0.313-0.757,0.738h1.232
				c0.012-0.076,0.023-0.145,0.023-0.221C37.714,53.641,37.533,53.46,37.215,53.46z"/>
		</g>
	</g>
	<path fill="#FFFFFF" d="M39.221,52.221v0.642h-0.122v-0.642h-0.232v-0.099h0.585v0.099H39.221z M40.293,52.862v-0.617H40.29
		l-0.242,0.617h-0.077l-0.242-0.617h-0.003v0.617h-0.122v-0.741h0.188l0.221,0.562l0.217-0.562h0.186v0.741H40.293z"/>
	<path fill="#FFFFFF" d="M22.143,45.402c-0.229,0-0.414-0.186-0.414-0.414c0-0.229,0.186-0.414,0.414-0.414
		c0.229,0,0.416,0.185,0.416,0.414C22.559,45.217,22.372,45.402,22.143,45.402z M22.143,44.644c-0.19,0-0.342,0.155-0.342,0.345
		c0,0.189,0.151,0.343,0.342,0.343s0.346-0.153,0.346-0.343C22.488,44.798,22.333,44.644,22.143,44.644z M22.326,45.236H22.25
		c-0.007,0-0.014-0.006-0.017-0.012l-0.105-0.178c-0.002-0.003-0.011-0.008-0.016-0.008c0,0-0.015,0-0.029,0
		c-0.007,0-0.014,0-0.017,0v0.178c0,0.009-0.007,0.02-0.019,0.02h-0.068c-0.011,0-0.019-0.011-0.019-0.02V44.77
		c0-0.028,0.008-0.039,0.033-0.041c0.023-0.003,0.089-0.006,0.127-0.006c0.127,0,0.204,0.039,0.204,0.158v0.009
		c0,0.074-0.037,0.113-0.094,0.132l0.108,0.185c0.002,0.003,0.004,0.008,0.004,0.012C22.344,45.227,22.338,45.236,22.326,45.236z
		 M22.225,44.881c0-0.05-0.028-0.067-0.097-0.067c-0.007,0-0.03,0-0.047,0c-0.007,0-0.015,0-0.019,0v0.145
		c0.012,0,0.059,0.002,0.065,0.002c0.07,0,0.097-0.023,0.097-0.07V44.881z"/>
</g>
</svg>
