<?xml version="1.0" encoding="utf-8"?>
<!-- Generator: Adobe Illustrator 16.0.0, SVG Export Plug-In . SVG Version: 6.00 Build 0)  -->
<!DOCTYPE svg PUBLIC "-//W3C//DTD SVG 1.1//EN" "http://www.w3.org/Graphics/SVG/1.1/DTD/svg11.dtd">
<svg version="1.1" id="图层_1" xmlns="http://www.w3.org/2000/svg" xmlns:xlink="http://www.w3.org/1999/xlink" x="0px" y="0px"
	 width="75.34px" height="75.33px" viewBox="0 0 75.34 75.33" enable-background="new 0 0 75.34 75.33" xml:space="preserve">
<g>
	<circle fill="#21212D" cx="37.67" cy="37.665" r="37.667"/>
	<circle fill="none" stroke="#CECECE" stroke-width="3" stroke-miterlimit="10" cx="37.637" cy="36.712" r="35.042"/>
	<g>
		<polygon fill="#DBDBDB" points="31.382,26.858 20.126,35.569 30.448,46.565 42.999,37.801 40.87,35.052 31.563,41.327 
			29.723,39.667 37.294,34.169 34.7,31.631 26.974,37.022 25.521,35.414 33.87,29.347 		"/>
		<polygon fill="#DBDBDB" points="40.897,28.053 40.897,46.565 52.722,46.565 52.722,41.275 46.032,41.275 46.032,28.053 		"/>
		<polygon fill="#DBDBDB" points="54.472,28.053 54.472,46.565 66.296,46.565 66.296,41.275 59.606,41.275 59.606,28.053 		"/>
		<path fill="#DBDBDB" d="M24.016,36.297c0,0-0.569-7.882-6.324-8.244H8.978v18.513h9.074
			C18.052,46.565,24.847,45.373,24.016,36.297z M16.533,42.284h-2.706v-9.643h2.706C21.262,37.229,16.533,42.284,16.533,42.284z"/>
	</g>
</g>
</svg>
