<?xml version="1.0" encoding="utf-8"?>
<!-- Generator: Adobe Illustrator 16.0.0, SVG Export Plug-In . SVG Version: 6.00 Build 0)  -->
<!DOCTYPE svg PUBLIC "-//W3C//DTD SVG 1.1//EN" "http://www.w3.org/Graphics/SVG/1.1/DTD/svg11.dtd">
<svg version="1.1" id="图层_1" xmlns="http://www.w3.org/2000/svg" xmlns:xlink="http://www.w3.org/1999/xlink" x="0px" y="0px"
	 width="42.05px" height="14.46px" viewBox="0 0 42.05 14.46" enable-background="new 0 0 42.05 14.46" xml:space="preserve">
<g>
	<polygon fill="#EAEAEA" points="16.436,0.002 8.179,6.393 15.751,14.459 24.959,8.029 23.396,6.013 16.569,10.616 15.219,9.398 
		20.773,5.365 18.871,3.503 13.203,7.458 12.136,6.278 18.262,1.827 	"/>
	<polygon fill="#EAEAEA" points="23.418,0.878 23.418,14.459 32.092,14.459 32.092,10.578 27.184,10.578 27.184,0.878 	"/>
	<polygon fill="#EAEAEA" points="33.375,0.878 33.375,14.459 42.049,14.459 42.049,10.578 37.143,10.578 37.143,0.878 	"/>
	<path fill="#EAEAEA" d="M11.033,6.926c0,0-0.418-5.782-4.64-6.048H0v13.581h6.657C6.658,14.459,11.642,13.584,11.033,6.926z
		 M5.543,11.318H3.558V4.244h1.985C9.012,7.609,5.543,11.318,5.543,11.318z"/>
</g>
</svg>
