<?xml version="1.0" encoding="utf-8"?>
<!-- Generator: Adobe Illustrator 16.0.0, SVG Export Plug-In . SVG Version: 6.00 Build 0)  -->
<!DOCTYPE svg PUBLIC "-//W3C//DTD SVG 1.1//EN" "http://www.w3.org/Graphics/SVG/1.1/DTD/svg11.dtd">
<svg version="1.1" id="图层_1" xmlns="http://www.w3.org/2000/svg" xmlns:xlink="http://www.w3.org/1999/xlink" x="0px" y="0px"
	 width="70.393px" height="73.668px" viewBox="0 0 70.393 73.668" enable-background="new 0 0 70.393 73.668" xml:space="preserve">
<g>
	<defs>
		<rect id="SVGID_558_" x="-1205.197" y="-3.855" width="1275.59" height="252"/>
	</defs>
	<clipPath id="SVGID_2_">
		<use xlink:href="#SVGID_558_"  overflow="visible"/>
	</clipPath>
	
		<rect x="-1205.197" y="-3.855" clip-path="url(#SVGID_2_)" fill="none" stroke="#242426" stroke-width="2" stroke-miterlimit="10" width="1275.59" height="252"/>
</g>
<g>
	<rect fill-rule="evenodd" clip-rule="evenodd" fill="#1C1D20" width="70.393" height="73.668"/>
	<rect x="2" fill-rule="evenodd" clip-rule="evenodd" fill="#49494B" width="67.392" height="71.666"/>
	<path fill-rule="evenodd" clip-rule="evenodd" fill="#FFFFFF" d="M26.466,44.354h4.559h5.169c-0.093,0.544-0.255,1.075-0.487,1.572
		H18.524v-1.572H26.466z M30.708,42.801l-0.32-1.572h5.594c0.16,0.509,0.259,1.038,0.293,1.572H30.708z M26.466,42.801h-4.755
		v-1.572h4.755V42.801z M21.712,39.656v-1.572h11.901c0.658,0.412,1.198,0.953,1.615,1.572H21.712z M21.712,36.531v-1.572h4.754
		h3.922h4.947c-0.427,0.629-0.988,1.17-1.688,1.572H21.712z M21.712,31.813h4.755v1.572h-4.755V31.813z M18.524,30.262v-1.573
		h17.137c0.251,0.497,0.433,1.028,0.544,1.573H18.524z M36.331,31.813c-0.021,0.535-0.105,1.065-0.257,1.573h-5.368l0.318-1.573
		H36.331z M45.869,39.656h-4.616v-1.572h4.616V39.656z M41.253,36.531v-1.572h9.2l0.603,1.572H41.253z M41.253,33.387v-1.573h7.994
		l0.603,1.573H41.253z M38.011,30.262v-1.573h10.038l0.603,1.573H38.011z M51.067,36.531l0.615-1.572h8.941v1.572H51.067z
		 M52.298,33.387l0.614-1.573h7.712v1.573H52.298z M53.519,30.262l0.615-1.573h9.841v1.573H53.519z M60.624,39.656H56.2v-1.572
		h4.424V39.656z M54.856,38.084l-0.544,1.572h-6.716l-0.57-1.572H54.856z M45.869,42.801h-4.616v-1.572h4.616V42.801z
		 M60.624,42.801H56.2v-1.572h4.424V42.801z M53.769,41.229l-0.544,1.572h-4.486l-0.57-1.572H53.769z M45.869,45.926h-7.858v-1.572
		h7.858V45.926z M63.975,45.926h-7.775v-1.572h7.775V45.926z M52.688,44.354l-0.545,1.572h-2.271l-0.57-1.572H52.688z
		 M45.869,49.131h-7.858v-1.633h7.858V49.131z M63.975,49.131h-7.775v-1.633h7.775V49.131z M51.599,47.498l-0.565,1.633
		l-0.592-1.633H51.599z M38.011,27.117v-1.533h8.847l0.588,1.533H38.011z M54.749,27.117l0.599-1.533h8.627v1.533H54.749z
		 M18.524,25.584v1.533h15.964c-0.993-0.931-2.387-1.533-4.177-1.533H18.524z M18.524,47.498v1.633h11.787
		c1.884-0.008,3.312-0.649,4.297-1.633H18.524z M5.348,25.584h10.936v1.533H5.348V25.584z M16.283,30.262H5.348v-1.572h10.936
		V30.262z M13.096,33.387H8.453v-1.572h4.643V33.387z M13.096,36.531H8.453v-1.572h4.643V36.531z M13.096,39.656H8.453v-1.572h4.643
		V39.656z M13.096,42.801H8.453v-1.572h4.643V42.801z M16.283,45.926H5.348v-1.572h10.936V45.926z M16.283,49.131H5.348v-1.633
		h10.936V49.131z"/>
</g>
<rect x="-1205.197" y="-3.855" fill="none" width="1275.59" height="252"/>
<g>
	<defs>
		<rect id="SVGID_590_" x="-1205.197" y="-3.855" width="1275.59" height="252"/>
	</defs>
	<clipPath id="SVGID_4_">
		<use xlink:href="#SVGID_590_"  overflow="visible"/>
	</clipPath>
</g>
<g>
	<defs>
		<rect id="SVGID_595_" x="-1205.197" y="-3.855" width="1275.59" height="252"/>
	</defs>
	<clipPath id="SVGID_5_">
		<use xlink:href="#SVGID_595_"  overflow="visible"/>
	</clipPath>
</g>
<g>
	<defs>
		<rect id="SVGID_600_" x="-1205.197" y="-3.855" width="1275.59" height="252"/>
	</defs>
	<clipPath id="SVGID_7_">
		<use xlink:href="#SVGID_600_"  overflow="visible"/>
	</clipPath>
</g>
<g>
	<defs>
		<rect id="SVGID_605_" x="-1205.197" y="-3.855" width="1275.59" height="252"/>
	</defs>
	<clipPath id="SVGID_8_">
		<use xlink:href="#SVGID_605_"  overflow="visible"/>
	</clipPath>
</g>
<g>
	<defs>
		<rect id="SVGID_613_" x="-1205.197" y="-3.855" width="1275.59" height="252"/>
	</defs>
	<clipPath id="SVGID_10_">
		<use xlink:href="#SVGID_613_"  overflow="visible"/>
	</clipPath>
</g>
<g>
	<defs>
		<rect id="SVGID_618_" x="-1205.197" y="-3.855" width="1275.59" height="252"/>
	</defs>
	<clipPath id="SVGID_11_">
		<use xlink:href="#SVGID_618_"  overflow="visible"/>
	</clipPath>
</g>
<g>
	<defs>
		<rect id="SVGID_623_" x="-1205.197" y="-3.855" width="1275.59" height="252"/>
	</defs>
	<clipPath id="SVGID_13_">
		<use xlink:href="#SVGID_623_"  overflow="visible"/>
	</clipPath>
</g>
<g>
	<defs>
		<rect id="SVGID_628_" x="-1205.197" y="-3.855" width="1275.59" height="252"/>
	</defs>
	<clipPath id="SVGID_14_">
		<use xlink:href="#SVGID_628_"  overflow="visible"/>
	</clipPath>
</g>
<g>
	<defs>
		<rect id="SVGID_633_" x="-1205.197" y="-3.855" width="1275.59" height="252"/>
	</defs>
	<clipPath id="SVGID_16_">
		<use xlink:href="#SVGID_633_"  overflow="visible"/>
	</clipPath>
</g>
<g>
	<defs>
		<rect id="SVGID_638_" x="-1205.197" y="-3.855" width="1275.59" height="252"/>
	</defs>
	<clipPath id="SVGID_17_">
		<use xlink:href="#SVGID_638_"  overflow="visible"/>
	</clipPath>
</g>
<g>
	<defs>
		<rect id="SVGID_646_" x="-1205.197" y="-3.855" width="1275.59" height="252"/>
	</defs>
	<clipPath id="SVGID_19_">
		<use xlink:href="#SVGID_646_"  overflow="visible"/>
	</clipPath>
</g>
<g>
	<defs>
		<rect id="SVGID_651_" x="-1205.197" y="-3.855" width="1275.59" height="252"/>
	</defs>
	<clipPath id="SVGID_20_">
		<use xlink:href="#SVGID_651_"  overflow="visible"/>
	</clipPath>
</g>
<g>
	<defs>
		<rect id="SVGID_656_" x="-1205.197" y="-3.855" width="1275.59" height="252"/>
	</defs>
	<clipPath id="SVGID_22_">
		<use xlink:href="#SVGID_656_"  overflow="visible"/>
	</clipPath>
</g>
<g>
	<defs>
		<rect id="SVGID_661_" x="-1205.197" y="-3.855" width="1275.59" height="252"/>
	</defs>
	<clipPath id="SVGID_23_">
		<use xlink:href="#SVGID_661_"  overflow="visible"/>
	</clipPath>
</g>
<g>
	<defs>
		<rect id="SVGID_666_" x="-1205.197" y="-3.855" width="1275.59" height="252"/>
	</defs>
	<clipPath id="SVGID_25_">
		<use xlink:href="#SVGID_666_"  overflow="visible"/>
	</clipPath>
</g>
<g>
	<defs>
		<rect id="SVGID_671_" x="-1205.197" y="-3.855" width="1275.59" height="252"/>
	</defs>
	<clipPath id="SVGID_26_">
		<use xlink:href="#SVGID_671_"  overflow="visible"/>
	</clipPath>
</g>
<g>
	<defs>
		<rect id="SVGID_679_" x="-1205.197" y="-3.855" width="1275.59" height="252"/>
	</defs>
	<clipPath id="SVGID_28_">
		<use xlink:href="#SVGID_679_"  overflow="visible"/>
	</clipPath>
</g>
<g>
	<defs>
		<rect id="SVGID_684_" x="-1205.197" y="-3.855" width="1275.59" height="252"/>
	</defs>
	<clipPath id="SVGID_29_">
		<use xlink:href="#SVGID_684_"  overflow="visible"/>
	</clipPath>
</g>
<g>
	<defs>
		<rect id="SVGID_689_" x="-1205.197" y="-3.855" width="1275.59" height="252"/>
	</defs>
	<clipPath id="SVGID_31_">
		<use xlink:href="#SVGID_689_"  overflow="visible"/>
	</clipPath>
</g>
<g>
	<defs>
		<rect id="SVGID_694_" x="-1205.197" y="-3.855" width="1275.59" height="252"/>
	</defs>
	<clipPath id="SVGID_32_">
		<use xlink:href="#SVGID_694_"  overflow="visible"/>
	</clipPath>
</g>
<g>
	<defs>
		<rect id="SVGID_699_" x="-1205.197" y="-3.855" width="1275.59" height="252"/>
	</defs>
	<clipPath id="SVGID_34_">
		<use xlink:href="#SVGID_699_"  overflow="visible"/>
	</clipPath>
</g>
<g>
	<defs>
		<rect id="SVGID_704_" x="-1205.197" y="-3.855" width="1275.59" height="252"/>
	</defs>
	<clipPath id="SVGID_36_">
		<use xlink:href="#SVGID_704_"  overflow="visible"/>
	</clipPath>
</g>
<g>
	<defs>
		<rect id="SVGID_712_" x="-1205.197" y="-3.855" width="1275.59" height="252"/>
	</defs>
	<clipPath id="SVGID_37_">
		<use xlink:href="#SVGID_712_"  overflow="visible"/>
	</clipPath>
</g>
<g>
	<defs>
		<rect id="SVGID_717_" x="-1205.197" y="-3.855" width="1275.59" height="252"/>
	</defs>
	<clipPath id="SVGID_39_">
		<use xlink:href="#SVGID_717_"  overflow="visible"/>
	</clipPath>
</g>
<g>
	<defs>
		<rect id="SVGID_722_" x="-1205.197" y="-3.855" width="1275.59" height="252"/>
	</defs>
	<clipPath id="SVGID_41_">
		<use xlink:href="#SVGID_722_"  overflow="visible"/>
	</clipPath>
</g>
<g>
	<defs>
		<rect id="SVGID_727_" x="-1205.197" y="-3.855" width="1275.59" height="252"/>
	</defs>
	<clipPath id="SVGID_42_">
		<use xlink:href="#SVGID_727_"  overflow="visible"/>
	</clipPath>
</g>
<g>
	<defs>
		<rect id="SVGID_732_" x="-1205.197" y="-3.855" width="1275.59" height="252"/>
	</defs>
	<clipPath id="SVGID_44_">
		<use xlink:href="#SVGID_732_"  overflow="visible"/>
	</clipPath>
</g>
<g>
	<defs>
		<rect id="SVGID_737_" x="-1205.197" y="-3.855" width="1275.59" height="252"/>
	</defs>
	<clipPath id="SVGID_46_">
		<use xlink:href="#SVGID_737_"  overflow="visible"/>
	</clipPath>
</g>
<g>
	<defs>
		<rect id="SVGID_745_" x="-1205.197" y="-3.855" width="1275.59" height="252"/>
	</defs>
	<clipPath id="SVGID_47_">
		<use xlink:href="#SVGID_745_"  overflow="visible"/>
	</clipPath>
</g>
<g>
	<defs>
		<rect id="SVGID_750_" x="-1205.197" y="-3.855" width="1275.59" height="252"/>
	</defs>
	<clipPath id="SVGID_49_">
		<use xlink:href="#SVGID_750_"  overflow="visible"/>
	</clipPath>
</g>
<g>
	<defs>
		<rect id="SVGID_755_" x="-1205.197" y="-3.855" width="1275.59" height="252"/>
	</defs>
	<clipPath id="SVGID_51_">
		<use xlink:href="#SVGID_755_"  overflow="visible"/>
	</clipPath>
</g>
<g>
	<defs>
		<rect id="SVGID_760_" x="-1205.197" y="-3.855" width="1275.59" height="252"/>
	</defs>
	<clipPath id="SVGID_52_">
		<use xlink:href="#SVGID_760_"  overflow="visible"/>
	</clipPath>
</g>
<g>
	<defs>
		<rect id="SVGID_765_" x="-1205.197" y="-3.855" width="1275.59" height="252"/>
	</defs>
	<clipPath id="SVGID_54_">
		<use xlink:href="#SVGID_765_"  overflow="visible"/>
	</clipPath>
</g>
<g>
	<defs>
		<rect id="SVGID_770_" x="-1205.197" y="-3.855" width="1275.59" height="252"/>
	</defs>
	<clipPath id="SVGID_55_">
		<use xlink:href="#SVGID_770_"  overflow="visible"/>
	</clipPath>
</g>
<g>
	<defs>
		<rect id="SVGID_778_" x="-1205.197" y="-3.855" width="1275.59" height="252"/>
	</defs>
	<clipPath id="SVGID_57_">
		<use xlink:href="#SVGID_778_"  overflow="visible"/>
	</clipPath>
</g>
<g>
	<defs>
		<rect id="SVGID_783_" x="-1205.197" y="-3.855" width="1275.59" height="252"/>
	</defs>
	<clipPath id="SVGID_59_">
		<use xlink:href="#SVGID_783_"  overflow="visible"/>
	</clipPath>
</g>
<g>
	<defs>
		<rect id="SVGID_788_" x="-1205.197" y="-3.855" width="1275.59" height="252"/>
	</defs>
	<clipPath id="SVGID_60_">
		<use xlink:href="#SVGID_788_"  overflow="visible"/>
	</clipPath>
</g>
<g>
	<defs>
		<rect id="SVGID_793_" x="-1205.197" y="-3.855" width="1275.59" height="252"/>
	</defs>
	<clipPath id="SVGID_62_">
		<use xlink:href="#SVGID_793_"  overflow="visible"/>
	</clipPath>
</g>
<g>
	<defs>
		<rect id="SVGID_798_" x="-1205.197" y="-3.855" width="1275.59" height="252"/>
	</defs>
	<clipPath id="SVGID_64_">
		<use xlink:href="#SVGID_798_"  overflow="visible"/>
	</clipPath>
</g>
<g>
	<defs>
		<rect id="SVGID_803_" x="-1205.197" y="-3.855" width="1275.59" height="252"/>
	</defs>
	<clipPath id="SVGID_65_">
		<use xlink:href="#SVGID_803_"  overflow="visible"/>
	</clipPath>
</g>
<g>
	<defs>
		<rect id="SVGID_811_" x="-1205.197" y="-3.855" width="1275.59" height="252"/>
	</defs>
	<clipPath id="SVGID_67_">
		<use xlink:href="#SVGID_811_"  overflow="visible"/>
	</clipPath>
</g>
<g>
	<defs>
		<rect id="SVGID_816_" x="-1205.197" y="-3.855" width="1275.59" height="252"/>
	</defs>
	<clipPath id="SVGID_69_">
		<use xlink:href="#SVGID_816_"  overflow="visible"/>
	</clipPath>
</g>
<g>
	<defs>
		<rect id="SVGID_821_" x="-1205.197" y="-3.855" width="1275.59" height="252"/>
	</defs>
	<clipPath id="SVGID_70_">
		<use xlink:href="#SVGID_821_"  overflow="visible"/>
	</clipPath>
</g>
<g>
	<defs>
		<rect id="SVGID_826_" x="-1205.197" y="-3.855" width="1275.59" height="252"/>
	</defs>
	<clipPath id="SVGID_72_">
		<use xlink:href="#SVGID_826_"  overflow="visible"/>
	</clipPath>
</g>
<g>
	<defs>
		<rect id="SVGID_831_" x="-1205.197" y="-3.855" width="1275.59" height="252"/>
	</defs>
	<clipPath id="SVGID_74_">
		<use xlink:href="#SVGID_831_"  overflow="visible"/>
	</clipPath>
</g>
<g>
	<defs>
		<rect id="SVGID_836_" x="-1205.197" y="-3.855" width="1275.59" height="252"/>
	</defs>
	<clipPath id="SVGID_75_">
		<use xlink:href="#SVGID_836_"  overflow="visible"/>
	</clipPath>
</g>
<g>
	<defs>
		<rect id="SVGID_844_" x="-1205.197" y="-3.855" width="1275.59" height="252"/>
	</defs>
	<clipPath id="SVGID_77_">
		<use xlink:href="#SVGID_844_"  overflow="visible"/>
	</clipPath>
</g>
<g>
	<defs>
		<rect id="SVGID_849_" x="-1205.197" y="-3.855" width="1275.59" height="252"/>
	</defs>
	<clipPath id="SVGID_79_">
		<use xlink:href="#SVGID_849_"  overflow="visible"/>
	</clipPath>
</g>
<g>
	<defs>
		<rect id="SVGID_854_" x="-1205.197" y="-3.855" width="1275.59" height="252"/>
	</defs>
	<clipPath id="SVGID_80_">
		<use xlink:href="#SVGID_854_"  overflow="visible"/>
	</clipPath>
</g>
<g>
	<defs>
		<rect id="SVGID_859_" x="-1205.197" y="-3.855" width="1275.59" height="252"/>
	</defs>
	<clipPath id="SVGID_82_">
		<use xlink:href="#SVGID_859_"  overflow="visible"/>
	</clipPath>
</g>
<g>
	<defs>
		<rect id="SVGID_864_" x="-1205.197" y="-3.855" width="1275.59" height="252"/>
	</defs>
	<clipPath id="SVGID_84_">
		<use xlink:href="#SVGID_864_"  overflow="visible"/>
	</clipPath>
</g>
<g>
	<defs>
		<rect id="SVGID_869_" x="-1205.197" y="-3.855" width="1275.59" height="252"/>
	</defs>
	<clipPath id="SVGID_85_">
		<use xlink:href="#SVGID_869_"  overflow="visible"/>
	</clipPath>
</g>
<g>
	<defs>
		<rect id="SVGID_877_" x="-1205.197" y="-3.855" width="1275.59" height="252"/>
	</defs>
	<clipPath id="SVGID_87_">
		<use xlink:href="#SVGID_877_"  overflow="visible"/>
	</clipPath>
</g>
<g>
	<defs>
		<rect id="SVGID_882_" x="-1205.197" y="-3.855" width="1275.59" height="252"/>
	</defs>
	<clipPath id="SVGID_88_">
		<use xlink:href="#SVGID_882_"  overflow="visible"/>
	</clipPath>
</g>
<g>
	<defs>
		<rect id="SVGID_887_" x="-1205.197" y="-3.855" width="1275.59" height="252"/>
	</defs>
	<clipPath id="SVGID_90_">
		<use xlink:href="#SVGID_887_"  overflow="visible"/>
	</clipPath>
</g>
<g>
	<defs>
		<rect id="SVGID_892_" x="-1205.197" y="-3.855" width="1275.59" height="252"/>
	</defs>
	<clipPath id="SVGID_92_">
		<use xlink:href="#SVGID_892_"  overflow="visible"/>
	</clipPath>
</g>
<g>
	<defs>
		<rect id="SVGID_897_" x="-1205.197" y="-3.855" width="1275.59" height="252"/>
	</defs>
	<clipPath id="SVGID_93_">
		<use xlink:href="#SVGID_897_"  overflow="visible"/>
	</clipPath>
</g>
<g>
	<defs>
		<rect id="SVGID_902_" x="-1205.197" y="-3.855" width="1275.59" height="252"/>
	</defs>
	<clipPath id="SVGID_95_">
		<use xlink:href="#SVGID_902_"  overflow="visible"/>
	</clipPath>
</g>
<g>
	<defs>
		<rect id="SVGID_910_" x="-1205.197" y="-3.855" width="1275.59" height="252"/>
	</defs>
	<clipPath id="SVGID_97_">
		<use xlink:href="#SVGID_910_"  overflow="visible"/>
	</clipPath>
</g>
<g>
	<defs>
		<rect id="SVGID_915_" x="-1205.197" y="-3.855" width="1275.59" height="252"/>
	</defs>
	<clipPath id="SVGID_98_">
		<use xlink:href="#SVGID_915_"  overflow="visible"/>
	</clipPath>
</g>
<g>
	<defs>
		<rect id="SVGID_920_" x="-1205.197" y="-3.855" width="1275.59" height="252"/>
	</defs>
	<clipPath id="SVGID_100_">
		<use xlink:href="#SVGID_920_"  overflow="visible"/>
	</clipPath>
</g>
<g>
	<defs>
		<rect id="SVGID_925_" x="-1205.197" y="-3.855" width="1275.59" height="252"/>
	</defs>
	<clipPath id="SVGID_102_">
		<use xlink:href="#SVGID_925_"  overflow="visible"/>
	</clipPath>
</g>
<g>
	<defs>
		<rect id="SVGID_930_" x="-1205.197" y="-3.855" width="1275.59" height="252"/>
	</defs>
	<clipPath id="SVGID_103_">
		<use xlink:href="#SVGID_930_"  overflow="visible"/>
	</clipPath>
</g>
<g>
	<defs>
		<rect id="SVGID_935_" x="-1205.197" y="-3.855" width="1275.59" height="252"/>
	</defs>
	<clipPath id="SVGID_105_">
		<use xlink:href="#SVGID_935_"  overflow="visible"/>
	</clipPath>
</g>
<g>
	<defs>
		<rect id="SVGID_943_" x="-1205.197" y="-3.855" width="1275.59" height="252"/>
	</defs>
	<clipPath id="SVGID_107_">
		<use xlink:href="#SVGID_943_"  overflow="visible"/>
	</clipPath>
</g>
<g>
	<defs>
		<rect id="SVGID_948_" x="-1205.197" y="-3.855" width="1275.59" height="252"/>
	</defs>
	<clipPath id="SVGID_108_">
		<use xlink:href="#SVGID_948_"  overflow="visible"/>
	</clipPath>
</g>
<g>
	<defs>
		<rect id="SVGID_953_" x="-1205.197" y="-3.855" width="1275.59" height="252"/>
	</defs>
	<clipPath id="SVGID_110_">
		<use xlink:href="#SVGID_953_"  overflow="visible"/>
	</clipPath>
</g>
<g>
	<defs>
		<rect id="SVGID_958_" x="-1205.197" y="-3.855" width="1275.59" height="252"/>
	</defs>
	<clipPath id="SVGID_112_">
		<use xlink:href="#SVGID_958_"  overflow="visible"/>
	</clipPath>
</g>
<g>
	<defs>
		<rect id="SVGID_963_" x="-1205.197" y="-3.855" width="1275.59" height="252"/>
	</defs>
	<clipPath id="SVGID_113_">
		<use xlink:href="#SVGID_963_"  overflow="visible"/>
	</clipPath>
</g>
<g>
	<defs>
		<rect id="SVGID_968_" x="-1205.197" y="-3.855" width="1275.59" height="252"/>
	</defs>
	<clipPath id="SVGID_115_">
		<use xlink:href="#SVGID_968_"  overflow="visible"/>
	</clipPath>
</g>
<g>
	<defs>
		<rect id="SVGID_976_" x="-1205.197" y="-3.855" width="1275.59" height="252"/>
	</defs>
	<clipPath id="SVGID_117_">
		<use xlink:href="#SVGID_976_"  overflow="visible"/>
	</clipPath>
</g>
<g>
	<defs>
		<rect id="SVGID_981_" x="-1205.197" y="-3.855" width="1275.59" height="252"/>
	</defs>
	<clipPath id="SVGID_118_">
		<use xlink:href="#SVGID_981_"  overflow="visible"/>
	</clipPath>
</g>
<g>
	<defs>
		<rect id="SVGID_986_" x="-1205.197" y="-3.855" width="1275.59" height="252"/>
	</defs>
	<clipPath id="SVGID_120_">
		<use xlink:href="#SVGID_986_"  overflow="visible"/>
	</clipPath>
</g>
<g>
	<defs>
		<rect id="SVGID_991_" x="-1205.197" y="-3.855" width="1275.59" height="252"/>
	</defs>
	<clipPath id="SVGID_121_">
		<use xlink:href="#SVGID_991_"  overflow="visible"/>
	</clipPath>
</g>
<g>
	<defs>
		<rect id="SVGID_996_" x="-1205.197" y="-3.855" width="1275.59" height="252"/>
	</defs>
	<clipPath id="SVGID_123_">
		<use xlink:href="#SVGID_996_"  overflow="visible"/>
	</clipPath>
</g>
<g>
	<defs>
		<rect id="SVGID_1001_" x="-1205.197" y="-3.855" width="1275.59" height="252"/>
	</defs>
	<clipPath id="SVGID_125_">
		<use xlink:href="#SVGID_1001_"  overflow="visible"/>
	</clipPath>
</g>
<g>
	<defs>
		<rect id="SVGID_1009_" x="-1205.197" y="-3.855" width="1275.59" height="252"/>
	</defs>
	<clipPath id="SVGID_126_">
		<use xlink:href="#SVGID_1009_"  overflow="visible"/>
	</clipPath>
</g>
<g>
	<defs>
		<rect id="SVGID_1014_" x="-1205.197" y="-3.855" width="1275.59" height="252"/>
	</defs>
	<clipPath id="SVGID_128_">
		<use xlink:href="#SVGID_1014_"  overflow="visible"/>
	</clipPath>
</g>
<g>
	<defs>
		<rect id="SVGID_1019_" x="-1205.197" y="-3.855" width="1275.59" height="252"/>
	</defs>
	<clipPath id="SVGID_130_">
		<use xlink:href="#SVGID_1019_"  overflow="visible"/>
	</clipPath>
</g>
<g>
	<defs>
		<rect id="SVGID_1024_" x="-1205.197" y="-3.855" width="1275.59" height="252"/>
	</defs>
	<clipPath id="SVGID_131_">
		<use xlink:href="#SVGID_1024_"  overflow="visible"/>
	</clipPath>
</g>
<g>
	<defs>
		<rect id="SVGID_1029_" x="-1205.197" y="-3.855" width="1275.59" height="252"/>
	</defs>
	<clipPath id="SVGID_133_">
		<use xlink:href="#SVGID_1029_"  overflow="visible"/>
	</clipPath>
</g>
<g>
	<defs>
		<rect id="SVGID_1034_" x="-1205.197" y="-3.855" width="1275.59" height="252"/>
	</defs>
	<clipPath id="SVGID_135_">
		<use xlink:href="#SVGID_1034_"  overflow="visible"/>
	</clipPath>
</g>
<g>
	<defs>
		<rect id="SVGID_1042_" x="-1205.197" y="-3.855" width="1275.59" height="252"/>
	</defs>
	<clipPath id="SVGID_136_">
		<use xlink:href="#SVGID_1042_"  overflow="visible"/>
	</clipPath>
</g>
<g>
	<defs>
		<rect id="SVGID_1047_" x="-1205.197" y="-3.855" width="1275.59" height="252"/>
	</defs>
	<clipPath id="SVGID_138_">
		<use xlink:href="#SVGID_1047_"  overflow="visible"/>
	</clipPath>
</g>
<g>
	<defs>
		<rect id="SVGID_1052_" x="-1205.197" y="-3.855" width="1275.59" height="252"/>
	</defs>
	<clipPath id="SVGID_140_">
		<use xlink:href="#SVGID_1052_"  overflow="visible"/>
	</clipPath>
</g>
<g>
	<defs>
		<rect id="SVGID_1057_" x="-1205.197" y="-3.855" width="1275.59" height="252"/>
	</defs>
	<clipPath id="SVGID_141_">
		<use xlink:href="#SVGID_1057_"  overflow="visible"/>
	</clipPath>
</g>
<g>
	<defs>
		<rect id="SVGID_1062_" x="-1205.197" y="-3.855" width="1275.59" height="252"/>
	</defs>
	<clipPath id="SVGID_143_">
		<use xlink:href="#SVGID_1062_"  overflow="visible"/>
	</clipPath>
</g>
<g>
	<defs>
		<rect id="SVGID_1067_" x="-1205.197" y="-3.855" width="1275.59" height="252"/>
	</defs>
	<clipPath id="SVGID_145_">
		<use xlink:href="#SVGID_1067_"  overflow="visible"/>
	</clipPath>
</g>
<g>
	<defs>
		<rect id="SVGID_1075_" x="-1205.197" y="-3.855" width="1275.59" height="252"/>
	</defs>
	<clipPath id="SVGID_146_">
		<use xlink:href="#SVGID_1075_"  overflow="visible"/>
	</clipPath>
</g>
<g>
	<defs>
		<rect id="SVGID_1080_" x="-1205.197" y="-3.855" width="1275.59" height="252"/>
	</defs>
	<clipPath id="SVGID_148_">
		<use xlink:href="#SVGID_1080_"  overflow="visible"/>
	</clipPath>
</g>
<g>
	<defs>
		<rect id="SVGID_1085_" x="-1205.197" y="-3.855" width="1275.59" height="252"/>
	</defs>
	<clipPath id="SVGID_150_">
		<use xlink:href="#SVGID_1085_"  overflow="visible"/>
	</clipPath>
</g>
<g>
	<defs>
		<rect id="SVGID_1090_" x="-1205.197" y="-3.855" width="1275.59" height="252"/>
	</defs>
	<clipPath id="SVGID_151_">
		<use xlink:href="#SVGID_1090_"  overflow="visible"/>
	</clipPath>
</g>
<g>
	<defs>
		<rect id="SVGID_1095_" x="-1205.197" y="-3.855" width="1275.59" height="252"/>
	</defs>
	<clipPath id="SVGID_153_">
		<use xlink:href="#SVGID_1095_"  overflow="visible"/>
	</clipPath>
</g>
<g>
	<defs>
		<rect id="SVGID_1100_" x="-1205.197" y="-3.855" width="1275.59" height="252"/>
	</defs>
	<clipPath id="SVGID_154_">
		<use xlink:href="#SVGID_1100_"  overflow="visible"/>
	</clipPath>
</g>
<g>
	<defs>
		<rect id="SVGID_1108_" x="-1205.197" y="-3.855" width="1275.59" height="252"/>
	</defs>
	<clipPath id="SVGID_156_">
		<use xlink:href="#SVGID_1108_"  overflow="visible"/>
	</clipPath>
</g>
<rect x="-1205.197" y="-3.855" fill="none" width="1275.59" height="252"/>
</svg>
