<?xml version="1.0" encoding="utf-8"?>
<!-- Generator: Adobe Illustrator 19.0.0, SVG Export Plug-In . SVG Version: 6.00 Build 0)  -->
<svg version="1.1" id="图层_1" xmlns="http://www.w3.org/2000/svg" xmlns:xlink="http://www.w3.org/1999/xlink" x="0px" y="0px"
	 width="45.75px" height="32.031px" viewBox="0 0 45.75 32.031" enable-background="new 0 0 45.75 32.031" xml:space="preserve">
<g>
	<g>
		<rect x="0" y="0" fill="#151209" width="45.75" height="32.031"/>
	</g>
	<g>
		<g>
			<rect x="2.75" y="1.926" fill="#151209" width="40.25" height="28.18"/>
		</g>
		<rect x="15.5" y="26.675" fill="#888888" width="14.75" height="3.431"/>
		<path fill="#888888" d="M45.75,13.156v-4.75H44v-7.48h-5.25V0h-5.125v0.926h-8.188V0h-5.125v0.926h-8.187V0H7v0.926H1.75v7.48H0
			v4.75h1.75v6.287H0v4.75h1.75v6.912H44v-6.912h1.75v-4.75H44v-6.287H45.75z M42,29.105H3.75V2.926H42V29.105z"/>
		<path fill="#151209" d="M31.31,31.166H14.439v-5.552H31.31V31.166z M16.56,29.045h12.629v-1.31H16.56V29.045z"/>
	</g>
</g>
</svg>
