<?xml version="1.0" encoding="utf-8"?>
<!-- Generator: Adobe Illustrator 19.0.0, SVG Export Plug-In . SVG Version: 6.00 Build 0)  -->
<svg version="1.1" id="图层_1" xmlns="http://www.w3.org/2000/svg" xmlns:xlink="http://www.w3.org/1999/xlink" x="0px" y="0px"
	 width="81.7px" height="33.1px" viewBox="0 26.9 81.7 33.1" style="enable-background:new 0 26.9 81.7 33.1;" xml:space="preserve"
	>
<style type="text/css">
	.st0{fill:#161718;}
	.st1{fill:none;stroke:#BABAB9;stroke-miterlimit:10;}
	.st2{fill:none;stroke:#040000;stroke-miterlimit:10;}
	.st3{fill:#040000;}
	.st4{fill:#B2B1B1;}
	.st5{fill:#B2B2B2;}
</style>
<g>
	<polygon class="st0" points="18.1,60 8.7,43.5 18.1,26.9 64.8,26.9 74.2,43.5 64.8,60 	"/>
	<path class="st0" d="M81.7,44.2c0,5.9-4.7,10.7-10.5,10.7H10.6C4.7,54.9,0,50.1,0,44.2l0,0c0-5.9,4.7-10.7,10.5-10.7h60.6
		C77,33.4,81.7,38.2,81.7,44.2L81.7,44.2z"/>
	<path class="st0" d="M25,31.8h32.9c4.7,0,8.3,4,7.6,8.4l-1.6,10.2c-0.6,3.6-3.8,6.2-7.6,6.2H26.6c-3.8,0-7-2.6-7.6-6.2l-1.6-10.2
		C16.8,35.8,20.3,31.8,25,31.8"/>
	<path class="st1" d="M25,31.8h32.9c4.7,0,8.3,4,7.6,8.4l-1.6,10.2c-0.6,3.6-3.8,6.2-7.6,6.2H26.6c-3.8,0-7-2.6-7.6-6.2l-1.6-10.2
		C16.8,35.8,20.3,31.8,25,31.8z"/>
	<path class="st2" d="M57.9,33.4c1.9,0,3.6,0.8,4.7,2.2c1,1.2,1.5,2.8,1.2,4.3l-1.6,10.1c-0.4,2.7-3,4.8-5.9,4.8H26.6
		c-2.9,0-5.5-2.1-5.9-4.8l-1.6-10.1c-0.2-1.6,0.2-3.1,1.2-4.3c1.1-1.4,2.9-2.2,4.7-2.2C25,33.4,57.9,33.4,57.9,33.4z"/>
	<path class="st3" d="M52.7,48.3c0-0.6,0.4-1,1-1s1,0.5,1,1c0,0.6-0.4,1-1,1S52.7,48.9,52.7,48.3"/>
	<path class="st3" d="M44.5,48.3c0-0.6,0.4-1,1-1c0.6,0,1,0.5,1,1c0,0.6-0.4,1-1,1C45,49.4,44.5,48.9,44.5,48.3"/>
	<path class="st3" d="M36.4,48.3c0-0.6,0.4-1,1-1c0.6,0,1,0.5,1,1c0,0.6-0.4,1-1,1C36.9,49.4,36.4,48.9,36.4,48.3"/>
	<path class="st3" d="M28.3,48.3c0-0.6,0.4-1,1-1c0.6,0,1,0.5,1,1c0,0.6-0.4,1-1,1C28.7,49.4,28.3,48.9,28.3,48.3"/>
	<path class="st3" d="M56.7,41.2c0-0.6,0.4-1,1-1s1,0.5,1,1c0,0.6-0.4,1-1,1S56.7,41.7,56.7,41.2"/>
	<path class="st3" d="M48.6,41.2c0-0.6,0.4-1,1-1c0.6,0,1,0.5,1,1c0,0.6-0.4,1-1,1C49.1,42.2,48.6,41.7,48.6,41.2"/>
	<path class="st3" d="M40.5,41.2c0-0.6,0.4-1,1-1c0.6,0,1,0.5,1,1c0,0.6-0.4,1-1,1C40.9,42.2,40.5,41.7,40.5,41.2"/>
	<path class="st3" d="M32.4,41.2c0-0.6,0.4-1,1-1s1,0.5,1,1c0,0.6-0.4,1-1,1C32.8,42.2,32.4,41.7,32.4,41.2"/>
	<path class="st3" d="M24.2,41.2c0-0.6,0.4-1,1-1c0.6,0,1,0.5,1,1c0,0.6-0.4,1-1,1C24.7,42.2,24.2,41.7,24.2,41.2"/>
	<path class="st4" d="M52,47.7c0-0.6,0.4-1,1-1c0.6,0,1,0.5,1,1c0,0.6-0.4,1-1,1C52.5,48.7,52,48.3,52,47.7"/>
	<path class="st4" d="M43.9,47.7c0-0.6,0.4-1,1-1s1,0.5,1,1c0,0.6-0.4,1-1,1C44.4,48.7,43.9,48.3,43.9,47.7"/>
	<path class="st4" d="M35.8,47.7c0-0.6,0.4-1,1-1c0.6,0,1,0.5,1,1c0,0.6-0.4,1-1,1C36.2,48.7,35.8,48.3,35.8,47.7"/>
	<path class="st4" d="M27.7,47.7c0-0.6,0.4-1,1-1s1,0.5,1,1c0,0.6-0.4,1-1,1S27.7,48.3,27.7,47.7"/>
	<path class="st4" d="M56.1,40.5c0-0.6,0.4-1,1-1c0.6,0,1,0.5,1,1c0,0.6-0.4,1-1,1C56.5,41.5,56.1,41.1,56.1,40.5"/>
	<path class="st4" d="M48,40.5c0-0.6,0.4-1,1-1s1,0.5,1,1c0,0.6-0.4,1-1,1C48.4,41.5,48,41.1,48,40.5"/>
	<path class="st4" d="M39.8,40.5c0-0.6,0.4-1,1-1c0.6,0,1,0.5,1,1c0,0.6-0.4,1-1,1C40.3,41.5,39.8,41.1,39.8,40.5"/>
	<path class="st4" d="M31.7,40.5c0-0.6,0.4-1,1-1c0.6,0,1,0.5,1,1c0,0.6-0.4,1-1,1C32.2,41.5,31.7,41.1,31.7,40.5"/>
	<path class="st4" d="M23.6,40.5c0-0.6,0.4-1,1-1s1,0.5,1,1c0,0.6-0.4,1-1,1S23.6,41.1,23.6,40.5"/>
	<path class="st5" d="M10,38.3c3.4,0,6.2,2.8,6.2,6.3c0,3.5-2.8,6.3-6.2,6.3S3.8,48,3.8,44.5C3.8,41.1,6.6,38.3,10,38.3"/>
	<rect x="6.8" y="43.4" class="st3" width="6.4" height="2.3"/>
	<rect x="8.8" y="41.3" class="st3" width="2.2" height="6.5"/>
	<path class="st5" d="M72.3,38.3c3.4,0,6.2,2.8,6.2,6.3c0,3.5-2.8,6.3-6.2,6.3s-6.2-2.8-6.2-6.3C66.1,41.1,68.8,38.3,72.3,38.3"/>
	<rect x="69.1" y="43.4" class="st3" width="6.4" height="2.3"/>
	<rect x="71.1" y="41.3" class="st3" width="2.2" height="6.5"/>
</g>
</svg>
