<?xml version="1.0" encoding="utf-8"?>
<!-- Generator: Adobe Illustrator 16.0.0, SVG Export Plug-In . SVG Version: 6.00 Build 0)  -->
<!DOCTYPE svg PUBLIC "-//W3C//DTD SVG 1.1//EN" "http://www.w3.org/Graphics/SVG/1.1/DTD/svg11.dtd">
<svg version="1.1" id="图层_1" xmlns="http://www.w3.org/2000/svg" xmlns:xlink="http://www.w3.org/1999/xlink" x="0px" y="0px"
	 width="53.18px" height="25.35px" viewBox="0 0 53.18 25.35" enable-background="new 0 0 53.18 25.35" xml:space="preserve">
<g>
	<path fill="#181818" d="M53.18,24.845c0,0.279-0.23,0.506-0.514,0.506H0.514C0.229,25.351,0,25.124,0,24.845V0.506
		c0-0.281,0.229-0.508,0.514-0.508h52.152c0.283,0,0.514,0.227,0.514,0.508V24.845z"/>
	<polygon fill="#3F3F3F" points="49.08,4.937 49.08,1.452 43.458,1.452 43.458,-0.001 42.208,-0.001 42.208,1.452 35.461,1.452 
		35.461,-0.001 34.213,-0.001 34.213,1.452 29.289,1.452 29.289,2.684 23.226,2.684 23.226,1.452 19.551,1.452 19.551,-0.001 
		18.302,-0.001 18.302,1.452 11.555,1.452 11.555,-0.001 10.306,-0.001 10.306,1.452 3.434,1.452 3.434,4.784 1.434,4.784 
		1.434,12.674 3.434,12.674 3.434,10.251 49.08,10.251 49.08,12.829 51.079,12.829 51.079,4.937 	"/>
	<polygon fill="#424142" points="49.579,18.386 49.579,16.931 49.148,16.931 49.148,18.386 47.299,18.386 47.299,16.931 
		46.867,16.931 46.867,18.386 45.018,18.386 45.018,16.931 44.588,16.931 44.588,18.386 42.736,18.386 42.736,16.931 42.308,16.931 
		42.308,18.386 40.458,18.386 40.458,16.931 40.027,16.931 40.027,18.386 38.178,18.386 38.178,16.931 37.746,16.931 37.746,18.386 
		35.896,18.386 35.896,16.931 35.468,16.931 35.468,18.386 33.619,18.386 33.619,16.931 33.186,16.931 33.186,18.386 31.338,18.386 
		31.338,16.931 30.906,16.931 30.906,18.386 29.059,18.386 29.059,16.931 28.627,16.931 28.627,18.386 26.777,18.386 26.777,16.931 
		26.346,16.931 26.346,18.386 24.497,18.386 24.497,16.931 24.067,16.931 24.067,18.386 22.216,18.386 22.216,16.931 21.786,16.931 
		21.786,18.386 19.937,18.386 19.937,16.931 19.506,16.931 19.506,18.386 17.657,18.386 17.657,16.931 17.226,16.931 17.226,18.386 
		15.376,18.386 15.376,16.931 14.946,16.931 14.946,18.386 13.096,18.386 13.096,16.931 12.668,16.931 12.668,18.386 10.816,18.386 
		10.816,16.931 10.385,16.931 10.385,18.386 8.536,18.386 8.536,16.931 8.107,16.931 8.107,18.386 6.259,18.386 6.259,16.931 
		5.827,16.931 5.827,18.386 3.977,18.386 3.977,16.931 3.546,16.931 3.546,18.386 2.393,18.386 2.393,18.884 2.474,18.884 
		2.474,20.243 2.906,20.243 2.906,18.884 4.756,18.884 4.756,20.243 5.187,20.243 5.187,18.884 7.036,18.884 7.036,20.243 
		7.465,20.243 7.465,18.884 9.316,18.884 9.316,20.243 9.746,20.243 9.746,18.884 11.596,18.884 11.596,20.243 12.027,20.243 
		12.027,18.884 13.874,18.884 13.874,20.243 14.306,20.243 14.306,18.884 16.156,18.884 16.156,20.243 16.585,20.243 16.585,18.884 
		18.435,18.884 18.435,20.243 18.865,20.243 18.865,18.884 20.716,18.884 20.716,20.243 21.146,20.243 21.146,18.884 22.996,18.884 
		22.996,20.243 23.426,20.243 23.426,18.884 25.274,18.884 25.274,20.243 25.705,20.243 25.705,18.884 27.558,18.884 27.558,20.243 
		27.984,20.243 27.984,18.884 29.836,18.884 29.836,20.243 30.266,20.243 30.266,18.884 32.115,18.884 32.115,20.243 32.547,20.243 
		32.547,18.884 34.396,18.884 34.396,20.243 34.827,20.243 34.827,18.884 36.675,18.884 36.675,20.243 37.106,20.243 37.106,18.884 
		38.956,18.884 38.956,20.243 39.388,20.243 39.388,18.884 41.237,18.884 41.237,20.243 41.667,20.243 41.667,18.884 43.518,18.884 
		43.518,20.243 43.947,20.243 43.947,18.884 45.795,18.884 45.795,20.243 46.229,20.243 46.229,18.884 48.075,18.884 48.075,20.243 
		48.506,20.243 48.506,18.884 50.356,18.884 50.356,20.243 50.787,20.243 50.787,18.884 50.787,18.636 50.787,18.386 	"/>
	<polygon fill="#424142" points="49.579,22.767 49.579,22.019 49.148,22.019 49.148,22.767 47.299,22.767 47.299,22.019 
		46.867,22.019 46.867,22.767 45.018,22.767 45.018,22.019 44.588,22.019 44.588,22.767 42.736,22.767 42.736,22.019 42.308,22.019 
		42.308,22.767 40.458,22.767 40.458,22.019 40.027,22.019 40.027,22.767 38.178,22.767 38.178,22.019 37.746,22.019 37.746,22.767 
		35.896,22.767 35.896,22.019 35.468,22.019 35.468,22.767 33.619,22.767 33.619,22.019 33.186,22.019 33.186,22.767 31.338,22.767 
		31.338,22.019 30.906,22.019 30.906,22.767 29.059,22.767 29.059,22.019 28.627,22.019 28.627,22.767 26.777,22.767 26.777,22.019 
		26.346,22.019 26.346,22.767 24.497,22.767 24.497,22.019 24.067,22.019 24.067,22.767 22.216,22.767 22.216,22.019 21.786,22.019 
		21.786,22.767 19.937,22.767 19.937,22.019 19.506,22.019 19.506,22.767 17.657,22.767 17.657,22.019 17.226,22.019 17.226,22.767 
		15.376,22.767 15.376,22.019 14.946,22.019 14.946,22.767 13.096,22.767 13.096,22.019 12.668,22.019 12.668,22.767 10.816,22.767 
		10.816,22.019 10.385,22.019 10.385,22.767 8.536,22.767 8.536,22.019 8.107,22.019 8.107,22.767 6.259,22.767 6.259,22.019 
		5.827,22.019 5.827,22.767 3.977,22.767 3.977,22.019 3.546,22.019 3.546,22.767 2.393,22.767 2.393,23.024 2.474,23.024 
		2.474,23.728 2.906,23.728 2.906,23.024 4.756,23.024 4.756,23.728 5.187,23.728 5.187,23.024 7.036,23.024 7.036,23.728 
		7.465,23.728 7.465,23.024 9.316,23.024 9.316,23.728 9.746,23.728 9.746,23.024 11.596,23.024 11.596,23.728 12.027,23.728 
		12.027,23.024 13.874,23.024 13.874,23.728 14.306,23.728 14.306,23.024 16.156,23.024 16.156,23.728 16.585,23.728 16.585,23.024 
		18.435,23.024 18.435,23.728 18.865,23.728 18.865,23.024 20.716,23.024 20.716,23.728 21.146,23.728 21.146,23.024 22.996,23.024 
		22.996,23.728 23.426,23.728 23.426,23.024 25.274,23.024 25.274,23.728 25.705,23.728 25.705,23.024 27.558,23.024 27.558,23.728 
		27.984,23.728 27.984,23.024 29.836,23.024 29.836,23.728 30.266,23.728 30.266,23.024 32.115,23.024 32.115,23.728 32.547,23.728 
		32.547,23.024 34.396,23.024 34.396,23.728 34.827,23.728 34.827,23.024 36.675,23.024 36.675,23.728 37.106,23.728 37.106,23.024 
		38.956,23.024 38.956,23.728 39.388,23.728 39.388,23.024 41.237,23.024 41.237,23.728 41.667,23.728 41.667,23.024 43.518,23.024 
		43.518,23.728 43.947,23.728 43.947,23.024 45.795,23.024 45.795,23.728 46.229,23.728 46.229,23.024 48.075,23.024 48.075,23.728 
		48.506,23.728 48.506,23.024 50.356,23.024 50.356,23.728 50.787,23.728 50.787,23.024 50.787,22.896 50.787,22.767 	"/>
	<polygon fill="#424142" points="49.579,13.896 49.579,13.148 49.148,13.148 49.148,13.896 47.299,13.896 47.299,13.148 
		46.867,13.148 46.867,13.896 45.018,13.896 45.018,13.148 44.588,13.148 44.588,13.896 42.736,13.896 42.736,13.148 42.308,13.148 
		42.308,13.896 40.458,13.896 40.458,13.148 40.027,13.148 40.027,13.896 38.178,13.896 38.178,13.148 37.746,13.148 37.746,13.896 
		35.896,13.896 35.896,13.148 35.468,13.148 35.468,13.896 33.619,13.896 33.619,13.148 33.186,13.148 33.186,13.896 31.338,13.896 
		31.338,13.148 30.906,13.148 30.906,13.896 29.059,13.896 29.059,13.148 28.627,13.148 28.627,13.896 26.777,13.896 26.777,13.148 
		26.346,13.148 26.346,13.896 24.497,13.896 24.497,13.148 24.067,13.148 24.067,13.896 22.216,13.896 22.216,13.148 21.786,13.148 
		21.786,13.896 19.937,13.896 19.937,13.148 19.506,13.148 19.506,13.896 17.657,13.896 17.657,13.148 17.226,13.148 17.226,13.896 
		15.376,13.896 15.376,13.148 14.946,13.148 14.946,13.896 13.096,13.896 13.096,13.148 12.668,13.148 12.668,13.896 10.816,13.896 
		10.816,13.148 10.385,13.148 10.385,13.896 8.536,13.896 8.536,13.148 8.107,13.148 8.107,13.896 6.259,13.896 6.259,13.148 
		5.827,13.148 5.827,13.896 3.977,13.896 3.977,13.148 3.546,13.148 3.546,13.896 2.393,13.896 2.393,14.155 2.474,14.155 
		2.474,14.854 2.906,14.854 2.906,14.155 4.756,14.155 4.756,14.854 5.187,14.854 5.187,14.155 7.036,14.155 7.036,14.854 
		7.465,14.854 7.465,14.155 9.316,14.155 9.316,14.854 9.746,14.854 9.746,14.155 11.596,14.155 11.596,14.854 12.027,14.854 
		12.027,14.155 13.874,14.155 13.874,14.854 14.306,14.854 14.306,14.155 16.156,14.155 16.156,14.854 16.585,14.854 16.585,14.155 
		18.435,14.155 18.435,14.854 18.865,14.854 18.865,14.155 20.716,14.155 20.716,14.854 21.146,14.854 21.146,14.155 22.996,14.155 
		22.996,14.854 23.426,14.854 23.426,14.155 25.274,14.155 25.274,14.854 25.705,14.854 25.705,14.155 27.558,14.155 27.558,14.854 
		27.984,14.854 27.984,14.155 29.836,14.155 29.836,14.854 30.266,14.854 30.266,14.155 32.115,14.155 32.115,14.854 32.547,14.854 
		32.547,14.155 34.396,14.155 34.396,14.854 34.827,14.854 34.827,14.155 36.675,14.155 36.675,14.854 37.106,14.854 37.106,14.155 
		38.956,14.155 38.956,14.854 39.388,14.854 39.388,14.155 41.237,14.155 41.237,14.854 41.667,14.854 41.667,14.155 43.518,14.155 
		43.518,14.854 43.947,14.854 43.947,14.155 45.795,14.155 45.795,14.854 46.229,14.854 46.229,14.155 48.075,14.155 48.075,14.854 
		48.506,14.854 48.506,14.155 50.356,14.155 50.356,14.854 50.787,14.854 50.787,14.155 50.787,14.026 50.787,13.896 	"/>
</g>
</svg>
