<?xml version="1.0" encoding="utf-8"?>
<!-- Generator: Adobe Illustrator 16.0.0, SVG Export Plug-In . SVG Version: 6.00 Build 0)  -->
<!DOCTYPE svg PUBLIC "-//W3C//DTD SVG 1.1//EN" "http://www.w3.org/Graphics/SVG/1.1/DTD/svg11.dtd">
<svg version="1.1" id="图层_1" xmlns="http://www.w3.org/2000/svg" xmlns:xlink="http://www.w3.org/1999/xlink" x="0px" y="0px"
	 width="19px" height="40.35px" viewBox="0 0 19 40.35" enable-background="new 0 0 19 40.35" xml:space="preserve">
<path fill="#070606" d="M19,39.355c0,0.551-0.447,0.994-1,0.994H1c-0.553,0-1-0.443-1-0.994V0.997c0-0.549,0.447-0.994,1-0.994h17
	c0.553,0,1,0.445,1,0.994V39.355z"/>
<g>
	<path fill="#46474E" d="M10.867,33.059V6.875c0-0.207,0.076-0.377,0.172-0.377h1.686c0.094,0,0.17,0.17,0.17,0.377v26.184
		c0,0.209-0.076,0.377-0.17,0.377h-1.686C10.943,33.436,10.867,33.268,10.867,33.059"/>
	<path fill="none" stroke="#4C4D55" stroke-miterlimit="10" d="M5.635,33.658V6.223c0-0.571,0.428-1.032,0.955-1.032h8.035
		c0.529,0,0.955,0.461,0.955,1.032v27.435c0,0.566-0.426,1.029-0.955,1.029H6.59C6.063,34.688,5.635,34.225,5.635,33.658z"/>
	<rect x="3.064" y="4.916" fill="#46474E" width="1.695" height="30.047"/>
</g>
</svg>
