<?xml version="1.0" encoding="utf-8"?>
<!-- Generator: Adobe Illustrator 16.0.0, SVG Export Plug-In . SVG Version: 6.00 Build 0)  -->
<!DOCTYPE svg PUBLIC "-//W3C//DTD SVG 1.1//EN" "http://www.w3.org/Graphics/SVG/1.1/DTD/svg11.dtd">
<svg version="1.1" id="图层_1" xmlns="http://www.w3.org/2000/svg" xmlns:xlink="http://www.w3.org/1999/xlink" x="0px" y="0px"
	 width="21.38px" height="10.67px" viewBox="0 0 21.38 10.67" enable-background="new 0 0 21.38 10.67" xml:space="preserve">
<path fill="#070606" d="M21.377,9.669c0,0.553-0.447,1-1,1H1.002c-0.553,0-1-0.447-1-1V1.001c0-0.552,0.447-1,1-1h19.375
	c0.553,0,1,0.448,1,1V9.669z"/>
<path fill="#464646" d="M16.496,9.573H4.883c-0.383,0-0.746-0.16-1.005-0.441L1.903,6.97C1.675,6.718,1.547,6.392,1.547,6.05V2.458
	c0-0.752,0.608-1.363,1.361-1.363h15.56c0.754,0,1.363,0.611,1.363,1.363V6.05c0,0.342-0.127,0.668-0.357,0.92l-1.973,2.162
	C17.242,9.413,16.879,9.573,16.496,9.573"/>
<path fill="none" stroke="#BABAB9" stroke-width="0.75" stroke-miterlimit="10" d="M16.496,9.573H4.883
	c-0.383,0-0.746-0.16-1.005-0.441L1.903,6.97C1.675,6.718,1.547,6.392,1.547,6.05V2.458c0-0.752,0.608-1.363,1.361-1.363h15.56
	c0.754,0,1.363,0.611,1.363,1.363V6.05c0,0.342-0.127,0.668-0.357,0.92l-1.973,2.162C17.242,9.413,16.879,9.573,16.496,9.573z"/>
<rect x="4.056" y="5.282" fill="#AFAFAF" width="13.266" height="1.192"/>
</svg>
