<?xml version="1.0" encoding="utf-8"?>
<!-- Generator: Adobe Illustrator 16.0.0, SVG Export Plug-In . SVG Version: 6.00 Build 0)  -->
<!DOCTYPE svg PUBLIC "-//W3C//DTD SVG 1.1//EN" "http://www.w3.org/Graphics/SVG/1.1/DTD/svg11.dtd">
<svg version="1.1" id="图层_1" xmlns="http://www.w3.org/2000/svg" xmlns:xlink="http://www.w3.org/1999/xlink" x="0px" y="0px"
	 width="38.54px" height="18.86px" viewBox="0 0 38.54 18.86" enable-background="new 0 0 38.54 18.86" xml:space="preserve">
<g>
	<path fill="#040000" d="M36.729,18.408H1.812c-0.725,0-1.313-0.768-1.313-1.713V2.262c0-0.947,0.588-1.713,1.313-1.713h34.917
		c0.723,0,1.313,0.766,1.313,1.713v14.433C38.041,17.641,37.451,18.408,36.729,18.408z"/>
	<path fill="#BABAB9" d="M36.729,18.908H1.812c-1,0-1.813-0.992-1.813-2.213V2.262c0-1.22,0.813-2.213,1.813-2.213h34.917
		c0.999,0,1.813,0.993,1.813,2.213v14.433C38.541,17.916,37.728,18.908,36.729,18.908z M1.812,1.049C1.372,1.049,1,1.605,1,2.262
		v14.433c0,0.658,0.372,1.213,0.813,1.213h34.917c0.44,0,0.813-0.555,0.813-1.213V2.262c0-0.657-0.372-1.213-0.813-1.213H1.812z"/>
</g>
<g>
	<path fill="#324B66" d="M35.967,7.618H2.644c-0.266,0-0.479-0.117-0.479-0.258V4.831c0-0.141,0.213-0.256,0.479-0.256h33.323
		c0.266,0,0.479,0.115,0.479,0.256V7.36C36.445,7.5,36.232,7.618,35.967,7.618"/>
</g>
</svg>
