<?xml version="1.0" encoding="utf-8"?>
<!-- Generator: Adobe Illustrator 19.0.0, SVG Export Plug-In . SVG Version: 6.00 Build 0)  -->
<svg version="1.1" id="图层_1" xmlns="http://www.w3.org/2000/svg" xmlns:xlink="http://www.w3.org/1999/xlink" x="0px" y="0px"
	 width="81.7px" height="33.1px" viewBox="0 26.9 81.7 33.1" style="enable-background:new 0 26.9 81.7 33.1;" xml:space="preserve"
	>
<style type="text/css">
	.st0{fill:#161718;}
	.st1{fill:none;stroke:#BABAB9;stroke-miterlimit:10;}
	.st2{fill:#363F94;stroke:#040000;stroke-miterlimit:10;}
	.st3{fill:#040000;}
	.st4{fill:#B2B2B2;}
</style>
<polygon class="st0" points="18.1,60 8.7,43.5 18.1,26.9 64.9,26.9 74.3,43.5 64.9,60 "/>
<path class="st0" d="M81.7,44.2c0,5.9-4.7,10.7-10.5,10.7H10.6C4.8,54.9,0,50.1,0,44.2l0,0c0-5.9,4.7-10.7,10.5-10.7h60.6
	C77,33.4,81.7,38.2,81.7,44.2L81.7,44.2z"/>
<path class="st1" d="M25,31.8H58c4.7,0,8.3,4,7.6,8.4l-1.6,10.1c-0.6,3.6-3.8,6.2-7.6,6.2H26.7c-3.8,0-7-2.6-7.6-6.2l-1.6-10.2
	C16.8,35.8,20.4,31.8,25,31.8z"/>
<path class="st2" d="M58,33.4c1.9,0,3.6,0.8,4.7,2.2c1,1.2,1.5,2.8,1.2,4.3l-1.6,10.1c-0.4,2.7-3,4.8-5.9,4.8H26.7
	c-2.9,0-5.5-2.1-5.9-4.8l-1.6-10.1c-0.2-1.6,0.2-3.1,1.2-4.3c1.1-1.4,2.9-2.2,4.7-2.2C25,33.4,58,33.4,58,33.4z"/>
<g>
	<path class="st3" d="M52.8,38.2c0-1.1,0.9-2,2-2c1.1,0,2,0.9,2,2s-0.9,2-2,2C53.7,40.2,52.8,39.3,52.8,38.2"/>
	<path class="st3" d="M45.1,38.2c0-1.1,0.9-2,2-2c1.1,0,2,0.9,2,2s-0.9,2-2,2C46,40.2,45.1,39.3,45.1,38.2"/>
	<path class="st3" d="M37.5,38.2c0-1.1,0.9-2,2-2s2,0.9,2,2s-0.9,2-2,2S37.5,39.3,37.5,38.2"/>
	<path class="st3" d="M29.9,38.2c0-1.1,0.9-2,2-2c1.1,0,2,0.9,2,2s-0.9,2-2,2C30.8,40.2,29.9,39.3,29.9,38.2"/>
	<path class="st3" d="M22.3,38.2c0-1.1,0.9-2,2-2s2,0.9,2,2c0,1.1-0.9,2-2,2S22.3,39.3,22.3,38.2"/>
</g>
<g>
	<path class="st3" d="M56.8,44.5c0-1.1,0.9-2,2-2s2,0.9,2,2s-0.9,2-2,2S56.8,45.6,56.8,44.5"/>
	<path class="st3" d="M49.1,44.5c0-1.1,0.9-2,2-2c1.1,0,2,0.9,2,2s-0.9,2-2,2C50,46.6,49.1,45.6,49.1,44.5"/>
	<path class="st3" d="M41.5,44.5c0-1.1,0.9-2,2-2c1.1,0,2,0.9,2,2s-0.9,2-2,2C42.4,46.6,41.5,45.6,41.5,44.5"/>
	<path class="st3" d="M33.9,44.5c0-1.1,0.9-2,2-2s2,0.9,2,2s-0.9,2-2,2S33.9,45.6,33.9,44.5"/>
	<path class="st3" d="M26.3,44.5c0-1.1,0.9-2,2-2s2,0.9,2,2c0,1.1-0.9,2-2,2S26.3,45.6,26.3,44.5"/>
</g>
<g>
	<path class="st3" d="M52.8,50.9c0-1.1,0.9-2,2-2c1.1,0,2,0.9,2,2s-0.9,2-2,2C53.7,52.9,52.8,52,52.8,50.9"/>
	<path class="st3" d="M45.1,50.9c0-1.1,0.9-2,2-2c1.1,0,2,0.9,2,2s-0.9,2-2,2C46,52.9,45.1,52,45.1,50.9"/>
	<path class="st3" d="M37.5,50.9c0-1.1,0.9-2,2-2s2,0.9,2,2s-0.9,2-2,2S37.5,52,37.5,50.9"/>
	<path class="st3" d="M29.9,50.9c0-1.1,0.9-2,2-2c1.1,0,2,0.9,2,2s-0.9,2-2,2C30.8,52.9,29.9,52,29.9,50.9"/>
	<path class="st3" d="M22.3,50.9c0-1.1,0.9-2,2-2s2,0.9,2,2c0,1.1-0.9,2-2,2S22.3,52,22.3,50.9"/>
</g>
<path class="st4" d="M10,38.3c3.4,0,6.2,2.8,6.2,6.3c0,3.5-2.8,6.3-6.2,6.3S3.8,48,3.8,44.5C3.8,41.1,6.6,38.3,10,38.3"/>
<rect x="6.8" y="43.4" class="st3" width="6.4" height="2.3"/>
<rect x="8.9" y="41.3" class="st3" width="2.2" height="6.5"/>
<path class="st4" d="M72.3,38.3c3.4,0,6.2,2.8,6.2,6.3c0,3.5-2.8,6.3-6.2,6.3c-3.4,0-6.2-2.8-6.2-6.3S68.9,38.3,72.3,38.3"/>
<rect x="69.1" y="43.4" class="st3" width="6.4" height="2.3"/>
<rect x="71.2" y="41.3" class="st3" width="2.2" height="6.5"/>
</svg>
