<?xml version="1.0" encoding="utf-8"?>
<!-- Generator: Adobe Illustrator 16.0.0, SVG Export Plug-In . SVG Version: 6.00 Build 0)  -->
<!DOCTYPE svg PUBLIC "-//W3C//DTD SVG 1.1//EN" "http://www.w3.org/Graphics/SVG/1.1/DTD/svg11.dtd">
<svg version="1.1" id="图层_1" xmlns="http://www.w3.org/2000/svg" xmlns:xlink="http://www.w3.org/1999/xlink" x="0px" y="0px"
	 width="37.24px" height="25.35px" viewBox="0 0 37.24 25.35" enable-background="new 0 0 37.24 25.35" xml:space="preserve">
<g>
	<path fill="#181818" d="M37.241,24.844c0,0.279-0.162,0.506-0.36,0.506H0.358c-0.198,0-0.359-0.227-0.359-0.506V0.507
		C-0.001,0.225,0.16,0,0.358,0h36.522c0.198,0,0.36,0.225,0.36,0.507V24.844z"/>
	<polygon fill="#3F3F3F" points="34.37,4.938 34.37,1.453 30.433,1.453 30.433,0 29.558,0 29.558,1.453 24.833,1.453 24.833,0 
		23.959,0 23.959,1.453 20.51,1.453 20.51,2.687 16.264,2.687 16.264,1.453 13.691,1.453 13.691,0 12.816,0 12.816,1.453 
		8.091,1.453 8.091,0 7.217,0 7.217,1.453 2.403,1.453 2.403,4.783 1.004,4.783 1.004,12.677 2.403,12.677 2.403,10.252 
		34.37,10.252 34.37,12.83 35.77,12.83 35.77,4.938 	"/>
	<polygon fill="#424142" points="34.719,18.387 34.719,16.932 34.418,16.932 34.418,18.387 33.122,18.387 33.122,16.932 
		32.82,16.932 32.82,18.387 31.524,18.387 31.524,16.932 31.225,16.932 31.225,18.387 29.928,18.387 29.928,16.932 29.627,16.932 
		29.627,18.387 28.332,18.387 28.332,16.932 28.03,16.932 28.03,18.387 26.735,18.387 26.735,16.932 26.434,16.932 26.434,18.387 
		25.137,18.387 25.137,16.932 24.837,16.932 24.837,18.387 23.543,18.387 23.543,16.932 23.239,16.932 23.239,18.387 21.945,18.387 
		21.945,16.932 21.643,16.932 21.643,18.387 20.349,18.387 20.349,16.932 20.047,16.932 20.047,18.387 18.751,18.387 18.751,16.932 
		18.449,16.932 18.449,18.387 17.155,18.387 17.155,16.932 16.854,16.932 16.854,18.387 15.558,18.387 15.558,16.932 15.256,16.932 
		15.256,18.387 13.961,18.387 13.961,16.932 13.659,16.932 13.659,18.387 12.365,18.387 12.365,16.932 12.063,16.932 12.063,18.387 
		10.768,18.387 10.768,16.932 10.467,16.932 10.467,18.387 9.17,18.387 9.17,16.932 8.871,16.932 8.871,18.387 7.573,18.387 
		7.573,16.932 7.271,16.932 7.271,18.387 5.977,18.387 5.977,16.932 5.677,16.932 5.677,18.387 4.382,18.387 4.382,16.932 
		4.08,16.932 4.08,18.387 2.785,18.387 2.785,16.932 2.482,16.932 2.482,18.387 1.675,18.387 1.675,18.887 1.731,18.887 
		1.731,20.244 2.034,20.244 2.034,18.887 3.329,18.887 3.329,20.244 3.632,20.244 3.632,18.887 4.926,18.887 4.926,20.244 
		5.227,20.244 5.227,18.887 6.523,18.887 6.523,20.244 6.824,20.244 6.824,18.887 8.12,18.887 8.12,20.244 8.422,20.244 
		8.422,18.887 9.715,18.887 9.715,20.244 10.018,20.244 10.018,18.887 11.313,18.887 11.313,20.244 11.614,20.244 11.614,18.887 
		12.909,18.887 12.909,20.244 13.211,20.244 13.211,18.887 14.506,18.887 14.506,20.244 14.807,20.244 14.807,18.887 16.103,18.887 
		16.103,20.244 16.404,20.244 16.404,18.887 17.699,18.887 17.699,20.244 18,20.244 18,18.887 19.298,18.887 19.298,20.244 
		19.598,20.244 19.598,18.887 20.894,18.887 20.894,20.244 21.193,20.244 21.193,18.887 22.489,18.887 22.489,20.244 22.792,20.244 
		22.792,18.887 24.086,18.887 24.086,20.244 24.39,20.244 24.39,18.887 25.683,18.887 25.683,20.244 25.985,20.244 25.985,18.887 
		27.28,18.887 27.28,20.244 27.583,20.244 27.583,18.887 28.877,18.887 28.877,20.244 29.179,20.244 29.179,18.887 30.475,18.887 
		30.475,20.244 30.774,20.244 30.774,18.887 32.069,18.887 32.069,20.244 32.373,20.244 32.373,18.887 33.667,18.887 33.667,20.244 
		33.969,20.244 33.969,18.887 35.264,18.887 35.264,20.244 35.565,20.244 35.565,18.887 35.565,18.637 35.565,18.387 	"/>
	<polygon fill="#424142" points="34.719,22.768 34.719,22.02 34.418,22.02 34.418,22.768 33.122,22.768 33.122,22.02 32.82,22.02 
		32.82,22.768 31.524,22.768 31.524,22.02 31.225,22.02 31.225,22.768 29.928,22.768 29.928,22.02 29.627,22.02 29.627,22.768 
		28.332,22.768 28.332,22.02 28.03,22.02 28.03,22.768 26.735,22.768 26.735,22.02 26.434,22.02 26.434,22.768 25.137,22.768 
		25.137,22.02 24.837,22.02 24.837,22.768 23.543,22.768 23.543,22.02 23.239,22.02 23.239,22.768 21.945,22.768 21.945,22.02 
		21.643,22.02 21.643,22.768 20.349,22.768 20.349,22.02 20.047,22.02 20.047,22.768 18.751,22.768 18.751,22.02 18.449,22.02 
		18.449,22.768 17.155,22.768 17.155,22.02 16.854,22.02 16.854,22.768 15.558,22.768 15.558,22.02 15.256,22.02 15.256,22.768 
		13.961,22.768 13.961,22.02 13.659,22.02 13.659,22.768 12.365,22.768 12.365,22.02 12.063,22.02 12.063,22.768 10.768,22.768 
		10.768,22.02 10.467,22.02 10.467,22.768 9.17,22.768 9.17,22.02 8.871,22.02 8.871,22.768 7.573,22.768 7.573,22.02 7.271,22.02 
		7.271,22.768 5.977,22.768 5.977,22.02 5.677,22.02 5.677,22.768 4.382,22.768 4.382,22.02 4.08,22.02 4.08,22.768 2.785,22.768 
		2.785,22.02 2.482,22.02 2.482,22.768 1.675,22.768 1.675,23.025 1.731,23.025 1.731,23.727 2.034,23.727 2.034,23.025 
		3.329,23.025 3.329,23.727 3.632,23.727 3.632,23.025 4.926,23.025 4.926,23.727 5.227,23.727 5.227,23.025 6.523,23.025 
		6.523,23.727 6.824,23.727 6.824,23.025 8.12,23.025 8.12,23.727 8.422,23.727 8.422,23.025 9.715,23.025 9.715,23.727 
		10.018,23.727 10.018,23.025 11.313,23.025 11.313,23.727 11.614,23.727 11.614,23.025 12.909,23.025 12.909,23.727 13.211,23.727 
		13.211,23.025 14.506,23.025 14.506,23.727 14.807,23.727 14.807,23.025 16.103,23.025 16.103,23.727 16.404,23.727 16.404,23.025 
		17.699,23.025 17.699,23.727 18,23.727 18,23.025 19.298,23.025 19.298,23.727 19.598,23.727 19.598,23.025 20.894,23.025 
		20.894,23.727 21.193,23.727 21.193,23.025 22.489,23.025 22.489,23.727 22.792,23.727 22.792,23.025 24.086,23.025 24.086,23.727 
		24.39,23.727 24.39,23.025 25.683,23.025 25.683,23.727 25.985,23.727 25.985,23.025 27.28,23.025 27.28,23.727 27.583,23.727 
		27.583,23.025 28.877,23.025 28.877,23.727 29.179,23.727 29.179,23.025 30.475,23.025 30.475,23.727 30.774,23.727 30.774,23.025 
		32.069,23.025 32.069,23.727 32.373,23.727 32.373,23.025 33.667,23.025 33.667,23.727 33.969,23.727 33.969,23.025 35.264,23.025 
		35.264,23.727 35.565,23.727 35.565,23.025 35.565,22.896 35.565,22.768 	"/>
	<polygon fill="#424142" points="34.719,13.897 34.719,13.148 34.418,13.148 34.418,13.897 33.122,13.897 33.122,13.148 
		32.82,13.148 32.82,13.897 31.524,13.897 31.524,13.148 31.225,13.148 31.225,13.897 29.928,13.897 29.928,13.148 29.627,13.148 
		29.627,13.897 28.332,13.897 28.332,13.148 28.03,13.148 28.03,13.897 26.735,13.897 26.735,13.148 26.434,13.148 26.434,13.897 
		25.137,13.897 25.137,13.148 24.837,13.148 24.837,13.897 23.543,13.897 23.543,13.148 23.239,13.148 23.239,13.897 21.945,13.897 
		21.945,13.148 21.643,13.148 21.643,13.897 20.349,13.897 20.349,13.148 20.047,13.148 20.047,13.897 18.751,13.897 18.751,13.148 
		18.449,13.148 18.449,13.897 17.155,13.897 17.155,13.148 16.854,13.148 16.854,13.897 15.558,13.897 15.558,13.148 15.256,13.148 
		15.256,13.897 13.961,13.897 13.961,13.148 13.659,13.148 13.659,13.897 12.365,13.897 12.365,13.148 12.063,13.148 12.063,13.897 
		10.768,13.897 10.768,13.148 10.467,13.148 10.467,13.897 9.17,13.897 9.17,13.148 8.871,13.148 8.871,13.897 7.573,13.897 
		7.573,13.148 7.271,13.148 7.271,13.897 5.977,13.897 5.977,13.148 5.677,13.148 5.677,13.897 4.382,13.897 4.382,13.148 
		4.08,13.148 4.08,13.897 2.785,13.897 2.785,13.148 2.482,13.148 2.482,13.897 1.675,13.897 1.675,14.154 1.731,14.154 
		1.731,14.855 2.034,14.855 2.034,14.154 3.329,14.154 3.329,14.855 3.632,14.855 3.632,14.154 4.926,14.154 4.926,14.855 
		5.227,14.855 5.227,14.154 6.523,14.154 6.523,14.855 6.824,14.855 6.824,14.154 8.12,14.154 8.12,14.855 8.422,14.855 
		8.422,14.154 9.715,14.154 9.715,14.855 10.018,14.855 10.018,14.154 11.313,14.154 11.313,14.855 11.614,14.855 11.614,14.154 
		12.909,14.154 12.909,14.855 13.211,14.855 13.211,14.154 14.506,14.154 14.506,14.855 14.807,14.855 14.807,14.154 16.103,14.154 
		16.103,14.855 16.404,14.855 16.404,14.154 17.699,14.154 17.699,14.855 18,14.855 18,14.154 19.298,14.154 19.298,14.855 
		19.598,14.855 19.598,14.154 20.894,14.154 20.894,14.855 21.193,14.855 21.193,14.154 22.489,14.154 22.489,14.855 22.792,14.855 
		22.792,14.154 24.086,14.154 24.086,14.855 24.39,14.855 24.39,14.154 25.683,14.154 25.683,14.855 25.985,14.855 25.985,14.154 
		27.28,14.154 27.28,14.855 27.583,14.855 27.583,14.154 28.877,14.154 28.877,14.855 29.179,14.855 29.179,14.154 30.475,14.154 
		30.475,14.855 30.774,14.855 30.774,14.154 32.069,14.154 32.069,14.855 32.373,14.855 32.373,14.154 33.667,14.154 33.667,14.855 
		33.969,14.855 33.969,14.154 35.264,14.154 35.264,14.855 35.565,14.855 35.565,14.154 35.565,14.025 35.565,13.897 	"/>
</g>
</svg>
