<?xml version="1.0" encoding="utf-8"?>
<!-- Generator: Adobe Illustrator 16.0.0, SVG Export Plug-In . SVG Version: 6.00 Build 0)  -->
<!DOCTYPE svg PUBLIC "-//W3C//DTD SVG 1.1//EN" "http://www.w3.org/Graphics/SVG/1.1/DTD/svg11.dtd">
<svg version="1.1" id="图层_1" xmlns="http://www.w3.org/2000/svg" xmlns:xlink="http://www.w3.org/1999/xlink" x="0px" y="0px"
	 width="37.26px" height="26.54px" viewBox="0 0 37.26 26.54" enable-background="new 0 0 37.26 26.54" xml:space="preserve">
<g>
	<path fill="#231815" d="M35.653,14.021h0.313h0.315c0.245,0,0.444-0.195,0.444-0.438v-0.441c0-0.241-0.199-0.438-0.444-0.438
		h-0.315v-5.05c0-0.242-0.198-0.441-0.444-0.441h-7.677V2.761c0-0.116-0.12-0.212-0.268-0.212h-3.489V0.14
		c0-0.078-0.08-0.139-0.175-0.139H12.638c-0.098,0-0.177,0.061-0.177,0.139v2.409H9.145c-0.149,0-0.27,0.096-0.27,0.212v4.451H1.2
		c-0.246,0-0.445,0.199-0.445,0.441v5.05H0.44c-0.244,0-0.443,0.197-0.443,0.438v0.441c0,0.242,0.199,0.438,0.443,0.438h0.314H1.07
		h0.259v5.418H1.07H0.755H0.44c-0.244,0-0.443,0.197-0.443,0.439v0.439c0,0.246,0.199,0.439,0.443,0.439h0.314v5.344
		c0,0.242,0.199,0.438,0.445,0.438h34.322c0.246,0,0.444-0.195,0.444-0.438v-5.344h0.315c0.245,0,0.444-0.193,0.444-0.439v-0.439
		c0-0.242-0.199-0.439-0.444-0.439h-0.315h-0.313h-0.26v-5.418H35.653z"/>
	<rect x="7.164" y="14.79" fill="#9F9E9F" width="1.343" height="9.518"/>
	<rect x="7.164" y="20.032" fill="#7F8081" width="1.343" height="4.275"/>
	<rect x="7.164" y="21.528" fill="#5E5E60" width="1.343" height="2.781"/>
	<rect x="10.17" y="14.79" fill="#9F9E9F" width="1.345" height="9.518"/>
	<rect x="10.17" y="20.032" fill="#7F8081" width="1.345" height="4.275"/>
	<rect x="10.17" y="21.528" fill="#5E5E60" width="1.345" height="2.781"/>
	<rect x="13.179" y="14.79" fill="#9F9E9F" width="1.343" height="9.518"/>
	<rect x="13.179" y="20.032" fill="#7F8081" width="1.343" height="4.275"/>
	<rect x="13.179" y="21.528" fill="#5E5E60" width="1.343" height="2.781"/>
	<rect x="16.187" y="14.79" fill="#9F9E9F" width="1.344" height="9.518"/>
	<rect x="16.187" y="20.032" fill="#7F8081" width="1.344" height="4.275"/>
	<rect x="16.187" y="21.528" fill="#5E5E60" width="1.344" height="2.781"/>
	<rect x="19.193" y="14.79" fill="#9F9E9F" width="1.343" height="9.518"/>
	<rect x="19.193" y="20.032" fill="#7F8081" width="1.343" height="4.275"/>
	<rect x="19.193" y="21.528" fill="#5E5E60" width="1.343" height="2.781"/>
	<rect x="22.201" y="14.79" fill="#9F9E9F" width="1.343" height="9.518"/>
	<rect x="22.201" y="20.032" fill="#7F8081" width="1.343" height="4.275"/>
	<rect x="22.201" y="21.528" fill="#5E5E60" width="1.343" height="2.781"/>
	<rect x="25.208" y="14.79" fill="#9F9E9F" width="1.344" height="9.518"/>
	<rect x="25.208" y="20.032" fill="#7F8081" width="1.344" height="4.275"/>
	<rect x="25.208" y="21.528" fill="#5E5E60" width="1.344" height="2.781"/>
	<rect x="28.216" y="14.79" fill="#9F9E9F" width="1.344" height="9.518"/>
	<rect x="28.216" y="20.032" fill="#7F8081" width="1.344" height="4.275"/>
	<rect x="28.216" y="21.528" fill="#5E5E60" width="1.344" height="2.781"/>
	<rect x="-0.003" y="2.293" fill="#5E6064" width="7.168" height="2.942"/>
	<rect x="30.092" y="2.293" fill="#5E6064" width="7.168" height="2.942"/>
</g>
</svg>
