<?xml version="1.0" encoding="utf-8"?>
<!-- Generator: Adobe Illustrator 16.0.0, SVG Export Plug-In . SVG Version: 6.00 Build 0)  -->
<!DOCTYPE svg PUBLIC "-//W3C//DTD SVG 1.1//EN" "http://www.w3.org/Graphics/SVG/1.1/DTD/svg11.dtd">
<svg version="1.1" id="图层_1" xmlns="http://www.w3.org/2000/svg" xmlns:xlink="http://www.w3.org/1999/xlink" x="0px" y="0px"
	 width="55.75px" height="28.09px" viewBox="0 0 55.75 28.09" enable-background="new 0 0 55.75 28.09" xml:space="preserve">
<g>
	<path fill="#181818" d="M55.75,27.525c0,0.311-0.242,0.563-0.538,0.563H0.538c-0.298,0-0.539-0.252-0.539-0.563V0.563
		C-0.001,0.25,0.24,0,0.538,0h54.674c0.296,0,0.538,0.25,0.538,0.563V27.525z"/>
	<polygon fill="#3F3F3F" points="51.452,5.471 51.452,1.61 45.559,1.61 45.559,0 44.248,0 44.248,1.61 37.175,1.61 37.175,0 
		35.865,0 35.865,1.61 30.704,1.61 30.704,2.975 24.348,2.975 24.348,1.61 20.495,1.61 20.495,0 19.186,0 19.186,1.61 12.112,1.61 
		12.112,0 10.803,0 10.803,1.61 3.599,1.61 3.599,5.301 1.501,5.301 1.501,14.044 3.599,14.044 3.599,11.359 51.452,11.359 
		51.452,14.215 53.548,14.215 53.548,5.471 	"/>
	<polygon fill="#424142" points="51.975,20.373 51.975,18.76 51.523,18.76 51.523,20.373 49.584,20.373 49.584,18.76 49.133,18.76 
		49.133,20.373 47.192,20.373 47.192,18.76 46.742,18.76 46.742,20.373 44.802,20.373 44.802,18.76 44.352,18.76 44.352,20.373 
		42.413,20.373 42.413,18.76 41.962,18.76 41.962,20.373 40.022,20.373 40.022,18.76 39.57,18.76 39.57,20.373 37.631,20.373 
		37.631,18.76 37.182,18.76 37.182,20.373 35.242,20.373 35.242,18.76 34.79,18.76 34.79,20.373 32.852,20.373 32.852,18.76 
		32.399,18.76 32.399,20.373 30.462,20.373 30.462,18.76 30.01,18.76 30.01,20.373 28.071,20.373 28.071,18.76 27.619,18.76 
		27.619,20.373 25.68,20.373 25.68,18.76 25.229,18.76 25.229,20.373 23.289,20.373 23.289,18.76 22.838,18.76 22.838,20.373 
		20.899,20.373 20.899,18.76 20.449,18.76 20.449,20.373 18.511,20.373 18.511,18.76 18.058,18.76 18.058,20.373 16.119,20.373 
		16.119,18.76 15.668,18.76 15.668,20.373 13.729,20.373 13.729,18.76 13.278,18.76 13.278,20.373 11.338,20.373 11.338,18.76 
		10.887,18.76 10.887,20.373 8.948,20.373 8.948,18.76 8.498,18.76 8.498,20.373 6.56,20.373 6.56,18.76 6.107,18.76 6.107,20.373 
		4.168,20.373 4.168,18.76 3.717,18.76 3.717,20.373 2.507,20.373 2.507,20.926 2.593,20.926 2.593,22.43 3.045,22.43 3.045,20.926 
		4.983,20.926 4.983,22.43 5.436,22.43 5.436,20.926 7.375,20.926 7.375,22.43 7.825,22.43 7.825,20.926 9.766,20.926 9.766,22.43 
		10.216,22.43 10.216,20.926 12.155,20.926 12.155,22.43 12.607,22.43 12.607,20.926 14.544,20.926 14.544,22.43 14.997,22.43 
		14.997,20.926 16.937,20.926 16.937,22.43 17.386,22.43 17.386,20.926 19.326,20.926 19.326,22.43 19.776,22.43 19.776,20.926 
		21.716,20.926 21.716,22.43 22.167,22.43 22.167,20.926 24.106,20.926 24.106,22.43 24.558,22.43 24.558,20.926 26.495,20.926 
		26.495,22.43 26.947,22.43 26.947,20.926 28.889,20.926 28.889,22.43 29.338,22.43 29.338,20.926 31.277,20.926 31.277,22.43 
		31.729,22.43 31.729,20.926 33.667,20.926 33.667,22.43 34.119,22.43 34.119,20.926 36.058,20.926 36.058,22.43 36.51,22.43 
		36.51,20.926 38.447,20.926 38.447,22.43 38.899,22.43 38.899,20.926 40.839,20.926 40.839,22.43 41.29,22.43 41.29,20.926 
		43.229,20.926 43.229,22.43 43.681,22.43 43.681,20.926 45.62,20.926 45.62,22.43 46.072,22.43 46.072,20.926 48.008,20.926 
		48.008,22.43 48.461,22.43 48.461,20.926 50.399,20.926 50.399,22.43 50.851,22.43 50.851,20.926 52.791,20.926 52.791,22.43 
		53.241,22.43 53.241,20.926 53.241,20.648 53.241,20.373 	"/>
	<polygon fill="#424142" points="51.975,25.225 51.975,24.396 51.523,24.396 51.523,25.225 49.584,25.225 49.584,24.396 
		49.133,24.396 49.133,25.225 47.192,25.225 47.192,24.396 46.742,24.396 46.742,25.225 44.802,25.225 44.802,24.396 44.352,24.396 
		44.352,25.225 42.413,25.225 42.413,24.396 41.962,24.396 41.962,25.225 40.022,25.225 40.022,24.396 39.57,24.396 39.57,25.225 
		37.631,25.225 37.631,24.396 37.182,24.396 37.182,25.225 35.242,25.225 35.242,24.396 34.79,24.396 34.79,25.225 32.852,25.225 
		32.852,24.396 32.399,24.396 32.399,25.225 30.462,25.225 30.462,24.396 30.01,24.396 30.01,25.225 28.071,25.225 28.071,24.396 
		27.619,24.396 27.619,25.225 25.68,25.225 25.68,24.396 25.229,24.396 25.229,25.225 23.289,25.225 23.289,24.396 22.838,24.396 
		22.838,25.225 20.899,25.225 20.899,24.396 20.449,24.396 20.449,25.225 18.511,25.225 18.511,24.396 18.058,24.396 18.058,25.225 
		16.119,25.225 16.119,24.396 15.668,24.396 15.668,25.225 13.729,25.225 13.729,24.396 13.278,24.396 13.278,25.225 11.338,25.225 
		11.338,24.396 10.887,24.396 10.887,25.225 8.948,25.225 8.948,24.396 8.498,24.396 8.498,25.225 6.56,25.225 6.56,24.396 
		6.107,24.396 6.107,25.225 4.168,25.225 4.168,24.396 3.717,24.396 3.717,25.225 2.507,25.225 2.507,25.512 2.593,25.512 
		2.593,26.287 3.045,26.287 3.045,25.512 4.983,25.512 4.983,26.287 5.436,26.287 5.436,25.512 7.375,25.512 7.375,26.287 
		7.825,26.287 7.825,25.512 9.766,25.512 9.766,26.287 10.216,26.287 10.216,25.512 12.155,25.512 12.155,26.287 12.607,26.287 
		12.607,25.512 14.544,25.512 14.544,26.287 14.997,26.287 14.997,25.512 16.937,25.512 16.937,26.287 17.386,26.287 17.386,25.512 
		19.326,25.512 19.326,26.287 19.776,26.287 19.776,25.512 21.716,25.512 21.716,26.287 22.167,26.287 22.167,25.512 24.106,25.512 
		24.106,26.287 24.558,26.287 24.558,25.512 26.495,25.512 26.495,26.287 26.947,26.287 26.947,25.512 28.889,25.512 28.889,26.287 
		29.338,26.287 29.338,25.512 31.277,25.512 31.277,26.287 31.729,26.287 31.729,25.512 33.667,25.512 33.667,26.287 34.119,26.287 
		34.119,25.512 36.058,25.512 36.058,26.287 36.51,26.287 36.51,25.512 38.447,25.512 38.447,26.287 38.899,26.287 38.899,25.512 
		40.839,25.512 40.839,26.287 41.29,26.287 41.29,25.512 43.229,25.512 43.229,26.287 43.681,26.287 43.681,25.512 45.62,25.512 
		45.62,26.287 46.072,26.287 46.072,25.512 48.008,25.512 48.008,26.287 48.461,26.287 48.461,25.512 50.399,25.512 50.399,26.287 
		50.851,26.287 50.851,25.512 52.791,25.512 52.791,26.287 53.241,26.287 53.241,25.512 53.241,25.369 53.241,25.225 	"/>
	<polygon fill="#424142" points="51.975,15.398 51.975,14.568 51.523,14.568 51.523,15.398 49.584,15.398 49.584,14.568 
		49.133,14.568 49.133,15.398 47.192,15.398 47.192,14.568 46.742,14.568 46.742,15.398 44.802,15.398 44.802,14.568 44.352,14.568 
		44.352,15.398 42.413,15.398 42.413,14.568 41.962,14.568 41.962,15.398 40.022,15.398 40.022,14.568 39.57,14.568 39.57,15.398 
		37.631,15.398 37.631,14.568 37.182,14.568 37.182,15.398 35.242,15.398 35.242,14.568 34.79,14.568 34.79,15.398 32.852,15.398 
		32.852,14.568 32.399,14.568 32.399,15.398 30.462,15.398 30.462,14.568 30.01,14.568 30.01,15.398 28.071,15.398 28.071,14.568 
		27.619,14.568 27.619,15.398 25.68,15.398 25.68,14.568 25.229,14.568 25.229,15.398 23.289,15.398 23.289,14.568 22.838,14.568 
		22.838,15.398 20.899,15.398 20.899,14.568 20.449,14.568 20.449,15.398 18.511,15.398 18.511,14.568 18.058,14.568 18.058,15.398 
		16.119,15.398 16.119,14.568 15.668,14.568 15.668,15.398 13.729,15.398 13.729,14.568 13.278,14.568 13.278,15.398 11.338,15.398 
		11.338,14.568 10.887,14.568 10.887,15.398 8.948,15.398 8.948,14.568 8.498,14.568 8.498,15.398 6.56,15.398 6.56,14.568 
		6.107,14.568 6.107,15.398 4.168,15.398 4.168,14.568 3.717,14.568 3.717,15.398 2.507,15.398 2.507,15.682 2.593,15.682 
		2.593,16.459 3.045,16.459 3.045,15.682 4.983,15.682 4.983,16.459 5.436,16.459 5.436,15.682 7.375,15.682 7.375,16.459 
		7.825,16.459 7.825,15.682 9.766,15.682 9.766,16.459 10.216,16.459 10.216,15.682 12.155,15.682 12.155,16.459 12.607,16.459 
		12.607,15.682 14.544,15.682 14.544,16.459 14.997,16.459 14.997,15.682 16.937,15.682 16.937,16.459 17.386,16.459 17.386,15.682 
		19.326,15.682 19.326,16.459 19.776,16.459 19.776,15.682 21.716,15.682 21.716,16.459 22.167,16.459 22.167,15.682 24.106,15.682 
		24.106,16.459 24.558,16.459 24.558,15.682 26.495,15.682 26.495,16.459 26.947,16.459 26.947,15.682 28.889,15.682 28.889,16.459 
		29.338,16.459 29.338,15.682 31.277,15.682 31.277,16.459 31.729,16.459 31.729,15.682 33.667,15.682 33.667,16.459 34.119,16.459 
		34.119,15.682 36.058,15.682 36.058,16.459 36.51,16.459 36.51,15.682 38.447,15.682 38.447,16.459 38.899,16.459 38.899,15.682 
		40.839,15.682 40.839,16.459 41.29,16.459 41.29,15.682 43.229,15.682 43.229,16.459 43.681,16.459 43.681,15.682 45.62,15.682 
		45.62,16.459 46.072,16.459 46.072,15.682 48.008,15.682 48.008,16.459 48.461,16.459 48.461,15.682 50.399,15.682 50.399,16.459 
		50.851,16.459 50.851,15.682 52.791,15.682 52.791,16.459 53.241,16.459 53.241,15.682 53.241,15.541 53.241,15.398 	"/>
</g>
</svg>
