<?xml version="1.0" encoding="utf-8"?>
<!-- Generator: Adobe Illustrator 16.0.0, SVG Export Plug-In . SVG Version: 6.00 Build 0)  -->
<!DOCTYPE svg PUBLIC "-//W3C//DTD SVG 1.1//EN" "http://www.w3.org/Graphics/SVG/1.1/DTD/svg11.dtd">
<svg version="1.1" id="图层_1" xmlns="http://www.w3.org/2000/svg" xmlns:xlink="http://www.w3.org/1999/xlink" x="0px" y="0px"
	 width="25.383px" height="88.735px" viewBox="0 0 25.383 88.735" enable-background="new 0 0 25.383 88.735" xml:space="preserve">
<g>
	<g>
		<path fill="#030000" d="M21.711,73.973v-4.075h3.672V18.84h-3.672v-4.081c0-4.979-4.038-7.391-9.02-7.391
			c-4.983,0-9.02,2.412-9.02,7.391v4.081H0v51.058h3.672v4.075c0,4.981,4.036,7.394,9.02,7.394
			C17.673,81.367,21.711,78.954,21.711,73.973z"/>
		<path fill="#B2B1B1" d="M21.041,73.353v-3.989h3.401v-49.99h-3.401v-3.989c0-4.875-3.739-7.203-8.35-7.203s-8.35,2.328-8.35,7.203
			v3.989H0.942v49.99h3.399v3.989c0,4.875,3.739,7.201,8.35,7.201S21.041,78.228,21.041,73.353z"/>
		<path fill="#231815" d="M5.033,64.688c-1.317-0.244-2.361-1.646-2.361-3.14V27.191c0-1.491,1.044-2.895,2.361-3.135l14.502-2.701
			c1.736-0.323,3.178,0.847,3.178,2.617v40.795c0,1.77-1.441,2.934-3.178,2.613L5.033,64.688z"/>
		<path fill="#B2B1B1" d="M5.63,63.688c-1.216-0.229-2.18-1.563-2.18-2.985v-32.67c0-1.415,0.964-2.749,2.18-2.981l13.373-2.568
			c1.599-0.307,2.929,0.806,2.929,2.49v38.794c0,1.683-1.33,2.792-2.929,2.485L5.63,63.688z"/>
		<path fill="#2B72A8" d="M6.36,62.603c-1.088-0.235-1.948-1.538-1.948-2.925V29.052c0-1.377,0.86-2.684,1.948-2.92l11.942-2.569
			c1.455-0.31,2.67,0.773,2.67,2.427v36.755c0,1.657-1.215,2.737-2.67,2.427L6.36,62.603z"/>
		<g>
			<g>
				<g>
					<rect x="16.283" y="29.158" fill="#080304" width="3.084" height="3.146"/>
					<rect x="16.283" y="30.729" fill="#9D9D9D" width="1.542" height="1.575"/>
				</g>
				<g>
					<rect x="16.283" y="35.146" fill="#080304" width="3.084" height="3.147"/>
					<rect x="16.283" y="36.717" fill="#9D9D9D" width="1.542" height="1.576"/>
				</g>
				<g>
					<rect x="16.283" y="41.136" fill="#080304" width="3.084" height="3.146"/>
					<rect x="16.283" y="42.708" fill="#9D9D9D" width="1.542" height="1.575"/>
				</g>
				<g>
					<rect x="16.283" y="47.122" fill="#080304" width="3.084" height="3.151"/>
					<rect x="16.283" y="48.696" fill="#9D9D9D" width="1.542" height="1.577"/>
				</g>
				<g>
					<rect x="16.283" y="53.113" fill="#080304" width="3.084" height="3.148"/>
					<rect x="16.283" y="54.686" fill="#9D9D9D" width="1.542" height="1.576"/>
				</g>
			</g>
			<g>
				<g>
					<rect x="6.018" y="29.437" fill="#080304" width="3.084" height="3.146"/>
					<rect x="6.018" y="31.01" fill="#9D9D9D" width="1.54" height="1.574"/>
				</g>
				<g>
					<rect x="6.018" y="35.424" fill="#080304" width="3.084" height="3.149"/>
					<rect x="6.018" y="36.999" fill="#9D9D9D" width="1.54" height="1.575"/>
				</g>
				<g>
					<rect x="6.018" y="41.416" fill="#080304" width="3.084" height="3.146"/>
					<rect x="6.018" y="42.987" fill="#9D9D9D" width="1.54" height="1.574"/>
				</g>
				<g>
					<rect x="6.018" y="47.402" fill="#080304" width="3.084" height="3.15"/>
					<rect x="6.018" y="48.977" fill="#9D9D9D" width="1.54" height="1.576"/>
				</g>
				<g>
					<rect x="6.018" y="53.394" fill="#080304" width="3.084" height="3.148"/>
					<rect x="6.018" y="54.965" fill="#9D9D9D" width="1.54" height="1.576"/>
				</g>
			</g>
			<g>
				<g>
					<rect x="11.149" y="32.816" fill="#080304" width="3.084" height="3.148"/>
					<rect x="11.149" y="34.388" fill="#9D9D9D" width="1.542" height="1.576"/>
				</g>
				<g>
					<rect x="11.149" y="38.803" fill="#080304" width="3.084" height="3.15"/>
					<rect x="11.149" y="40.377" fill="#9D9D9D" width="1.542" height="1.576"/>
				</g>
				<g>
					<rect x="11.149" y="44.794" fill="#080304" width="3.084" height="3.148"/>
					<rect x="11.149" y="46.366" fill="#9D9D9D" width="1.542" height="1.576"/>
				</g>
				<g>
					<rect x="11.149" y="50.783" fill="#080304" width="3.084" height="3.146"/>
					<rect x="11.149" y="52.354" fill="#9D9D9D" width="1.542" height="1.575"/>
				</g>
				<g>
					<rect x="11.149" y="56.772" fill="#080304" width="3.084" height="3.147"/>
					<rect x="11.149" y="58.345" fill="#9D9D9D" width="1.542" height="1.575"/>
				</g>
			</g>
		</g>
	</g>
	<g>
		<g>
			<polygon fill="#030000" points="6.521,3.56 12.691,0 18.862,3.56 18.862,10.688 12.691,14.251 6.521,10.688 			"/>
			<polygon fill="#B2B1B1" points="7.301,4.015 12.691,0.902 18.082,4.015 18.082,10.236 12.691,13.349 7.301,10.236 			"/>
			<circle fill="#030000" cx="12.691" cy="7.125" r="2.61"/>
		</g>
		<g>
			<polygon fill="#030000" points="6.521,78.046 12.691,74.483 18.862,78.046 18.862,85.174 12.691,88.735 6.521,85.174 			"/>
			<polygon fill="#B2B1B1" points="7.301,78.498 12.691,75.385 18.082,78.498 18.082,84.72 12.691,87.833 7.301,84.72 			"/>
			<path fill="#030000" d="M12.691,84.217c-1.443,0-2.611-1.163-2.611-2.609c0-1.441,1.168-2.609,2.611-2.609
				c1.441,0,2.607,1.168,2.607,2.609C15.299,83.054,14.133,84.217,12.691,84.217z"/>
		</g>
	</g>
</g>
</svg>
