<?xml version="1.0" encoding="utf-8"?>
<!-- Generator: Adobe Illustrator 16.0.0, SVG Export Plug-In . SVG Version: 6.00 Build 0)  -->
<!DOCTYPE svg PUBLIC "-//W3C//DTD SVG 1.1//EN" "http://www.w3.org/Graphics/SVG/1.1/DTD/svg11.dtd">
<svg version="1.1" id="图层_1" xmlns="http://www.w3.org/2000/svg" xmlns:xlink="http://www.w3.org/1999/xlink" x="0px" y="0px"
	 width="172.347px" height="32.436px" viewBox="0 0 172.347 32.436" enable-background="new 0 0 172.347 32.436"
	 xml:space="preserve">
<g>
	<rect fill="#090A0A" width="172.347" height="32.436"/>
	<rect x="1.617" y="2.769" fill="#474749" width="168.5" height="26"/>
	<g>
		<path fill="#8F8D8B" d="M159.284,23.171c0,0.317-0.293,0.574-0.655,0.574h-34.406c-0.362,0-0.655-0.257-0.655-0.574V9.265
			c0-0.317,0.293-0.574,0.655-0.574h34.406c0.362,0,0.655,0.257,0.655,0.574V23.171z"/>
		<path fill="#040402" d="M158.563,21.981c0,0.275-0.281,0.498-0.629,0.498h-33.016c-0.348,0-0.629-0.223-0.629-0.498V9.927
			c0-0.275,0.281-0.498,0.629-0.498h33.016c0.348,0,0.629,0.223,0.629,0.498V21.981z"/>
		<rect x="126.656" y="11.396" fill="#404040" width="29.539" height="4.559"/>
	</g>
	<circle fill="#111011" cx="20.034" cy="15.769" r="11.75"/>
	<circle fill="#474749" cx="20.034" cy="15.769" r="8.667"/>
	<rect x="34.428" y="11.396" fill="#AEB2B7" width="13.356" height="11.083"/>
	<rect x="51.929" y="11.396" fill="#AEB2B7" width="13.356" height="11.083"/>
	<rect x="69.429" y="11.396" fill="#AEB2B7" width="13.357" height="11.083"/>
	<rect x="86.93" y="11.396" fill="#AEB2B7" width="13.356" height="11.083"/>
	<rect x="104.431" y="11.396" fill="#AEB2B7" width="13.356" height="11.083"/>
</g>
<g>
	<rect x="172.347" fill="#090A0A" width="362.438" height="32.436"/>
</g>
</svg>
