<?xml version="1.0" encoding="utf-8"?>
<!-- Generator: Adobe Illustrator 16.0.0, SVG Export Plug-In . SVG Version: 6.00 Build 0)  -->
<!DOCTYPE svg PUBLIC "-//W3C//DTD SVG 1.1//EN" "http://www.w3.org/Graphics/SVG/1.1/DTD/svg11.dtd">
<svg version="1.1" id="图层_1" xmlns="http://www.w3.org/2000/svg" xmlns:xlink="http://www.w3.org/1999/xlink" x="0px" y="0px"
	 width="39.646px" height="19.066px" viewBox="0 0 39.646 19.066" enable-background="new 0 0 39.646 19.066" xml:space="preserve">
<g>
	<path fill="#8F8D8B" d="M39.646,18.339c0,0.401-0.325,0.728-0.728,0.728H0.729C0.326,19.066,0,18.74,0,18.339V0.727
		C0,0.325,0.326,0,0.729,0h38.189c0.402,0,0.728,0.325,0.728,0.727V18.339z"/>
	<path fill="#040402" d="M38.845,16.832c0,0.348-0.313,0.631-0.698,0.631H1.5c-0.386,0-0.698-0.283-0.698-0.631V1.566
		c0-0.349,0.313-0.631,0.698-0.631h36.646c0.386,0,0.698,0.282,0.698,0.631V16.832z"/>
	<rect x="3.43" y="3.426" fill="#404040" width="32.787" height="5.773"/>
</g>
</svg>
