<?xml version="1.0" encoding="utf-8"?>
<!-- Generator: Adobe Illustrator 16.0.0, SVG Export Plug-In . SVG Version: 6.00 Build 0)  -->
<!DOCTYPE svg PUBLIC "-//W3C//DTD SVG 1.1//EN" "http://www.w3.org/Graphics/SVG/1.1/DTD/svg11.dtd">
<svg version="1.1" id="图层_1" xmlns="http://www.w3.org/2000/svg" xmlns:xlink="http://www.w3.org/1999/xlink" x="0px" y="0px"
	 width="20.635px" height="20.634px" viewBox="0 0 20.635 20.634" enable-background="new 0 0 20.635 20.634" xml:space="preserve">
<g>
	<path fill="#141B10" d="M20.635,18.209c0,1.339-1.086,2.424-2.425,2.424H2.426C1.086,20.634,0,19.548,0,18.209V2.424
		C0,1.085,1.086,0,2.426,0H18.21c1.339,0,2.425,1.085,2.425,2.424V18.209z"/>
	<g>
		<path fill="#22BF11" d="M10.319,16.595c-2.929,0-5.313-2.383-5.313-5.312c0-2.179,1.312-4.111,3.34-4.924l0.451,1.125
			C7.23,8.112,6.219,9.603,6.219,11.283c0,2.26,1.84,4.1,4.101,4.1c2.26,0,4.098-1.839,4.098-4.1c0-1.68-1.011-3.171-2.576-3.799
			l0.45-1.125c2.028,0.814,3.339,2.746,3.339,4.924C15.63,14.212,13.248,16.595,10.319,16.595z"/>
		<rect x="9.353" y="4.039" fill="#22BF11" width="1.933" height="6.011"/>
	</g>
</g>
</svg>
