<?xml version="1.0" encoding="utf-8"?>
<!-- Generator: Adobe Illustrator 16.0.0, SVG Export Plug-In . SVG Version: 6.00 Build 0)  -->
<!DOCTYPE svg PUBLIC "-//W3C//DTD SVG 1.1//EN" "http://www.w3.org/Graphics/SVG/1.1/DTD/svg11.dtd">
<svg version="1.1" id="图层_1" xmlns="http://www.w3.org/2000/svg" xmlns:xlink="http://www.w3.org/1999/xlink" x="0px" y="0px"
	 width="82.75px" height="72.67px" viewBox="0 0 82.75 72.67" enable-background="new 0 0 82.75 72.67" xml:space="preserve">
<g>
	<linearGradient id="SVGID_1_" gradientUnits="userSpaceOnUse" x1="0.2314" y1="36.335" x2="82.5186" y2="36.335">
		<stop  offset="0" style="stop-color:#3D3F44"/>
		<stop  offset="1" style="stop-color:#8A8B90"/>
	</linearGradient>
	<path fill="url(#SVGID_1_)" stroke="#2C2D2D" stroke-miterlimit="10" d="M4.209,0.203c0,0-3.314,1.16-3.978,5.304v62.651
		c0,0,2.32,3.646,5.47,4.309h53.701c0,0,44.419-18.749,10.11-54.871L26.254,0.203H4.209z"/>
	<circle fill="#2C2D2D" stroke="#050101" stroke-width="3" stroke-miterlimit="10" cx="53.27" cy="42.961" r="23.204"/>
	<circle fill="#2C2D2D" stroke="#040000" stroke-width="3" stroke-miterlimit="10" cx="53.271" cy="42.961" r="9.904"/>
	<path fill="#040000" d="M55.509,36.912c0,1.098-0.892,1.989-1.989,1.989h-0.498c-1.099,0-1.988-0.891-1.988-1.989v-6.464
		c0-1.098,0.89-1.989,1.988-1.989h0.498c1.098,0,1.989,0.891,1.989,1.989V36.912z"/>
	<circle fill="#050101" cx="42.802" cy="42.409" r="2.006"/>
	<path fill="#4C4C4C" d="M42.373,26.719c0,0-12.059,7.707-7.335,24.737C35.038,51.456,26.336,35.296,42.373,26.719z"/>
	<path fill="#101010" d="M19.458,58.21c0,2.196-1.781,3.978-3.978,3.978H9.845c-2.196,0-3.978-1.781-3.978-3.978V18.101
		c0-2.197,1.782-3.978,3.978-3.978h5.635c2.197,0,3.978,1.781,3.978,3.978V58.21z"/>
	<path fill="#4C4C4C" d="M17.967,33.353c0,0.867-1.087,1.57-2.425,1.57h-3.437c-1.339,0-2.425-0.703-2.425-1.57V17.516
		c0-0.867,1.086-1.57,2.425-1.57h3.437c1.338,0,2.425,0.703,2.425,1.57V33.353z"/>
	<path fill="#4C4C4C" stroke="#040000" stroke-width="3" stroke-miterlimit="10" d="M17.252,33.31c0,1.669-1.015,3.025-2.266,3.025
		H9.738c-1.251,0-2.265-1.355-2.265-3.025l0,0c0-1.67,1.014-3.027,2.265-3.027h5.248C16.237,30.283,17.252,31.64,17.252,33.31
		L17.252,33.31z"/>
	<path fill="#1D1D1D" d="M15.533,59.875c0,0.637-0.516,1.152-1.153,1.152h-4.035c-0.636,0-1.153-0.516-1.153-1.152V38.687
		c0-0.637,0.517-1.152,1.153-1.152h4.035c0.637,0,1.153,0.516,1.153,1.152V59.875z"/>
	<path fill="#4C4C4C" stroke="#040000" stroke-width="0.75" stroke-miterlimit="10" d="M16.832,44.619
		c0,0.549-0.524,0.994-1.174,0.994H9.067c-0.648,0-1.174-0.445-1.174-0.994V42.63c0-0.55,0.526-0.995,1.174-0.995h6.591
		c0.65,0,1.174,0.445,1.174,0.995V44.619z"/>
	<path fill="#4C4C4C" stroke="#040000" stroke-width="0.75" stroke-miterlimit="10" d="M16.832,52.45
		c0,0.55-0.524,0.994-1.174,0.994H9.067c-0.648,0-1.174-0.444-1.174-0.994v-1.988c0-0.551,0.526-0.995,1.174-0.995h6.591
		c0.65,0,1.174,0.444,1.174,0.995V52.45z"/>
	<path fill="#4C4C4C" stroke="#040000" stroke-width="0.75" stroke-miterlimit="10" d="M16.832,48.597
		c0,0.55-0.524,0.994-1.174,0.994H9.067c-0.648,0-1.174-0.444-1.174-0.994v-1.988c0-0.551,0.526-0.995,1.174-0.995h6.591
		c0.65,0,1.174,0.444,1.174,0.995V48.597z"/>
</g>
</svg>
