<?xml version="1.0" encoding="utf-8"?>
<!-- Generator: Adobe Illustrator 16.0.0, SVG Export Plug-In . SVG Version: 6.00 Build 0)  -->
<!DOCTYPE svg PUBLIC "-//W3C//DTD SVG 1.1//EN" "http://www.w3.org/Graphics/SVG/1.1/DTD/svg11.dtd">
<svg version="1.1" id="图层_1" xmlns="http://www.w3.org/2000/svg" xmlns:xlink="http://www.w3.org/1999/xlink" x="0px" y="0px"
	 width="46.928px" height="28.297px" viewBox="0 0 46.928 28.297" enable-background="new 0 0 46.928 28.297" xml:space="preserve">
<g>
	<path fill="#FAFAFC" d="M6.971,8.446V6.078h0.868l0.215,1.575l0.132,0.193C8.305,7.872,8.422,7.89,8.54,7.903
		c0.117,0.012,0.235,0.018,0.357,0.018c0.36,0,0.646-0.106,0.858-0.322c0.213-0.215,0.319-0.5,0.319-0.858
		c0-0.116-0.015-0.228-0.044-0.334C10.004,6.3,9.961,6.204,9.907,6.116C9.761,5.895,9.451,5.66,8.98,5.41
		C8.748,5.294,8.57,5.195,8.446,5.117c-0.485-0.295-0.839-0.64-1.065-1.028C7.157,3.7,7.045,3.231,7.045,2.686
		c0-0.809,0.221-1.458,0.66-1.949C8.147,0.246,8.738,0,9.479,0c0.31,0,0.635,0.042,0.971,0.13c0.34,0.088,0.681,0.215,1.028,0.381
		v2.162h-0.868l-0.188-1.417l-0.113-0.156c-0.085-0.038-0.175-0.066-0.267-0.083c-0.094-0.019-0.192-0.03-0.296-0.03
		c-0.353,0-0.629,0.104-0.83,0.307S8.615,1.774,8.615,2.124c0,0.479,0.384,0.939,1.154,1.381c0.088,0.05,0.155,0.089,0.201,0.119
		c0.688,0.396,1.144,0.773,1.366,1.134c0.224,0.359,0.336,0.825,0.336,1.395c0,0.838-0.239,1.507-0.722,2.006
		c-0.479,0.5-1.128,0.75-1.943,0.75c-0.274,0-0.574-0.037-0.902-0.112C7.778,8.72,7.4,8.605,6.971,8.446"/>
	<path fill="#FAFAFC" d="M12.108,2.467h2.802v0.632l-0.475,0.087l-0.087,0.155l0.963,3.313l0.927-3.299l-0.095-0.168l-0.502-0.087
		V2.467h1.989v0.632l-0.516,0.125l-1.813,5.797c-0.243,0.779-0.561,1.405-0.952,1.878c-0.391,0.473-0.784,0.708-1.18,0.708
		c-0.259,0-0.479-0.119-0.661-0.356c-0.183-0.237-0.274-0.52-0.274-0.85c0-0.266,0.068-0.5,0.204-0.702
		c0.135-0.202,0.319-0.342,0.553-0.422l0.796,1.037c0.14-0.116,0.269-0.272,0.39-0.469s0.236-0.441,0.349-0.736l-1.849-5.861
		l-0.569-0.149V2.467z"/>
	<path fill="#FAFAFC" d="M21.799,2.586v1.956h-0.671L21.005,3.53l-0.123-0.175c-0.126-0.079-0.244-0.137-0.355-0.175
		c-0.114-0.037-0.223-0.056-0.324-0.056c-0.221,0-0.394,0.062-0.522,0.185c-0.127,0.122-0.19,0.288-0.19,0.49
		c0,0.363,0.28,0.685,0.84,0.968c0.182,0.092,0.324,0.167,0.424,0.226c0.491,0.274,0.824,0.545,1.003,0.812
		c0.178,0.266,0.268,0.605,0.268,1.02c0,0.591-0.206,1.089-0.615,1.491c-0.409,0.404-0.924,0.607-1.545,0.607
		c-0.295,0-0.61-0.032-0.942-0.094c-0.334-0.062-0.684-0.155-1.049-0.282V6.409h0.672l0.113,1.169l0.105,0.162
		c0.165,0.108,0.327,0.189,0.49,0.242c0.164,0.051,0.327,0.077,0.492,0.077c0.213,0,0.382-0.067,0.508-0.2
		c0.128-0.134,0.189-0.313,0.189-0.537c0-0.325-0.219-0.614-0.656-0.868c-0.098-0.059-0.171-0.103-0.219-0.131
		c-0.679-0.409-1.123-0.756-1.33-1.04c-0.206-0.286-0.309-0.63-0.309-1.034c0-0.596,0.189-1.08,0.573-1.449
		c0.381-0.372,0.886-0.558,1.512-0.558c0.237,0,0.504,0.028,0.797,0.085C21.105,2.384,21.434,2.469,21.799,2.586"/>
	<path fill="#FAFAFC" d="M23.174,3.542h-0.671V2.955l0.802-0.687l0.591-1.488h0.829v1.819h1.421v0.943h-1.421v2.987
		c0,0.438,0.063,0.731,0.186,0.883c0.124,0.152,0.361,0.229,0.715,0.229c0.072,0,0.151-0.007,0.237-0.02
		c0.085-0.012,0.18-0.031,0.283-0.056v0.736c-0.332,0.172-0.643,0.301-0.934,0.391c-0.291,0.089-0.549,0.135-0.773,0.135
		c-0.247,0-0.466-0.052-0.658-0.156c-0.192-0.105-0.34-0.252-0.446-0.445c-0.059-0.104-0.1-0.252-0.123-0.446
		c-0.025-0.195-0.037-0.501-0.037-0.922V3.542z"/>
	<path fill="#FAFAFC" d="M31.359,6.946v1.182c-0.357,0.245-0.723,0.428-1.096,0.546c-0.375,0.119-0.771,0.178-1.188,0.178
		c-0.779,0-1.398-0.296-1.856-0.891c-0.458-0.593-0.688-1.392-0.688-2.396c0-1.004,0.237-1.811,0.71-2.42
		c0.47-0.61,1.095-0.916,1.869-0.916c0.723,0,1.281,0.279,1.679,0.837c0.398,0.558,0.596,1.345,0.596,2.361v0.163h-3.222
		c0.008,0.633,0.136,1.133,0.381,1.499c0.244,0.368,0.571,0.55,0.979,0.55c0.316,0,0.625-0.058,0.927-0.171
		C30.752,7.354,31.055,7.18,31.359,6.946 M29.719,4.785c0-0.59-0.057-1.027-0.172-1.305c-0.117-0.279-0.295-0.42-0.534-0.42
		c-0.271,0-0.476,0.141-0.612,0.423c-0.137,0.281-0.205,0.698-0.205,1.251v0.051H29.719z"/>
	<path fill="#FAFAFC" d="M37.011,3.173c0.393-0.304,0.743-0.531,1.051-0.681c0.308-0.15,0.574-0.226,0.804-0.226
		c0.465,0,0.807,0.187,1.025,0.56c0.22,0.372,0.329,0.96,0.329,1.765v3.255l0.091,0.162l0.518,0.063v0.68h-2.629v-0.68l0.363-0.063
		l0.114-0.162V5.117c0-0.559-0.072-0.943-0.217-1.153s-0.398-0.315-0.765-0.315c-0.131,0-0.239,0.006-0.325,0.022
		c-0.088,0.015-0.165,0.037-0.235,0.065v4.11l0.113,0.175L37.66,8.09v0.662h-2.498V8.047l0.337-0.026l0.11-0.218V4.954
		c0-0.458-0.074-0.791-0.222-0.997c-0.146-0.206-0.386-0.309-0.714-0.309h-0.17c-0.094,0-0.168,0.003-0.219,0.008
		c-0.051,0.007-0.1,0.016-0.142,0.028v4.161l0.118,0.162l0.348,0.063v0.68h-2.615v-0.68l0.482-0.063l0.105-0.162v-4.21h-0.588V3.004
		l1.607-0.737h0.542v0.832c0.351-0.283,0.663-0.494,0.937-0.629s0.521-0.203,0.743-0.203c0.25,0,0.469,0.072,0.656,0.215
		S36.844,2.857,37.011,3.173"/>
	<polygon fill="#FAFAFC" points="0,21.794 2.584,21.794 2.584,22.387 2.292,22.475 2.256,22.625 3.005,24.024 3.771,22.562 
		3.378,22.451 3.378,21.794 5.19,21.794 5.19,22.512 4.647,22.562 3.442,24.548 4.912,27.323 5.378,27.455 5.378,28.104 
		2.899,28.104 2.899,27.566 3.183,27.423 3.219,27.298 2.397,25.749 1.544,27.36 1.926,27.455 1.926,28.104 0,28.104 0,27.455 
		0.612,27.273 1.926,25.148 0.524,22.562 0,22.512 	"/>
	<path fill="#FAFAFC" d="M8.862,23.575c0.635,0.05,1.125,0.262,1.47,0.635c0.344,0.372,0.516,0.877,0.516,1.515
		c0,0.732-0.256,1.34-0.767,1.824c-0.512,0.483-1.166,0.724-1.964,0.724c-0.715,0-1.281-0.158-1.699-0.474
		c-0.42-0.317-0.629-0.739-0.629-1.268c0-0.326,0.077-0.587,0.231-0.787c0.153-0.2,0.356-0.3,0.609-0.3
		c0.084,0,0.172,0.01,0.26,0.032c0.089,0.02,0.18,0.052,0.274,0.094l0.315,1.68c0.117,0.034,0.221,0.058,0.308,0.075
		c0.087,0.016,0.162,0.025,0.226,0.025c0.334,0,0.605-0.145,0.812-0.435c0.208-0.289,0.312-0.669,0.312-1.141
		c0-0.475-0.119-0.849-0.358-1.121c-0.239-0.273-0.565-0.409-0.979-0.409c-0.111,0-0.216,0.009-0.319,0.025
		c-0.104,0.017-0.206,0.042-0.307,0.074v-1.111c0.067,0.012,0.131,0.021,0.19,0.028c0.062,0.006,0.12,0.009,0.174,0.009
		c0.427,0,0.762-0.128,1.003-0.384c0.241-0.255,0.363-0.607,0.363-1.053c0-0.475-0.109-0.848-0.329-1.121
		C8.354,20.437,8.053,20.3,7.666,20.3c-0.02,0-0.046,0.002-0.082,0.007c-0.036,0.004-0.065,0.006-0.088,0.006V22.1
		c-0.106,0.075-0.213,0.131-0.322,0.167c-0.107,0.035-0.218,0.052-0.33,0.052c-0.266,0-0.476-0.095-0.633-0.288
		c-0.156-0.191-0.233-0.446-0.233-0.762c0-0.555,0.218-1.009,0.654-1.363c0.437-0.353,1.009-0.53,1.719-0.53
		c0.685,0,1.231,0.196,1.639,0.59c0.408,0.395,0.611,0.914,0.611,1.559c0,0.529-0.15,0.972-0.452,1.328
		C9.848,23.208,9.419,23.45,8.862,23.575"/>
	<path fill="#FAFAFC" d="M16.271,18.97v1.138l-0.58-0.113c-0.575,0.087-1.037,0.368-1.385,0.84c-0.35,0.473-0.57,1.118-0.666,1.933
		c0.217-0.179,0.452-0.316,0.707-0.409c0.254-0.094,0.521-0.141,0.8-0.141c0.566,0,1.044,0.28,1.43,0.837
		c0.386,0.559,0.58,1.257,0.58,2.093c0,0.947-0.239,1.708-0.715,2.284c-0.477,0.576-1.106,0.865-1.892,0.865
		c-0.843,0-1.495-0.352-1.957-1.056c-0.461-0.704-0.691-1.699-0.691-2.986c0-0.799,0.102-1.527,0.307-2.187
		c0.203-0.657,0.506-1.244,0.907-1.757c0.356-0.457,0.772-0.796,1.246-1.014c0.476-0.219,1.035-0.329,1.68-0.329H16.271z
		 M13.55,23.586c-0.003,0.018-0.005,0.042-0.005,0.075c-0.008,0.32-0.013,0.562-0.013,0.718c0,0.984,0.087,1.727,0.262,2.233
		s0.435,0.76,0.774,0.76c0.28,0,0.502-0.17,0.67-0.51c0.164-0.339,0.248-0.797,0.248-1.371c0-0.726-0.102-1.242-0.305-1.552
		c-0.201-0.311-0.537-0.466-1.006-0.466c-0.112,0-0.22,0.009-0.323,0.028C13.748,23.521,13.647,23.549,13.55,23.586"/>
	<path fill="#FAFAFC" d="M18.385,19.52h4.15v1.649h-3.219v1.78c0.25-0.12,0.488-0.211,0.717-0.272c0.228-0.06,0.447-0.09,0.656-0.09
		c0.68,0,1.227,0.237,1.642,0.712c0.416,0.475,0.624,1.101,0.624,1.874c0,0.942-0.266,1.69-0.795,2.25
		c-0.529,0.558-1.246,0.837-2.15,0.837c-0.611,0-1.108-0.158-1.488-0.478s-0.57-0.724-0.57-1.216c0-0.337,0.084-0.617,0.25-0.841
		c0.168-0.222,0.381-0.334,0.64-0.334c0.083,0,0.17,0.012,0.266,0.039c0.093,0.024,0.198,0.062,0.315,0.112l0.277,1.793
		c0.01,0,0.024,0.001,0.047,0.006c0.087,0.013,0.153,0.018,0.199,0.018c0.398,0,0.727-0.168,0.982-0.506
		c0.255-0.337,0.384-0.771,0.384-1.299c0-0.512-0.148-0.928-0.444-1.246c-0.293-0.319-0.684-0.479-1.168-0.479
		c-0.199,0-0.41,0.025-0.629,0.078c-0.22,0.052-0.449,0.129-0.686,0.228V19.52z"/>
	<path fill="#FAFAFC" d="M26.515,19.363c0.822,0,1.471,0.396,1.945,1.188c0.475,0.791,0.713,1.876,0.713,3.254
		c0,1.379-0.238,2.466-0.713,3.262c-0.475,0.795-1.123,1.193-1.945,1.193c-0.809,0-1.448-0.397-1.914-1.19
		c-0.468-0.794-0.701-1.882-0.701-3.265c0-1.378,0.232-2.463,0.698-3.254C25.063,19.759,25.702,19.363,26.515,19.363 M26.525,20.194
		c-0.313,0-0.547,0.295-0.697,0.884c-0.15,0.59-0.226,1.494-0.226,2.715c0,1.261,0.073,2.18,0.222,2.755
		c0.147,0.574,0.38,0.862,0.701,0.862c0.325,0,0.562-0.288,0.711-0.862c0.15-0.575,0.225-1.494,0.225-2.755
		c0-1.246-0.076-2.157-0.227-2.734C27.083,20.482,26.848,20.194,26.525,20.194"/>
	<polygon fill="#FAFAFC" points="32.732,28.104 32.732,27.36 33.387,27.31 33.5,27.068 33.5,20.463 33.387,20.313 32.732,20.22 
		32.732,19.52 35.75,19.52 35.75,19.889 37.043,25.249 38.326,19.876 38.326,19.52 41.352,19.52 41.352,20.22 40.654,20.313 
		40.539,20.488 40.539,27.068 40.654,27.31 41.352,27.36 41.352,28.104 38.326,28.104 38.326,27.36 38.906,27.31 38.987,27.068 
		38.987,20.463 38.969,20.463 37.139,28.104 36.194,28.104 34.358,20.463 34.34,20.463 34.34,27.068 34.455,27.31 35.07,27.36 
		35.07,28.104 	"/>
	<path fill="#FAFAFC" d="M44.941,23.575c0.635,0.05,1.125,0.262,1.471,0.635c0.343,0.372,0.516,0.877,0.516,1.515
		c0,0.732-0.257,1.34-0.768,1.824c-0.512,0.483-1.166,0.724-1.963,0.724c-0.715,0-1.281-0.158-1.7-0.474
		c-0.419-0.317-0.628-0.739-0.628-1.268c0-0.326,0.076-0.587,0.231-0.787c0.152-0.2,0.356-0.3,0.608-0.3
		c0.084,0,0.172,0.01,0.26,0.032c0.089,0.02,0.18,0.052,0.275,0.094l0.314,1.68c0.117,0.034,0.222,0.058,0.308,0.075
		c0.087,0.016,0.163,0.025,0.226,0.025c0.335,0,0.606-0.145,0.813-0.435c0.207-0.289,0.311-0.669,0.311-1.141
		c0-0.475-0.118-0.849-0.358-1.121c-0.239-0.273-0.565-0.409-0.979-0.409c-0.109,0-0.217,0.009-0.319,0.025
		c-0.104,0.017-0.205,0.042-0.307,0.074v-1.111c0.068,0.012,0.131,0.021,0.191,0.028c0.061,0.006,0.119,0.009,0.174,0.009
		c0.426,0,0.761-0.128,1.002-0.384c0.242-0.255,0.363-0.607,0.363-1.053c0-0.475-0.109-0.848-0.329-1.121
		c-0.22-0.272-0.521-0.409-0.907-0.409c-0.02,0-0.047,0.002-0.082,0.007c-0.038,0.004-0.066,0.006-0.088,0.006V22.1
		c-0.107,0.075-0.214,0.131-0.322,0.167c-0.107,0.035-0.219,0.052-0.33,0.052c-0.266,0-0.476-0.095-0.633-0.288
		c-0.156-0.191-0.235-0.446-0.235-0.762c0-0.555,0.22-1.009,0.656-1.363c0.436-0.353,1.009-0.53,1.718-0.53
		c0.686,0,1.232,0.196,1.639,0.59c0.408,0.395,0.611,0.914,0.611,1.559c0,0.529-0.15,0.972-0.451,1.328
		C45.928,23.208,45.498,23.45,44.941,23.575"/>
</g>
</svg>
