<?xml version="1.0" encoding="utf-8"?>
<!-- Generator: Adobe Illustrator 16.0.0, SVG Export Plug-In . SVG Version: 6.00 Build 0)  -->
<!DOCTYPE svg PUBLIC "-//W3C//DTD SVG 1.1//EN" "http://www.w3.org/Graphics/SVG/1.1/DTD/svg11.dtd">
<svg version="1.1" id="图层_1" xmlns="http://www.w3.org/2000/svg" xmlns:xlink="http://www.w3.org/1999/xlink" x="0px" y="0px"
	 width="98.217px" height="14.017px" viewBox="0 0 98.217 14.017" enable-background="new 0 0 98.217 14.017" xml:space="preserve">
<g>
	<defs>
		<rect id="SVGID_558_" x="-1105.172" y="-95.608" width="1275.59" height="252"/>
	</defs>
	<clipPath id="SVGID_2_">
		<use xlink:href="#SVGID_558_"  overflow="visible"/>
	</clipPath>
	
		<rect x="-1105.172" y="-95.608" clip-path="url(#SVGID_2_)" fill="none" stroke="#242426" stroke-width="2" stroke-miterlimit="10" width="1275.59" height="252"/>
</g>
<rect x="-1105.172" y="-95.608" fill="none" width="1275.59" height="252"/>
<g>
	<defs>
		<rect id="SVGID_590_" x="-1105.172" y="-95.608" width="1275.59" height="252"/>
	</defs>
	<clipPath id="SVGID_4_">
		<use xlink:href="#SVGID_590_"  overflow="visible"/>
	</clipPath>
</g>
<g>
	<defs>
		<rect id="SVGID_595_" x="-1105.172" y="-95.608" width="1275.59" height="252"/>
	</defs>
	<clipPath id="SVGID_5_">
		<use xlink:href="#SVGID_595_"  overflow="visible"/>
	</clipPath>
</g>
<g>
	<defs>
		<rect id="SVGID_600_" x="-1105.172" y="-95.608" width="1275.59" height="252"/>
	</defs>
	<clipPath id="SVGID_7_">
		<use xlink:href="#SVGID_600_"  overflow="visible"/>
	</clipPath>
</g>
<g>
	<defs>
		<rect id="SVGID_605_" x="-1105.172" y="-95.608" width="1275.59" height="252"/>
	</defs>
	<clipPath id="SVGID_8_">
		<use xlink:href="#SVGID_605_"  overflow="visible"/>
	</clipPath>
</g>
<g>
	<defs>
		<rect id="SVGID_613_" x="-1105.172" y="-95.608" width="1275.59" height="252"/>
	</defs>
	<clipPath id="SVGID_10_">
		<use xlink:href="#SVGID_613_"  overflow="visible"/>
	</clipPath>
</g>
<g>
	<defs>
		<rect id="SVGID_618_" x="-1105.172" y="-95.608" width="1275.59" height="252"/>
	</defs>
	<clipPath id="SVGID_11_">
		<use xlink:href="#SVGID_618_"  overflow="visible"/>
	</clipPath>
</g>
<g>
	<defs>
		<rect id="SVGID_623_" x="-1105.172" y="-95.608" width="1275.59" height="252"/>
	</defs>
	<clipPath id="SVGID_13_">
		<use xlink:href="#SVGID_623_"  overflow="visible"/>
	</clipPath>
</g>
<g>
	<defs>
		<rect id="SVGID_628_" x="-1105.172" y="-95.608" width="1275.59" height="252"/>
	</defs>
	<clipPath id="SVGID_14_">
		<use xlink:href="#SVGID_628_"  overflow="visible"/>
	</clipPath>
</g>
<g>
	<defs>
		<rect id="SVGID_633_" x="-1105.172" y="-95.608" width="1275.59" height="252"/>
	</defs>
	<clipPath id="SVGID_16_">
		<use xlink:href="#SVGID_633_"  overflow="visible"/>
	</clipPath>
</g>
<g>
	<defs>
		<rect id="SVGID_638_" x="-1105.172" y="-95.608" width="1275.59" height="252"/>
	</defs>
	<clipPath id="SVGID_17_">
		<use xlink:href="#SVGID_638_"  overflow="visible"/>
	</clipPath>
</g>
<g>
	<defs>
		<rect id="SVGID_646_" x="-1105.172" y="-95.608" width="1275.59" height="252"/>
	</defs>
	<clipPath id="SVGID_19_">
		<use xlink:href="#SVGID_646_"  overflow="visible"/>
	</clipPath>
</g>
<g>
	<defs>
		<rect id="SVGID_651_" x="-1105.172" y="-95.608" width="1275.59" height="252"/>
	</defs>
	<clipPath id="SVGID_20_">
		<use xlink:href="#SVGID_651_"  overflow="visible"/>
	</clipPath>
</g>
<g>
	<defs>
		<rect id="SVGID_656_" x="-1105.172" y="-95.608" width="1275.59" height="252"/>
	</defs>
	<clipPath id="SVGID_22_">
		<use xlink:href="#SVGID_656_"  overflow="visible"/>
	</clipPath>
</g>
<g>
	<defs>
		<rect id="SVGID_661_" x="-1105.172" y="-95.608" width="1275.59" height="252"/>
	</defs>
	<clipPath id="SVGID_23_">
		<use xlink:href="#SVGID_661_"  overflow="visible"/>
	</clipPath>
</g>
<g>
	<defs>
		<rect id="SVGID_666_" x="-1105.172" y="-95.608" width="1275.59" height="252"/>
	</defs>
	<clipPath id="SVGID_25_">
		<use xlink:href="#SVGID_666_"  overflow="visible"/>
	</clipPath>
</g>
<g>
	<defs>
		<rect id="SVGID_671_" x="-1105.172" y="-95.608" width="1275.59" height="252"/>
	</defs>
	<clipPath id="SVGID_26_">
		<use xlink:href="#SVGID_671_"  overflow="visible"/>
	</clipPath>
</g>
<g>
	<defs>
		<rect id="SVGID_679_" x="-1105.172" y="-95.608" width="1275.59" height="252"/>
	</defs>
	<clipPath id="SVGID_28_">
		<use xlink:href="#SVGID_679_"  overflow="visible"/>
	</clipPath>
</g>
<g>
	<defs>
		<rect id="SVGID_684_" x="-1105.172" y="-95.608" width="1275.59" height="252"/>
	</defs>
	<clipPath id="SVGID_29_">
		<use xlink:href="#SVGID_684_"  overflow="visible"/>
	</clipPath>
</g>
<g>
	<defs>
		<rect id="SVGID_689_" x="-1105.172" y="-95.608" width="1275.59" height="252"/>
	</defs>
	<clipPath id="SVGID_31_">
		<use xlink:href="#SVGID_689_"  overflow="visible"/>
	</clipPath>
</g>
<g>
	<defs>
		<rect id="SVGID_694_" x="-1105.172" y="-95.608" width="1275.59" height="252"/>
	</defs>
	<clipPath id="SVGID_32_">
		<use xlink:href="#SVGID_694_"  overflow="visible"/>
	</clipPath>
</g>
<g>
	<defs>
		<rect id="SVGID_699_" x="-1105.172" y="-95.608" width="1275.59" height="252"/>
	</defs>
	<clipPath id="SVGID_34_">
		<use xlink:href="#SVGID_699_"  overflow="visible"/>
	</clipPath>
</g>
<g>
	<defs>
		<rect id="SVGID_704_" x="-1105.172" y="-95.608" width="1275.59" height="252"/>
	</defs>
	<clipPath id="SVGID_36_">
		<use xlink:href="#SVGID_704_"  overflow="visible"/>
	</clipPath>
</g>
<g>
	<defs>
		<rect id="SVGID_712_" x="-1105.172" y="-95.608" width="1275.59" height="252"/>
	</defs>
	<clipPath id="SVGID_37_">
		<use xlink:href="#SVGID_712_"  overflow="visible"/>
	</clipPath>
</g>
<g>
	<defs>
		<rect id="SVGID_717_" x="-1105.172" y="-95.608" width="1275.59" height="252"/>
	</defs>
	<clipPath id="SVGID_39_">
		<use xlink:href="#SVGID_717_"  overflow="visible"/>
	</clipPath>
</g>
<g>
	<defs>
		<rect id="SVGID_722_" x="-1105.172" y="-95.608" width="1275.59" height="252"/>
	</defs>
	<clipPath id="SVGID_41_">
		<use xlink:href="#SVGID_722_"  overflow="visible"/>
	</clipPath>
</g>
<g>
	<defs>
		<rect id="SVGID_727_" x="-1105.172" y="-95.608" width="1275.59" height="252"/>
	</defs>
	<clipPath id="SVGID_42_">
		<use xlink:href="#SVGID_727_"  overflow="visible"/>
	</clipPath>
</g>
<g>
	<defs>
		<rect id="SVGID_732_" x="-1105.172" y="-95.608" width="1275.59" height="252"/>
	</defs>
	<clipPath id="SVGID_44_">
		<use xlink:href="#SVGID_732_"  overflow="visible"/>
	</clipPath>
</g>
<g>
	<defs>
		<rect id="SVGID_737_" x="-1105.172" y="-95.608" width="1275.59" height="252"/>
	</defs>
	<clipPath id="SVGID_46_">
		<use xlink:href="#SVGID_737_"  overflow="visible"/>
	</clipPath>
</g>
<g>
	<defs>
		<rect id="SVGID_745_" x="-1105.172" y="-95.608" width="1275.59" height="252"/>
	</defs>
	<clipPath id="SVGID_47_">
		<use xlink:href="#SVGID_745_"  overflow="visible"/>
	</clipPath>
</g>
<g>
	<defs>
		<rect id="SVGID_750_" x="-1105.172" y="-95.608" width="1275.59" height="252"/>
	</defs>
	<clipPath id="SVGID_49_">
		<use xlink:href="#SVGID_750_"  overflow="visible"/>
	</clipPath>
</g>
<g>
	<defs>
		<rect id="SVGID_755_" x="-1105.172" y="-95.608" width="1275.59" height="252"/>
	</defs>
	<clipPath id="SVGID_51_">
		<use xlink:href="#SVGID_755_"  overflow="visible"/>
	</clipPath>
</g>
<g>
	<defs>
		<rect id="SVGID_760_" x="-1105.172" y="-95.608" width="1275.59" height="252"/>
	</defs>
	<clipPath id="SVGID_52_">
		<use xlink:href="#SVGID_760_"  overflow="visible"/>
	</clipPath>
</g>
<g>
	<defs>
		<rect id="SVGID_765_" x="-1105.172" y="-95.608" width="1275.59" height="252"/>
	</defs>
	<clipPath id="SVGID_54_">
		<use xlink:href="#SVGID_765_"  overflow="visible"/>
	</clipPath>
</g>
<g>
	<defs>
		<rect id="SVGID_770_" x="-1105.172" y="-95.608" width="1275.59" height="252"/>
	</defs>
	<clipPath id="SVGID_55_">
		<use xlink:href="#SVGID_770_"  overflow="visible"/>
	</clipPath>
</g>
<g>
	<defs>
		<rect id="SVGID_778_" x="-1105.172" y="-95.608" width="1275.59" height="252"/>
	</defs>
	<clipPath id="SVGID_57_">
		<use xlink:href="#SVGID_778_"  overflow="visible"/>
	</clipPath>
</g>
<g>
	<defs>
		<rect id="SVGID_783_" x="-1105.172" y="-95.608" width="1275.59" height="252"/>
	</defs>
	<clipPath id="SVGID_59_">
		<use xlink:href="#SVGID_783_"  overflow="visible"/>
	</clipPath>
</g>
<g>
	<defs>
		<rect id="SVGID_788_" x="-1105.172" y="-95.608" width="1275.59" height="252"/>
	</defs>
	<clipPath id="SVGID_60_">
		<use xlink:href="#SVGID_788_"  overflow="visible"/>
	</clipPath>
</g>
<g>
	<defs>
		<rect id="SVGID_793_" x="-1105.172" y="-95.608" width="1275.59" height="252"/>
	</defs>
	<clipPath id="SVGID_62_">
		<use xlink:href="#SVGID_793_"  overflow="visible"/>
	</clipPath>
</g>
<g>
	<defs>
		<rect id="SVGID_798_" x="-1105.172" y="-95.608" width="1275.59" height="252"/>
	</defs>
	<clipPath id="SVGID_64_">
		<use xlink:href="#SVGID_798_"  overflow="visible"/>
	</clipPath>
</g>
<g>
	<defs>
		<rect id="SVGID_803_" x="-1105.172" y="-95.608" width="1275.59" height="252"/>
	</defs>
	<clipPath id="SVGID_65_">
		<use xlink:href="#SVGID_803_"  overflow="visible"/>
	</clipPath>
</g>
<g>
	<defs>
		<rect id="SVGID_811_" x="-1105.172" y="-95.608" width="1275.59" height="252"/>
	</defs>
	<clipPath id="SVGID_67_">
		<use xlink:href="#SVGID_811_"  overflow="visible"/>
	</clipPath>
</g>
<g>
	<defs>
		<rect id="SVGID_816_" x="-1105.172" y="-95.608" width="1275.59" height="252"/>
	</defs>
	<clipPath id="SVGID_69_">
		<use xlink:href="#SVGID_816_"  overflow="visible"/>
	</clipPath>
</g>
<g>
	<defs>
		<rect id="SVGID_821_" x="-1105.172" y="-95.608" width="1275.59" height="252"/>
	</defs>
	<clipPath id="SVGID_70_">
		<use xlink:href="#SVGID_821_"  overflow="visible"/>
	</clipPath>
</g>
<g>
	<defs>
		<rect id="SVGID_826_" x="-1105.172" y="-95.608" width="1275.59" height="252"/>
	</defs>
	<clipPath id="SVGID_72_">
		<use xlink:href="#SVGID_826_"  overflow="visible"/>
	</clipPath>
</g>
<g>
	<defs>
		<rect id="SVGID_831_" x="-1105.172" y="-95.608" width="1275.59" height="252"/>
	</defs>
	<clipPath id="SVGID_74_">
		<use xlink:href="#SVGID_831_"  overflow="visible"/>
	</clipPath>
</g>
<g>
	<defs>
		<rect id="SVGID_836_" x="-1105.172" y="-95.608" width="1275.59" height="252"/>
	</defs>
	<clipPath id="SVGID_75_">
		<use xlink:href="#SVGID_836_"  overflow="visible"/>
	</clipPath>
</g>
<g>
	<defs>
		<rect id="SVGID_844_" x="-1105.172" y="-95.608" width="1275.59" height="252"/>
	</defs>
	<clipPath id="SVGID_77_">
		<use xlink:href="#SVGID_844_"  overflow="visible"/>
	</clipPath>
</g>
<g>
	<defs>
		<rect id="SVGID_849_" x="-1105.172" y="-95.608" width="1275.59" height="252"/>
	</defs>
	<clipPath id="SVGID_79_">
		<use xlink:href="#SVGID_849_"  overflow="visible"/>
	</clipPath>
</g>
<g>
	<defs>
		<rect id="SVGID_854_" x="-1105.172" y="-95.608" width="1275.59" height="252"/>
	</defs>
	<clipPath id="SVGID_80_">
		<use xlink:href="#SVGID_854_"  overflow="visible"/>
	</clipPath>
</g>
<g>
	<defs>
		<rect id="SVGID_859_" x="-1105.172" y="-95.608" width="1275.59" height="252"/>
	</defs>
	<clipPath id="SVGID_82_">
		<use xlink:href="#SVGID_859_"  overflow="visible"/>
	</clipPath>
</g>
<g>
	<defs>
		<rect id="SVGID_864_" x="-1105.172" y="-95.608" width="1275.59" height="252"/>
	</defs>
	<clipPath id="SVGID_84_">
		<use xlink:href="#SVGID_864_"  overflow="visible"/>
	</clipPath>
</g>
<g>
	<defs>
		<rect id="SVGID_869_" x="-1105.172" y="-95.608" width="1275.59" height="252"/>
	</defs>
	<clipPath id="SVGID_85_">
		<use xlink:href="#SVGID_869_"  overflow="visible"/>
	</clipPath>
</g>
<g>
	<defs>
		<rect id="SVGID_877_" x="-1105.172" y="-95.608" width="1275.59" height="252"/>
	</defs>
	<clipPath id="SVGID_87_">
		<use xlink:href="#SVGID_877_"  overflow="visible"/>
	</clipPath>
</g>
<g>
	<defs>
		<rect id="SVGID_882_" x="-1105.172" y="-95.608" width="1275.59" height="252"/>
	</defs>
	<clipPath id="SVGID_88_">
		<use xlink:href="#SVGID_882_"  overflow="visible"/>
	</clipPath>
</g>
<g>
	<defs>
		<rect id="SVGID_887_" x="-1105.172" y="-95.608" width="1275.59" height="252"/>
	</defs>
	<clipPath id="SVGID_90_">
		<use xlink:href="#SVGID_887_"  overflow="visible"/>
	</clipPath>
</g>
<g>
	<defs>
		<rect id="SVGID_892_" x="-1105.172" y="-95.608" width="1275.59" height="252"/>
	</defs>
	<clipPath id="SVGID_92_">
		<use xlink:href="#SVGID_892_"  overflow="visible"/>
	</clipPath>
</g>
<g>
	<defs>
		<rect id="SVGID_897_" x="-1105.172" y="-95.608" width="1275.59" height="252"/>
	</defs>
	<clipPath id="SVGID_93_">
		<use xlink:href="#SVGID_897_"  overflow="visible"/>
	</clipPath>
</g>
<g>
	<defs>
		<rect id="SVGID_902_" x="-1105.172" y="-95.608" width="1275.59" height="252"/>
	</defs>
	<clipPath id="SVGID_95_">
		<use xlink:href="#SVGID_902_"  overflow="visible"/>
	</clipPath>
</g>
<g>
	<defs>
		<rect id="SVGID_910_" x="-1105.172" y="-95.608" width="1275.59" height="252"/>
	</defs>
	<clipPath id="SVGID_97_">
		<use xlink:href="#SVGID_910_"  overflow="visible"/>
	</clipPath>
</g>
<g>
	<defs>
		<rect id="SVGID_915_" x="-1105.172" y="-95.608" width="1275.59" height="252"/>
	</defs>
	<clipPath id="SVGID_98_">
		<use xlink:href="#SVGID_915_"  overflow="visible"/>
	</clipPath>
</g>
<g>
	<defs>
		<rect id="SVGID_920_" x="-1105.172" y="-95.608" width="1275.59" height="252"/>
	</defs>
	<clipPath id="SVGID_100_">
		<use xlink:href="#SVGID_920_"  overflow="visible"/>
	</clipPath>
</g>
<g>
	<defs>
		<rect id="SVGID_925_" x="-1105.172" y="-95.608" width="1275.59" height="252"/>
	</defs>
	<clipPath id="SVGID_102_">
		<use xlink:href="#SVGID_925_"  overflow="visible"/>
	</clipPath>
</g>
<g>
	<defs>
		<rect id="SVGID_930_" x="-1105.172" y="-95.608" width="1275.59" height="252"/>
	</defs>
	<clipPath id="SVGID_103_">
		<use xlink:href="#SVGID_930_"  overflow="visible"/>
	</clipPath>
</g>
<g>
	<defs>
		<rect id="SVGID_935_" x="-1105.172" y="-95.608" width="1275.59" height="252"/>
	</defs>
	<clipPath id="SVGID_105_">
		<use xlink:href="#SVGID_935_"  overflow="visible"/>
	</clipPath>
</g>
<g>
	<defs>
		<rect id="SVGID_943_" x="-1105.172" y="-95.608" width="1275.59" height="252"/>
	</defs>
	<clipPath id="SVGID_107_">
		<use xlink:href="#SVGID_943_"  overflow="visible"/>
	</clipPath>
</g>
<g>
	<defs>
		<rect id="SVGID_948_" x="-1105.172" y="-95.608" width="1275.59" height="252"/>
	</defs>
	<clipPath id="SVGID_108_">
		<use xlink:href="#SVGID_948_"  overflow="visible"/>
	</clipPath>
</g>
<g>
	<defs>
		<rect id="SVGID_953_" x="-1105.172" y="-95.608" width="1275.59" height="252"/>
	</defs>
	<clipPath id="SVGID_110_">
		<use xlink:href="#SVGID_953_"  overflow="visible"/>
	</clipPath>
</g>
<g>
	<defs>
		<rect id="SVGID_958_" x="-1105.172" y="-95.608" width="1275.59" height="252"/>
	</defs>
	<clipPath id="SVGID_112_">
		<use xlink:href="#SVGID_958_"  overflow="visible"/>
	</clipPath>
</g>
<g>
	<defs>
		<rect id="SVGID_963_" x="-1105.172" y="-95.608" width="1275.59" height="252"/>
	</defs>
	<clipPath id="SVGID_113_">
		<use xlink:href="#SVGID_963_"  overflow="visible"/>
	</clipPath>
</g>
<g>
	<defs>
		<rect id="SVGID_968_" x="-1105.172" y="-95.608" width="1275.59" height="252"/>
	</defs>
	<clipPath id="SVGID_115_">
		<use xlink:href="#SVGID_968_"  overflow="visible"/>
	</clipPath>
</g>
<g>
	<defs>
		<rect id="SVGID_976_" x="-1105.172" y="-95.608" width="1275.59" height="252"/>
	</defs>
	<clipPath id="SVGID_117_">
		<use xlink:href="#SVGID_976_"  overflow="visible"/>
	</clipPath>
</g>
<g>
	<defs>
		<rect id="SVGID_981_" x="-1105.172" y="-95.608" width="1275.59" height="252"/>
	</defs>
	<clipPath id="SVGID_118_">
		<use xlink:href="#SVGID_981_"  overflow="visible"/>
	</clipPath>
</g>
<g>
	<defs>
		<rect id="SVGID_986_" x="-1105.172" y="-95.608" width="1275.59" height="252"/>
	</defs>
	<clipPath id="SVGID_120_">
		<use xlink:href="#SVGID_986_"  overflow="visible"/>
	</clipPath>
</g>
<g>
	<defs>
		<rect id="SVGID_991_" x="-1105.172" y="-95.608" width="1275.59" height="252"/>
	</defs>
	<clipPath id="SVGID_121_">
		<use xlink:href="#SVGID_991_"  overflow="visible"/>
	</clipPath>
</g>
<g>
	<defs>
		<rect id="SVGID_996_" x="-1105.172" y="-95.608" width="1275.59" height="252"/>
	</defs>
	<clipPath id="SVGID_123_">
		<use xlink:href="#SVGID_996_"  overflow="visible"/>
	</clipPath>
</g>
<g>
	<defs>
		<rect id="SVGID_1001_" x="-1105.172" y="-95.608" width="1275.59" height="252"/>
	</defs>
	<clipPath id="SVGID_125_">
		<use xlink:href="#SVGID_1001_"  overflow="visible"/>
	</clipPath>
</g>
<g>
	<defs>
		<rect id="SVGID_1009_" x="-1105.172" y="-95.608" width="1275.59" height="252"/>
	</defs>
	<clipPath id="SVGID_126_">
		<use xlink:href="#SVGID_1009_"  overflow="visible"/>
	</clipPath>
</g>
<g>
	<defs>
		<rect id="SVGID_1014_" x="-1105.172" y="-95.608" width="1275.59" height="252"/>
	</defs>
	<clipPath id="SVGID_128_">
		<use xlink:href="#SVGID_1014_"  overflow="visible"/>
	</clipPath>
</g>
<g>
	<defs>
		<rect id="SVGID_1019_" x="-1105.172" y="-95.608" width="1275.59" height="252"/>
	</defs>
	<clipPath id="SVGID_130_">
		<use xlink:href="#SVGID_1019_"  overflow="visible"/>
	</clipPath>
</g>
<g>
	<defs>
		<rect id="SVGID_1024_" x="-1105.172" y="-95.608" width="1275.59" height="252"/>
	</defs>
	<clipPath id="SVGID_131_">
		<use xlink:href="#SVGID_1024_"  overflow="visible"/>
	</clipPath>
</g>
<g>
	<defs>
		<rect id="SVGID_1029_" x="-1105.172" y="-95.608" width="1275.59" height="252"/>
	</defs>
	<clipPath id="SVGID_133_">
		<use xlink:href="#SVGID_1029_"  overflow="visible"/>
	</clipPath>
</g>
<g>
	<defs>
		<rect id="SVGID_1034_" x="-1105.172" y="-95.608" width="1275.59" height="252"/>
	</defs>
	<clipPath id="SVGID_135_">
		<use xlink:href="#SVGID_1034_"  overflow="visible"/>
	</clipPath>
</g>
<g>
	<defs>
		<rect id="SVGID_1042_" x="-1105.172" y="-95.608" width="1275.59" height="252"/>
	</defs>
	<clipPath id="SVGID_136_">
		<use xlink:href="#SVGID_1042_"  overflow="visible"/>
	</clipPath>
</g>
<g>
	<defs>
		<rect id="SVGID_1047_" x="-1105.172" y="-95.608" width="1275.59" height="252"/>
	</defs>
	<clipPath id="SVGID_138_">
		<use xlink:href="#SVGID_1047_"  overflow="visible"/>
	</clipPath>
</g>
<g>
	<defs>
		<rect id="SVGID_1052_" x="-1105.172" y="-95.608" width="1275.59" height="252"/>
	</defs>
	<clipPath id="SVGID_140_">
		<use xlink:href="#SVGID_1052_"  overflow="visible"/>
	</clipPath>
</g>
<g>
	<defs>
		<rect id="SVGID_1057_" x="-1105.172" y="-95.608" width="1275.59" height="252"/>
	</defs>
	<clipPath id="SVGID_141_">
		<use xlink:href="#SVGID_1057_"  overflow="visible"/>
	</clipPath>
</g>
<g>
	<defs>
		<rect id="SVGID_1062_" x="-1105.172" y="-95.608" width="1275.59" height="252"/>
	</defs>
	<clipPath id="SVGID_143_">
		<use xlink:href="#SVGID_1062_"  overflow="visible"/>
	</clipPath>
</g>
<g>
	<defs>
		<rect id="SVGID_1067_" x="-1105.172" y="-95.608" width="1275.59" height="252"/>
	</defs>
	<clipPath id="SVGID_145_">
		<use xlink:href="#SVGID_1067_"  overflow="visible"/>
	</clipPath>
</g>
<g>
	<defs>
		<rect id="SVGID_1075_" x="-1105.172" y="-95.608" width="1275.59" height="252"/>
	</defs>
	<clipPath id="SVGID_146_">
		<use xlink:href="#SVGID_1075_"  overflow="visible"/>
	</clipPath>
</g>
<g>
	<defs>
		<rect id="SVGID_1080_" x="-1105.172" y="-95.608" width="1275.59" height="252"/>
	</defs>
	<clipPath id="SVGID_148_">
		<use xlink:href="#SVGID_1080_"  overflow="visible"/>
	</clipPath>
</g>
<g>
	<defs>
		<rect id="SVGID_1085_" x="-1105.172" y="-95.608" width="1275.59" height="252"/>
	</defs>
	<clipPath id="SVGID_150_">
		<use xlink:href="#SVGID_1085_"  overflow="visible"/>
	</clipPath>
</g>
<g>
	<defs>
		<rect id="SVGID_1090_" x="-1105.172" y="-95.608" width="1275.59" height="252"/>
	</defs>
	<clipPath id="SVGID_151_">
		<use xlink:href="#SVGID_1090_"  overflow="visible"/>
	</clipPath>
</g>
<g>
	<defs>
		<rect id="SVGID_1095_" x="-1105.172" y="-95.608" width="1275.59" height="252"/>
	</defs>
	<clipPath id="SVGID_153_">
		<use xlink:href="#SVGID_1095_"  overflow="visible"/>
	</clipPath>
</g>
<g>
	<defs>
		<rect id="SVGID_1100_" x="-1105.172" y="-95.608" width="1275.59" height="252"/>
	</defs>
	<clipPath id="SVGID_154_">
		<use xlink:href="#SVGID_1100_"  overflow="visible"/>
	</clipPath>
</g>
<g>
	<defs>
		<rect id="SVGID_1108_" x="-1105.172" y="-95.608" width="1275.59" height="252"/>
	</defs>
	<clipPath id="SVGID_156_">
		<use xlink:href="#SVGID_1108_"  overflow="visible"/>
	</clipPath>
</g>
<g>
	<path fill="#FAFAFC" d="M0,10.321v-2.77h1.015l0.251,1.842L1.42,9.62c0.139,0.029,0.275,0.051,0.414,0.066
		C1.971,9.7,2.109,9.708,2.252,9.708c0.421,0,0.755-0.125,1.004-0.377C3.504,9.08,3.629,8.746,3.629,8.327
		c0-0.136-0.017-0.267-0.051-0.391c-0.033-0.124-0.083-0.237-0.146-0.34C3.262,7.339,2.899,7.063,2.349,6.771
		C2.077,6.636,1.869,6.521,1.725,6.429C1.157,6.083,0.743,5.681,0.479,5.227c-0.262-0.455-0.394-1.003-0.394-1.64
		c0-0.945,0.258-1.705,0.772-2.279c0.517-0.574,1.207-0.861,2.072-0.861c0.362,0,0.742,0.05,1.136,0.152
		c0.396,0.103,0.796,0.252,1.202,0.445v2.527H4.254l-0.22-1.657L3.901,1.731C3.803,1.688,3.697,1.654,3.59,1.634
		C3.48,1.611,3.365,1.599,3.244,1.599c-0.412,0-0.735,0.121-0.971,0.359S1.922,2.521,1.922,2.929c0,0.561,0.449,1.099,1.35,1.615
		c0.104,0.059,0.182,0.104,0.235,0.139c0.805,0.463,1.337,0.904,1.598,1.326c0.262,0.42,0.393,0.965,0.393,1.631
		c0,0.979-0.28,1.762-0.844,2.346c-0.561,0.585-1.319,0.877-2.272,0.877c-0.32,0-0.672-0.044-1.055-0.132
		C0.943,10.642,0.502,10.507,0,10.321"/>
	<path fill="#FAFAFC" d="M6.006,3.331h3.275v0.738L8.728,4.171L8.625,4.353l1.126,3.873l1.084-3.857l-0.111-0.197l-0.587-0.102
		V3.331h2.326v0.738l-0.604,0.146l-2.118,6.777c-0.285,0.911-0.656,1.643-1.113,2.195s-0.917,0.828-1.38,0.828
		c-0.303,0-0.56-0.139-0.772-0.416c-0.214-0.277-0.321-0.608-0.321-0.994c0-0.311,0.08-0.584,0.238-0.82s0.374-0.4,0.647-0.493
		l0.93,1.212c0.163-0.136,0.314-0.318,0.456-0.548c0.141-0.229,0.276-0.517,0.407-0.86L6.672,4.244L6.006,4.069V3.331z"/>
	<path fill="#FAFAFC" d="M17.336,3.47v2.286h-0.784l-0.145-1.183l-0.144-0.205c-0.147-0.092-0.285-0.16-0.416-0.205
		c-0.133-0.043-0.26-0.065-0.379-0.065c-0.258,0-0.46,0.072-0.61,0.216c-0.149,0.143-0.223,0.336-0.223,0.573
		c0,0.424,0.327,0.801,0.981,1.132c0.213,0.107,0.379,0.195,0.496,0.264c0.574,0.321,0.963,0.638,1.172,0.949
		c0.208,0.311,0.313,0.708,0.313,1.191c0,0.691-0.24,1.273-0.719,1.744c-0.479,0.473-1.08,0.71-1.807,0.71
		c-0.344,0-0.713-0.037-1.102-0.11c-0.391-0.072-0.799-0.182-1.226-0.329V7.939h0.785l0.133,1.366l0.123,0.189
		c0.193,0.127,0.383,0.222,0.573,0.283c0.191,0.06,0.382,0.09,0.575,0.09c0.249,0,0.446-0.078,0.594-0.233
		c0.149-0.156,0.222-0.365,0.222-0.628c0-0.38-0.256-0.719-0.768-1.016c-0.114-0.068-0.2-0.119-0.256-0.153
		c-0.794-0.478-1.313-0.884-1.555-1.216c-0.241-0.334-0.361-0.736-0.361-1.209c0-0.696,0.222-1.262,0.67-1.694
		c0.446-0.435,1.036-0.651,1.768-0.651c0.278,0,0.59,0.033,0.933,0.1C16.524,3.233,16.908,3.333,17.336,3.47"/>
	<path fill="#FAFAFC" d="M18.943,4.587h-0.784V3.9l0.938-0.803l0.69-1.739h0.97v2.126h1.661v1.103h-1.661v3.492
		c0,0.512,0.073,0.855,0.217,1.033c0.145,0.178,0.422,0.268,0.835,0.268c0.085,0,0.178-0.008,0.278-0.022
		c0.099-0.015,0.21-0.037,0.331-0.065v0.861c-0.389,0.2-0.752,0.352-1.092,0.456s-0.642,0.158-0.904,0.158
		c-0.289,0-0.545-0.062-0.77-0.183c-0.225-0.123-0.397-0.295-0.522-0.52c-0.068-0.122-0.116-0.295-0.144-0.521
		c-0.029-0.228-0.043-0.586-0.043-1.078V4.587z"/>
	<path fill="#FAFAFC" d="M28.514,8.567v1.382c-0.418,0.286-0.845,0.5-1.281,0.639c-0.438,0.14-0.901,0.208-1.389,0.208
		c-0.91,0-1.635-0.347-2.17-1.041c-0.535-0.693-0.804-1.628-0.804-2.801c0-1.174,0.277-2.117,0.829-2.83
		c0.55-0.714,1.28-1.07,2.187-1.07c0.845,0,1.498,0.326,1.962,0.979c0.466,0.652,0.696,1.572,0.696,2.761v0.19h-3.767
		c0.01,0.74,0.159,1.324,0.445,1.752c0.285,0.43,0.668,0.644,1.145,0.644c0.37,0,0.73-0.067,1.083-0.2
		C27.803,9.044,28.157,8.841,28.514,8.567 M26.596,6.041c0-0.69-0.066-1.201-0.201-1.526c-0.137-0.326-0.345-0.49-0.625-0.49
		c-0.317,0-0.556,0.164-0.716,0.494c-0.159,0.328-0.239,0.816-0.239,1.463v0.06H26.596z"/>
	<path fill="#FAFAFC" d="M35.121,4.156c0.459-0.354,0.868-0.621,1.229-0.796c0.359-0.176,0.671-0.264,0.939-0.264
		c0.543,0,0.943,0.219,1.199,0.654c0.257,0.436,0.385,1.123,0.385,2.063V9.62l0.106,0.189l0.604,0.074v0.795H36.51V9.884
		l0.426-0.074l0.133-0.189V6.429c0-0.653-0.084-1.103-0.253-1.349s-0.466-0.368-0.894-0.368c-0.153,0-0.28,0.008-0.381,0.025
		c-0.103,0.018-0.193,0.043-0.275,0.077V9.62l0.133,0.204l0.481,0.081v0.773h-2.921V9.854l0.395-0.03l0.129-0.255V6.238
		c0-0.536-0.087-0.924-0.259-1.165s-0.451-0.361-0.835-0.361H32.19c-0.11,0-0.196,0.004-0.256,0.01
		c-0.06,0.008-0.116,0.019-0.166,0.033V9.62l0.139,0.189l0.406,0.074v0.795h-3.058V9.884L29.82,9.81l0.123-0.189V4.697h-0.688V3.959
		l1.879-0.862h0.634v0.973c0.41-0.331,0.775-0.577,1.095-0.735c0.32-0.157,0.61-0.237,0.869-0.237c0.292,0,0.548,0.084,0.768,0.252
		C34.719,3.517,34.926,3.786,35.121,4.156"/>
	<polygon fill="#FAFAFC" points="43.352,3.302 46.372,3.302 46.372,3.995 46.031,4.098 45.988,4.274 46.864,5.909 47.76,4.2 
		47.301,4.069 47.301,3.302 49.42,3.302 49.42,4.142 48.785,4.2 47.376,6.522 49.094,9.766 49.639,9.92 49.639,10.679 
		46.741,10.679 46.741,10.051 47.072,9.883 47.115,9.737 46.154,7.926 45.156,9.81 45.604,9.92 45.604,10.679 43.352,10.679 
		43.352,9.92 44.067,9.708 45.604,7.224 43.965,4.2 43.352,4.142 	"/>
	<path fill="#FAFAFC" d="M53.713,5.384c0.742,0.059,1.315,0.306,1.719,0.742c0.401,0.435,0.603,1.025,0.603,1.771
		c0,0.856-0.3,1.567-0.896,2.133c-0.599,0.565-1.363,0.847-2.296,0.847c-0.836,0-1.498-0.185-1.987-0.555
		c-0.49-0.37-0.734-0.863-0.734-1.482c0-0.381,0.09-0.687,0.271-0.92c0.179-0.234,0.417-0.352,0.712-0.352
		c0.099,0,0.201,0.012,0.304,0.037c0.104,0.023,0.21,0.061,0.321,0.109l0.368,1.965c0.138,0.039,0.259,0.067,0.359,0.088
		c0.103,0.019,0.19,0.029,0.265,0.029c0.391,0,0.708-0.17,0.949-0.509c0.242-0.338,0.363-0.782,0.363-1.333
		c0-0.555-0.139-0.992-0.419-1.311c-0.279-0.319-0.661-0.479-1.145-0.479c-0.129,0-0.252,0.01-0.373,0.029s-0.24,0.049-0.358,0.087
		V4.982c0.079,0.014,0.153,0.024,0.224,0.032c0.071,0.008,0.14,0.011,0.203,0.011c0.498,0,0.89-0.149,1.172-0.449
		c0.282-0.299,0.425-0.71,0.425-1.231c0-0.555-0.128-0.991-0.385-1.311c-0.257-0.318-0.609-0.479-1.062-0.479
		c-0.022,0-0.054,0.002-0.096,0.008c-0.043,0.005-0.077,0.007-0.103,0.007v2.089c-0.125,0.088-0.25,0.153-0.377,0.194
		c-0.126,0.041-0.255,0.062-0.386,0.062c-0.311,0-0.557-0.111-0.74-0.336c-0.183-0.224-0.273-0.521-0.273-0.891
		c0-0.648,0.255-1.18,0.766-1.594c0.51-0.412,1.18-0.619,2.009-0.619c0.801,0,1.44,0.229,1.916,0.689
		c0.478,0.461,0.715,1.068,0.715,1.822c0,0.619-0.176,1.137-0.528,1.553C54.865,4.956,54.363,5.237,53.713,5.384"/>
	<path fill="#FAFAFC" d="M62.375,0v1.33l-0.678-0.132c-0.673,0.102-1.213,0.43-1.619,0.982C59.67,2.733,59.411,3.487,59.3,4.44
		c0.253-0.209,0.528-0.369,0.826-0.478c0.297-0.11,0.608-0.165,0.936-0.165c0.662,0,1.22,0.327,1.671,0.979
		c0.451,0.653,0.679,1.47,0.679,2.447c0,1.106-0.279,1.996-0.836,2.67c-0.558,0.674-1.294,1.012-2.212,1.012
		c-0.985,0-1.748-0.411-2.287-1.234c-0.539-0.822-0.81-1.986-0.81-3.491c0-0.935,0.119-1.786,0.358-2.557
		c0.238-0.769,0.592-1.454,1.062-2.054c0.416-0.534,0.902-0.931,1.457-1.186C60.699,0.128,61.354,0,62.107,0H62.375z M59.193,5.397
		c-0.004,0.021-0.006,0.049-0.006,0.088c-0.01,0.375-0.015,0.656-0.015,0.84c0,1.15,0.102,2.02,0.306,2.611
		c0.205,0.592,0.508,0.889,0.905,0.889c0.328,0,0.588-0.199,0.783-0.596c0.192-0.396,0.29-0.932,0.29-1.604
		c0-0.848-0.118-1.452-0.355-1.814c-0.235-0.363-0.629-0.545-1.177-0.545c-0.131,0-0.257,0.01-0.378,0.032
		C59.425,5.321,59.308,5.354,59.193,5.397"/>
	<path fill="#FAFAFC" d="M64.846,0.644h4.853v1.928h-3.763v2.082c0.292-0.141,0.57-0.247,0.838-0.318
		c0.266-0.07,0.522-0.105,0.768-0.105c0.794,0,1.434,0.277,1.919,0.832c0.486,0.556,0.729,1.287,0.729,2.191
		c0,1.102-0.311,1.977-0.93,2.631c-0.619,0.652-1.457,0.979-2.514,0.979c-0.715,0-1.296-0.186-1.74-0.559s-0.667-0.847-0.667-1.422
		c0-0.394,0.099-0.721,0.293-0.982c0.196-0.26,0.445-0.391,0.747-0.391c0.098,0,0.199,0.014,0.311,0.045
		c0.109,0.028,0.232,0.072,0.369,0.131l0.324,2.097c0.012,0,0.028,0.002,0.055,0.007c0.102,0.016,0.18,0.021,0.233,0.021
		c0.466,0,0.85-0.196,1.148-0.592c0.298-0.394,0.448-0.9,0.448-1.519c0-0.599-0.173-1.085-0.519-1.457
		c-0.344-0.373-0.8-0.56-1.366-0.56c-0.233,0-0.479,0.03-0.735,0.092c-0.257,0.061-0.524,0.15-0.802,0.267V0.644z"/>
	<path fill="#FAFAFC" d="M74.352,0.46c0.961,0,1.719,0.463,2.274,1.389c0.555,0.925,0.833,2.193,0.833,3.805
		c0,1.612-0.278,2.883-0.833,3.813c-0.556,0.93-1.313,1.396-2.274,1.396c-0.945,0-1.693-0.465-2.238-1.392
		c-0.547-0.929-0.819-2.2-0.819-3.817c0-1.611,0.271-2.88,0.815-3.805C72.654,0.923,73.401,0.46,74.352,0.46 M74.363,1.432
		c-0.366,0-0.639,0.345-0.814,1.034s-0.264,1.746-0.264,3.174c0,1.475,0.086,2.549,0.259,3.221s0.444,1.008,0.819,1.008
		c0.381,0,0.657-0.336,0.832-1.008s0.262-1.746,0.262-3.221c0-1.457-0.088-2.521-0.265-3.196S74.74,1.432,74.363,1.432"/>
	<polygon fill="#FAFAFC" points="81.621,10.679 81.621,9.81 82.386,9.751 82.518,9.468 82.518,1.746 82.386,1.57 81.621,1.462 
		81.621,0.644 85.149,0.644 85.149,1.074 86.66,7.341 88.16,1.06 88.16,0.644 91.698,0.644 91.698,1.462 90.883,1.57 90.748,1.775 
		90.748,9.468 90.883,9.751 91.698,9.81 91.698,10.679 88.16,10.679 88.16,9.81 88.839,9.751 88.934,9.468 88.934,1.746 
		88.912,1.746 86.772,10.679 85.668,10.679 83.521,1.746 83.5,1.746 83.5,9.468 83.635,9.751 84.354,9.81 84.354,10.679 	"/>
	<path fill="#FAFAFC" d="M95.895,5.384c0.743,0.059,1.316,0.306,1.72,0.742c0.401,0.435,0.603,1.025,0.603,1.771
		c0,0.856-0.3,1.567-0.896,2.133c-0.599,0.565-1.363,0.847-2.295,0.847c-0.836,0-1.499-0.185-1.988-0.555
		c-0.49-0.37-0.734-0.863-0.734-1.482c0-0.381,0.09-0.687,0.271-0.92c0.179-0.234,0.417-0.352,0.712-0.352
		c0.099,0,0.201,0.012,0.304,0.037c0.104,0.023,0.21,0.061,0.321,0.109l0.368,1.965c0.138,0.039,0.259,0.067,0.359,0.088
		c0.103,0.019,0.19,0.029,0.265,0.029c0.391,0,0.708-0.17,0.949-0.509c0.242-0.338,0.363-0.782,0.363-1.333
		c0-0.555-0.139-0.992-0.419-1.311c-0.279-0.319-0.661-0.479-1.145-0.479c-0.128,0-0.253,0.01-0.373,0.029
		c-0.121,0.02-0.24,0.049-0.358,0.087V4.982c0.079,0.014,0.153,0.024,0.224,0.032c0.071,0.008,0.14,0.011,0.203,0.011
		c0.498,0,0.89-0.149,1.172-0.449c0.282-0.299,0.425-0.71,0.425-1.231c0-0.555-0.129-0.991-0.385-1.311
		c-0.257-0.318-0.609-0.479-1.062-0.479c-0.022,0-0.054,0.002-0.096,0.008c-0.044,0.005-0.077,0.007-0.103,0.007v2.089
		c-0.125,0.088-0.25,0.153-0.377,0.194c-0.126,0.041-0.255,0.062-0.386,0.062c-0.311,0-0.556-0.111-0.74-0.336
		c-0.183-0.224-0.274-0.521-0.274-0.891c0-0.648,0.256-1.18,0.767-1.594c0.51-0.412,1.18-0.619,2.009-0.619
		c0.801,0,1.44,0.229,1.916,0.689c0.477,0.461,0.715,1.068,0.715,1.822c0,0.619-0.176,1.137-0.527,1.553
		C97.048,4.956,96.546,5.237,95.895,5.384"/>
</g>
<rect x="-1105.172" y="-95.608" fill="none" width="1275.59" height="252"/>
</svg>
