<?xml version="1.0" encoding="utf-8"?>
<!-- Generator: Adobe Illustrator 16.0.0, SVG Export Plug-In . SVG Version: 6.00 Build 0)  -->
<!DOCTYPE svg PUBLIC "-//W3C//DTD SVG 1.1//EN" "http://www.w3.org/Graphics/SVG/1.1/DTD/svg11.dtd">
<svg version="1.1" id="图层_1" xmlns="http://www.w3.org/2000/svg" xmlns:xlink="http://www.w3.org/1999/xlink" x="0px" y="0px"
	 width="35.44px" height="17.84px" viewBox="0 0 35.44 17.84" enable-background="new 0 0 35.44 17.84" xml:space="preserve">
<path fill="#46474E" d="M33.035,6.949H2.471c-0.244,0-0.439-0.107-0.439-0.235V4.406c0-0.128,0.195-0.233,0.439-0.233h30.564
	c0.243,0,0.439,0.105,0.439,0.233v2.308C33.475,6.842,33.278,6.949,33.035,6.949"/>
<path fill="none" stroke="#4C4D55" stroke-miterlimit="10" d="M33.733,14.103H1.708c-0.665,0-1.204-0.584-1.204-1.304V1.805
	c0-0.722,0.54-1.305,1.204-1.305h32.025c0.663,0,1.204,0.583,1.204,1.305v10.994C34.938,13.519,34.396,14.103,33.733,14.103z"/>
<rect x="0.002" y="15.427" fill="#46474E" width="35.438" height="2.416"/>
</svg>
