<?xml version="1.0" encoding="utf-8"?>
<!-- Generator: Adobe Illustrator 16.0.0, SVG Export Plug-In . SVG Version: 6.00 Build 0)  -->
<!DOCTYPE svg PUBLIC "-//W3C//DTD SVG 1.1//EN" "http://www.w3.org/Graphics/SVG/1.1/DTD/svg11.dtd">
<svg version="1.1" id="图层_1" xmlns="http://www.w3.org/2000/svg" xmlns:xlink="http://www.w3.org/1999/xlink" x="0px" y="0px"
	 width="82.959px" height="32.709px" viewBox="0 0 82.959 32.709" enable-background="new 0 0 82.959 32.709" xml:space="preserve">
<g>
	<defs>
		<rect id="SVGID_558_" x="-853.042" y="-86.229" width="1275.59" height="252"/>
	</defs>
	<clipPath id="SVGID_2_">
		<use xlink:href="#SVGID_558_"  overflow="visible"/>
	</clipPath>
	
		<rect x="-853.042" y="-86.229" clip-path="url(#SVGID_2_)" fill="none" stroke="#242426" stroke-width="2" stroke-miterlimit="10" width="1275.59" height="252"/>
	<path clip-path="url(#SVGID_2_)" fill="#FAFAFC" d="M76.847,32.269H6.187c-3.119,0-5.671-2.552-5.671-5.669V6.178
		c0-3.118,2.552-5.67,5.671-5.67h70.66c3.118,0,5.669,2.552,5.669,5.67V26.6C82.516,29.717,79.965,32.269,76.847,32.269"/>
	<path clip-path="url(#SVGID_2_)" fill="none" stroke="#1C1D20" stroke-miterlimit="10" d="M76.847,32.269H6.187
		c-3.119,0-5.671-2.552-5.671-5.669V6.178c0-3.118,2.552-5.67,5.671-5.67h70.66c3.118,0,5.669,2.552,5.669,5.67V26.6
		C82.516,29.717,79.965,32.269,76.847,32.269z"/>
	<path clip-path="url(#SVGID_2_)" fill="#414244" d="M55.345,26.347H28.39c-3.737,0-6.953-2.642-7.679-6.307l-1.806-9.119
		c-0.551-3.123,1.982-5.968,5.313-5.968h35.297c3.331,0,5.864,2.845,5.313,5.968l-1.807,9.119
		C62.297,23.705,59.082,26.347,55.345,26.347"/>
	<path clip-path="url(#SVGID_2_)" fill="none" stroke="#B9B9B9" stroke-miterlimit="10" d="M55.345,26.347H28.39
		c-3.737,0-6.953-2.642-7.679-6.307l-1.806-9.119c-0.551-3.123,1.982-5.968,5.313-5.968h35.297c3.331,0,5.864,2.845,5.313,5.968
		l-1.807,9.119C62.297,23.705,59.082,26.347,55.345,26.347z"/>
	<path clip-path="url(#SVGID_2_)" d="M29.304,9.806c0,1.218-0.985,2.206-2.199,2.206c-1.215,0-2.199-0.988-2.199-2.206
		S25.89,7.6,27.104,7.6C28.318,7.6,29.304,8.588,29.304,9.806"/>
	<path clip-path="url(#SVGID_2_)" d="M35.964,9.806c0,1.218-0.984,2.206-2.198,2.206c-1.216,0-2.199-0.988-2.199-2.206
		S32.55,7.6,33.766,7.6C34.979,7.6,35.964,8.588,35.964,9.806"/>
	<path clip-path="url(#SVGID_2_)" d="M42.625,9.806c0,1.218-0.985,2.206-2.199,2.206c-1.215,0-2.199-0.988-2.199-2.206
		S39.211,7.6,40.426,7.6C41.64,7.6,42.625,8.588,42.625,9.806"/>
	<path clip-path="url(#SVGID_2_)" d="M49.285,9.806c0,1.218-0.984,2.206-2.198,2.206c-1.216,0-2.2-0.988-2.2-2.206
		s0.984-2.206,2.2-2.206C48.301,7.6,49.285,8.588,49.285,9.806"/>
	<path clip-path="url(#SVGID_2_)" d="M55.946,9.806c0,1.218-0.985,2.206-2.199,2.206c-1.215,0-2.2-0.988-2.2-2.206
		s0.985-2.206,2.2-2.206C54.961,7.6,55.946,8.588,55.946,9.806"/>
	<path clip-path="url(#SVGID_2_)" d="M32.866,15.65c0,1.217-0.985,2.205-2.199,2.205c-1.215,0-2.2-0.988-2.2-2.205
		c0-1.219,0.985-2.207,2.2-2.207C31.881,13.443,32.866,14.432,32.866,15.65"/>
	<path clip-path="url(#SVGID_2_)" d="M39.526,15.65c0,1.217-0.985,2.205-2.199,2.205c-1.215,0-2.199-0.988-2.199-2.205
		c0-1.219,0.984-2.207,2.199-2.207C38.541,13.443,39.526,14.432,39.526,15.65"/>
	<path clip-path="url(#SVGID_2_)" d="M46.188,15.65c0,1.217-0.985,2.205-2.199,2.205c-1.215,0-2.199-0.988-2.199-2.205
		c0-1.219,0.984-2.207,2.199-2.207C45.202,13.443,46.188,14.432,46.188,15.65"/>
	<path clip-path="url(#SVGID_2_)" d="M52.848,15.65c0,1.217-0.985,2.205-2.199,2.205c-1.215,0-2.198-0.988-2.198-2.205
		c0-1.219,0.983-2.207,2.198-2.207C51.862,13.443,52.848,14.432,52.848,15.65"/>
	<path clip-path="url(#SVGID_2_)" d="M59.509,15.65c0,1.217-0.985,2.205-2.199,2.205c-1.215,0-2.199-0.988-2.199-2.205
		c0-1.219,0.984-2.207,2.199-2.207C58.523,13.443,59.509,14.432,59.509,15.65"/>
	<path clip-path="url(#SVGID_2_)" d="M28.624,21.494c0,1.219-0.984,2.206-2.199,2.206s-2.198-0.987-2.198-2.206
		c0-1.218,0.983-2.206,2.198-2.206S28.624,20.276,28.624,21.494"/>
	<path clip-path="url(#SVGID_2_)" d="M35.285,21.494c0,1.219-0.985,2.206-2.199,2.206c-1.215,0-2.2-0.987-2.2-2.206
		c0-1.218,0.985-2.206,2.2-2.206C34.3,19.288,35.285,20.276,35.285,21.494"/>
	<path clip-path="url(#SVGID_2_)" d="M41.945,21.494c0,1.219-0.984,2.206-2.198,2.206c-1.216,0-2.2-0.987-2.2-2.206
		c0-1.218,0.984-2.206,2.2-2.206C40.961,19.288,41.945,20.276,41.945,21.494"/>
	<path clip-path="url(#SVGID_2_)" d="M48.606,21.494c0,1.219-0.985,2.206-2.199,2.206c-1.215,0-2.2-0.987-2.2-2.206
		c0-1.218,0.985-2.206,2.2-2.206C47.621,19.288,48.606,20.276,48.606,21.494"/>
	<path clip-path="url(#SVGID_2_)" d="M55.267,21.494c0,1.219-0.984,2.206-2.199,2.206s-2.199-0.987-2.199-2.206
		c0-1.218,0.984-2.206,2.199-2.206S55.267,20.276,55.267,21.494"/>
	<path clip-path="url(#SVGID_2_)" fill="#BDBDBD" d="M10.475,19.77c-0.474,0-0.915-0.255-1.151-0.666l-1.797-3.111
		c-0.235-0.409-0.235-0.918,0-1.327l1.797-3.113c0.236-0.409,0.678-0.664,1.151-0.664h3.593c0.473,0,0.913,0.255,1.15,0.664
		l1.798,3.113c0.235,0.409,0.235,0.918,0,1.327l-1.797,3.113c-0.238,0.409-0.679,0.664-1.151,0.664H10.475z"/>
	<path clip-path="url(#SVGID_2_)" fill="#8F8F8F" d="M14.067,11.264c0.341,0,0.656,0.182,0.826,0.477l1.797,3.111
		c0.17,0.295,0.17,0.658,0,0.953l-1.797,3.112c-0.17,0.295-0.485,0.478-0.826,0.478h-3.593c-0.341,0-0.656-0.183-0.826-0.478
		l-1.797-3.112c-0.17-0.295-0.17-0.658,0-0.953l1.797-3.111c0.17-0.295,0.485-0.477,0.826-0.477H14.067 M14.067,10.514h-3.593
		c-0.607,0-1.173,0.325-1.476,0.852l-1.797,3.111c-0.304,0.525-0.304,1.178,0,1.703l1.797,3.112
		c0.303,0.526,0.868,0.853,1.476,0.853h3.593c0.607,0,1.172-0.326,1.476-0.853l1.797-3.112c0.303-0.525,0.303-1.178,0-1.703
		l-1.797-3.111C15.239,10.839,14.675,10.514,14.067,10.514"/>
	<path clip-path="url(#SVGID_2_)" fill="#CECECE" d="M15.881,15.357c0,1.998-1.616,3.619-3.609,3.619
		c-1.994,0-3.61-1.621-3.61-3.619c0-2,1.616-3.621,3.61-3.621C14.265,11.736,15.881,13.357,15.881,15.357"/>
	
		<ellipse clip-path="url(#SVGID_2_)" fill="none" stroke="#8F8F8F" stroke-width="0.25" stroke-miterlimit="10" cx="12.271" cy="15.357" rx="3.61" ry="3.619"/>
	<path clip-path="url(#SVGID_2_)" fill="#414244" d="M14.501,15.357c0,1.234-0.998,2.235-2.23,2.235
		c-1.23,0-2.229-1.001-2.229-2.235c0-1.235,0.999-2.236,2.229-2.236C13.503,13.121,14.501,14.122,14.501,15.357"/>
	
		<ellipse clip-path="url(#SVGID_2_)" fill="none" stroke="#000000" stroke-width="0.25" stroke-miterlimit="10" cx="12.271" cy="15.357" rx="2.23" ry="2.235"/>
	<path clip-path="url(#SVGID_2_)" fill="#8F8F8F" d="M12.964,15.357c0,0.383-0.31,0.694-0.692,0.694
		c-0.384,0-0.693-0.312-0.693-0.694c0-0.385,0.31-0.695,0.693-0.695C12.654,14.662,12.964,14.973,12.964,15.357"/>
	<path clip-path="url(#SVGID_2_)" fill="#BDBDBD" d="M69.667,19.77c-0.474,0-0.915-0.255-1.15-0.666l-1.798-3.111
		c-0.235-0.409-0.235-0.918,0-1.327l1.798-3.113c0.235-0.409,0.677-0.664,1.15-0.664h3.593c0.473,0,0.913,0.255,1.15,0.664
		l1.798,3.113c0.235,0.409,0.235,0.918,0,1.327l-1.797,3.113c-0.238,0.409-0.679,0.664-1.151,0.664H69.667z"/>
	<path clip-path="url(#SVGID_2_)" fill="#8F8F8F" d="M73.26,11.264c0.341,0,0.656,0.182,0.826,0.477l1.797,3.111
		c0.17,0.295,0.17,0.658,0,0.953l-1.797,3.112c-0.17,0.295-0.485,0.478-0.826,0.478h-3.593c-0.341,0-0.656-0.183-0.826-0.478
		l-1.797-3.112c-0.17-0.295-0.17-0.658,0-0.953l1.797-3.111c0.17-0.295,0.485-0.477,0.826-0.477H73.26 M73.26,10.514h-3.593
		c-0.607,0-1.172,0.325-1.477,0.852l-1.796,3.111c-0.304,0.525-0.304,1.178,0,1.703l1.796,3.112
		c0.305,0.526,0.869,0.853,1.477,0.853h3.593c0.607,0,1.172-0.326,1.476-0.853l1.797-3.112c0.303-0.525,0.303-1.178,0-1.703
		l-1.797-3.111C74.432,10.839,73.867,10.514,73.26,10.514"/>
	<path clip-path="url(#SVGID_2_)" fill="#CECECE" d="M75.073,15.357c0,1.998-1.616,3.619-3.609,3.619
		c-1.994,0-3.61-1.621-3.61-3.619c0-2,1.616-3.621,3.61-3.621C73.457,11.736,75.073,13.357,75.073,15.357"/>
	
		<ellipse clip-path="url(#SVGID_2_)" fill="none" stroke="#8F8F8F" stroke-width="0.25" stroke-miterlimit="10" cx="71.463" cy="15.357" rx="3.61" ry="3.619"/>
	<path clip-path="url(#SVGID_2_)" fill="#414244" d="M73.693,15.357c0,1.234-0.998,2.235-2.23,2.235
		c-1.23,0-2.229-1.001-2.229-2.235c0-1.235,0.999-2.236,2.229-2.236C72.695,13.121,73.693,14.122,73.693,15.357"/>
	
		<ellipse clip-path="url(#SVGID_2_)" fill="none" stroke="#000000" stroke-width="0.25" stroke-miterlimit="10" cx="71.463" cy="15.357" rx="2.23" ry="2.235"/>
	<path clip-path="url(#SVGID_2_)" fill="#8F8F8F" d="M72.156,15.357c0,0.383-0.31,0.694-0.692,0.694
		c-0.384,0-0.693-0.312-0.693-0.694c0-0.385,0.31-0.695,0.693-0.695C71.847,14.662,72.156,14.973,72.156,15.357"/>
</g>
<rect x="-853.042" y="-86.229" fill="none" width="1275.59" height="252"/>
<g>
	<defs>
		<rect id="SVGID_590_" x="-853.042" y="-86.229" width="1275.59" height="252"/>
	</defs>
	<clipPath id="SVGID_4_">
		<use xlink:href="#SVGID_590_"  overflow="visible"/>
	</clipPath>
</g>
<g>
	<defs>
		<rect id="SVGID_595_" x="-853.042" y="-86.229" width="1275.59" height="252"/>
	</defs>
	<clipPath id="SVGID_5_">
		<use xlink:href="#SVGID_595_"  overflow="visible"/>
	</clipPath>
</g>
<g>
	<defs>
		<rect id="SVGID_600_" x="-853.042" y="-86.229" width="1275.59" height="252"/>
	</defs>
	<clipPath id="SVGID_7_">
		<use xlink:href="#SVGID_600_"  overflow="visible"/>
	</clipPath>
</g>
<g>
	<defs>
		<rect id="SVGID_605_" x="-853.042" y="-86.229" width="1275.59" height="252"/>
	</defs>
	<clipPath id="SVGID_8_">
		<use xlink:href="#SVGID_605_"  overflow="visible"/>
	</clipPath>
</g>
<g>
	<defs>
		<rect id="SVGID_613_" x="-853.042" y="-86.229" width="1275.59" height="252"/>
	</defs>
	<clipPath id="SVGID_10_">
		<use xlink:href="#SVGID_613_"  overflow="visible"/>
	</clipPath>
</g>
<g>
	<defs>
		<rect id="SVGID_618_" x="-853.042" y="-86.229" width="1275.59" height="252"/>
	</defs>
	<clipPath id="SVGID_11_">
		<use xlink:href="#SVGID_618_"  overflow="visible"/>
	</clipPath>
</g>
<g>
	<defs>
		<rect id="SVGID_623_" x="-853.042" y="-86.229" width="1275.59" height="252"/>
	</defs>
	<clipPath id="SVGID_13_">
		<use xlink:href="#SVGID_623_"  overflow="visible"/>
	</clipPath>
</g>
<g>
	<defs>
		<rect id="SVGID_628_" x="-853.042" y="-86.229" width="1275.59" height="252"/>
	</defs>
	<clipPath id="SVGID_14_">
		<use xlink:href="#SVGID_628_"  overflow="visible"/>
	</clipPath>
</g>
<g>
	<defs>
		<rect id="SVGID_633_" x="-853.042" y="-86.229" width="1275.59" height="252"/>
	</defs>
	<clipPath id="SVGID_16_">
		<use xlink:href="#SVGID_633_"  overflow="visible"/>
	</clipPath>
</g>
<g>
	<defs>
		<rect id="SVGID_638_" x="-853.042" y="-86.229" width="1275.59" height="252"/>
	</defs>
	<clipPath id="SVGID_17_">
		<use xlink:href="#SVGID_638_"  overflow="visible"/>
	</clipPath>
</g>
<g>
	<defs>
		<rect id="SVGID_646_" x="-853.042" y="-86.229" width="1275.59" height="252"/>
	</defs>
	<clipPath id="SVGID_19_">
		<use xlink:href="#SVGID_646_"  overflow="visible"/>
	</clipPath>
</g>
<g>
	<defs>
		<rect id="SVGID_651_" x="-853.042" y="-86.229" width="1275.59" height="252"/>
	</defs>
	<clipPath id="SVGID_20_">
		<use xlink:href="#SVGID_651_"  overflow="visible"/>
	</clipPath>
</g>
<g>
	<defs>
		<rect id="SVGID_656_" x="-853.042" y="-86.229" width="1275.59" height="252"/>
	</defs>
	<clipPath id="SVGID_22_">
		<use xlink:href="#SVGID_656_"  overflow="visible"/>
	</clipPath>
</g>
<g>
	<defs>
		<rect id="SVGID_661_" x="-853.042" y="-86.229" width="1275.59" height="252"/>
	</defs>
	<clipPath id="SVGID_23_">
		<use xlink:href="#SVGID_661_"  overflow="visible"/>
	</clipPath>
</g>
<g>
	<defs>
		<rect id="SVGID_666_" x="-853.042" y="-86.229" width="1275.59" height="252"/>
	</defs>
	<clipPath id="SVGID_25_">
		<use xlink:href="#SVGID_666_"  overflow="visible"/>
	</clipPath>
</g>
<g>
	<defs>
		<rect id="SVGID_671_" x="-853.042" y="-86.229" width="1275.59" height="252"/>
	</defs>
	<clipPath id="SVGID_26_">
		<use xlink:href="#SVGID_671_"  overflow="visible"/>
	</clipPath>
</g>
<g>
	<defs>
		<rect id="SVGID_679_" x="-853.042" y="-86.229" width="1275.59" height="252"/>
	</defs>
	<clipPath id="SVGID_28_">
		<use xlink:href="#SVGID_679_"  overflow="visible"/>
	</clipPath>
</g>
<g>
	<defs>
		<rect id="SVGID_684_" x="-853.042" y="-86.229" width="1275.59" height="252"/>
	</defs>
	<clipPath id="SVGID_29_">
		<use xlink:href="#SVGID_684_"  overflow="visible"/>
	</clipPath>
</g>
<g>
	<defs>
		<rect id="SVGID_689_" x="-853.042" y="-86.229" width="1275.59" height="252"/>
	</defs>
	<clipPath id="SVGID_31_">
		<use xlink:href="#SVGID_689_"  overflow="visible"/>
	</clipPath>
</g>
<g>
	<defs>
		<rect id="SVGID_694_" x="-853.042" y="-86.229" width="1275.59" height="252"/>
	</defs>
	<clipPath id="SVGID_32_">
		<use xlink:href="#SVGID_694_"  overflow="visible"/>
	</clipPath>
</g>
<g>
	<defs>
		<rect id="SVGID_699_" x="-853.042" y="-86.229" width="1275.59" height="252"/>
	</defs>
	<clipPath id="SVGID_34_">
		<use xlink:href="#SVGID_699_"  overflow="visible"/>
	</clipPath>
</g>
<g>
	<defs>
		<rect id="SVGID_704_" x="-853.042" y="-86.229" width="1275.59" height="252"/>
	</defs>
	<clipPath id="SVGID_36_">
		<use xlink:href="#SVGID_704_"  overflow="visible"/>
	</clipPath>
</g>
<g>
	<defs>
		<rect id="SVGID_712_" x="-853.042" y="-86.229" width="1275.59" height="252"/>
	</defs>
	<clipPath id="SVGID_37_">
		<use xlink:href="#SVGID_712_"  overflow="visible"/>
	</clipPath>
</g>
<g>
	<defs>
		<rect id="SVGID_717_" x="-853.042" y="-86.229" width="1275.59" height="252"/>
	</defs>
	<clipPath id="SVGID_39_">
		<use xlink:href="#SVGID_717_"  overflow="visible"/>
	</clipPath>
</g>
<g>
	<defs>
		<rect id="SVGID_722_" x="-853.042" y="-86.229" width="1275.59" height="252"/>
	</defs>
	<clipPath id="SVGID_41_">
		<use xlink:href="#SVGID_722_"  overflow="visible"/>
	</clipPath>
</g>
<g>
	<defs>
		<rect id="SVGID_727_" x="-853.042" y="-86.229" width="1275.59" height="252"/>
	</defs>
	<clipPath id="SVGID_42_">
		<use xlink:href="#SVGID_727_"  overflow="visible"/>
	</clipPath>
</g>
<g>
	<defs>
		<rect id="SVGID_732_" x="-853.042" y="-86.229" width="1275.59" height="252"/>
	</defs>
	<clipPath id="SVGID_44_">
		<use xlink:href="#SVGID_732_"  overflow="visible"/>
	</clipPath>
</g>
<g>
	<defs>
		<rect id="SVGID_737_" x="-853.042" y="-86.229" width="1275.59" height="252"/>
	</defs>
	<clipPath id="SVGID_46_">
		<use xlink:href="#SVGID_737_"  overflow="visible"/>
	</clipPath>
</g>
<g>
	<defs>
		<rect id="SVGID_745_" x="-853.042" y="-86.229" width="1275.59" height="252"/>
	</defs>
	<clipPath id="SVGID_47_">
		<use xlink:href="#SVGID_745_"  overflow="visible"/>
	</clipPath>
</g>
<g>
	<defs>
		<rect id="SVGID_750_" x="-853.042" y="-86.229" width="1275.59" height="252"/>
	</defs>
	<clipPath id="SVGID_49_">
		<use xlink:href="#SVGID_750_"  overflow="visible"/>
	</clipPath>
</g>
<g>
	<defs>
		<rect id="SVGID_755_" x="-853.042" y="-86.229" width="1275.59" height="252"/>
	</defs>
	<clipPath id="SVGID_51_">
		<use xlink:href="#SVGID_755_"  overflow="visible"/>
	</clipPath>
</g>
<g>
	<defs>
		<rect id="SVGID_760_" x="-853.042" y="-86.229" width="1275.59" height="252"/>
	</defs>
	<clipPath id="SVGID_52_">
		<use xlink:href="#SVGID_760_"  overflow="visible"/>
	</clipPath>
</g>
<g>
	<defs>
		<rect id="SVGID_765_" x="-853.042" y="-86.229" width="1275.59" height="252"/>
	</defs>
	<clipPath id="SVGID_54_">
		<use xlink:href="#SVGID_765_"  overflow="visible"/>
	</clipPath>
</g>
<g>
	<defs>
		<rect id="SVGID_770_" x="-853.042" y="-86.229" width="1275.59" height="252"/>
	</defs>
	<clipPath id="SVGID_55_">
		<use xlink:href="#SVGID_770_"  overflow="visible"/>
	</clipPath>
</g>
<g>
	<defs>
		<rect id="SVGID_778_" x="-853.042" y="-86.229" width="1275.59" height="252"/>
	</defs>
	<clipPath id="SVGID_57_">
		<use xlink:href="#SVGID_778_"  overflow="visible"/>
	</clipPath>
</g>
<g>
	<defs>
		<rect id="SVGID_783_" x="-853.042" y="-86.229" width="1275.59" height="252"/>
	</defs>
	<clipPath id="SVGID_59_">
		<use xlink:href="#SVGID_783_"  overflow="visible"/>
	</clipPath>
</g>
<g>
	<defs>
		<rect id="SVGID_788_" x="-853.042" y="-86.229" width="1275.59" height="252"/>
	</defs>
	<clipPath id="SVGID_60_">
		<use xlink:href="#SVGID_788_"  overflow="visible"/>
	</clipPath>
</g>
<g>
	<defs>
		<rect id="SVGID_793_" x="-853.042" y="-86.229" width="1275.59" height="252"/>
	</defs>
	<clipPath id="SVGID_62_">
		<use xlink:href="#SVGID_793_"  overflow="visible"/>
	</clipPath>
</g>
<g>
	<defs>
		<rect id="SVGID_798_" x="-853.042" y="-86.229" width="1275.59" height="252"/>
	</defs>
	<clipPath id="SVGID_64_">
		<use xlink:href="#SVGID_798_"  overflow="visible"/>
	</clipPath>
</g>
<g>
	<defs>
		<rect id="SVGID_803_" x="-853.042" y="-86.229" width="1275.59" height="252"/>
	</defs>
	<clipPath id="SVGID_65_">
		<use xlink:href="#SVGID_803_"  overflow="visible"/>
	</clipPath>
</g>
<g>
	<defs>
		<rect id="SVGID_811_" x="-853.042" y="-86.229" width="1275.59" height="252"/>
	</defs>
	<clipPath id="SVGID_67_">
		<use xlink:href="#SVGID_811_"  overflow="visible"/>
	</clipPath>
</g>
<g>
	<defs>
		<rect id="SVGID_816_" x="-853.042" y="-86.229" width="1275.59" height="252"/>
	</defs>
	<clipPath id="SVGID_69_">
		<use xlink:href="#SVGID_816_"  overflow="visible"/>
	</clipPath>
</g>
<g>
	<defs>
		<rect id="SVGID_821_" x="-853.042" y="-86.229" width="1275.59" height="252"/>
	</defs>
	<clipPath id="SVGID_70_">
		<use xlink:href="#SVGID_821_"  overflow="visible"/>
	</clipPath>
</g>
<g>
	<defs>
		<rect id="SVGID_826_" x="-853.042" y="-86.229" width="1275.59" height="252"/>
	</defs>
	<clipPath id="SVGID_72_">
		<use xlink:href="#SVGID_826_"  overflow="visible"/>
	</clipPath>
</g>
<g>
	<defs>
		<rect id="SVGID_831_" x="-853.042" y="-86.229" width="1275.59" height="252"/>
	</defs>
	<clipPath id="SVGID_74_">
		<use xlink:href="#SVGID_831_"  overflow="visible"/>
	</clipPath>
</g>
<g>
	<defs>
		<rect id="SVGID_836_" x="-853.042" y="-86.229" width="1275.59" height="252"/>
	</defs>
	<clipPath id="SVGID_75_">
		<use xlink:href="#SVGID_836_"  overflow="visible"/>
	</clipPath>
</g>
<g>
	<defs>
		<rect id="SVGID_844_" x="-853.042" y="-86.229" width="1275.59" height="252"/>
	</defs>
	<clipPath id="SVGID_77_">
		<use xlink:href="#SVGID_844_"  overflow="visible"/>
	</clipPath>
</g>
<g>
	<defs>
		<rect id="SVGID_849_" x="-853.042" y="-86.229" width="1275.59" height="252"/>
	</defs>
	<clipPath id="SVGID_79_">
		<use xlink:href="#SVGID_849_"  overflow="visible"/>
	</clipPath>
</g>
<g>
	<defs>
		<rect id="SVGID_854_" x="-853.042" y="-86.229" width="1275.59" height="252"/>
	</defs>
	<clipPath id="SVGID_80_">
		<use xlink:href="#SVGID_854_"  overflow="visible"/>
	</clipPath>
</g>
<g>
	<defs>
		<rect id="SVGID_859_" x="-853.042" y="-86.229" width="1275.59" height="252"/>
	</defs>
	<clipPath id="SVGID_82_">
		<use xlink:href="#SVGID_859_"  overflow="visible"/>
	</clipPath>
</g>
<g>
	<defs>
		<rect id="SVGID_864_" x="-853.042" y="-86.229" width="1275.59" height="252"/>
	</defs>
	<clipPath id="SVGID_84_">
		<use xlink:href="#SVGID_864_"  overflow="visible"/>
	</clipPath>
</g>
<g>
	<defs>
		<rect id="SVGID_869_" x="-853.042" y="-86.229" width="1275.59" height="252"/>
	</defs>
	<clipPath id="SVGID_85_">
		<use xlink:href="#SVGID_869_"  overflow="visible"/>
	</clipPath>
</g>
<g>
	<defs>
		<rect id="SVGID_877_" x="-853.042" y="-86.229" width="1275.59" height="252"/>
	</defs>
	<clipPath id="SVGID_87_">
		<use xlink:href="#SVGID_877_"  overflow="visible"/>
	</clipPath>
</g>
<g>
	<defs>
		<rect id="SVGID_882_" x="-853.042" y="-86.229" width="1275.59" height="252"/>
	</defs>
	<clipPath id="SVGID_88_">
		<use xlink:href="#SVGID_882_"  overflow="visible"/>
	</clipPath>
</g>
<g>
	<defs>
		<rect id="SVGID_887_" x="-853.042" y="-86.229" width="1275.59" height="252"/>
	</defs>
	<clipPath id="SVGID_90_">
		<use xlink:href="#SVGID_887_"  overflow="visible"/>
	</clipPath>
</g>
<g>
	<defs>
		<rect id="SVGID_892_" x="-853.042" y="-86.229" width="1275.59" height="252"/>
	</defs>
	<clipPath id="SVGID_92_">
		<use xlink:href="#SVGID_892_"  overflow="visible"/>
	</clipPath>
</g>
<g>
	<defs>
		<rect id="SVGID_897_" x="-853.042" y="-86.229" width="1275.59" height="252"/>
	</defs>
	<clipPath id="SVGID_93_">
		<use xlink:href="#SVGID_897_"  overflow="visible"/>
	</clipPath>
</g>
<g>
	<defs>
		<rect id="SVGID_902_" x="-853.042" y="-86.229" width="1275.59" height="252"/>
	</defs>
	<clipPath id="SVGID_95_">
		<use xlink:href="#SVGID_902_"  overflow="visible"/>
	</clipPath>
</g>
<g>
	<defs>
		<rect id="SVGID_910_" x="-853.042" y="-86.229" width="1275.59" height="252"/>
	</defs>
	<clipPath id="SVGID_97_">
		<use xlink:href="#SVGID_910_"  overflow="visible"/>
	</clipPath>
</g>
<g>
	<defs>
		<rect id="SVGID_915_" x="-853.042" y="-86.229" width="1275.59" height="252"/>
	</defs>
	<clipPath id="SVGID_98_">
		<use xlink:href="#SVGID_915_"  overflow="visible"/>
	</clipPath>
</g>
<g>
	<defs>
		<rect id="SVGID_920_" x="-853.042" y="-86.229" width="1275.59" height="252"/>
	</defs>
	<clipPath id="SVGID_100_">
		<use xlink:href="#SVGID_920_"  overflow="visible"/>
	</clipPath>
</g>
<g>
	<defs>
		<rect id="SVGID_925_" x="-853.042" y="-86.229" width="1275.59" height="252"/>
	</defs>
	<clipPath id="SVGID_102_">
		<use xlink:href="#SVGID_925_"  overflow="visible"/>
	</clipPath>
</g>
<g>
	<defs>
		<rect id="SVGID_930_" x="-853.042" y="-86.229" width="1275.59" height="252"/>
	</defs>
	<clipPath id="SVGID_103_">
		<use xlink:href="#SVGID_930_"  overflow="visible"/>
	</clipPath>
</g>
<g>
	<defs>
		<rect id="SVGID_935_" x="-853.042" y="-86.229" width="1275.59" height="252"/>
	</defs>
	<clipPath id="SVGID_105_">
		<use xlink:href="#SVGID_935_"  overflow="visible"/>
	</clipPath>
</g>
<g>
	<defs>
		<rect id="SVGID_943_" x="-853.042" y="-86.229" width="1275.59" height="252"/>
	</defs>
	<clipPath id="SVGID_107_">
		<use xlink:href="#SVGID_943_"  overflow="visible"/>
	</clipPath>
</g>
<g>
	<defs>
		<rect id="SVGID_948_" x="-853.042" y="-86.229" width="1275.59" height="252"/>
	</defs>
	<clipPath id="SVGID_108_">
		<use xlink:href="#SVGID_948_"  overflow="visible"/>
	</clipPath>
</g>
<g>
	<defs>
		<rect id="SVGID_953_" x="-853.042" y="-86.229" width="1275.59" height="252"/>
	</defs>
	<clipPath id="SVGID_110_">
		<use xlink:href="#SVGID_953_"  overflow="visible"/>
	</clipPath>
</g>
<g>
	<defs>
		<rect id="SVGID_958_" x="-853.042" y="-86.229" width="1275.59" height="252"/>
	</defs>
	<clipPath id="SVGID_112_">
		<use xlink:href="#SVGID_958_"  overflow="visible"/>
	</clipPath>
</g>
<g>
	<defs>
		<rect id="SVGID_963_" x="-853.042" y="-86.229" width="1275.59" height="252"/>
	</defs>
	<clipPath id="SVGID_113_">
		<use xlink:href="#SVGID_963_"  overflow="visible"/>
	</clipPath>
</g>
<g>
	<defs>
		<rect id="SVGID_968_" x="-853.042" y="-86.229" width="1275.59" height="252"/>
	</defs>
	<clipPath id="SVGID_115_">
		<use xlink:href="#SVGID_968_"  overflow="visible"/>
	</clipPath>
</g>
<g>
	<defs>
		<rect id="SVGID_976_" x="-853.042" y="-86.229" width="1275.59" height="252"/>
	</defs>
	<clipPath id="SVGID_117_">
		<use xlink:href="#SVGID_976_"  overflow="visible"/>
	</clipPath>
</g>
<g>
	<defs>
		<rect id="SVGID_981_" x="-853.042" y="-86.229" width="1275.59" height="252"/>
	</defs>
	<clipPath id="SVGID_118_">
		<use xlink:href="#SVGID_981_"  overflow="visible"/>
	</clipPath>
</g>
<g>
	<defs>
		<rect id="SVGID_986_" x="-853.042" y="-86.229" width="1275.59" height="252"/>
	</defs>
	<clipPath id="SVGID_120_">
		<use xlink:href="#SVGID_986_"  overflow="visible"/>
	</clipPath>
</g>
<g>
	<defs>
		<rect id="SVGID_991_" x="-853.042" y="-86.229" width="1275.59" height="252"/>
	</defs>
	<clipPath id="SVGID_121_">
		<use xlink:href="#SVGID_991_"  overflow="visible"/>
	</clipPath>
</g>
<g>
	<defs>
		<rect id="SVGID_996_" x="-853.042" y="-86.229" width="1275.59" height="252"/>
	</defs>
	<clipPath id="SVGID_123_">
		<use xlink:href="#SVGID_996_"  overflow="visible"/>
	</clipPath>
</g>
<g>
	<defs>
		<rect id="SVGID_1001_" x="-853.042" y="-86.229" width="1275.59" height="252"/>
	</defs>
	<clipPath id="SVGID_125_">
		<use xlink:href="#SVGID_1001_"  overflow="visible"/>
	</clipPath>
</g>
<g>
	<defs>
		<rect id="SVGID_1009_" x="-853.042" y="-86.229" width="1275.59" height="252"/>
	</defs>
	<clipPath id="SVGID_126_">
		<use xlink:href="#SVGID_1009_"  overflow="visible"/>
	</clipPath>
</g>
<g>
	<defs>
		<rect id="SVGID_1014_" x="-853.042" y="-86.229" width="1275.59" height="252"/>
	</defs>
	<clipPath id="SVGID_128_">
		<use xlink:href="#SVGID_1014_"  overflow="visible"/>
	</clipPath>
</g>
<g>
	<defs>
		<rect id="SVGID_1019_" x="-853.042" y="-86.229" width="1275.59" height="252"/>
	</defs>
	<clipPath id="SVGID_130_">
		<use xlink:href="#SVGID_1019_"  overflow="visible"/>
	</clipPath>
</g>
<g>
	<defs>
		<rect id="SVGID_1024_" x="-853.042" y="-86.229" width="1275.59" height="252"/>
	</defs>
	<clipPath id="SVGID_131_">
		<use xlink:href="#SVGID_1024_"  overflow="visible"/>
	</clipPath>
</g>
<g>
	<defs>
		<rect id="SVGID_1029_" x="-853.042" y="-86.229" width="1275.59" height="252"/>
	</defs>
	<clipPath id="SVGID_133_">
		<use xlink:href="#SVGID_1029_"  overflow="visible"/>
	</clipPath>
</g>
<g>
	<defs>
		<rect id="SVGID_1034_" x="-853.042" y="-86.229" width="1275.59" height="252"/>
	</defs>
	<clipPath id="SVGID_135_">
		<use xlink:href="#SVGID_1034_"  overflow="visible"/>
	</clipPath>
</g>
<g>
	<defs>
		<rect id="SVGID_1042_" x="-853.042" y="-86.229" width="1275.59" height="252"/>
	</defs>
	<clipPath id="SVGID_136_">
		<use xlink:href="#SVGID_1042_"  overflow="visible"/>
	</clipPath>
</g>
<g>
	<defs>
		<rect id="SVGID_1047_" x="-853.042" y="-86.229" width="1275.59" height="252"/>
	</defs>
	<clipPath id="SVGID_138_">
		<use xlink:href="#SVGID_1047_"  overflow="visible"/>
	</clipPath>
</g>
<g>
	<defs>
		<rect id="SVGID_1052_" x="-853.042" y="-86.229" width="1275.59" height="252"/>
	</defs>
	<clipPath id="SVGID_140_">
		<use xlink:href="#SVGID_1052_"  overflow="visible"/>
	</clipPath>
</g>
<g>
	<defs>
		<rect id="SVGID_1057_" x="-853.042" y="-86.229" width="1275.59" height="252"/>
	</defs>
	<clipPath id="SVGID_141_">
		<use xlink:href="#SVGID_1057_"  overflow="visible"/>
	</clipPath>
</g>
<g>
	<defs>
		<rect id="SVGID_1062_" x="-853.042" y="-86.229" width="1275.59" height="252"/>
	</defs>
	<clipPath id="SVGID_143_">
		<use xlink:href="#SVGID_1062_"  overflow="visible"/>
	</clipPath>
</g>
<g>
	<defs>
		<rect id="SVGID_1067_" x="-853.042" y="-86.229" width="1275.59" height="252"/>
	</defs>
	<clipPath id="SVGID_145_">
		<use xlink:href="#SVGID_1067_"  overflow="visible"/>
	</clipPath>
</g>
<g>
	<defs>
		<rect id="SVGID_1075_" x="-853.042" y="-86.229" width="1275.59" height="252"/>
	</defs>
	<clipPath id="SVGID_146_">
		<use xlink:href="#SVGID_1075_"  overflow="visible"/>
	</clipPath>
</g>
<g>
	<defs>
		<rect id="SVGID_1080_" x="-853.042" y="-86.229" width="1275.59" height="252"/>
	</defs>
	<clipPath id="SVGID_148_">
		<use xlink:href="#SVGID_1080_"  overflow="visible"/>
	</clipPath>
</g>
<g>
	<defs>
		<rect id="SVGID_1085_" x="-853.042" y="-86.229" width="1275.59" height="252"/>
	</defs>
	<clipPath id="SVGID_150_">
		<use xlink:href="#SVGID_1085_"  overflow="visible"/>
	</clipPath>
</g>
<g>
	<defs>
		<rect id="SVGID_1090_" x="-853.042" y="-86.229" width="1275.59" height="252"/>
	</defs>
	<clipPath id="SVGID_151_">
		<use xlink:href="#SVGID_1090_"  overflow="visible"/>
	</clipPath>
</g>
<g>
	<defs>
		<rect id="SVGID_1095_" x="-853.042" y="-86.229" width="1275.59" height="252"/>
	</defs>
	<clipPath id="SVGID_153_">
		<use xlink:href="#SVGID_1095_"  overflow="visible"/>
	</clipPath>
</g>
<g>
	<defs>
		<rect id="SVGID_1100_" x="-853.042" y="-86.229" width="1275.59" height="252"/>
	</defs>
	<clipPath id="SVGID_154_">
		<use xlink:href="#SVGID_1100_"  overflow="visible"/>
	</clipPath>
</g>
<g>
	<defs>
		<rect id="SVGID_1108_" x="-853.042" y="-86.229" width="1275.59" height="252"/>
	</defs>
	<clipPath id="SVGID_156_">
		<use xlink:href="#SVGID_1108_"  overflow="visible"/>
	</clipPath>
</g>
<rect x="-853.042" y="-86.229" fill="none" width="1275.59" height="252"/>
</svg>
