<?xml version="1.0" encoding="utf-8"?>
<!-- Generator: Adobe Illustrator 16.0.0, SVG Export Plug-In . SVG Version: 6.00 Build 0)  -->
<!DOCTYPE svg PUBLIC "-//W3C//DTD SVG 1.1//EN" "http://www.w3.org/Graphics/SVG/1.1/DTD/svg11.dtd">
<svg version="1.1" id="图层_1" xmlns="http://www.w3.org/2000/svg" xmlns:xlink="http://www.w3.org/1999/xlink" x="0px" y="0px"
	 width="24.96px" height="51.4px" viewBox="0 0 24.96 51.4" enable-background="new 0 0 24.96 51.4" xml:space="preserve">
<g>
	<g>
		<path fill="#BABAB9" d="M21.93,13.471v24.311c0,3.37-2.328,6.271-5.563,6.925l-8.043,1.628c-2.754,0.497-5.265-1.788-5.265-4.79
			V9.71c0-3.005,2.51-5.289,5.265-4.792l8.043,1.628C19.602,7.201,21.93,10.101,21.93,13.471z"/>
		<path fill="#424244" d="M20.645,14.588v22.075c0,3.061-2.003,5.694-4.787,6.289L8.931,44.43c-2.371,0.451-4.531-1.624-4.531-4.351
			V11.173c0-2.728,2.161-4.802,4.531-4.35l6.927,1.479C18.642,8.896,20.645,11.529,20.645,14.588"/>
		<path fill="#040000" d="M8.085,35.916c0.924,0,1.674,0.806,1.674,1.801c0,0.993-0.75,1.802-1.674,1.802
			c-0.926,0-1.677-0.809-1.677-1.802C6.409,36.722,7.159,35.916,8.085,35.916"/>
		<path fill="#040000" d="M8.085,30.46c0.924,0,1.674,0.808,1.674,1.802s-0.75,1.802-1.674,1.802c-0.926,0-1.677-0.808-1.677-1.802
			S7.159,30.46,8.085,30.46"/>
		<path fill="#040000" d="M8.085,25.006c0.924,0,1.674,0.807,1.674,1.801c0,0.997-0.75,1.801-1.674,1.801
			c-0.926,0-1.677-0.805-1.677-1.801C6.409,25.813,7.159,25.006,8.085,25.006"/>
		<path fill="#040000" d="M8.085,19.55c0.924,0,1.674,0.808,1.674,1.803c0,0.995-0.75,1.8-1.674,1.8c-0.926,0-1.677-0.805-1.677-1.8
			C6.409,20.358,7.159,19.55,8.085,19.55"/>
		<path fill="#040000" d="M8.085,14.097c0.924,0,1.674,0.807,1.674,1.8c0,0.996-0.75,1.801-1.674,1.801
			c-0.926,0-1.677-0.806-1.677-1.801C6.409,14.904,7.159,14.097,8.085,14.097"/>
		<path fill="#040000" d="M12.523,32.999c0.927,0,1.676,0.807,1.676,1.801c0,0.995-0.749,1.801-1.676,1.801
			c-0.924,0-1.675-0.806-1.675-1.801C10.848,33.806,11.599,32.999,12.523,32.999"/>
		<path fill="#040000" d="M12.523,27.543c0.927,0,1.676,0.806,1.676,1.802s-0.749,1.801-1.676,1.801
			c-0.924,0-1.675-0.805-1.675-1.801S11.599,27.543,12.523,27.543"/>
		<path fill="#040000" d="M12.523,22.09c0.927,0,1.676,0.806,1.676,1.8c0,0.996-0.749,1.801-1.676,1.801
			c-0.924,0-1.675-0.805-1.675-1.801C10.848,22.896,11.599,22.09,12.523,22.09"/>
		<path fill="#040000" d="M12.523,16.634c0.927,0,1.676,0.807,1.676,1.801c0,0.996-0.749,1.801-1.676,1.801
			c-0.924,0-1.675-0.805-1.675-1.801C10.848,17.441,11.599,16.634,12.523,16.634"/>
		<path fill="#040000" d="M12.523,11.179c0.927,0,1.676,0.806,1.676,1.802c0,0.995-0.749,1.8-1.676,1.8
			c-0.924,0-1.675-0.805-1.675-1.8C10.848,11.985,11.599,11.179,12.523,11.179"/>
		<path fill="#040000" d="M16.961,36.472c0.926,0,1.675,0.807,1.675,1.8c0,0.995-0.749,1.804-1.675,1.804s-1.675-0.809-1.675-1.804
			C15.286,37.278,16.035,36.472,16.961,36.472"/>
		<path fill="#040000" d="M16.961,31.017c0.926,0,1.675,0.806,1.675,1.801c0,0.996-0.749,1.803-1.675,1.803
			s-1.675-0.807-1.675-1.803C15.286,31.822,16.035,31.017,16.961,31.017"/>
		<path fill="#040000" d="M16.961,25.563c0.926,0,1.675,0.806,1.675,1.802c0,0.994-0.749,1.801-1.675,1.801
			s-1.675-0.807-1.675-1.801C15.286,26.369,16.035,25.563,16.961,25.563"/>
		<path fill="#040000" d="M16.961,20.107c0.926,0,1.675,0.806,1.675,1.8c0,0.996-0.749,1.802-1.675,1.802s-1.675-0.806-1.675-1.802
			C15.286,20.914,16.035,20.107,16.961,20.107"/>
		<path fill="#040000" d="M16.961,14.653c0.926,0,1.675,0.807,1.675,1.801c0,0.994-0.749,1.802-1.675,1.802
			s-1.675-0.808-1.675-1.802C15.286,15.46,16.035,14.653,16.961,14.653"/>
	</g>
	<path fill="none" stroke="#44454C" stroke-miterlimit="10" d="M24.5,10.939V40.44c0,4.091-2.956,7.61-7.061,8.404L7.229,50.82
		c-3.497,0.604-6.682-2.17-6.682-5.815V6.376c0-3.645,3.185-6.417,6.682-5.814l10.211,1.974C21.544,3.331,24.5,6.851,24.5,10.939z"
		/>
</g>
</svg>
