<?xml version="1.0" encoding="utf-8"?>
<!-- Generator: Adobe Illustrator 16.0.0, SVG Export Plug-In . SVG Version: 6.00 Build 0)  -->
<!DOCTYPE svg PUBLIC "-//W3C//DTD SVG 1.1//EN" "http://www.w3.org/Graphics/SVG/1.1/DTD/svg11.dtd">
<svg version="1.1" id="图层_1" xmlns="http://www.w3.org/2000/svg" xmlns:xlink="http://www.w3.org/1999/xlink" x="0px" y="0px"
	 width="23.62px" height="49.25px" viewBox="0 0 23.62 49.25" enable-background="new 0 0 23.62 49.25" xml:space="preserve">
<path fill="#272828" d="M23.618,10.217V39.03c0,3.996-2.914,7.433-6.963,8.208L6.589,49.169c-3.447,0.59-6.587-2.119-6.587-5.68
	V5.759c0-3.562,3.14-6.269,6.587-5.679l10.066,1.93C20.704,2.785,23.618,6.223,23.618,10.217z"/>
<g>
	<path fill="#BABAB9" d="M21.615,12.168V36.95c0,3.437-2.428,6.393-5.799,7.06l-8.384,1.66c-2.871,0.507-5.486-1.822-5.486-4.885
		V8.334c0-3.063,2.615-5.391,5.486-4.885l8.384,1.66C19.188,5.776,21.615,8.733,21.615,12.168z"/>
	<path fill="#424244" d="M20.275,13.308V35.81c0,3.12-2.088,5.805-4.991,6.411l-7.218,1.508c-2.472,0.459-4.723-1.656-4.723-4.437
		V9.826c0-2.781,2.251-4.896,4.723-4.435l7.218,1.508C18.188,7.504,20.275,10.188,20.275,13.308"/>
	<path fill="#040000" d="M7.185,35.047c0.964,0,1.745,0.823,1.745,1.836c0,1.015-0.781,1.837-1.745,1.837
		c-0.965,0-1.747-0.822-1.747-1.837C5.438,35.87,6.22,35.047,7.185,35.047"/>
	<path fill="#040000" d="M7.185,29.487c0.964,0,1.745,0.822,1.745,1.836s-0.781,1.836-1.745,1.836c-0.965,0-1.747-0.822-1.747-1.836
		S6.22,29.487,7.185,29.487"/>
	<path fill="#040000" d="M7.185,23.927c0.964,0,1.745,0.822,1.745,1.836c0,1.015-0.781,1.836-1.745,1.836
		c-0.965,0-1.747-0.821-1.747-1.836C5.438,24.749,6.22,23.927,7.185,23.927"/>
	<path fill="#040000" d="M7.185,18.366c0.964,0,1.745,0.823,1.745,1.837s-0.781,1.835-1.745,1.835c-0.965,0-1.747-0.821-1.747-1.835
		S6.22,18.366,7.185,18.366"/>
	<path fill="#040000" d="M7.185,12.807c0.964,0,1.745,0.822,1.745,1.835c0,1.015-0.781,1.836-1.745,1.836
		c-0.965,0-1.747-0.821-1.747-1.836C5.438,13.629,6.22,12.807,7.185,12.807"/>
	<path fill="#040000" d="M11.81,32.074c0.965,0,1.747,0.822,1.747,1.835c0,1.015-0.782,1.837-1.747,1.837
		c-0.963,0-1.746-0.822-1.746-1.837C10.063,32.896,10.847,32.074,11.81,32.074"/>
	<path fill="#040000" d="M11.81,26.513c0.965,0,1.747,0.822,1.747,1.836c0,1.015-0.782,1.837-1.747,1.837
		c-0.963,0-1.746-0.822-1.746-1.837C10.063,27.335,10.847,26.513,11.81,26.513"/>
	<path fill="#040000" d="M11.81,20.954c0.965,0,1.747,0.821,1.747,1.835c0,1.015-0.782,1.836-1.747,1.836
		c-0.963,0-1.746-0.821-1.746-1.836C10.063,21.775,10.847,20.954,11.81,20.954"/>
	<path fill="#040000" d="M11.81,15.393c0.965,0,1.747,0.823,1.747,1.836c0,1.015-0.782,1.836-1.747,1.836
		c-0.963,0-1.746-0.821-1.746-1.836C10.063,16.216,10.847,15.393,11.81,15.393"/>
	<path fill="#040000" d="M11.81,9.832c0.965,0,1.747,0.822,1.747,1.837c0,1.014-0.782,1.834-1.747,1.834
		c-0.963,0-1.746-0.82-1.746-1.834C10.063,10.654,10.847,9.832,11.81,9.832"/>
	<path fill="#040000" d="M16.435,35.615c0.966,0,1.747,0.821,1.747,1.835c0,1.015-0.781,1.837-1.747,1.837
		c-0.964,0-1.745-0.822-1.745-1.837C14.689,36.437,15.471,35.615,16.435,35.615"/>
	<path fill="#040000" d="M16.435,30.054c0.966,0,1.747,0.822,1.747,1.836c0,1.015-0.781,1.837-1.747,1.837
		c-0.964,0-1.745-0.822-1.745-1.837C14.689,30.876,15.471,30.054,16.435,30.054"/>
	<path fill="#040000" d="M16.435,24.495c0.966,0,1.747,0.821,1.747,1.836c0,1.014-0.781,1.836-1.747,1.836
		c-0.964,0-1.745-0.822-1.745-1.836C14.689,25.316,15.471,24.495,16.435,24.495"/>
	<path fill="#040000" d="M16.435,18.934c0.966,0,1.747,0.822,1.747,1.835c0,1.015-0.781,1.837-1.747,1.837
		c-0.964,0-1.745-0.822-1.745-1.837C14.689,19.756,15.471,18.934,16.435,18.934"/>
	<path fill="#040000" d="M16.435,13.373c0.966,0,1.747,0.823,1.747,1.836c0,1.014-0.781,1.837-1.747,1.837
		c-0.964,0-1.745-0.823-1.745-1.837C14.689,14.196,15.471,13.373,16.435,13.373"/>
</g>
</svg>
