<?xml version="1.0" encoding="utf-8"?>
<!-- Generator: Adobe Illustrator 16.0.0, SVG Export Plug-In . SVG Version: 6.00 Build 0)  -->
<!DOCTYPE svg PUBLIC "-//W3C//DTD SVG 1.1//EN" "http://www.w3.org/Graphics/SVG/1.1/DTD/svg11.dtd">
<svg version="1.1" id="图层_1" xmlns="http://www.w3.org/2000/svg" xmlns:xlink="http://www.w3.org/1999/xlink" x="0px" y="0px"
	 width="502.429px" height="85.833px" viewBox="0 0 502.429 85.833" enable-background="new 0 0 502.429 85.833"
	 xml:space="preserve">
<image overflow="visible" width="1253" height="1703" xlink:href="E:\zzz2d\sw\机柜图标\监控\机柜前视图\1K1-05.jpg"  transform="matrix(1.5362 0 0 1.5362 -338.4805 -437.8408)">
</image>
<g>
	<rect fill="#030000" width="502.429" height="85.833"/>
	<rect x="5.262" y="3.416" fill="#242328" width="491.905" height="79.001"/>
	<g>
		<rect x="5.262" y="8.884" fill="#716E76" width="491.905" height="4.92"/>
		<rect x="5.262" y="10.387" fill="#BEC0C6" width="491.905" height="1.914"/>
	</g>
	<g>
		<rect x="5.262" y="17.904" fill="#716E76" width="491.905" height="4.921"/>
		<rect x="5.262" y="19.407" fill="#BEC0C6" width="491.905" height="1.914"/>
	</g>
	<g>
		<rect x="5.262" y="26.925" fill="#716E76" width="491.905" height="4.921"/>
		<rect x="5.262" y="28.429" fill="#BEC0C6" width="491.905" height="1.914"/>
	</g>
	<g>
		<rect x="5.262" y="35.946" fill="#716E76" width="491.905" height="4.92"/>
		<rect x="5.262" y="37.449" fill="#BEC0C6" width="491.905" height="1.914"/>
	</g>
	<g>
		<rect x="5.262" y="44.967" fill="#716E76" width="491.905" height="4.92"/>
		<rect x="5.262" y="46.47" fill="#BEC0C6" width="491.905" height="1.914"/>
	</g>
	<g>
		<rect x="5.262" y="53.987" fill="#716E76" width="491.905" height="4.921"/>
		<rect x="5.262" y="55.491" fill="#BEC0C6" width="491.905" height="1.913"/>
	</g>
	<g>
		<rect x="5.262" y="63.009" fill="#716E76" width="491.905" height="4.92"/>
		<rect x="5.262" y="64.512" fill="#BEC0C6" width="491.905" height="1.914"/>
	</g>
	<g>
		<rect x="5.262" y="72.029" fill="#716E76" width="491.905" height="4.92"/>
		<rect x="5.262" y="73.532" fill="#BEC0C6" width="491.905" height="1.914"/>
	</g>
</g>
</svg>
