# 3ds Max Wavefront OBJ Exporter v0.94b - (c)2007 guruware
# 创建的文件:27.09.2016 16:27:18

mtllib menjin.mtl

#
# object Rectangle276
#

v  53.6796 2.6493 -2.3485
v  0.5946 2.6493 -2.3485
v  0.5946 0.6493 -2.3485
v  53.6796 0.6493 -2.3485
v  53.6796 2.6493 -1.7765
v  53.6796 0.6493 -1.7765
v  0.5946 2.6493 -1.7765
v  0.5946 0.6493 -1.7765
v  58.0008 11.9697 -0.6482
v  58.0008 11.9697 5.2397
v  54.0008 11.9697 5.2397
v  54.0008 11.9697 -0.6482
v  58.0008 11.8639 -1.5647
v  54.0008 11.8639 -1.5647
v  58.0008 11.5628 -2.4064
v  54.0008 11.5628 -2.4064
v  58.0008 11.0903 -3.1492
v  54.0008 11.0903 -3.1492
v  58.0008 10.4706 -3.7688
v  54.0008 10.4706 -3.7688
v  58.0008 9.7279 -4.2413
v  54.0008 9.7279 -4.2413
v  58.0008 8.8862 -4.5424
v  54.0008 8.8862 -4.5424
v  58.0008 7.9697 -4.6482
v  54.0008 7.9697 -4.6482
v  58.0008 -11.9697 -4.6482
v  54.0008 -11.9697 -4.6482
v  58.0008 -11.9697 5.2397
v  54.0008 -11.9697 5.2397
v  58.2930 7.4401 -1.2397
v  58.2930 7.4401 4.6482
v  53.6930 7.4401 4.6482
v  53.6930 7.4401 -1.2397
v  58.2930 7.3344 -2.1563
v  53.6930 7.3344 -2.1563
v  58.2930 7.0332 -2.9980
v  53.6930 7.0332 -2.9980
v  58.2930 6.5608 -3.7407
v  53.6930 6.5608 -3.7407
v  58.2930 5.9411 -4.3604
v  53.6930 5.9411 -4.3604
v  58.2930 5.1984 -4.8328
v  53.6930 5.1984 -4.8328
v  58.2930 4.3567 -5.1340
v  53.6930 4.3567 -5.1340
v  58.2930 3.4401 -5.2397
v  53.6930 3.4401 -5.2397
v  58.2930 -11.9697 -5.2397
v  53.6930 -11.9697 -5.2397
v  58.2930 -11.9697 4.6482
v  53.6930 -11.9697 4.6482
# 52 vertices

vn 0.0000 -0.0000 -1.0000
vn 1.0000 0.0000 -0.0000
vn 0.0000 0.0000 1.0000
vn -1.0000 0.0000 -0.0000
vn 0.0000 -1.0000 0.0000
vn 0.0000 1.0000 -0.0000
vn -0.0000 0.9984 -0.0574
vn -0.0000 0.9738 -0.2272
vn -0.0000 0.8982 -0.4395
vn -0.0000 0.7801 -0.6257
vn -0.0000 0.6257 -0.7801
vn -0.0000 0.4395 -0.8982
vn -0.0000 0.2272 -0.9738
vn -0.0000 0.0574 -0.9984
vn -0.0000 -0.0000 -1.0000
vn -1.0000 0.0000 0.0000
vn -1.0000 -0.0000 0.0000
vn 1.0000 -0.0000 -0.0000
# 18 vertex normals

vt 0.6047 0.0100 0.0000
vt 0.6047 0.7805 0.0000
vt 0.5756 0.7805 0.0000
vt 0.5756 0.0100 0.0000
vt 0.5011 0.0390 0.0000
vt 0.4928 0.0390 0.0000
vt 0.4928 0.0100 0.0000
vt 0.5011 0.0100 0.0000
vt 0.5684 0.0100 0.0000
vt 0.5684 0.7805 0.0000
vt 0.5394 0.7805 0.0000
vt 0.5394 0.0100 0.0000
vt 0.4832 0.0390 0.0000
vt 0.4749 0.0390 0.0000
vt 0.4749 0.0100 0.0000
vt 0.4832 0.0100 0.0000
vt 0.5166 0.7805 0.0000
vt 0.5083 0.7805 0.0000
vt 0.5083 0.0100 0.0000
vt 0.5166 0.0100 0.0000
vt 0.5322 0.0100 0.0000
vt 0.5322 0.7805 0.0000
vt 0.5239 0.7805 0.0000
vt 0.5239 0.0100 0.0000
vt 0.4022 0.4586 0.0000
vt 0.4022 0.3732 0.0000
vt 0.4603 0.3732 0.0000
vt 0.4603 0.4586 0.0000
vt 0.4022 0.4719 0.0000
vt 0.4603 0.4719 0.0000
vt 0.4022 0.4842 0.0000
vt 0.4603 0.4842 0.0000
vt 0.0681 0.3447 0.0000
vt 0.0681 0.3515 0.0000
vt 0.0100 0.3515 0.0000
vt 0.0100 0.3447 0.0000
vt 0.0681 0.3357 0.0000
vt 0.0100 0.3357 0.0000
vt 0.0681 0.3249 0.0000
vt 0.0100 0.3249 0.0000
vt 0.0681 0.3127 0.0000
vt 0.0100 0.3127 0.0000
vt 0.0681 0.2994 0.0000
vt 0.0100 0.2994 0.0000
vt 0.0681 0.0100 0.0000
vt 0.0100 0.0100 0.0000
vt 0.0100 0.5108 0.0000
vt 0.0100 0.3673 0.0000
vt 0.0681 0.3673 0.0000
vt 0.0681 0.5108 0.0000
vt 0.0838 0.3575 0.0000
vt 0.0838 0.0100 0.0000
vt 0.1418 0.0100 0.0000
vt 0.1418 0.3575 0.0000
vt 0.2952 0.3249 0.0000
vt 0.2883 0.3357 0.0000
vt 0.2793 0.3447 0.0000
vt 0.2685 0.3515 0.0000
vt 0.2563 0.3559 0.0000
vt 0.2995 0.3127 0.0000
vt 0.3011 0.2994 0.0000
vt 0.2430 0.3575 0.0000
vt 0.1576 0.3575 0.0000
vt 0.3011 0.0100 0.0000
vt 0.1576 0.0100 0.0000
vt 0.3168 0.0100 0.0000
vt 0.4603 0.0100 0.0000
vt 0.4603 0.3575 0.0000
vt 0.3168 0.2994 0.0000
vt 0.3385 0.3447 0.0000
vt 0.3296 0.3357 0.0000
vt 0.3227 0.3249 0.0000
vt 0.3493 0.3515 0.0000
vt 0.3615 0.3559 0.0000
vt 0.3183 0.3127 0.0000
vt 0.3748 0.3575 0.0000
vt 0.0681 0.7650 0.0000
vt 0.1535 0.7650 0.0000
vt 0.1535 0.8318 0.0000
vt 0.0681 0.8318 0.0000
vt 0.0548 0.7650 0.0000
vt 0.0548 0.8318 0.0000
vt 0.0425 0.7650 0.0000
vt 0.0425 0.8318 0.0000
vt 0.1810 0.5921 0.0000
vt 0.1741 0.5921 0.0000
vt 0.1741 0.5253 0.0000
vt 0.1810 0.5253 0.0000
vt 0.1900 0.5921 0.0000
vt 0.1900 0.5253 0.0000
vt 0.2008 0.5921 0.0000
vt 0.2008 0.5253 0.0000
vt 0.2130 0.5921 0.0000
vt 0.2130 0.5253 0.0000
vt 0.2263 0.5921 0.0000
vt 0.2263 0.5253 0.0000
vt 0.4499 0.5921 0.0000
vt 0.4499 0.5253 0.0000
vt 0.0100 0.9232 0.0000
vt 0.1535 0.9232 0.0000
vt 0.1535 0.9900 0.0000
vt 0.0100 0.9900 0.0000
vt 0.1682 0.6068 0.0000
vt 0.4499 0.6068 0.0000
vt 0.4499 0.6736 0.0000
vt 0.1682 0.6736 0.0000
vt 0.2008 0.8259 0.0000
vt 0.1900 0.8190 0.0000
vt 0.1810 0.8100 0.0000
vt 0.1741 0.7992 0.0000
vt 0.1697 0.7870 0.0000
vt 0.2130 0.8303 0.0000
vt 0.2263 0.8318 0.0000
vt 0.1682 0.7737 0.0000
vt 0.1682 0.6883 0.0000
vt 0.4499 0.8318 0.0000
vt 0.4499 0.6883 0.0000
vt 0.4499 0.8465 0.0000
vt 0.4499 0.9900 0.0000
vt 0.1682 0.9900 0.0000
vt 0.2263 0.8465 0.0000
vt 0.1810 0.8682 0.0000
vt 0.1900 0.8593 0.0000
vt 0.2008 0.8524 0.0000
vt 0.1741 0.8790 0.0000
vt 0.1697 0.8912 0.0000
vt 0.2130 0.8480 0.0000
vt 0.1682 0.9045 0.0000
# 128 texture coords

g Rectangle276
usemtl wire_227153153
s 1
f 4/4/1 3/3/1 2/2/1 1/1/1 
s 4
f 6/8/2 4/7/2 1/6/2 5/5/2 
s 2
f 8/12/3 6/11/3 5/10/3 7/9/3 
s 4
f 3/16/4 8/15/4 7/14/4 2/13/4 
s 16
f 8/20/5 3/19/5 4/18/5 6/17/5 
f 7/24/6 5/23/6 1/22/6 2/21/6 
s 1
f 12/28/7 11/27/6 10/26/6 9/25/7 
s 3
f 14/30/8 12/28/7 9/25/7 13/29/8 
s 2
f 16/32/9 14/30/8 13/29/8 15/31/9 
f 18/36/10 16/35/9 15/34/9 17/33/10 
f 20/38/11 18/36/10 17/33/10 19/37/11 
f 22/40/12 20/38/11 19/37/11 21/39/12 
f 24/42/13 22/40/12 21/39/12 23/41/13 
f 26/44/14 24/42/13 23/41/13 25/43/14 
f 28/46/15 26/44/14 25/43/14 27/45/15 
s 4
f 30/50/5 28/49/5 27/48/5 29/47/5 
s 2
f 11/54/3 30/53/3 29/52/3 10/51/3 
s 16
f 16/58/4 18/57/4 20/56/4 22/55/4 
f 24/60/4 14/59/4 16/58/4 22/55/4 
f 12/62/17 14/59/4 24/60/4 26/61/16 
f 28/64/16 11/63/17 12/62/17 26/61/16 
f 30/65/16 11/63/17 28/64/16 
f 25/69/18 10/68/2 29/67/18 27/66/18 
f 15/73/2 21/72/2 19/71/2 17/70/2 
f 23/75/2 21/72/2 15/73/2 13/74/2 
f 9/76/2 25/69/18 23/75/2 13/74/2 
f 25/69/18 9/76/2 10/68/2 
s 1
f 34/80/7 33/79/6 32/78/6 31/77/7 
s 3
f 36/82/8 34/80/7 31/77/7 35/81/8 
s 2
f 38/84/9 36/82/8 35/81/8 37/83/9 
f 40/88/10 38/87/9 37/86/9 39/85/10 
f 42/90/11 40/88/10 39/85/10 41/89/11 
f 44/92/12 42/90/11 41/89/11 43/91/12 
f 46/94/13 44/92/12 43/91/12 45/93/13 
f 48/96/14 46/94/13 45/93/13 47/95/14 
f 50/98/15 48/96/14 47/95/14 49/97/15 
s 4
f 52/102/5 50/101/5 49/100/5 51/99/5 
s 2
f 33/106/3 52/105/3 51/104/3 32/103/3 
s 16
f 38/110/17 40/109/4 42/108/4 44/107/16 
f 46/112/17 36/111/16 38/110/17 44/107/16 
f 34/114/4 36/111/16 46/112/17 48/113/16 
f 50/116/16 33/115/16 34/114/4 48/113/16 
f 52/117/16 33/115/16 50/116/16 
f 47/121/18 32/120/18 51/119/18 49/118/18 
f 37/125/2 43/124/2 41/123/2 39/122/2 
f 45/127/2 43/124/2 37/125/2 35/126/2 
f 31/128/2 47/121/18 45/127/2 35/126/2 
f 47/121/18 31/128/2 32/120/18 
# 44 polygons - 4 triangles

#
# object Rectangle07
#

v  -53.6796 2.6493 -2.3485
v  -0.5946 2.6493 -2.3485
v  -0.5946 0.6493 -2.3485
v  -53.6796 0.6493 -2.3485
v  -53.6796 2.6493 -1.7765
v  -53.6796 0.6493 -1.7765
v  -0.5946 2.6493 -1.7765
v  -0.5946 0.6493 -1.7765
v  -58.0008 11.9697 -0.6482
v  -58.0008 11.9697 5.2397
v  -54.0008 11.9697 5.2397
v  -54.0008 11.9697 -0.6482
v  -58.0008 11.8639 -1.5647
v  -54.0008 11.8639 -1.5647
v  -58.0008 11.5628 -2.4064
v  -54.0008 11.5628 -2.4064
v  -58.0008 11.0903 -3.1492
v  -54.0008 11.0903 -3.1492
v  -58.0008 10.4706 -3.7688
v  -54.0008 10.4706 -3.7688
v  -58.0008 9.7279 -4.2413
v  -54.0008 9.7279 -4.2413
v  -58.0008 8.8862 -4.5424
v  -54.0008 8.8862 -4.5424
v  -58.0008 7.9697 -4.6482
v  -54.0008 7.9697 -4.6482
v  -58.0008 -11.9697 -4.6482
v  -54.0008 -11.9697 -4.6482
v  -58.0008 -11.9697 5.2397
v  -54.0008 -11.9697 5.2397
v  -58.2930 7.4401 -1.2397
v  -58.2930 7.4401 4.6482
v  -53.6930 7.4401 4.6482
v  -53.6930 7.4401 -1.2397
v  -58.2930 7.3344 -2.1563
v  -53.6930 7.3344 -2.1563
v  -58.2930 7.0332 -2.9980
v  -53.6930 7.0332 -2.9980
v  -58.2930 6.5608 -3.7407
v  -53.6930 6.5608 -3.7407
v  -58.2930 5.9411 -4.3604
v  -53.6930 5.9411 -4.3604
v  -58.2930 5.1984 -4.8328
v  -53.6930 5.1984 -4.8328
v  -58.2930 4.3567 -5.1340
v  -53.6930 4.3567 -5.1340
v  -58.2930 3.4401 -5.2397
v  -53.6930 3.4401 -5.2397
v  -58.2930 -11.9697 -5.2397
v  -53.6930 -11.9697 -5.2397
v  -58.2930 -11.9697 4.6482
v  -53.6930 -11.9697 4.6482
# 52 vertices

vn 0.0000 0.0000 -1.0000
vn -1.0000 0.0000 -0.0000
vn 0.0000 0.0000 1.0000
vn 1.0000 0.0000 -0.0000
vn 0.0000 -1.0000 -0.0000
vn 0.0000 1.0000 -0.0000
vn 0.0000 0.9984 -0.0574
vn 0.0000 0.9738 -0.2272
vn 0.0000 0.8982 -0.4395
vn 0.0000 0.7801 -0.6257
vn 0.0000 0.6257 -0.7801
vn 0.0000 0.4395 -0.8982
vn 0.0000 0.2272 -0.9738
vn 0.0000 0.0574 -0.9984
vn -0.0000 -0.0000 1.0000
vn 1.0000 0.0000 0.0000
vn 1.0000 -0.0000 0.0000
vn -1.0000 -0.0000 -0.0000
vn -0.0000 0.0000 1.0000
# 19 vertex normals

vt 0.6047 0.0100 0.0000
vt 0.6047 0.7805 0.0000
vt 0.5756 0.7805 0.0000
vt 0.5756 0.0100 0.0000
vt 0.5011 0.0390 0.0000
vt 0.4928 0.0390 0.0000
vt 0.4928 0.0100 0.0000
vt 0.5011 0.0100 0.0000
vt 0.5684 0.0100 0.0000
vt 0.5684 0.7805 0.0000
vt 0.5394 0.7805 0.0000
vt 0.5394 0.0100 0.0000
vt 0.4832 0.0390 0.0000
vt 0.4749 0.0390 0.0000
vt 0.4749 0.0100 0.0000
vt 0.4832 0.0100 0.0000
vt 0.5166 0.7805 0.0000
vt 0.5083 0.7805 0.0000
vt 0.5083 0.0100 0.0000
vt 0.5166 0.0100 0.0000
vt 0.5322 0.0100 0.0000
vt 0.5322 0.7805 0.0000
vt 0.5239 0.7805 0.0000
vt 0.5239 0.0100 0.0000
vt 0.4022 0.4586 0.0000
vt 0.4022 0.3732 0.0000
vt 0.4603 0.3732 0.0000
vt 0.4603 0.4586 0.0000
vt 0.4022 0.4719 0.0000
vt 0.4603 0.4719 0.0000
vt 0.4022 0.4842 0.0000
vt 0.4603 0.4842 0.0000
vt 0.0681 0.3447 0.0000
vt 0.0681 0.3515 0.0000
vt 0.0100 0.3515 0.0000
vt 0.0100 0.3447 0.0000
vt 0.0681 0.3357 0.0000
vt 0.0100 0.3357 0.0000
vt 0.0681 0.3249 0.0000
vt 0.0100 0.3249 0.0000
vt 0.0681 0.3127 0.0000
vt 0.0100 0.3127 0.0000
vt 0.0681 0.2994 0.0000
vt 0.0100 0.2994 0.0000
vt 0.0681 0.0100 0.0000
vt 0.0100 0.0100 0.0000
vt 0.0100 0.5108 0.0000
vt 0.0100 0.3673 0.0000
vt 0.0681 0.3673 0.0000
vt 0.0681 0.5108 0.0000
vt 0.0838 0.3575 0.0000
vt 0.0838 0.0100 0.0000
vt 0.1418 0.0100 0.0000
vt 0.1418 0.3575 0.0000
vt 0.2952 0.3249 0.0000
vt 0.2883 0.3357 0.0000
vt 0.2793 0.3447 0.0000
vt 0.2685 0.3515 0.0000
vt 0.2563 0.3559 0.0000
vt 0.2995 0.3127 0.0000
vt 0.3011 0.2994 0.0000
vt 0.2430 0.3575 0.0000
vt 0.1576 0.3575 0.0000
vt 0.3011 0.0100 0.0000
vt 0.1576 0.0100 0.0000
vt 0.3168 0.0100 0.0000
vt 0.4603 0.0100 0.0000
vt 0.4603 0.3575 0.0000
vt 0.3168 0.2994 0.0000
vt 0.3385 0.3447 0.0000
vt 0.3296 0.3357 0.0000
vt 0.3227 0.3249 0.0000
vt 0.3493 0.3515 0.0000
vt 0.3615 0.3559 0.0000
vt 0.3183 0.3127 0.0000
vt 0.3748 0.3575 0.0000
vt 0.0681 0.7650 0.0000
vt 0.1535 0.7650 0.0000
vt 0.1535 0.8318 0.0000
vt 0.0681 0.8318 0.0000
vt 0.0548 0.7650 0.0000
vt 0.0548 0.8318 0.0000
vt 0.0425 0.7650 0.0000
vt 0.0425 0.8318 0.0000
vt 0.1810 0.5921 0.0000
vt 0.1741 0.5921 0.0000
vt 0.1741 0.5253 0.0000
vt 0.1810 0.5253 0.0000
vt 0.1900 0.5921 0.0000
vt 0.1900 0.5253 0.0000
vt 0.2008 0.5921 0.0000
vt 0.2008 0.5253 0.0000
vt 0.2130 0.5921 0.0000
vt 0.2130 0.5253 0.0000
vt 0.2263 0.5921 0.0000
vt 0.2263 0.5253 0.0000
vt 0.4499 0.5921 0.0000
vt 0.4499 0.5253 0.0000
vt 0.0100 0.9232 0.0000
vt 0.1535 0.9232 0.0000
vt 0.1535 0.9900 0.0000
vt 0.0100 0.9900 0.0000
vt 0.1682 0.6068 0.0000
vt 0.4499 0.6068 0.0000
vt 0.4499 0.6736 0.0000
vt 0.1682 0.6736 0.0000
vt 0.2008 0.8259 0.0000
vt 0.1900 0.8190 0.0000
vt 0.1810 0.8100 0.0000
vt 0.1741 0.7992 0.0000
vt 0.1697 0.7870 0.0000
vt 0.2130 0.8303 0.0000
vt 0.2263 0.8318 0.0000
vt 0.1682 0.7737 0.0000
vt 0.1682 0.6883 0.0000
vt 0.4499 0.8318 0.0000
vt 0.4499 0.6883 0.0000
vt 0.4499 0.8465 0.0000
vt 0.4499 0.9900 0.0000
vt 0.1682 0.9900 0.0000
vt 0.2263 0.8465 0.0000
vt 0.1810 0.8682 0.0000
vt 0.1900 0.8593 0.0000
vt 0.2008 0.8524 0.0000
vt 0.1741 0.8790 0.0000
vt 0.1697 0.8912 0.0000
vt 0.2130 0.8480 0.0000
vt 0.1682 0.9045 0.0000
# 128 texture coords

g Rectangle07
usemtl wire_227153153
s 1
f 53/129/19 54/130/19 55/131/19 56/132/19 
s 4
f 57/133/20 53/134/20 56/135/20 58/136/20 
s 2
f 59/137/21 57/138/21 58/139/21 60/140/21 
s 4
f 54/141/22 59/142/22 60/143/22 55/144/22 
s 16
f 58/145/23 56/146/23 55/147/23 60/148/23 
f 54/149/24 53/150/24 57/151/24 59/152/24 
s 1
f 61/153/25 62/154/24 63/155/24 64/156/25 
s 3
f 65/157/26 61/153/25 64/156/25 66/158/26 
s 2
f 67/159/27 65/157/26 66/158/26 68/160/27 
f 69/161/28 67/162/27 68/163/27 70/164/28 
f 71/165/29 69/161/28 70/164/28 72/166/29 
f 73/167/30 71/165/29 72/166/29 74/168/30 
f 75/169/31 73/167/30 74/168/30 76/170/31 
f 77/171/32 75/169/31 76/170/31 78/172/32 
f 79/173/19 77/171/32 78/172/32 80/174/19 
s 4
f 81/175/23 79/176/23 80/177/23 82/178/23 
s 2
f 62/179/33 81/180/33 82/181/33 63/182/33 
s 16
f 74/183/22 72/184/22 70/185/22 68/186/22 
f 74/183/22 68/186/22 66/187/22 76/188/22 
f 78/189/34 76/188/22 66/187/22 64/190/35 
f 78/189/34 64/190/35 63/191/35 80/192/34 
f 80/192/34 63/191/35 82/193/34 
f 79/194/36 81/195/36 62/196/20 77/197/36 
f 69/198/20 71/199/20 73/200/20 67/201/20 
f 65/202/20 67/201/20 73/200/20 75/203/20 
f 65/202/20 75/203/20 77/197/36 61/204/20 
f 62/196/20 61/204/20 77/197/36 
s 1
f 83/205/25 84/206/24 85/207/24 86/208/25 
s 3
f 87/209/26 83/205/25 86/208/25 88/210/26 
s 2
f 89/211/27 87/209/26 88/210/26 90/212/27 
f 91/213/28 89/214/27 90/215/27 92/216/28 
f 93/217/29 91/213/28 92/216/28 94/218/29 
f 95/219/30 93/217/29 94/218/29 96/220/30 
f 97/221/31 95/219/30 96/220/30 98/222/31 
f 99/223/32 97/221/31 98/222/31 100/224/32 
f 101/225/19 99/223/32 100/224/32 102/226/19 
s 4
f 103/227/23 101/228/23 102/229/23 104/230/23 
s 2
f 84/231/33 103/232/33 104/233/33 85/234/37 
s 16
f 96/235/34 94/236/22 92/237/22 90/238/35 
f 96/235/34 90/238/35 88/239/34 98/240/35 
f 100/241/34 98/240/35 88/239/34 86/242/22 
f 100/241/34 86/242/22 85/243/34 102/244/34 
f 102/244/34 85/243/34 104/245/34 
f 101/246/36 103/247/36 84/248/36 99/249/36 
f 91/250/20 93/251/20 95/252/20 89/253/20 
f 87/254/20 89/253/20 95/252/20 97/255/20 
f 87/254/20 97/255/20 99/249/36 83/256/20 
f 84/248/36 83/256/20 99/249/36 
# 44 polygons - 4 triangles

