# 3ds Max Wavefront OBJ Exporter v0.97b - (c)2007 guruware
# File Created: 20.10.2015 09:37:22

mtllib dayinji002.mtl

#
# object DZYJY37
#

v  20.3226 -13.4254 -19.8479
v  17.9951 -13.4254 -19.8479
v  17.9929 12.0848 -19.8479
v  20.3226 12.0848 -19.8479
v  -20.8225 -14.0559 -18.6680
v  -20.8225 -14.0559 7.0843
v  -20.8225 12.0848 7.0843
v  -20.8225 12.0848 -19.3479
v  -20.8225 -13.3759 -19.3479
v  -20.8225 -13.8069 -19.2617
v  -20.8225 -13.9697 -19.0990
v  -20.3225 -13.4254 19.8479
v  -18.0397 -13.4254 19.8479
v  -18.0291 12.0848 19.8479
v  -20.3225 12.0848 19.8479
v  20.8226 -14.0559 18.6679
v  20.8226 -14.0559 7.0843
v  20.8226 12.0848 7.0843
v  20.8226 12.0848 19.3479
v  20.8226 -13.3759 19.3479
v  20.8226 -13.8069 19.2617
v  20.8226 -13.9697 19.0990
v  -20.3225 -14.5559 18.7175
v  -20.3225 -14.5559 7.0843
v  -18.0402 -14.5559 7.0843
v  -18.0402 -14.5559 18.7175
v  -20.3225 14.5559 18.7175
v  -18.0281 14.5559 18.7175
v  -18.0281 14.5559 7.0843
v  -20.3225 14.5559 7.0843
v  20.3226 -14.0534 -19.7223
v  17.9951 -14.0534 -19.7223
v  -20.3225 13.4255 -19.8479
v  -20.3225 14.0535 -19.7223
v  -18.0284 14.0535 -19.7223
v  -18.0286 13.4255 -19.8479
v  -20.3225 -14.0534 19.7223
v  -18.0400 -14.0534 19.7223
v  20.3226 13.4255 19.8479
v  20.3226 14.0535 19.7223
v  17.9927 14.0535 19.7223
v  17.9928 13.4255 19.8479
v  20.3226 -14.4303 -19.3455
v  17.9951 -14.4303 -19.3455
v  20.3226 -14.5559 -18.7175
v  17.9951 -14.5559 -18.7175
v  -20.3225 14.4303 -19.3455
v  -18.0282 14.4303 -19.3455
v  -20.3225 14.5559 -18.7175
v  -18.0281 14.5559 -18.7175
v  -20.3225 -14.4303 19.3455
v  -18.0402 -14.4303 19.3455
v  20.3226 14.4303 19.3455
v  17.9927 14.4303 19.3455
v  20.3226 14.5559 18.7175
v  17.9927 14.5559 18.7175
v  -20.3225 -13.4254 -19.8479
v  -20.3225 12.0848 -19.8479
v  20.3226 13.4255 -19.8479
v  20.8226 13.3760 -19.3479
v  20.8226 12.0848 -19.3479
v  -20.3225 -14.5559 -18.7175
v  -20.8225 -13.3759 19.3479
v  -20.8225 12.0848 19.3479
v  -20.8225 14.0559 18.6679
v  -20.8225 14.0559 7.0843
v  20.3226 -13.4254 19.8479
v  20.3226 12.0848 19.8479
v  20.3226 -14.5559 18.7175
v  20.3226 -14.5559 7.0843
v  20.8226 14.0559 -18.6680
v  20.3226 14.5559 -18.7175
v  20.3226 14.5559 7.0843
v  20.8226 14.0559 7.0843
v  20.8226 -13.8069 -19.2617
v  20.8226 -13.3759 -19.3479
v  -20.3225 -14.4303 -19.3455
v  -20.8225 -13.8069 19.2617
v  20.3226 -14.4303 19.3455
v  20.8226 13.9697 -19.0990
v  20.3226 14.4303 -19.3455
v  -20.8225 13.8070 -19.2617
v  -20.8225 13.3760 -19.3479
v  -20.8225 13.9697 19.0990
v  -20.3225 14.4303 19.3455
v  20.8226 13.8070 19.2617
v  20.8226 13.3760 19.3479
v  20.8226 -13.9697 -19.0990
v  20.8226 -14.0559 -18.6680
v  -20.3225 -14.0534 -19.7223
v  -20.8225 -13.9697 19.0990
v  -20.8225 -14.0559 18.6679
v  20.3226 -14.0534 19.7223
v  20.3226 14.0535 -19.7223
v  20.8226 13.8070 -19.2617
v  -20.8225 13.9697 -19.0990
v  -20.8225 14.0559 -18.6680
v  -20.3225 13.4255 19.8479
v  -20.3225 14.0535 19.7223
v  -20.8225 13.8070 19.2617
v  -20.8225 13.3760 19.3479
v  20.8226 13.9697 19.0990
v  20.8226 14.0559 18.6679
v  -17.7167 -13.4254 -19.8479
v  -18.0397 -13.4254 -19.8479
v  -18.0291 12.0848 -19.8479
v  -17.7167 12.0848 -19.8479
v  -17.7167 -13.4254 19.8479
v  17.9951 -13.4254 19.8479
v  17.9929 12.0848 19.8479
v  -17.7167 12.0848 19.8479
v  -17.7167 -14.5559 -18.7175
v  17.9951 -14.5559 7.0843
v  -17.7167 -14.5559 7.0843
v  12.6273 14.5559 7.0843
v  -14.6174 14.5559 7.0843
v  17.9927 14.5559 7.0843
v  -17.7167 14.5559 7.0843
v  -17.7167 14.5559 18.7175
v  -17.7167 -14.0534 -19.7223
v  -18.0400 -14.0534 -19.7223
v  -17.7167 14.0535 -19.7223
v  17.9927 14.0535 -19.7223
v  17.9928 13.4255 -19.8479
v  -17.7167 13.4255 -19.8479
v  -17.7167 -14.0534 19.7223
v  17.9951 -14.0534 19.7223
v  -17.7167 14.0535 19.7223
v  -18.0284 14.0535 19.7223
v  -18.0286 13.4255 19.8479
v  -17.7167 13.4255 19.8479
v  -17.7167 -14.4303 -19.3455
v  -18.0402 -14.4303 -19.3455
v  -18.0402 -14.5559 -18.7175
v  -17.7167 14.4303 -19.3455
v  17.9927 14.4303 -19.3455
v  -17.7167 14.5559 -18.7175
v  17.9927 14.5559 -18.7175
v  -17.7167 -14.4303 19.3455
v  17.9951 -14.4303 19.3455
v  -17.7167 -14.5559 18.7175
v  17.9951 -14.5559 18.7175
v  -17.7167 14.4303 19.3455
v  -18.0282 14.4303 19.3455
v  -5.9736 -13.4254 -19.8479
v  6.5768 -13.4254 -19.8479
v  -2.8049 12.0848 -19.0437
v  3.8955 12.0848 -19.0437
v  3.7309 9.1009 -19.0437
v  -2.8378 9.5043 -19.0437
v  3.9120 9.5125 -19.0437
v  3.2122 8.8787 -19.0437
v  -2.1299 8.8704 -19.0437
v  -2.5826 9.0598 -19.0437
v  5.1797 -11.5475 -18.8479
v  5.9307 -12.0190 -18.8479
v  6.4021 -12.7175 -18.8479
v  -5.3645 -12.1012 -18.8479
v  -5.9736 -13.4254 -18.8479
v  -5.7432 -12.7679 -18.8479
v  6.5768 -13.4254 -18.8479
v  -4.4594 -11.5477 -18.8479
v  -5.7432 -12.7679 -19.8479
v  -5.3645 -12.1012 -19.8479
v  -4.4594 -11.5477 -19.8479
v  5.1797 -11.5475 -19.8479
v  5.9307 -12.0190 -19.8479
v  6.4021 -12.7175 -19.8479
v  4.0169 12.0848 -19.8479
v  -2.9262 12.0848 -19.8479
v  -2.9595 9.4726 -19.8479
v  -2.6674 8.9637 -19.8479
v  -2.1542 8.7490 -19.8479
v  4.0335 9.4873 -19.8479
v  3.8227 9.0082 -19.8479
v  3.2373 8.7574 -19.8479
v  3.8955 12.0848 -19.7266
v  3.9120 9.5125 -19.7266
v  3.7309 9.1009 -19.7266
v  3.2122 8.8787 -19.7266
v  -2.1299 8.8704 -19.7266
v  -2.5826 9.0598 -19.7266
v  -2.8378 9.5043 -19.7266
v  -2.8049 12.0848 -19.7266
v  -14.2450 14.5559 -12.0114
v  -14.0526 14.5559 -12.5552
v  -13.4123 14.5559 -12.6968
v  12.4268 14.5559 -12.2001
v  11.8179 14.5559 -12.6968
v  12.1864 14.5559 -12.5767
v  -11.6903 9.9482 -7.6374
v  9.6408 9.9482 -7.6374
# 192 vertices

vn 0.0000 0.0000 -1.0000
vn -1.0000 0.0000 -0.0000
vn 0.0000 0.0000 1.0000
vn 1.0000 0.0000 -0.0000
vn 0.0000 -1.0000 -0.0000
vn 0.0000 1.0000 -0.0000
vn 0.0000 -0.1961 -0.9806
vn 0.0000 0.1961 -0.9806
vn 0.0000 -0.1961 0.9806
vn 0.0000 0.1961 0.9806
vn 0.0000 -0.7071 -0.7071
vn 0.0000 -0.9806 -0.1961
vn 0.0000 0.7071 -0.7071
vn 0.0000 0.9806 -0.1961
vn 0.0000 -0.7071 0.7071
vn 0.0000 -0.9806 0.1961
vn 0.0000 0.7071 0.7071
vn 0.0000 0.9806 0.1961
vn -0.7071 0.0000 -0.7071
vn 0.7071 0.0000 -0.7071
vn -0.7071 -0.7071 -0.0000
vn -0.7071 0.0000 0.7071
vn -0.7071 0.7071 -0.0000
vn 0.7071 0.0000 0.7071
vn 0.7071 -0.7071 -0.0000
vn 0.7071 0.7071 -0.0000
vn 0.7071 -0.1387 -0.6934
vn -0.7071 -0.6934 -0.1387
vn -0.7071 -0.1387 0.6934
vn 0.7071 -0.6934 0.1387
vn 0.7071 0.6934 -0.1387
vn -0.7071 0.1387 -0.6934
vn -0.7071 0.6934 0.1387
vn 0.7071 0.1387 0.6934
vn 0.7071 -0.6934 -0.1387
vn 0.7071 -0.5000 -0.5000
vn -0.7071 -0.1387 -0.6934
vn -0.7071 -0.5000 -0.5000
vn -0.7071 -0.6934 0.1387
vn -0.7071 -0.5000 0.5000
vn 0.7071 -0.1387 0.6934
vn 0.7071 -0.5000 0.5000
vn 0.7071 0.1387 -0.6934
vn 0.7071 0.5000 -0.5000
vn -0.7071 0.6934 -0.1387
vn -0.7071 0.5000 -0.5000
vn -0.7071 0.1387 0.6934
vn -0.7071 0.5000 0.5000
vn 0.7071 0.6934 0.1387
vn 0.7071 0.5000 0.5000
vn -0.0479 0.9967 -0.0655
vn 0.0479 0.9967 -0.0652
vn 0.9437 -0.3308 -0.0000
vn 0.8696 -0.4938 -0.0000
vn 0.5217 -0.8531 -0.0000
vn -0.5318 -0.8469 -0.0000
vn -0.8288 -0.5595 -0.0000
vn -0.9709 -0.2395 -0.0000
vn -1.0000 -0.0064 -0.0000
vn -0.9153 0.4028 -0.0000
vn -0.3939 0.9191 -0.0000
vn -0.0015 1.0000 -0.0000
vn 0.3858 0.9226 -0.0000
vn 0.8673 0.4979 -0.0000
vn 0.9999 -0.0127 -0.0000
vn -0.7071 -0.0045 -0.7071
vn -0.6472 0.2848 -0.7071
vn -0.2785 0.6499 -0.7071
vn -0.0011 0.7071 -0.7071
vn 0.2728 0.6524 -0.7071
vn 0.6132 0.3520 -0.7071
vn 0.7071 -0.0090 -0.7071
vn 0.3951 0.9137 0.0950
vn 0.1526 0.9698 0.1904
vn 0.0395 0.9434 0.3292
vn -0.3159 0.9409 0.1222
vn -0.0550 0.9487 0.3114
vn -0.1619 0.9620 0.2199
vn 0.3818 0.9067 0.1792
vn -0.3682 0.9126 0.1778
# 80 vertex normals

vt 0.6905 0.6755 0.0000
vt 0.6905 0.6928 0.0000
vt 0.5010 0.6928 0.0000
vt 0.5010 0.6755 0.0000
vt 0.2188 0.6768 0.0000
vt 0.2188 0.8662 0.0000
vt 0.0265 0.8662 0.0000
vt 0.0265 0.6718 0.0000
vt 0.2138 0.6718 0.0000
vt 0.2169 0.6724 0.0000
vt 0.2181 0.6736 0.0000
vt 0.2794 0.3449 0.0000
vt 0.2794 0.3618 0.0000
vt 0.0906 0.3619 0.0000
vt 0.0906 0.3449 0.0000
vt 0.4496 0.6768 0.0000
vt 0.4496 0.7620 0.0000
vt 0.2573 0.7620 0.0000
vt 0.2573 0.6718 0.0000
vt 0.4446 0.6718 0.0000
vt 0.4478 0.6724 0.0000
vt 0.4490 0.6736 0.0000
vt 0.3687 0.2934 0.0000
vt 0.3687 0.2074 0.0000
vt 0.3855 0.2074 0.0000
vt 0.3855 0.2934 0.0000
vt 0.3667 0.3383 0.0000
vt 0.3839 0.3383 0.0000
vt 0.3839 0.4255 0.0000
vt 0.3667 0.4255 0.0000
vt 0.6952 0.6755 0.0000
vt 0.6952 0.6928 0.0000
vt 0.4911 0.9775 0.0000
vt 0.4864 0.9775 0.0000
vt 0.4864 0.9604 0.0000
vt 0.4911 0.9604 0.0000
vt 0.2840 0.3449 0.0000
vt 0.2840 0.3618 0.0000
vt 0.0807 0.6457 0.0000
vt 0.0760 0.6457 0.0000
vt 0.0760 0.6285 0.0000
vt 0.0807 0.6285 0.0000
vt 0.6980 0.6755 0.0000
vt 0.6980 0.6928 0.0000
vt 0.7306 0.9814 0.0000
vt 0.7259 0.9814 0.0000
vt 0.7259 0.9641 0.0000
vt 0.7306 0.9641 0.0000
vt 0.4836 0.9775 0.0000
vt 0.4836 0.9604 0.0000
vt 0.7124 0.6794 0.0000
vt 0.7171 0.6794 0.0000
vt 0.7171 0.6964 0.0000
vt 0.7124 0.6964 0.0000
vt 0.2868 0.3449 0.0000
vt 0.2868 0.3618 0.0000
vt 0.3012 0.3443 0.0000
vt 0.3059 0.3443 0.0000
vt 0.3059 0.3613 0.0000
vt 0.3012 0.3613 0.0000
vt 0.0732 0.6457 0.0000
vt 0.0732 0.6285 0.0000
vt 0.3190 0.6463 0.0000
vt 0.3144 0.6463 0.0000
vt 0.3144 0.6290 0.0000
vt 0.3190 0.6290 0.0000
vt 0.6905 0.9775 0.0000
vt 0.6902 0.9812 0.0000
vt 0.5010 0.9812 0.0000
vt 0.5010 0.9775 0.0000
vt 0.4911 0.6755 0.0000
vt 0.4914 0.6718 0.0000
vt 0.5010 0.6718 0.0000
vt 0.3650 0.0170 0.0000
vt 0.3687 0.0166 0.0000
vt 0.3650 0.2074 0.0000
vt 0.0121 0.4058 0.0000
vt 0.0165 0.4053 0.0000
vt 0.0165 0.6290 0.0000
vt 0.0121 0.6290 0.0000
vt 0.3630 0.3387 0.0000
vt 0.3630 0.4255 0.0000
vt 0.3340 0.4053 0.0000
vt 0.3384 0.4058 0.0000
vt 0.3384 0.6290 0.0000
vt 0.3340 0.6290 0.0000
vt 0.6729 0.2931 0.0000
vt 0.6692 0.2934 0.0000
vt 0.6692 0.2074 0.0000
vt 0.6729 0.2074 0.0000
vt 0.6749 0.6184 0.0000
vt 0.6711 0.6187 0.0000
vt 0.6711 0.4255 0.0000
vt 0.6749 0.4255 0.0000
vt 0.0120 0.0886 0.0000
vt 0.0167 0.0862 0.0000
vt 0.0167 0.0921 0.0000
vt 0.0120 0.0926 0.0000
vt 0.3650 0.0138 0.0000
vt 0.3687 0.0120 0.0000
vt 0.0121 0.4020 0.0000
vt 0.0165 0.3998 0.0000
vt 0.6729 0.2962 0.0000
vt 0.6692 0.2981 0.0000
vt 0.6749 0.6216 0.0000
vt 0.6711 0.6234 0.0000
vt 0.3384 0.3045 0.0000
vt 0.3340 0.3067 0.0000
vt 0.3340 0.3011 0.0000
vt 0.3384 0.3007 0.0000
vt 0.3630 0.3355 0.0000
vt 0.3667 0.3336 0.0000
vt 0.3384 0.6441 0.0000
vt 0.3340 0.6463 0.0000
vt 0.3340 0.6408 0.0000
vt 0.3384 0.6404 0.0000
vt 0.6692 0.0166 0.0000
vt 0.6692 0.0120 0.0000
vt 0.6729 0.0138 0.0000
vt 0.6729 0.0170 0.0000
vt 0.0167 0.0827 0.0000
vt 0.0120 0.0870 0.0000
vt 0.3338 0.0921 0.0000
vt 0.3338 0.0862 0.0000
vt 0.3385 0.0886 0.0000
vt 0.3385 0.0926 0.0000
vt 0.3338 0.0827 0.0000
vt 0.3385 0.0870 0.0000
vt 0.3687 0.2981 0.0000
vt 0.3650 0.2962 0.0000
vt 0.3650 0.2931 0.0000
vt 0.0165 0.3965 0.0000
vt 0.0121 0.4005 0.0000
vt 0.3340 0.3998 0.0000
vt 0.3384 0.4020 0.0000
vt 0.3340 0.3965 0.0000
vt 0.3384 0.4005 0.0000
vt 0.0165 0.3011 0.0000
vt 0.0165 0.3067 0.0000
vt 0.0121 0.3045 0.0000
vt 0.0121 0.3007 0.0000
vt 0.6711 0.6262 0.0000
vt 0.6749 0.6228 0.0000
vt 0.3667 0.6187 0.0000
vt 0.3667 0.6234 0.0000
vt 0.3630 0.6216 0.0000
vt 0.3630 0.6184 0.0000
vt 0.3667 0.6262 0.0000
vt 0.3630 0.6228 0.0000
vt 0.0165 0.6408 0.0000
vt 0.0165 0.6463 0.0000
vt 0.0121 0.6441 0.0000
vt 0.0121 0.6404 0.0000
vt 0.3667 0.3308 0.0000
vt 0.3630 0.3343 0.0000
vt 0.6711 0.3383 0.0000
vt 0.6711 0.3336 0.0000
vt 0.6749 0.3355 0.0000
vt 0.6749 0.3387 0.0000
vt 0.6711 0.3308 0.0000
vt 0.6749 0.3343 0.0000
vt 0.6905 0.9581 0.0000
vt 0.6905 0.9605 0.0000
vt 0.5010 0.9604 0.0000
vt 0.5010 0.9581 0.0000
vt 0.2794 0.3642 0.0000
vt 0.2794 0.6285 0.0000
vt 0.0906 0.6285 0.0000
vt 0.0906 0.3642 0.0000
vt 0.3879 0.0166 0.0000
vt 0.6520 0.0166 0.0000
vt 0.6520 0.2074 0.0000
vt 0.3879 0.2074 0.0000
vt 0.6135 0.4255 0.0000
vt 0.4094 0.4255 0.0000
vt 0.6537 0.3383 0.0000
vt 0.6537 0.4255 0.0000
vt 0.3862 0.4255 0.0000
vt 0.3862 0.3383 0.0000
vt 0.6952 0.9581 0.0000
vt 0.6952 0.9605 0.0000
vt 0.4864 0.9581 0.0000
vt 0.4864 0.6928 0.0000
vt 0.4911 0.6928 0.0000
vt 0.4911 0.9581 0.0000
vt 0.2840 0.3642 0.0000
vt 0.2840 0.6285 0.0000
vt 0.0760 0.3642 0.0000
vt 0.0760 0.3619 0.0000
vt 0.0807 0.3619 0.0000
vt 0.0807 0.3642 0.0000
vt 0.6980 0.9581 0.0000
vt 0.6980 0.9605 0.0000
vt 0.7259 0.6987 0.0000
vt 0.7259 0.6963 0.0000
vt 0.7306 0.6963 0.0000
vt 0.7306 0.6987 0.0000
vt 0.4836 0.9581 0.0000
vt 0.4836 0.6928 0.0000
vt 0.7171 0.6987 0.0000
vt 0.7171 0.9641 0.0000
vt 0.7124 0.9641 0.0000
vt 0.7124 0.6987 0.0000
vt 0.2868 0.3642 0.0000
vt 0.2868 0.6285 0.0000
vt 0.3059 0.3637 0.0000
vt 0.3059 0.6290 0.0000
vt 0.3012 0.6290 0.0000
vt 0.3012 0.3637 0.0000
vt 0.0732 0.3642 0.0000
vt 0.0732 0.3619 0.0000
vt 0.3144 0.3637 0.0000
vt 0.3144 0.3614 0.0000
vt 0.3190 0.3614 0.0000
vt 0.3190 0.3637 0.0000
vt 0.3855 0.0166 0.0000
vt 0.6952 0.9775 0.0000
vt 0.0760 0.3449 0.0000
vt 0.0807 0.3449 0.0000
vt 0.6980 0.9775 0.0000
vt 0.7259 0.6794 0.0000
vt 0.7306 0.6794 0.0000
vt 0.0732 0.3449 0.0000
vt 0.3144 0.3443 0.0000
vt 0.3190 0.3443 0.0000
vt 0.6905 0.8708 0.0000
vt 0.6905 0.7776 0.0000
vt 0.2794 0.6457 0.0000
vt 0.0906 0.6457 0.0000
vt 0.4864 0.6755 0.0000
vt 0.2840 0.6457 0.0000
vt 0.4836 0.6755 0.0000
vt 0.7171 0.9814 0.0000
vt 0.7124 0.9814 0.0000
vt 0.2868 0.6457 0.0000
vt 0.3059 0.6463 0.0000
vt 0.3012 0.6463 0.0000
vt 0.7633 0.9875 0.0000
vt 0.7633 0.9382 0.0000
vt 0.7853 0.9395 0.0000
vt 0.7823 0.9878 0.0000
vt 0.7822 0.9381 0.0000
vt 0.7869 0.9433 0.0000
vt 0.7870 0.9826 0.0000
vt 0.7856 0.9859 0.0000
vt 0.7397 0.9044 0.0000
vt 0.7432 0.8989 0.0000
vt 0.7483 0.8954 0.0000
vt 0.7438 0.9820 0.0000
vt 0.7535 0.9864 0.0000
vt 0.7487 0.9847 0.0000
vt 0.7535 0.8941 0.0000
vt 0.7397 0.9753 0.0000
vt 0.7469 0.8797 0.0000
vt 0.7395 0.8797 0.0000
vt 0.7395 0.7873 0.0000
vt 0.7469 0.7873 0.0000
vt 0.7871 0.8928 0.0000
vt 0.7786 0.8928 0.0000
vt 0.7786 0.8872 0.0000
vt 0.7871 0.8872 0.0000
vt 0.7786 0.8815 0.0000
vt 0.7871 0.8815 0.0000
vt 0.7786 0.8767 0.0000
vt 0.7871 0.8767 0.0000
vt 0.7628 0.8548 0.0000
vt 0.7702 0.8548 0.0000
vt 0.7702 0.9257 0.0000
vt 0.7628 0.9257 0.0000
vt 0.7390 0.6977 0.0000
vt 0.7474 0.6977 0.0000
vt 0.7474 0.7016 0.0000
vt 0.7390 0.7016 0.0000
vt 0.7474 0.7075 0.0000
vt 0.7390 0.7075 0.0000
vt 0.7474 0.7135 0.0000
vt 0.7390 0.7135 0.0000
vt 0.0120 0.9514 0.0000
vt 0.0120 0.8662 0.0000
vt 0.0126 0.9546 0.0000
vt 0.0265 0.9564 0.0000
vt 0.0170 0.9564 0.0000
vt 0.0138 0.9558 0.0000
vt 0.2428 0.9514 0.0000
vt 0.2428 0.7620 0.0000
vt 0.2435 0.9546 0.0000
vt 0.2573 0.9564 0.0000
vt 0.2478 0.9564 0.0000
vt 0.2447 0.9558 0.0000
vt 0.4914 0.9812 0.0000
vt 0.6902 0.6718 0.0000
vt 0.5010 0.7966 0.0000
vt 0.5010 0.8482 0.0000
vt 0.5204 0.8485 0.0000
vt 0.5242 0.8463 0.0000
vt 0.5258 0.8425 0.0000
vt 0.6853 0.7789 0.0000
vt 0.5203 0.7965 0.0000
vt 0.6801 0.7824 0.0000
vt 0.6766 0.7880 0.0000
vt 0.6766 0.8596 0.0000
vt 0.6807 0.8663 0.0000
vt 0.6857 0.8691 0.0000
vt 0.5239 0.7981 0.0000
vt 0.5257 0.8024 0.0000
vt 0.7626 0.8202 0.0000
vt 0.7678 0.8202 0.0000
vt 0.7678 0.8398 0.0000
vt 0.7626 0.8398 0.0000
vt 0.7678 0.8430 0.0000
vt 0.7626 0.8430 0.0000
vt 0.8015 0.9880 0.0000
vt 0.7964 0.9880 0.0000
vt 0.7964 0.9842 0.0000
vt 0.8015 0.9842 0.0000
vt 0.7964 0.9446 0.0000
vt 0.8015 0.9446 0.0000
vt 0.7964 0.9413 0.0000
vt 0.8015 0.9413 0.0000
vt 0.7852 0.9270 0.0000
vt 0.7800 0.9270 0.0000
vt 0.7800 0.9236 0.0000
vt 0.7852 0.9236 0.0000
vt 0.7800 0.9038 0.0000
vt 0.7852 0.9038 0.0000
vt 0.7445 0.7733 0.0000
vt 0.7395 0.7733 0.0000
vt 0.7454 0.7231 0.0000
vt 0.7454 0.7742 0.0000
vt 0.7445 0.7240 0.0000
vt 0.7395 0.7240 0.0000
vt 0.7688 0.8202 0.0000
vt 0.7688 0.8400 0.0000
vt 0.7688 0.8437 0.0000
vt 0.5248 0.8026 0.0000
vt 0.5232 0.7987 0.0000
vt 0.5249 0.8423 0.0000
vt 0.5235 0.8456 0.0000
vt 0.7790 0.9238 0.0000
vt 0.7790 0.9277 0.0000
vt 0.7790 0.9038 0.0000
vt 0.2138 0.9564 0.0000
vt 0.2188 0.9514 0.0000
vt 0.2169 0.9558 0.0000
vt 0.2181 0.9546 0.0000
vt 0.4446 0.9564 0.0000
vt 0.4496 0.9514 0.0000
vt 0.4478 0.9558 0.0000
vt 0.4490 0.9546 0.0000
vt 0.3839 0.6187 0.0000
vt 0.6520 0.2934 0.0000
vt 0.3879 0.2934 0.0000
vt 0.3862 0.6187 0.0000
vt 0.6537 0.6187 0.0000
vt 0.0170 0.6718 0.0000
vt 0.0120 0.6768 0.0000
vt 0.0138 0.6724 0.0000
vt 0.0126 0.6736 0.0000
vt 0.2478 0.6718 0.0000
vt 0.2428 0.6768 0.0000
vt 0.2447 0.6724 0.0000
vt 0.2435 0.6736 0.0000
vt 0.4122 0.5685 0.0000
vt 0.4137 0.5726 0.0000
vt 0.4185 0.5736 0.0000
vt 0.6120 0.5699 0.0000
vt 0.6074 0.5736 0.0000
vt 0.6102 0.5727 0.0000
vt 0.0674 0.2430 0.0000
vt 0.0674 0.0917 0.0000
vt 0.1039 0.2083 0.0000
vt 0.0674 0.2473 0.0000
vt 0.0621 0.1304 0.0000
vt 0.0252 0.2483 0.0000
vt 0.0252 0.0939 0.0000
vt 0.0252 0.0909 0.0000
vt 0.4314 0.5357 0.0000
vt 0.5911 0.5357 0.0000
# 378 texture coords

g DZYJY37
usemtl 12___Default
s 1
f 1/1/1 2/2/1 3/3/1 4/4/1 
s 4
f 5/5/2 6/6/2 7/7/2 8/8/2 
f 9/9/2 10/10/2 5/5/2 8/8/2 
f 5/5/2 10/10/2 11/11/2 
s 2
f 12/12/3 13/13/3 14/14/3 15/15/3 
s 4
f 16/16/4 17/17/4 18/18/4 19/19/4 
f 20/20/4 21/21/4 16/16/4 19/19/4 
f 16/16/4 21/21/4 22/22/4 
s 16
f 23/23/5 24/24/5 25/25/5 26/26/5 
f 27/27/6 28/28/6 29/29/6 30/30/6 
s off
f 1/1/7 31/31/7 32/32/7 2/2/7 
f 33/33/8 34/34/8 35/35/8 36/36/8 
f 12/12/9 37/37/9 38/38/9 13/13/9 
f 39/39/10 40/40/10 41/41/10 42/42/10 
f 31/31/11 43/43/11 44/44/11 32/32/11 
f 43/45/12 45/46/12 46/47/12 44/48/12 
f 34/34/13 47/49/13 48/50/13 35/35/13 
f 47/51/14 49/52/14 50/53/14 48/54/14 
f 37/37/15 51/55/15 52/56/15 38/38/15 
f 51/57/16 23/58/16 26/59/16 52/60/16 
f 40/40/17 53/61/17 54/62/17 41/41/17 
f 53/63/18 55/64/18 56/65/18 54/66/18 
f 57/67/19 9/68/19 8/69/19 58/70/19 
f 4/4/20 59/71/20 60/72/20 61/73/20 
f 5/74/21 62/75/21 24/24/21 6/76/21 
f 63/77/22 12/78/22 15/79/22 64/80/22 
f 65/81/23 27/27/23 30/30/23 66/82/23 
f 67/83/24 20/84/24 19/85/24 68/86/24 
f 16/87/25 69/88/25 70/89/25 17/90/25 
f 71/91/26 72/92/26 73/93/26 74/94/26 
f 75/95/27 31/96/27 1/97/27 76/98/27 
f 11/99/28 77/100/28 62/75/28 5/74/28 
f 78/101/29 37/102/29 12/78/29 63/77/29 
f 22/103/30 79/104/30 69/88/30 16/87/30 
f 80/105/31 81/106/31 72/92/31 71/91/31 
f 82/107/32 34/108/32 33/109/32 83/110/32 
f 84/111/33 85/112/33 27/27/33 65/81/33 
f 86/113/34 40/114/34 39/115/34 87/116/34 
f 45/117/35 43/118/35 88/119/35 89/120/35 
f 43/121/36 31/96/36 75/95/36 88/122/36 
f 57/123/37 90/124/37 10/125/37 9/126/37 
f 90/124/38 77/127/38 11/128/38 10/125/38 
f 23/23/39 51/129/39 91/130/39 92/131/39 
f 51/132/40 37/102/40 78/101/40 91/133/40 
f 67/83/41 93/134/41 21/135/41 20/84/41 
f 93/134/42 79/136/42 22/137/42 21/135/42 
f 59/138/43 94/139/43 95/140/43 60/141/43 
f 94/142/44 81/106/44 80/105/44 95/143/44 
f 49/144/45 47/145/45 96/146/45 97/147/45 
f 47/145/46 34/148/46 82/149/46 96/146/46 
f 98/150/47 99/151/47 100/152/47 101/153/47 
f 99/154/48 85/112/48 84/111/48 100/155/48 
f 55/156/49 53/157/49 102/158/49 103/159/49 
f 53/157/50 40/160/50 86/161/50 102/158/50 
s 1
f 104/162/1 105/163/1 106/164/1 107/165/1 
s 2
f 108/166/3 109/167/3 110/168/3 111/169/3 
s 16
f 112/170/5 46/171/5 113/172/5 114/173/5 
f 115/174/51 116/175/52 56/176/6 117/177/6 
f 116/175/52 118/178/6 119/179/6 56/176/6 
s off
f 120/180/7 121/181/7 105/163/7 104/162/7 
f 122/182/8 123/183/8 124/184/8 125/185/8 
f 126/186/9 127/187/9 109/167/9 108/166/9 
f 128/188/10 129/189/10 130/190/10 131/191/10 
f 132/192/11 133/193/11 121/181/11 120/180/11 
f 112/194/12 134/195/12 133/196/12 132/197/12 
f 135/198/13 136/199/13 123/183/13 122/182/13 
f 137/200/14 138/201/14 136/202/14 135/203/14 
f 139/204/15 140/205/15 127/187/15 126/186/15 
f 141/206/16 142/207/16 140/208/16 139/209/16 
f 143/210/17 144/211/17 129/189/17 128/188/17 
f 119/212/18 28/213/18 144/214/18 143/215/18 
s 2
f 13/13/3 108/166/3 111/169/3 14/14/3 
s 16
f 134/216/5 112/170/5 114/173/5 25/25/5 
f 28/28/6 119/179/6 118/178/6 29/29/6 
s off
f 35/35/8 122/182/8 125/185/8 36/36/8 
f 38/38/9 126/186/9 108/166/9 13/13/9 
f 48/50/13 135/198/13 122/182/13 35/35/13 
f 50/53/14 137/200/14 135/203/14 48/54/14 
f 52/56/15 139/204/15 126/186/15 38/38/15 
f 26/59/16 141/206/16 139/209/16 52/60/16 
s 1
f 105/163/1 57/67/1 58/70/1 106/164/1 
s off
f 121/181/7 90/217/7 57/67/7 105/163/7 
f 129/189/10 99/218/10 98/219/10 130/190/10 
f 133/193/11 77/220/11 90/217/11 121/181/11 
f 134/195/12 62/221/12 77/222/12 133/196/12 
f 144/211/17 85/223/17 99/218/17 129/189/17 
f 28/213/18 27/224/18 85/225/18 144/214/18 
f 145/226/7 146/227/7 120/180/7 104/162/7 
f 146/227/7 2/2/7 32/32/7 120/180/7 
f 41/41/10 128/188/10 131/191/10 42/42/10 
f 44/44/11 132/192/11 120/180/11 32/32/11 
f 46/47/12 112/194/12 132/197/12 44/48/12 
f 54/62/17 143/210/17 128/188/17 41/41/17 
f 56/65/18 119/212/18 143/215/18 54/66/18 
s 2
f 109/167/3 67/228/3 68/229/3 110/168/3 
s 16
f 46/171/5 45/117/5 70/89/5 113/172/5 
f 56/176/6 55/156/6 73/93/6 117/177/6 
s off
f 123/183/8 94/230/8 59/71/8 124/184/8 
f 127/187/9 93/231/9 67/228/9 109/167/9 
f 136/199/13 81/232/13 94/230/13 123/183/13 
f 138/201/14 72/233/14 81/234/14 136/202/14 
f 140/205/15 79/235/15 93/231/15 127/187/15 
f 142/207/16 69/236/16 79/237/16 140/208/16 
s 1
f 147/238/1 148/239/1 149/240/1 150/241/1 
f 148/239/1 151/242/1 149/240/1 
f 152/243/1 153/244/1 154/245/1 149/240/1 
f 150/241/1 149/240/1 154/245/1 
f 155/246/1 156/247/1 157/248/1 158/249/1 
f 159/250/1 160/251/1 157/248/1 161/252/1 
f 157/248/1 160/251/1 158/249/1 
f 155/246/1 158/249/1 162/253/1 
s off
f 161/254/6 146/255/6 145/256/6 159/257/6 
f 159/258/53 145/259/53 163/260/53 160/261/53 
f 160/261/54 163/260/54 164/262/54 158/263/54 
f 158/263/55 164/262/55 165/264/55 162/265/55 
f 162/266/5 165/267/5 166/268/5 155/269/5 
f 155/270/56 166/271/56 167/272/56 156/273/56 
f 156/273/57 167/272/57 168/274/57 157/275/57 
f 157/275/58 168/274/58 146/276/58 161/277/58 
s 1
f 3/3/1 124/184/1 59/71/1 4/4/1 
s 4
f 65/278/2 66/279/2 7/7/2 84/280/2 
f 64/281/2 101/282/2 84/280/2 7/7/2 
f 84/280/2 101/282/2 100/283/2 
s 2
f 14/14/3 130/190/3 98/219/3 15/15/3 
s 4
f 71/284/4 74/285/4 18/18/4 80/286/4 
f 61/287/4 60/288/4 80/286/4 18/18/4 
f 80/286/4 60/288/4 95/289/4 
s off
f 58/70/19 8/69/19 83/290/19 33/33/19 
f 61/73/20 76/291/20 1/1/20 4/4/20 
f 101/153/22 64/80/22 15/79/22 98/150/22 
f 68/86/24 19/85/24 87/116/24 39/115/24 
s 1
f 106/164/1 36/36/1 125/185/1 107/165/1 
s 2
f 110/168/3 42/42/3 131/191/3 111/169/3 
f 111/169/3 131/191/3 130/190/3 14/14/3 
s 1
f 58/70/1 33/33/1 36/36/1 106/164/1 
s 2
f 68/229/3 39/39/3 42/42/3 110/168/3 
s 1
f 124/184/1 3/3/1 169/292/1 125/185/1 
f 170/293/1 107/165/1 125/185/1 169/292/1 
f 171/294/1 172/295/1 107/165/1 170/293/1 
f 107/165/1 172/295/1 173/296/1 104/162/1 
f 3/3/1 2/2/1 168/297/1 169/292/1 
f 2/2/1 146/227/1 168/297/1 
f 174/298/1 169/292/1 168/297/1 167/299/1 
f 166/300/1 165/301/1 174/298/1 167/299/1 
f 164/302/1 163/303/3 174/298/1 165/301/1 
f 174/298/1 163/303/3 145/226/1 175/304/1 
f 145/226/1 104/162/1 176/305/1 175/304/1 
f 173/296/1 176/305/1 104/162/1 
s off
f 148/306/59 177/307/59 178/308/59 151/309/59 
f 151/309/60 178/308/60 179/310/60 149/311/60 
f 149/312/61 179/313/61 180/314/61 152/315/61 
f 152/315/62 180/314/62 181/316/62 153/317/62 
f 153/317/63 181/316/63 182/318/63 154/319/63 
f 154/320/64 182/321/64 183/322/64 150/323/64 
f 150/323/65 183/322/65 184/324/65 147/325/65 
f 177/326/5 148/327/5 170/328/5 169/329/5 
f 184/330/5 170/328/5 148/327/5 147/331/5 
f 178/308/66 177/307/66 169/332/66 174/333/66 
f 179/310/67 178/308/67 174/333/67 175/334/67 
f 176/305/68 180/335/68 179/336/68 175/304/68 
f 181/337/69 180/335/69 176/305/69 173/296/69 
f 182/338/70 181/337/70 173/296/70 172/295/70 
f 171/339/71 183/322/71 182/321/71 172/340/71 
f 170/341/72 184/324/72 183/322/72 171/339/72 
s 4
f 63/342/2 64/281/2 92/343/2 78/344/2 
f 7/7/2 6/6/2 92/343/2 64/281/2 
f 78/344/2 92/343/2 91/345/2 
f 76/346/4 61/287/4 89/347/4 75/348/4 
f 18/18/4 17/17/4 89/347/4 61/287/4 
f 75/348/4 89/347/4 88/349/4 
s 16
f 24/24/5 62/75/5 134/216/5 25/25/5 
f 29/29/6 50/350/6 49/144/6 30/30/6 
s off
f 24/24/21 23/23/21 92/131/21 6/76/21 
f 30/30/23 49/144/23 97/147/23 66/82/23 
f 70/89/25 45/117/25 89/120/25 17/90/25 
f 73/93/26 55/156/26 103/159/26 74/94/26 
s 16
f 113/172/5 142/351/5 141/352/5 114/173/5 
f 114/173/5 141/352/5 26/26/5 25/25/5 
f 118/178/6 137/353/6 50/350/6 29/29/6 
f 70/89/5 69/88/5 142/351/5 113/172/5 
f 73/93/6 72/92/6 138/354/6 117/177/6 
s 4
f 83/355/2 8/8/2 97/356/2 82/357/2 
f 7/7/2 66/279/2 97/356/2 8/8/2 
f 82/357/2 97/356/2 96/358/2 
f 87/359/4 19/19/4 103/360/4 86/361/4 
f 18/18/4 74/285/4 103/360/4 19/19/4 
f 86/361/4 103/360/4 102/362/4 
s 16
f 118/178/6 116/175/52 185/363/73 137/353/6 
f 186/364/74 187/365/75 137/353/6 185/363/73 
f 188/366/76 115/174/51 117/177/6 138/354/6 
f 138/354/6 189/367/77 190/368/78 188/366/76 
f 189/367/77 138/354/6 137/353/6 187/365/75 
f 185/369/73 116/370/52 191/371/79 186/372/74 
f 192/373/80 115/374/51 188/375/76 190/376/78 
f 187/365/75 186/364/74 191/377/79 192/378/80 
f 192/378/80 190/368/78 189/367/77 187/365/75 
f 192/378/80 191/377/79 116/175/52 115/174/51 
# 183 polygons - 14 triangles

