# 3ds Max Wavefront OBJ Exporter v0.94b - (c)2007 guruware
# 创建的文件:21.06.2016 12:26:12

mtllib zhuozi001.mtl

#
# object zhuozi001
#

v  83.3334 33.5000 -90.0000
v  -83.3333 33.5000 -90.0000
v  -83.3333 41.5000 -90.0000
v  83.3334 41.5000 -90.0000
v  -250.0000 33.5000 65.9472
v  -250.0000 41.5000 65.9472
v  -250.0000 41.5000 -65.9472
v  -250.0000 33.5000 -65.9472
v  -83.3333 33.5000 90.0000
v  83.3334 33.5000 90.0000
v  83.3334 41.5000 90.0000
v  -83.3333 41.5000 90.0000
v  250.0000 33.5000 -65.9472
v  250.0000 41.5000 -65.9472
v  250.0000 41.5000 65.9472
v  250.0000 33.5000 65.9472
v  -83.3333 32.5000 -89.0000
v  83.3334 32.5000 -89.0000
v  83.3334 32.5000 89.0000
v  -83.3333 32.5000 89.0000
v  -83.3333 42.5000 89.0000
v  83.3334 42.5000 89.0000
v  83.3334 42.5000 -89.0000
v  -83.3333 42.5000 -89.0000
v  249.0000 32.5000 -65.0811
v  249.0000 32.5000 65.0812
v  -249.0000 32.5000 65.0812
v  -249.0000 32.5000 -65.0811
v  249.0000 42.5000 65.0812
v  249.0000 42.5000 -65.0811
v  -249.0000 42.5000 -65.0811
v  -249.0000 42.5000 65.0812
v  180.5890 -22.2263 21.8125
v  191.0652 -22.2263 21.8125
v  191.0652 32.2661 21.8125
v  180.5890 32.2661 21.8125
v  180.5890 -32.9594 45.6640
v  191.0652 -32.9594 45.6640
v  191.0652 -42.5000 45.6640
v  180.5890 -42.5000 45.6640
v  180.5890 -42.5000 39.5827
v  191.0652 -42.5000 39.5827
v  191.0652 -22.2263 -17.7190
v  180.5890 -22.2263 -17.7190
v  180.5890 32.2661 -17.7190
v  191.0652 32.2661 -17.7190
v  180.5890 -32.9594 -41.5705
v  191.0652 -32.9594 -41.5705
v  191.0652 -42.5000 -41.5705
v  180.5890 -42.5000 -41.5705
v  180.5890 -42.5000 -35.4892
v  191.0652 -42.5000 -35.4892
v  191.0496 -37.9571 -30.8705
v  180.5976 -37.9571 -30.8705
v  191.0496 -37.9571 34.9640
v  180.5976 -37.9571 34.9640
v  180.5890 -33.5076 14.6466
v  180.5890 -33.5076 5.5412
v  191.0651 -33.5076 5.5412
v  191.0652 -33.5076 14.6466
v  191.0652 -33.5076 -10.5531
v  180.5890 -33.5076 -10.5531
v  191.0651 -33.5076 -1.4478
v  180.5890 -33.5076 -1.4478
v  180.5890 32.2661 -1.2258
v  180.5890 32.2661 5.3193
v  -200.3599 32.2661 21.8125
v  -200.3599 -22.2263 21.8125
v  -189.8837 -22.2263 21.8125
v  -189.8837 32.2661 21.8125
v  -189.8837 -32.9594 45.6640
v  -200.3599 -32.9594 45.6640
v  -200.3599 -42.5000 45.6640
v  -189.8837 -42.5000 45.6640
v  -200.3599 -42.5000 39.5827
v  -189.8837 -42.5000 39.5827
v  -200.3599 -22.2263 -17.7190
v  -200.3599 32.2661 -17.7190
v  -189.8837 32.2661 -17.7190
v  -189.8837 -22.2263 -17.7190
v  -189.8837 -32.9594 -41.5705
v  -200.3599 -32.9594 -41.5705
v  -200.3599 -42.5000 -41.5705
v  -189.8837 -42.5000 -41.5705
v  -200.3512 -37.9571 -30.8705
v  -200.3599 -42.5000 -35.4892
v  -189.8837 -42.5000 -35.4892
v  -189.8993 -37.9571 -30.8705
v  -200.3512 -37.9571 34.9640
v  -189.8993 -37.9571 34.9640
v  -200.3599 -33.5076 14.6466
v  -200.3599 -33.5076 5.5412
v  -189.8837 -33.5076 5.5412
v  -189.8837 -33.5076 14.6466
v  -189.8837 -33.5076 -10.5531
v  -200.3599 -33.5076 -10.5531
v  -189.8837 -33.5076 -1.4478
v  -200.3599 -33.5076 -1.4478
v  -189.8837 32.2661 5.3193
v  -189.8837 32.2661 -1.2258
v  180.5890 -22.2263 5.3193
v  180.5890 -22.2263 -1.2258
v  -189.8837 -22.2263 -1.2258
v  -189.8837 -22.2263 5.3193
# 104 vertices

vn 0.0716 0.0000 -0.9974
vn -0.0716 0.0000 -0.9974
vn -1.0000 0.0000 -0.0000
vn -0.0716 0.0000 0.9974
vn 0.0716 0.0000 0.9974
vn 1.0000 0.0000 -0.0000
vn 0.0000 -1.0000 -0.0000
vn 0.0000 1.0000 -0.0000
vn -0.1428 0.0000 -0.9897
vn 0.1428 0.0000 -0.9897
vn 0.1428 0.0000 0.9897
vn -0.1428 0.0000 0.9897
vn 0.1013 -0.7053 -0.7016
vn -0.1013 0.7053 -0.7016
vn -0.7071 -0.7071 -0.0000
vn -0.7071 0.7071 -0.0000
vn -0.1013 -0.7053 0.7017
vn 0.1013 0.7053 0.7017
vn 0.7071 -0.7071 -0.0000
vn 0.7071 0.7071 -0.0000
vn 0.0000 -0.7071 -0.7071
vn -0.1013 -0.7053 -0.7016
vn 0.0000 0.7071 -0.7071
vn 0.1013 0.7053 -0.7016
vn 0.0000 -0.7071 0.7071
vn 0.1013 -0.7053 0.7017
vn 0.0000 0.7071 0.7071
vn -0.1013 0.7053 0.7017
vn 0.0000 0.0000 1.0000
vn 0.0000 0.9119 0.4104
vn 0.0000 -0.9255 -0.3787
vn 0.0000 -0.9256 -0.3786
vn 0.0000 0.0000 -1.0000
vn 0.0000 0.9119 -0.4104
vn 0.0000 -0.9255 0.3787
vn 0.0000 -0.9256 0.3786
vn 0.0000 -0.8792 0.4764
vn 0.0000 -0.8793 0.4763
vn 0.0000 -0.8792 -0.4764
vn 0.0000 -0.8793 -0.4763
vn 0.0000 -0.9942 -0.1076
vn 0.0000 -0.9942 0.1076
vn 1.0000 -0.0011 0.0009
vn 1.0000 -0.0011 -0.0009
vn 1.0000 0.0034 -0.0000
vn 1.0000 -0.0002 0.0002
vn 1.0000 -0.0000 -0.0000
vn 1.0000 -0.0003 -0.0005
vn -1.0000 -0.0006 -0.0005
vn -1.0000 -0.0006 0.0005
vn -1.0000 0.0019 -0.0000
vn -1.0000 -0.0001 -0.0001
vn -1.0000 -0.0002 0.0003
vn -1.0000 0.0004 0.0006
vn -1.0000 -0.0005 -0.0000
vn -1.0000 -0.0011 -0.0013
vn 1.0000 0.0007 -0.0011
vn 1.0000 -0.0032 0.0001
# 58 vertex normals

vt 0.3373 0.1026 0.0000
vt 0.6627 0.1026 0.0000
vt 0.6627 0.1182 0.0000
vt 0.3373 0.1182 0.0000
vt 0.9820 0.0583 0.0000
vt 0.9820 0.0738 0.0000
vt 0.7254 0.0738 0.0000
vt 0.7254 0.0583 0.0000
vt 0.3373 0.1469 0.0000
vt 0.6627 0.1469 0.0000
vt 0.6627 0.1625 0.0000
vt 0.3373 0.1625 0.0000
vt 0.9820 0.0139 0.0000
vt 0.9820 0.0295 0.0000
vt 0.7254 0.0295 0.0000
vt 0.7254 0.0139 0.0000
vt 0.3461 0.1941 0.0000
vt 0.6578 0.1941 0.0000
vt 0.6578 0.5269 0.0000
vt 0.3461 0.5269 0.0000
vt 0.3461 0.5613 0.0000
vt 0.6578 0.5613 0.0000
vt 0.6578 0.8942 0.0000
vt 0.3461 0.8942 0.0000
vt 0.9880 0.1026 0.0000
vt 0.9880 0.1182 0.0000
vt 0.0120 0.1182 0.0000
vt 0.0120 0.1026 0.0000
vt 0.9880 0.1469 0.0000
vt 0.9880 0.1625 0.0000
vt 0.0120 0.1625 0.0000
vt 0.0120 0.1469 0.0000
vt 0.9676 0.2388 0.0000
vt 0.9676 0.4822 0.0000
vt 0.0363 0.4822 0.0000
vt 0.0363 0.2388 0.0000
vt 0.9676 0.6060 0.0000
vt 0.9676 0.8494 0.0000
vt 0.0363 0.8494 0.0000
vt 0.0363 0.6060 0.0000
vt 0.0139 0.1006 0.0000
vt 0.3373 0.1006 0.0000
vt 0.9861 0.1201 0.0000
vt 0.6627 0.1201 0.0000
vt 0.7271 0.0563 0.0000
vt 0.9804 0.0563 0.0000
vt 0.9804 0.0758 0.0000
vt 0.7271 0.0758 0.0000
vt 0.0139 0.1450 0.0000
vt 0.3373 0.1450 0.0000
vt 0.9861 0.1645 0.0000
vt 0.6627 0.1645 0.0000
vt 0.7271 0.0120 0.0000
vt 0.9804 0.0120 0.0000
vt 0.9804 0.0314 0.0000
vt 0.7271 0.0314 0.0000
vt 0.6627 0.1006 0.0000
vt 0.9861 0.1006 0.0000
vt 0.3373 0.1201 0.0000
vt 0.0139 0.1201 0.0000
vt 0.6627 0.1450 0.0000
vt 0.9861 0.1450 0.0000
vt 0.3373 0.1645 0.0000
vt 0.0139 0.1645 0.0000
vt 0.6099 0.5176 0.0000
vt 0.6099 0.4995 0.0000
vt 0.7040 0.4995 0.0000
vt 0.7040 0.5176 0.0000
vt 0.8555 0.3019 0.0000
vt 0.8555 0.3451 0.0000
vt 0.8365 0.3451 0.0000
vt 0.8365 0.3019 0.0000
vt 0.8369 0.3660 0.0000
vt 0.8369 0.3495 0.0000
vt 0.8550 0.3495 0.0000
vt 0.8550 0.3660 0.0000
vt 0.9626 0.4720 0.0000
vt 0.9518 0.4720 0.0000
vt 0.9518 0.4534 0.0000
vt 0.9626 0.4534 0.0000
vt 0.8039 0.4537 0.0000
vt 0.8039 0.4718 0.0000
vt 0.7098 0.4718 0.0000
vt 0.7098 0.4537 0.0000
vt 0.9715 0.3019 0.0000
vt 0.9715 0.3451 0.0000
vt 0.9526 0.3451 0.0000
vt 0.9526 0.3019 0.0000
vt 0.9530 0.2649 0.0000
vt 0.9530 0.2485 0.0000
vt 0.9711 0.2485 0.0000
vt 0.9711 0.2649 0.0000
vt 0.8187 0.4720 0.0000
vt 0.8187 0.4534 0.0000
vt 0.8269 0.4535 0.0000
vt 0.8269 0.4720 0.0000
vt 0.9436 0.4535 0.0000
vt 0.9436 0.4720 0.0000
vt 0.8079 0.4720 0.0000
vt 0.8079 0.4534 0.0000
vt 0.9076 0.4720 0.0000
vt 0.8915 0.4720 0.0000
vt 0.8915 0.4534 0.0000
vt 0.9076 0.4534 0.0000
vt 0.8629 0.4534 0.0000
vt 0.8629 0.4720 0.0000
vt 0.8791 0.4534 0.0000
vt 0.8791 0.4720 0.0000
vt 0.3283 0.5221 0.0000
vt 0.3102 0.5221 0.0000
vt 0.3283 0.4823 0.0000
vt 0.3283 0.4936 0.0000
vt 0.3102 0.4538 0.0000
vt 0.3283 0.4538 0.0000
vt 0.9468 0.0470 0.0000
vt 0.9696 0.0198 0.0000
vt 0.9880 0.0120 0.0000
vt 0.9880 0.0284 0.0000
vt 0.8786 0.1411 0.0000
vt 0.8786 0.0470 0.0000
vt 0.9468 0.1411 0.0000
vt 0.8374 0.0120 0.0000
vt 0.8558 0.0198 0.0000
vt 0.8374 0.0284 0.0000
vt 0.8479 0.0120 0.0000
vt 0.8909 0.0275 0.0000
vt 0.9067 0.0275 0.0000
vt 0.9187 0.0275 0.0000
vt 0.9345 0.0275 0.0000
vt 0.9775 0.0120 0.0000
vt 0.7040 0.4718 0.0000
vt 0.6099 0.4718 0.0000
vt 0.6099 0.4537 0.0000
vt 0.7040 0.4537 0.0000
vt 0.9530 0.2430 0.0000
vt 0.9530 0.1979 0.0000
vt 0.9711 0.1979 0.0000
vt 0.9711 0.2430 0.0000
vt 0.9711 0.3660 0.0000
vt 0.9530 0.3660 0.0000
vt 0.9530 0.3495 0.0000
vt 0.9711 0.3495 0.0000
vt 0.9518 0.5178 0.0000
vt 0.9518 0.4993 0.0000
vt 0.9626 0.4993 0.0000
vt 0.9626 0.5178 0.0000
vt 0.8039 0.5176 0.0000
vt 0.7098 0.5176 0.0000
vt 0.7098 0.4995 0.0000
vt 0.8039 0.4995 0.0000
vt 0.8550 0.2430 0.0000
vt 0.8369 0.2430 0.0000
vt 0.8369 0.1979 0.0000
vt 0.8550 0.1979 0.0000
vt 0.8550 0.2485 0.0000
vt 0.8550 0.2649 0.0000
vt 0.8369 0.2649 0.0000
vt 0.8369 0.2485 0.0000
vt 0.8269 0.5178 0.0000
vt 0.8187 0.5178 0.0000
vt 0.8187 0.4993 0.0000
vt 0.8269 0.4993 0.0000
vt 0.9436 0.5178 0.0000
vt 0.9436 0.4993 0.0000
vt 0.8079 0.5178 0.0000
vt 0.8079 0.4993 0.0000
vt 0.9076 0.5178 0.0000
vt 0.8915 0.5178 0.0000
vt 0.8915 0.4993 0.0000
vt 0.9076 0.4993 0.0000
vt 0.8629 0.4993 0.0000
vt 0.8629 0.5178 0.0000
vt 0.8791 0.4993 0.0000
vt 0.8791 0.5178 0.0000
vt 0.9682 0.4936 0.0000
vt 0.9863 0.4538 0.0000
vt 0.9863 0.5221 0.0000
vt 0.9682 0.5221 0.0000
vt 0.9682 0.4823 0.0000
vt 0.9682 0.4538 0.0000
vt 0.6701 0.4159 0.0000
vt 0.7113 0.3973 0.0000
vt 0.6886 0.4245 0.0000
vt 0.6701 0.4323 0.0000
vt 0.7113 0.3032 0.0000
vt 0.7795 0.3032 0.0000
vt 0.7795 0.3973 0.0000
vt 0.8207 0.4323 0.0000
vt 0.8023 0.4245 0.0000
vt 0.8207 0.4159 0.0000
vt 0.8102 0.4323 0.0000
vt 0.7672 0.4168 0.0000
vt 0.7514 0.4168 0.0000
vt 0.7394 0.4168 0.0000
vt 0.7236 0.4168 0.0000
vt 0.6806 0.4323 0.0000
vt 0.8786 0.3973 0.0000
vt 0.9070 0.3973 0.0000
vt 0.9184 0.3973 0.0000
vt 0.9880 0.4159 0.0000
vt 0.9468 0.3973 0.0000
vt 0.9880 0.4323 0.0000
vt 0.9775 0.4323 0.0000
vt 0.9696 0.4245 0.0000
vt 0.9345 0.4168 0.0000
vt 0.9187 0.4168 0.0000
vt 0.9067 0.4168 0.0000
vt 0.8558 0.4245 0.0000
vt 0.8909 0.4168 0.0000
vt 0.8479 0.4323 0.0000
vt 0.8374 0.4323 0.0000
vt 0.8374 0.4159 0.0000
vt 0.9468 0.1926 0.0000
vt 0.9696 0.1654 0.0000
vt 0.9880 0.1576 0.0000
vt 0.9880 0.1741 0.0000
vt 0.8786 0.1926 0.0000
vt 0.8374 0.1741 0.0000
vt 0.9184 0.1926 0.0000
vt 0.9070 0.1926 0.0000
vt 0.8909 0.1731 0.0000
vt 0.8558 0.1654 0.0000
vt 0.8374 0.1576 0.0000
vt 0.8479 0.1576 0.0000
vt 0.9067 0.1731 0.0000
vt 0.9187 0.1731 0.0000
vt 0.9345 0.1731 0.0000
vt 0.9775 0.1576 0.0000
vt 0.9184 0.3032 0.0000
vt 0.9468 0.3032 0.0000
vt 0.8786 0.3032 0.0000
vt 0.9070 0.3032 0.0000
vt 0.9468 0.2867 0.0000
vt 0.9184 0.2867 0.0000
vt 0.9070 0.2867 0.0000
vt 0.8786 0.2867 0.0000
vt 0.6519 0.4327 0.0000
vt 0.0120 0.4327 0.0000
vt 0.0120 0.4214 0.0000
vt 0.6519 0.4214 0.0000
vt 0.3465 0.7532 0.0000
vt 0.3465 0.6591 0.0000
vt 0.9865 0.6591 0.0000
vt 0.9865 0.7532 0.0000
vt 0.3465 0.6376 0.0000
vt 0.3465 0.5435 0.0000
vt 0.9865 0.5435 0.0000
vt 0.9865 0.6376 0.0000
# 248 texture coords

g zhuozi001
usemtl bashou
s 1
f 1/1/1 2/2/2 3/3/2 4/4/1 
s 4
f 5/5/3 6/6/3 7/7/3 8/8/3 
s 2
f 9/9/4 10/10/5 11/11/5 12/12/4 
s 4
f 13/13/6 14/14/6 15/15/6 16/16/6 
s 16
f 17/17/7 18/18/7 19/19/7 20/20/7 
f 21/21/8 22/22/8 23/23/8 24/24/8 
s 1
f 2/2/2 8/25/9 7/26/9 3/3/2 
f 4/4/1 14/27/10 13/28/10 1/1/1 
s 2
f 10/10/5 16/29/11 15/30/11 11/11/5 
f 12/12/4 6/31/12 5/32/12 9/9/4 
s 16
f 18/18/7 25/33/7 26/34/7 19/19/7 
f 20/20/7 27/35/7 28/36/7 17/17/7 
f 22/22/8 29/37/8 30/38/8 23/23/8 
f 24/24/8 31/39/8 32/40/8 21/21/8 
s off
f 1/1/13 13/28/13 25/41/13 18/42/13 
f 3/3/14 7/26/14 31/43/14 24/44/14 
f 5/5/15 8/8/15 28/45/15 27/46/15 
f 7/7/16 6/6/16 32/47/16 31/48/16 
f 9/9/17 5/32/17 27/49/17 20/50/17 
f 11/11/18 15/30/18 29/51/18 22/52/18 
f 13/13/19 16/16/19 26/53/19 25/54/19 
f 15/15/20 14/14/20 30/55/20 29/56/20 
f 2/2/21 1/1/21 18/42/21 17/57/21 
f 8/25/22 2/2/22 17/57/22 28/58/22 
f 4/4/23 3/3/23 24/44/23 23/59/23 
f 14/27/24 4/4/24 23/59/24 30/60/24 
f 10/10/25 9/9/25 20/50/25 19/61/25 
f 16/29/26 10/10/26 19/61/26 26/62/26 
f 12/12/27 11/11/27 22/52/27 21/63/27 
f 6/31/28 12/12/28 21/63/28 32/64/28 
usemtl 12___Default
s 1
f 33/65/29 34/66/29 35/67/29 36/68/29 
s 4
f 33/69/30 37/70/30 38/71/30 34/72/30 
s 2
f 39/73/29 38/74/29 37/75/29 40/76/29 
s 4
f 40/77/7 41/78/31 42/79/32 39/80/7 
s 1
f 43/81/33 44/82/33 45/83/33 46/84/33 
s 4
f 47/85/34 44/86/34 43/87/34 48/88/34 
s 2
f 48/89/33 49/90/33 50/91/33 47/92/33 
s 4
f 51/93/35 52/94/36 53/95/37 54/96/38 
f 55/97/39 42/79/32 41/78/31 56/98/40 
f 51/93/35 50/99/7 49/100/7 52/94/36 
f 57/101/41 58/102/7 59/103/7 60/104/41 
f 54/96/38 53/95/37 61/105/42 62/106/42 
f 61/105/42 63/107/7 64/108/7 62/106/42 
f 55/97/39 56/98/40 57/101/41 60/104/41 
f 59/103/7 58/102/7 64/108/7 63/107/7 
s 2
f 36/109/8 35/110/8 65/111/8 66/112/6 
f 46/113/8 45/114/8 65/111/8 35/110/8 
s off
f 43/115/43 53/116/43 49/117/43 48/118/43 
f 35/119/6 34/120/6 43/115/6 46/121/6 
f 39/122/44 55/123/44 34/120/44 38/124/44 
f 39/122/45 42/125/45 55/123/45 
f 55/123/46 60/126/46 43/115/46 34/120/46 
f 43/115/47 60/126/47 59/127/47 63/128/47 
f 53/116/48 43/115/48 63/128/48 61/129/48 
f 49/117/45 53/116/45 52/130/45 
s 1
f 67/131/29 68/132/29 69/133/29 70/134/29 
s 4
f 71/135/30 69/136/30 68/137/30 72/138/30 
s 2
f 73/139/29 74/140/29 71/141/29 72/142/29 
s 4
f 75/143/31 76/144/32 74/145/7 73/146/7 
s 1
f 77/147/33 78/148/33 79/149/33 80/150/33 
s 4
f 77/151/34 80/152/34 81/153/34 82/154/34 
s 2
f 83/155/33 82/156/33 81/157/33 84/158/33 
s 4
f 85/159/38 86/160/35 87/161/36 88/162/37 
f 75/143/31 89/163/40 90/164/39 76/144/32 
f 83/165/7 84/166/7 87/161/36 86/160/35 
f 91/167/41 92/168/7 93/169/7 94/170/41 
f 85/159/38 88/162/37 95/171/42 96/172/42 
f 97/173/7 98/174/7 96/172/42 95/171/42 
f 90/164/39 89/163/40 91/167/41 94/170/41 
f 93/169/7 92/168/7 98/174/7 97/173/7 
s 2
f 99/175/8 78/176/8 67/177/8 70/178/8 
f 99/175/8 100/179/6 79/180/8 78/176/8 
s off
f 72/181/49 68/182/49 89/183/49 73/184/49 
f 67/185/3 78/186/3 77/187/3 68/182/3 
f 83/188/50 85/189/50 77/187/50 82/190/50 
f 83/188/51 86/191/51 85/189/51 
f 77/187/52 85/189/52 96/192/52 68/182/52 
f 98/193/3 92/194/3 68/182/3 96/192/3 
f 91/195/53 89/183/53 68/182/53 92/194/53 
f 73/184/51 89/183/51 75/196/51 
f 33/197/3 101/198/3 102/199/3 47/200/3 
f 102/199/3 44/201/3 47/200/3 
f 50/202/54 51/203/54 54/204/54 47/200/54 
f 33/197/55 47/200/55 54/204/55 62/205/55 
f 33/197/3 62/205/3 64/206/3 58/207/3 
f 56/208/53 33/197/53 58/207/53 57/209/53 
f 41/210/56 40/211/56 33/197/56 56/208/56 
f 33/197/3 40/211/3 37/212/3 
f 80/213/43 88/214/43 84/215/43 81/216/43 
f 69/217/6 71/218/6 103/219/6 104/220/6 
f 94/221/6 80/213/6 103/219/6 71/218/6 
f 90/222/57 71/218/57 74/223/57 76/224/57 
f 71/218/58 90/222/58 94/221/58 
f 93/225/6 97/226/6 80/213/6 94/221/6 
f 80/213/48 97/226/48 95/227/48 88/214/48 
f 84/215/45 88/214/45 87/228/45 
f 65/229/3 45/230/3 44/201/3 102/199/3 
f 33/197/3 36/231/3 66/232/3 101/198/3 
f 103/219/6 80/213/6 79/233/6 100/234/6 
f 69/217/6 104/220/6 99/235/6 70/236/6 
s 1
f 103/237/7 102/238/7 101/239/7 104/240/7 
s 4
f 101/241/29 66/242/29 99/243/29 104/244/29 
s 1
f 99/175/8 66/112/8 65/111/8 100/179/8 
s 4
f 65/245/33 102/246/33 103/247/33 100/248/33 
# 96 polygons - 8 triangles

